ISO-10303-21;
HEADER;
/* L_Coilcraft_MSS1278-XXX.step 3D STEP model for use in ECAD systems
 * Copyright (C) 2024, KiCAD
 *
 * This work is licensed under the
 * [Creative Commons CC-BY-SA 4.0 License](https://creativecommons.org/licenses/by-sa/4.0/legalcode),
 * with the following exception:
 *
 * To the extent that the creation of electronic designs that use 'Licensed Material' can be
 * considered to be 'Adapted Material', then the copyright holder waives article 3 of the license
 * with respect to these designs and any generated files which use data provided as part of the
 * 'Licensed Material'.
 *
 * You are free to use the library data in your own projects without the obligation to share your
 * project files under this or any other license agreement. However, if you wish to distribute
 * these libraries, or parts thereof (including in modified form) as a collection then the exception
 * above does not apply. Please refer to
 * https://gitlab.com/kicad/libraries/kicad-packages3D/-/blob/master/LICENSE.md for further clarification
 * of the exception.
 *
 * Disclaimer of Warranties and Limitation of Liability.
 * These libraries are provided in the hope that they will be useful, but are provided without warranty of any kind, express or implied.
 * USE 3D CAD DATA AT YOUR OWN RISK
 * DO NOT RELY UPON ANY INFORMATION FOUND HERE WITHOUT INDEPENDENT VERIFICATION.
 */

FILE_DESCRIPTION(
/* description */ ('model of L_Coilcraft_MSS1278-XXX'),
/* implementation_level */ '2;1');

FILE_NAME(
/* name */ 'L_Coilcraft_MSS1278-XXX.step',
/* time_stamp */ '2024-11-07T18:14:52',
/* author */ ('KiCAD','kicad'),
/* organization */ ('OCCT'),
/* preprocessor_version */ '',
/* originating_system */ 'KiCAD',
/* authorisation */ '');

FILE_SCHEMA(('AUTOMOTIVE_DESIGN { 1 0 10303 214 1 1 1 1 }'));
ENDSEC;

DATA;
#1=APPLICATION_PROTOCOL_DEFINITION('international standard','automotive_design',2000,#2);
#2=APPLICATION_CONTEXT('core data for automotive mechanical design processes');
#3=SHAPE_DEFINITION_REPRESENTATION(#4,#10);
#4=PRODUCT_DEFINITION_SHAPE('','',#5);
#5=PRODUCT_DEFINITION('design','',#6,#9);
#6=PRODUCT_DEFINITION_FORMATION('','',#7);
#7=PRODUCT('L_Coilcraft_MSS1278-XXX','L_Coilcraft_MSS1278-XXX','',(#8));
#8=PRODUCT_CONTEXT('',#2,'mechanical');
#9=PRODUCT_DEFINITION_CONTEXT('part definition',#2,'design');
#10=ADVANCED_BREP_SHAPE_REPRESENTATION('',(#11,#15),#994);
#11=AXIS2_PLACEMENT_3D('',#12,#13,#14);
#12=CARTESIAN_POINT('',(0.,0.,0.));
#13=DIRECTION('',(0.,0.,1.));
#14=DIRECTION('',(1.,0.,-0.));
#15=MANIFOLD_SOLID_BREP('',#16);
#16=CLOSED_SHELL('',(#17,#61,#133,#150,#185,#219,#241,#257,#266,#289,#324,#351,#362,#389,#400,#484,#495,#506,#522,#536,#568,#580,#594,#611,#623,#632,#642,#655,#669,#688,#704,#717,#732,#743,#758,#769,#779,#808,#838,#851,#893,#901,#928,#933,#951,#956,#961,#967,#973,#989));
#17=ADVANCED_FACE('',(#18),#57,.T.);
#18=FACE_BOUND('',#19,.F.);
#19=EDGE_LOOP('',(#20,#30,#36,#40,#46,#50,#54));
#20=ORIENTED_EDGE('',*,*,#21,.F.);
#21=EDGE_CURVE('',#22,#24,#26,.T.);
#22=VERTEX_POINT('',#23);
#23=CARTESIAN_POINT('',(-6.,-2.5,0.));
#24=VERTEX_POINT('',#25);
#25=CARTESIAN_POINT('',(-2.5,-6.,0.));
#26=LINE('',#27,#28);
#27=CARTESIAN_POINT('',(-4.25,-4.25,0.));
#28=VECTOR('',#29,1.);
#29=DIRECTION('',(0.707106781187,-0.707106781187,0.));
#30=ORIENTED_EDGE('',*,*,#31,.T.);
#31=EDGE_CURVE('',#22,#32,#34,.T.);
#32=VERTEX_POINT('',#33);
#33=CARTESIAN_POINT('',(-6.,-2.5,0.635));
#34=LINE('',#23,#35);
#35=VECTOR('',#13,1.);
#36=ORIENTED_EDGE('',*,*,#37,.T.);
#37=EDGE_CURVE('',#32,#38,#34,.T.);
#38=VERTEX_POINT('',#39);
#39=CARTESIAN_POINT('',(-6.,-2.5,1.2));
#40=ORIENTED_EDGE('',*,*,#41,.T.);
#41=EDGE_CURVE('',#38,#42,#44,.T.);
#42=VERTEX_POINT('',#43);
#43=CARTESIAN_POINT('',(-5.021330834637,-3.478669165363,1.2));
#44=LINE('',#45,#28);
#45=CARTESIAN_POINT('',(-4.25,-4.25,1.2));
#46=ORIENTED_EDGE('',*,*,#47,.T.);
#47=EDGE_CURVE('',#42,#48,#44,.T.);
#48=VERTEX_POINT('',#49);
#49=CARTESIAN_POINT('',(-3.478669165363,-5.021330834637,1.2));
#50=ORIENTED_EDGE('',*,*,#51,.T.);
#51=EDGE_CURVE('',#48,#52,#44,.T.);
#52=VERTEX_POINT('',#53);
#53=CARTESIAN_POINT('',(-2.5,-6.,1.2));
#54=ORIENTED_EDGE('',*,*,#55,.F.);
#55=EDGE_CURVE('',#24,#52,#56,.T.);
#56=LINE('',#25,#35);
#57=PLANE('',#58);
#58=AXIS2_PLACEMENT_3D('',#27,#59,#60);
#59=DIRECTION('',(-0.707106781187,-0.707106781187,0.));
#60=DIRECTION('',(-0.,-0.,-1.));
#61=ADVANCED_FACE('',(#62),#131,.F.);
#62=FACE_BOUND('',#63,.F.);
#63=EDGE_LOOP('',(#64,#70,#71,#77,#84,#89,#96,#101,#109,#115,#123,#128));
#64=ORIENTED_EDGE('',*,*,#65,.F.);
#65=EDGE_CURVE('',#22,#66,#68,.T.);
#66=VERTEX_POINT('',#67);
#67=CARTESIAN_POINT('',(-2.5,-2.5,0.));
#68=LINE('',#23,#69);
#69=VECTOR('',#14,1.);
#70=ORIENTED_EDGE('',*,*,#21,.T.);
#71=ORIENTED_EDGE('',*,*,#72,.T.);
#72=EDGE_CURVE('',#24,#73,#75,.T.);
#73=VERTEX_POINT('',#74);
#74=CARTESIAN_POINT('',(2.5,-6.,0.));
#75=LINE('',#76,#69);
#76=CARTESIAN_POINT('',(-6.,-6.,0.));
#77=ORIENTED_EDGE('',*,*,#78,.F.);
#78=EDGE_CURVE('',#79,#73,#81,.T.);
#79=VERTEX_POINT('',#80);
#80=CARTESIAN_POINT('',(6.,-2.5,0.));
#81=LINE('',#82,#83);
#82=CARTESIAN_POINT('',(1.25,-7.25,0.));
#83=VECTOR('',#59,1.);
#84=ORIENTED_EDGE('',*,*,#85,.F.);
#85=EDGE_CURVE('',#86,#79,#88,.T.);
#86=VERTEX_POINT('',#87);
#87=CARTESIAN_POINT('',(2.5,-2.5,0.));
#88=LINE('',#87,#69);
#89=ORIENTED_EDGE('',*,*,#90,.T.);
#90=EDGE_CURVE('',#86,#91,#93,.T.);
#91=VERTEX_POINT('',#92);
#92=CARTESIAN_POINT('',(2.5,2.5,0.));
#93=LINE('',#87,#94);
#94=VECTOR('',#95,1.);
#95=DIRECTION('',(0.,1.,0.));
#96=ORIENTED_EDGE('',*,*,#97,.T.);
#97=EDGE_CURVE('',#91,#98,#100,.T.);
#98=VERTEX_POINT('',#99);
#99=CARTESIAN_POINT('',(6.,2.5,0.));
#100=LINE('',#92,#69);
#101=ORIENTED_EDGE('',*,*,#102,.T.);
#102=EDGE_CURVE('',#98,#103,#105,.T.);
#103=VERTEX_POINT('',#104);
#104=CARTESIAN_POINT('',(2.5,6.,0.));
#105=LINE('',#106,#107);
#106=CARTESIAN_POINT('',(4.25,4.25,0.));
#107=VECTOR('',#108,1.);
#108=DIRECTION('',(-0.707106781187,0.707106781187,0.));
#109=ORIENTED_EDGE('',*,*,#110,.F.);
#110=EDGE_CURVE('',#111,#103,#113,.T.);
#111=VERTEX_POINT('',#112);
#112=CARTESIAN_POINT('',(-2.5,6.,0.));
#113=LINE('',#114,#69);
#114=CARTESIAN_POINT('',(-6.,6.,0.));
#115=ORIENTED_EDGE('',*,*,#116,.F.);
#116=EDGE_CURVE('',#117,#111,#119,.T.);
#117=VERTEX_POINT('',#118);
#118=CARTESIAN_POINT('',(-6.,2.5,0.));
#119=LINE('',#120,#121);
#120=CARTESIAN_POINT('',(-7.25,1.25,0.));
#121=VECTOR('',#122,1.);
#122=DIRECTION('',(0.707106781187,0.707106781187,-0.));
#123=ORIENTED_EDGE('',*,*,#124,.T.);
#124=EDGE_CURVE('',#117,#125,#127,.T.);
#125=VERTEX_POINT('',#126);
#126=CARTESIAN_POINT('',(-2.5,2.5,0.));
#127=LINE('',#118,#69);
#128=ORIENTED_EDGE('',*,*,#129,.F.);
#129=EDGE_CURVE('',#66,#125,#130,.T.);
#130=LINE('',#67,#94);
#131=PLANE('',#132);
#132=AXIS2_PLACEMENT_3D('',#76,#13,#14);
#133=ADVANCED_FACE('',(#134),#148,.F.);
#134=FACE_BOUND('',#135,.F.);
#135=EDGE_LOOP('',(#136,#137,#140,#145));
#136=ORIENTED_EDGE('',*,*,#31,.F.);
#137=ORIENTED_EDGE('',*,*,#138,.T.);
#138=EDGE_CURVE('',#22,#117,#139,.T.);
#139=LINE('',#23,#94);
#140=ORIENTED_EDGE('',*,*,#141,.T.);
#141=EDGE_CURVE('',#117,#142,#144,.T.);
#142=VERTEX_POINT('',#143);
#143=CARTESIAN_POINT('',(-6.,2.5,0.635));
#144=LINE('',#118,#35);
#145=ORIENTED_EDGE('',*,*,#146,.F.);
#146=EDGE_CURVE('',#32,#142,#147,.T.);
#147=LINE('',#33,#94);
#148=PLANE('',#149);
#149=AXIS2_PLACEMENT_3D('',#23,#14,#13);
#150=ADVANCED_FACE('',(#151),#183,.F.);
#151=FACE_BOUND('',#152,.F.);
#152=EDGE_LOOP('',(#153,#154,#155,#159,#165,#170,#176,#181));
#153=ORIENTED_EDGE('',*,*,#37,.F.);
#154=ORIENTED_EDGE('',*,*,#146,.T.);
#155=ORIENTED_EDGE('',*,*,#156,.T.);
#156=EDGE_CURVE('',#142,#157,#144,.T.);
#157=VERTEX_POINT('',#158);
#158=CARTESIAN_POINT('',(-6.,2.5,1.2));
#159=ORIENTED_EDGE('',*,*,#160,.T.);
#160=EDGE_CURVE('',#157,#161,#163,.T.);
#161=VERTEX_POINT('',#162);
#162=CARTESIAN_POINT('',(-6.,3.5,1.2));
#163=LINE('',#164,#94);
#164=CARTESIAN_POINT('',(-6.,-6.,1.2));
#165=ORIENTED_EDGE('',*,*,#166,.T.);
#166=EDGE_CURVE('',#161,#167,#169,.T.);
#167=VERTEX_POINT('',#168);
#168=CARTESIAN_POINT('',(-6.,3.5,7.8));
#169=LINE('',#162,#35);
#170=ORIENTED_EDGE('',*,*,#171,.F.);
#171=EDGE_CURVE('',#172,#167,#174,.T.);
#172=VERTEX_POINT('',#173);
#173=CARTESIAN_POINT('',(-6.,-3.5,7.8));
#174=LINE('',#175,#94);
#175=CARTESIAN_POINT('',(-6.,-6.,7.8));
#176=ORIENTED_EDGE('',*,*,#177,.F.);
#177=EDGE_CURVE('',#178,#172,#180,.T.);
#178=VERTEX_POINT('',#179);
#179=CARTESIAN_POINT('',(-6.,-3.5,1.2));
#180=LINE('',#179,#35);
#181=ORIENTED_EDGE('',*,*,#182,.T.);
#182=EDGE_CURVE('',#178,#38,#163,.T.);
#183=PLANE('',#184);
#184=AXIS2_PLACEMENT_3D('',#76,#14,#13);
#185=ADVANCED_FACE('',(#186),#217,.F.);
#186=FACE_BOUND('',#187,.F.);
#187=EDGE_LOOP('',(#188,#189,#190,#195,#200,#205,#210,#214));
#188=ORIENTED_EDGE('',*,*,#72,.F.);
#189=ORIENTED_EDGE('',*,*,#55,.T.);
#190=ORIENTED_EDGE('',*,*,#191,.F.);
#191=EDGE_CURVE('',#192,#52,#194,.T.);
#192=VERTEX_POINT('',#193);
#193=CARTESIAN_POINT('',(-3.5,-6.,1.2));
#194=LINE('',#164,#69);
#195=ORIENTED_EDGE('',*,*,#196,.T.);
#196=EDGE_CURVE('',#192,#197,#199,.T.);
#197=VERTEX_POINT('',#198);
#198=CARTESIAN_POINT('',(-3.5,-6.,7.8));
#199=LINE('',#193,#35);
#200=ORIENTED_EDGE('',*,*,#201,.T.);
#201=EDGE_CURVE('',#197,#202,#204,.T.);
#202=VERTEX_POINT('',#203);
#203=CARTESIAN_POINT('',(3.5,-6.,7.8));
#204=LINE('',#175,#69);
#205=ORIENTED_EDGE('',*,*,#206,.F.);
#206=EDGE_CURVE('',#207,#202,#209,.T.);
#207=VERTEX_POINT('',#208);
#208=CARTESIAN_POINT('',(3.5,-6.,1.2));
#209=LINE('',#208,#35);
#210=ORIENTED_EDGE('',*,*,#211,.F.);
#211=EDGE_CURVE('',#212,#207,#194,.T.);
#212=VERTEX_POINT('',#213);
#213=CARTESIAN_POINT('',(2.5,-6.,1.2));
#214=ORIENTED_EDGE('',*,*,#215,.F.);
#215=EDGE_CURVE('',#73,#212,#216,.T.);
#216=LINE('',#74,#35);
#217=PLANE('',#218);
#218=AXIS2_PLACEMENT_3D('',#76,#95,#13);
#219=ADVANCED_FACE('',(#220),#238,.F.);
#220=FACE_BOUND('',#221,.F.);
#221=EDGE_LOOP('',(#222,#223,#224,#230,#231,#232));
#222=ORIENTED_EDGE('',*,*,#191,.T.);
#223=ORIENTED_EDGE('',*,*,#51,.F.);
#224=ORIENTED_EDGE('',*,*,#225,.F.);
#225=EDGE_CURVE('',#42,#48,#226,.T.);
#226=CIRCLE('',#227,1.25);
#227=AXIS2_PLACEMENT_3D('',#228,#13,#229);
#228=CARTESIAN_POINT('',(-3.818376618407,-3.818376618407,1.2));
#229=DIRECTION('',(-0.62051357746,0.784195702735,0.));
#230=ORIENTED_EDGE('',*,*,#41,.F.);
#231=ORIENTED_EDGE('',*,*,#182,.F.);
#232=ORIENTED_EDGE('',*,*,#233,.T.);
#233=EDGE_CURVE('',#178,#192,#234,.T.);
#234=CIRCLE('',#235,2.5);
#235=AXIS2_PLACEMENT_3D('',#236,#13,#237);
#236=CARTESIAN_POINT('',(-3.5,-3.5,1.2));
#237=DIRECTION('',(0.,-1.,0.));
#238=PLANE('',#239);
#239=AXIS2_PLACEMENT_3D('',#240,#13,#14);
#240=CARTESIAN_POINT('',(1.26614827087E-16,3.279323032744E-17,1.2));
#241=ADVANCED_FACE('',(#242),#255,.T.);
#242=FACE_BOUND('',#243,.T.);
#243=EDGE_LOOP('',(#244,#46,#248,#252));
#244=ORIENTED_EDGE('',*,*,#245,.T.);
#245=EDGE_CURVE('',#246,#42,#226,.T.);
#246=VERTEX_POINT('',#247);
#247=CARTESIAN_POINT('',(-4.594018590232,-2.838131989989,1.2));
#248=ORIENTED_EDGE('',*,*,#249,.T.);
#249=EDGE_CURVE('',#48,#250,#226,.T.);
#250=VERTEX_POINT('',#251);
#251=CARTESIAN_POINT('',(-2.838131989989,-4.594018590232,1.2));
#252=ORIENTED_EDGE('',*,*,#253,.F.);
#253=EDGE_CURVE('',#246,#250,#254,.T.);
#254=CIRCLE('',#239,5.4);
#255=PLANE('',#256);
#256=AXIS2_PLACEMENT_3D('',#164,#13,#14);
#257=ADVANCED_FACE('',(#258),#264,.F.);
#258=FACE_BOUND('',#259,.F.);
#259=EDGE_LOOP('',(#260,#261,#262,#263));
#260=ORIENTED_EDGE('',*,*,#138,.F.);
#261=ORIENTED_EDGE('',*,*,#65,.T.);
#262=ORIENTED_EDGE('',*,*,#129,.T.);
#263=ORIENTED_EDGE('',*,*,#124,.F.);
#264=PLANE('',#265);
#265=AXIS2_PLACEMENT_3D('',#23,#13,#14);
#266=ADVANCED_FACE('',(#267),#286,.F.);
#267=FACE_BOUND('',#268,.T.);
#268=EDGE_LOOP('',(#115,#140,#155,#269,#275,#279,#283));
#269=ORIENTED_EDGE('',*,*,#270,.T.);
#270=EDGE_CURVE('',#157,#271,#273,.T.);
#271=VERTEX_POINT('',#272);
#272=CARTESIAN_POINT('',(-5.021330834637,3.478669165363,1.2));
#273=LINE('',#274,#121);
#274=CARTESIAN_POINT('',(-7.25,1.25,1.2));
#275=ORIENTED_EDGE('',*,*,#276,.T.);
#276=EDGE_CURVE('',#271,#277,#273,.T.);
#277=VERTEX_POINT('',#278);
#278=CARTESIAN_POINT('',(-3.478669165363,5.021330834637,1.2));
#279=ORIENTED_EDGE('',*,*,#280,.T.);
#280=EDGE_CURVE('',#277,#281,#273,.T.);
#281=VERTEX_POINT('',#282);
#282=CARTESIAN_POINT('',(-2.5,6.,1.2));
#283=ORIENTED_EDGE('',*,*,#284,.F.);
#284=EDGE_CURVE('',#111,#281,#285,.T.);
#285=LINE('',#112,#35);
#286=PLANE('',#287);
#287=AXIS2_PLACEMENT_3D('',#288,#29,#60);
#288=CARTESIAN_POINT('',(-4.25,4.25,0.));
#289=ADVANCED_FACE('',(#290),#322,.T.);
#290=FACE_BOUND('',#291,.T.);
#291=EDGE_LOOP('',(#109,#292,#293,#299,#304,#310,#315,#319));
#292=ORIENTED_EDGE('',*,*,#284,.T.);
#293=ORIENTED_EDGE('',*,*,#294,.F.);
#294=EDGE_CURVE('',#295,#281,#297,.T.);
#295=VERTEX_POINT('',#296);
#296=CARTESIAN_POINT('',(-3.5,6.,1.2));
#297=LINE('',#298,#69);
#298=CARTESIAN_POINT('',(-6.,6.,1.2));
#299=ORIENTED_EDGE('',*,*,#300,.T.);
#300=EDGE_CURVE('',#295,#301,#303,.T.);
#301=VERTEX_POINT('',#302);
#302=CARTESIAN_POINT('',(-3.5,6.,7.8));
#303=LINE('',#296,#35);
#304=ORIENTED_EDGE('',*,*,#305,.T.);
#305=EDGE_CURVE('',#301,#306,#308,.T.);
#306=VERTEX_POINT('',#307);
#307=CARTESIAN_POINT('',(3.5,6.,7.8));
#308=LINE('',#309,#69);
#309=CARTESIAN_POINT('',(-6.,6.,7.8));
#310=ORIENTED_EDGE('',*,*,#311,.F.);
#311=EDGE_CURVE('',#312,#306,#314,.T.);
#312=VERTEX_POINT('',#313);
#313=CARTESIAN_POINT('',(3.5,6.,1.2));
#314=LINE('',#313,#35);
#315=ORIENTED_EDGE('',*,*,#316,.F.);
#316=EDGE_CURVE('',#317,#312,#297,.T.);
#317=VERTEX_POINT('',#318);
#318=CARTESIAN_POINT('',(2.5,6.,1.2));
#319=ORIENTED_EDGE('',*,*,#320,.F.);
#320=EDGE_CURVE('',#103,#317,#321,.T.);
#321=LINE('',#104,#35);
#322=PLANE('',#323);
#323=AXIS2_PLACEMENT_3D('',#114,#95,#13);
#324=ADVANCED_FACE('',(#325),#349,.T.);
#325=FACE_BOUND('',#326,.F.);
#326=EDGE_LOOP('',(#327,#328,#333,#337,#343,#347,#319));
#327=ORIENTED_EDGE('',*,*,#102,.F.);
#328=ORIENTED_EDGE('',*,*,#329,.T.);
#329=EDGE_CURVE('',#98,#330,#332,.T.);
#330=VERTEX_POINT('',#331);
#331=CARTESIAN_POINT('',(6.,2.5,0.635));
#332=LINE('',#99,#35);
#333=ORIENTED_EDGE('',*,*,#334,.T.);
#334=EDGE_CURVE('',#330,#335,#332,.T.);
#335=VERTEX_POINT('',#336);
#336=CARTESIAN_POINT('',(6.,2.5,1.2));
#337=ORIENTED_EDGE('',*,*,#338,.T.);
#338=EDGE_CURVE('',#335,#339,#341,.T.);
#339=VERTEX_POINT('',#340);
#340=CARTESIAN_POINT('',(5.021330834637,3.478669165363,1.2));
#341=LINE('',#342,#107);
#342=CARTESIAN_POINT('',(4.25,4.25,1.2));
#343=ORIENTED_EDGE('',*,*,#344,.T.);
#344=EDGE_CURVE('',#339,#345,#341,.T.);
#345=VERTEX_POINT('',#346);
#346=CARTESIAN_POINT('',(3.478669165363,5.021330834637,1.2));
#347=ORIENTED_EDGE('',*,*,#348,.T.);
#348=EDGE_CURVE('',#345,#317,#341,.T.);
#349=PLANE('',#350);
#350=AXIS2_PLACEMENT_3D('',#106,#122,#60);
#351=ADVANCED_FACE('',(#352),#360,.F.);
#352=FACE_BOUND('',#353,.F.);
#353=EDGE_LOOP('',(#354,#355,#356,#359));
#354=ORIENTED_EDGE('',*,*,#90,.F.);
#355=ORIENTED_EDGE('',*,*,#85,.T.);
#356=ORIENTED_EDGE('',*,*,#357,.T.);
#357=EDGE_CURVE('',#79,#98,#358,.T.);
#358=LINE('',#80,#94);
#359=ORIENTED_EDGE('',*,*,#97,.F.);
#360=PLANE('',#361);
#361=AXIS2_PLACEMENT_3D('',#87,#13,#14);
#362=ADVANCED_FACE('',(#363),#386,.F.);
#363=FACE_BOUND('',#364,.T.);
#364=EDGE_LOOP('',(#77,#365,#370,#374,#380,#384,#214));
#365=ORIENTED_EDGE('',*,*,#366,.T.);
#366=EDGE_CURVE('',#79,#367,#369,.T.);
#367=VERTEX_POINT('',#368);
#368=CARTESIAN_POINT('',(6.,-2.5,0.635));
#369=LINE('',#80,#35);
#370=ORIENTED_EDGE('',*,*,#371,.T.);
#371=EDGE_CURVE('',#367,#372,#369,.T.);
#372=VERTEX_POINT('',#373);
#373=CARTESIAN_POINT('',(6.,-2.5,1.2));
#374=ORIENTED_EDGE('',*,*,#375,.T.);
#375=EDGE_CURVE('',#372,#376,#378,.T.);
#376=VERTEX_POINT('',#377);
#377=CARTESIAN_POINT('',(5.021330834637,-3.478669165363,1.2));
#378=LINE('',#379,#83);
#379=CARTESIAN_POINT('',(1.25,-7.25,1.2));
#380=ORIENTED_EDGE('',*,*,#381,.T.);
#381=EDGE_CURVE('',#376,#382,#378,.T.);
#382=VERTEX_POINT('',#383);
#383=CARTESIAN_POINT('',(3.478669165363,-5.021330834637,1.2));
#384=ORIENTED_EDGE('',*,*,#385,.T.);
#385=EDGE_CURVE('',#382,#212,#378,.T.);
#386=PLANE('',#387);
#387=AXIS2_PLACEMENT_3D('',#388,#108,#60);
#388=CARTESIAN_POINT('',(4.25,-4.25,0.));
#389=ADVANCED_FACE('',(#390),#397,.T.);
#390=FACE_BOUND('',#391,.T.);
#391=EDGE_LOOP('',(#232,#195,#392,#176));
#392=ORIENTED_EDGE('',*,*,#393,.F.);
#393=EDGE_CURVE('',#172,#197,#394,.T.);
#394=CIRCLE('',#395,2.5);
#395=AXIS2_PLACEMENT_3D('',#396,#13,#237);
#396=CARTESIAN_POINT('',(-3.5,-3.5,7.8));
#397=CYLINDRICAL_SURFACE('',#398,2.5);
#398=AXIS2_PLACEMENT_3D('',#236,#13,#399);
#399=DIRECTION('',(-1.,-0.,0.));
#400=ADVANCED_FACE('',(#401,#428),#482,.T.);
#401=FACE_BOUND('',#402,.T.);
#402=EDGE_LOOP('',(#170,#403,#200,#404,#411,#417,#422,#423));
#403=ORIENTED_EDGE('',*,*,#393,.T.);
#404=ORIENTED_EDGE('',*,*,#405,.F.);
#405=EDGE_CURVE('',#406,#202,#408,.T.);
#406=VERTEX_POINT('',#407);
#407=CARTESIAN_POINT('',(6.,-3.5,7.8));
#408=CIRCLE('',#409,2.5);
#409=AXIS2_PLACEMENT_3D('',#410,#60,#237);
#410=CARTESIAN_POINT('',(3.5,-3.5,7.8));
#411=ORIENTED_EDGE('',*,*,#412,.T.);
#412=EDGE_CURVE('',#406,#413,#415,.T.);
#413=VERTEX_POINT('',#414);
#414=CARTESIAN_POINT('',(6.,3.5,7.8));
#415=LINE('',#416,#94);
#416=CARTESIAN_POINT('',(6.,-6.,7.8));
#417=ORIENTED_EDGE('',*,*,#418,.T.);
#418=EDGE_CURVE('',#413,#306,#419,.T.);
#419=CIRCLE('',#420,2.5);
#420=AXIS2_PLACEMENT_3D('',#421,#13,#237);
#421=CARTESIAN_POINT('',(3.5,3.5,7.8));
#422=ORIENTED_EDGE('',*,*,#305,.F.);
#423=ORIENTED_EDGE('',*,*,#424,.F.);
#424=EDGE_CURVE('',#167,#301,#425,.T.);
#425=CIRCLE('',#426,2.5);
#426=AXIS2_PLACEMENT_3D('',#427,#60,#237);
#427=CARTESIAN_POINT('',(-3.5,3.5,7.8));
#428=FACE_BOUND('',#429,.T.);
#429=EDGE_LOOP('',(#430,#440,#448,#454,#461,#465,#472,#476));
#430=ORIENTED_EDGE('',*,*,#431,.T.);
#431=EDGE_CURVE('',#432,#434,#436,.T.);
#432=VERTEX_POINT('',#433);
#433=CARTESIAN_POINT('',(-4.912060725924,-2.791802182253,7.8));
#434=VERTEX_POINT('',#435);
#435=CARTESIAN_POINT('',(-4.912060725924,2.791802182253,7.8));
#436=CIRCLE('',#437,5.65);
#437=AXIS2_PLACEMENT_3D('',#438,#60,#439);
#438=CARTESIAN_POINT('',(0.,0.,7.8));
#439=DIRECTION('',(-0.869391278925,-0.494124280045,-0.));
#440=ORIENTED_EDGE('',*,*,#441,.T.);
#441=EDGE_CURVE('',#434,#442,#444,.T.);
#442=VERTEX_POINT('',#443);
#443=CARTESIAN_POINT('',(-2.791802182253,4.912060725924,7.8));
#444=CIRCLE('',#445,1.5);
#445=AXIS2_PLACEMENT_3D('',#446,#60,#447);
#446=CARTESIAN_POINT('',(-3.818376618407,3.818376618407,7.8));
#447=DIRECTION('',(-0.729122738345,-0.684382957436,-0.));
#448=ORIENTED_EDGE('',*,*,#449,.T.);
#449=EDGE_CURVE('',#442,#450,#452,.T.);
#450=VERTEX_POINT('',#451);
#451=CARTESIAN_POINT('',(2.791802182253,4.912060725924,7.8));
#452=CIRCLE('',#453,5.65);
#453=AXIS2_PLACEMENT_3D('',#438,#60,#399);
#454=ORIENTED_EDGE('',*,*,#455,.T.);
#455=EDGE_CURVE('',#450,#456,#458,.T.);
#456=VERTEX_POINT('',#457);
#457=CARTESIAN_POINT('',(4.912060725924,2.791802182253,7.8));
#458=CIRCLE('',#459,1.5);
#459=AXIS2_PLACEMENT_3D('',#460,#60,#399);
#460=CARTESIAN_POINT('',(3.818376618407,3.818376618407,7.8));
#461=ORIENTED_EDGE('',*,*,#462,.T.);
#462=EDGE_CURVE('',#456,#463,#452,.T.);
#463=VERTEX_POINT('',#464);
#464=CARTESIAN_POINT('',(4.912060725924,-2.791802182253,7.8));
#465=ORIENTED_EDGE('',*,*,#466,.T.);
#466=EDGE_CURVE('',#463,#467,#469,.T.);
#467=VERTEX_POINT('',#468);
#468=CARTESIAN_POINT('',(2.791802182253,-4.912060725924,7.8));
#469=CIRCLE('',#470,1.5);
#470=AXIS2_PLACEMENT_3D('',#471,#60,#399);
#471=CARTESIAN_POINT('',(3.818376618407,-3.818376618407,7.8));
#472=ORIENTED_EDGE('',*,*,#473,.T.);
#473=EDGE_CURVE('',#467,#474,#452,.T.);
#474=VERTEX_POINT('',#475);
#475=CARTESIAN_POINT('',(-2.791802182253,-4.912060725924,7.8));
#476=ORIENTED_EDGE('',*,*,#477,.T.);
#477=EDGE_CURVE('',#474,#432,#478,.T.);
#478=CIRCLE('',#479,1.5);
#479=AXIS2_PLACEMENT_3D('',#480,#60,#481);
#480=CARTESIAN_POINT('',(-3.818376618407,-3.818376618407,7.8));
#481=DIRECTION('',(0.684382957436,-0.729122738345,0.));
#482=PLANE('',#483);
#483=AXIS2_PLACEMENT_3D('',#175,#13,#14);
#484=ADVANCED_FACE('',(#485),#493,.T.);
#485=FACE_BOUND('',#486,.F.);
#486=EDGE_LOOP('',(#487,#299,#423,#492));
#487=ORIENTED_EDGE('',*,*,#488,.T.);
#488=EDGE_CURVE('',#161,#295,#489,.T.);
#489=CIRCLE('',#490,2.5);
#490=AXIS2_PLACEMENT_3D('',#491,#60,#237);
#491=CARTESIAN_POINT('',(-3.5,3.5,1.2));
#492=ORIENTED_EDGE('',*,*,#166,.F.);
#493=CYLINDRICAL_SURFACE('',#494,2.5);
#494=AXIS2_PLACEMENT_3D('',#491,#13,#399);
#495=ADVANCED_FACE('',(#496),#238,.F.);
#496=FACE_BOUND('',#497,.F.);
#497=EDGE_LOOP('',(#279,#293,#498,#499,#269,#500));
#498=ORIENTED_EDGE('',*,*,#488,.F.);
#499=ORIENTED_EDGE('',*,*,#160,.F.);
#500=ORIENTED_EDGE('',*,*,#501,.F.);
#501=EDGE_CURVE('',#277,#271,#502,.T.);
#502=CIRCLE('',#503,1.25);
#503=AXIS2_PLACEMENT_3D('',#504,#13,#505);
#504=CARTESIAN_POINT('',(-3.818376618407,3.818376618407,1.2));
#505=DIRECTION('',(0.784195702735,0.62051357746,0.));
#506=ADVANCED_FACE('',(#507),#520,.T.);
#507=FACE_BOUND('',#508,.F.);
#508=EDGE_LOOP('',(#509,#516,#404,#517));
#509=ORIENTED_EDGE('',*,*,#510,.T.);
#510=EDGE_CURVE('',#511,#207,#513,.T.);
#511=VERTEX_POINT('',#512);
#512=CARTESIAN_POINT('',(6.,-3.5,1.2));
#513=CIRCLE('',#514,2.5);
#514=AXIS2_PLACEMENT_3D('',#515,#60,#237);
#515=CARTESIAN_POINT('',(3.5,-3.5,1.2));
#516=ORIENTED_EDGE('',*,*,#206,.T.);
#517=ORIENTED_EDGE('',*,*,#518,.F.);
#518=EDGE_CURVE('',#511,#406,#519,.T.);
#519=LINE('',#512,#35);
#520=CYLINDRICAL_SURFACE('',#521,2.5);
#521=AXIS2_PLACEMENT_3D('',#515,#13,#14);
#522=ADVANCED_FACE('',(#523),#238,.F.);
#523=FACE_BOUND('',#524,.F.);
#524=EDGE_LOOP('',(#525,#374,#529,#384,#534,#535));
#525=ORIENTED_EDGE('',*,*,#526,.T.);
#526=EDGE_CURVE('',#511,#372,#527,.T.);
#527=LINE('',#528,#94);
#528=CARTESIAN_POINT('',(6.,-6.,1.2));
#529=ORIENTED_EDGE('',*,*,#530,.T.);
#530=EDGE_CURVE('',#376,#382,#531,.T.);
#531=CIRCLE('',#532,1.25);
#532=AXIS2_PLACEMENT_3D('',#533,#60,#399);
#533=CARTESIAN_POINT('',(3.818376618407,-3.818376618407,1.2));
#534=ORIENTED_EDGE('',*,*,#211,.T.);
#535=ORIENTED_EDGE('',*,*,#510,.F.);
#536=ADVANCED_FACE('',(#537),#566,.F.);
#537=FACE_BOUND('',#538,.F.);
#538=EDGE_LOOP('',(#244,#539,#248,#540,#547,#551,#558,#564));
#539=ORIENTED_EDGE('',*,*,#225,.T.);
#540=ORIENTED_EDGE('',*,*,#541,.F.);
#541=EDGE_CURVE('',#542,#250,#544,.T.);
#542=VERTEX_POINT('',#543);
#543=CARTESIAN_POINT('',(-2.838131989989,-4.594018590233,7.3));
#544=LINE('',#545,#546);
#545=CARTESIAN_POINT('',(-2.838131989989,-4.594018590232,7.8));
#546=VECTOR('',#60,1.);
#547=ORIENTED_EDGE('',*,*,#548,.F.);
#548=EDGE_CURVE('',#549,#542,#544,.T.);
#549=VERTEX_POINT('',#550);
#550=CARTESIAN_POINT('',(-2.838131989989,-4.594018590232,7.55));
#551=ORIENTED_EDGE('',*,*,#552,.F.);
#552=EDGE_CURVE('',#553,#549,#555,.T.);
#553=VERTEX_POINT('',#554);
#554=CARTESIAN_POINT('',(-4.594018590232,-2.838131989989,7.55));
#555=CIRCLE('',#556,1.25);
#556=AXIS2_PLACEMENT_3D('',#557,#13,#229);
#557=CARTESIAN_POINT('',(-3.818376618407,-3.818376618407,7.55));
#558=ORIENTED_EDGE('',*,*,#559,.T.);
#559=EDGE_CURVE('',#553,#560,#562,.T.);
#560=VERTEX_POINT('',#561);
#561=CARTESIAN_POINT('',(-4.594018590232,-2.838131989989,7.3));
#562=LINE('',#563,#546);
#563=CARTESIAN_POINT('',(-4.594018590232,-2.838131989989,7.8));
#564=ORIENTED_EDGE('',*,*,#565,.T.);
#565=EDGE_CURVE('',#560,#246,#562,.T.);
#566=CYLINDRICAL_SURFACE('',#567,1.25);
#567=AXIS2_PLACEMENT_3D('',#480,#60,#399);
#568=ADVANCED_FACE('',(#569),#578,.T.);
#569=FACE_BOUND('',#570,.F.);
#570=EDGE_LOOP('',(#571,#252,#572,#573));
#571=ORIENTED_EDGE('',*,*,#541,.T.);
#572=ORIENTED_EDGE('',*,*,#565,.F.);
#573=ORIENTED_EDGE('',*,*,#574,.T.);
#574=EDGE_CURVE('',#560,#542,#575,.T.);
#575=CIRCLE('',#576,5.4);
#576=AXIS2_PLACEMENT_3D('',#577,#13,#14);
#577=CARTESIAN_POINT('',(0.,0.,7.3));
#578=CYLINDRICAL_SURFACE('',#579,5.4);
#579=AXIS2_PLACEMENT_3D('',#240,#60,#14);
#580=ADVANCED_FACE('',(#581),#255,.T.);
#581=FACE_BOUND('',#582,.T.);
#582=EDGE_LOOP('',(#583,#584,#588,#592));
#583=ORIENTED_EDGE('',*,*,#276,.F.);
#584=ORIENTED_EDGE('',*,*,#585,.T.);
#585=EDGE_CURVE('',#271,#586,#502,.T.);
#586=VERTEX_POINT('',#587);
#587=CARTESIAN_POINT('',(-4.594018590232,2.838131989989,1.2));
#588=ORIENTED_EDGE('',*,*,#589,.F.);
#589=EDGE_CURVE('',#590,#586,#254,.T.);
#590=VERTEX_POINT('',#591);
#591=CARTESIAN_POINT('',(-2.838131989989,4.594018590232,1.2));
#592=ORIENTED_EDGE('',*,*,#593,.T.);
#593=EDGE_CURVE('',#590,#277,#502,.T.);
#594=ADVANCED_FACE('',(#595),#609,.T.);
#595=FACE_BOUND('',#596,.T.);
#596=EDGE_LOOP('',(#597,#604,#605,#606));
#597=ORIENTED_EDGE('',*,*,#598,.T.);
#598=EDGE_CURVE('',#599,#312,#601,.T.);
#599=VERTEX_POINT('',#600);
#600=CARTESIAN_POINT('',(6.,3.5,1.2));
#601=CIRCLE('',#602,2.5);
#602=AXIS2_PLACEMENT_3D('',#603,#13,#237);
#603=CARTESIAN_POINT('',(3.5,3.5,1.2));
#604=ORIENTED_EDGE('',*,*,#311,.T.);
#605=ORIENTED_EDGE('',*,*,#418,.F.);
#606=ORIENTED_EDGE('',*,*,#607,.F.);
#607=EDGE_CURVE('',#599,#413,#608,.T.);
#608=LINE('',#600,#35);
#609=CYLINDRICAL_SURFACE('',#610,2.5);
#610=AXIS2_PLACEMENT_3D('',#603,#13,#14);
#611=ADVANCED_FACE('',(#612),#238,.F.);
#612=FACE_BOUND('',#613,.F.);
#613=EDGE_LOOP('',(#614,#619,#620,#597,#315,#622));
#614=ORIENTED_EDGE('',*,*,#615,.T.);
#615=EDGE_CURVE('',#345,#339,#616,.T.);
#616=CIRCLE('',#617,1.25);
#617=AXIS2_PLACEMENT_3D('',#618,#60,#399);
#618=CARTESIAN_POINT('',(3.818376618407,3.818376618407,1.2));
#619=ORIENTED_EDGE('',*,*,#338,.F.);
#620=ORIENTED_EDGE('',*,*,#621,.T.);
#621=EDGE_CURVE('',#335,#599,#527,.T.);
#622=ORIENTED_EDGE('',*,*,#348,.F.);
#623=ADVANCED_FACE('',(#624),#630,.T.);
#624=FACE_BOUND('',#625,.T.);
#625=EDGE_LOOP('',(#626,#356,#328,#627));
#626=ORIENTED_EDGE('',*,*,#366,.F.);
#627=ORIENTED_EDGE('',*,*,#628,.F.);
#628=EDGE_CURVE('',#367,#330,#629,.T.);
#629=LINE('',#368,#94);
#630=PLANE('',#631);
#631=AXIS2_PLACEMENT_3D('',#80,#14,#13);
#632=ADVANCED_FACE('',(#633),#639,.T.);
#633=FACE_BOUND('',#634,.T.);
#634=EDGE_LOOP('',(#635,#636,#333,#620,#637,#638,#517,#525));
#635=ORIENTED_EDGE('',*,*,#371,.F.);
#636=ORIENTED_EDGE('',*,*,#628,.T.);
#637=ORIENTED_EDGE('',*,*,#607,.T.);
#638=ORIENTED_EDGE('',*,*,#412,.F.);
#639=PLANE('',#640);
#640=AXIS2_PLACEMENT_3D('',#641,#14,#13);
#641=CARTESIAN_POINT('',(6.,-6.,0.));
#642=ADVANCED_FACE('',(#643),#255,.T.);
#643=FACE_BOUND('',#644,.T.);
#644=EDGE_LOOP('',(#343,#645,#649,#653));
#645=ORIENTED_EDGE('',*,*,#646,.F.);
#646=EDGE_CURVE('',#647,#345,#616,.T.);
#647=VERTEX_POINT('',#648);
#648=CARTESIAN_POINT('',(2.838131989989,4.594018590232,1.2));
#649=ORIENTED_EDGE('',*,*,#650,.F.);
#650=EDGE_CURVE('',#651,#647,#254,.T.);
#651=VERTEX_POINT('',#652);
#652=CARTESIAN_POINT('',(4.594018590232,2.838131989989,1.2));
#653=ORIENTED_EDGE('',*,*,#654,.F.);
#654=EDGE_CURVE('',#339,#651,#616,.T.);
#655=ADVANCED_FACE('',(#656),#255,.T.);
#656=FACE_BOUND('',#657,.T.);
#657=EDGE_LOOP('',(#658,#662,#663,#667));
#658=ORIENTED_EDGE('',*,*,#659,.F.);
#659=EDGE_CURVE('',#382,#660,#531,.T.);
#660=VERTEX_POINT('',#661);
#661=CARTESIAN_POINT('',(2.838131989989,-4.594018590232,1.2));
#662=ORIENTED_EDGE('',*,*,#381,.F.);
#663=ORIENTED_EDGE('',*,*,#664,.F.);
#664=EDGE_CURVE('',#665,#376,#531,.T.);
#665=VERTEX_POINT('',#666);
#666=CARTESIAN_POINT('',(4.594018590232,-2.838131989989,1.2));
#667=ORIENTED_EDGE('',*,*,#668,.F.);
#668=EDGE_CURVE('',#660,#665,#254,.T.);
#669=ADVANCED_FACE('',(#670),#687,.F.);
#670=FACE_BOUND('',#671,.F.);
#671=EDGE_LOOP('',(#430,#672,#677,#684));
#672=ORIENTED_EDGE('',*,*,#673,.T.);
#673=EDGE_CURVE('',#434,#674,#676,.T.);
#674=VERTEX_POINT('',#675);
#675=CARTESIAN_POINT('',(-4.912060725924,2.791802182253,7.55));
#676=LINE('',#435,#546);
#677=ORIENTED_EDGE('',*,*,#678,.F.);
#678=EDGE_CURVE('',#679,#674,#681,.T.);
#679=VERTEX_POINT('',#680);
#680=CARTESIAN_POINT('',(-4.912060725924,-2.791802182253,7.55));
#681=CIRCLE('',#682,5.65);
#682=AXIS2_PLACEMENT_3D('',#683,#60,#439);
#683=CARTESIAN_POINT('',(0.,0.,7.55));
#684=ORIENTED_EDGE('',*,*,#685,.F.);
#685=EDGE_CURVE('',#432,#679,#686,.T.);
#686=LINE('',#433,#546);
#687=CYLINDRICAL_SURFACE('',#453,5.65);
#688=ADVANCED_FACE('',(#689),#702,.F.);
#689=FACE_BOUND('',#690,.F.);
#690=EDGE_LOOP('',(#691,#698,#440,#699));
#691=ORIENTED_EDGE('',*,*,#692,.F.);
#692=EDGE_CURVE('',#674,#693,#695,.T.);
#693=VERTEX_POINT('',#694);
#694=CARTESIAN_POINT('',(-2.791802182253,4.912060725924,7.55));
#695=CIRCLE('',#696,1.5);
#696=AXIS2_PLACEMENT_3D('',#697,#60,#447);
#697=CARTESIAN_POINT('',(-3.818376618407,3.818376618407,7.55));
#698=ORIENTED_EDGE('',*,*,#673,.F.);
#699=ORIENTED_EDGE('',*,*,#700,.T.);
#700=EDGE_CURVE('',#442,#693,#701,.T.);
#701=LINE('',#443,#546);
#702=CYLINDRICAL_SURFACE('',#703,1.5);
#703=AXIS2_PLACEMENT_3D('',#446,#60,#399);
#704=ADVANCED_FACE('',(#705),#687,.F.);
#705=FACE_BOUND('',#706,.F.);
#706=EDGE_LOOP('',(#707,#448,#708,#713));
#707=ORIENTED_EDGE('',*,*,#700,.F.);
#708=ORIENTED_EDGE('',*,*,#709,.T.);
#709=EDGE_CURVE('',#450,#710,#712,.T.);
#710=VERTEX_POINT('',#711);
#711=CARTESIAN_POINT('',(2.791802182253,4.912060725924,7.55));
#712=LINE('',#451,#546);
#713=ORIENTED_EDGE('',*,*,#714,.F.);
#714=EDGE_CURVE('',#693,#710,#715,.T.);
#715=CIRCLE('',#716,5.65);
#716=AXIS2_PLACEMENT_3D('',#683,#60,#399);
#717=ADVANCED_FACE('',(#718),#731,.F.);
#718=FACE_BOUND('',#719,.F.);
#719=EDGE_LOOP('',(#720,#727,#454,#728));
#720=ORIENTED_EDGE('',*,*,#721,.F.);
#721=EDGE_CURVE('',#710,#722,#724,.T.);
#722=VERTEX_POINT('',#723);
#723=CARTESIAN_POINT('',(4.912060725924,2.791802182253,7.55));
#724=CIRCLE('',#725,1.5);
#725=AXIS2_PLACEMENT_3D('',#726,#60,#399);
#726=CARTESIAN_POINT('',(3.818376618407,3.818376618407,7.55));
#727=ORIENTED_EDGE('',*,*,#709,.F.);
#728=ORIENTED_EDGE('',*,*,#729,.T.);
#729=EDGE_CURVE('',#456,#722,#730,.T.);
#730=LINE('',#457,#546);
#731=CYLINDRICAL_SURFACE('',#459,1.5);
#732=ADVANCED_FACE('',(#733),#687,.F.);
#733=FACE_BOUND('',#734,.F.);
#734=EDGE_LOOP('',(#735,#461,#736,#741));
#735=ORIENTED_EDGE('',*,*,#729,.F.);
#736=ORIENTED_EDGE('',*,*,#737,.T.);
#737=EDGE_CURVE('',#463,#738,#740,.T.);
#738=VERTEX_POINT('',#739);
#739=CARTESIAN_POINT('',(4.912060725924,-2.791802182253,7.55));
#740=LINE('',#464,#546);
#741=ORIENTED_EDGE('',*,*,#742,.F.);
#742=EDGE_CURVE('',#722,#738,#715,.T.);
#743=ADVANCED_FACE('',(#744),#757,.F.);
#744=FACE_BOUND('',#745,.F.);
#745=EDGE_LOOP('',(#746,#753,#465,#754));
#746=ORIENTED_EDGE('',*,*,#747,.F.);
#747=EDGE_CURVE('',#738,#748,#750,.T.);
#748=VERTEX_POINT('',#749);
#749=CARTESIAN_POINT('',(2.791802182253,-4.912060725924,7.55));
#750=CIRCLE('',#751,1.5);
#751=AXIS2_PLACEMENT_3D('',#752,#60,#399);
#752=CARTESIAN_POINT('',(3.818376618407,-3.818376618407,7.55));
#753=ORIENTED_EDGE('',*,*,#737,.F.);
#754=ORIENTED_EDGE('',*,*,#755,.T.);
#755=EDGE_CURVE('',#467,#748,#756,.T.);
#756=LINE('',#468,#546);
#757=CYLINDRICAL_SURFACE('',#470,1.5);
#758=ADVANCED_FACE('',(#759),#687,.F.);
#759=FACE_BOUND('',#760,.F.);
#760=EDGE_LOOP('',(#472,#761,#766,#768));
#761=ORIENTED_EDGE('',*,*,#762,.T.);
#762=EDGE_CURVE('',#474,#763,#765,.T.);
#763=VERTEX_POINT('',#764);
#764=CARTESIAN_POINT('',(-2.791802182253,-4.912060725924,7.55));
#765=LINE('',#475,#546);
#766=ORIENTED_EDGE('',*,*,#767,.F.);
#767=EDGE_CURVE('',#748,#763,#715,.T.);
#768=ORIENTED_EDGE('',*,*,#755,.F.);
#769=ADVANCED_FACE('',(#770),#778,.F.);
#770=FACE_BOUND('',#771,.F.);
#771=EDGE_LOOP('',(#772,#776,#476,#777));
#772=ORIENTED_EDGE('',*,*,#773,.F.);
#773=EDGE_CURVE('',#763,#679,#774,.T.);
#774=CIRCLE('',#775,1.5);
#775=AXIS2_PLACEMENT_3D('',#557,#60,#481);
#776=ORIENTED_EDGE('',*,*,#762,.F.);
#777=ORIENTED_EDGE('',*,*,#685,.T.);
#778=CYLINDRICAL_SURFACE('',#567,1.5);
#779=ADVANCED_FACE('',(#780),#807,.F.);
#780=FACE_BOUND('',#781,.F.);
#781=EDGE_LOOP('',(#592,#782,#584,#783,#789,#793,#799,#805));
#782=ORIENTED_EDGE('',*,*,#501,.T.);
#783=ORIENTED_EDGE('',*,*,#784,.F.);
#784=EDGE_CURVE('',#785,#586,#787,.T.);
#785=VERTEX_POINT('',#786);
#786=CARTESIAN_POINT('',(-4.594018590232,2.838131989989,7.3));
#787=LINE('',#788,#546);
#788=CARTESIAN_POINT('',(-4.594018590232,2.838131989989,7.8));
#789=ORIENTED_EDGE('',*,*,#790,.F.);
#790=EDGE_CURVE('',#791,#785,#787,.T.);
#791=VERTEX_POINT('',#792);
#792=CARTESIAN_POINT('',(-4.594018590232,2.838131989989,7.55));
#793=ORIENTED_EDGE('',*,*,#794,.F.);
#794=EDGE_CURVE('',#795,#791,#797,.T.);
#795=VERTEX_POINT('',#796);
#796=CARTESIAN_POINT('',(-2.838131989989,4.594018590232,7.55));
#797=CIRCLE('',#798,1.25);
#798=AXIS2_PLACEMENT_3D('',#697,#13,#505);
#799=ORIENTED_EDGE('',*,*,#800,.T.);
#800=EDGE_CURVE('',#795,#801,#803,.T.);
#801=VERTEX_POINT('',#802);
#802=CARTESIAN_POINT('',(-2.838131989989,4.594018590233,7.3));
#803=LINE('',#804,#546);
#804=CARTESIAN_POINT('',(-2.838131989989,4.594018590232,7.8));
#805=ORIENTED_EDGE('',*,*,#806,.T.);
#806=EDGE_CURVE('',#801,#590,#803,.T.);
#807=CYLINDRICAL_SURFACE('',#703,1.25);
#808=ADVANCED_FACE('',(#809),#837,.F.);
#809=FACE_BOUND('',#810,.F.);
#810=EDGE_LOOP('',(#811,#819,#826,#832,#658,#834,#663,#835));
#811=ORIENTED_EDGE('',*,*,#812,.F.);
#812=EDGE_CURVE('',#813,#815,#817,.T.);
#813=VERTEX_POINT('',#814);
#814=CARTESIAN_POINT('',(4.594018590232,-2.838131989989,7.55));
#815=VERTEX_POINT('',#816);
#816=CARTESIAN_POINT('',(4.594018590232,-2.838131989989,7.3));
#817=LINE('',#818,#546);
#818=CARTESIAN_POINT('',(4.594018590232,-2.838131989989,7.8));
#819=ORIENTED_EDGE('',*,*,#820,.F.);
#820=EDGE_CURVE('',#821,#813,#823,.T.);
#821=VERTEX_POINT('',#822);
#822=CARTESIAN_POINT('',(2.838131989989,-4.594018590232,7.55));
#823=CIRCLE('',#824,1.25);
#824=AXIS2_PLACEMENT_3D('',#752,#13,#825);
#825=DIRECTION('',(-0.784195702735,-0.62051357746,0.));
#826=ORIENTED_EDGE('',*,*,#827,.T.);
#827=EDGE_CURVE('',#821,#828,#830,.T.);
#828=VERTEX_POINT('',#829);
#829=CARTESIAN_POINT('',(2.838131989989,-4.594018590233,7.3));
#830=LINE('',#831,#546);
#831=CARTESIAN_POINT('',(2.838131989989,-4.594018590232,7.8));
#832=ORIENTED_EDGE('',*,*,#833,.T.);
#833=EDGE_CURVE('',#828,#660,#830,.T.);
#834=ORIENTED_EDGE('',*,*,#530,.F.);
#835=ORIENTED_EDGE('',*,*,#836,.F.);
#836=EDGE_CURVE('',#815,#665,#817,.T.);
#837=CYLINDRICAL_SURFACE('',#470,1.25);
#838=ADVANCED_FACE('',(#839),#850,.F.);
#839=FACE_BOUND('',#840,.F.);
#840=EDGE_LOOP('',(#841,#846,#847,#849));
#841=ORIENTED_EDGE('',*,*,#842,.F.);
#842=EDGE_CURVE('',#549,#821,#843,.T.);
#843=CIRCLE('',#844,5.4);
#844=AXIS2_PLACEMENT_3D('',#683,#13,#845);
#845=DIRECTION('',(-0.525579998146,-0.850744183376,0.));
#846=ORIENTED_EDGE('',*,*,#548,.T.);
#847=ORIENTED_EDGE('',*,*,#848,.T.);
#848=EDGE_CURVE('',#542,#828,#575,.T.);
#849=ORIENTED_EDGE('',*,*,#827,.F.);
#850=CYLINDRICAL_SURFACE('',#453,5.4);
#851=ADVANCED_FACE('',(#852,#862),#892,.F.);
#852=FACE_BOUND('',#853,.F.);
#853=EDGE_LOOP('',(#854,#855,#856,#857,#858,#859,#860,#861));
#854=ORIENTED_EDGE('',*,*,#678,.T.);
#855=ORIENTED_EDGE('',*,*,#692,.T.);
#856=ORIENTED_EDGE('',*,*,#714,.T.);
#857=ORIENTED_EDGE('',*,*,#721,.T.);
#858=ORIENTED_EDGE('',*,*,#742,.T.);
#859=ORIENTED_EDGE('',*,*,#747,.T.);
#860=ORIENTED_EDGE('',*,*,#767,.T.);
#861=ORIENTED_EDGE('',*,*,#773,.T.);
#862=FACE_BOUND('',#863,.F.);
#863=EDGE_LOOP('',(#864,#865,#866,#867,#874,#881,#886,#887));
#864=ORIENTED_EDGE('',*,*,#552,.T.);
#865=ORIENTED_EDGE('',*,*,#842,.T.);
#866=ORIENTED_EDGE('',*,*,#820,.T.);
#867=ORIENTED_EDGE('',*,*,#868,.T.);
#868=EDGE_CURVE('',#813,#869,#871,.T.);
#869=VERTEX_POINT('',#870);
#870=CARTESIAN_POINT('',(4.594018590232,2.838131989989,7.55));
#871=CIRCLE('',#872,5.4);
#872=AXIS2_PLACEMENT_3D('',#683,#13,#873);
#873=DIRECTION('',(0.850744183376,-0.525579998146,0.));
#874=ORIENTED_EDGE('',*,*,#875,.T.);
#875=EDGE_CURVE('',#869,#876,#878,.T.);
#876=VERTEX_POINT('',#877);
#877=CARTESIAN_POINT('',(2.838131989989,4.594018590232,7.55));
#878=CIRCLE('',#879,1.25);
#879=AXIS2_PLACEMENT_3D('',#726,#13,#880);
#880=DIRECTION('',(0.62051357746,-0.784195702735,0.));
#881=ORIENTED_EDGE('',*,*,#882,.T.);
#882=EDGE_CURVE('',#876,#795,#883,.T.);
#883=CIRCLE('',#884,5.4);
#884=AXIS2_PLACEMENT_3D('',#683,#13,#885);
#885=DIRECTION('',(0.525579998146,0.850744183376,-0.));
#886=ORIENTED_EDGE('',*,*,#794,.T.);
#887=ORIENTED_EDGE('',*,*,#888,.T.);
#888=EDGE_CURVE('',#791,#553,#889,.T.);
#889=CIRCLE('',#890,5.4);
#890=AXIS2_PLACEMENT_3D('',#683,#13,#891);
#891=DIRECTION('',(-0.850744183376,0.525579998146,0.));
#892=PLANE('',#716);
#893=ADVANCED_FACE('',(#894),#850,.F.);
#894=FACE_BOUND('',#895,.F.);
#895=EDGE_LOOP('',(#896,#897,#898,#900));
#896=ORIENTED_EDGE('',*,*,#888,.F.);
#897=ORIENTED_EDGE('',*,*,#790,.T.);
#898=ORIENTED_EDGE('',*,*,#899,.T.);
#899=EDGE_CURVE('',#785,#560,#575,.T.);
#900=ORIENTED_EDGE('',*,*,#559,.F.);
#901=ADVANCED_FACE('',(#902,#920),#927,.T.);
#902=FACE_BOUND('',#903,.T.);
#903=EDGE_LOOP('',(#904,#910,#912,#898,#573,#847,#914,#916));
#904=ORIENTED_EDGE('',*,*,#905,.T.);
#905=EDGE_CURVE('',#906,#908,#575,.T.);
#906=VERTEX_POINT('',#907);
#907=CARTESIAN_POINT('',(4.594018590232,2.838131989989,7.3));
#908=VERTEX_POINT('',#909);
#909=CARTESIAN_POINT('',(2.838131989989,4.594018590233,7.3));
#910=ORIENTED_EDGE('',*,*,#911,.T.);
#911=EDGE_CURVE('',#908,#801,#575,.T.);
#912=ORIENTED_EDGE('',*,*,#913,.T.);
#913=EDGE_CURVE('',#801,#785,#575,.T.);
#914=ORIENTED_EDGE('',*,*,#915,.T.);
#915=EDGE_CURVE('',#828,#815,#575,.T.);
#916=ORIENTED_EDGE('',*,*,#917,.T.);
#917=EDGE_CURVE('',#815,#906,#918,.T.);
#918=CIRCLE('',#919,5.4);
#919=AXIS2_PLACEMENT_3D('',#577,#13,#873);
#920=FACE_BOUND('',#921,.T.);
#921=EDGE_LOOP('',(#922));
#922=ORIENTED_EDGE('',*,*,#923,.F.);
#923=EDGE_CURVE('',#924,#924,#926,.T.);
#924=VERTEX_POINT('',#925);
#925=CARTESIAN_POINT('',(5.025,0.,7.3));
#926=CIRCLE('',#576,5.025);
#927=PLANE('',#576);
#928=ADVANCED_FACE('',(#929),#578,.T.);
#929=FACE_BOUND('',#930,.F.);
#930=EDGE_LOOP('',(#588,#931,#912,#932));
#931=ORIENTED_EDGE('',*,*,#806,.F.);
#932=ORIENTED_EDGE('',*,*,#784,.T.);
#933=ADVANCED_FACE('',(#934),#950,.F.);
#934=FACE_BOUND('',#935,.F.);
#935=EDGE_LOOP('',(#936,#940,#941,#945,#653,#947,#645,#948));
#936=ORIENTED_EDGE('',*,*,#937,.F.);
#937=EDGE_CURVE('',#876,#908,#938,.T.);
#938=LINE('',#939,#546);
#939=CARTESIAN_POINT('',(2.838131989989,4.594018590232,7.8));
#940=ORIENTED_EDGE('',*,*,#875,.F.);
#941=ORIENTED_EDGE('',*,*,#942,.T.);
#942=EDGE_CURVE('',#869,#906,#943,.T.);
#943=LINE('',#944,#546);
#944=CARTESIAN_POINT('',(4.594018590232,2.838131989989,7.8));
#945=ORIENTED_EDGE('',*,*,#946,.T.);
#946=EDGE_CURVE('',#906,#651,#943,.T.);
#947=ORIENTED_EDGE('',*,*,#615,.F.);
#948=ORIENTED_EDGE('',*,*,#949,.F.);
#949=EDGE_CURVE('',#908,#647,#938,.T.);
#950=CYLINDRICAL_SURFACE('',#459,1.25);
#951=ADVANCED_FACE('',(#952),#578,.T.);
#952=FACE_BOUND('',#953,.F.);
#953=EDGE_LOOP('',(#649,#954,#904,#955));
#954=ORIENTED_EDGE('',*,*,#946,.F.);
#955=ORIENTED_EDGE('',*,*,#949,.T.);
#956=ADVANCED_FACE('',(#957),#578,.T.);
#957=FACE_BOUND('',#958,.F.);
#958=EDGE_LOOP('',(#959,#667,#960,#914));
#959=ORIENTED_EDGE('',*,*,#836,.T.);
#960=ORIENTED_EDGE('',*,*,#833,.F.);
#961=ADVANCED_FACE('',(#962),#850,.F.);
#962=FACE_BOUND('',#963,.F.);
#963=EDGE_LOOP('',(#964,#965,#966,#910));
#964=ORIENTED_EDGE('',*,*,#800,.F.);
#965=ORIENTED_EDGE('',*,*,#882,.F.);
#966=ORIENTED_EDGE('',*,*,#937,.T.);
#967=ADVANCED_FACE('',(#968),#850,.F.);
#968=FACE_BOUND('',#969,.F.);
#969=EDGE_LOOP('',(#916,#970,#971,#972));
#970=ORIENTED_EDGE('',*,*,#942,.F.);
#971=ORIENTED_EDGE('',*,*,#868,.F.);
#972=ORIENTED_EDGE('',*,*,#812,.T.);
#973=ADVANCED_FACE('',(#974),#987,.T.);
#974=FACE_BOUND('',#975,.T.);
#975=EDGE_LOOP('',(#976,#977,#982,#986));
#976=ORIENTED_EDGE('',*,*,#923,.T.);
#977=ORIENTED_EDGE('',*,*,#978,.T.);
#978=EDGE_CURVE('',#924,#979,#981,.T.);
#979=VERTEX_POINT('',#980);
#980=CARTESIAN_POINT('',(4.525,0.,7.8));
#981=B_SPLINE_CURVE_WITH_KNOTS('',1,(#925,#980),.UNSPECIFIED.,.F.,.F.,(2,2),(0.,1.),.PIECEWISE_BEZIER_KNOTS.);
#982=ORIENTED_EDGE('',*,*,#983,.F.);
#983=EDGE_CURVE('',#979,#979,#984,.T.);
#984=CIRCLE('',#985,4.525);
#985=AXIS2_PLACEMENT_3D('',#438,#13,#14);
#986=ORIENTED_EDGE('',*,*,#978,.F.);
#987=CONICAL_SURFACE('',#988,5.025,0.785398163397);
#988=AXIS2_PLACEMENT_3D('',#577,#60,#14);
#989=ADVANCED_FACE('',(#990),#993,.T.);
#990=FACE_BOUND('',#991,.T.);
#991=EDGE_LOOP('',(#992));
#992=ORIENTED_EDGE('',*,*,#983,.T.);
#993=PLANE('',#985);
#994=( GEOMETRIC_REPRESENTATION_CONTEXT(3) GLOBAL_UNCERTAINTY_ASSIGNED_CONTEXT((#998)) GLOBAL_UNIT_ASSIGNED_CONTEXT((#995,#996,#997)) REPRESENTATION_CONTEXT('Context #1','3D Context with UNIT and UNCERTAINTY') );
#995=( LENGTH_UNIT() NAMED_UNIT(*) SI_UNIT(.MILLI.,.METRE.) );
#996=( NAMED_UNIT(*) PLANE_ANGLE_UNIT() SI_UNIT($,.RADIAN.) );
#997=( NAMED_UNIT(*) SI_UNIT($,.STERADIAN.) SOLID_ANGLE_UNIT() );
#998=UNCERTAINTY_MEASURE_WITH_UNIT(LENGTH_MEASURE(1.E-07),#995,'distance_accuracy_value','confusion accuracy');
#999=MECHANICAL_DESIGN_GEOMETRIC_PRESENTATION_REPRESENTATION('',(#1000,#1010,#1011,#1020,#1021,#1022,#1023,#1024,#1025,#1026,#1027,#1028,#1029,#1030,#1031,#1032,#1033,#1034,#1035,#1036,#1037,#1038,#1039,#1040,#1041,#1042,#1043,#1044,#1045,#1046,#1047,#1048,#1049,#1050,#1051,#1052,#1053,#1054,#1055,#1056,#1057,#1058,#1059,#1060,#1061,#1062,#1063,#1064,#1065,#1066),#994);
#1000=STYLED_ITEM('color',(#1001),#17);
#1001=PRESENTATION_STYLE_ASSIGNMENT((#1002,#1008));
#1002=SURFACE_STYLE_USAGE(.BOTH.,#1003);
#1003=SURFACE_SIDE_STYLE('',(#1004));
#1004=SURFACE_STYLE_FILL_AREA(#1005);
#1005=FILL_AREA_STYLE('',(#1006));
#1006=FILL_AREA_STYLE_COLOUR('',#1007);
#1007=COLOUR_RGB('',0.147999998088,0.145000001626,0.145000001626);
#1008=CURVE_STYLE('',#1009,POSITIVE_LENGTH_MEASURE(0.1),#1007);
#1009=DRAUGHTING_PRE_DEFINED_CURVE_FONT('continuous');
#1010=STYLED_ITEM('color',(#1001),#61);
#1011=STYLED_ITEM('color',(#1012),#133);
#1012=PRESENTATION_STYLE_ASSIGNMENT((#1013,#1019));
#1013=SURFACE_STYLE_USAGE(.BOTH.,#1014);
#1014=SURFACE_SIDE_STYLE('',(#1015));
#1015=SURFACE_STYLE_FILL_AREA(#1016);
#1016=FILL_AREA_STYLE('',(#1017));
#1017=FILL_AREA_STYLE_COLOUR('',#1018);
#1018=COLOUR_RGB('',0.823999987314,0.819999987296,0.781000009244);
#1019=CURVE_STYLE('',#1009,POSITIVE_LENGTH_MEASURE(0.1),#1018);
#1020=STYLED_ITEM('color',(#1001),#150);
#1021=STYLED_ITEM('color',(#1001),#185);
#1022=STYLED_ITEM('color',(#1001),#219);
#1023=STYLED_ITEM('color',(#1001),#241);
#1024=STYLED_ITEM('color',(#1012),#257);
#1025=STYLED_ITEM('color',(#1001),#266);
#1026=STYLED_ITEM('color',(#1001),#289);
#1027=STYLED_ITEM('color',(#1001),#324);
#1028=STYLED_ITEM('color',(#1012),#351);
#1029=STYLED_ITEM('color',(#1001),#362);
#1030=STYLED_ITEM('color',(#1001),#389);
#1031=STYLED_ITEM('color',(#1001),#400);
#1032=STYLED_ITEM('color',(#1001),#484);
#1033=STYLED_ITEM('color',(#1001),#495);
#1034=STYLED_ITEM('color',(#1001),#506);
#1035=STYLED_ITEM('color',(#1001),#522);
#1036=STYLED_ITEM('color',(#1001),#536);
#1037=STYLED_ITEM('color',(#1001),#568);
#1038=STYLED_ITEM('color',(#1001),#580);
#1039=STYLED_ITEM('color',(#1001),#594);
#1040=STYLED_ITEM('color',(#1001),#611);
#1041=STYLED_ITEM('color',(#1012),#623);
#1042=STYLED_ITEM('color',(#1001),#632);
#1043=STYLED_ITEM('color',(#1001),#642);
#1044=STYLED_ITEM('color',(#1001),#655);
#1045=STYLED_ITEM('color',(#1001),#669);
#1046=STYLED_ITEM('color',(#1001),#688);
#1047=STYLED_ITEM('color',(#1001),#704);
#1048=STYLED_ITEM('color',(#1001),#717);
#1049=STYLED_ITEM('color',(#1001),#732);
#1050=STYLED_ITEM('color',(#1001),#743);
#1051=STYLED_ITEM('color',(#1001),#758);
#1052=STYLED_ITEM('color',(#1001),#769);
#1053=STYLED_ITEM('color',(#1001),#779);
#1054=STYLED_ITEM('color',(#1001),#808);
#1055=STYLED_ITEM('color',(#1001),#838);
#1056=STYLED_ITEM('color',(#1001),#851);
#1057=STYLED_ITEM('color',(#1001),#893);
#1058=STYLED_ITEM('color',(#1001),#901);
#1059=STYLED_ITEM('color',(#1001),#928);
#1060=STYLED_ITEM('color',(#1001),#933);
#1061=STYLED_ITEM('color',(#1001),#951);
#1062=STYLED_ITEM('color',(#1001),#956);
#1063=STYLED_ITEM('color',(#1001),#961);
#1064=STYLED_ITEM('color',(#1001),#967);
#1065=STYLED_ITEM('color',(#1001),#973);
#1066=STYLED_ITEM('color',(#1001),#989);
ENDSEC;
END-ISO-10303-21;
