ISO-10303-21;
HEADER;
/* L_Coilcraft_MSS7348-XXX.step 3D STEP model for use in ECAD systems
 * Copyright (C) 2024, KiCAD
 *
 * This work is licensed under the
 * [Creative Commons CC-BY-SA 4.0 License](https://creativecommons.org/licenses/by-sa/4.0/legalcode),
 * with the following exception:
 *
 * To the extent that the creation of electronic designs that use 'Licensed Material' can be
 * considered to be 'Adapted Material', then the copyright holder waives article 3 of the license
 * with respect to these designs and any generated files which use data provided as part of the
 * 'Licensed Material'.
 *
 * You are free to use the library data in your own projects without the obligation to share your
 * project files under this or any other license agreement. However, if you wish to distribute
 * these libraries, or parts thereof (including in modified form) as a collection then the exception
 * above does not apply. Please refer to
 * https://gitlab.com/kicad/libraries/kicad-packages3D/-/blob/master/LICENSE.md for further clarification
 * of the exception.
 *
 * Disclaimer of Warranties and Limitation of Liability.
 * These libraries are provided in the hope that they will be useful, but are provided without warranty of any kind, express or implied.
 * USE 3D CAD DATA AT YOUR OWN RISK
 * DO NOT RELY UPON ANY INFORMATION FOUND HERE WITHOUT INDEPENDENT VERIFICATION.
 */

FILE_DESCRIPTION(
/* description */ ('model of L_Coilcraft_MSS7348-XXX'),
/* implementation_level */ '2;1');

FILE_NAME(
/* name */ 'L_Coilcraft_MSS7348-XXX.step',
/* time_stamp */ '2024-11-07T18:14:54',
/* author */ ('KiCAD','kicad'),
/* organization */ ('OCCT'),
/* preprocessor_version */ '',
/* originating_system */ 'KiCAD',
/* authorisation */ '');

FILE_SCHEMA(('AUTOMOTIVE_DESIGN { 1 0 10303 214 1 1 1 1 }'));
ENDSEC;

DATA;
#1=APPLICATION_PROTOCOL_DEFINITION('international standard','automotive_design',2000,#2);
#2=APPLICATION_CONTEXT('core data for automotive mechanical design processes');
#3=SHAPE_DEFINITION_REPRESENTATION(#4,#10);
#4=PRODUCT_DEFINITION_SHAPE('','',#5);
#5=PRODUCT_DEFINITION('design','',#6,#9);
#6=PRODUCT_DEFINITION_FORMATION('','',#7);
#7=PRODUCT('L_Coilcraft_MSS7348-XXX','L_Coilcraft_MSS7348-XXX','',(#8));
#8=PRODUCT_CONTEXT('',#2,'mechanical');
#9=PRODUCT_DEFINITION_CONTEXT('part definition',#2,'design');
#10=ADVANCED_BREP_SHAPE_REPRESENTATION('',(#11,#15),#408);
#11=AXIS2_PLACEMENT_3D('',#12,#13,#14);
#12=CARTESIAN_POINT('',(0.,0.,0.));
#13=DIRECTION('',(0.,0.,1.));
#14=DIRECTION('',(1.,0.,-0.));
#15=MANIFOLD_SOLID_BREP('',#16);
#16=CLOSED_SHELL('',(#17,#65,#87,#111,#188,#199,#213,#222,#244,#254,#267,#276,#292,#319,#330,#346,#356,#365,#375,#389,#394,#402));
#17=ADVANCED_FACE('',(#18),#63,.F.);
#18=FACE_BOUND('',#19,.F.);
#19=EDGE_LOOP('',(#20,#29,#35,#41,#46,#51,#56,#60));
#20=ORIENTED_EDGE('',*,*,#21,.F.);
#21=EDGE_CURVE('',#22,#24,#26,.T.);
#22=VERTEX_POINT('',#23);
#23=CARTESIAN_POINT('',(-3.5,-3.15,4.15));
#24=VERTEX_POINT('',#25);
#25=CARTESIAN_POINT('',(-3.5,3.15,4.15));
#26=LINE('',#23,#27);
#27=VECTOR('',#28,1.);
#28=DIRECTION('',(0.,1.,0.));
#29=ORIENTED_EDGE('',*,*,#30,.F.);
#30=EDGE_CURVE('',#31,#22,#33,.T.);
#31=VERTEX_POINT('',#32);
#32=CARTESIAN_POINT('',(-3.5,-3.15,0.));
#33=LINE('',#32,#34);
#34=VECTOR('',#13,1.);
#35=ORIENTED_EDGE('',*,*,#36,.T.);
#36=EDGE_CURVE('',#31,#37,#39,.T.);
#37=VERTEX_POINT('',#38);
#38=CARTESIAN_POINT('',(-3.5,-1.,0.));
#39=LINE('',#40,#27);
#40=CARTESIAN_POINT('',(-3.5,-3.5,0.));
#41=ORIENTED_EDGE('',*,*,#42,.T.);
#42=EDGE_CURVE('',#37,#43,#45,.T.);
#43=VERTEX_POINT('',#44);
#44=CARTESIAN_POINT('',(-3.5,-1.,5.E-02));
#45=LINE('',#38,#34);
#46=ORIENTED_EDGE('',*,*,#47,.T.);
#47=EDGE_CURVE('',#43,#48,#50,.T.);
#48=VERTEX_POINT('',#49);
#49=CARTESIAN_POINT('',(-3.5,1.,5.E-02));
#50=LINE('',#44,#27);
#51=ORIENTED_EDGE('',*,*,#52,.F.);
#52=EDGE_CURVE('',#53,#48,#55,.T.);
#53=VERTEX_POINT('',#54);
#54=CARTESIAN_POINT('',(-3.5,1.,0.));
#55=LINE('',#54,#34);
#56=ORIENTED_EDGE('',*,*,#57,.T.);
#57=EDGE_CURVE('',#53,#58,#39,.T.);
#58=VERTEX_POINT('',#59);
#59=CARTESIAN_POINT('',(-3.5,3.15,0.));
#60=ORIENTED_EDGE('',*,*,#61,.T.);
#61=EDGE_CURVE('',#58,#24,#62,.T.);
#62=LINE('',#59,#34);
#63=PLANE('',#64);
#64=AXIS2_PLACEMENT_3D('',#40,#14,#13);
#65=ADVANCED_FACE('',(#66),#86,.T.);
#66=FACE_BOUND('',#67,.T.);
#67=EDGE_LOOP('',(#68,#76,#81,#20));
#68=ORIENTED_EDGE('',*,*,#69,.T.);
#69=EDGE_CURVE('',#22,#70,#72,.T.);
#70=VERTEX_POINT('',#71);
#71=CARTESIAN_POINT('',(-3.15,-3.15,4.5));
#72=CIRCLE('',#73,0.35);
#73=AXIS2_PLACEMENT_3D('',#74,#28,#75);
#74=CARTESIAN_POINT('',(-3.15,-3.15,4.15));
#75=DIRECTION('',(-1.,0.,0.));
#76=ORIENTED_EDGE('',*,*,#77,.T.);
#77=EDGE_CURVE('',#70,#78,#80,.T.);
#78=VERTEX_POINT('',#79);
#79=CARTESIAN_POINT('',(-3.15,3.15,4.5));
#80=LINE('',#71,#27);
#81=ORIENTED_EDGE('',*,*,#82,.F.);
#82=EDGE_CURVE('',#24,#78,#83,.T.);
#83=CIRCLE('',#84,0.35);
#84=AXIS2_PLACEMENT_3D('',#85,#28,#75);
#85=CARTESIAN_POINT('',(-3.15,3.15,4.15));
#86=CYLINDRICAL_SURFACE('',#73,0.35);
#87=ADVANCED_FACE('',(#88),#109,.T.);
#88=FACE_BOUND('',#89,.F.);
#89=EDGE_LOOP('',(#90,#91,#100,#105));
#90=ORIENTED_EDGE('',*,*,#61,.F.);
#91=ORIENTED_EDGE('',*,*,#92,.T.);
#92=EDGE_CURVE('',#58,#93,#95,.T.);
#93=VERTEX_POINT('',#94);
#94=CARTESIAN_POINT('',(-3.15,3.5,0.));
#95=CIRCLE('',#96,0.35);
#96=AXIS2_PLACEMENT_3D('',#97,#98,#99);
#97=CARTESIAN_POINT('',(-3.15,3.15,0.));
#98=DIRECTION('',(-0.,-0.,-1.));
#99=DIRECTION('',(0.,-1.,0.));
#100=ORIENTED_EDGE('',*,*,#101,.T.);
#101=EDGE_CURVE('',#93,#102,#104,.T.);
#102=VERTEX_POINT('',#103);
#103=CARTESIAN_POINT('',(-3.15,3.5,4.15));
#104=LINE('',#94,#34);
#105=ORIENTED_EDGE('',*,*,#106,.F.);
#106=EDGE_CURVE('',#24,#102,#107,.T.);
#107=CIRCLE('',#108,0.35);
#108=AXIS2_PLACEMENT_3D('',#85,#98,#75);
#109=CYLINDRICAL_SURFACE('',#110,0.35);
#110=AXIS2_PLACEMENT_3D('',#97,#13,#75);
#111=ADVANCED_FACE('',(#112),#186,.F.);
#112=FACE_BOUND('',#113,.F.);
#113=EDGE_LOOP('',(#114,#115,#122,#128,#135,#141,#146,#151,#156,#160,#167,#171,#172,#173,#178,#183));
#114=ORIENTED_EDGE('',*,*,#36,.F.);
#115=ORIENTED_EDGE('',*,*,#116,.T.);
#116=EDGE_CURVE('',#31,#117,#119,.T.);
#117=VERTEX_POINT('',#118);
#118=CARTESIAN_POINT('',(-3.15,-3.5,0.));
#119=CIRCLE('',#120,0.35);
#120=AXIS2_PLACEMENT_3D('',#121,#13,#99);
#121=CARTESIAN_POINT('',(-3.15,-3.15,0.));
#122=ORIENTED_EDGE('',*,*,#123,.T.);
#123=EDGE_CURVE('',#117,#124,#126,.T.);
#124=VERTEX_POINT('',#125);
#125=CARTESIAN_POINT('',(3.15,-3.5,0.));
#126=LINE('',#40,#127);
#127=VECTOR('',#14,1.);
#128=ORIENTED_EDGE('',*,*,#129,.F.);
#129=EDGE_CURVE('',#130,#124,#132,.T.);
#130=VERTEX_POINT('',#131);
#131=CARTESIAN_POINT('',(3.5,-3.15,0.));
#132=CIRCLE('',#133,0.35);
#133=AXIS2_PLACEMENT_3D('',#134,#98,#99);
#134=CARTESIAN_POINT('',(3.15,-3.15,0.));
#135=ORIENTED_EDGE('',*,*,#136,.T.);
#136=EDGE_CURVE('',#130,#137,#139,.T.);
#137=VERTEX_POINT('',#138);
#138=CARTESIAN_POINT('',(3.5,-1.,0.));
#139=LINE('',#140,#27);
#140=CARTESIAN_POINT('',(3.5,-3.5,0.));
#141=ORIENTED_EDGE('',*,*,#142,.F.);
#142=EDGE_CURVE('',#143,#137,#145,.T.);
#143=VERTEX_POINT('',#144);
#144=CARTESIAN_POINT('',(2.25,-1.,0.));
#145=LINE('',#144,#127);
#146=ORIENTED_EDGE('',*,*,#147,.T.);
#147=EDGE_CURVE('',#143,#148,#150,.T.);
#148=VERTEX_POINT('',#149);
#149=CARTESIAN_POINT('',(2.25,1.,0.));
#150=LINE('',#144,#27);
#151=ORIENTED_EDGE('',*,*,#152,.T.);
#152=EDGE_CURVE('',#148,#153,#155,.T.);
#153=VERTEX_POINT('',#154);
#154=CARTESIAN_POINT('',(3.5,1.,0.));
#155=LINE('',#149,#127);
#156=ORIENTED_EDGE('',*,*,#157,.T.);
#157=EDGE_CURVE('',#153,#158,#139,.T.);
#158=VERTEX_POINT('',#159);
#159=CARTESIAN_POINT('',(3.5,3.15,0.));
#160=ORIENTED_EDGE('',*,*,#161,.T.);
#161=EDGE_CURVE('',#158,#162,#164,.T.);
#162=VERTEX_POINT('',#163);
#163=CARTESIAN_POINT('',(3.15,3.5,0.));
#164=CIRCLE('',#165,0.35);
#165=AXIS2_PLACEMENT_3D('',#166,#13,#99);
#166=CARTESIAN_POINT('',(3.15,3.15,0.));
#167=ORIENTED_EDGE('',*,*,#168,.F.);
#168=EDGE_CURVE('',#93,#162,#169,.T.);
#169=LINE('',#170,#127);
#170=CARTESIAN_POINT('',(-3.5,3.5,0.));
#171=ORIENTED_EDGE('',*,*,#92,.F.);
#172=ORIENTED_EDGE('',*,*,#57,.F.);
#173=ORIENTED_EDGE('',*,*,#174,.T.);
#174=EDGE_CURVE('',#53,#175,#177,.T.);
#175=VERTEX_POINT('',#176);
#176=CARTESIAN_POINT('',(-2.25,1.,0.));
#177=LINE('',#54,#127);
#178=ORIENTED_EDGE('',*,*,#179,.F.);
#179=EDGE_CURVE('',#180,#175,#182,.T.);
#180=VERTEX_POINT('',#181);
#181=CARTESIAN_POINT('',(-2.25,-1.,0.));
#182=LINE('',#181,#27);
#183=ORIENTED_EDGE('',*,*,#184,.F.);
#184=EDGE_CURVE('',#37,#180,#185,.T.);
#185=LINE('',#38,#127);
#186=PLANE('',#187);
#187=AXIS2_PLACEMENT_3D('',#40,#13,#14);
#188=ADVANCED_FACE('',(#189),#197,.F.);
#189=FACE_BOUND('',#190,.F.);
#190=EDGE_LOOP('',(#191,#192,#195,#196));
#191=ORIENTED_EDGE('',*,*,#42,.F.);
#192=ORIENTED_EDGE('',*,*,#193,.T.);
#193=EDGE_CURVE('',#37,#53,#194,.T.);
#194=LINE('',#38,#27);
#195=ORIENTED_EDGE('',*,*,#52,.T.);
#196=ORIENTED_EDGE('',*,*,#47,.F.);
#197=PLANE('',#198);
#198=AXIS2_PLACEMENT_3D('',#38,#14,#13);
#199=ADVANCED_FACE('',(#200),#211,.T.);
#200=FACE_BOUND('',#201,.T.);
#201=EDGE_LOOP('',(#29,#115,#202,#207));
#202=ORIENTED_EDGE('',*,*,#203,.T.);
#203=EDGE_CURVE('',#117,#204,#206,.T.);
#204=VERTEX_POINT('',#205);
#205=CARTESIAN_POINT('',(-3.15,-3.5,4.15));
#206=LINE('',#118,#34);
#207=ORIENTED_EDGE('',*,*,#208,.T.);
#208=EDGE_CURVE('',#204,#22,#209,.T.);
#209=CIRCLE('',#210,0.35);
#210=AXIS2_PLACEMENT_3D('',#74,#98,#99);
#211=CYLINDRICAL_SURFACE('',#212,0.35);
#212=AXIS2_PLACEMENT_3D('',#121,#13,#75);
#213=ADVANCED_FACE('',(#214),#220,.T.);
#214=FACE_BOUND('',#215,.F.);
#215=EDGE_LOOP('',(#216,#207,#68));
#216=ORIENTED_EDGE('',*,*,#217,.F.);
#217=EDGE_CURVE('',#204,#70,#218,.T.);
#218=CIRCLE('',#219,0.35);
#219=AXIS2_PLACEMENT_3D('',#74,#75,#99);
#220=SPHERICAL_SURFACE('',#221,0.35);
#221=AXIS2_PLACEMENT_3D('',#74,#13,#99);
#222=ADVANCED_FACE('',(#223),#241,.T.);
#223=FACE_BOUND('',#224,.T.);
#224=EDGE_LOOP('',(#225,#226,#232,#238));
#225=ORIENTED_EDGE('',*,*,#77,.F.);
#226=ORIENTED_EDGE('',*,*,#227,.F.);
#227=EDGE_CURVE('',#228,#70,#230,.T.);
#228=VERTEX_POINT('',#229);
#229=CARTESIAN_POINT('',(3.15,-3.15,4.5));
#230=LINE('',#229,#231);
#231=VECTOR('',#75,1.);
#232=ORIENTED_EDGE('',*,*,#233,.F.);
#233=EDGE_CURVE('',#234,#228,#236,.T.);
#234=VERTEX_POINT('',#235);
#235=CARTESIAN_POINT('',(3.15,3.15,4.5));
#236=LINE('',#235,#237);
#237=VECTOR('',#99,1.);
#238=ORIENTED_EDGE('',*,*,#239,.F.);
#239=EDGE_CURVE('',#78,#234,#240,.T.);
#240=LINE('',#79,#127);
#241=PLANE('',#242);
#242=AXIS2_PLACEMENT_3D('',#243,#13,#14);
#243=CARTESIAN_POINT('',(-3.5,-3.5,4.5));
#244=ADVANCED_FACE('',(#245),#252,.T.);
#245=FACE_BOUND('',#246,.F.);
#246=EDGE_LOOP('',(#81,#247,#248));
#247=ORIENTED_EDGE('',*,*,#106,.T.);
#248=ORIENTED_EDGE('',*,*,#249,.T.);
#249=EDGE_CURVE('',#102,#78,#250,.T.);
#250=CIRCLE('',#251,0.35);
#251=AXIS2_PLACEMENT_3D('',#85,#14,#28);
#252=SPHERICAL_SURFACE('',#253,0.35);
#253=AXIS2_PLACEMENT_3D('',#85,#13,#75);
#254=ADVANCED_FACE('',(#255),#265,.T.);
#255=FACE_BOUND('',#256,.T.);
#256=EDGE_LOOP('',(#100,#257,#262,#167));
#257=ORIENTED_EDGE('',*,*,#258,.T.);
#258=EDGE_CURVE('',#102,#259,#261,.T.);
#259=VERTEX_POINT('',#260);
#260=CARTESIAN_POINT('',(3.15,3.5,4.15));
#261=LINE('',#103,#127);
#262=ORIENTED_EDGE('',*,*,#263,.F.);
#263=EDGE_CURVE('',#162,#259,#264,.T.);
#264=LINE('',#163,#34);
#265=PLANE('',#266);
#266=AXIS2_PLACEMENT_3D('',#170,#28,#13);
#267=ADVANCED_FACE('',(#268),#274,.F.);
#268=FACE_BOUND('',#269,.F.);
#269=EDGE_LOOP('',(#270,#271,#272,#273));
#270=ORIENTED_EDGE('',*,*,#193,.F.);
#271=ORIENTED_EDGE('',*,*,#184,.T.);
#272=ORIENTED_EDGE('',*,*,#179,.T.);
#273=ORIENTED_EDGE('',*,*,#174,.F.);
#274=PLANE('',#275);
#275=AXIS2_PLACEMENT_3D('',#38,#13,#14);
#276=ADVANCED_FACE('',(#277),#290,.T.);
#277=FACE_BOUND('',#278,.T.);
#278=EDGE_LOOP('',(#279,#160,#284,#285));
#279=ORIENTED_EDGE('',*,*,#280,.F.);
#280=EDGE_CURVE('',#158,#281,#283,.T.);
#281=VERTEX_POINT('',#282);
#282=CARTESIAN_POINT('',(3.5,3.15,4.15));
#283=LINE('',#159,#34);
#284=ORIENTED_EDGE('',*,*,#263,.T.);
#285=ORIENTED_EDGE('',*,*,#286,.T.);
#286=EDGE_CURVE('',#259,#281,#287,.T.);
#287=CIRCLE('',#288,0.35);
#288=AXIS2_PLACEMENT_3D('',#289,#98,#28);
#289=CARTESIAN_POINT('',(3.15,3.15,4.15));
#290=CYLINDRICAL_SURFACE('',#291,0.35);
#291=AXIS2_PLACEMENT_3D('',#166,#13,#14);
#292=ADVANCED_FACE('',(#293),#317,.T.);
#293=FACE_BOUND('',#294,.T.);
#294=EDGE_LOOP('',(#295,#300,#135,#303,#308,#313,#156,#316));
#295=ORIENTED_EDGE('',*,*,#296,.T.);
#296=EDGE_CURVE('',#281,#297,#299,.T.);
#297=VERTEX_POINT('',#298);
#298=CARTESIAN_POINT('',(3.5,-3.15,4.15));
#299=LINE('',#282,#237);
#300=ORIENTED_EDGE('',*,*,#301,.F.);
#301=EDGE_CURVE('',#130,#297,#302,.T.);
#302=LINE('',#131,#34);
#303=ORIENTED_EDGE('',*,*,#304,.T.);
#304=EDGE_CURVE('',#137,#305,#307,.T.);
#305=VERTEX_POINT('',#306);
#306=CARTESIAN_POINT('',(3.5,-1.,5.E-02));
#307=LINE('',#138,#34);
#308=ORIENTED_EDGE('',*,*,#309,.T.);
#309=EDGE_CURVE('',#305,#310,#312,.T.);
#310=VERTEX_POINT('',#311);
#311=CARTESIAN_POINT('',(3.5,1.,5.E-02));
#312=LINE('',#306,#27);
#313=ORIENTED_EDGE('',*,*,#314,.F.);
#314=EDGE_CURVE('',#153,#310,#315,.T.);
#315=LINE('',#154,#34);
#316=ORIENTED_EDGE('',*,*,#280,.T.);
#317=PLANE('',#318);
#318=AXIS2_PLACEMENT_3D('',#140,#14,#13);
#319=ADVANCED_FACE('',(#320),#328,.F.);
#320=FACE_BOUND('',#321,.F.);
#321=EDGE_LOOP('',(#322,#323,#324,#327));
#322=ORIENTED_EDGE('',*,*,#147,.F.);
#323=ORIENTED_EDGE('',*,*,#142,.T.);
#324=ORIENTED_EDGE('',*,*,#325,.T.);
#325=EDGE_CURVE('',#137,#153,#326,.T.);
#326=LINE('',#138,#27);
#327=ORIENTED_EDGE('',*,*,#152,.F.);
#328=PLANE('',#329);
#329=AXIS2_PLACEMENT_3D('',#144,#13,#14);
#330=ADVANCED_FACE('',(#331),#344,.T.);
#331=FACE_BOUND('',#332,.F.);
#332=EDGE_LOOP('',(#300,#333,#334,#339));
#333=ORIENTED_EDGE('',*,*,#129,.T.);
#334=ORIENTED_EDGE('',*,*,#335,.T.);
#335=EDGE_CURVE('',#124,#336,#338,.T.);
#336=VERTEX_POINT('',#337);
#337=CARTESIAN_POINT('',(3.15,-3.5,4.15));
#338=LINE('',#125,#34);
#339=ORIENTED_EDGE('',*,*,#340,.F.);
#340=EDGE_CURVE('',#297,#336,#341,.T.);
#341=CIRCLE('',#342,0.35);
#342=AXIS2_PLACEMENT_3D('',#343,#98,#14);
#343=CARTESIAN_POINT('',(3.15,-3.15,4.15));
#344=CYLINDRICAL_SURFACE('',#345,0.35);
#345=AXIS2_PLACEMENT_3D('',#134,#13,#14);
#346=ADVANCED_FACE('',(#347),#354,.F.);
#347=FACE_BOUND('',#348,.F.);
#348=EDGE_LOOP('',(#202,#349,#352,#353));
#349=ORIENTED_EDGE('',*,*,#350,.F.);
#350=EDGE_CURVE('',#336,#204,#351,.T.);
#351=LINE('',#337,#231);
#352=ORIENTED_EDGE('',*,*,#335,.F.);
#353=ORIENTED_EDGE('',*,*,#123,.F.);
#354=PLANE('',#355);
#355=AXIS2_PLACEMENT_3D('',#40,#28,#13);
#356=ADVANCED_FACE('',(#357),#364,.T.);
#357=FACE_BOUND('',#358,.T.);
#358=EDGE_LOOP('',(#359,#363,#216,#349));
#359=ORIENTED_EDGE('',*,*,#360,.T.);
#360=EDGE_CURVE('',#336,#228,#361,.T.);
#361=CIRCLE('',#362,0.35);
#362=AXIS2_PLACEMENT_3D('',#343,#75,#99);
#363=ORIENTED_EDGE('',*,*,#227,.T.);
#364=CYLINDRICAL_SURFACE('',#362,0.35);
#365=ADVANCED_FACE('',(#366),#374,.T.);
#366=FACE_BOUND('',#367,.T.);
#367=EDGE_LOOP('',(#248,#368,#369,#373));
#368=ORIENTED_EDGE('',*,*,#239,.T.);
#369=ORIENTED_EDGE('',*,*,#370,.F.);
#370=EDGE_CURVE('',#259,#234,#371,.T.);
#371=CIRCLE('',#372,0.35);
#372=AXIS2_PLACEMENT_3D('',#289,#14,#28);
#373=ORIENTED_EDGE('',*,*,#258,.F.);
#374=CYLINDRICAL_SURFACE('',#251,0.35);
#375=ADVANCED_FACE('',(#376),#388,.T.);
#376=FACE_BOUND('',#377,.T.);
#377=EDGE_LOOP('',(#378,#382,#383,#387));
#378=ORIENTED_EDGE('',*,*,#379,.T.);
#379=EDGE_CURVE('',#281,#234,#380,.T.);
#380=CIRCLE('',#381,0.35);
#381=AXIS2_PLACEMENT_3D('',#289,#99,#14);
#382=ORIENTED_EDGE('',*,*,#233,.T.);
#383=ORIENTED_EDGE('',*,*,#384,.F.);
#384=EDGE_CURVE('',#297,#228,#385,.T.);
#385=CIRCLE('',#386,0.35);
#386=AXIS2_PLACEMENT_3D('',#343,#99,#14);
#387=ORIENTED_EDGE('',*,*,#296,.F.);
#388=CYLINDRICAL_SURFACE('',#381,0.35);
#389=ADVANCED_FACE('',(#390),#392,.T.);
#390=FACE_BOUND('',#391,.F.);
#391=EDGE_LOOP('',(#369,#285,#378));
#392=SPHERICAL_SURFACE('',#393,0.35);
#393=AXIS2_PLACEMENT_3D('',#289,#13,#28);
#394=ADVANCED_FACE('',(#395),#400,.T.);
#395=FACE_BOUND('',#396,.T.);
#396=EDGE_LOOP('',(#397,#324,#398,#399));
#397=ORIENTED_EDGE('',*,*,#304,.F.);
#398=ORIENTED_EDGE('',*,*,#314,.T.);
#399=ORIENTED_EDGE('',*,*,#309,.F.);
#400=PLANE('',#401);
#401=AXIS2_PLACEMENT_3D('',#138,#14,#13);
#402=ADVANCED_FACE('',(#403),#406,.T.);
#403=FACE_BOUND('',#404,.F.);
#404=EDGE_LOOP('',(#383,#405,#359));
#405=ORIENTED_EDGE('',*,*,#340,.T.);
#406=SPHERICAL_SURFACE('',#407,0.35);
#407=AXIS2_PLACEMENT_3D('',#343,#13,#14);
#408=( GEOMETRIC_REPRESENTATION_CONTEXT(3) GLOBAL_UNCERTAINTY_ASSIGNED_CONTEXT((#412)) GLOBAL_UNIT_ASSIGNED_CONTEXT((#409,#410,#411)) REPRESENTATION_CONTEXT('Context #1','3D Context with UNIT and UNCERTAINTY') );
#409=( LENGTH_UNIT() NAMED_UNIT(*) SI_UNIT(.MILLI.,.METRE.) );
#410=( NAMED_UNIT(*) PLANE_ANGLE_UNIT() SI_UNIT($,.RADIAN.) );
#411=( NAMED_UNIT(*) SI_UNIT($,.STERADIAN.) SOLID_ANGLE_UNIT() );
#412=UNCERTAINTY_MEASURE_WITH_UNIT(LENGTH_MEASURE(1.E-07),#409,'distance_accuracy_value','confusion accuracy');
#413=MECHANICAL_DESIGN_GEOMETRIC_PRESENTATION_REPRESENTATION('',(#414,#424,#425,#426,#427,#436,#437,#438,#439,#440,#441,#442,#443,#444,#445,#446,#447,#448,#449,#450,#451,#452),#408);
#414=STYLED_ITEM('color',(#415),#17);
#415=PRESENTATION_STYLE_ASSIGNMENT((#416,#422));
#416=SURFACE_STYLE_USAGE(.BOTH.,#417);
#417=SURFACE_SIDE_STYLE('',(#418));
#418=SURFACE_STYLE_FILL_AREA(#419);
#419=FILL_AREA_STYLE('',(#420));
#420=FILL_AREA_STYLE_COLOUR('',#421);
#421=COLOUR_RGB('',0.147999998088,0.145000001626,0.145000001626);
#422=CURVE_STYLE('',#423,POSITIVE_LENGTH_MEASURE(0.1),#421);
#423=DRAUGHTING_PRE_DEFINED_CURVE_FONT('continuous');
#424=STYLED_ITEM('color',(#415),#65);
#425=STYLED_ITEM('color',(#415),#87);
#426=STYLED_ITEM('color',(#415),#111);
#427=STYLED_ITEM('color',(#428),#188);
#428=PRESENTATION_STYLE_ASSIGNMENT((#429,#435));
#429=SURFACE_STYLE_USAGE(.BOTH.,#430);
#430=SURFACE_SIDE_STYLE('',(#431));
#431=SURFACE_STYLE_FILL_AREA(#432);
#432=FILL_AREA_STYLE('',(#433));
#433=FILL_AREA_STYLE_COLOUR('',#434);
#434=COLOUR_RGB('',0.823999987314,0.819999987296,0.781000009244);
#435=CURVE_STYLE('',#423,POSITIVE_LENGTH_MEASURE(0.1),#434);
#436=STYLED_ITEM('color',(#415),#199);
#437=STYLED_ITEM('color',(#415),#213);
#438=STYLED_ITEM('color',(#415),#222);
#439=STYLED_ITEM('color',(#415),#244);
#440=STYLED_ITEM('color',(#415),#254);
#441=STYLED_ITEM('color',(#428),#267);
#442=STYLED_ITEM('color',(#415),#276);
#443=STYLED_ITEM('color',(#415),#292);
#444=STYLED_ITEM('color',(#428),#319);
#445=STYLED_ITEM('color',(#415),#330);
#446=STYLED_ITEM('color',(#415),#346);
#447=STYLED_ITEM('color',(#415),#356);
#448=STYLED_ITEM('color',(#415),#365);
#449=STYLED_ITEM('color',(#415),#375);
#450=STYLED_ITEM('color',(#415),#389);
#451=STYLED_ITEM('color',(#428),#394);
#452=STYLED_ITEM('color',(#415),#402);
ENDSEC;
END-ISO-10303-21;
