ISO-10303-21;
HEADER;
/* LED_WS2812B-Mini_PLCC4_3.5x3.5mm_P1.8mm.step 3D STEP model for use in ECAD systems
 * Copyright (C) 2024, KiCAD
 *
 * This work is licensed under the
 * [Creative Commons CC-BY-SA 4.0 License](https://creativecommons.org/licenses/by-sa/4.0/legalcode),
 * with the following exception:
 *
 * To the extent that the creation of electronic designs that use 'Licensed Material' can be
 * considered to be 'Adapted Material', then the copyright holder waives article 3 of the license
 * with respect to these designs and any generated files which use data provided as part of the
 * 'Licensed Material'.
 *
 * You are free to use the library data in your own projects without the obligation to share your
 * project files under this or any other license agreement. However, if you wish to distribute
 * these libraries, or parts thereof (including in modified form) as a collection then the exception
 * above does not apply. Please refer to
 * https://gitlab.com/kicad/libraries/kicad-packages3D/-/blob/master/LICENSE.md for further clarification
 * of the exception.
 *
 * Disclaimer of Warranties and Limitation of Liability.
 * These libraries are provided in the hope that they will be useful, but are provided without warranty of any kind, express or implied.
 * USE 3D CAD DATA AT YOUR OWN RISK
 * DO NOT RELY UPON ANY INFORMATION FOUND HERE WITHOUT INDEPENDENT VERIFICATION.
 */

FILE_DESCRIPTION(
/* description */ ('model of LED_WS2812B-Mini_PLCC4_3.5x3.5mm_P1.8mm'),
/* implementation_level */ '2;1');

FILE_NAME(
/* name */ 'LED_WS2812B-Mini_PLCC4_3.5x3.5mm_P1.8mm.step',
/* time_stamp */ '2024-02-10T15:21:44',
/* author */ ('KiCAD','kicad'),
/* organization */ ('OCCT'),
/* preprocessor_version */ '',
/* originating_system */ 'KiCAD',
/* authorisation */ '');

FILE_SCHEMA(('AUTOMOTIVE_DESIGN { 1 0 10303 214 1 1 1 1 }'));
ENDSEC;

DATA;
#1=APPLICATION_PROTOCOL_DEFINITION('international standard','automotive_design',2000,#2);
#2=APPLICATION_CONTEXT('core data for automotive mechanical design processes');
#3=SHAPE_DEFINITION_REPRESENTATION(#4,#10);
#4=PRODUCT_DEFINITION_SHAPE('','',#5);
#5=PRODUCT_DEFINITION('design','',#6,#9);
#6=PRODUCT_DEFINITION_FORMATION('','',#7);
#7=PRODUCT('LED_WS2812B-Mini_PLCC4_3.5x3.5mm_P1.8mm','LED_WS2812B-Mini_PLCC4_3.5x3.5mm_P1.8mm','',(#8));
#8=PRODUCT_CONTEXT('',#2,'mechanical');
#9=PRODUCT_DEFINITION_CONTEXT('part definition',#2,'design');
#10=ADVANCED_BREP_SHAPE_REPRESENTATION('',(#11,#15),#1120);
#11=AXIS2_PLACEMENT_3D('',#12,#13,#14);
#12=CARTESIAN_POINT('',(0.,0.,0.));
#13=DIRECTION('',(0.,0.,1.));
#14=DIRECTION('',(1.,0.,-0.));
#15=MANIFOLD_SOLID_BREP('',#16);
#16=CLOSED_SHELL('',(#17,#29,#50,#68,#113,#139,#158,#175,#193,#203,#279,#297,#312,#330,#385,#392,#550,#593,#608,#645,#688,#703,#740,#783,#798,#835,#878,#893,#930,#941,#952,#963,#974,#987,#995,#1007,#1012,#1025,#1033,#1045,#1050,#1063,#1068,#1080,#1085,#1098,#1103,#1115));
#17=ADVANCED_FACE('',(#18),#28,.T.);
#18=FACE_BOUND('',#19,.T.);
#19=EDGE_LOOP('',(#20));
#20=ORIENTED_EDGE('',*,*,#21,.T.);
#21=EDGE_CURVE('',#22,#22,#24,.T.);
#22=VERTEX_POINT('',#23);
#23=CARTESIAN_POINT('',(-1.153333333333,1.412425975017E-16,1.475));
#24=CIRCLE('',#25,1.153333333333);
#25=AXIS2_PLACEMENT_3D('',#26,#13,#27);
#26=CARTESIAN_POINT('',(0.,0.,1.475));
#27=DIRECTION('',(-1.,1.224646799147E-16,0.));
#28=PLANE('',#25);
#29=ADVANCED_FACE('',(#30),#47,.F.);
#30=FACE_BOUND('',#31,.T.);
#31=EDGE_LOOP('',(#32,#33,#40,#46));
#32=ORIENTED_EDGE('',*,*,#21,.F.);
#33=ORIENTED_EDGE('',*,*,#34,.T.);
#34=EDGE_CURVE('',#22,#35,#37,.T.);
#35=VERTEX_POINT('',#36);
#36=CARTESIAN_POINT('',(-1.153333333333,1.412425975017E-16,1.56));
#37=LINE('',#38,#39);
#38=CARTESIAN_POINT('',(-1.153333333333,1.412425975017E-16,1.05));
#39=VECTOR('',#13,1.);
#40=ORIENTED_EDGE('',*,*,#41,.F.);
#41=EDGE_CURVE('',#35,#35,#42,.T.);
#42=CIRCLE('',#43,1.153333333333);
#43=AXIS2_PLACEMENT_3D('',#44,#45,#27);
#44=CARTESIAN_POINT('',(0.,0.,1.56));
#45=DIRECTION('',(0.,0.,-1.));
#46=ORIENTED_EDGE('',*,*,#34,.F.);
#47=CYLINDRICAL_SURFACE('',#48,1.153333333333);
#48=AXIS2_PLACEMENT_3D('',#49,#45,#27);
#49=CARTESIAN_POINT('',(0.,0.,1.05));
#50=ADVANCED_FACE('',(#51),#66,.F.);
#51=FACE_BOUND('',#52,.F.);
#52=EDGE_LOOP('',(#53,#60,#65,#40));
#53=ORIENTED_EDGE('',*,*,#54,.F.);
#54=EDGE_CURVE('',#55,#35,#57,.T.);
#55=VERTEX_POINT('',#56);
#56=CARTESIAN_POINT('',(-1.493333333333,1.828805886727E-16,1.9));
#57=LINE('',#36,#58);
#58=VECTOR('',#59,1.);
#59=DIRECTION('',(0.707106781187,-8.659560562355E-17,-0.707106781187));
#60=ORIENTED_EDGE('',*,*,#61,.T.);
#61=EDGE_CURVE('',#55,#55,#62,.T.);
#62=CIRCLE('',#63,1.493333333333);
#63=AXIS2_PLACEMENT_3D('',#64,#45,#27);
#64=CARTESIAN_POINT('',(0.,0.,1.9));
#65=ORIENTED_EDGE('',*,*,#54,.T.);
#66=CONICAL_SURFACE('',#67,1.153333333333,0.785398163397);
#67=AXIS2_PLACEMENT_3D('',#44,#13,#27);
#68=ADVANCED_FACE('',(#69,#71),#111,.T.);
#69=FACE_BOUND('',#70,.T.);
#70=EDGE_LOOP('',(#60));
#71=FACE_BOUND('',#72,.T.);
#72=EDGE_LOOP('',(#73,#83,#90,#98,#105));
#73=ORIENTED_EDGE('',*,*,#74,.T.);
#74=EDGE_CURVE('',#75,#77,#79,.T.);
#75=VERTEX_POINT('',#76);
#76=CARTESIAN_POINT('',(1.645,-0.978202384293,1.9));
#77=VERTEX_POINT('',#78);
#78=CARTESIAN_POINT('',(1.645,1.645,1.9));
#79=LINE('',#80,#81);
#80=CARTESIAN_POINT('',(1.645,-1.013410537095,1.9));
#81=VECTOR('',#82,1.);
#82=DIRECTION('',(1.224646799147E-16,1.,0.));
#83=ORIENTED_EDGE('',*,*,#84,.T.);
#84=EDGE_CURVE('',#77,#85,#87,.T.);
#85=VERTEX_POINT('',#86);
#86=CARTESIAN_POINT('',(-1.645,1.645,1.9));
#87=LINE('',#88,#89);
#88=CARTESIAN_POINT('',(1.73,1.645,1.9));
#89=VECTOR('',#27,1.);
#90=ORIENTED_EDGE('',*,*,#91,.T.);
#91=EDGE_CURVE('',#85,#92,#94,.T.);
#92=VERTEX_POINT('',#93);
#93=CARTESIAN_POINT('',(-1.645,-1.645,1.9));
#94=LINE('',#95,#96);
#95=CARTESIAN_POINT('',(-1.645,1.73,1.9));
#96=VECTOR('',#97,1.);
#97=DIRECTION('',(-1.224646799147E-16,-1.,0.));
#98=ORIENTED_EDGE('',*,*,#99,.T.);
#99=EDGE_CURVE('',#92,#100,#102,.T.);
#100=VERTEX_POINT('',#101);
#101=CARTESIAN_POINT('',(0.978202384293,-1.645,1.9));
#102=LINE('',#103,#104);
#103=CARTESIAN_POINT('',(-1.73,-1.645,1.9));
#104=VECTOR('',#14,1.);
#105=ORIENTED_EDGE('',*,*,#106,.T.);
#106=EDGE_CURVE('',#100,#75,#107,.T.);
#107=LINE('',#108,#109);
#108=CARTESIAN_POINT('',(0.953306460694,-1.669895923599,1.9));
#109=VECTOR('',#110,1.);
#110=DIRECTION('',(0.707106781187,0.707106781187,0.));
#111=PLANE('',#112);
#112=AXIS2_PLACEMENT_3D('',#64,#13,#27);
#113=ADVANCED_FACE('',(#114),#136,.T.);
#114=FACE_BOUND('',#115,.F.);
#115=EDGE_LOOP('',(#116,#73,#125,#133));
#116=ORIENTED_EDGE('',*,*,#117,.T.);
#117=EDGE_CURVE('',#118,#75,#120,.T.);
#118=VERTEX_POINT('',#119);
#119=CARTESIAN_POINT('',(1.73,-1.013410537095,1.815));
#120=ELLIPSE('',#121,9.200333702485E-02,8.5E-02);
#121=AXIS2_PLACEMENT_3D('',#122,#123,#124);
#122=CARTESIAN_POINT('',(1.645,-0.978202384293,1.815));
#123=DIRECTION('',(-0.382683432365,-0.923879532511,-0.));
#124=DIRECTION('',(-0.923879532511,0.382683432365,0.));
#125=ORIENTED_EDGE('',*,*,#126,.F.);
#126=EDGE_CURVE('',#127,#77,#129,.T.);
#127=VERTEX_POINT('',#128);
#128=CARTESIAN_POINT('',(1.73,1.73,1.815));
#129=ELLIPSE('',#130,0.120208152802,8.5E-02);
#130=AXIS2_PLACEMENT_3D('',#131,#132,#110);
#131=CARTESIAN_POINT('',(1.645,1.645,1.815));
#132=DIRECTION('',(0.707106781187,-0.707106781187,0.));
#133=ORIENTED_EDGE('',*,*,#134,.F.);
#134=EDGE_CURVE('',#118,#127,#135,.T.);
#135=LINE('',#119,#81);
#136=CYLINDRICAL_SURFACE('',#137,8.5E-02);
#137=AXIS2_PLACEMENT_3D('',#138,#82,#14);
#138=CARTESIAN_POINT('',(1.645,-1.013410537095,1.815));
#139=ADVANCED_FACE('',(#140),#155,.T.);
#140=FACE_BOUND('',#141,.T.);
#141=EDGE_LOOP('',(#142,#151,#116,#154));
#142=ORIENTED_EDGE('',*,*,#143,.T.);
#143=EDGE_CURVE('',#100,#144,#146,.T.);
#144=VERTEX_POINT('',#145);
#145=CARTESIAN_POINT('',(1.013410537095,-1.73,1.815));
#146=ELLIPSE('',#147,9.200333702485E-02,8.5E-02);
#147=AXIS2_PLACEMENT_3D('',#148,#149,#150);
#148=CARTESIAN_POINT('',(0.978202384293,-1.645,1.815));
#149=DIRECTION('',(0.923879532511,0.382683432365,-0.));
#150=DIRECTION('',(-0.382683432365,0.923879532511,0.));
#151=ORIENTED_EDGE('',*,*,#152,.T.);
#152=EDGE_CURVE('',#144,#118,#153,.T.);
#153=LINE('',#145,#109);
#154=ORIENTED_EDGE('',*,*,#106,.F.);
#155=CYLINDRICAL_SURFACE('',#156,8.5E-02);
#156=AXIS2_PLACEMENT_3D('',#157,#110,#13);
#157=CARTESIAN_POINT('',(0.953306460694,-1.669895923599,1.815));
#158=ADVANCED_FACE('',(#159),#172,.T.);
#159=FACE_BOUND('',#160,.F.);
#160=EDGE_LOOP('',(#161,#83,#162,#169));
#161=ORIENTED_EDGE('',*,*,#126,.T.);
#162=ORIENTED_EDGE('',*,*,#163,.F.);
#163=EDGE_CURVE('',#164,#85,#166,.T.);
#164=VERTEX_POINT('',#165);
#165=CARTESIAN_POINT('',(-1.73,1.73,1.815));
#166=ELLIPSE('',#167,0.120208152802,8.5E-02);
#167=AXIS2_PLACEMENT_3D('',#168,#110,#132);
#168=CARTESIAN_POINT('',(-1.645,1.645,1.815));
#169=ORIENTED_EDGE('',*,*,#170,.F.);
#170=EDGE_CURVE('',#127,#164,#171,.T.);
#171=LINE('',#128,#89);
#172=CYLINDRICAL_SURFACE('',#173,8.5E-02);
#173=AXIS2_PLACEMENT_3D('',#174,#27,#82);
#174=CARTESIAN_POINT('',(1.73,1.645,1.815));
#175=ADVANCED_FACE('',(#176),#190,.T.);
#176=FACE_BOUND('',#177,.T.);
#177=EDGE_LOOP('',(#178,#185,#188,#189));
#178=ORIENTED_EDGE('',*,*,#179,.T.);
#179=EDGE_CURVE('',#92,#180,#182,.T.);
#180=VERTEX_POINT('',#181);
#181=CARTESIAN_POINT('',(-1.73,-1.73,1.815));
#182=ELLIPSE('',#183,0.120208152802,8.5E-02);
#183=AXIS2_PLACEMENT_3D('',#184,#132,#110);
#184=CARTESIAN_POINT('',(-1.645,-1.645,1.815));
#185=ORIENTED_EDGE('',*,*,#186,.T.);
#186=EDGE_CURVE('',#180,#144,#187,.T.);
#187=LINE('',#181,#104);
#188=ORIENTED_EDGE('',*,*,#143,.F.);
#189=ORIENTED_EDGE('',*,*,#99,.F.);
#190=CYLINDRICAL_SURFACE('',#191,8.5E-02);
#191=AXIS2_PLACEMENT_3D('',#192,#14,#13);
#192=CARTESIAN_POINT('',(-1.73,-1.645,1.815));
#193=ADVANCED_FACE('',(#194),#200,.T.);
#194=FACE_BOUND('',#195,.F.);
#195=EDGE_LOOP('',(#196,#90,#178,#197));
#196=ORIENTED_EDGE('',*,*,#163,.T.);
#197=ORIENTED_EDGE('',*,*,#198,.F.);
#198=EDGE_CURVE('',#164,#180,#199,.T.);
#199=LINE('',#165,#96);
#200=CYLINDRICAL_SURFACE('',#201,8.5E-02);
#201=AXIS2_PLACEMENT_3D('',#202,#97,#27);
#202=CARTESIAN_POINT('',(-1.645,1.73,1.815));
#203=ADVANCED_FACE('',(#204),#277,.F.);
#204=FACE_BOUND('',#205,.F.);
#205=EDGE_LOOP('',(#206,#207,#212,#218,#224,#230,#237,#241,#247,#253,#259,#262,#267,#273));
#206=ORIENTED_EDGE('',*,*,#134,.T.);
#207=ORIENTED_EDGE('',*,*,#208,.F.);
#208=EDGE_CURVE('',#209,#127,#211,.T.);
#209=VERTEX_POINT('',#210);
#210=CARTESIAN_POINT('',(1.73,1.73,0.2));
#211=LINE('',#210,#39);
#212=ORIENTED_EDGE('',*,*,#213,.F.);
#213=EDGE_CURVE('',#214,#209,#216,.T.);
#214=VERTEX_POINT('',#215);
#215=CARTESIAN_POINT('',(1.73,1.29,0.2));
#216=LINE('',#217,#81);
#217=CARTESIAN_POINT('',(1.73,-1.73,0.2));
#218=ORIENTED_EDGE('',*,*,#219,.T.);
#219=EDGE_CURVE('',#214,#220,#222,.T.);
#220=VERTEX_POINT('',#221);
#221=CARTESIAN_POINT('',(1.73,1.29,1.));
#222=LINE('',#223,#39);
#223=CARTESIAN_POINT('',(1.73,1.29,0.1));
#224=ORIENTED_EDGE('',*,*,#225,.F.);
#225=EDGE_CURVE('',#226,#220,#228,.T.);
#226=VERTEX_POINT('',#227);
#227=CARTESIAN_POINT('',(1.73,0.49,1.));
#228=LINE('',#229,#81);
#229=CARTESIAN_POINT('',(1.73,-0.42,1.));
#230=ORIENTED_EDGE('',*,*,#231,.T.);
#231=EDGE_CURVE('',#226,#232,#234,.T.);
#232=VERTEX_POINT('',#233);
#233=CARTESIAN_POINT('',(1.73,0.49,0.2));
#234=LINE('',#235,#236);
#235=CARTESIAN_POINT('',(1.73,0.49,0.1));
#236=VECTOR('',#45,1.);
#237=ORIENTED_EDGE('',*,*,#238,.F.);
#238=EDGE_CURVE('',#239,#232,#216,.T.);
#239=VERTEX_POINT('',#240);
#240=CARTESIAN_POINT('',(1.73,-0.49,0.2));
#241=ORIENTED_EDGE('',*,*,#242,.T.);
#242=EDGE_CURVE('',#239,#243,#245,.T.);
#243=VERTEX_POINT('',#244);
#244=CARTESIAN_POINT('',(1.73,-0.49,1.));
#245=LINE('',#246,#39);
#246=CARTESIAN_POINT('',(1.73,-0.49,0.1));
#247=ORIENTED_EDGE('',*,*,#248,.F.);
#248=EDGE_CURVE('',#249,#243,#251,.T.);
#249=VERTEX_POINT('',#250);
#250=CARTESIAN_POINT('',(1.73,-1.29,1.));
#251=LINE('',#252,#81);
#252=CARTESIAN_POINT('',(1.73,-1.31,1.));
#253=ORIENTED_EDGE('',*,*,#254,.T.);
#254=EDGE_CURVE('',#249,#255,#257,.T.);
#255=VERTEX_POINT('',#256);
#256=CARTESIAN_POINT('',(1.73,-1.29,0.2));
#257=LINE('',#258,#236);
#258=CARTESIAN_POINT('',(1.73,-1.29,0.1));
#259=ORIENTED_EDGE('',*,*,#260,.F.);
#260=EDGE_CURVE('',#261,#255,#216,.T.);
#261=VERTEX_POINT('',#217);
#262=ORIENTED_EDGE('',*,*,#263,.T.);
#263=EDGE_CURVE('',#261,#264,#266,.T.);
#264=VERTEX_POINT('',#265);
#265=CARTESIAN_POINT('',(1.73,-1.73,1.56));
#266=LINE('',#217,#39);
#267=ORIENTED_EDGE('',*,*,#268,.T.);
#268=EDGE_CURVE('',#264,#269,#271,.T.);
#269=VERTEX_POINT('',#270);
#270=CARTESIAN_POINT('',(1.73,-1.013410537095,1.56));
#271=LINE('',#272,#81);
#272=CARTESIAN_POINT('',(1.73,-2.1625,1.56));
#273=ORIENTED_EDGE('',*,*,#274,.T.);
#274=EDGE_CURVE('',#269,#118,#275,.T.);
#275=LINE('',#276,#39);
#276=CARTESIAN_POINT('',(1.73,-1.013410537095,0.88));
#277=PLANE('',#278);
#278=AXIS2_PLACEMENT_3D('',#217,#27,#82);
#279=ADVANCED_FACE('',(#280),#295,.T.);
#280=FACE_BOUND('',#281,.T.);
#281=EDGE_LOOP('',(#282,#288,#273,#294));
#282=ORIENTED_EDGE('',*,*,#283,.T.);
#283=EDGE_CURVE('',#144,#284,#286,.T.);
#284=VERTEX_POINT('',#285);
#285=CARTESIAN_POINT('',(1.013410537095,-1.73,1.56));
#286=LINE('',#287,#236);
#287=CARTESIAN_POINT('',(1.013410537095,-1.73,0.88));
#288=ORIENTED_EDGE('',*,*,#289,.F.);
#289=EDGE_CURVE('',#269,#284,#290,.T.);
#290=LINE('',#291,#292);
#291=CARTESIAN_POINT('',(2.595,-0.148410537095,1.56));
#292=VECTOR('',#293,1.);
#293=DIRECTION('',(-0.707106781187,-0.707106781187,0.));
#294=ORIENTED_EDGE('',*,*,#152,.F.);
#295=PLANE('',#296);
#296=AXIS2_PLACEMENT_3D('',#291,#132,#293);
#297=ADVANCED_FACE('',(#298),#310,.F.);
#298=FACE_BOUND('',#299,.F.);
#299=EDGE_LOOP('',(#300,#301,#302,#307));
#300=ORIENTED_EDGE('',*,*,#208,.T.);
#301=ORIENTED_EDGE('',*,*,#170,.T.);
#302=ORIENTED_EDGE('',*,*,#303,.F.);
#303=EDGE_CURVE('',#304,#164,#306,.T.);
#304=VERTEX_POINT('',#305);
#305=CARTESIAN_POINT('',(-1.73,1.73,0.2));
#306=LINE('',#305,#39);
#307=ORIENTED_EDGE('',*,*,#308,.F.);
#308=EDGE_CURVE('',#209,#304,#309,.T.);
#309=LINE('',#210,#89);
#310=PLANE('',#311);
#311=AXIS2_PLACEMENT_3D('',#210,#97,#27);
#312=ADVANCED_FACE('',(#313),#328,.F.);
#313=FACE_BOUND('',#314,.F.);
#314=EDGE_LOOP('',(#282,#315,#319,#320,#325,#185));
#315=ORIENTED_EDGE('',*,*,#316,.T.);
#316=EDGE_CURVE('',#284,#264,#317,.T.);
#317=LINE('',#318,#104);
#318=CARTESIAN_POINT('',(0.4325,-1.73,1.56));
#319=ORIENTED_EDGE('',*,*,#263,.F.);
#320=ORIENTED_EDGE('',*,*,#321,.F.);
#321=EDGE_CURVE('',#322,#261,#324,.T.);
#322=VERTEX_POINT('',#323);
#323=CARTESIAN_POINT('',(-1.73,-1.73,0.2));
#324=LINE('',#323,#104);
#325=ORIENTED_EDGE('',*,*,#326,.T.);
#326=EDGE_CURVE('',#322,#180,#327,.T.);
#327=LINE('',#323,#39);
#328=PLANE('',#329);
#329=AXIS2_PLACEMENT_3D('',#323,#82,#14);
#330=ADVANCED_FACE('',(#331),#383,.F.);
#331=FACE_BOUND('',#332,.F.);
#332=EDGE_LOOP('',(#333,#334,#335,#336,#341,#347,#353,#359,#363,#369,#375,#381));
#333=ORIENTED_EDGE('',*,*,#303,.T.);
#334=ORIENTED_EDGE('',*,*,#198,.T.);
#335=ORIENTED_EDGE('',*,*,#326,.F.);
#336=ORIENTED_EDGE('',*,*,#337,.F.);
#337=EDGE_CURVE('',#338,#322,#340,.T.);
#338=VERTEX_POINT('',#339);
#339=CARTESIAN_POINT('',(-1.73,-1.29,0.2));
#340=LINE('',#305,#96);
#341=ORIENTED_EDGE('',*,*,#342,.T.);
#342=EDGE_CURVE('',#338,#343,#345,.T.);
#343=VERTEX_POINT('',#344);
#344=CARTESIAN_POINT('',(-1.73,-1.29,1.));
#345=LINE('',#346,#39);
#346=CARTESIAN_POINT('',(-1.73,-1.29,0.1));
#347=ORIENTED_EDGE('',*,*,#348,.F.);
#348=EDGE_CURVE('',#349,#343,#351,.T.);
#349=VERTEX_POINT('',#350);
#350=CARTESIAN_POINT('',(-1.73,-0.49,1.));
#351=LINE('',#352,#96);
#352=CARTESIAN_POINT('',(-1.73,0.42,1.));
#353=ORIENTED_EDGE('',*,*,#354,.T.);
#354=EDGE_CURVE('',#349,#355,#357,.T.);
#355=VERTEX_POINT('',#356);
#356=CARTESIAN_POINT('',(-1.73,-0.49,0.2));
#357=LINE('',#358,#236);
#358=CARTESIAN_POINT('',(-1.73,-0.49,0.1));
#359=ORIENTED_EDGE('',*,*,#360,.F.);
#360=EDGE_CURVE('',#361,#355,#340,.T.);
#361=VERTEX_POINT('',#362);
#362=CARTESIAN_POINT('',(-1.73,0.49,0.2));
#363=ORIENTED_EDGE('',*,*,#364,.T.);
#364=EDGE_CURVE('',#361,#365,#367,.T.);
#365=VERTEX_POINT('',#366);
#366=CARTESIAN_POINT('',(-1.73,0.49,1.));
#367=LINE('',#368,#39);
#368=CARTESIAN_POINT('',(-1.73,0.49,0.1));
#369=ORIENTED_EDGE('',*,*,#370,.F.);
#370=EDGE_CURVE('',#371,#365,#373,.T.);
#371=VERTEX_POINT('',#372);
#372=CARTESIAN_POINT('',(-1.73,1.29,1.));
#373=LINE('',#374,#96);
#374=CARTESIAN_POINT('',(-1.73,1.31,1.));
#375=ORIENTED_EDGE('',*,*,#376,.T.);
#376=EDGE_CURVE('',#371,#377,#379,.T.);
#377=VERTEX_POINT('',#378);
#378=CARTESIAN_POINT('',(-1.73,1.29,0.2));
#379=LINE('',#380,#236);
#380=CARTESIAN_POINT('',(-1.73,1.29,0.1));
#381=ORIENTED_EDGE('',*,*,#382,.F.);
#382=EDGE_CURVE('',#304,#377,#340,.T.);
#383=PLANE('',#384);
#384=AXIS2_PLACEMENT_3D('',#305,#14,#97);
#385=ADVANCED_FACE('',(#386),#389,.T.);
#386=FACE_BOUND('',#387,.T.);
#387=EDGE_LOOP('',(#267,#388,#315));
#388=ORIENTED_EDGE('',*,*,#289,.T.);
#389=PLANE('',#390);
#390=AXIS2_PLACEMENT_3D('',#391,#13,#293);
#391=CARTESIAN_POINT('',(2.595,-2.595,1.56));
#392=ADVANCED_FACE('',(#393),#547,.F.);
#393=FACE_BOUND('',#394,.F.);
#394=EDGE_LOOP('',(#395,#396,#397,#398,#404,#410,#414,#420,#426,#432,#434,#435,#441,#447,#451,#457,#463,#469,#471,#472,#473,#474,#480,#486,#490,#496,#502,#508,#510,#511,#517,#523,#527,#533,#539,#545));
#395=ORIENTED_EDGE('',*,*,#213,.T.);
#396=ORIENTED_EDGE('',*,*,#308,.T.);
#397=ORIENTED_EDGE('',*,*,#382,.T.);
#398=ORIENTED_EDGE('',*,*,#399,.T.);
#399=EDGE_CURVE('',#377,#400,#402,.T.);
#400=VERTEX_POINT('',#401);
#401=CARTESIAN_POINT('',(-1.54,1.29,0.2));
#402=LINE('',#403,#104);
#403=CARTESIAN_POINT('',(-0.445,1.29,0.2));
#404=ORIENTED_EDGE('',*,*,#405,.F.);
#405=EDGE_CURVE('',#406,#400,#408,.T.);
#406=VERTEX_POINT('',#407);
#407=CARTESIAN_POINT('',(-1.19,1.29,0.2));
#408=LINE('',#409,#89);
#409=CARTESIAN_POINT('',(-1.1275,1.29,0.2));
#410=ORIENTED_EDGE('',*,*,#411,.T.);
#411=EDGE_CURVE('',#406,#412,#402,.T.);
#412=VERTEX_POINT('',#413);
#413=CARTESIAN_POINT('',(-0.89,1.29,0.2));
#414=ORIENTED_EDGE('',*,*,#415,.T.);
#415=EDGE_CURVE('',#412,#416,#418,.T.);
#416=VERTEX_POINT('',#417);
#417=CARTESIAN_POINT('',(-0.89,0.49,0.2));
#418=LINE('',#419,#96);
#419=CARTESIAN_POINT('',(-0.89,0.245,0.2));
#420=ORIENTED_EDGE('',*,*,#421,.T.);
#421=EDGE_CURVE('',#416,#422,#424,.T.);
#422=VERTEX_POINT('',#423);
#423=CARTESIAN_POINT('',(-1.19,0.49,0.2));
#424=LINE('',#425,#89);
#425=CARTESIAN_POINT('',(-0.92,0.49,0.2));
#426=ORIENTED_EDGE('',*,*,#427,.F.);
#427=EDGE_CURVE('',#428,#422,#430,.T.);
#428=VERTEX_POINT('',#429);
#429=CARTESIAN_POINT('',(-1.54,0.49,0.2));
#430=LINE('',#431,#104);
#431=CARTESIAN_POINT('',(-1.6025,0.49,0.2));
#432=ORIENTED_EDGE('',*,*,#433,.T.);
#433=EDGE_CURVE('',#428,#361,#424,.T.);
#434=ORIENTED_EDGE('',*,*,#360,.T.);
#435=ORIENTED_EDGE('',*,*,#436,.T.);
#436=EDGE_CURVE('',#355,#437,#439,.T.);
#437=VERTEX_POINT('',#438);
#438=CARTESIAN_POINT('',(-1.54,-0.49,0.2));
#439=LINE('',#440,#104);
#440=CARTESIAN_POINT('',(-0.445,-0.49,0.2));
#441=ORIENTED_EDGE('',*,*,#442,.F.);
#442=EDGE_CURVE('',#443,#437,#445,.T.);
#443=VERTEX_POINT('',#444);
#444=CARTESIAN_POINT('',(-1.19,-0.49,0.2));
#445=LINE('',#446,#89);
#446=CARTESIAN_POINT('',(-1.1275,-0.49,0.2));
#447=ORIENTED_EDGE('',*,*,#448,.T.);
#448=EDGE_CURVE('',#443,#449,#439,.T.);
#449=VERTEX_POINT('',#450);
#450=CARTESIAN_POINT('',(-0.89,-0.49,0.2));
#451=ORIENTED_EDGE('',*,*,#452,.T.);
#452=EDGE_CURVE('',#449,#453,#455,.T.);
#453=VERTEX_POINT('',#454);
#454=CARTESIAN_POINT('',(-0.89,-1.29,0.2));
#455=LINE('',#456,#96);
#456=CARTESIAN_POINT('',(-0.89,-0.645,0.2));
#457=ORIENTED_EDGE('',*,*,#458,.T.);
#458=EDGE_CURVE('',#453,#459,#461,.T.);
#459=VERTEX_POINT('',#460);
#460=CARTESIAN_POINT('',(-1.19,-1.29,0.2));
#461=LINE('',#462,#89);
#462=CARTESIAN_POINT('',(-0.92,-1.29,0.2));
#463=ORIENTED_EDGE('',*,*,#464,.F.);
#464=EDGE_CURVE('',#465,#459,#467,.T.);
#465=VERTEX_POINT('',#466);
#466=CARTESIAN_POINT('',(-1.54,-1.29,0.2));
#467=LINE('',#468,#104);
#468=CARTESIAN_POINT('',(-1.6025,-1.29,0.2));
#469=ORIENTED_EDGE('',*,*,#470,.T.);
#470=EDGE_CURVE('',#465,#338,#461,.T.);
#471=ORIENTED_EDGE('',*,*,#337,.T.);
#472=ORIENTED_EDGE('',*,*,#321,.T.);
#473=ORIENTED_EDGE('',*,*,#260,.T.);
#474=ORIENTED_EDGE('',*,*,#475,.T.);
#475=EDGE_CURVE('',#255,#476,#478,.T.);
#476=VERTEX_POINT('',#477);
#477=CARTESIAN_POINT('',(1.54,-1.29,0.2));
#478=LINE('',#479,#89);
#479=CARTESIAN_POINT('',(0.445,-1.29,0.2));
#480=ORIENTED_EDGE('',*,*,#481,.F.);
#481=EDGE_CURVE('',#482,#476,#484,.T.);
#482=VERTEX_POINT('',#483);
#483=CARTESIAN_POINT('',(1.19,-1.29,0.2));
#484=LINE('',#485,#104);
#485=CARTESIAN_POINT('',(1.1275,-1.29,0.2));
#486=ORIENTED_EDGE('',*,*,#487,.T.);
#487=EDGE_CURVE('',#482,#488,#478,.T.);
#488=VERTEX_POINT('',#489);
#489=CARTESIAN_POINT('',(0.89,-1.29,0.2));
#490=ORIENTED_EDGE('',*,*,#491,.T.);
#491=EDGE_CURVE('',#488,#492,#494,.T.);
#492=VERTEX_POINT('',#493);
#493=CARTESIAN_POINT('',(0.89,-0.49,0.2));
#494=LINE('',#495,#81);
#495=CARTESIAN_POINT('',(0.89,-0.245,0.2));
#496=ORIENTED_EDGE('',*,*,#497,.T.);
#497=EDGE_CURVE('',#492,#498,#500,.T.);
#498=VERTEX_POINT('',#499);
#499=CARTESIAN_POINT('',(1.19,-0.49,0.2));
#500=LINE('',#501,#104);
#501=CARTESIAN_POINT('',(0.92,-0.49,0.2));
#502=ORIENTED_EDGE('',*,*,#503,.F.);
#503=EDGE_CURVE('',#504,#498,#506,.T.);
#504=VERTEX_POINT('',#505);
#505=CARTESIAN_POINT('',(1.54,-0.49,0.2));
#506=LINE('',#507,#89);
#507=CARTESIAN_POINT('',(1.6025,-0.49,0.2));
#508=ORIENTED_EDGE('',*,*,#509,.T.);
#509=EDGE_CURVE('',#504,#239,#500,.T.);
#510=ORIENTED_EDGE('',*,*,#238,.T.);
#511=ORIENTED_EDGE('',*,*,#512,.T.);
#512=EDGE_CURVE('',#232,#513,#515,.T.);
#513=VERTEX_POINT('',#514);
#514=CARTESIAN_POINT('',(1.54,0.49,0.2));
#515=LINE('',#516,#89);
#516=CARTESIAN_POINT('',(0.445,0.49,0.2));
#517=ORIENTED_EDGE('',*,*,#518,.F.);
#518=EDGE_CURVE('',#519,#513,#521,.T.);
#519=VERTEX_POINT('',#520);
#520=CARTESIAN_POINT('',(1.19,0.49,0.2));
#521=LINE('',#522,#104);
#522=CARTESIAN_POINT('',(1.1275,0.49,0.2));
#523=ORIENTED_EDGE('',*,*,#524,.T.);
#524=EDGE_CURVE('',#519,#525,#515,.T.);
#525=VERTEX_POINT('',#526);
#526=CARTESIAN_POINT('',(0.89,0.49,0.2));
#527=ORIENTED_EDGE('',*,*,#528,.T.);
#528=EDGE_CURVE('',#525,#529,#531,.T.);
#529=VERTEX_POINT('',#530);
#530=CARTESIAN_POINT('',(0.89,1.29,0.2));
#531=LINE('',#532,#81);
#532=CARTESIAN_POINT('',(0.89,0.645,0.2));
#533=ORIENTED_EDGE('',*,*,#534,.T.);
#534=EDGE_CURVE('',#529,#535,#537,.T.);
#535=VERTEX_POINT('',#536);
#536=CARTESIAN_POINT('',(1.19,1.29,0.2));
#537=LINE('',#538,#104);
#538=CARTESIAN_POINT('',(0.92,1.29,0.2));
#539=ORIENTED_EDGE('',*,*,#540,.F.);
#540=EDGE_CURVE('',#541,#535,#543,.T.);
#541=VERTEX_POINT('',#542);
#542=CARTESIAN_POINT('',(1.54,1.29,0.2));
#543=LINE('',#544,#89);
#544=CARTESIAN_POINT('',(1.6025,1.29,0.2));
#545=ORIENTED_EDGE('',*,*,#546,.T.);
#546=EDGE_CURVE('',#541,#214,#537,.T.);
#547=PLANE('',#548);
#548=AXIS2_PLACEMENT_3D('',#549,#13,#27);
#549=CARTESIAN_POINT('',(6.417474130781E-17,-6.417474130781E-17,0.2));
#550=ADVANCED_FACE('',(#551),#591,.F.);
#551=FACE_BOUND('',#552,.F.);
#552=EDGE_LOOP('',(#553,#561,#568,#573,#576,#577,#578,#579,#580,#586));
#553=ORIENTED_EDGE('',*,*,#554,.F.);
#554=EDGE_CURVE('',#555,#557,#559,.T.);
#555=VERTEX_POINT('',#556);
#556=CARTESIAN_POINT('',(1.84,-1.29,1.E-01));
#557=VERTEX_POINT('',#558);
#558=CARTESIAN_POINT('',(1.84,-1.29,0.9));
#559=LINE('',#560,#39);
#560=CARTESIAN_POINT('',(1.84,-1.29,0.));
#561=ORIENTED_EDGE('',*,*,#562,.T.);
#562=EDGE_CURVE('',#555,#563,#565,.T.);
#563=VERTEX_POINT('',#564);
#564=CARTESIAN_POINT('',(1.74,-1.29,-1.387778780781E-17));
#565=CIRCLE('',#566,0.1);
#566=AXIS2_PLACEMENT_3D('',#567,#82,#45);
#567=CARTESIAN_POINT('',(1.74,-1.29,1.E-01));
#568=ORIENTED_EDGE('',*,*,#569,.F.);
#569=EDGE_CURVE('',#570,#563,#572,.T.);
#570=VERTEX_POINT('',#571);
#571=CARTESIAN_POINT('',(0.89,-1.29,0.));
#572=LINE('',#571,#104);
#573=ORIENTED_EDGE('',*,*,#574,.T.);
#574=EDGE_CURVE('',#570,#488,#575,.T.);
#575=LINE('',#571,#39);
#576=ORIENTED_EDGE('',*,*,#487,.F.);
#577=ORIENTED_EDGE('',*,*,#481,.T.);
#578=ORIENTED_EDGE('',*,*,#475,.F.);
#579=ORIENTED_EDGE('',*,*,#254,.F.);
#580=ORIENTED_EDGE('',*,*,#581,.T.);
#581=EDGE_CURVE('',#249,#582,#584,.T.);
#582=VERTEX_POINT('',#583);
#583=CARTESIAN_POINT('',(1.74,-1.29,1.));
#584=LINE('',#585,#104);
#585=CARTESIAN_POINT('',(0.89,-1.29,1.));
#586=ORIENTED_EDGE('',*,*,#587,.F.);
#587=EDGE_CURVE('',#557,#582,#588,.T.);
#588=CIRCLE('',#589,0.1);
#589=AXIS2_PLACEMENT_3D('',#590,#97,#45);
#590=CARTESIAN_POINT('',(1.74,-1.29,0.9));
#591=PLANE('',#592);
#592=AXIS2_PLACEMENT_3D('',#571,#82,#14);
#593=ADVANCED_FACE('',(#594),#605,.T.);
#594=FACE_BOUND('',#595,.T.);
#595=EDGE_LOOP('',(#596,#601,#247,#580));
#596=ORIENTED_EDGE('',*,*,#597,.T.);
#597=EDGE_CURVE('',#582,#598,#600,.T.);
#598=VERTEX_POINT('',#599);
#599=CARTESIAN_POINT('',(1.74,-0.49,1.));
#600=LINE('',#583,#81);
#601=ORIENTED_EDGE('',*,*,#602,.T.);
#602=EDGE_CURVE('',#598,#243,#603,.T.);
#603=LINE('',#604,#89);
#604=CARTESIAN_POINT('',(1.84,-0.49,1.));
#605=PLANE('',#606);
#606=AXIS2_PLACEMENT_3D('',#607,#13,#27);
#607=CARTESIAN_POINT('',(1.365,-0.89,1.));
#608=ADVANCED_FACE('',(#609),#643,.F.);
#609=FACE_BOUND('',#610,.F.);
#610=EDGE_LOOP('',(#611,#620,#626,#601,#631,#632,#633,#634,#635,#640));
#611=ORIENTED_EDGE('',*,*,#612,.F.);
#612=EDGE_CURVE('',#613,#615,#617,.T.);
#613=VERTEX_POINT('',#614);
#614=CARTESIAN_POINT('',(1.84,-0.49,1.E-01));
#615=VERTEX_POINT('',#616);
#616=CARTESIAN_POINT('',(1.74,-0.49,-1.387778780781E-17));
#617=CIRCLE('',#618,0.1);
#618=AXIS2_PLACEMENT_3D('',#619,#82,#45);
#619=CARTESIAN_POINT('',(1.74,-0.49,1.E-01));
#620=ORIENTED_EDGE('',*,*,#621,.T.);
#621=EDGE_CURVE('',#613,#622,#624,.T.);
#622=VERTEX_POINT('',#623);
#623=CARTESIAN_POINT('',(1.84,-0.49,0.9));
#624=LINE('',#625,#39);
#625=CARTESIAN_POINT('',(1.84,-0.49,0.));
#626=ORIENTED_EDGE('',*,*,#627,.T.);
#627=EDGE_CURVE('',#622,#598,#628,.T.);
#628=CIRCLE('',#629,0.1);
#629=AXIS2_PLACEMENT_3D('',#630,#97,#45);
#630=CARTESIAN_POINT('',(1.74,-0.49,0.9));
#631=ORIENTED_EDGE('',*,*,#242,.F.);
#632=ORIENTED_EDGE('',*,*,#509,.F.);
#633=ORIENTED_EDGE('',*,*,#503,.T.);
#634=ORIENTED_EDGE('',*,*,#497,.F.);
#635=ORIENTED_EDGE('',*,*,#636,.F.);
#636=EDGE_CURVE('',#637,#492,#639,.T.);
#637=VERTEX_POINT('',#638);
#638=CARTESIAN_POINT('',(0.89,-0.49,0.));
#639=LINE('',#638,#39);
#640=ORIENTED_EDGE('',*,*,#641,.F.);
#641=EDGE_CURVE('',#615,#637,#642,.T.);
#642=LINE('',#625,#89);
#643=PLANE('',#644);
#644=AXIS2_PLACEMENT_3D('',#625,#97,#27);
#645=ADVANCED_FACE('',(#646),#686,.F.);
#646=FACE_BOUND('',#647,.F.);
#647=EDGE_LOOP('',(#648,#656,#663,#668,#671,#672,#673,#674,#675,#681));
#648=ORIENTED_EDGE('',*,*,#649,.F.);
#649=EDGE_CURVE('',#650,#652,#654,.T.);
#650=VERTEX_POINT('',#651);
#651=CARTESIAN_POINT('',(1.84,0.49,1.E-01));
#652=VERTEX_POINT('',#653);
#653=CARTESIAN_POINT('',(1.84,0.49,0.9));
#654=LINE('',#655,#39);
#655=CARTESIAN_POINT('',(1.84,0.49,0.));
#656=ORIENTED_EDGE('',*,*,#657,.T.);
#657=EDGE_CURVE('',#650,#658,#660,.T.);
#658=VERTEX_POINT('',#659);
#659=CARTESIAN_POINT('',(1.74,0.49,-1.387778780781E-17));
#660=CIRCLE('',#661,0.1);
#661=AXIS2_PLACEMENT_3D('',#662,#82,#45);
#662=CARTESIAN_POINT('',(1.74,0.49,1.E-01));
#663=ORIENTED_EDGE('',*,*,#664,.F.);
#664=EDGE_CURVE('',#665,#658,#667,.T.);
#665=VERTEX_POINT('',#666);
#666=CARTESIAN_POINT('',(0.89,0.49,0.));
#667=LINE('',#666,#104);
#668=ORIENTED_EDGE('',*,*,#669,.T.);
#669=EDGE_CURVE('',#665,#525,#670,.T.);
#670=LINE('',#666,#39);
#671=ORIENTED_EDGE('',*,*,#524,.F.);
#672=ORIENTED_EDGE('',*,*,#518,.T.);
#673=ORIENTED_EDGE('',*,*,#512,.F.);
#674=ORIENTED_EDGE('',*,*,#231,.F.);
#675=ORIENTED_EDGE('',*,*,#676,.T.);
#676=EDGE_CURVE('',#226,#677,#679,.T.);
#677=VERTEX_POINT('',#678);
#678=CARTESIAN_POINT('',(1.74,0.49,1.));
#679=LINE('',#680,#104);
#680=CARTESIAN_POINT('',(0.89,0.49,1.));
#681=ORIENTED_EDGE('',*,*,#682,.F.);
#682=EDGE_CURVE('',#652,#677,#683,.T.);
#683=CIRCLE('',#684,0.1);
#684=AXIS2_PLACEMENT_3D('',#685,#97,#45);
#685=CARTESIAN_POINT('',(1.74,0.49,0.9));
#686=PLANE('',#687);
#687=AXIS2_PLACEMENT_3D('',#666,#82,#14);
#688=ADVANCED_FACE('',(#689),#700,.T.);
#689=FACE_BOUND('',#690,.T.);
#690=EDGE_LOOP('',(#691,#696,#224,#675));
#691=ORIENTED_EDGE('',*,*,#692,.T.);
#692=EDGE_CURVE('',#677,#693,#695,.T.);
#693=VERTEX_POINT('',#694);
#694=CARTESIAN_POINT('',(1.74,1.29,1.));
#695=LINE('',#678,#81);
#696=ORIENTED_EDGE('',*,*,#697,.T.);
#697=EDGE_CURVE('',#693,#220,#698,.T.);
#698=LINE('',#699,#89);
#699=CARTESIAN_POINT('',(1.84,1.29,1.));
#700=PLANE('',#701);
#701=AXIS2_PLACEMENT_3D('',#702,#13,#27);
#702=CARTESIAN_POINT('',(1.365,0.89,1.));
#703=ADVANCED_FACE('',(#704),#738,.F.);
#704=FACE_BOUND('',#705,.F.);
#705=EDGE_LOOP('',(#706,#715,#721,#696,#726,#727,#728,#729,#730,#735));
#706=ORIENTED_EDGE('',*,*,#707,.F.);
#707=EDGE_CURVE('',#708,#710,#712,.T.);
#708=VERTEX_POINT('',#709);
#709=CARTESIAN_POINT('',(1.84,1.29,1.E-01));
#710=VERTEX_POINT('',#711);
#711=CARTESIAN_POINT('',(1.74,1.29,-1.387778780781E-17));
#712=CIRCLE('',#713,0.1);
#713=AXIS2_PLACEMENT_3D('',#714,#82,#45);
#714=CARTESIAN_POINT('',(1.74,1.29,1.E-01));
#715=ORIENTED_EDGE('',*,*,#716,.T.);
#716=EDGE_CURVE('',#708,#717,#719,.T.);
#717=VERTEX_POINT('',#718);
#718=CARTESIAN_POINT('',(1.84,1.29,0.9));
#719=LINE('',#720,#39);
#720=CARTESIAN_POINT('',(1.84,1.29,0.));
#721=ORIENTED_EDGE('',*,*,#722,.T.);
#722=EDGE_CURVE('',#717,#693,#723,.T.);
#723=CIRCLE('',#724,0.1);
#724=AXIS2_PLACEMENT_3D('',#725,#97,#45);
#725=CARTESIAN_POINT('',(1.74,1.29,0.9));
#726=ORIENTED_EDGE('',*,*,#219,.F.);
#727=ORIENTED_EDGE('',*,*,#546,.F.);
#728=ORIENTED_EDGE('',*,*,#540,.T.);
#729=ORIENTED_EDGE('',*,*,#534,.F.);
#730=ORIENTED_EDGE('',*,*,#731,.F.);
#731=EDGE_CURVE('',#732,#529,#734,.T.);
#732=VERTEX_POINT('',#733);
#733=CARTESIAN_POINT('',(0.89,1.29,0.));
#734=LINE('',#733,#39);
#735=ORIENTED_EDGE('',*,*,#736,.F.);
#736=EDGE_CURVE('',#710,#732,#737,.T.);
#737=LINE('',#720,#89);
#738=PLANE('',#739);
#739=AXIS2_PLACEMENT_3D('',#720,#97,#27);
#740=ADVANCED_FACE('',(#741),#781,.F.);
#741=FACE_BOUND('',#742,.F.);
#742=EDGE_LOOP('',(#743,#751,#758,#763,#766,#767,#768,#769,#770,#776));
#743=ORIENTED_EDGE('',*,*,#744,.F.);
#744=EDGE_CURVE('',#745,#747,#749,.T.);
#745=VERTEX_POINT('',#746);
#746=CARTESIAN_POINT('',(-1.84,1.29,1.E-01));
#747=VERTEX_POINT('',#748);
#748=CARTESIAN_POINT('',(-1.84,1.29,0.9));
#749=LINE('',#750,#39);
#750=CARTESIAN_POINT('',(-1.84,1.29,0.));
#751=ORIENTED_EDGE('',*,*,#752,.T.);
#752=EDGE_CURVE('',#745,#753,#755,.T.);
#753=VERTEX_POINT('',#754);
#754=CARTESIAN_POINT('',(-1.74,1.29,-1.387778780781E-17));
#755=CIRCLE('',#756,0.1);
#756=AXIS2_PLACEMENT_3D('',#757,#97,#13);
#757=CARTESIAN_POINT('',(-1.74,1.29,1.E-01));
#758=ORIENTED_EDGE('',*,*,#759,.F.);
#759=EDGE_CURVE('',#760,#753,#762,.T.);
#760=VERTEX_POINT('',#761);
#761=CARTESIAN_POINT('',(-0.89,1.29,0.));
#762=LINE('',#761,#89);
#763=ORIENTED_EDGE('',*,*,#764,.T.);
#764=EDGE_CURVE('',#760,#412,#765,.T.);
#765=LINE('',#761,#39);
#766=ORIENTED_EDGE('',*,*,#411,.F.);
#767=ORIENTED_EDGE('',*,*,#405,.T.);
#768=ORIENTED_EDGE('',*,*,#399,.F.);
#769=ORIENTED_EDGE('',*,*,#376,.F.);
#770=ORIENTED_EDGE('',*,*,#771,.T.);
#771=EDGE_CURVE('',#371,#772,#774,.T.);
#772=VERTEX_POINT('',#773);
#773=CARTESIAN_POINT('',(-1.74,1.29,1.));
#774=LINE('',#775,#89);
#775=CARTESIAN_POINT('',(-0.89,1.29,1.));
#776=ORIENTED_EDGE('',*,*,#777,.T.);
#777=EDGE_CURVE('',#772,#747,#778,.T.);
#778=CIRCLE('',#779,0.1);
#779=AXIS2_PLACEMENT_3D('',#780,#97,#13);
#780=CARTESIAN_POINT('',(-1.74,1.29,0.9));
#781=PLANE('',#782);
#782=AXIS2_PLACEMENT_3D('',#761,#97,#27);
#783=ADVANCED_FACE('',(#784),#795,.T.);
#784=FACE_BOUND('',#785,.T.);
#785=EDGE_LOOP('',(#369,#770,#786,#791));
#786=ORIENTED_EDGE('',*,*,#787,.T.);
#787=EDGE_CURVE('',#772,#788,#790,.T.);
#788=VERTEX_POINT('',#789);
#789=CARTESIAN_POINT('',(-1.74,0.49,1.));
#790=LINE('',#773,#96);
#791=ORIENTED_EDGE('',*,*,#792,.T.);
#792=EDGE_CURVE('',#788,#365,#793,.T.);
#793=LINE('',#794,#104);
#794=CARTESIAN_POINT('',(-1.84,0.49,1.));
#795=PLANE('',#796);
#796=AXIS2_PLACEMENT_3D('',#797,#13,#27);
#797=CARTESIAN_POINT('',(-1.365,0.89,1.));
#798=ADVANCED_FACE('',(#799),#833,.F.);
#799=FACE_BOUND('',#800,.F.);
#800=EDGE_LOOP('',(#801,#810,#816,#791,#821,#822,#823,#824,#825,#830));
#801=ORIENTED_EDGE('',*,*,#802,.F.);
#802=EDGE_CURVE('',#803,#805,#807,.T.);
#803=VERTEX_POINT('',#804);
#804=CARTESIAN_POINT('',(-1.84,0.49,1.E-01));
#805=VERTEX_POINT('',#806);
#806=CARTESIAN_POINT('',(-1.74,0.49,-1.387778780781E-17));
#807=CIRCLE('',#808,0.1);
#808=AXIS2_PLACEMENT_3D('',#809,#97,#13);
#809=CARTESIAN_POINT('',(-1.74,0.49,1.E-01));
#810=ORIENTED_EDGE('',*,*,#811,.T.);
#811=EDGE_CURVE('',#803,#812,#814,.T.);
#812=VERTEX_POINT('',#813);
#813=CARTESIAN_POINT('',(-1.84,0.49,0.9));
#814=LINE('',#815,#39);
#815=CARTESIAN_POINT('',(-1.84,0.49,0.));
#816=ORIENTED_EDGE('',*,*,#817,.F.);
#817=EDGE_CURVE('',#788,#812,#818,.T.);
#818=CIRCLE('',#819,0.1);
#819=AXIS2_PLACEMENT_3D('',#820,#97,#13);
#820=CARTESIAN_POINT('',(-1.74,0.49,0.9));
#821=ORIENTED_EDGE('',*,*,#364,.F.);
#822=ORIENTED_EDGE('',*,*,#433,.F.);
#823=ORIENTED_EDGE('',*,*,#427,.T.);
#824=ORIENTED_EDGE('',*,*,#421,.F.);
#825=ORIENTED_EDGE('',*,*,#826,.F.);
#826=EDGE_CURVE('',#827,#416,#829,.T.);
#827=VERTEX_POINT('',#828);
#828=CARTESIAN_POINT('',(-0.89,0.49,0.));
#829=LINE('',#828,#39);
#830=ORIENTED_EDGE('',*,*,#831,.F.);
#831=EDGE_CURVE('',#805,#827,#832,.T.);
#832=LINE('',#815,#104);
#833=PLANE('',#834);
#834=AXIS2_PLACEMENT_3D('',#815,#82,#14);
#835=ADVANCED_FACE('',(#836),#876,.F.);
#836=FACE_BOUND('',#837,.F.);
#837=EDGE_LOOP('',(#838,#846,#853,#858,#861,#862,#863,#864,#865,#871));
#838=ORIENTED_EDGE('',*,*,#839,.F.);
#839=EDGE_CURVE('',#840,#842,#844,.T.);
#840=VERTEX_POINT('',#841);
#841=CARTESIAN_POINT('',(-1.84,-0.49,1.E-01));
#842=VERTEX_POINT('',#843);
#843=CARTESIAN_POINT('',(-1.84,-0.49,0.9));
#844=LINE('',#845,#39);
#845=CARTESIAN_POINT('',(-1.84,-0.49,0.));
#846=ORIENTED_EDGE('',*,*,#847,.T.);
#847=EDGE_CURVE('',#840,#848,#850,.T.);
#848=VERTEX_POINT('',#849);
#849=CARTESIAN_POINT('',(-1.74,-0.49,-1.387778780781E-17));
#850=CIRCLE('',#851,0.1);
#851=AXIS2_PLACEMENT_3D('',#852,#97,#13);
#852=CARTESIAN_POINT('',(-1.74,-0.49,1.E-01));
#853=ORIENTED_EDGE('',*,*,#854,.F.);
#854=EDGE_CURVE('',#855,#848,#857,.T.);
#855=VERTEX_POINT('',#856);
#856=CARTESIAN_POINT('',(-0.89,-0.49,0.));
#857=LINE('',#856,#89);
#858=ORIENTED_EDGE('',*,*,#859,.T.);
#859=EDGE_CURVE('',#855,#449,#860,.T.);
#860=LINE('',#856,#39);
#861=ORIENTED_EDGE('',*,*,#448,.F.);
#862=ORIENTED_EDGE('',*,*,#442,.T.);
#863=ORIENTED_EDGE('',*,*,#436,.F.);
#864=ORIENTED_EDGE('',*,*,#354,.F.);
#865=ORIENTED_EDGE('',*,*,#866,.T.);
#866=EDGE_CURVE('',#349,#867,#869,.T.);
#867=VERTEX_POINT('',#868);
#868=CARTESIAN_POINT('',(-1.74,-0.49,1.));
#869=LINE('',#870,#89);
#870=CARTESIAN_POINT('',(-0.89,-0.49,1.));
#871=ORIENTED_EDGE('',*,*,#872,.T.);
#872=EDGE_CURVE('',#867,#842,#873,.T.);
#873=CIRCLE('',#874,0.1);
#874=AXIS2_PLACEMENT_3D('',#875,#97,#13);
#875=CARTESIAN_POINT('',(-1.74,-0.49,0.9));
#876=PLANE('',#877);
#877=AXIS2_PLACEMENT_3D('',#856,#97,#27);
#878=ADVANCED_FACE('',(#879),#890,.T.);
#879=FACE_BOUND('',#880,.T.);
#880=EDGE_LOOP('',(#347,#865,#881,#886));
#881=ORIENTED_EDGE('',*,*,#882,.T.);
#882=EDGE_CURVE('',#867,#883,#885,.T.);
#883=VERTEX_POINT('',#884);
#884=CARTESIAN_POINT('',(-1.74,-1.29,1.));
#885=LINE('',#868,#96);
#886=ORIENTED_EDGE('',*,*,#887,.T.);
#887=EDGE_CURVE('',#883,#343,#888,.T.);
#888=LINE('',#889,#104);
#889=CARTESIAN_POINT('',(-1.84,-1.29,1.));
#890=PLANE('',#891);
#891=AXIS2_PLACEMENT_3D('',#892,#13,#27);
#892=CARTESIAN_POINT('',(-1.365,-0.89,1.));
#893=ADVANCED_FACE('',(#894),#928,.F.);
#894=FACE_BOUND('',#895,.F.);
#895=EDGE_LOOP('',(#896,#905,#911,#886,#916,#917,#918,#919,#920,#925));
#896=ORIENTED_EDGE('',*,*,#897,.F.);
#897=EDGE_CURVE('',#898,#900,#902,.T.);
#898=VERTEX_POINT('',#899);
#899=CARTESIAN_POINT('',(-1.84,-1.29,1.E-01));
#900=VERTEX_POINT('',#901);
#901=CARTESIAN_POINT('',(-1.74,-1.29,-1.387778780781E-17));
#902=CIRCLE('',#903,0.1);
#903=AXIS2_PLACEMENT_3D('',#904,#97,#13);
#904=CARTESIAN_POINT('',(-1.74,-1.29,1.E-01));
#905=ORIENTED_EDGE('',*,*,#906,.T.);
#906=EDGE_CURVE('',#898,#907,#909,.T.);
#907=VERTEX_POINT('',#908);
#908=CARTESIAN_POINT('',(-1.84,-1.29,0.9));
#909=LINE('',#910,#39);
#910=CARTESIAN_POINT('',(-1.84,-1.29,0.));
#911=ORIENTED_EDGE('',*,*,#912,.F.);
#912=EDGE_CURVE('',#883,#907,#913,.T.);
#913=CIRCLE('',#914,0.1);
#914=AXIS2_PLACEMENT_3D('',#915,#97,#13);
#915=CARTESIAN_POINT('',(-1.74,-1.29,0.9));
#916=ORIENTED_EDGE('',*,*,#342,.F.);
#917=ORIENTED_EDGE('',*,*,#470,.F.);
#918=ORIENTED_EDGE('',*,*,#464,.T.);
#919=ORIENTED_EDGE('',*,*,#458,.F.);
#920=ORIENTED_EDGE('',*,*,#921,.F.);
#921=EDGE_CURVE('',#922,#453,#924,.T.);
#922=VERTEX_POINT('',#923);
#923=CARTESIAN_POINT('',(-0.89,-1.29,0.));
#924=LINE('',#923,#39);
#925=ORIENTED_EDGE('',*,*,#926,.F.);
#926=EDGE_CURVE('',#900,#922,#927,.T.);
#927=LINE('',#910,#104);
#928=PLANE('',#929);
#929=AXIS2_PLACEMENT_3D('',#910,#82,#14);
#930=ADVANCED_FACE('',(#931),#939,.F.);
#931=FACE_BOUND('',#932,.F.);
#932=EDGE_LOOP('',(#933,#936,#937,#938));
#933=ORIENTED_EDGE('',*,*,#934,.F.);
#934=EDGE_CURVE('',#732,#665,#935,.T.);
#935=LINE('',#733,#96);
#936=ORIENTED_EDGE('',*,*,#731,.T.);
#937=ORIENTED_EDGE('',*,*,#528,.F.);
#938=ORIENTED_EDGE('',*,*,#669,.F.);
#939=PLANE('',#940);
#940=AXIS2_PLACEMENT_3D('',#733,#14,#97);
#941=ADVANCED_FACE('',(#942),#950,.F.);
#942=FACE_BOUND('',#943,.F.);
#943=EDGE_LOOP('',(#944,#947,#948,#949));
#944=ORIENTED_EDGE('',*,*,#945,.F.);
#945=EDGE_CURVE('',#637,#570,#946,.T.);
#946=LINE('',#638,#96);
#947=ORIENTED_EDGE('',*,*,#636,.T.);
#948=ORIENTED_EDGE('',*,*,#491,.F.);
#949=ORIENTED_EDGE('',*,*,#574,.F.);
#950=PLANE('',#951);
#951=AXIS2_PLACEMENT_3D('',#638,#14,#97);
#952=ADVANCED_FACE('',(#953),#961,.F.);
#953=FACE_BOUND('',#954,.F.);
#954=EDGE_LOOP('',(#955,#958,#959,#960));
#955=ORIENTED_EDGE('',*,*,#956,.F.);
#956=EDGE_CURVE('',#922,#855,#957,.T.);
#957=LINE('',#923,#81);
#958=ORIENTED_EDGE('',*,*,#921,.T.);
#959=ORIENTED_EDGE('',*,*,#452,.F.);
#960=ORIENTED_EDGE('',*,*,#859,.F.);
#961=PLANE('',#962);
#962=AXIS2_PLACEMENT_3D('',#923,#27,#82);
#963=ADVANCED_FACE('',(#964),#972,.F.);
#964=FACE_BOUND('',#965,.F.);
#965=EDGE_LOOP('',(#966,#969,#970,#971));
#966=ORIENTED_EDGE('',*,*,#967,.F.);
#967=EDGE_CURVE('',#827,#760,#968,.T.);
#968=LINE('',#828,#81);
#969=ORIENTED_EDGE('',*,*,#826,.T.);
#970=ORIENTED_EDGE('',*,*,#415,.F.);
#971=ORIENTED_EDGE('',*,*,#764,.F.);
#972=PLANE('',#973);
#973=AXIS2_PLACEMENT_3D('',#828,#27,#82);
#974=ADVANCED_FACE('',(#975),#985,.F.);
#975=FACE_BOUND('',#976,.F.);
#976=EDGE_LOOP('',(#977,#978,#981,#982));
#977=ORIENTED_EDGE('',*,*,#554,.T.);
#978=ORIENTED_EDGE('',*,*,#979,.T.);
#979=EDGE_CURVE('',#557,#622,#980,.T.);
#980=LINE('',#558,#81);
#981=ORIENTED_EDGE('',*,*,#621,.F.);
#982=ORIENTED_EDGE('',*,*,#983,.F.);
#983=EDGE_CURVE('',#555,#613,#984,.T.);
#984=LINE('',#556,#81);
#985=PLANE('',#986);
#986=AXIS2_PLACEMENT_3D('',#560,#27,#82);
#987=ADVANCED_FACE('',(#988),#993,.T.);
#988=FACE_BOUND('',#989,.F.);
#989=EDGE_LOOP('',(#990,#596,#991,#992));
#990=ORIENTED_EDGE('',*,*,#587,.T.);
#991=ORIENTED_EDGE('',*,*,#627,.F.);
#992=ORIENTED_EDGE('',*,*,#979,.F.);
#993=CYLINDRICAL_SURFACE('',#994,0.1);
#994=AXIS2_PLACEMENT_3D('',#590,#82,#14);
#995=ADVANCED_FACE('',(#996),#1004,.F.);
#996=FACE_BOUND('',#997,.F.);
#997=EDGE_LOOP('',(#998,#999,#1000,#1001));
#998=ORIENTED_EDGE('',*,*,#641,.T.);
#999=ORIENTED_EDGE('',*,*,#945,.T.);
#1000=ORIENTED_EDGE('',*,*,#569,.T.);
#1001=ORIENTED_EDGE('',*,*,#1002,.T.);
#1002=EDGE_CURVE('',#563,#615,#1003,.T.);
#1003=LINE('',#564,#81);
#1004=PLANE('',#1005);
#1005=AXIS2_PLACEMENT_3D('',#1006,#13,#27);
#1006=CARTESIAN_POINT('',(1.365,-0.89,0.));
#1007=ADVANCED_FACE('',(#1008),#1010,.T.);
#1008=FACE_BOUND('',#1009,.T.);
#1009=EDGE_LOOP('',(#561,#1001,#611,#982));
#1010=CYLINDRICAL_SURFACE('',#1011,0.1);
#1011=AXIS2_PLACEMENT_3D('',#567,#82,#14);
#1012=ADVANCED_FACE('',(#1013),#1023,.F.);
#1013=FACE_BOUND('',#1014,.F.);
#1014=EDGE_LOOP('',(#1015,#1016,#1019,#1020));
#1015=ORIENTED_EDGE('',*,*,#649,.T.);
#1016=ORIENTED_EDGE('',*,*,#1017,.T.);
#1017=EDGE_CURVE('',#652,#717,#1018,.T.);
#1018=LINE('',#653,#81);
#1019=ORIENTED_EDGE('',*,*,#716,.F.);
#1020=ORIENTED_EDGE('',*,*,#1021,.F.);
#1021=EDGE_CURVE('',#650,#708,#1022,.T.);
#1022=LINE('',#651,#81);
#1023=PLANE('',#1024);
#1024=AXIS2_PLACEMENT_3D('',#655,#27,#82);
#1025=ADVANCED_FACE('',(#1026),#1031,.T.);
#1026=FACE_BOUND('',#1027,.F.);
#1027=EDGE_LOOP('',(#1028,#691,#1029,#1030));
#1028=ORIENTED_EDGE('',*,*,#682,.T.);
#1029=ORIENTED_EDGE('',*,*,#722,.F.);
#1030=ORIENTED_EDGE('',*,*,#1017,.F.);
#1031=CYLINDRICAL_SURFACE('',#1032,0.1);
#1032=AXIS2_PLACEMENT_3D('',#685,#82,#14);
#1033=ADVANCED_FACE('',(#1034),#1042,.F.);
#1034=FACE_BOUND('',#1035,.F.);
#1035=EDGE_LOOP('',(#1036,#1037,#1038,#1039));
#1036=ORIENTED_EDGE('',*,*,#736,.T.);
#1037=ORIENTED_EDGE('',*,*,#934,.T.);
#1038=ORIENTED_EDGE('',*,*,#664,.T.);
#1039=ORIENTED_EDGE('',*,*,#1040,.T.);
#1040=EDGE_CURVE('',#658,#710,#1041,.T.);
#1041=LINE('',#659,#81);
#1042=PLANE('',#1043);
#1043=AXIS2_PLACEMENT_3D('',#1044,#13,#27);
#1044=CARTESIAN_POINT('',(1.365,0.89,0.));
#1045=ADVANCED_FACE('',(#1046),#1048,.T.);
#1046=FACE_BOUND('',#1047,.T.);
#1047=EDGE_LOOP('',(#656,#1039,#706,#1020));
#1048=CYLINDRICAL_SURFACE('',#1049,0.1);
#1049=AXIS2_PLACEMENT_3D('',#662,#82,#14);
#1050=ADVANCED_FACE('',(#1051),#1061,.F.);
#1051=FACE_BOUND('',#1052,.F.);
#1052=EDGE_LOOP('',(#1053,#1054,#1057,#1058));
#1053=ORIENTED_EDGE('',*,*,#744,.T.);
#1054=ORIENTED_EDGE('',*,*,#1055,.T.);
#1055=EDGE_CURVE('',#747,#812,#1056,.T.);
#1056=LINE('',#748,#96);
#1057=ORIENTED_EDGE('',*,*,#811,.F.);
#1058=ORIENTED_EDGE('',*,*,#1059,.F.);
#1059=EDGE_CURVE('',#745,#803,#1060,.T.);
#1060=LINE('',#746,#96);
#1061=PLANE('',#1062);
#1062=AXIS2_PLACEMENT_3D('',#750,#14,#97);
#1063=ADVANCED_FACE('',(#1064),#1067,.T.);
#1064=FACE_BOUND('',#1065,.T.);
#1065=EDGE_LOOP('',(#776,#1054,#816,#1066));
#1066=ORIENTED_EDGE('',*,*,#787,.F.);
#1067=CYLINDRICAL_SURFACE('',#779,0.1);
#1068=ADVANCED_FACE('',(#1069),#1077,.F.);
#1069=FACE_BOUND('',#1070,.F.);
#1070=EDGE_LOOP('',(#1071,#1072,#1075,#1076));
#1071=ORIENTED_EDGE('',*,*,#759,.T.);
#1072=ORIENTED_EDGE('',*,*,#1073,.T.);
#1073=EDGE_CURVE('',#753,#805,#1074,.T.);
#1074=LINE('',#754,#96);
#1075=ORIENTED_EDGE('',*,*,#831,.T.);
#1076=ORIENTED_EDGE('',*,*,#967,.T.);
#1077=PLANE('',#1078);
#1078=AXIS2_PLACEMENT_3D('',#1079,#13,#27);
#1079=CARTESIAN_POINT('',(-1.365,0.89,0.));
#1080=ADVANCED_FACE('',(#1081),#1083,.T.);
#1081=FACE_BOUND('',#1082,.T.);
#1082=EDGE_LOOP('',(#751,#1072,#801,#1058));
#1083=CYLINDRICAL_SURFACE('',#1084,0.1);
#1084=AXIS2_PLACEMENT_3D('',#757,#97,#27);
#1085=ADVANCED_FACE('',(#1086),#1096,.F.);
#1086=FACE_BOUND('',#1087,.F.);
#1087=EDGE_LOOP('',(#1088,#1089,#1092,#1093));
#1088=ORIENTED_EDGE('',*,*,#839,.T.);
#1089=ORIENTED_EDGE('',*,*,#1090,.T.);
#1090=EDGE_CURVE('',#842,#907,#1091,.T.);
#1091=LINE('',#843,#96);
#1092=ORIENTED_EDGE('',*,*,#906,.F.);
#1093=ORIENTED_EDGE('',*,*,#1094,.F.);
#1094=EDGE_CURVE('',#840,#898,#1095,.T.);
#1095=LINE('',#841,#96);
#1096=PLANE('',#1097);
#1097=AXIS2_PLACEMENT_3D('',#845,#14,#97);
#1098=ADVANCED_FACE('',(#1099),#1102,.T.);
#1099=FACE_BOUND('',#1100,.T.);
#1100=EDGE_LOOP('',(#871,#1089,#911,#1101));
#1101=ORIENTED_EDGE('',*,*,#882,.F.);
#1102=CYLINDRICAL_SURFACE('',#874,0.1);
#1103=ADVANCED_FACE('',(#1104),#1112,.F.);
#1104=FACE_BOUND('',#1105,.F.);
#1105=EDGE_LOOP('',(#1106,#1107,#1110,#1111));
#1106=ORIENTED_EDGE('',*,*,#854,.T.);
#1107=ORIENTED_EDGE('',*,*,#1108,.T.);
#1108=EDGE_CURVE('',#848,#900,#1109,.T.);
#1109=LINE('',#849,#96);
#1110=ORIENTED_EDGE('',*,*,#926,.T.);
#1111=ORIENTED_EDGE('',*,*,#956,.T.);
#1112=PLANE('',#1113);
#1113=AXIS2_PLACEMENT_3D('',#1114,#13,#27);
#1114=CARTESIAN_POINT('',(-1.365,-0.89,0.));
#1115=ADVANCED_FACE('',(#1116),#1118,.T.);
#1116=FACE_BOUND('',#1117,.T.);
#1117=EDGE_LOOP('',(#846,#1107,#896,#1093));
#1118=CYLINDRICAL_SURFACE('',#1119,0.1);
#1119=AXIS2_PLACEMENT_3D('',#852,#97,#27);
#1120=( GEOMETRIC_REPRESENTATION_CONTEXT(3) GLOBAL_UNCERTAINTY_ASSIGNED_CONTEXT((#1124)) GLOBAL_UNIT_ASSIGNED_CONTEXT((#1121,#1122,#1123)) REPRESENTATION_CONTEXT('Context #1','3D Context with UNIT and UNCERTAINTY') );
#1121=( LENGTH_UNIT() NAMED_UNIT(*) SI_UNIT(.MILLI.,.METRE.) );
#1122=( NAMED_UNIT(*) PLANE_ANGLE_UNIT() SI_UNIT($,.RADIAN.) );
#1123=( NAMED_UNIT(*) SI_UNIT($,.STERADIAN.) SOLID_ANGLE_UNIT() );
#1124=UNCERTAINTY_MEASURE_WITH_UNIT(LENGTH_MEASURE(2.E-07),#1121,'distance_accuracy_value','confusion accuracy');
#1125=MECHANICAL_DESIGN_GEOMETRIC_PRESENTATION_REPRESENTATION('',(#1126,#1136,#1145,#1146,#1147,#1148,#1149,#1150,#1151,#1152,#1153,#1162,#1163,#1164,#1165,#1166,#1167,#1168,#1169,#1170,#1171,#1172,#1173,#1174,#1175,#1176,#1177,#1178,#1179,#1180,#1181,#1182,#1183,#1184,#1185,#1186,#1187,#1188,#1189,#1190,#1191,#1192,#1193,#1194,#1195,#1196,#1197,#1198,#1199,#1200,#1201,#1202,#1203,#1204,#1205,#1206,#1207,#1208,#1209,#1210,#1211,#1212,#1213,#1214,#1215,#1216,#1217,#1218,#1219,#1220,#1221,#1222,#1223,#1224,#1225,#1226,#1227,#1228,#1229,#1230),#1120);
#1126=STYLED_ITEM('color',(#1127),#17);
#1127=PRESENTATION_STYLE_ASSIGNMENT((#1128,#1134));
#1128=SURFACE_STYLE_USAGE(.BOTH.,#1129);
#1129=SURFACE_SIDE_STYLE('',(#1130));
#1130=SURFACE_STYLE_FILL_AREA(#1131);
#1131=FILL_AREA_STYLE('',(#1132));
#1132=FILL_AREA_STYLE_COLOUR('',#1133);
#1133=COLOUR_RGB('',0.137000000793,0.401999991578,0.726999997272);
#1134=CURVE_STYLE('',#1135,POSITIVE_LENGTH_MEASURE(0.1),#1133);
#1135=DRAUGHTING_PRE_DEFINED_CURVE_FONT('continuous');
#1136=STYLED_ITEM('color',(#1137),#29);
#1137=PRESENTATION_STYLE_ASSIGNMENT((#1138,#1144));
#1138=SURFACE_STYLE_USAGE(.BOTH.,#1139);
#1139=SURFACE_SIDE_STYLE('',(#1140));
#1140=SURFACE_STYLE_FILL_AREA(#1141);
#1141=FILL_AREA_STYLE('',(#1142));
#1142=FILL_AREA_STYLE_COLOUR('',#1143);
#1143=COLOUR_RGB('',0.894999996726,0.890999991539,0.812999995914);
#1144=CURVE_STYLE('',#1135,POSITIVE_LENGTH_MEASURE(0.1),#1143);
#1145=STYLED_ITEM('color',(#1137),#50);
#1146=STYLED_ITEM('color',(#1137),#68);
#1147=STYLED_ITEM('color',(#1137),#113);
#1148=STYLED_ITEM('color',(#1137),#139);
#1149=STYLED_ITEM('color',(#1137),#158);
#1150=STYLED_ITEM('color',(#1137),#175);
#1151=STYLED_ITEM('color',(#1137),#193);
#1152=STYLED_ITEM('color',(#1137),#203);
#1153=OVER_RIDING_STYLED_ITEM('overriding color',(#1154),#254,#1152);
#1154=PRESENTATION_STYLE_ASSIGNMENT((#1155,#1161));
#1155=SURFACE_STYLE_USAGE(.BOTH.,#1156);
#1156=SURFACE_SIDE_STYLE('',(#1157));
#1157=SURFACE_STYLE_FILL_AREA(#1158);
#1158=FILL_AREA_STYLE('',(#1159));
#1159=FILL_AREA_STYLE_COLOUR('',#1160);
#1160=COLOUR_RGB('',0.823999987314,0.819999987296,0.781000009244);
#1161=CURVE_STYLE('',#1135,POSITIVE_LENGTH_MEASURE(0.1),#1160);
#1162=OVER_RIDING_STYLED_ITEM('overriding color',(#1154),#248,#1152);
#1163=OVER_RIDING_STYLED_ITEM('overriding color',(#1154),#242,#1152);
#1164=OVER_RIDING_STYLED_ITEM('overriding color',(#1154),#231,#1152);
#1165=OVER_RIDING_STYLED_ITEM('overriding color',(#1154),#225,#1152);
#1166=OVER_RIDING_STYLED_ITEM('overriding color',(#1154),#219,#1152);
#1167=STYLED_ITEM('color',(#1137),#279);
#1168=STYLED_ITEM('color',(#1137),#297);
#1169=STYLED_ITEM('color',(#1137),#312);
#1170=STYLED_ITEM('color',(#1137),#330);
#1171=OVER_RIDING_STYLED_ITEM('overriding color',(#1154),#376,#1170);
#1172=OVER_RIDING_STYLED_ITEM('overriding color',(#1154),#370,#1170);
#1173=OVER_RIDING_STYLED_ITEM('overriding color',(#1154),#364,#1170);
#1174=OVER_RIDING_STYLED_ITEM('overriding color',(#1154),#354,#1170);
#1175=OVER_RIDING_STYLED_ITEM('overriding color',(#1154),#348,#1170);
#1176=OVER_RIDING_STYLED_ITEM('overriding color',(#1154),#342,#1170);
#1177=STYLED_ITEM('color',(#1137),#385);
#1178=STYLED_ITEM('color',(#1137),#392);
#1179=OVER_RIDING_STYLED_ITEM('overriding color',(#1154),#546,#1178);
#1180=OVER_RIDING_STYLED_ITEM('overriding color',(#1154),#534,#1178);
#1181=OVER_RIDING_STYLED_ITEM('overriding color',(#1154),#528,#1178);
#1182=OVER_RIDING_STYLED_ITEM('overriding color',(#1154),#524,#1178);
#1183=OVER_RIDING_STYLED_ITEM('overriding color',(#1154),#512,#1178);
#1184=OVER_RIDING_STYLED_ITEM('overriding color',(#1154),#509,#1178);
#1185=OVER_RIDING_STYLED_ITEM('overriding color',(#1154),#497,#1178);
#1186=OVER_RIDING_STYLED_ITEM('overriding color',(#1154),#491,#1178);
#1187=OVER_RIDING_STYLED_ITEM('overriding color',(#1154),#487,#1178);
#1188=OVER_RIDING_STYLED_ITEM('overriding color',(#1154),#475,#1178);
#1189=OVER_RIDING_STYLED_ITEM('overriding color',(#1154),#470,#1178);
#1190=OVER_RIDING_STYLED_ITEM('overriding color',(#1154),#458,#1178);
#1191=OVER_RIDING_STYLED_ITEM('overriding color',(#1154),#452,#1178);
#1192=OVER_RIDING_STYLED_ITEM('overriding color',(#1154),#448,#1178);
#1193=OVER_RIDING_STYLED_ITEM('overriding color',(#1154),#436,#1178);
#1194=OVER_RIDING_STYLED_ITEM('overriding color',(#1154),#433,#1178);
#1195=OVER_RIDING_STYLED_ITEM('overriding color',(#1154),#421,#1178);
#1196=OVER_RIDING_STYLED_ITEM('overriding color',(#1154),#415,#1178);
#1197=OVER_RIDING_STYLED_ITEM('overriding color',(#1154),#411,#1178);
#1198=OVER_RIDING_STYLED_ITEM('overriding color',(#1154),#399,#1178);
#1199=STYLED_ITEM('color',(#1154),#550);
#1200=STYLED_ITEM('color',(#1154),#593);
#1201=STYLED_ITEM('color',(#1154),#608);
#1202=STYLED_ITEM('color',(#1154),#645);
#1203=STYLED_ITEM('color',(#1154),#688);
#1204=STYLED_ITEM('color',(#1154),#703);
#1205=STYLED_ITEM('color',(#1154),#740);
#1206=STYLED_ITEM('color',(#1154),#783);
#1207=STYLED_ITEM('color',(#1154),#798);
#1208=STYLED_ITEM('color',(#1154),#835);
#1209=STYLED_ITEM('color',(#1154),#878);
#1210=STYLED_ITEM('color',(#1154),#893);
#1211=STYLED_ITEM('color',(#1154),#930);
#1212=STYLED_ITEM('color',(#1154),#941);
#1213=STYLED_ITEM('color',(#1154),#952);
#1214=STYLED_ITEM('color',(#1154),#963);
#1215=STYLED_ITEM('color',(#1154),#974);
#1216=STYLED_ITEM('color',(#1154),#987);
#1217=STYLED_ITEM('color',(#1154),#995);
#1218=STYLED_ITEM('color',(#1154),#1007);
#1219=STYLED_ITEM('color',(#1154),#1012);
#1220=STYLED_ITEM('color',(#1154),#1025);
#1221=STYLED_ITEM('color',(#1154),#1033);
#1222=STYLED_ITEM('color',(#1154),#1045);
#1223=STYLED_ITEM('color',(#1154),#1050);
#1224=STYLED_ITEM('color',(#1154),#1063);
#1225=STYLED_ITEM('color',(#1154),#1068);
#1226=STYLED_ITEM('color',(#1154),#1080);
#1227=STYLED_ITEM('color',(#1154),#1085);
#1228=STYLED_ITEM('color',(#1154),#1098);
#1229=STYLED_ITEM('color',(#1154),#1103);
#1230=STYLED_ITEM('color',(#1154),#1115);
ENDSEC;
END-ISO-10303-21;
