M48
; DRILL file KiCad 10.0.6 date 2026-09-29T14:32:00
; FORMAT={-:-/ absolute / metric / decimal}
; #@! TF.CreationDate,2026-09-29T14:32:00+01:00
; #@! TF.GenerationSoftware,Kicad,Pcbnew,10.0.6
; #@! TF.FileFunction,MixedPlating,1,4
FMAT,2
METRIC
; #@! TA.AperFunction,Plated,PTH,ComponentDrill
T1C0.200
; #@! TA.AperFunction,Plated,PTH,ViaDrill
T2C0.250
; #@! TA.AperFunction,Plated,PTH,ViaDrill
T3C0.300
; #@! TA.AperFunction,Plated,PTH,ViaDrill
T4C0.350
; #@! TA.AperFunction,Plated,PTH,ViaDrill
T5C0.400
; #@! TA.AperFunction,Plated,PTH,ComponentDrill
T6C0.500
; #@! TA.AperFunction,Plated,PTH,ComponentDrill
T7C0.600
; #@! TA.AperFunction,Plated,PTH,ComponentDrill
T8C0.800
; #@! TA.AperFunction,Plated,PTH,ComponentDrill
T9C1.000
; #@! TA.AperFunction,Plated,PTH,ComponentDrill
T10C1.500
; #@! TA.AperFunction,Plated,PTH,ComponentDrill
T11C1.900
; #@! TA.AperFunction,Plated,PTH,ComponentDrill
T12C3.200
; #@! TA.AperFunction,NonPlated,NPTH,ComponentDrill
T13C0.650
%
G90
G05
T1
X27.9Y-18.9
X27.9Y-20.0
X27.9Y-21.1
X29.0Y-18.9
X29.0Y-20.0
X29.0Y-21.1
X30.1Y-18.9
X30.1Y-20.0
X30.1Y-21.1
X47.1Y-25.76
X47.1Y-27.16
X47.8Y-25.06
X47.8Y-26.46
X47.8Y-27.86
X48.5Y-25.76
X48.5Y-27.16
X49.2Y-25.06
X49.2Y-26.46
X49.2Y-27.86
X49.9Y-25.76
X49.9Y-27.16
T2
X11.175Y-4.0
X11.175Y-6.5
X18.25Y-8.8
X18.55Y-17.6
X19.25Y-1.65
X19.75Y-1.05
X21.25Y-9.6
X22.225Y-17.6
X26.1Y-6.375
X26.1Y-16.5
X28.25Y-17.0
X28.75Y-8.025
X28.75Y-22.8
X31.8Y-6.375
X36.8Y-3.8
X36.8Y-21.28
X41.25Y-33.98
X41.5Y-35.25
X57.23Y-34.38
X65.2Y-10.5
T3
X19.27Y-40.957
X20.45Y-12.699
X21.487Y-41.397
X21.693Y-44.178
X21.931Y-42.041
X22.48Y-33.117
X22.873Y-31.657
X23.775Y-12.45
X24.275Y-29.554
X24.432Y-32.509
X24.479Y-39.629
X25.045Y-40.28
X25.119Y-38.192
X25.354Y-43.274
X25.732Y-38.642
X25.887Y-41.724
X26.853Y-40.106
X27.64Y-36.25
X29.225Y-9.5
X29.263Y-45.939
X29.427Y-31.004
X29.609Y-42.934
X30.073Y-39.316
X30.195Y-41.746
X30.98Y-13.5
X31.09Y-21.47
X31.594Y-48.911
X31.596Y-54.283
X32.367Y-39.011
X32.525Y-9.5
X34.529Y-43.851
X34.775Y-29.058
X34.88Y-38.688
X35.717Y-21.887
X35.951Y-18.043
X37.16Y-33.449
X37.432Y-51.098
X40.327Y-63.763
X42.471Y-18.521
X42.494Y-42.672
X43.053Y-32.982
X43.313Y-34.947
X43.934Y-42.924
X48.956Y-59.96
X51.008Y-63.763
X51.72Y-41.921
X54.007Y-34.392
X56.947Y-22.177
X56.958Y-40.823
X57.429Y-30.525
X57.529Y-18.521
X60.66Y-37.374
X62.376Y-41.31
X62.42Y-12.0
X63.44Y-40.625
X64.35Y-6.0
X65.507Y-22.28
X65.536Y-27.711
X65.71Y-18.694
X67.5Y-6.0
X69.041Y-41.31
X69.536Y-36.982
X69.62Y-56.719
X69.915Y-37.675
X69.925Y-42.216
X69.927Y-34.353
X70.6Y-6.0
X72.685Y-61.741
X73.008Y-41.698
X73.2Y-10.0
X73.703Y-30.134
X75.391Y-13.266
X75.541Y-22.784
X75.663Y-36.332
X75.706Y-26.988
X76.295Y-59.88
X76.783Y-55.335
X77.1Y-16.0
X77.564Y-28.851
X77.952Y-54.852
X78.21Y-34.678
X78.991Y-34.392
X79.967Y-34.734
X80.945Y-42.6
X85.687Y-30.845
X85.691Y-28.118
X85.701Y-25.148
X85.816Y-22.866
T4
X30.301Y-23.932
X35.201Y-24.637
X47.458Y-61.833
X60.977Y-51.829
X68.416Y-61.741
X72.431Y-19.256
X72.486Y-60.156
X78.035Y-56.717
X78.139Y-60.491
T5
X13.8Y-5.25
X15.68Y-3.8
X24.32Y-3.8
X38.6Y-5.5
X65.1Y-6.0
T6
X3.6Y-6.0
X3.6Y-74.0
X4.303Y-4.303
X4.303Y-7.697
X4.303Y-72.303
X4.303Y-75.697
X6.0Y-3.6
X6.0Y-8.4
X6.0Y-71.6
X6.0Y-76.4
X7.697Y-4.303
X7.697Y-7.697
X7.697Y-72.303
X7.697Y-75.697
X8.4Y-6.0
X8.4Y-74.0
X91.6Y-6.0
X91.6Y-74.0
X92.303Y-4.303
X92.303Y-7.697
X92.303Y-72.303
X92.303Y-75.697
X94.0Y-3.6
X94.0Y-8.4
X94.0Y-71.6
X94.0Y-76.4
X95.697Y-4.303
X95.697Y-7.697
X95.697Y-72.303
X95.697Y-75.697
X96.4Y-6.0
X96.4Y-74.0
T8
X14.0Y-67.0
X14.0Y-69.0
X14.0Y-71.0
X24.0Y-50.0
X27.5Y-50.0
X71.0Y-50.0
X74.5Y-50.0
X78.0Y-8.0
X81.5Y-8.0
T9
X10.0Y-15.0
X10.0Y-19.5
X10.0Y-24.0
X10.0Y-33.0
X10.0Y-37.5
X10.0Y-42.0
X10.0Y-51.0
X10.0Y-55.5
X10.0Y-60.0
X12.54Y-15.0
X12.54Y-19.5
X12.54Y-24.0
X12.54Y-33.0
X12.54Y-37.5
X12.54Y-42.0
X12.54Y-51.0
X12.54Y-55.5
X12.54Y-60.0
X15.08Y-15.0
X15.08Y-19.5
X15.08Y-24.0
X15.08Y-33.0
X15.08Y-37.5
X15.08Y-42.0
X15.08Y-51.0
X15.08Y-55.5
X15.08Y-60.0
X20.0Y-62.0
X31.0Y-62.0
X37.0Y-69.0
X37.0Y-71.54
X37.0Y-74.08
X37.0Y-76.62
X43.0Y-71.0
X43.0Y-73.54
X43.0Y-76.08
X49.0Y-71.0
X49.0Y-73.54
X49.0Y-76.08
X55.0Y-71.0
X55.0Y-73.54
X55.0Y-76.08
X61.0Y-71.0
X61.0Y-73.54
X61.0Y-76.08
X67.0Y-71.0
X67.0Y-73.54
X67.0Y-76.08
X73.0Y-71.0
X73.0Y-73.54
X73.0Y-76.08
X79.0Y-69.0
X79.0Y-71.54
X79.0Y-74.08
X79.0Y-76.62
X90.0Y-15.0
X90.0Y-19.5
X90.0Y-24.0
X90.0Y-33.0
X90.0Y-37.5
X90.0Y-42.0
X90.0Y-51.0
X90.0Y-55.5
X90.0Y-60.0
X92.54Y-15.0
X92.54Y-19.5
X92.54Y-24.0
X92.54Y-33.0
X92.54Y-37.5
X92.54Y-42.0
X92.54Y-51.0
X92.54Y-55.5
X92.54Y-60.0
X95.08Y-15.0
X95.08Y-19.5
X95.08Y-24.0
X95.08Y-33.0
X95.08Y-37.5
X95.08Y-42.0
X95.08Y-51.0
X95.08Y-55.5
X95.08Y-60.0
T10
X14.0Y-64.9
X14.0Y-73.1
T11
X23.0Y-72.0
X28.0Y-72.0
T12
X6.0Y-6.0
X6.0Y-74.0
X94.0Y-6.0
X94.0Y-74.0
T13
X17.11Y-6.505
X22.89Y-6.505
T7
X15.68Y-3.125G85X15.68Y-2.525
G05
X15.68Y-7.555G85X15.68Y-6.455
G05
X24.32Y-3.125G85X24.32Y-2.525
G05
X24.32Y-7.555G85X24.32Y-6.455
G05
M30
