%TF.GenerationSoftware,KiCad,Pcbnew,10.0.6*%
%TF.CreationDate,2026-09-28T06:23:18+01:00*%
%TF.ProjectId,Hexapod_Robot_Board,48657861-706f-4645-9f52-6f626f745f42,rev?*%
%TF.SameCoordinates,Original*%
%TF.FileFunction,Copper,L1,Top*%
%TF.FilePolarity,Positive*%
%FSLAX46Y46*%
G04 Gerber Fmt 4.6, Leading zero omitted, Abs format (unit mm)*
G04 Created by KiCad (PCBNEW 10.0.6) date 2026-09-28 06:23:18*
%MOMM*%
%LPD*%
G01*
G04 APERTURE LIST*
G04 Aperture macros list*
%AMRoundRect*
0 Rectangle with rounded corners*
0 $1 Rounding radius*
0 $2 $3 $4 $5 $6 $7 $8 $9 X,Y pos of 4 corners*
0 Add a 4 corners polygon primitive as box body*
4,1,4,$2,$3,$4,$5,$6,$7,$8,$9,$2,$3,0*
0 Add four circle primitives for the rounded corners*
1,1,$1+$1,$2,$3*
1,1,$1+$1,$4,$5*
1,1,$1+$1,$6,$7*
1,1,$1+$1,$8,$9*
0 Add four rect primitives between the rounded corners*
20,1,$1+$1,$2,$3,$4,$5,0*
20,1,$1+$1,$4,$5,$6,$7,0*
20,1,$1+$1,$6,$7,$8,$9,0*
20,1,$1+$1,$8,$9,$2,$3,0*%
G04 Aperture macros list end*
%TA.AperFunction,ComponentPad*%
%ADD10R,1.700000X1.700000*%
%TD*%
%TA.AperFunction,ComponentPad*%
%ADD11C,1.700000*%
%TD*%
%TA.AperFunction,SMDPad,CuDef*%
%ADD12RoundRect,0.225000X-0.225000X-0.250000X0.225000X-0.250000X0.225000X0.250000X-0.225000X0.250000X0*%
%TD*%
%TA.AperFunction,SMDPad,CuDef*%
%ADD13RoundRect,0.200000X0.275000X-0.200000X0.275000X0.200000X-0.275000X0.200000X-0.275000X-0.200000X0*%
%TD*%
%TA.AperFunction,SMDPad,CuDef*%
%ADD14RoundRect,0.200000X-0.200000X-0.275000X0.200000X-0.275000X0.200000X0.275000X-0.200000X0.275000X0*%
%TD*%
%TA.AperFunction,ComponentPad*%
%ADD15C,1.400000*%
%TD*%
%TA.AperFunction,ComponentPad*%
%ADD16RoundRect,0.770000X-0.980000X-0.980000X0.980000X-0.980000X0.980000X0.980000X-0.980000X0.980000X0*%
%TD*%
%TA.AperFunction,ComponentPad*%
%ADD17C,3.500000*%
%TD*%
%TA.AperFunction,SMDPad,CuDef*%
%ADD18R,1.500000X0.900000*%
%TD*%
%TA.AperFunction,SMDPad,CuDef*%
%ADD19R,0.900000X1.500000*%
%TD*%
%TA.AperFunction,HeatsinkPad*%
%ADD20C,0.600000*%
%TD*%
%TA.AperFunction,HeatsinkPad*%
%ADD21R,3.900000X3.900000*%
%TD*%
%TA.AperFunction,SMDPad,CuDef*%
%ADD22RoundRect,0.250000X0.650000X-0.325000X0.650000X0.325000X-0.650000X0.325000X-0.650000X-0.325000X0*%
%TD*%
%TA.AperFunction,ComponentPad*%
%ADD23C,0.800000*%
%TD*%
%TA.AperFunction,ComponentPad*%
%ADD24C,6.400000*%
%TD*%
%TA.AperFunction,ComponentPad*%
%ADD25RoundRect,0.250000X-0.550000X-0.550000X0.550000X-0.550000X0.550000X0.550000X-0.550000X0.550000X0*%
%TD*%
%TA.AperFunction,ComponentPad*%
%ADD26C,1.600000*%
%TD*%
%TA.AperFunction,SMDPad,CuDef*%
%ADD27R,2.900000X5.400000*%
%TD*%
%TA.AperFunction,SMDPad,CuDef*%
%ADD28RoundRect,0.375000X-0.625000X-0.375000X0.625000X-0.375000X0.625000X0.375000X-0.625000X0.375000X0*%
%TD*%
%TA.AperFunction,SMDPad,CuDef*%
%ADD29RoundRect,0.500000X-0.500000X-1.400000X0.500000X-1.400000X0.500000X1.400000X-0.500000X1.400000X0*%
%TD*%
%TA.AperFunction,SMDPad,CuDef*%
%ADD30RoundRect,0.250000X-0.250000X-0.475000X0.250000X-0.475000X0.250000X0.475000X-0.250000X0.475000X0*%
%TD*%
%TA.AperFunction,SMDPad,CuDef*%
%ADD31RoundRect,0.100000X-0.637500X-0.100000X0.637500X-0.100000X0.637500X0.100000X-0.637500X0.100000X0*%
%TD*%
%TA.AperFunction,SMDPad,CuDef*%
%ADD32RoundRect,0.218750X0.256250X-0.218750X0.256250X0.218750X-0.256250X0.218750X-0.256250X-0.218750X0*%
%TD*%
%TA.AperFunction,SMDPad,CuDef*%
%ADD33RoundRect,0.200000X-0.200000X-0.800000X0.200000X-0.800000X0.200000X0.800000X-0.200000X0.800000X0*%
%TD*%
%TA.AperFunction,SMDPad,CuDef*%
%ADD34RoundRect,0.225000X-0.225000X-0.375000X0.225000X-0.375000X0.225000X0.375000X-0.225000X0.375000X0*%
%TD*%
%TA.AperFunction,ComponentPad*%
%ADD35O,3.500000X2.200000*%
%TD*%
%TA.AperFunction,ComponentPad*%
%ADD36R,2.500000X1.500000*%
%TD*%
%TA.AperFunction,ComponentPad*%
%ADD37O,2.500000X1.500000*%
%TD*%
%TA.AperFunction,SMDPad,CuDef*%
%ADD38R,1.500000X2.200000*%
%TD*%
%TA.AperFunction,SMDPad,CuDef*%
%ADD39RoundRect,0.062500X-0.350000X-0.062500X0.350000X-0.062500X0.350000X0.062500X-0.350000X0.062500X0*%
%TD*%
%TA.AperFunction,SMDPad,CuDef*%
%ADD40RoundRect,0.062500X-0.062500X-0.350000X0.062500X-0.350000X0.062500X0.350000X-0.062500X0.350000X0*%
%TD*%
%TA.AperFunction,HeatsinkPad*%
%ADD41C,0.500000*%
%TD*%
%TA.AperFunction,HeatsinkPad*%
%ADD42R,2.700000X2.700000*%
%TD*%
%TA.AperFunction,SMDPad,CuDef*%
%ADD43RoundRect,0.218750X-0.218750X-0.256250X0.218750X-0.256250X0.218750X0.256250X-0.218750X0.256250X0*%
%TD*%
%TA.AperFunction,SMDPad,CuDef*%
%ADD44RoundRect,0.250000X-0.325000X-0.650000X0.325000X-0.650000X0.325000X0.650000X-0.325000X0.650000X0*%
%TD*%
%TA.AperFunction,SMDPad,CuDef*%
%ADD45RoundRect,0.250000X-2.050000X-0.300000X2.050000X-0.300000X2.050000X0.300000X-2.050000X0.300000X0*%
%TD*%
%TA.AperFunction,SMDPad,CuDef*%
%ADD46RoundRect,0.250002X-4.449998X-5.149998X4.449998X-5.149998X4.449998X5.149998X-4.449998X5.149998X0*%
%TD*%
%TA.AperFunction,SMDPad,CuDef*%
%ADD47RoundRect,0.150000X-0.150000X-0.500000X0.150000X-0.500000X0.150000X0.500000X-0.150000X0.500000X0*%
%TD*%
%TA.AperFunction,SMDPad,CuDef*%
%ADD48RoundRect,0.075000X-0.075000X-0.575000X0.075000X-0.575000X0.075000X0.575000X-0.075000X0.575000X0*%
%TD*%
%TA.AperFunction,ComponentPad*%
%ADD49O,1.000000X2.100000*%
%TD*%
%TA.AperFunction,ComponentPad*%
%ADD50O,1.000000X1.600000*%
%TD*%
%TA.AperFunction,SMDPad,CuDef*%
%ADD51RoundRect,0.250000X1.000000X-1.400000X1.000000X1.400000X-1.000000X1.400000X-1.000000X-1.400000X0*%
%TD*%
%TA.AperFunction,ViaPad*%
%ADD52C,0.600000*%
%TD*%
%TA.AperFunction,ViaPad*%
%ADD53C,0.700000*%
%TD*%
%TA.AperFunction,ViaPad*%
%ADD54C,0.500000*%
%TD*%
%TA.AperFunction,Conductor*%
%ADD55C,0.200000*%
%TD*%
%TA.AperFunction,Conductor*%
%ADD56C,0.250000*%
%TD*%
%TA.AperFunction,Conductor*%
%ADD57C,0.400000*%
%TD*%
%TA.AperFunction,Conductor*%
%ADD58C,0.300000*%
%TD*%
%TA.AperFunction,Conductor*%
%ADD59C,0.250200*%
%TD*%
G04 APERTURE END LIST*
D10*
%TO.P,J_L4_C,1*%
%TO.N,GND*%
X10000000Y-15000000D03*
D11*
%TO.P,J_L4_C,2*%
%TO.N,V_SERVO*%
X12540000Y-15000000D03*
%TO.P,J_L4_C,3*%
%TO.N,PWM_9*%
X15080000Y-15000000D03*
%TD*%
D12*
%TO.P,C_PCA3,1*%
%TO.N,+3V3*%
X71225000Y-30000000D03*
%TO.P,C_PCA3,2*%
%TO.N,GND*%
X72775000Y-30000000D03*
%TD*%
D10*
%TO.P,J_L3_C,1*%
%TO.N,GND*%
X90000000Y-51000000D03*
D11*
%TO.P,J_L3_C,2*%
%TO.N,V_SERVO*%
X92540000Y-51000000D03*
%TO.P,J_L3_C,3*%
%TO.N,PWM_6*%
X95080000Y-51000000D03*
%TD*%
D10*
%TO.P,J_L6_F,1*%
%TO.N,GND*%
X10000000Y-55500000D03*
D11*
%TO.P,J_L6_F,2*%
%TO.N,V_SERVO*%
X12540000Y-55500000D03*
%TO.P,J_L6_F,3*%
%TO.N,PWM_16*%
X15080000Y-55500000D03*
%TD*%
D13*
%TO.P,R_CHG,1*%
%TO.N,VBUS*%
X23000000Y-6825000D03*
%TO.P,R_CHG,2*%
%TO.N,CHG_STAT*%
X23000000Y-5175000D03*
%TD*%
D14*
%TO.P,R_STAT,1*%
%TO.N,LED_STATUS*%
X63175000Y-19000000D03*
%TO.P,R_STAT,2*%
%TO.N,GND*%
X64825000Y-19000000D03*
%TD*%
D10*
%TO.P,J_L6_C,1*%
%TO.N,GND*%
X10000000Y-51000000D03*
D11*
%TO.P,J_L6_C,2*%
%TO.N,V_SERVO*%
X12540000Y-51000000D03*
%TO.P,J_L6_C,3*%
%TO.N,PWM_15*%
X15080000Y-51000000D03*
%TD*%
D12*
%TO.P,C_VBUS2,1*%
%TO.N,VBUS*%
X22225000Y-11500000D03*
%TO.P,C_VBUS2,2*%
%TO.N,GND*%
X23775000Y-11500000D03*
%TD*%
D15*
%TO.P,J_BAT,*%
%TO.N,*%
X20000000Y-62000000D03*
X31000000Y-62000000D03*
D16*
%TO.P,J_BAT,1*%
%TO.N,VBAT*%
X28000000Y-72000000D03*
D17*
%TO.P,J_BAT,2*%
%TO.N,GND*%
X23000000Y-72000000D03*
%TD*%
D18*
%TO.P,U1,1*%
%TO.N,GND*%
X41250000Y-18740000D03*
%TO.P,U1,2*%
%TO.N,+3V3*%
X41250000Y-20010000D03*
%TO.P,U1,3*%
%TO.N,ESP_EN*%
X41250000Y-21280000D03*
%TO.P,U1,4*%
%TO.N,N/C*%
X41250000Y-22550000D03*
%TO.P,U1,5*%
X41250000Y-23820000D03*
%TO.P,U1,6*%
X41250000Y-25090000D03*
%TO.P,U1,7*%
X41250000Y-26360000D03*
%TO.P,U1,8*%
X41250000Y-27630000D03*
%TO.P,U1,9*%
X41250000Y-28900000D03*
%TO.P,U1,10*%
X41250000Y-30170000D03*
%TO.P,U1,11*%
X41250000Y-31440000D03*
%TO.P,U1,12*%
%TO.N,I2C_SDA*%
X41250000Y-32710000D03*
%TO.P,U1,13*%
%TO.N,USB_D-*%
X41250000Y-33980000D03*
%TO.P,U1,14*%
%TO.N,USB_D+*%
X41250000Y-35250000D03*
D19*
%TO.P,U1,15*%
%TO.N,N/C*%
X43015000Y-36500000D03*
%TO.P,U1,16*%
X44285000Y-36500000D03*
%TO.P,U1,17*%
%TO.N,I2C_SCL*%
X45555000Y-36500000D03*
%TO.P,U1,18*%
%TO.N,SERVO_OE*%
X46825000Y-36500000D03*
%TO.P,U1,19*%
%TO.N,N/C*%
X48095000Y-36500000D03*
%TO.P,U1,20*%
X49365000Y-36500000D03*
%TO.P,U1,21*%
X50635000Y-36500000D03*
%TO.P,U1,22*%
X51905000Y-36500000D03*
%TO.P,U1,23*%
%TO.N,BUZZER*%
X53175000Y-36500000D03*
%TO.P,U1,24*%
%TO.N,N/C*%
X54445000Y-36500000D03*
%TO.P,U1,25*%
X55715000Y-36500000D03*
%TO.P,U1,26*%
X56985000Y-36500000D03*
D18*
%TO.P,U1,27*%
%TO.N,ESP_IO0*%
X58750000Y-35250000D03*
%TO.P,U1,28*%
%TO.N,N/C*%
X58750000Y-33980000D03*
%TO.P,U1,29*%
X58750000Y-32710000D03*
%TO.P,U1,30*%
X58750000Y-31440000D03*
%TO.P,U1,31*%
X58750000Y-30170000D03*
%TO.P,U1,32*%
X58750000Y-28900000D03*
%TO.P,U1,33*%
X58750000Y-27630000D03*
%TO.P,U1,34*%
X58750000Y-26360000D03*
%TO.P,U1,35*%
X58750000Y-25090000D03*
%TO.P,U1,36*%
%TO.N,UART_RX*%
X58750000Y-23820000D03*
%TO.P,U1,37*%
%TO.N,UART_TX*%
X58750000Y-22550000D03*
%TO.P,U1,38*%
%TO.N,LED_STATUS*%
X58750000Y-21280000D03*
%TO.P,U1,39*%
%TO.N,VBAT_SENSE*%
X58750000Y-20010000D03*
%TO.P,U1,40*%
%TO.N,GND*%
X58750000Y-18740000D03*
D20*
%TO.P,U1,41*%
X47100000Y-25760000D03*
X47100000Y-27160000D03*
X47800000Y-25060000D03*
X47800000Y-26460000D03*
X47800000Y-27860000D03*
X48500000Y-25760000D03*
D21*
X48500000Y-26460000D03*
D20*
X48500000Y-27160000D03*
X49200000Y-25060000D03*
X49200000Y-26460000D03*
X49200000Y-27860000D03*
X49900000Y-25760000D03*
X49900000Y-27160000D03*
%TD*%
D12*
%TO.P,C2,1*%
%TO.N,+3V3*%
X33225000Y-22000000D03*
%TO.P,C2,2*%
%TO.N,GND*%
X34775000Y-22000000D03*
%TD*%
D22*
%TO.P,C_OUT2,1*%
%TO.N,V_SERVO*%
X71000000Y-59475000D03*
%TO.P,C_OUT2,2*%
%TO.N,GND*%
X71000000Y-56525000D03*
%TD*%
D14*
%TO.P,R_SDA,1*%
%TO.N,+3V3*%
X45175000Y-42000000D03*
%TO.P,R_SDA,2*%
%TO.N,I2C_SDA*%
X46825000Y-42000000D03*
%TD*%
D10*
%TO.P,J_L1_F,1*%
%TO.N,GND*%
X90000000Y-19500000D03*
D11*
%TO.P,J_L1_F,2*%
%TO.N,V_SERVO*%
X92540000Y-19500000D03*
%TO.P,J_L1_F,3*%
%TO.N,PWM_1*%
X95080000Y-19500000D03*
%TD*%
D12*
%TO.P,C_DIV,1*%
%TO.N,VBAT_SENSE*%
X73225000Y-27000000D03*
%TO.P,C_DIV,2*%
%TO.N,GND*%
X74775000Y-27000000D03*
%TD*%
D23*
%TO.P,H3,1*%
%TO.N,GND*%
X3600000Y-74000000D03*
X4302944Y-72302944D03*
X4302944Y-75697056D03*
X6000000Y-71600000D03*
D24*
X6000000Y-74000000D03*
D23*
X6000000Y-76400000D03*
X7697056Y-72302944D03*
X7697056Y-75697056D03*
X8400000Y-74000000D03*
%TD*%
D25*
%TO.P,C_IN1,1*%
%TO.N,VBAT_SW*%
X24000000Y-50000000D03*
D26*
%TO.P,C_IN1,2*%
%TO.N,GND*%
X27500000Y-50000000D03*
%TD*%
D27*
%TO.P,L_SERVO,1*%
%TO.N,BUCK_SW*%
X53050000Y-52000000D03*
%TO.P,L_SERVO,2*%
%TO.N,V_SERVO*%
X62950000Y-52000000D03*
%TD*%
D10*
%TO.P,J_UART,1*%
%TO.N,+3V3*%
X37000000Y-69000000D03*
D11*
%TO.P,J_UART,2*%
%TO.N,GND*%
X37000000Y-71540000D03*
%TO.P,J_UART,3*%
%TO.N,UART_TX*%
X37000000Y-74080000D03*
%TO.P,J_UART,4*%
%TO.N,UART_RX*%
X37000000Y-76620000D03*
%TD*%
D28*
%TO.P,U4,1*%
%TO.N,GND*%
X76850000Y-13700000D03*
%TO.P,U4,2*%
%TO.N,+3V3*%
X76850000Y-16000000D03*
D29*
X83150000Y-16000000D03*
D28*
%TO.P,U4,3*%
%TO.N,LDO_IN*%
X76850000Y-18300000D03*
%TD*%
D10*
%TO.P,J_AUX6,1*%
%TO.N,GND*%
X73000000Y-71000000D03*
D11*
%TO.P,J_AUX6,2*%
%TO.N,V_SERVO*%
X73000000Y-73540000D03*
%TO.P,J_AUX6,3*%
%TO.N,PWM_23*%
X73000000Y-76080000D03*
%TD*%
D13*
%TO.P,R_CC2,1*%
%TO.N,CC2*%
X58000000Y-5825000D03*
%TO.P,R_CC2,2*%
%TO.N,GND*%
X58000000Y-4175000D03*
%TD*%
D10*
%TO.P,J_AUX3,1*%
%TO.N,GND*%
X55000000Y-71000000D03*
D11*
%TO.P,J_AUX3,2*%
%TO.N,V_SERVO*%
X55000000Y-73540000D03*
%TO.P,J_AUX3,3*%
%TO.N,PWM_20*%
X55000000Y-76080000D03*
%TD*%
D30*
%TO.P,C_3V3_1,1*%
%TO.N,+3V3*%
X83050000Y-22000000D03*
%TO.P,C_3V3_1,2*%
%TO.N,GND*%
X84950000Y-22000000D03*
%TD*%
D31*
%TO.P,U6,1*%
%TO.N,+3V3*%
X71137500Y-33775000D03*
%TO.P,U6,2*%
%TO.N,GND*%
X71137500Y-34425000D03*
%TO.P,U6,3*%
X71137500Y-35075000D03*
%TO.P,U6,4*%
X71137500Y-35725000D03*
%TO.P,U6,5*%
X71137500Y-36375000D03*
%TO.P,U6,6*%
%TO.N,PWM_16*%
X71137500Y-37025000D03*
%TO.P,U6,7*%
%TO.N,PWM_17*%
X71137500Y-37675000D03*
%TO.P,U6,8*%
%TO.N,PWM_18*%
X71137500Y-38325000D03*
%TO.P,U6,9*%
%TO.N,PWM_19*%
X71137500Y-38975000D03*
%TO.P,U6,10*%
%TO.N,PWM_20*%
X71137500Y-39625000D03*
%TO.P,U6,11*%
%TO.N,PWM_21*%
X71137500Y-40275000D03*
%TO.P,U6,12*%
%TO.N,PWM_22*%
X71137500Y-40925000D03*
%TO.P,U6,13*%
%TO.N,PWM_23*%
X71137500Y-41575000D03*
%TO.P,U6,14*%
%TO.N,GND*%
X71137500Y-42225000D03*
%TO.P,U6,15*%
%TO.N,N/C*%
X76862500Y-42225000D03*
%TO.P,U6,16*%
X76862500Y-41575000D03*
%TO.P,U6,17*%
X76862500Y-40925000D03*
%TO.P,U6,18*%
X76862500Y-40275000D03*
%TO.P,U6,19*%
X76862500Y-39625000D03*
%TO.P,U6,20*%
X76862500Y-38975000D03*
%TO.P,U6,21*%
X76862500Y-38325000D03*
%TO.P,U6,22*%
X76862500Y-37675000D03*
%TO.P,U6,23*%
%TO.N,SERVO_OE*%
X76862500Y-37025000D03*
%TO.P,U6,24*%
%TO.N,GND*%
X76862500Y-36375000D03*
%TO.P,U6,25*%
X76862500Y-35725000D03*
%TO.P,U6,26*%
%TO.N,I2C_SCL*%
X76862500Y-35075000D03*
%TO.P,U6,27*%
%TO.N,I2C_SDA*%
X76862500Y-34425000D03*
%TO.P,U6,28*%
%TO.N,+3V3*%
X76862500Y-33775000D03*
%TD*%
%TO.P,U5,1*%
%TO.N,GND*%
X23137500Y-33775000D03*
%TO.P,U5,2*%
X23137500Y-34425000D03*
%TO.P,U5,3*%
X23137500Y-35075000D03*
%TO.P,U5,4*%
X23137500Y-35725000D03*
%TO.P,U5,5*%
X23137500Y-36375000D03*
%TO.P,U5,6*%
%TO.N,PWM_0*%
X23137500Y-37025000D03*
%TO.P,U5,7*%
%TO.N,PWM_1*%
X23137500Y-37675000D03*
%TO.P,U5,8*%
%TO.N,PWM_2*%
X23137500Y-38325000D03*
%TO.P,U5,9*%
%TO.N,PWM_3*%
X23137500Y-38975000D03*
%TO.P,U5,10*%
%TO.N,PWM_4*%
X23137500Y-39625000D03*
%TO.P,U5,11*%
%TO.N,PWM_5*%
X23137500Y-40275000D03*
%TO.P,U5,12*%
%TO.N,PWM_6*%
X23137500Y-40925000D03*
%TO.P,U5,13*%
%TO.N,PWM_7*%
X23137500Y-41575000D03*
%TO.P,U5,14*%
%TO.N,GND*%
X23137500Y-42225000D03*
%TO.P,U5,15*%
%TO.N,PWM_8*%
X28862500Y-42225000D03*
%TO.P,U5,16*%
%TO.N,PWM_9*%
X28862500Y-41575000D03*
%TO.P,U5,17*%
%TO.N,PWM_10*%
X28862500Y-40925000D03*
%TO.P,U5,18*%
%TO.N,PWM_11*%
X28862500Y-40275000D03*
%TO.P,U5,19*%
%TO.N,PWM_12*%
X28862500Y-39625000D03*
%TO.P,U5,20*%
%TO.N,PWM_13*%
X28862500Y-38975000D03*
%TO.P,U5,21*%
%TO.N,PWM_14*%
X28862500Y-38325000D03*
%TO.P,U5,22*%
%TO.N,PWM_15*%
X28862500Y-37675000D03*
%TO.P,U5,23*%
%TO.N,SERVO_OE*%
X28862500Y-37025000D03*
%TO.P,U5,24*%
%TO.N,GND*%
X28862500Y-36375000D03*
%TO.P,U5,25*%
X28862500Y-35725000D03*
%TO.P,U5,26*%
%TO.N,I2C_SCL*%
X28862500Y-35075000D03*
%TO.P,U5,27*%
%TO.N,I2C_SDA*%
X28862500Y-34425000D03*
%TO.P,U5,28*%
%TO.N,+3V3*%
X28862500Y-33775000D03*
%TD*%
D14*
%TO.P,R_DIV2,1*%
%TO.N,VBAT_SENSE*%
X73175000Y-23500000D03*
%TO.P,R_DIV2,2*%
%TO.N,GND*%
X74825000Y-23500000D03*
%TD*%
D30*
%TO.P,C1,1*%
%TO.N,+3V3*%
X33050000Y-18000000D03*
%TO.P,C1,2*%
%TO.N,GND*%
X34950000Y-18000000D03*
%TD*%
D23*
%TO.P,H1,1*%
%TO.N,GND*%
X3600000Y-6000000D03*
X4302944Y-4302944D03*
X4302944Y-7697056D03*
X6000000Y-3600000D03*
D24*
X6000000Y-6000000D03*
D23*
X6000000Y-8400000D03*
X7697056Y-4302944D03*
X7697056Y-7697056D03*
X8400000Y-6000000D03*
%TD*%
D10*
%TO.P,J_AUX5,1*%
%TO.N,GND*%
X67000000Y-71000000D03*
D11*
%TO.P,J_AUX5,2*%
%TO.N,V_SERVO*%
X67000000Y-73540000D03*
%TO.P,J_AUX5,3*%
%TO.N,PWM_22*%
X67000000Y-76080000D03*
%TD*%
D12*
%TO.P,C_3V3_2,1*%
%TO.N,+3V3*%
X83225000Y-25000000D03*
%TO.P,C_3V3_2,2*%
%TO.N,GND*%
X84775000Y-25000000D03*
%TD*%
D32*
%TO.P,LED_CHG,1*%
%TO.N,VBUS*%
X20000000Y-6787500D03*
%TO.P,LED_CHG,2*%
%TO.N,CHG_STAT*%
X20000000Y-5212500D03*
%TD*%
D14*
%TO.P,R_DIV1,1*%
%TO.N,VBAT_SW*%
X73175000Y-20000000D03*
%TO.P,R_DIV1,2*%
%TO.N,VBAT_SENSE*%
X74825000Y-20000000D03*
%TD*%
%TO.P,R_OE,1*%
%TO.N,+3V3*%
X53175000Y-42000000D03*
%TO.P,R_OE,2*%
%TO.N,SERVO_OE*%
X54825000Y-42000000D03*
%TD*%
%TO.P,R1,1*%
%TO.N,+3V3*%
X33175000Y-26000000D03*
%TO.P,R1,2*%
%TO.N,ESP_EN*%
X34825000Y-26000000D03*
%TD*%
D33*
%TO.P,SW1,1*%
%TO.N,ESP_EN*%
X30900000Y-6000000D03*
%TO.P,SW1,2*%
%TO.N,GND*%
X35100000Y-6000000D03*
%TD*%
D32*
%TO.P,LED_FULL,1*%
%TO.N,VBUS*%
X26500000Y-6787500D03*
%TO.P,LED_FULL,2*%
%TO.N,CHG_PG*%
X26500000Y-5212500D03*
%TD*%
D13*
%TO.P,R_SERVO_LED,1*%
%TO.N,V_SERVO*%
X77000000Y-60825000D03*
%TO.P,R_SERVO_LED,2*%
%TO.N,GND*%
X77000000Y-59175000D03*
%TD*%
D23*
%TO.P,H4,1*%
%TO.N,GND*%
X91600000Y-74000000D03*
X92302944Y-72302944D03*
X92302944Y-75697056D03*
X94000000Y-71600000D03*
D24*
X94000000Y-74000000D03*
D23*
X94000000Y-76400000D03*
X95697056Y-72302944D03*
X95697056Y-75697056D03*
X96400000Y-74000000D03*
%TD*%
D10*
%TO.P,J_L2_C,1*%
%TO.N,GND*%
X90000000Y-33000000D03*
D11*
%TO.P,J_L2_C,2*%
%TO.N,V_SERVO*%
X92540000Y-33000000D03*
%TO.P,J_L2_C,3*%
%TO.N,PWM_3*%
X95080000Y-33000000D03*
%TD*%
D10*
%TO.P,J_AUX4,1*%
%TO.N,GND*%
X61000000Y-71000000D03*
D11*
%TO.P,J_AUX4,2*%
%TO.N,V_SERVO*%
X61000000Y-73540000D03*
%TO.P,J_AUX4,3*%
%TO.N,PWM_21*%
X61000000Y-76080000D03*
%TD*%
D14*
%TO.P,R2,1*%
%TO.N,+3V3*%
X62175000Y-12000000D03*
%TO.P,R2,2*%
%TO.N,ESP_IO0*%
X63825000Y-12000000D03*
%TD*%
D10*
%TO.P,J_L2_F,1*%
%TO.N,GND*%
X90000000Y-37500000D03*
D11*
%TO.P,J_L2_F,2*%
%TO.N,V_SERVO*%
X92540000Y-37500000D03*
%TO.P,J_L2_F,3*%
%TO.N,PWM_4*%
X95080000Y-37500000D03*
%TD*%
D14*
%TO.P,R_BZ,1*%
%TO.N,BUZZER*%
X63175000Y-27000000D03*
%TO.P,R_BZ,2*%
%TO.N,GND*%
X64825000Y-27000000D03*
%TD*%
D12*
%TO.P,C3,1*%
%TO.N,ESP_EN*%
X33225000Y-30000000D03*
%TO.P,C3,2*%
%TO.N,GND*%
X34775000Y-30000000D03*
%TD*%
D14*
%TO.P,R_3V3_LED,1*%
%TO.N,+3V3*%
X83175000Y-31000000D03*
%TO.P,R_3V3_LED,2*%
%TO.N,GND*%
X84825000Y-31000000D03*
%TD*%
D12*
%TO.P,C_PCA1,1*%
%TO.N,+3V3*%
X22725000Y-30500000D03*
%TO.P,C_PCA1,2*%
%TO.N,GND*%
X24275000Y-30500000D03*
%TD*%
%TO.P,C_OUT3,1*%
%TO.N,V_SERVO*%
X70225000Y-62000000D03*
%TO.P,C_OUT3,2*%
%TO.N,GND*%
X71775000Y-62000000D03*
%TD*%
D30*
%TO.P,C_ISO2,1*%
%TO.N,LDO_IN*%
X71050000Y-10000000D03*
%TO.P,C_ISO2,2*%
%TO.N,GND*%
X72950000Y-10000000D03*
%TD*%
D10*
%TO.P,J_L4_F,1*%
%TO.N,GND*%
X10000000Y-19500000D03*
D11*
%TO.P,J_L4_F,2*%
%TO.N,V_SERVO*%
X12540000Y-19500000D03*
%TO.P,J_L4_F,3*%
%TO.N,PWM_10*%
X15080000Y-19500000D03*
%TD*%
D12*
%TO.P,C_BAT2,1*%
%TO.N,VBAT*%
X30725000Y-11500000D03*
%TO.P,C_BAT2,2*%
%TO.N,GND*%
X32275000Y-11500000D03*
%TD*%
D34*
%TO.P,D_ISO,1*%
%TO.N,VBAT_SW*%
X70350000Y-6000000D03*
%TO.P,D_ISO,2*%
%TO.N,LDO_IN*%
X73650000Y-6000000D03*
%TD*%
D23*
%TO.P,H2,1*%
%TO.N,GND*%
X91600000Y-6000000D03*
X92302944Y-4302944D03*
X92302944Y-7697056D03*
X94000000Y-3600000D03*
D24*
X94000000Y-6000000D03*
D23*
X94000000Y-8400000D03*
X95697056Y-4302944D03*
X95697056Y-7697056D03*
X96400000Y-6000000D03*
%TD*%
D35*
%TO.P,SW_PWR,*%
%TO.N,*%
X14000000Y-73100000D03*
X14000000Y-64900000D03*
D36*
%TO.P,SW_PWR,1*%
%TO.N,VBAT*%
X14000000Y-71000000D03*
D37*
%TO.P,SW_PWR,2*%
%TO.N,VBAT_SW*%
X14000000Y-69000000D03*
%TO.P,SW_PWR,3*%
X14000000Y-67000000D03*
%TD*%
D33*
%TO.P,SW2,1*%
%TO.N,ESP_IO0*%
X59900000Y-6000000D03*
%TO.P,SW2,2*%
%TO.N,GND*%
X64100000Y-6000000D03*
%TD*%
D10*
%TO.P,J_L2_T,1*%
%TO.N,GND*%
X90000000Y-42000000D03*
D11*
%TO.P,J_L2_T,2*%
%TO.N,V_SERVO*%
X92540000Y-42000000D03*
%TO.P,J_L2_T,3*%
%TO.N,PWM_5*%
X95080000Y-42000000D03*
%TD*%
D10*
%TO.P,J_L1_C,1*%
%TO.N,GND*%
X90000000Y-15000000D03*
D11*
%TO.P,J_L1_C,2*%
%TO.N,V_SERVO*%
X92540000Y-15000000D03*
%TO.P,J_L1_C,3*%
%TO.N,PWM_0*%
X95080000Y-15000000D03*
%TD*%
D10*
%TO.P,J_L6_T,1*%
%TO.N,GND*%
X10000000Y-60000000D03*
D11*
%TO.P,J_L6_T,2*%
%TO.N,V_SERVO*%
X12540000Y-60000000D03*
%TO.P,J_L6_T,3*%
%TO.N,PWM_17*%
X15080000Y-60000000D03*
%TD*%
D38*
%TO.P,L_CHG,1*%
%TO.N,VBUS*%
X18800000Y-20000000D03*
%TO.P,L_CHG,2*%
%TO.N,CHG_SW*%
X25200000Y-20000000D03*
%TD*%
D10*
%TO.P,J_AUX1,1*%
%TO.N,GND*%
X43000000Y-71000000D03*
D11*
%TO.P,J_AUX1,2*%
%TO.N,V_SERVO*%
X43000000Y-73540000D03*
%TO.P,J_AUX1,3*%
%TO.N,PWM_18*%
X43000000Y-76080000D03*
%TD*%
D10*
%TO.P,J_AUX2,1*%
%TO.N,GND*%
X49000000Y-71000000D03*
D11*
%TO.P,J_AUX2,2*%
%TO.N,V_SERVO*%
X49000000Y-73540000D03*
%TO.P,J_AUX2,3*%
%TO.N,PWM_19*%
X49000000Y-76080000D03*
%TD*%
D30*
%TO.P,C_PCA2,1*%
%TO.N,+3V3*%
X26550000Y-30500000D03*
%TO.P,C_PCA2,2*%
%TO.N,GND*%
X28450000Y-30500000D03*
%TD*%
D10*
%TO.P,J_L3_T,1*%
%TO.N,GND*%
X90000000Y-60000000D03*
D11*
%TO.P,J_L3_T,2*%
%TO.N,V_SERVO*%
X92540000Y-60000000D03*
%TO.P,J_L3_T,3*%
%TO.N,PWM_8*%
X95080000Y-60000000D03*
%TD*%
D39*
%TO.P,U2,1*%
%TO.N,N/C*%
X27037500Y-18750000D03*
%TO.P,U2,2*%
%TO.N,CHG_STAT*%
X27037500Y-19250000D03*
%TO.P,U2,3*%
%TO.N,N/C*%
X27037500Y-19750000D03*
%TO.P,U2,4*%
%TO.N,GND*%
X27037500Y-20250000D03*
%TO.P,U2,5*%
%TO.N,N/C*%
X27037500Y-20750000D03*
%TO.P,U2,6*%
X27037500Y-21250000D03*
D40*
%TO.P,U2,7*%
X27750000Y-21962500D03*
%TO.P,U2,8*%
X28250000Y-21962500D03*
%TO.P,U2,9*%
%TO.N,CHG_PG*%
X28750000Y-21962500D03*
%TO.P,U2,10*%
%TO.N,N/C*%
X29250000Y-21962500D03*
%TO.P,U2,11*%
X29750000Y-21962500D03*
%TO.P,U2,12*%
X30250000Y-21962500D03*
D39*
%TO.P,U2,13*%
%TO.N,VBAT*%
X30962500Y-21250000D03*
%TO.P,U2,14*%
X30962500Y-20750000D03*
%TO.P,U2,15*%
%TO.N,N/C*%
X30962500Y-20250000D03*
%TO.P,U2,16*%
X30962500Y-19750000D03*
%TO.P,U2,17*%
%TO.N,CHG_SW*%
X30962500Y-19250000D03*
%TO.P,U2,18*%
X30962500Y-18750000D03*
D40*
%TO.P,U2,19*%
%TO.N,GND*%
X30250000Y-18037500D03*
%TO.P,U2,20*%
X29750000Y-18037500D03*
%TO.P,U2,21*%
%TO.N,VBUS*%
X29250000Y-18037500D03*
%TO.P,U2,22*%
X28750000Y-18037500D03*
%TO.P,U2,23*%
X28250000Y-18037500D03*
%TO.P,U2,24*%
%TO.N,N/C*%
X27750000Y-18037500D03*
D41*
%TO.P,U2,25*%
%TO.N,GND*%
X27900000Y-18900000D03*
X27900000Y-20000000D03*
X27900000Y-21100000D03*
X29000000Y-18900000D03*
X29000000Y-20000000D03*
D42*
X29000000Y-20000000D03*
D41*
X29000000Y-21100000D03*
X30100000Y-18900000D03*
X30100000Y-20000000D03*
X30100000Y-21100000D03*
%TD*%
D30*
%TO.P,C_PCA4,1*%
%TO.N,+3V3*%
X75050000Y-30000000D03*
%TO.P,C_PCA4,2*%
%TO.N,GND*%
X76950000Y-30000000D03*
%TD*%
D43*
%TO.P,LED_3V3,1*%
%TO.N,+3V3*%
X83212500Y-28000000D03*
%TO.P,LED_3V3,2*%
%TO.N,GND*%
X84787500Y-28000000D03*
%TD*%
D14*
%TO.P,R_FB1,1*%
%TO.N,V_SERVO*%
X48175000Y-61000000D03*
%TO.P,R_FB1,2*%
%TO.N,BUCK_FB*%
X49825000Y-61000000D03*
%TD*%
D10*
%TO.P,J_L5_C,1*%
%TO.N,GND*%
X10000000Y-33000000D03*
D11*
%TO.P,J_L5_C,2*%
%TO.N,V_SERVO*%
X12540000Y-33000000D03*
%TO.P,J_L5_C,3*%
%TO.N,PWM_12*%
X15080000Y-33000000D03*
%TD*%
D44*
%TO.P,C_BAT1,1*%
%TO.N,VBAT*%
X26025000Y-11500000D03*
%TO.P,C_BAT1,2*%
%TO.N,GND*%
X28975000Y-11500000D03*
%TD*%
D10*
%TO.P,J_L5_T,1*%
%TO.N,GND*%
X10000000Y-42000000D03*
D11*
%TO.P,J_L5_T,2*%
%TO.N,V_SERVO*%
X12540000Y-42000000D03*
%TO.P,J_L5_T,3*%
%TO.N,PWM_14*%
X15080000Y-42000000D03*
%TD*%
D44*
%TO.P,C_IN2,1*%
%TO.N,VBAT_SW*%
X30525000Y-44000000D03*
%TO.P,C_IN2,2*%
%TO.N,GND*%
X33475000Y-44000000D03*
%TD*%
D25*
%TO.P,C_ISO1,1*%
%TO.N,LDO_IN*%
X78000000Y-8000000D03*
D26*
%TO.P,C_ISO1,2*%
%TO.N,GND*%
X81500000Y-8000000D03*
%TD*%
D10*
%TO.P,J_I2C,1*%
%TO.N,+3V3*%
X79000000Y-69000000D03*
D11*
%TO.P,J_I2C,2*%
%TO.N,GND*%
X79000000Y-71540000D03*
%TO.P,J_I2C,3*%
%TO.N,I2C_SCL*%
X79000000Y-74080000D03*
%TO.P,J_I2C,4*%
%TO.N,I2C_SDA*%
X79000000Y-76620000D03*
%TD*%
D45*
%TO.P,U3,1*%
%TO.N,GND*%
X34350000Y-48600000D03*
%TO.P,U3,2*%
%TO.N,BUCK_FB*%
X34350000Y-50300000D03*
%TO.P,U3,3*%
%TO.N,BUCK_SW*%
X34350000Y-52000000D03*
D46*
X43500000Y-52000000D03*
D45*
%TO.P,U3,4*%
%TO.N,GND*%
X34350000Y-53700000D03*
%TO.P,U3,5*%
%TO.N,VBAT_SW*%
X34350000Y-55400000D03*
%TD*%
D14*
%TO.P,R_SCL,1*%
%TO.N,+3V3*%
X49175000Y-42000000D03*
%TO.P,R_SCL,2*%
%TO.N,I2C_SCL*%
X50825000Y-42000000D03*
%TD*%
D32*
%TO.P,LED_SERVO,1*%
%TO.N,V_SERVO*%
X77000000Y-56787500D03*
%TO.P,LED_SERVO,2*%
%TO.N,GND*%
X77000000Y-55212500D03*
%TD*%
D10*
%TO.P,J_L5_F,1*%
%TO.N,GND*%
X10000000Y-37500000D03*
D11*
%TO.P,J_L5_F,2*%
%TO.N,V_SERVO*%
X12540000Y-37500000D03*
%TO.P,J_L5_F,3*%
%TO.N,PWM_13*%
X15080000Y-37500000D03*
%TD*%
D14*
%TO.P,R_FB2,1*%
%TO.N,BUCK_FB*%
X48175000Y-64000000D03*
%TO.P,R_FB2,2*%
%TO.N,GND*%
X49825000Y-64000000D03*
%TD*%
D13*
%TO.P,R_FULL,1*%
%TO.N,VBUS*%
X29500000Y-6825000D03*
%TO.P,R_FULL,2*%
%TO.N,CHG_PG*%
X29500000Y-5175000D03*
%TD*%
D10*
%TO.P,J_L3_F,1*%
%TO.N,GND*%
X90000000Y-55500000D03*
D11*
%TO.P,J_L3_F,2*%
%TO.N,V_SERVO*%
X92540000Y-55500000D03*
%TO.P,J_L3_F,3*%
%TO.N,PWM_7*%
X95080000Y-55500000D03*
%TD*%
D30*
%TO.P,C_VBUS1,1*%
%TO.N,VBUS*%
X18550000Y-11500000D03*
%TO.P,C_VBUS1,2*%
%TO.N,GND*%
X20450000Y-11500000D03*
%TD*%
D10*
%TO.P,J_L4_T,1*%
%TO.N,GND*%
X10000000Y-24000000D03*
D11*
%TO.P,J_L4_T,2*%
%TO.N,V_SERVO*%
X12540000Y-24000000D03*
%TO.P,J_L4_T,3*%
%TO.N,PWM_11*%
X15080000Y-24000000D03*
%TD*%
D47*
%TO.P,J1,A1*%
%TO.N,GND*%
X46800000Y-1255000D03*
%TO.P,J1,A4*%
%TO.N,VBUS*%
X47600000Y-1255000D03*
D48*
%TO.P,J1,A5*%
%TO.N,CC1*%
X48750000Y-1255000D03*
%TO.P,J1,A6*%
%TO.N,USB_D+*%
X49750000Y-1255000D03*
%TO.P,J1,A7*%
%TO.N,USB_D-*%
X50250000Y-1255000D03*
%TO.P,J1,A8*%
%TO.N,N/C*%
X51250000Y-1255000D03*
D47*
%TO.P,J1,A9*%
%TO.N,VBUS*%
X52400000Y-1255000D03*
%TO.P,J1,A12*%
%TO.N,GND*%
X53200000Y-1255000D03*
%TO.P,J1,B1*%
X53200000Y-1255000D03*
%TO.P,J1,B4*%
%TO.N,VBUS*%
X52400000Y-1255000D03*
D48*
%TO.P,J1,B5*%
%TO.N,CC2*%
X51750000Y-1255000D03*
%TO.P,J1,B6*%
%TO.N,USB_D+*%
X50750000Y-1255000D03*
%TO.P,J1,B7*%
%TO.N,USB_D-*%
X49250000Y-1255000D03*
%TO.P,J1,B8*%
%TO.N,N/C*%
X48250000Y-1255000D03*
D47*
%TO.P,J1,B9*%
%TO.N,VBUS*%
X47600000Y-1255000D03*
%TO.P,J1,B12*%
%TO.N,GND*%
X46800000Y-1255000D03*
D49*
%TO.P,J1,SH*%
X45680000Y-1895000D03*
D50*
X45680000Y-6075000D03*
D49*
X54320000Y-1895000D03*
D50*
X54320000Y-6075000D03*
%TD*%
D43*
%TO.P,D_STAT,1*%
%TO.N,LED_STATUS*%
X63212500Y-23000000D03*
%TO.P,D_STAT,2*%
%TO.N,GND*%
X64787500Y-23000000D03*
%TD*%
D25*
%TO.P,C_OUT1,1*%
%TO.N,V_SERVO*%
X71000000Y-50000000D03*
D26*
%TO.P,C_OUT1,2*%
%TO.N,GND*%
X74500000Y-50000000D03*
%TD*%
D51*
%TO.P,D_CATCH,1*%
%TO.N,GND*%
X38600000Y-63000000D03*
%TO.P,D_CATCH,2*%
%TO.N,BUCK_SW*%
X45400000Y-63000000D03*
%TD*%
D10*
%TO.P,J_L1_T,1*%
%TO.N,GND*%
X90000000Y-24000000D03*
D11*
%TO.P,J_L1_T,2*%
%TO.N,V_SERVO*%
X92540000Y-24000000D03*
%TO.P,J_L1_T,3*%
%TO.N,PWM_2*%
X95080000Y-24000000D03*
%TD*%
D13*
%TO.P,R_CC1,1*%
%TO.N,CC1*%
X42000000Y-5825000D03*
%TO.P,R_CC1,2*%
%TO.N,GND*%
X42000000Y-4175000D03*
%TD*%
D52*
%TO.N,GND*%
X75706200Y-26988100D03*
X29426900Y-31004300D03*
X75541000Y-22784000D03*
X31594400Y-48910800D03*
X85816300Y-22866300D03*
X35350000Y-6000000D03*
X57528900Y-18520600D03*
X34775000Y-29058500D03*
X85701300Y-25147600D03*
X65710200Y-18693700D03*
X64350000Y-6000000D03*
X42471100Y-18520600D03*
X32525000Y-9500000D03*
X76294700Y-59880300D03*
X72684700Y-61741500D03*
X20450000Y-12698600D03*
X65535800Y-27710800D03*
X35951500Y-18043000D03*
X29225000Y-9500000D03*
X34528900Y-43850700D03*
X51008100Y-63762800D03*
X75390500Y-13266000D03*
X35717000Y-21887400D03*
X40326700Y-63762800D03*
X23775000Y-12450200D03*
X31596000Y-54283200D03*
X69927000Y-34352900D03*
X77952100Y-54851600D03*
X85691200Y-28118000D03*
X77564300Y-28850500D03*
X76783000Y-55335000D03*
X85687100Y-30844900D03*
X69925000Y-42215700D03*
X21931500Y-42041400D03*
X65507500Y-22280000D03*
X73702500Y-30133800D03*
X22479800Y-33117300D03*
X69620300Y-56718900D03*
X27640200Y-36250400D03*
X75662900Y-36331600D03*
X24275000Y-29554100D03*
X73200000Y-10000000D03*
D53*
%TO.N,V_SERVO*%
X68415800Y-61741500D03*
X78035300Y-56717000D03*
X47458000Y-61832600D03*
X78139500Y-60490600D03*
X60977500Y-51829200D03*
X72485800Y-60156300D03*
D52*
%TO.N,PWM_9*%
X26852700Y-40106500D03*
%TO.N,+3V3*%
X37159800Y-33449300D03*
X77100000Y-16000000D03*
X42494000Y-42672300D03*
X78990800Y-34392100D03*
X62420000Y-12000000D03*
%TO.N,PWM_6*%
X21486700Y-41396600D03*
%TO.N,PWM_16*%
X34879700Y-38688100D03*
X69535700Y-36982100D03*
%TO.N,VBUS*%
X29740000Y-6890000D03*
X38800000Y-8000000D03*
X25700000Y-8000000D03*
X28580000Y-17570000D03*
X41200000Y-8000000D03*
X21190000Y-8500000D03*
D54*
X47600000Y-1255000D03*
X52400000Y-1255000D03*
D52*
X27800000Y-8000000D03*
%TO.N,VBAT*%
X31090000Y-21470000D03*
D53*
X30301300Y-23932100D03*
D52*
X30980000Y-13500000D03*
%TO.N,ESP_EN*%
X41500000Y-21280000D03*
X31150000Y-4500000D03*
%TO.N,I2C_SDA*%
X43053300Y-32982400D03*
X43934200Y-42924100D03*
X43313100Y-34946500D03*
X78209800Y-34677600D03*
%TO.N,USB_D-*%
X48800000Y-3500000D03*
X50700000Y-3500000D03*
X48527200Y-31088400D03*
%TO.N,USB_D+*%
X52050000Y-4500000D03*
X41500000Y-35250000D03*
%TO.N,I2C_SCL*%
X54007200Y-34391800D03*
X80945300Y-42600400D03*
X51720100Y-41921500D03*
X79966900Y-34734500D03*
%TO.N,ESP_IO0*%
X57230000Y-34380000D03*
X60150000Y-6000000D03*
%TO.N,UART_RX*%
X57429100Y-30525400D03*
%TO.N,UART_TX*%
X56947500Y-22177200D03*
%TO.N,PWM_1*%
X24431600Y-32509100D03*
D53*
%TO.N,VBAT_SW*%
X35201400Y-24637400D03*
D52*
X70600000Y-6000000D03*
D53*
X72431400Y-19256400D03*
D52*
%TO.N,PWM_23*%
X73008500Y-41698400D03*
%TO.N,CC2*%
X58000000Y-5825000D03*
X52800000Y-3500000D03*
%TO.N,PWM_20*%
X62375900Y-41310100D03*
%TO.N,PWM_17*%
X32367100Y-39010500D03*
X69915200Y-37675000D03*
%TO.N,PWM_18*%
X60660100Y-37373800D03*
%TO.N,PWM_19*%
X56958400Y-40822900D03*
%TO.N,PWM_21*%
X63439600Y-40624700D03*
%TO.N,PWM_22*%
X69041500Y-41310100D03*
%TO.N,PWM_0*%
X22872600Y-31656600D03*
%TO.N,PWM_2*%
X25118800Y-38192100D03*
%TO.N,PWM_3*%
X25732000Y-38642100D03*
%TO.N,PWM_4*%
X24479500Y-39628700D03*
%TO.N,PWM_5*%
X25045200Y-40280200D03*
%TO.N,PWM_7*%
X21693000Y-44177900D03*
%TO.N,PWM_8*%
X29263300Y-45939300D03*
%TO.N,PWM_10*%
X19269800Y-40957300D03*
X30195300Y-41746000D03*
%TO.N,PWM_11*%
X25353600Y-43274500D03*
%TO.N,PWM_12*%
X30072800Y-39315500D03*
%TO.N,PWM_13*%
X25886700Y-41724200D03*
%TO.N,PWM_14*%
X29609200Y-42933800D03*
%TO.N,CHG_PG*%
X26750000Y-5210000D03*
X28750000Y-22760000D03*
%TO.N,BUCK_FB*%
X37431700Y-51098000D03*
X48955900Y-59959800D03*
%TO.N,CC1*%
X42000000Y-5825000D03*
X47200000Y-3500000D03*
%TD*%
%TO.N,GND*%
D55*
X20450000Y-12698600D02*
X20450000Y-11500000D01*
X84980100Y-30844900D02*
X84825000Y-31000000D01*
X65131300Y-18693700D02*
X64825000Y-19000000D01*
X34775000Y-30000000D02*
X34775000Y-29058500D01*
X23137500Y-34425000D02*
X23137500Y-35075000D01*
X84922600Y-25147600D02*
X84775000Y-25000000D01*
X24275000Y-29554100D02*
X24275000Y-30500000D01*
X47800000Y-26460000D02*
X48500000Y-26460000D01*
X75706200Y-26988100D02*
X74786900Y-26988100D01*
X69620300Y-56718900D02*
X70806100Y-56718900D01*
X71065400Y-34352900D02*
X71137500Y-34425000D01*
X23137500Y-33775000D02*
X23137500Y-34425000D01*
X77952100Y-54851600D02*
X77360900Y-54851600D01*
D56*
X46800000Y-1255000D02*
X45680000Y-1895000D01*
D55*
X76862500Y-36375000D02*
X76862500Y-35725000D01*
X34039200Y-48910800D02*
X34350000Y-48600000D01*
X85687100Y-30844900D02*
X84980100Y-30844900D01*
X23137500Y-35725000D02*
X23137500Y-36375000D01*
X30250000Y-18037500D02*
X30100000Y-18037500D01*
X71137500Y-35725000D02*
X71137500Y-36375000D01*
X58000000Y-4175000D02*
X64350000Y-4175000D01*
D56*
X72950000Y-10000000D02*
X73200000Y-10000000D01*
D55*
X75662900Y-36331600D02*
X76819100Y-36331600D01*
X76819100Y-36331600D02*
X76862500Y-36375000D01*
X30100000Y-18037500D02*
X29750000Y-18037500D01*
X50062200Y-63762800D02*
X49825000Y-64000000D01*
X42471100Y-18520600D02*
X42251700Y-18740000D01*
D56*
X77000000Y-55212000D02*
X76783000Y-55335000D01*
D55*
X29426900Y-31004300D02*
X28954300Y-31004300D01*
X77564300Y-28850500D02*
X76950000Y-29464800D01*
X84950000Y-22000000D02*
X85816300Y-22866300D01*
X35350000Y-4175000D02*
X35350000Y-6000000D01*
X58750000Y-18740000D02*
X57748300Y-18740000D01*
X70806100Y-56718900D02*
X71000000Y-56525000D01*
X35951500Y-18043000D02*
X34993000Y-18043000D01*
X73702500Y-30133800D02*
X72908800Y-30133800D01*
X84905500Y-28118000D02*
X84787500Y-28000000D01*
X72684700Y-61741500D02*
X72033500Y-61741500D01*
X33475000Y-44000000D02*
X33624300Y-43850700D01*
X22953900Y-42041400D02*
X21931500Y-42041400D01*
X71128200Y-42215700D02*
X71137500Y-42225000D01*
X51008100Y-63762800D02*
X50062200Y-63762800D01*
X57528900Y-18520600D02*
X57748300Y-18740000D01*
X34887600Y-21887400D02*
X34775000Y-22000000D01*
X77360900Y-54851600D02*
X77000000Y-55212500D01*
X42000000Y-4175000D02*
X35350000Y-4175000D01*
X76294700Y-59880300D02*
X77000000Y-59175000D01*
X69925000Y-42215700D02*
X71128200Y-42215700D01*
X72033500Y-61741500D02*
X71775000Y-62000000D01*
D56*
X53200000Y-1255000D02*
X54320000Y-1895000D01*
D55*
X27650000Y-20250000D02*
X27037500Y-20250000D01*
X23775000Y-12450200D02*
X23775000Y-11500000D01*
X34350000Y-53700000D02*
X33766800Y-54283200D01*
X39362800Y-63762800D02*
X38600000Y-63000000D01*
X72908800Y-30133800D02*
X72775000Y-30000000D01*
D56*
X28975000Y-11500000D02*
X29225000Y-9500000D01*
D55*
X41250000Y-18740000D02*
X42251700Y-18740000D01*
X30100000Y-18900000D02*
X30100000Y-18037500D01*
X33766800Y-54283200D02*
X31596000Y-54283200D01*
X23137500Y-35075000D02*
X23137500Y-35725000D01*
X31594400Y-48910800D02*
X34039200Y-48910800D01*
X40326700Y-63762800D02*
X39362800Y-63762800D01*
X76416000Y-13266000D02*
X76850000Y-13700000D01*
X76950000Y-29464800D02*
X76950000Y-30000000D01*
X74825000Y-23500000D02*
X75541000Y-22784000D01*
X71137500Y-35075000D02*
X71137500Y-35725000D01*
X85691200Y-28118000D02*
X84905500Y-28118000D01*
X33624300Y-43850700D02*
X34528900Y-43850700D01*
X71137500Y-34425000D02*
X71137500Y-35075000D01*
X23137500Y-33775000D02*
X22479800Y-33117300D01*
X23137500Y-42225000D02*
X22953900Y-42041400D01*
X28737900Y-36250400D02*
X28862500Y-36375000D01*
X28954300Y-31004300D02*
X28450000Y-30500000D01*
D56*
X64100000Y-6000000D02*
X64350000Y-6000000D01*
D55*
X64350000Y-4175000D02*
X64350000Y-6000000D01*
X34993000Y-18043000D02*
X34950000Y-18000000D01*
X69927000Y-34352900D02*
X71065400Y-34352900D01*
X85701300Y-25147600D02*
X84922600Y-25147600D01*
D56*
X32275000Y-11500000D02*
X32525000Y-9500000D01*
D55*
X28862500Y-36375000D02*
X28862500Y-35725000D01*
D56*
X35100000Y-6000000D02*
X35350000Y-6000000D01*
D55*
X27640200Y-36250400D02*
X28737900Y-36250400D01*
X74786900Y-26988100D02*
X74775000Y-27000000D01*
X35717000Y-21887400D02*
X34887600Y-21887400D01*
X65507500Y-22280000D02*
X64787500Y-23000000D01*
X27900000Y-20000000D02*
X27650000Y-20250000D01*
X75390500Y-13266000D02*
X76416000Y-13266000D01*
X65535800Y-27710800D02*
X64825000Y-27000000D01*
X65710200Y-18693700D02*
X65131300Y-18693700D01*
%TO.N,V_SERVO*%
D57*
X77805100Y-60825000D02*
X77000000Y-60825000D01*
X77070500Y-56717000D02*
X77000000Y-56787500D01*
X48175000Y-61115600D02*
X48175000Y-61000000D01*
X62950000Y-52000000D02*
X61148300Y-52000000D01*
X61148300Y-52000000D02*
X60977500Y-51829200D01*
X72485800Y-60156300D02*
X71681300Y-60156300D01*
X69966500Y-61741500D02*
X70225000Y-62000000D01*
X68415800Y-61741500D02*
X69966500Y-61741500D01*
X71681300Y-60156300D02*
X71000000Y-59475000D01*
X78139500Y-60490600D02*
X77805100Y-60825000D01*
X47458000Y-61832600D02*
X48175000Y-61115600D01*
X78035300Y-56717000D02*
X77070500Y-56717000D01*
%TO.N,PWM_9*%
D55*
X28862500Y-41575000D02*
X28185900Y-41575000D01*
X28185900Y-41575000D02*
X26852700Y-40241800D01*
X26852700Y-40241800D02*
X26852700Y-40106500D01*
%TO.N,+3V3*%
D58*
X76862500Y-33775000D02*
X75050000Y-33775000D01*
X53175000Y-42000000D02*
X52357000Y-41182000D01*
X41250000Y-20010000D02*
X33226500Y-20010000D01*
X83175000Y-28037500D02*
X83212500Y-28000000D01*
X83175000Y-31000000D02*
X83175000Y-28037500D01*
X49175000Y-42000000D02*
X48357600Y-41182600D01*
X37159800Y-33449300D02*
X29188200Y-33449300D01*
X45992400Y-41182600D02*
X45175000Y-42000000D01*
X80400000Y-33775000D02*
X78990800Y-33775000D01*
X29188200Y-33449300D02*
X28862500Y-33775000D01*
X76950000Y-16100000D02*
X83050000Y-16100000D01*
X33225000Y-22000000D02*
X33225000Y-20011500D01*
X83150000Y-16000000D02*
X83050000Y-16100000D01*
D55*
X62175000Y-12000000D02*
X62420000Y-12000000D01*
D58*
X33175000Y-26000000D02*
X33225000Y-25950000D01*
X33226500Y-18176500D02*
X33050000Y-18000000D01*
X52357000Y-41182000D02*
X49993000Y-41182000D01*
X78990800Y-34392100D02*
X78990800Y-33775000D01*
X75050000Y-30814500D02*
X75050000Y-30000000D01*
X33225000Y-25950000D02*
X33225000Y-22000000D01*
X76850000Y-16000000D02*
X76950000Y-16100000D01*
X83225000Y-22175000D02*
X83225000Y-25000000D01*
X33225000Y-20011500D02*
X33226500Y-20010000D01*
X26550000Y-30500000D02*
X31050000Y-26000000D01*
X83175000Y-31000000D02*
X80400000Y-33775000D01*
X48357600Y-41182600D02*
X45992400Y-41182600D01*
X49993000Y-41182000D02*
X49175000Y-42000000D01*
X72039500Y-30814500D02*
X71225000Y-30000000D01*
X23506200Y-31281200D02*
X22725000Y-30500000D01*
X31050000Y-26000000D02*
X33175000Y-26000000D01*
X83050000Y-22000000D02*
X83225000Y-22175000D01*
X75050000Y-33775000D02*
X75050000Y-30814500D01*
X45175000Y-42000000D02*
X43166300Y-42000000D01*
X78990800Y-33775000D02*
X76862500Y-33775000D01*
X43166300Y-42000000D02*
X42494000Y-42672300D01*
X83050000Y-16100000D02*
X83050000Y-22000000D01*
X26550000Y-31462500D02*
X26550000Y-31281200D01*
X33226500Y-20010000D02*
X33226500Y-18176500D01*
D55*
X76850000Y-16000000D02*
X77100000Y-16000000D01*
D58*
X28862500Y-33775000D02*
X26550000Y-31462500D01*
X75050000Y-33775000D02*
X71137500Y-33775000D01*
X26550000Y-31281200D02*
X23506200Y-31281200D01*
X83212500Y-28000000D02*
X83212500Y-25012500D01*
X75050000Y-30814500D02*
X72039500Y-30814500D01*
X83212500Y-25012500D02*
X83225000Y-25000000D01*
X26550000Y-31281200D02*
X26550000Y-30500000D01*
%TO.N,PWM_6*%
D55*
X23137500Y-40925000D02*
X21958300Y-40925000D01*
X21958300Y-40925000D02*
X21486700Y-41396600D01*
%TO.N,PWM_16*%
X71094600Y-36982100D02*
X71137500Y-37025000D01*
X69535700Y-36982100D02*
X71094600Y-36982100D01*
%TO.N,VBUS*%
D58*
X21192700Y-10467700D02*
X22225000Y-11500000D01*
D55*
X26500000Y-6787500D02*
X29500000Y-6825000D01*
D58*
X20000000Y-10467700D02*
X21192700Y-10467700D01*
X22962500Y-6787500D02*
X23000000Y-6825000D01*
X18800000Y-20000000D02*
X18800000Y-11750000D01*
X18800000Y-11750000D02*
X18550000Y-11500000D01*
D56*
X27800000Y-8000000D02*
X25700000Y-8000000D01*
X41200000Y-8000000D02*
X38800000Y-8000000D01*
D58*
X20000000Y-6787500D02*
X20000000Y-10467700D01*
X28250000Y-18037500D02*
X28750000Y-18037500D01*
D56*
X21190000Y-10470000D02*
X21190000Y-8500000D01*
D58*
X28750000Y-18037500D02*
X29250000Y-18037500D01*
X19582300Y-10467700D02*
X20000000Y-10467700D01*
X20000000Y-6787500D02*
X22962500Y-6787500D01*
D56*
X29500000Y-6825000D02*
X29740000Y-6890000D01*
D58*
X18550000Y-11500000D02*
X19582300Y-10467700D01*
D55*
X28750000Y-18040000D02*
X28580000Y-17570000D01*
%TO.N,CHG_STAT*%
X26655800Y-19250000D02*
X27037500Y-19250000D01*
X22962500Y-5212500D02*
X23000000Y-5175000D01*
X26201700Y-18769400D02*
X26201700Y-18795900D01*
X26201700Y-18795900D02*
X26655800Y-19250000D01*
X20000000Y-5212500D02*
X22962500Y-5212500D01*
X24524300Y-6774300D02*
X24524300Y-17092000D01*
X24524300Y-17092000D02*
X26201700Y-18769400D01*
X22962500Y-5212500D02*
X24524300Y-6774300D01*
%TO.N,LED_STATUS*%
X61805000Y-21280000D02*
X61805000Y-20370000D01*
X63212500Y-23000000D02*
X61805000Y-21592500D01*
X61805000Y-21280000D02*
X58750000Y-21280000D01*
X61805000Y-21592500D02*
X61805000Y-21280000D01*
X61805000Y-20370000D02*
X63175000Y-19000000D01*
%TO.N,PWM_15*%
X25596900Y-40508700D02*
X25596900Y-39559200D01*
X15080000Y-51000000D02*
X16107900Y-51000000D01*
X24657400Y-42450500D02*
X24657400Y-41448200D01*
X24657400Y-41448200D02*
X25596900Y-40508700D01*
X25596900Y-39559200D02*
X27481100Y-37675000D01*
X27481100Y-37675000D02*
X28862500Y-37675000D01*
X16107900Y-51000000D02*
X24657400Y-42450500D01*
%TO.N,VBAT*%
D58*
X30725000Y-13500000D02*
X30725000Y-11500000D01*
D59*
X30872600Y-21587800D02*
X30962500Y-21497900D01*
D57*
X30301300Y-23932100D02*
X30872600Y-23360800D01*
D58*
X26025000Y-11500000D02*
X26025000Y-13500000D01*
D57*
X30962500Y-20750000D02*
X30962500Y-21250000D01*
X30962500Y-21497900D02*
X30962500Y-21250000D01*
D58*
X26025000Y-13500000D02*
X30725000Y-13500000D01*
X30725000Y-13500000D02*
X30980000Y-13500000D01*
D59*
X30872600Y-21912000D02*
X30872600Y-21587800D01*
D58*
X30960000Y-21250000D02*
X31090000Y-21470000D01*
D57*
X30872600Y-23360800D02*
X30872600Y-21912000D01*
%TO.N,ESP_EN*%
D55*
X41250000Y-21280000D02*
X39545000Y-21280000D01*
X33225000Y-27600000D02*
X33225000Y-30000000D01*
X41250000Y-21280000D02*
X41500000Y-21280000D01*
X39545000Y-21280000D02*
X34825000Y-26000000D01*
X30900000Y-6000000D02*
X31150000Y-4500000D01*
X34825000Y-26000000D02*
X33225000Y-27600000D01*
%TO.N,I2C_SDA*%
X45900900Y-42924100D02*
X43934200Y-42924100D01*
X41250000Y-32710000D02*
X40248300Y-32710000D01*
X46825000Y-42000000D02*
X45900900Y-42924100D01*
X43053300Y-32982400D02*
X42524100Y-32982400D01*
X28862500Y-34425000D02*
X38533300Y-34425000D01*
X41250000Y-32710000D02*
X42251700Y-32710000D01*
X38533300Y-34425000D02*
X40248300Y-32710000D01*
X77957200Y-34425000D02*
X78209800Y-34677600D01*
X76862500Y-34425000D02*
X77957200Y-34425000D01*
X42524100Y-32982400D02*
X42251700Y-32710000D01*
%TO.N,USB_D-*%
X45635600Y-33980000D02*
X41250000Y-33980000D01*
X48527200Y-31088400D02*
X45635600Y-33980000D01*
X49250000Y-1255000D02*
X49250000Y-2200000D01*
X49250000Y-2200000D02*
X48800000Y-3500000D01*
X50250000Y-2200000D02*
X50700000Y-3500000D01*
X50250000Y-2200000D02*
X50700000Y-3500000D01*
X50250000Y-1255000D02*
X50250000Y-2200000D01*
%TO.N,USB_D+*%
X50750000Y-1255000D02*
X50750000Y-2200000D01*
X50750000Y-2200000D02*
X51800000Y-4500000D01*
X49750000Y-4500000D02*
X51800000Y-4500000D01*
X49750000Y-1255000D02*
X49750000Y-4500000D01*
X50750000Y-1255000D02*
X50750000Y-2200000D01*
X49750000Y-4500000D02*
X49750000Y-1255000D01*
X51800000Y-4500000D02*
X52050000Y-4500000D01*
X51800000Y-4500000D02*
X49750000Y-4500000D01*
X41250000Y-35250000D02*
X41500000Y-35250000D01*
%TO.N,I2C_SCL*%
X42130600Y-35967600D02*
X40331700Y-35967600D01*
X44986700Y-35645700D02*
X44839300Y-35498300D01*
X50903500Y-41921500D02*
X50825000Y-42000000D01*
X46240600Y-34391800D02*
X54007200Y-34391800D01*
X77039400Y-35251900D02*
X79449500Y-35251900D01*
X40331700Y-35967600D02*
X39439100Y-35075000D01*
X42313300Y-35784900D02*
X42130600Y-35967600D01*
X44986700Y-36933400D02*
X44986700Y-35645700D01*
X45555000Y-37501700D02*
X44986700Y-36933400D01*
X45555000Y-36500000D02*
X45555000Y-37501700D01*
X39439100Y-35075000D02*
X28862500Y-35075000D01*
X42460700Y-35498300D02*
X42313300Y-35645700D01*
X51720100Y-41921500D02*
X50903500Y-41921500D01*
X42313300Y-35645700D02*
X42313300Y-35784900D01*
X44839300Y-35498300D02*
X42460700Y-35498300D01*
X44986700Y-35645700D02*
X46240600Y-34391800D01*
X79449500Y-35251900D02*
X79966900Y-34734500D01*
X76862500Y-35075000D02*
X77039400Y-35251900D01*
%TO.N,SERVO_OE*%
X46825000Y-37853500D02*
X46825000Y-37501700D01*
X55595700Y-42770700D02*
X72716400Y-42770700D01*
X28862500Y-37025000D02*
X35261500Y-37025000D01*
X72716400Y-42770700D02*
X73560200Y-41926900D01*
X73560200Y-41926900D02*
X73560200Y-39741300D01*
X36090000Y-37853500D02*
X46825000Y-37853500D01*
X50678500Y-37853500D02*
X46825000Y-37853500D01*
X73560200Y-39741300D02*
X76276500Y-37025000D01*
X54825000Y-42000000D02*
X50678500Y-37853500D01*
X76276500Y-37025000D02*
X76862500Y-37025000D01*
X54825000Y-42000000D02*
X55595700Y-42770700D01*
X35261500Y-37025000D02*
X36090000Y-37853500D01*
X46825000Y-36500000D02*
X46825000Y-37501700D01*
%TO.N,BUZZER*%
X57717500Y-35675000D02*
X57717500Y-35812600D01*
X53175000Y-36500000D02*
X53175000Y-35498300D01*
X53175000Y-35498300D02*
X57540800Y-35498300D01*
X57540800Y-35498300D02*
X57717500Y-35675000D01*
X57908700Y-36003800D02*
X59570300Y-36003800D01*
X57717500Y-35812600D02*
X57908700Y-36003800D01*
X59570300Y-36003800D02*
X63175000Y-32399100D01*
X63175000Y-32399100D02*
X63175000Y-27000000D01*
%TO.N,ESP_IO0*%
X57230000Y-34380000D02*
X58750000Y-35250000D01*
X60150000Y-6000000D02*
X63825000Y-12000000D01*
X59900000Y-6000000D02*
X60150000Y-6000000D01*
%TO.N,UART_RX*%
X58750000Y-23820000D02*
X57748300Y-23820000D01*
X57748300Y-23820000D02*
X57748300Y-30206200D01*
X57748300Y-30206200D02*
X57429100Y-30525400D01*
%TO.N,UART_TX*%
X56947500Y-22177200D02*
X57375500Y-22177200D01*
X57375500Y-22177200D02*
X57748300Y-22550000D01*
X58750000Y-22550000D02*
X57748300Y-22550000D01*
%TO.N,VBAT_SENSE*%
X73175000Y-21200400D02*
X70116600Y-18142000D01*
X62753000Y-18142000D02*
X60885000Y-20010000D01*
X60885000Y-20010000D02*
X58750000Y-20010000D01*
X73175000Y-21200400D02*
X73175000Y-23500000D01*
X70116600Y-18142000D02*
X62753000Y-18142000D01*
X74825000Y-20000000D02*
X73624600Y-21200400D01*
X73175000Y-23500000D02*
X73225000Y-23550000D01*
X73624600Y-21200400D02*
X73175000Y-21200400D01*
X73225000Y-23550000D02*
X73225000Y-27000000D01*
%TO.N,PWM_1*%
X23137500Y-37675000D02*
X23742800Y-37675000D01*
X23742800Y-37675000D02*
X24431600Y-36986200D01*
X24431600Y-36986200D02*
X24431600Y-32509100D01*
%TO.N,VBAT_SW*%
D57*
X29996700Y-53672500D02*
X27672500Y-53672500D01*
D56*
X70350000Y-6000000D02*
X70600000Y-6000000D01*
D57*
X29996800Y-53672400D02*
X29996700Y-53672500D01*
X30525000Y-53144200D02*
X29996800Y-53672400D01*
X72431400Y-19256400D02*
X73175000Y-20000000D01*
X30525000Y-44000000D02*
X30525000Y-53144200D01*
X29996800Y-53672400D02*
X31724300Y-55400000D01*
X27672500Y-53672500D02*
X24000000Y-50000000D01*
X31724300Y-55400000D02*
X34350000Y-55400000D01*
%TO.N,BUCK_SW*%
X34350000Y-52000000D02*
X43500000Y-52000000D01*
X44037000Y-52537000D02*
X45400000Y-52537000D01*
X45400000Y-52537000D02*
X50711300Y-52537000D01*
X50711300Y-52537000D02*
X51248300Y-52000000D01*
X53050000Y-52000000D02*
X51248300Y-52000000D01*
X43500000Y-52000000D02*
X44037000Y-52537000D01*
X45400000Y-63000000D02*
X45400000Y-52537000D01*
%TO.N,LDO_IN*%
D56*
X73650000Y-6000000D02*
X71050000Y-10000000D01*
D58*
X74765100Y-16215100D02*
X76850000Y-18300000D01*
D56*
X73650000Y-6000000D02*
X78000000Y-8000000D01*
D58*
X78000000Y-8000000D02*
X74765100Y-11234900D01*
X74765100Y-11234900D02*
X74765100Y-16215100D01*
%TO.N,PWM_23*%
D55*
X71137500Y-41575000D02*
X71280900Y-41718400D01*
X71280900Y-41718400D02*
X72988500Y-41718400D01*
X72988500Y-41718400D02*
X73008500Y-41698400D01*
%TO.N,CC2*%
X51750000Y-2200000D02*
X52800000Y-3500000D01*
X51750000Y-2200000D02*
X52800000Y-3500000D01*
X51750000Y-1255000D02*
X51750000Y-2200000D01*
%TO.N,PWM_20*%
X71137500Y-39625100D02*
X71137500Y-39625000D01*
X62375900Y-41310100D02*
X62375900Y-40860400D01*
X62375900Y-40860400D02*
X63611200Y-39625100D01*
X63611200Y-39625100D02*
X71137500Y-39625100D01*
%TO.N,PWM_17*%
X71137500Y-37675000D02*
X69915200Y-37675000D01*
%TO.N,PWM_18*%
X71137500Y-38325000D02*
X61611300Y-38325000D01*
X61611300Y-38325000D02*
X60660100Y-37373800D01*
%TO.N,PWM_19*%
X71137500Y-38975000D02*
X58806300Y-38975000D01*
X58806300Y-38975000D02*
X56958400Y-40822900D01*
%TO.N,PWM_21*%
X63789300Y-40275000D02*
X71137500Y-40275000D01*
X63439600Y-40624700D02*
X63789300Y-40275000D01*
%TO.N,PWM_22*%
X71137500Y-40925000D02*
X69426600Y-40925000D01*
X69426600Y-40925000D02*
X69041500Y-41310100D01*
%TO.N,PWM_0*%
X21889000Y-32640200D02*
X21889000Y-36394100D01*
X22519900Y-37025000D02*
X23137500Y-37025000D01*
X22872600Y-31656600D02*
X21889000Y-32640200D01*
X21889000Y-36394100D02*
X22519900Y-37025000D01*
%TO.N,PWM_2*%
X23137500Y-38325000D02*
X24985900Y-38325000D01*
X24985900Y-38325000D02*
X25118800Y-38192100D01*
%TO.N,PWM_3*%
X25399100Y-38975000D02*
X25732000Y-38642100D01*
X23137500Y-38975000D02*
X25399100Y-38975000D01*
%TO.N,PWM_4*%
X24475800Y-39625000D02*
X24479500Y-39628700D01*
X23137500Y-39625000D02*
X24475800Y-39625000D01*
%TO.N,PWM_5*%
X23137500Y-40275000D02*
X25040000Y-40275000D01*
X25040000Y-40275000D02*
X25045200Y-40280200D01*
%TO.N,PWM_7*%
X24128100Y-42482500D02*
X22432800Y-44177800D01*
X24128100Y-41952100D02*
X24128100Y-42482500D01*
X23137500Y-41575000D02*
X23751000Y-41575000D01*
X21693000Y-44177800D02*
X21693000Y-44177900D01*
X23751000Y-41575000D02*
X24128100Y-41952100D01*
X22432800Y-44177800D02*
X21693000Y-44177800D01*
%TO.N,PWM_8*%
X28862500Y-45538500D02*
X29263300Y-45939300D01*
X28862500Y-42225000D02*
X28862500Y-45538500D01*
%TO.N,PWM_10*%
X29476000Y-40925000D02*
X30195300Y-41644300D01*
X28862500Y-40925000D02*
X29476000Y-40925000D01*
X30195300Y-41644300D02*
X30195300Y-41746000D01*
%TO.N,PWM_11*%
X26300300Y-40596200D02*
X26300300Y-39850400D01*
X26474400Y-40770300D02*
X26300300Y-40596200D01*
X27041900Y-39515500D02*
X27801400Y-40275000D01*
X27801400Y-40275000D02*
X28862500Y-40275000D01*
X25353600Y-43274500D02*
X26474400Y-42153700D01*
X26300300Y-39850400D02*
X26635200Y-39515500D01*
X26474400Y-42153700D02*
X26474400Y-40770300D01*
X26635200Y-39515500D02*
X27041900Y-39515500D01*
%TO.N,PWM_12*%
X29763300Y-39625000D02*
X28862500Y-39625000D01*
X30072800Y-39315500D02*
X29763300Y-39625000D01*
%TO.N,PWM_13*%
X25886700Y-41724200D02*
X25948600Y-41662300D01*
X25948600Y-41662300D02*
X25948600Y-39704800D01*
X26678400Y-38975000D02*
X28862500Y-38975000D01*
X25948600Y-39704800D02*
X26678400Y-38975000D01*
%TO.N,PWM_14*%
X30747000Y-41974500D02*
X30747000Y-39114500D01*
X29609200Y-42933800D02*
X29787700Y-42933800D01*
X30747000Y-39114500D02*
X29957500Y-38325000D01*
X29957500Y-38325000D02*
X28862500Y-38325000D01*
X29787700Y-42933800D02*
X30747000Y-41974500D01*
%TO.N,CHG_PG*%
X26500000Y-5212500D02*
X26750000Y-5210000D01*
X28750000Y-21960000D02*
X28750000Y-22760000D01*
X26500000Y-5212500D02*
X29500000Y-5175000D01*
%TO.N,CHG_SW*%
D58*
X31719900Y-19520900D02*
X31449000Y-19250000D01*
X24600000Y-20838000D02*
X24364600Y-20602600D01*
X25768100Y-21753400D02*
X26220600Y-21753400D01*
X23796600Y-20838000D02*
X23796600Y-21370600D01*
X30962500Y-18750000D02*
X30962500Y-19250000D01*
X24600000Y-20950000D02*
X24600000Y-20838000D01*
X25200000Y-21185400D02*
X24964600Y-20950000D01*
X26408700Y-21565300D02*
X29463800Y-24620400D01*
X24364600Y-20602600D02*
X24032000Y-20602600D01*
X24631900Y-21753400D02*
X24867300Y-21988800D01*
X25532700Y-21988800D02*
X25768100Y-21753400D01*
X24179400Y-21753400D02*
X24631900Y-21753400D01*
X24964600Y-20950000D02*
X24600000Y-20950000D01*
X23796600Y-21370600D02*
X24179400Y-21753400D01*
X31719900Y-23467200D02*
X31719900Y-19520900D01*
X24867300Y-21988800D02*
X25532700Y-21988800D01*
X26220600Y-21753400D02*
X26408700Y-21565300D01*
X31449000Y-19250000D02*
X30962500Y-19250000D01*
X30566700Y-24620400D02*
X31719900Y-23467200D01*
X25200000Y-20000000D02*
X25200000Y-21185400D01*
X29463800Y-24620400D02*
X30566700Y-24620400D01*
X24032000Y-20602600D02*
X23796600Y-20838000D01*
%TO.N,BUCK_FB*%
D55*
X48175000Y-62650000D02*
X49825000Y-61000000D01*
X34350000Y-50300000D02*
X36633700Y-50300000D01*
X48175000Y-64000000D02*
X48175000Y-62650000D01*
X36633700Y-50300000D02*
X37431700Y-51098000D01*
X48955900Y-59959800D02*
X49825000Y-60828900D01*
X49825000Y-60828900D02*
X49825000Y-61000000D01*
%TO.N,CC1*%
X48750000Y-2200000D02*
X47200000Y-3500000D01*
X48750000Y-2200000D02*
X47200000Y-3500000D01*
X48750000Y-1255000D02*
X48750000Y-2200000D01*
%TD*%
M02*
