%TF.GenerationSoftware,KiCad,Pcbnew,10.0.6*%
%TF.CreationDate,2026-09-29T14:31:59+01:00*%
%TF.ProjectId,Hexapod_Robot_Board,48657861-706f-4645-9f52-6f626f745f42,rev?*%
%TF.SameCoordinates,Original*%
%TF.FileFunction,Copper,L4,Bot*%
%TF.FilePolarity,Positive*%
%FSLAX46Y46*%
G04 Gerber Fmt 4.6, Leading zero omitted, Abs format (unit mm)*
G04 Created by KiCad (PCBNEW 10.0.6) date 2026-09-29 14:31:59*
%MOMM*%
%LPD*%
G01*
G04 APERTURE LIST*
G04 Aperture macros list*
%AMRoundRect*
0 Rectangle with rounded corners*
0 $1 Rounding radius*
0 $2 $3 $4 $5 $6 $7 $8 $9 X,Y pos of 4 corners*
0 Add a 4 corners polygon primitive as box body*
4,1,4,$2,$3,$4,$5,$6,$7,$8,$9,$2,$3,0*
0 Add four circle primitives for the rounded corners*
1,1,$1+$1,$2,$3*
1,1,$1+$1,$4,$5*
1,1,$1+$1,$6,$7*
1,1,$1+$1,$8,$9*
0 Add four rect primitives between the rounded corners*
20,1,$1+$1,$2,$3,$4,$5,0*
20,1,$1+$1,$4,$5,$6,$7,0*
20,1,$1+$1,$6,$7,$8,$9,0*
20,1,$1+$1,$8,$9,$2,$3,0*%
G04 Aperture macros list end*
%TA.AperFunction,ComponentPad*%
%ADD10R,1.700000X1.700000*%
%TD*%
%TA.AperFunction,ComponentPad*%
%ADD11C,1.700000*%
%TD*%
%TA.AperFunction,ComponentPad*%
%ADD12C,1.400000*%
%TD*%
%TA.AperFunction,ComponentPad*%
%ADD13RoundRect,0.770000X-0.980000X-0.980000X0.980000X-0.980000X0.980000X0.980000X-0.980000X0.980000X0*%
%TD*%
%TA.AperFunction,ComponentPad*%
%ADD14C,3.500000*%
%TD*%
%TA.AperFunction,HeatsinkPad*%
%ADD15C,0.600000*%
%TD*%
%TA.AperFunction,ComponentPad*%
%ADD16C,0.800000*%
%TD*%
%TA.AperFunction,ComponentPad*%
%ADD17C,6.400000*%
%TD*%
%TA.AperFunction,ComponentPad*%
%ADD18RoundRect,0.250000X-0.550000X-0.550000X0.550000X-0.550000X0.550000X0.550000X-0.550000X0.550000X0*%
%TD*%
%TA.AperFunction,ComponentPad*%
%ADD19C,1.600000*%
%TD*%
%TA.AperFunction,ComponentPad*%
%ADD20O,3.500000X2.200000*%
%TD*%
%TA.AperFunction,ComponentPad*%
%ADD21R,2.500000X1.500000*%
%TD*%
%TA.AperFunction,ComponentPad*%
%ADD22O,2.500000X1.500000*%
%TD*%
%TA.AperFunction,HeatsinkPad*%
%ADD23C,0.500000*%
%TD*%
%TA.AperFunction,HeatsinkPad*%
%ADD24R,2.700000X2.700000*%
%TD*%
%TA.AperFunction,ComponentPad*%
%ADD25O,1.000000X2.100000*%
%TD*%
%TA.AperFunction,ComponentPad*%
%ADD26O,1.000000X1.600000*%
%TD*%
%TA.AperFunction,ViaPad*%
%ADD27C,0.600000*%
%TD*%
%TA.AperFunction,ViaPad*%
%ADD28C,0.800000*%
%TD*%
%TA.AperFunction,ViaPad*%
%ADD29C,0.700000*%
%TD*%
%TA.AperFunction,ViaPad*%
%ADD30C,0.500000*%
%TD*%
%TA.AperFunction,ViaPad*%
%ADD31C,0.550000*%
%TD*%
%TA.AperFunction,Conductor*%
%ADD32C,0.350000*%
%TD*%
%TA.AperFunction,Conductor*%
%ADD33C,0.300000*%
%TD*%
%TA.AperFunction,Conductor*%
%ADD34C,0.400000*%
%TD*%
%TA.AperFunction,Conductor*%
%ADD35C,0.250000*%
%TD*%
%TA.AperFunction,Conductor*%
%ADD36C,0.450000*%
%TD*%
%TA.AperFunction,Conductor*%
%ADD37C,0.200000*%
%TD*%
G04 APERTURE END LIST*
D10*
%TO.P,J_L4_C,1*%
%TO.N,GND*%
X10000000Y-15000000D03*
D11*
%TO.P,J_L4_C,2*%
%TO.N,V_SERVO*%
X12540000Y-15000000D03*
%TO.P,J_L4_C,3*%
%TO.N,PWM_9*%
X15080000Y-15000000D03*
%TD*%
D10*
%TO.P,J_L3_C,1*%
%TO.N,GND*%
X90000000Y-51000000D03*
D11*
%TO.P,J_L3_C,2*%
%TO.N,V_SERVO*%
X92540000Y-51000000D03*
%TO.P,J_L3_C,3*%
%TO.N,PWM_6*%
X95080000Y-51000000D03*
%TD*%
D10*
%TO.P,J_L6_F,1*%
%TO.N,GND*%
X10000000Y-55500000D03*
D11*
%TO.P,J_L6_F,2*%
%TO.N,V_SERVO*%
X12540000Y-55500000D03*
%TO.P,J_L6_F,3*%
%TO.N,PWM_16*%
X15080000Y-55500000D03*
%TD*%
D10*
%TO.P,J_L6_C,1*%
%TO.N,GND*%
X10000000Y-51000000D03*
D11*
%TO.P,J_L6_C,2*%
%TO.N,V_SERVO*%
X12540000Y-51000000D03*
%TO.P,J_L6_C,3*%
%TO.N,PWM_15*%
X15080000Y-51000000D03*
%TD*%
D12*
%TO.P,J_BAT,*%
%TO.N,*%
X20000000Y-62000000D03*
X31000000Y-62000000D03*
D13*
%TO.P,J_BAT,1*%
%TO.N,VBAT*%
X28000000Y-72000000D03*
D14*
%TO.P,J_BAT,2*%
%TO.N,GND*%
X23000000Y-72000000D03*
%TD*%
D15*
%TO.P,U1,41*%
%TO.N,GND*%
X47100000Y-25760000D03*
X47100000Y-27160000D03*
X47800000Y-25060000D03*
X47800000Y-26460000D03*
X47800000Y-27860000D03*
X48500000Y-25760000D03*
X48500000Y-27160000D03*
X49200000Y-25060000D03*
X49200000Y-26460000D03*
X49200000Y-27860000D03*
X49900000Y-25760000D03*
X49900000Y-27160000D03*
%TD*%
D10*
%TO.P,J_L1_F,1*%
%TO.N,GND*%
X90000000Y-19500000D03*
D11*
%TO.P,J_L1_F,2*%
%TO.N,V_SERVO*%
X92540000Y-19500000D03*
%TO.P,J_L1_F,3*%
%TO.N,PWM_1*%
X95080000Y-19500000D03*
%TD*%
D16*
%TO.P,H3,1*%
%TO.N,GND*%
X3600000Y-74000000D03*
X4302944Y-72302944D03*
X4302944Y-75697056D03*
X6000000Y-71600000D03*
D17*
X6000000Y-74000000D03*
D16*
X6000000Y-76400000D03*
X7697056Y-72302944D03*
X7697056Y-75697056D03*
X8400000Y-74000000D03*
%TD*%
D18*
%TO.P,C_IN1,1*%
%TO.N,VBAT_SW*%
X24000000Y-50000000D03*
D19*
%TO.P,C_IN1,2*%
%TO.N,GND*%
X27500000Y-50000000D03*
%TD*%
D10*
%TO.P,J_UART,1*%
%TO.N,+3V3*%
X37000000Y-69000000D03*
D11*
%TO.P,J_UART,2*%
%TO.N,GND*%
X37000000Y-71540000D03*
%TO.P,J_UART,3*%
%TO.N,UART_TX*%
X37000000Y-74080000D03*
%TO.P,J_UART,4*%
%TO.N,UART_RX*%
X37000000Y-76620000D03*
%TD*%
D10*
%TO.P,J_AUX6,1*%
%TO.N,GND*%
X73000000Y-71000000D03*
D11*
%TO.P,J_AUX6,2*%
%TO.N,V_SERVO*%
X73000000Y-73540000D03*
%TO.P,J_AUX6,3*%
%TO.N,PWM_23*%
X73000000Y-76080000D03*
%TD*%
D10*
%TO.P,J_AUX3,1*%
%TO.N,GND*%
X55000000Y-71000000D03*
D11*
%TO.P,J_AUX3,2*%
%TO.N,V_SERVO*%
X55000000Y-73540000D03*
%TO.P,J_AUX3,3*%
%TO.N,PWM_20*%
X55000000Y-76080000D03*
%TD*%
D16*
%TO.P,H1,1*%
%TO.N,GND*%
X3600000Y-6000000D03*
X4302944Y-4302944D03*
X4302944Y-7697056D03*
X6000000Y-3600000D03*
D17*
X6000000Y-6000000D03*
D16*
X6000000Y-8400000D03*
X7697056Y-4302944D03*
X7697056Y-7697056D03*
X8400000Y-6000000D03*
%TD*%
D10*
%TO.P,J_AUX5,1*%
%TO.N,GND*%
X67000000Y-71000000D03*
D11*
%TO.P,J_AUX5,2*%
%TO.N,V_SERVO*%
X67000000Y-73540000D03*
%TO.P,J_AUX5,3*%
%TO.N,PWM_22*%
X67000000Y-76080000D03*
%TD*%
D16*
%TO.P,H4,1*%
%TO.N,GND*%
X91600000Y-74000000D03*
X92302944Y-72302944D03*
X92302944Y-75697056D03*
X94000000Y-71600000D03*
D17*
X94000000Y-74000000D03*
D16*
X94000000Y-76400000D03*
X95697056Y-72302944D03*
X95697056Y-75697056D03*
X96400000Y-74000000D03*
%TD*%
D10*
%TO.P,J_L2_C,1*%
%TO.N,GND*%
X90000000Y-33000000D03*
D11*
%TO.P,J_L2_C,2*%
%TO.N,V_SERVO*%
X92540000Y-33000000D03*
%TO.P,J_L2_C,3*%
%TO.N,PWM_3*%
X95080000Y-33000000D03*
%TD*%
D10*
%TO.P,J_AUX4,1*%
%TO.N,GND*%
X61000000Y-71000000D03*
D11*
%TO.P,J_AUX4,2*%
%TO.N,V_SERVO*%
X61000000Y-73540000D03*
%TO.P,J_AUX4,3*%
%TO.N,PWM_21*%
X61000000Y-76080000D03*
%TD*%
D10*
%TO.P,J_L2_F,1*%
%TO.N,GND*%
X90000000Y-37500000D03*
D11*
%TO.P,J_L2_F,2*%
%TO.N,V_SERVO*%
X92540000Y-37500000D03*
%TO.P,J_L2_F,3*%
%TO.N,PWM_4*%
X95080000Y-37500000D03*
%TD*%
D10*
%TO.P,J_L4_F,1*%
%TO.N,GND*%
X10000000Y-19500000D03*
D11*
%TO.P,J_L4_F,2*%
%TO.N,V_SERVO*%
X12540000Y-19500000D03*
%TO.P,J_L4_F,3*%
%TO.N,PWM_10*%
X15080000Y-19500000D03*
%TD*%
D16*
%TO.P,H2,1*%
%TO.N,GND*%
X91600000Y-6000000D03*
X92302944Y-4302944D03*
X92302944Y-7697056D03*
X94000000Y-3600000D03*
D17*
X94000000Y-6000000D03*
D16*
X94000000Y-8400000D03*
X95697056Y-4302944D03*
X95697056Y-7697056D03*
X96400000Y-6000000D03*
%TD*%
D20*
%TO.P,SW_PWR,*%
%TO.N,*%
X14000000Y-73100000D03*
X14000000Y-64900000D03*
D21*
%TO.P,SW_PWR,1*%
%TO.N,VBAT*%
X14000000Y-71000000D03*
D22*
%TO.P,SW_PWR,2*%
%TO.N,VBAT_SW*%
X14000000Y-69000000D03*
%TO.P,SW_PWR,3*%
X14000000Y-67000000D03*
%TD*%
D10*
%TO.P,J_L2_T,1*%
%TO.N,GND*%
X90000000Y-42000000D03*
D11*
%TO.P,J_L2_T,2*%
%TO.N,V_SERVO*%
X92540000Y-42000000D03*
%TO.P,J_L2_T,3*%
%TO.N,PWM_5*%
X95080000Y-42000000D03*
%TD*%
D10*
%TO.P,J_L1_C,1*%
%TO.N,GND*%
X90000000Y-15000000D03*
D11*
%TO.P,J_L1_C,2*%
%TO.N,V_SERVO*%
X92540000Y-15000000D03*
%TO.P,J_L1_C,3*%
%TO.N,PWM_0*%
X95080000Y-15000000D03*
%TD*%
D10*
%TO.P,J_L6_T,1*%
%TO.N,GND*%
X10000000Y-60000000D03*
D11*
%TO.P,J_L6_T,2*%
%TO.N,V_SERVO*%
X12540000Y-60000000D03*
%TO.P,J_L6_T,3*%
%TO.N,PWM_17*%
X15080000Y-60000000D03*
%TD*%
D10*
%TO.P,J_AUX1,1*%
%TO.N,GND*%
X43000000Y-71000000D03*
D11*
%TO.P,J_AUX1,2*%
%TO.N,V_SERVO*%
X43000000Y-73540000D03*
%TO.P,J_AUX1,3*%
%TO.N,PWM_18*%
X43000000Y-76080000D03*
%TD*%
D10*
%TO.P,J_AUX2,1*%
%TO.N,GND*%
X49000000Y-71000000D03*
D11*
%TO.P,J_AUX2,2*%
%TO.N,V_SERVO*%
X49000000Y-73540000D03*
%TO.P,J_AUX2,3*%
%TO.N,PWM_19*%
X49000000Y-76080000D03*
%TD*%
D10*
%TO.P,J_L3_T,1*%
%TO.N,GND*%
X90000000Y-60000000D03*
D11*
%TO.P,J_L3_T,2*%
%TO.N,V_SERVO*%
X92540000Y-60000000D03*
%TO.P,J_L3_T,3*%
%TO.N,PWM_8*%
X95080000Y-60000000D03*
%TD*%
D23*
%TO.P,U2,25*%
%TO.N,GND*%
X27900000Y-18900000D03*
X27900000Y-20000000D03*
X27900000Y-21100000D03*
X29000000Y-18900000D03*
X29000000Y-20000000D03*
D24*
X29000000Y-20000000D03*
D23*
X29000000Y-21100000D03*
X30100000Y-18900000D03*
X30100000Y-20000000D03*
X30100000Y-21100000D03*
%TD*%
D10*
%TO.P,J_L5_C,1*%
%TO.N,GND*%
X10000000Y-33000000D03*
D11*
%TO.P,J_L5_C,2*%
%TO.N,V_SERVO*%
X12540000Y-33000000D03*
%TO.P,J_L5_C,3*%
%TO.N,PWM_12*%
X15080000Y-33000000D03*
%TD*%
D10*
%TO.P,J_L5_T,1*%
%TO.N,GND*%
X10000000Y-42000000D03*
D11*
%TO.P,J_L5_T,2*%
%TO.N,V_SERVO*%
X12540000Y-42000000D03*
%TO.P,J_L5_T,3*%
%TO.N,PWM_14*%
X15080000Y-42000000D03*
%TD*%
D18*
%TO.P,C_ISO1,1*%
%TO.N,LDO_IN*%
X78000000Y-8000000D03*
D19*
%TO.P,C_ISO1,2*%
%TO.N,GND*%
X81500000Y-8000000D03*
%TD*%
D10*
%TO.P,J_I2C,1*%
%TO.N,+3V3*%
X79000000Y-69000000D03*
D11*
%TO.P,J_I2C,2*%
%TO.N,GND*%
X79000000Y-71540000D03*
%TO.P,J_I2C,3*%
%TO.N,I2C_SCL*%
X79000000Y-74080000D03*
%TO.P,J_I2C,4*%
%TO.N,I2C_SDA*%
X79000000Y-76620000D03*
%TD*%
D10*
%TO.P,J_L5_F,1*%
%TO.N,GND*%
X10000000Y-37500000D03*
D11*
%TO.P,J_L5_F,2*%
%TO.N,V_SERVO*%
X12540000Y-37500000D03*
%TO.P,J_L5_F,3*%
%TO.N,PWM_13*%
X15080000Y-37500000D03*
%TD*%
D10*
%TO.P,J_L3_F,1*%
%TO.N,GND*%
X90000000Y-55500000D03*
D11*
%TO.P,J_L3_F,2*%
%TO.N,V_SERVO*%
X92540000Y-55500000D03*
%TO.P,J_L3_F,3*%
%TO.N,PWM_7*%
X95080000Y-55500000D03*
%TD*%
D10*
%TO.P,J_L4_T,1*%
%TO.N,GND*%
X10000000Y-24000000D03*
D11*
%TO.P,J_L4_T,2*%
%TO.N,V_SERVO*%
X12540000Y-24000000D03*
%TO.P,J_L4_T,3*%
%TO.N,PWM_11*%
X15080000Y-24000000D03*
%TD*%
D25*
%TO.P,J1,SH*%
%TO.N,GND*%
X24320000Y-7005000D03*
D26*
X24320000Y-2825000D03*
D25*
X15680000Y-7005000D03*
D26*
X15680000Y-2825000D03*
%TD*%
D18*
%TO.P,C_OUT1,1*%
%TO.N,V_SERVO*%
X71000000Y-50000000D03*
D19*
%TO.P,C_OUT1,2*%
%TO.N,GND*%
X74500000Y-50000000D03*
%TD*%
D10*
%TO.P,J_L1_T,1*%
%TO.N,GND*%
X90000000Y-24000000D03*
D11*
%TO.P,J_L1_T,2*%
%TO.N,V_SERVO*%
X92540000Y-24000000D03*
%TO.P,J_L1_T,3*%
%TO.N,PWM_2*%
X95080000Y-24000000D03*
%TD*%
D27*
%TO.N,GND*%
X75706200Y-26988100D03*
X29426900Y-31004300D03*
X75541000Y-22784000D03*
X31594400Y-48910800D03*
X85816300Y-22866300D03*
X57528900Y-18520600D03*
X34775000Y-29058500D03*
X85701300Y-25147600D03*
X65710200Y-18693700D03*
X64350000Y-6000000D03*
X42471100Y-18520600D03*
X32525000Y-9500000D03*
X76294700Y-59880300D03*
X72684700Y-61741500D03*
X20450000Y-12698600D03*
X65535800Y-27710800D03*
X35951500Y-18043000D03*
X29225000Y-9500000D03*
X34528900Y-43850700D03*
X51008100Y-63762800D03*
D28*
X15680000Y-3800000D03*
D27*
X75390500Y-13266000D03*
X35717000Y-21887400D03*
D28*
X65099999Y-6000000D03*
D27*
X40326700Y-63762800D03*
X23775000Y-12450200D03*
X31596000Y-54283200D03*
D28*
X24320000Y-3800000D03*
D27*
X69927000Y-34352900D03*
X77952100Y-54851600D03*
X85691200Y-28118000D03*
X77564300Y-28850500D03*
X76783000Y-55335000D03*
X85687100Y-30844900D03*
X69925000Y-42215700D03*
D28*
X13800000Y-5250000D03*
X38600000Y-5500000D03*
D27*
X21931500Y-42041400D03*
X65507500Y-22280000D03*
X73702500Y-30133800D03*
X22479800Y-33117300D03*
X67500000Y-6000000D03*
X69620300Y-56718900D03*
X27640200Y-36250400D03*
X75662900Y-36331600D03*
X24275000Y-29554100D03*
X73200000Y-10000000D03*
D29*
%TO.N,V_SERVO*%
X68415800Y-61741500D03*
X78035300Y-56717000D03*
X47458000Y-61832600D03*
X78139500Y-60490600D03*
X60977500Y-51829200D03*
X72485800Y-60156300D03*
D27*
%TO.N,PWM_9*%
X26852700Y-40106500D03*
%TO.N,+3V3*%
X37159800Y-33449300D03*
X77100000Y-16000000D03*
X42494000Y-42672300D03*
X78990800Y-34392100D03*
X62420000Y-12000000D03*
%TO.N,PWM_6*%
X21486700Y-41396600D03*
%TO.N,PWM_16*%
X34879700Y-38688100D03*
X69535700Y-36982100D03*
D30*
%TO.N,VBUS*%
X18550000Y-17600000D03*
X28750000Y-8025000D03*
X22225000Y-17600000D03*
X28250000Y-17000000D03*
%TO.N,CHG_STAT*%
X26100000Y-6375000D03*
X26100000Y-16500000D03*
D27*
%TO.N,VBAT*%
X31090000Y-21470000D03*
D29*
X30301300Y-23932100D03*
D27*
X30980000Y-13500000D03*
D30*
%TO.N,ESP_EN*%
X36800000Y-3800000D03*
X36800000Y-21280000D03*
D27*
%TO.N,I2C_SDA*%
X43934200Y-42924100D03*
X43313100Y-34946500D03*
X43053300Y-32982400D03*
X78209800Y-34677600D03*
D30*
%TO.N,USB_D-*%
X19750000Y-1050000D03*
X41250000Y-33980000D03*
%TO.N,USB_D+*%
X41500000Y-35250000D03*
X19250000Y-1650000D03*
D27*
%TO.N,I2C_SCL*%
X79966900Y-34734500D03*
X51720100Y-41921500D03*
X80945300Y-42600400D03*
X54007200Y-34391800D03*
D30*
%TO.N,ESP_IO0*%
X65200000Y-10500000D03*
D31*
X57230000Y-34380000D03*
D27*
%TO.N,UART_RX*%
X57429100Y-30525400D03*
%TO.N,UART_TX*%
X56947500Y-22177200D03*
%TO.N,PWM_1*%
X24431600Y-32509100D03*
D29*
%TO.N,VBAT_SW*%
X35201400Y-24637400D03*
D27*
X70600000Y-6000000D03*
D29*
X72431400Y-19256400D03*
D27*
%TO.N,PWM_23*%
X73008500Y-41698400D03*
D30*
%TO.N,CC2*%
X11175000Y-6500000D03*
X18250000Y-8800000D03*
D27*
%TO.N,PWM_20*%
X62375900Y-41310100D03*
%TO.N,PWM_17*%
X32367100Y-39010500D03*
X69915200Y-37675000D03*
%TO.N,PWM_18*%
X60660100Y-37373800D03*
%TO.N,PWM_19*%
X56958400Y-40822900D03*
%TO.N,PWM_21*%
X63439600Y-40624700D03*
%TO.N,PWM_22*%
X69041500Y-41310100D03*
%TO.N,PWM_0*%
X22872600Y-31656600D03*
%TO.N,PWM_2*%
X25118800Y-38192100D03*
%TO.N,PWM_3*%
X25732000Y-38642100D03*
%TO.N,PWM_4*%
X24479500Y-39628700D03*
%TO.N,PWM_5*%
X25045200Y-40280200D03*
%TO.N,PWM_7*%
X21693000Y-44177900D03*
%TO.N,PWM_8*%
X29263300Y-45939300D03*
%TO.N,PWM_10*%
X19269800Y-40957300D03*
X30195300Y-41746000D03*
%TO.N,PWM_11*%
X25353600Y-43274500D03*
%TO.N,PWM_12*%
X30072800Y-39315500D03*
%TO.N,PWM_13*%
X25886700Y-41724200D03*
%TO.N,PWM_14*%
X29609200Y-42933800D03*
D30*
%TO.N,CHG_PG*%
X31800000Y-6375000D03*
X28750000Y-22800000D03*
D27*
%TO.N,BUCK_FB*%
X37431700Y-51098000D03*
X48955900Y-59959800D03*
D30*
%TO.N,CC1*%
X11175000Y-4000000D03*
X21250000Y-9600000D03*
%TD*%
%TO.N,GND*%
D32*
X43000000Y-71000000D02*
X49000000Y-71000000D01*
D33*
X79000000Y-71540000D02*
X73000000Y-71000000D01*
%TO.N,V_SERVO*%
D34*
X92540000Y-37500000D02*
X92540000Y-33000000D01*
%TO.N,+3V3*%
D35*
X62420000Y-12000000D02*
X62420000Y-20500000D01*
X62420000Y-20500000D02*
X77100000Y-20500000D01*
X77100000Y-20500000D02*
X77100000Y-16000000D01*
%TO.N,VBUS*%
D34*
X28250000Y-17600000D02*
X28250000Y-17000000D01*
D32*
X27500000Y-8025000D02*
X28750000Y-8025000D01*
X22225000Y-17600000D02*
X27500000Y-17600000D01*
X27500000Y-17600000D02*
X27500000Y-8025000D01*
D36*
X22225000Y-17600000D02*
X28250000Y-17600000D01*
X18550000Y-17600000D02*
X22225000Y-17600000D01*
%TO.N,CHG_STAT*%
D37*
X26100000Y-6375000D02*
X26100000Y-16500000D01*
%TO.N,VBAT*%
D33*
X30980000Y-13500000D02*
X31090000Y-21470000D01*
%TO.N,ESP_EN*%
D35*
X36800000Y-3800000D02*
X36800000Y-21280000D01*
%TO.N,USB_D-*%
D37*
X40000000Y-1050000D02*
X40000000Y-33980000D01*
X19750000Y-1050000D02*
X40000000Y-1050000D01*
X40000000Y-33980000D02*
X41250000Y-33980000D01*
%TO.N,USB_D+*%
X39500000Y-1650000D02*
X39500000Y-35250000D01*
X39500000Y-35250000D02*
X41500000Y-35250000D01*
X19250000Y-1650000D02*
X39500000Y-1650000D01*
%TO.N,ESP_IO0*%
D35*
X55000000Y-34380000D02*
X57230000Y-34380000D01*
X55000000Y-10500000D02*
X55000000Y-34380000D01*
X65200000Y-10500000D02*
X55000000Y-10500000D01*
%TO.N,VBAT_SW*%
X70600000Y-19256400D02*
X72431400Y-19256400D01*
X70600000Y-6000000D02*
X70600000Y-19256400D01*
%TO.N,CC2*%
D37*
X11175000Y-8800000D02*
X11175000Y-6500000D01*
X18250000Y-8800000D02*
X11175000Y-8800000D01*
%TO.N,CHG_PG*%
X31800000Y-22800000D02*
X28750000Y-22800000D01*
X31800000Y-6375000D02*
X31800000Y-22800000D01*
%TO.N,CC1*%
X21250000Y-9600000D02*
X10000000Y-9600000D01*
X10000000Y-4000000D02*
X11175000Y-4000000D01*
X10000000Y-9600000D02*
X10000000Y-4000000D01*
%TD*%
M02*
