%TF.GenerationSoftware,KiCad,Pcbnew,10.0.6*%
%TF.CreationDate,2026-09-28T06:23:18+01:00*%
%TF.ProjectId,Hexapod_Robot_Board,48657861-706f-4645-9f52-6f626f745f42,rev?*%
%TF.SameCoordinates,Original*%
%TF.FileFunction,Paste,Top*%
%TF.FilePolarity,Positive*%
%FSLAX46Y46*%
G04 Gerber Fmt 4.6, Leading zero omitted, Abs format (unit mm)*
G04 Created by KiCad (PCBNEW 10.0.6) date 2026-09-28 06:23:18*
%MOMM*%
%LPD*%
G01*
G04 APERTURE LIST*
G04 Aperture macros list*
%AMRoundRect*
0 Rectangle with rounded corners*
0 $1 Rounding radius*
0 $2 $3 $4 $5 $6 $7 $8 $9 X,Y pos of 4 corners*
0 Add a 4 corners polygon primitive as box body*
4,1,4,$2,$3,$4,$5,$6,$7,$8,$9,$2,$3,0*
0 Add four circle primitives for the rounded corners*
1,1,$1+$1,$2,$3*
1,1,$1+$1,$4,$5*
1,1,$1+$1,$6,$7*
1,1,$1+$1,$8,$9*
0 Add four rect primitives between the rounded corners*
20,1,$1+$1,$2,$3,$4,$5,0*
20,1,$1+$1,$4,$5,$6,$7,0*
20,1,$1+$1,$6,$7,$8,$9,0*
20,1,$1+$1,$8,$9,$2,$3,0*%
G04 Aperture macros list end*
%ADD10RoundRect,0.225000X-0.225000X-0.250000X0.225000X-0.250000X0.225000X0.250000X-0.225000X0.250000X0*%
%ADD11RoundRect,0.200000X0.275000X-0.200000X0.275000X0.200000X-0.275000X0.200000X-0.275000X-0.200000X0*%
%ADD12RoundRect,0.200000X-0.200000X-0.275000X0.200000X-0.275000X0.200000X0.275000X-0.200000X0.275000X0*%
%ADD13R,0.900000X0.900000*%
%ADD14R,1.500000X0.900000*%
%ADD15R,0.900000X1.500000*%
%ADD16RoundRect,0.250000X0.650000X-0.325000X0.650000X0.325000X-0.650000X0.325000X-0.650000X-0.325000X0*%
%ADD17R,2.900000X5.400000*%
%ADD18RoundRect,0.375000X-0.625000X-0.375000X0.625000X-0.375000X0.625000X0.375000X-0.625000X0.375000X0*%
%ADD19RoundRect,0.500000X-0.500000X-1.400000X0.500000X-1.400000X0.500000X1.400000X-0.500000X1.400000X0*%
%ADD20RoundRect,0.250000X-0.250000X-0.475000X0.250000X-0.475000X0.250000X0.475000X-0.250000X0.475000X0*%
%ADD21RoundRect,0.100000X-0.637500X-0.100000X0.637500X-0.100000X0.637500X0.100000X-0.637500X0.100000X0*%
%ADD22RoundRect,0.218750X0.256250X-0.218750X0.256250X0.218750X-0.256250X0.218750X-0.256250X-0.218750X0*%
%ADD23RoundRect,0.200000X-0.200000X-0.800000X0.200000X-0.800000X0.200000X0.800000X-0.200000X0.800000X0*%
%ADD24RoundRect,0.225000X-0.225000X-0.375000X0.225000X-0.375000X0.225000X0.375000X-0.225000X0.375000X0*%
%ADD25R,1.500000X2.200000*%
%ADD26RoundRect,0.250000X-0.335000X-0.335000X0.335000X-0.335000X0.335000X0.335000X-0.335000X0.335000X0*%
%ADD27RoundRect,0.062500X-0.350000X-0.062500X0.350000X-0.062500X0.350000X0.062500X-0.350000X0.062500X0*%
%ADD28RoundRect,0.062500X-0.062500X-0.350000X0.062500X-0.350000X0.062500X0.350000X-0.062500X0.350000X0*%
%ADD29RoundRect,0.218750X-0.218750X-0.256250X0.218750X-0.256250X0.218750X0.256250X-0.218750X0.256250X0*%
%ADD30RoundRect,0.250000X-0.325000X-0.650000X0.325000X-0.650000X0.325000X0.650000X-0.325000X0.650000X0*%
%ADD31RoundRect,0.250000X-2.025000X-2.375000X2.025000X-2.375000X2.025000X2.375000X-2.025000X2.375000X0*%
%ADD32RoundRect,0.250000X-2.050000X-0.300000X2.050000X-0.300000X2.050000X0.300000X-2.050000X0.300000X0*%
%ADD33RoundRect,0.150000X-0.150000X-0.500000X0.150000X-0.500000X0.150000X0.500000X-0.150000X0.500000X0*%
%ADD34RoundRect,0.075000X-0.075000X-0.575000X0.075000X-0.575000X0.075000X0.575000X-0.075000X0.575000X0*%
%ADD35RoundRect,0.250000X1.000000X-1.400000X1.000000X1.400000X-1.000000X1.400000X-1.000000X-1.400000X0*%
G04 APERTURE END LIST*
D10*
%TO.C,C_PCA3*%
X71225000Y-30000000D03*
X72775000Y-30000000D03*
%TD*%
D11*
%TO.C,R_CHG*%
X23000000Y-6825000D03*
X23000000Y-5175000D03*
%TD*%
D12*
%TO.C,R_STAT*%
X63175000Y-19000000D03*
X64825000Y-19000000D03*
%TD*%
D10*
%TO.C,C_VBUS2*%
X22225000Y-11500000D03*
X23775000Y-11500000D03*
%TD*%
D13*
%TO.C,U1*%
X47100000Y-25060000D03*
X47100000Y-26460000D03*
X47100000Y-27860000D03*
X48500000Y-25060000D03*
X48500000Y-26460000D03*
X48500000Y-27860000D03*
X49900000Y-25060000D03*
X49900000Y-26460000D03*
X49900000Y-27860000D03*
D14*
X41250000Y-18740000D03*
X41250000Y-20010000D03*
X41250000Y-21280000D03*
X41250000Y-22550000D03*
X41250000Y-23820000D03*
X41250000Y-25090000D03*
X41250000Y-26360000D03*
X41250000Y-27630000D03*
X41250000Y-28900000D03*
X41250000Y-30170000D03*
X41250000Y-31440000D03*
X41250000Y-32710000D03*
X41250000Y-33980000D03*
X41250000Y-35250000D03*
D15*
X43015000Y-36500000D03*
X44285000Y-36500000D03*
X45555000Y-36500000D03*
X46825000Y-36500000D03*
X48095000Y-36500000D03*
X49365000Y-36500000D03*
X50635000Y-36500000D03*
X51905000Y-36500000D03*
X53175000Y-36500000D03*
X54445000Y-36500000D03*
X55715000Y-36500000D03*
X56985000Y-36500000D03*
D14*
X58750000Y-35250000D03*
X58750000Y-33980000D03*
X58750000Y-32710000D03*
X58750000Y-31440000D03*
X58750000Y-30170000D03*
X58750000Y-28900000D03*
X58750000Y-27630000D03*
X58750000Y-26360000D03*
X58750000Y-25090000D03*
X58750000Y-23820000D03*
X58750000Y-22550000D03*
X58750000Y-21280000D03*
X58750000Y-20010000D03*
X58750000Y-18740000D03*
%TD*%
D10*
%TO.C,C2*%
X33225000Y-22000000D03*
X34775000Y-22000000D03*
%TD*%
D16*
%TO.C,C_OUT2*%
X71000000Y-59475000D03*
X71000000Y-56525000D03*
%TD*%
D12*
%TO.C,R_SDA*%
X45175000Y-42000000D03*
X46825000Y-42000000D03*
%TD*%
D10*
%TO.C,C_DIV*%
X73225000Y-27000000D03*
X74775000Y-27000000D03*
%TD*%
D17*
%TO.C,L_SERVO*%
X53050000Y-52000000D03*
X62950000Y-52000000D03*
%TD*%
D18*
%TO.C,U4*%
X76850000Y-13700000D03*
X76850000Y-16000000D03*
D19*
X83150000Y-16000000D03*
D18*
X76850000Y-18300000D03*
%TD*%
D11*
%TO.C,R_CC2*%
X58000000Y-5825000D03*
X58000000Y-4175000D03*
%TD*%
D20*
%TO.C,C_3V3_1*%
X83050000Y-22000000D03*
X84950000Y-22000000D03*
%TD*%
D21*
%TO.C,U6*%
X71137500Y-33775000D03*
X71137500Y-34425000D03*
X71137500Y-35075000D03*
X71137500Y-35725000D03*
X71137500Y-36375000D03*
X71137500Y-37025000D03*
X71137500Y-37675000D03*
X71137500Y-38325000D03*
X71137500Y-38975000D03*
X71137500Y-39625000D03*
X71137500Y-40275000D03*
X71137500Y-40925000D03*
X71137500Y-41575000D03*
X71137500Y-42225000D03*
X76862500Y-42225000D03*
X76862500Y-41575000D03*
X76862500Y-40925000D03*
X76862500Y-40275000D03*
X76862500Y-39625000D03*
X76862500Y-38975000D03*
X76862500Y-38325000D03*
X76862500Y-37675000D03*
X76862500Y-37025000D03*
X76862500Y-36375000D03*
X76862500Y-35725000D03*
X76862500Y-35075000D03*
X76862500Y-34425000D03*
X76862500Y-33775000D03*
%TD*%
%TO.C,U5*%
X23137500Y-33775000D03*
X23137500Y-34425000D03*
X23137500Y-35075000D03*
X23137500Y-35725000D03*
X23137500Y-36375000D03*
X23137500Y-37025000D03*
X23137500Y-37675000D03*
X23137500Y-38325000D03*
X23137500Y-38975000D03*
X23137500Y-39625000D03*
X23137500Y-40275000D03*
X23137500Y-40925000D03*
X23137500Y-41575000D03*
X23137500Y-42225000D03*
X28862500Y-42225000D03*
X28862500Y-41575000D03*
X28862500Y-40925000D03*
X28862500Y-40275000D03*
X28862500Y-39625000D03*
X28862500Y-38975000D03*
X28862500Y-38325000D03*
X28862500Y-37675000D03*
X28862500Y-37025000D03*
X28862500Y-36375000D03*
X28862500Y-35725000D03*
X28862500Y-35075000D03*
X28862500Y-34425000D03*
X28862500Y-33775000D03*
%TD*%
D12*
%TO.C,R_DIV2*%
X73175000Y-23500000D03*
X74825000Y-23500000D03*
%TD*%
D20*
%TO.C,C1*%
X33050000Y-18000000D03*
X34950000Y-18000000D03*
%TD*%
D10*
%TO.C,C_3V3_2*%
X83225000Y-25000000D03*
X84775000Y-25000000D03*
%TD*%
D22*
%TO.C,LED_CHG*%
X20000000Y-6787500D03*
X20000000Y-5212500D03*
%TD*%
D12*
%TO.C,R_DIV1*%
X73175000Y-20000000D03*
X74825000Y-20000000D03*
%TD*%
%TO.C,R_OE*%
X53175000Y-42000000D03*
X54825000Y-42000000D03*
%TD*%
%TO.C,R1*%
X33175000Y-26000000D03*
X34825000Y-26000000D03*
%TD*%
D23*
%TO.C,SW1*%
X30900000Y-6000000D03*
X35100000Y-6000000D03*
%TD*%
D22*
%TO.C,LED_FULL*%
X26500000Y-6787500D03*
X26500000Y-5212500D03*
%TD*%
D11*
%TO.C,R_SERVO_LED*%
X77000000Y-60825000D03*
X77000000Y-59175000D03*
%TD*%
D12*
%TO.C,R2*%
X62175000Y-12000000D03*
X63825000Y-12000000D03*
%TD*%
%TO.C,R_BZ*%
X63175000Y-27000000D03*
X64825000Y-27000000D03*
%TD*%
D10*
%TO.C,C3*%
X33225000Y-30000000D03*
X34775000Y-30000000D03*
%TD*%
D12*
%TO.C,R_3V3_LED*%
X83175000Y-31000000D03*
X84825000Y-31000000D03*
%TD*%
D10*
%TO.C,C_PCA1*%
X22725000Y-30500000D03*
X24275000Y-30500000D03*
%TD*%
%TO.C,C_OUT3*%
X70225000Y-62000000D03*
X71775000Y-62000000D03*
%TD*%
D20*
%TO.C,C_ISO2*%
X71050000Y-10000000D03*
X72950000Y-10000000D03*
%TD*%
D10*
%TO.C,C_BAT2*%
X30725000Y-11500000D03*
X32275000Y-11500000D03*
%TD*%
D24*
%TO.C,D_ISO*%
X70350000Y-6000000D03*
X73650000Y-6000000D03*
%TD*%
D23*
%TO.C,SW2*%
X59900000Y-6000000D03*
X64100000Y-6000000D03*
%TD*%
D25*
%TO.C,L_CHG*%
X18800000Y-20000000D03*
X25200000Y-20000000D03*
%TD*%
D20*
%TO.C,C_PCA2*%
X26550000Y-30500000D03*
X28450000Y-30500000D03*
%TD*%
D26*
%TO.C,U2*%
X28325000Y-19325000D03*
X28325000Y-20675000D03*
X29675000Y-19325000D03*
X29675000Y-20675000D03*
D27*
X27037500Y-18750000D03*
X27037500Y-19250000D03*
X27037500Y-19750000D03*
X27037500Y-20250000D03*
X27037500Y-20750000D03*
X27037500Y-21250000D03*
D28*
X27750000Y-21962500D03*
X28250000Y-21962500D03*
X28750000Y-21962500D03*
X29250000Y-21962500D03*
X29750000Y-21962500D03*
X30250000Y-21962500D03*
D27*
X30962500Y-21250000D03*
X30962500Y-20750000D03*
X30962500Y-20250000D03*
X30962500Y-19750000D03*
X30962500Y-19250000D03*
X30962500Y-18750000D03*
D28*
X30250000Y-18037500D03*
X29750000Y-18037500D03*
X29250000Y-18037500D03*
X28750000Y-18037500D03*
X28250000Y-18037500D03*
X27750000Y-18037500D03*
%TD*%
D20*
%TO.C,C_PCA4*%
X75050000Y-30000000D03*
X76950000Y-30000000D03*
%TD*%
D29*
%TO.C,LED_3V3*%
X83212500Y-28000000D03*
X84787500Y-28000000D03*
%TD*%
D12*
%TO.C,R_FB1*%
X48175000Y-61000000D03*
X49825000Y-61000000D03*
%TD*%
D30*
%TO.C,C_BAT1*%
X26025000Y-11500000D03*
X28975000Y-11500000D03*
%TD*%
%TO.C,C_IN2*%
X30525000Y-44000000D03*
X33475000Y-44000000D03*
%TD*%
D31*
%TO.C,U3*%
X41075000Y-49225000D03*
X41075000Y-54775000D03*
X45925000Y-49225000D03*
X45925000Y-54775000D03*
D32*
X34350000Y-48600000D03*
X34350000Y-50300000D03*
X34350000Y-52000000D03*
X34350000Y-53700000D03*
X34350000Y-55400000D03*
%TD*%
D12*
%TO.C,R_SCL*%
X49175000Y-42000000D03*
X50825000Y-42000000D03*
%TD*%
D22*
%TO.C,LED_SERVO*%
X77000000Y-56787500D03*
X77000000Y-55212500D03*
%TD*%
D12*
%TO.C,R_FB2*%
X48175000Y-64000000D03*
X49825000Y-64000000D03*
%TD*%
D11*
%TO.C,R_FULL*%
X29500000Y-6825000D03*
X29500000Y-5175000D03*
%TD*%
D20*
%TO.C,C_VBUS1*%
X18550000Y-11500000D03*
X20450000Y-11500000D03*
%TD*%
D33*
%TO.C,J1*%
X46800000Y-1255000D03*
X47600000Y-1255000D03*
D34*
X48750000Y-1255000D03*
X49750000Y-1255000D03*
X50250000Y-1255000D03*
X51250000Y-1255000D03*
D33*
X52400000Y-1255000D03*
X53200000Y-1255000D03*
X53200000Y-1255000D03*
X52400000Y-1255000D03*
D34*
X51750000Y-1255000D03*
X50750000Y-1255000D03*
X49250000Y-1255000D03*
X48250000Y-1255000D03*
D33*
X47600000Y-1255000D03*
X46800000Y-1255000D03*
%TD*%
D29*
%TO.C,D_STAT*%
X63212500Y-23000000D03*
X64787500Y-23000000D03*
%TD*%
D35*
%TO.C,D_CATCH*%
X38600000Y-63000000D03*
X45400000Y-63000000D03*
%TD*%
D11*
%TO.C,R_CC1*%
X42000000Y-5825000D03*
X42000000Y-4175000D03*
%TD*%
M02*
