%TF.GenerationSoftware,KiCad,Pcbnew,10.0.6*%
%TF.CreationDate,2026-10-07T06:19:42+01:00*%
%TF.ProjectId,Hexapod_Robot_Board,48657861-706f-4645-9f52-6f626f745f42,rev?*%
%TF.SameCoordinates,Original*%
%TF.FileFunction,Copper,L1,Top*%
%TF.FilePolarity,Positive*%
%FSLAX46Y46*%
G04 Gerber Fmt 4.6, Leading zero omitted, Abs format (unit mm)*
G04 Created by KiCad (PCBNEW 10.0.6) date 2026-10-07 06:19:42*
%MOMM*%
%LPD*%
G01*
G04 APERTURE LIST*
G04 Aperture macros list*
%AMRoundRect*
0 Rectangle with rounded corners*
0 $1 Rounding radius*
0 $2 $3 $4 $5 $6 $7 $8 $9 X,Y pos of 4 corners*
0 Add a 4 corners polygon primitive as box body*
4,1,4,$2,$3,$4,$5,$6,$7,$8,$9,$2,$3,0*
0 Add four circle primitives for the rounded corners*
1,1,$1+$1,$2,$3*
1,1,$1+$1,$4,$5*
1,1,$1+$1,$6,$7*
1,1,$1+$1,$8,$9*
0 Add four rect primitives between the rounded corners*
20,1,$1+$1,$2,$3,$4,$5,0*
20,1,$1+$1,$4,$5,$6,$7,0*
20,1,$1+$1,$6,$7,$8,$9,0*
20,1,$1+$1,$8,$9,$2,$3,0*%
G04 Aperture macros list end*
%TA.AperFunction,ComponentPad*%
%ADD10R,1.700000X1.700000*%
%TD*%
%TA.AperFunction,ComponentPad*%
%ADD11C,1.700000*%
%TD*%
%TA.AperFunction,SMDPad,CuDef*%
%ADD12RoundRect,0.200000X-0.200000X-0.275000X0.200000X-0.275000X0.200000X0.275000X-0.200000X0.275000X0*%
%TD*%
%TA.AperFunction,SMDPad,CuDef*%
%ADD13RoundRect,0.225000X0.250000X-0.225000X0.250000X0.225000X-0.250000X0.225000X-0.250000X-0.225000X0*%
%TD*%
%TA.AperFunction,SMDPad,CuDef*%
%ADD14RoundRect,0.250000X1.400000X1.000000X-1.400000X1.000000X-1.400000X-1.000000X1.400000X-1.000000X0*%
%TD*%
%TA.AperFunction,SMDPad,CuDef*%
%ADD15RoundRect,0.250000X-0.325000X-0.650000X0.325000X-0.650000X0.325000X0.650000X-0.325000X0.650000X0*%
%TD*%
%TA.AperFunction,SMDPad,CuDef*%
%ADD16RoundRect,0.250000X2.050000X0.300000X-2.050000X0.300000X-2.050000X-0.300000X2.050000X-0.300000X0*%
%TD*%
%TA.AperFunction,SMDPad,CuDef*%
%ADD17RoundRect,0.250002X4.449998X5.149998X-4.449998X5.149998X-4.449998X-5.149998X4.449998X-5.149998X0*%
%TD*%
%TA.AperFunction,SMDPad,CuDef*%
%ADD18R,2.900000X5.400000*%
%TD*%
%TA.AperFunction,SMDPad,CuDef*%
%ADD19RoundRect,0.200000X0.275000X-0.200000X0.275000X0.200000X-0.275000X0.200000X-0.275000X-0.200000X0*%
%TD*%
%TA.AperFunction,SMDPad,CuDef*%
%ADD20RoundRect,0.250000X-0.250000X-0.475000X0.250000X-0.475000X0.250000X0.475000X-0.250000X0.475000X0*%
%TD*%
%TA.AperFunction,ComponentPad*%
%ADD21C,1.400000*%
%TD*%
%TA.AperFunction,ComponentPad*%
%ADD22RoundRect,0.770000X0.980000X-0.980000X0.980000X0.980000X-0.980000X0.980000X-0.980000X-0.980000X0*%
%TD*%
%TA.AperFunction,ComponentPad*%
%ADD23C,3.500000*%
%TD*%
%TA.AperFunction,SMDPad,CuDef*%
%ADD24RoundRect,0.200000X-0.200000X-0.800000X0.200000X-0.800000X0.200000X0.800000X-0.200000X0.800000X0*%
%TD*%
%TA.AperFunction,SMDPad,CuDef*%
%ADD25RoundRect,0.243750X0.456250X-0.243750X0.456250X0.243750X-0.456250X0.243750X-0.456250X-0.243750X0*%
%TD*%
%TA.AperFunction,SMDPad,CuDef*%
%ADD26RoundRect,0.225000X-0.225000X-0.250000X0.225000X-0.250000X0.225000X0.250000X-0.225000X0.250000X0*%
%TD*%
%TA.AperFunction,SMDPad,CuDef*%
%ADD27RoundRect,0.375000X-0.625000X-0.375000X0.625000X-0.375000X0.625000X0.375000X-0.625000X0.375000X0*%
%TD*%
%TA.AperFunction,SMDPad,CuDef*%
%ADD28RoundRect,0.500000X-0.500000X-1.400000X0.500000X-1.400000X0.500000X1.400000X-0.500000X1.400000X0*%
%TD*%
%TA.AperFunction,SMDPad,CuDef*%
%ADD29RoundRect,0.225000X-0.225000X-0.375000X0.225000X-0.375000X0.225000X0.375000X-0.225000X0.375000X0*%
%TD*%
%TA.AperFunction,SMDPad,CuDef*%
%ADD30RoundRect,0.100000X-0.637500X-0.100000X0.637500X-0.100000X0.637500X0.100000X-0.637500X0.100000X0*%
%TD*%
%TA.AperFunction,ComponentPad*%
%ADD31RoundRect,0.250000X-0.550000X-0.550000X0.550000X-0.550000X0.550000X0.550000X-0.550000X0.550000X0*%
%TD*%
%TA.AperFunction,ComponentPad*%
%ADD32C,1.600000*%
%TD*%
%TA.AperFunction,SMDPad,CuDef*%
%ADD33RoundRect,0.218750X-0.218750X-0.256250X0.218750X-0.256250X0.218750X0.256250X-0.218750X0.256250X0*%
%TD*%
%TA.AperFunction,SMDPad,CuDef*%
%ADD34R,1.500000X0.900000*%
%TD*%
%TA.AperFunction,SMDPad,CuDef*%
%ADD35R,0.900000X1.500000*%
%TD*%
%TA.AperFunction,HeatsinkPad*%
%ADD36C,0.600000*%
%TD*%
%TA.AperFunction,HeatsinkPad*%
%ADD37R,3.900000X3.900000*%
%TD*%
%TA.AperFunction,SMDPad,CuDef*%
%ADD38R,0.300000X1.300000*%
%TD*%
%TA.AperFunction,SMDPad,CuDef*%
%ADD39R,1.800000X2.200000*%
%TD*%
%TA.AperFunction,ComponentPad*%
%ADD40O,2.200000X3.500000*%
%TD*%
%TA.AperFunction,ComponentPad*%
%ADD41R,1.500000X2.500000*%
%TD*%
%TA.AperFunction,ComponentPad*%
%ADD42O,1.500000X2.500000*%
%TD*%
%TA.AperFunction,SMDPad,CuDef*%
%ADD43R,1.500000X2.200000*%
%TD*%
%TA.AperFunction,SMDPad,CuDef*%
%ADD44R,0.700000X0.700000*%
%TD*%
%TA.AperFunction,SMDPad,CuDef*%
%ADD45RoundRect,0.250000X0.475000X-0.250000X0.475000X0.250000X-0.475000X0.250000X-0.475000X-0.250000X0*%
%TD*%
%TA.AperFunction,SMDPad,CuDef*%
%ADD46RoundRect,0.062500X-0.350000X-0.062500X0.350000X-0.062500X0.350000X0.062500X-0.350000X0.062500X0*%
%TD*%
%TA.AperFunction,SMDPad,CuDef*%
%ADD47RoundRect,0.062500X-0.062500X-0.350000X0.062500X-0.350000X0.062500X0.350000X-0.062500X0.350000X0*%
%TD*%
%TA.AperFunction,HeatsinkPad*%
%ADD48C,0.500000*%
%TD*%
%TA.AperFunction,HeatsinkPad*%
%ADD49R,2.700000X2.700000*%
%TD*%
%TA.AperFunction,ComponentPad*%
%ADD50R,1.600000X1.600000*%
%TD*%
%TA.AperFunction,SMDPad,CuDef*%
%ADD51RoundRect,0.250000X-2.050000X-0.300000X2.050000X-0.300000X2.050000X0.300000X-2.050000X0.300000X0*%
%TD*%
%TA.AperFunction,SMDPad,CuDef*%
%ADD52RoundRect,0.250002X-4.449998X-5.149998X4.449998X-5.149998X4.449998X5.149998X-4.449998X5.149998X0*%
%TD*%
%TA.AperFunction,SMDPad,CuDef*%
%ADD53RoundRect,0.150000X-0.150000X-0.500000X0.150000X-0.500000X0.150000X0.500000X-0.150000X0.500000X0*%
%TD*%
%TA.AperFunction,SMDPad,CuDef*%
%ADD54RoundRect,0.075000X-0.075000X-0.575000X0.075000X-0.575000X0.075000X0.575000X-0.075000X0.575000X0*%
%TD*%
%TA.AperFunction,ComponentPad*%
%ADD55O,1.000000X2.100000*%
%TD*%
%TA.AperFunction,ComponentPad*%
%ADD56O,1.000000X1.600000*%
%TD*%
%TA.AperFunction,SMDPad,CuDef*%
%ADD57RoundRect,0.250000X0.650000X-0.325000X0.650000X0.325000X-0.650000X0.325000X-0.650000X-0.325000X0*%
%TD*%
%TA.AperFunction,SMDPad,CuDef*%
%ADD58RoundRect,0.150000X-0.587500X-0.150000X0.587500X-0.150000X0.587500X0.150000X-0.587500X0.150000X0*%
%TD*%
%TA.AperFunction,SMDPad,CuDef*%
%ADD59RoundRect,0.075000X-0.350000X-0.075000X0.350000X-0.075000X0.350000X0.075000X-0.350000X0.075000X0*%
%TD*%
%TA.AperFunction,SMDPad,CuDef*%
%ADD60RoundRect,0.075000X0.075000X-0.350000X0.075000X0.350000X-0.075000X0.350000X-0.075000X-0.350000X0*%
%TD*%
%TA.AperFunction,SMDPad,CuDef*%
%ADD61RoundRect,0.218750X0.256250X-0.218750X0.256250X0.218750X-0.256250X0.218750X-0.256250X-0.218750X0*%
%TD*%
%TA.AperFunction,ViaPad*%
%ADD62C,0.600000*%
%TD*%
%TA.AperFunction,ViaPad*%
%ADD63C,0.800000*%
%TD*%
%TA.AperFunction,Conductor*%
%ADD64C,0.200000*%
%TD*%
%TA.AperFunction,Conductor*%
%ADD65C,0.250000*%
%TD*%
%TA.AperFunction,Conductor*%
%ADD66C,0.350000*%
%TD*%
%TA.AperFunction,Conductor*%
%ADD67C,0.500000*%
%TD*%
%TA.AperFunction,Conductor*%
%ADD68C,1.000000*%
%TD*%
%TA.AperFunction,Conductor*%
%ADD69C,0.800000*%
%TD*%
%TA.AperFunction,Conductor*%
%ADD70C,0.300000*%
%TD*%
%TA.AperFunction,Conductor*%
%ADD71C,1.200000*%
%TD*%
%TA.AperFunction,Conductor*%
%ADD72C,0.400000*%
%TD*%
%TA.AperFunction,Conductor*%
%ADD73C,0.250200*%
%TD*%
%TA.AperFunction,Conductor*%
%ADD74C,0.601000*%
%TD*%
G04 APERTURE END LIST*
D10*
%TO.P,J_L4_C1,1,Pin_1_1*%
%TO.N,GND*%
X10000000Y-15000000D03*
D11*
%TO.P,J_L4_C1,2,Pin_2_2*%
%TO.N,V_SERVO_L*%
X12540000Y-15000000D03*
%TO.P,J_L4_C1,3,Pin_3_3*%
%TO.N,PWM_L_0*%
X15080000Y-15000000D03*
%TD*%
D12*
%TO.P,R_VIS_EN1,1*%
%TO.N,+3V3_VIS*%
X8675000Y500000D03*
%TO.P,R_VIS_EN1,2*%
%TO.N,VISION_RESET*%
X10325000Y500000D03*
%TD*%
D13*
%TO.P,C_PCA3,1*%
%TO.N,+3V3*%
X92000000Y-61775000D03*
%TO.P,C_PCA3,2*%
%TO.N,GND*%
X92000000Y-60225000D03*
%TD*%
D14*
%TO.P,D_CATCH_L1,1,K_1*%
%TO.N,GND*%
X31000000Y-53900000D03*
%TO.P,D_CATCH_L1,2,A_2*%
%TO.N,Net-(D_CATCH_L1-A)*%
X31000000Y-47100000D03*
%TD*%
D10*
%TO.P,J_L3_C1,1,Pin_1_1*%
%TO.N,GND*%
X100000000Y-53000000D03*
D11*
%TO.P,J_L3_C1,2,Pin_2_2*%
%TO.N,V_SERVO_R*%
X97460000Y-53000000D03*
%TO.P,J_L3_C1,3,Pin_3_3*%
%TO.N,PWM_R_6*%
X94920000Y-53000000D03*
%TD*%
D10*
%TO.P,J_L6_F1,1,Pin_1_1*%
%TO.N,GND*%
X10000000Y-57500000D03*
D11*
%TO.P,J_L6_F1,2,Pin_2_2*%
%TO.N,V_SERVO_L*%
X12540000Y-57500000D03*
%TO.P,J_L6_F1,3,Pin_3_3*%
%TO.N,PWM_L_7*%
X15080000Y-57500000D03*
%TD*%
D15*
%TO.P,C_IN2_R1,1*%
%TO.N,VBAT_SW*%
X79025000Y-28000000D03*
%TO.P,C_IN2_R1,2*%
%TO.N,GND*%
X81975000Y-28000000D03*
%TD*%
D16*
%TO.P,U3_R1,1,GND_1*%
%TO.N,GND*%
X90150000Y-42400000D03*
%TO.P,U3_R1,2,FB_2*%
%TO.N,Net-(U3_R1-FB)*%
X90150000Y-40700000D03*
%TO.P,U3_R1,3,SW_3*%
%TO.N,Net-(D_CATCH_R1-A)*%
X90150000Y-39000000D03*
D17*
X81000000Y-39000000D03*
D16*
%TO.P,U3_R1,4,VC_4*%
%TO.N,GND*%
X90150000Y-37300000D03*
%TO.P,U3_R1,5,VIN_5*%
%TO.N,VBAT_SW*%
X90150000Y-35600000D03*
%TD*%
D12*
%TO.P,R_CHG1,1*%
%TO.N,VBUS*%
X25175000Y-84500000D03*
%TO.P,R_CHG1,2*%
%TO.N,CHG_STAT*%
X26825000Y-84500000D03*
%TD*%
D18*
%TO.P,L_SERVO_R1,1,1_1*%
%TO.N,Net-(D_CATCH_R1-A)*%
X72450000Y-39000000D03*
%TO.P,L_SERVO_R1,2,2_2*%
%TO.N,V_SERVO_R*%
X62550000Y-39000000D03*
%TD*%
D19*
%TO.P,R_STAT1,1*%
%TO.N,LED_STATUS*%
X61000000Y-14825000D03*
%TO.P,R_STAT1,2*%
%TO.N,GND*%
X61000000Y-13175000D03*
%TD*%
D15*
%TO.P,C_OUT2_R1,1*%
%TO.N,V_SERVO_R*%
X65525000Y-59000000D03*
%TO.P,C_OUT2_R1,2*%
%TO.N,GND*%
X68475000Y-59000000D03*
%TD*%
D10*
%TO.P,J_L6_C1,1,Pin_1_1*%
%TO.N,GND*%
X10000000Y-53000000D03*
D11*
%TO.P,J_L6_C1,2,Pin_2_2*%
%TO.N,V_SERVO_L*%
X12540000Y-53000000D03*
%TO.P,J_L6_C1,3,Pin_3_3*%
%TO.N,PWM_L_6*%
X15080000Y-53000000D03*
%TD*%
D13*
%TO.P,C_VBUS2,1*%
%TO.N,VBUS*%
X44500000Y-87775000D03*
%TO.P,C_VBUS2,2*%
%TO.N,GND*%
X44500000Y-86225000D03*
%TD*%
D20*
%TO.P,C_CAM1,1*%
%TO.N,+3V3_VIS*%
X65550000Y14000000D03*
%TO.P,C_CAM1,2*%
%TO.N,GND*%
X67450000Y14000000D03*
%TD*%
D21*
%TO.P,J_BAT1,*%
%TO.N,*%
X4000000Y-78000000D03*
X4000000Y-67000000D03*
D22*
%TO.P,J_BAT1,1,Pin_1_1*%
%TO.N,VBAT*%
X14000000Y-70000000D03*
D23*
%TO.P,J_BAT1,2,Pin_2_2*%
%TO.N,GND*%
X14000000Y-75000000D03*
%TD*%
D12*
%TO.P,R_VIS_CC1,1*%
%TO.N,Net-(J3-CC1)*%
X75675000Y-85000000D03*
%TO.P,R_VIS_CC1,2*%
%TO.N,GND*%
X77325000Y-85000000D03*
%TD*%
D19*
%TO.P,R_FB2_L1,1*%
%TO.N,Net-(U3_L1-FB)*%
X20500000Y-51325000D03*
%TO.P,R_FB2_L1,2*%
%TO.N,GND*%
X20500000Y-49675000D03*
%TD*%
D20*
%TO.P,C_VIS_IN1,1*%
%TO.N,VBAT_SW*%
X34050000Y-12000000D03*
%TO.P,C_VIS_IN1,2*%
%TO.N,GND*%
X35950000Y-12000000D03*
%TD*%
D15*
%TO.P,C_IN2_L1,1*%
%TO.N,VBAT_SW*%
X28025000Y-28000000D03*
%TO.P,C_IN2_L1,2*%
%TO.N,GND*%
X30975000Y-28000000D03*
%TD*%
D24*
%TO.P,SW_VIS_BOOT1,1,1_1*%
%TO.N,GND*%
X33900000Y-1000000D03*
%TO.P,SW_VIS_BOOT1,2,2_2*%
%TO.N,BOOT_VIS*%
X38100000Y-1000000D03*
%TD*%
D25*
%TO.P,LED_L1,1,K_1*%
%TO.N,V_SERVO_L*%
X20500000Y-54937500D03*
%TO.P,LED_L1,2,A_2*%
%TO.N,Net-(LED_L1-A)*%
X20500000Y-53062500D03*
%TD*%
D26*
%TO.P,C_NEO1,1*%
%TO.N,+3V3*%
X74225000Y5500000D03*
%TO.P,C_NEO1,2*%
%TO.N,GND*%
X75775000Y5500000D03*
%TD*%
%TO.P,C2,1*%
%TO.N,+3V3*%
X73225000Y500000D03*
%TO.P,C2,2*%
%TO.N,GND*%
X74775000Y500000D03*
%TD*%
D12*
%TO.P,R_SDA1,1*%
%TO.N,+3V3*%
X50175000Y-57000000D03*
%TO.P,R_SDA1,2*%
%TO.N,I2C_SDA*%
X51825000Y-57000000D03*
%TD*%
D10*
%TO.P,J_L1_F1,1,Pin_1_1*%
%TO.N,GND*%
X100000000Y-19500000D03*
D11*
%TO.P,J_L1_F1,2,Pin_2_2*%
%TO.N,V_SERVO_R*%
X97460000Y-19500000D03*
%TO.P,J_L1_F1,3,Pin_3_3*%
%TO.N,PWM_R_1*%
X94920000Y-19500000D03*
%TD*%
D26*
%TO.P,C_VIS_EN1,1*%
%TO.N,GND*%
X8725000Y2500000D03*
%TO.P,C_VIS_EN1,2*%
%TO.N,VISION_RESET*%
X10275000Y2500000D03*
%TD*%
%TO.P,C_DIV1,1*%
%TO.N,VBAT_SENSE*%
X52225000Y-14500000D03*
%TO.P,C_DIV1,2*%
%TO.N,GND*%
X53775000Y-14500000D03*
%TD*%
D10*
%TO.P,J_TOF1,1,Pin_1_1*%
%TO.N,+5V_TOF*%
X5000000Y11000000D03*
D11*
%TO.P,J_TOF1,2,Pin_2_2*%
%TO.N,GND*%
X7540000Y11000000D03*
%TO.P,J_TOF1,3,Pin_3_3*%
%TO.N,TOF_RXD*%
X10080000Y11000000D03*
%TO.P,J_TOF1,4,Pin_4_4*%
%TO.N,TOF_TXD*%
X12620000Y11000000D03*
%TD*%
D10*
%TO.P,J_UART1,1,Pin_1_1*%
%TO.N,+3V3*%
X80500000Y-70500000D03*
D11*
%TO.P,J_UART1,2,Pin_2_2*%
%TO.N,GND*%
X80500000Y-73040000D03*
%TO.P,J_UART1,3,Pin_3_3*%
%TO.N,UART_TX*%
X80500000Y-75580000D03*
%TO.P,J_UART1,4,Pin_4_4*%
%TO.N,UART_RX*%
X80500000Y-78120000D03*
%TD*%
D27*
%TO.P,U4,1,GND_1*%
%TO.N,GND*%
X67850000Y-12700000D03*
%TO.P,U4,2,VO_2*%
%TO.N,+3V3*%
X67850000Y-15000000D03*
D28*
X74150000Y-15000000D03*
D27*
%TO.P,U4,3,VI_3*%
%TO.N,LDO_IN*%
X67850000Y-17300000D03*
%TD*%
D10*
%TO.P,J_AUX6,1,Pin_1_1*%
%TO.N,GND*%
X21000000Y-82000000D03*
D11*
%TO.P,J_AUX6,2,Pin_2_2*%
%TO.N,V_SERVO_L*%
X21000000Y-84540000D03*
%TO.P,J_AUX6,3,Pin_3_3*%
%TO.N,PWM_L_11*%
X21000000Y-87080000D03*
%TD*%
D12*
%TO.P,R_CC2,1*%
%TO.N,CC2*%
X28675000Y-84500000D03*
%TO.P,R_CC2,2*%
%TO.N,GND*%
X30325000Y-84500000D03*
%TD*%
D10*
%TO.P,J_AUX3,1,Pin_1_1*%
%TO.N,GND*%
X99500000Y-73000000D03*
D11*
%TO.P,J_AUX3,2,Pin_2_2*%
%TO.N,V_SERVO_R*%
X99500000Y-75540000D03*
%TO.P,J_AUX3,3,Pin_3_3*%
%TO.N,PWM_R_11*%
X99500000Y-78080000D03*
%TD*%
D20*
%TO.P,C_TOF_IN1,1*%
%TO.N,VBAT_SW*%
X47050000Y-20000000D03*
%TO.P,C_TOF_IN1,2*%
%TO.N,GND*%
X48950000Y-20000000D03*
%TD*%
D26*
%TO.P,C_CAM2,1*%
%TO.N,+3V3_VIS*%
X65725000Y6000000D03*
%TO.P,C_CAM2,2*%
%TO.N,GND*%
X67275000Y6000000D03*
%TD*%
D29*
%TO.P,D_CAM_LED1,1,K_1*%
%TO.N,CAM_LED_DRAIN*%
X40350000Y4000000D03*
%TO.P,D_CAM_LED1,2,A_2*%
%TO.N,+5V_TOF*%
X43650000Y4000000D03*
%TD*%
D20*
%TO.P,C_3V3_1,1*%
%TO.N,+3V3*%
X78050000Y-14000000D03*
%TO.P,C_3V3_1,2*%
%TO.N,GND*%
X79950000Y-14000000D03*
%TD*%
D19*
%TO.P,R_FB1_R1,1*%
%TO.N,Net-(U3_R1-FB)*%
X89500000Y-47825000D03*
%TO.P,R_FB1_R1,2*%
%TO.N,V_SERVO_R*%
X89500000Y-46175000D03*
%TD*%
D30*
%TO.P,U6,1,A0_1*%
%TO.N,+3V3*%
X23000000Y-62775000D03*
%TO.P,U6,2,A1_2*%
%TO.N,GND*%
X23000000Y-63425000D03*
%TO.P,U6,3,A2_3*%
X23000000Y-64075000D03*
%TO.P,U6,4,A3_4*%
X23000000Y-64725000D03*
%TO.P,U6,5,A4_5*%
X23000000Y-65375000D03*
%TO.P,U6,6,LED0_6*%
%TO.N,PWM_L_0*%
X23000000Y-66025000D03*
%TO.P,U6,7,LED1_7*%
%TO.N,PWM_L_1*%
X23000000Y-66675000D03*
%TO.P,U6,8,LED2_8*%
%TO.N,PWM_L_2*%
X23000000Y-67325000D03*
%TO.P,U6,9,LED3_9*%
%TO.N,PWM_L_3*%
X23000000Y-67975000D03*
%TO.P,U6,10,LED4_10*%
%TO.N,PWM_L_4*%
X23000000Y-68625000D03*
%TO.P,U6,11,LED5_11*%
%TO.N,PWM_L_5*%
X23000000Y-69275000D03*
%TO.P,U6,12,LED6_12*%
%TO.N,PWM_L_6*%
X23000000Y-69925000D03*
%TO.P,U6,13,LED7_13*%
%TO.N,PWM_L_7*%
X23000000Y-70575000D03*
%TO.P,U6,14,VSS_14*%
%TO.N,GND*%
X23000000Y-71225000D03*
%TO.P,U6,15,LED8_15*%
%TO.N,PWM_L_8*%
X28725000Y-71225000D03*
%TO.P,U6,16,LED9_16*%
%TO.N,PWM_L_9*%
X28725000Y-70575000D03*
%TO.P,U6,17,LED10_17*%
%TO.N,PWM_L_10*%
X28725000Y-69925000D03*
%TO.P,U6,18,LED11_18*%
%TO.N,PWM_L_11*%
X28725000Y-69275000D03*
%TO.P,U6,19,LED12_19*%
%TO.N,unconnected-(U6-LED12-Pad19)*%
X28725000Y-68625000D03*
%TO.P,U6,20,LED13_20*%
%TO.N,unconnected-(U6-LED13-Pad20)*%
X28725000Y-67975000D03*
%TO.P,U6,21,LED14_21*%
%TO.N,unconnected-(U6-LED14-Pad21)*%
X28725000Y-67325000D03*
%TO.P,U6,22,LED15_22*%
%TO.N,unconnected-(U6-LED15-Pad22)*%
X28725000Y-66675000D03*
%TO.P,U6,23,~{OE}_23*%
%TO.N,SERVO_OE*%
X28725000Y-66025000D03*
%TO.P,U6,24,A5_24*%
%TO.N,GND*%
X28725000Y-65375000D03*
%TO.P,U6,25,EXTCLK_25*%
X28725000Y-64725000D03*
%TO.P,U6,26,SCL_26*%
%TO.N,I2C_SCL*%
X28725000Y-64075000D03*
%TO.P,U6,27,SDA_27*%
%TO.N,I2C_SDA*%
X28725000Y-63425000D03*
%TO.P,U6,28,VDD_28*%
%TO.N,+3V3*%
X28725000Y-62775000D03*
%TD*%
%TO.P,U5,1,A0_1*%
%TO.N,GND*%
X81000000Y-57700000D03*
%TO.P,U5,2,A1_2*%
X81000000Y-58350000D03*
%TO.P,U5,3,A2_3*%
X81000000Y-59000000D03*
%TO.P,U5,4,A3_4*%
X81000000Y-59650000D03*
%TO.P,U5,5,A4_5*%
X81000000Y-60300000D03*
%TO.P,U5,6,LED0_6*%
%TO.N,PWM_R_0*%
X81000000Y-60950000D03*
%TO.P,U5,7,LED1_7*%
%TO.N,PWM_R_1*%
X81000000Y-61600000D03*
%TO.P,U5,8,LED2_8*%
%TO.N,PWM_R_2*%
X81000000Y-62250000D03*
%TO.P,U5,9,LED3_9*%
%TO.N,PWM_R_3*%
X81000000Y-62900000D03*
%TO.P,U5,10,LED4_10*%
%TO.N,PWM_R_4*%
X81000000Y-63550000D03*
%TO.P,U5,11,LED5_11*%
%TO.N,PWM_R_5*%
X81000000Y-64200000D03*
%TO.P,U5,12,LED6_12*%
%TO.N,PWM_R_6*%
X81000000Y-64850000D03*
%TO.P,U5,13,LED7_13*%
%TO.N,PWM_R_7*%
X81000000Y-65500000D03*
%TO.P,U5,14,VSS_14*%
%TO.N,GND*%
X81000000Y-66150000D03*
%TO.P,U5,15,LED8_15*%
%TO.N,PWM_R_8*%
X86725000Y-66150000D03*
%TO.P,U5,16,LED9_16*%
%TO.N,PWM_R_9*%
X86725000Y-65500000D03*
%TO.P,U5,17,LED10_17*%
%TO.N,PWM_R_10*%
X86725000Y-64850000D03*
%TO.P,U5,18,LED11_18*%
%TO.N,PWM_R_11*%
X86725000Y-64200000D03*
%TO.P,U5,19,LED12_19*%
%TO.N,unconnected-(U5-LED12-Pad19)*%
X86725000Y-63550000D03*
%TO.P,U5,20,LED13_20*%
%TO.N,unconnected-(U5-LED13-Pad20)*%
X86725000Y-62900000D03*
%TO.P,U5,21,LED14_21*%
%TO.N,unconnected-(U5-LED14-Pad21)*%
X86725000Y-62250000D03*
%TO.P,U5,22,LED15_22*%
%TO.N,unconnected-(U5-LED15-Pad22)*%
X86725000Y-61600000D03*
%TO.P,U5,23,~{OE}_23*%
%TO.N,SERVO_OE*%
X86725000Y-60950000D03*
%TO.P,U5,24,A5_24*%
%TO.N,GND*%
X86725000Y-60300000D03*
%TO.P,U5,25,EXTCLK_25*%
X86725000Y-59650000D03*
%TO.P,U5,26,SCL_26*%
%TO.N,I2C_SCL*%
X86725000Y-59000000D03*
%TO.P,U5,27,SDA_27*%
%TO.N,I2C_SDA*%
X86725000Y-58350000D03*
%TO.P,U5,28,VDD_28*%
%TO.N,+3V3*%
X86725000Y-57700000D03*
%TD*%
D31*
%TO.P,C_IN1_L1,1*%
%TO.N,VBAT_SW*%
X20000000Y-28000000D03*
D32*
%TO.P,C_IN1_L1,2*%
%TO.N,GND*%
X23500000Y-28000000D03*
%TD*%
D12*
%TO.P,R_DIV2,1*%
%TO.N,VBAT_SENSE*%
X52175000Y-12000000D03*
%TO.P,R_DIV2,2*%
%TO.N,GND*%
X53825000Y-12000000D03*
%TD*%
D20*
%TO.P,C1,1*%
%TO.N,+3V3*%
X73050000Y3000000D03*
%TO.P,C1,2*%
%TO.N,GND*%
X74950000Y3000000D03*
%TD*%
D10*
%TO.P,J_SW_EXT1,1,Pin_1_1*%
%TO.N,VBAT*%
X57000000Y-74000000D03*
D11*
%TO.P,J_SW_EXT1,2,Pin_2_2*%
%TO.N,VBAT_SW*%
X57000000Y-76540000D03*
%TD*%
D12*
%TO.P,R_CC4,1*%
%TO.N,Net-(J2-CC2)*%
X104175000Y-75500000D03*
%TO.P,R_CC4,2*%
%TO.N,GND*%
X105825000Y-75500000D03*
%TD*%
D10*
%TO.P,J_AUX5,1,Pin_1_1*%
%TO.N,GND*%
X16500000Y-82000000D03*
D11*
%TO.P,J_AUX5,2,Pin_2_2*%
%TO.N,V_SERVO_L*%
X16500000Y-84540000D03*
%TO.P,J_AUX5,3,Pin_3_3*%
%TO.N,PWM_L_10*%
X16500000Y-87080000D03*
%TD*%
D12*
%TO.P,R_CAM_SCL1,1*%
%TO.N,+3V3_VIS*%
X65675000Y8500000D03*
%TO.P,R_CAM_SCL1,2*%
%TO.N,CAM_SCL*%
X67325000Y8500000D03*
%TD*%
D26*
%TO.P,C_3V3_2,1*%
%TO.N,+3V3*%
X78225000Y-17000000D03*
%TO.P,C_3V3_2,2*%
%TO.N,GND*%
X79775000Y-17000000D03*
%TD*%
D33*
%TO.P,LED_CHG1,1,K_1*%
%TO.N,VBUS*%
X25212500Y-81500000D03*
%TO.P,LED_CHG1,2,A_2*%
%TO.N,CHG_STAT*%
X26787500Y-81500000D03*
%TD*%
D12*
%TO.P,R_DIV1,1*%
%TO.N,VBAT_SW*%
X52175000Y-9500000D03*
%TO.P,R_DIV1,2*%
%TO.N,VBAT_SENSE*%
X53825000Y-9500000D03*
%TD*%
%TO.P,R_OE1,1*%
%TO.N,+3V3*%
X57175000Y-57000000D03*
%TO.P,R_OE1,2*%
%TO.N,SERVO_OE*%
X58825000Y-57000000D03*
%TD*%
%TO.P,R1,1*%
%TO.N,+3V3*%
X73175000Y-2000000D03*
%TO.P,R1,2*%
%TO.N,ESP_EN*%
X74825000Y-2000000D03*
%TD*%
D19*
%TO.P,R_FB1_L1,1*%
%TO.N,Net-(U3_L1-FB)*%
X20500000Y-47825000D03*
%TO.P,R_FB1_L1,2*%
%TO.N,V_SERVO_L*%
X20500000Y-46175000D03*
%TD*%
D24*
%TO.P,SW1,1,1_1*%
%TO.N,ESP_EN*%
X64900000Y1000000D03*
%TO.P,SW1,2,2_2*%
%TO.N,GND*%
X69100000Y1000000D03*
%TD*%
D26*
%TO.P,C_OUT3_R1,1*%
%TO.N,V_SERVO_R*%
X72225000Y-59000000D03*
%TO.P,C_OUT3_R1,2*%
%TO.N,GND*%
X73775000Y-59000000D03*
%TD*%
D33*
%TO.P,LED_FULL1,1,K_1*%
%TO.N,VBUS*%
X25212500Y-87500000D03*
%TO.P,LED_FULL1,2,A_2*%
%TO.N,CHG_PG*%
X26787500Y-87500000D03*
%TD*%
D10*
%TO.P,J_L2_C1,1,Pin_1_1*%
%TO.N,GND*%
X100000000Y-34000000D03*
D11*
%TO.P,J_L2_C1,2,Pin_2_2*%
%TO.N,V_SERVO_R*%
X97460000Y-34000000D03*
%TO.P,J_L2_C1,3,Pin_3_3*%
%TO.N,PWM_R_3*%
X94920000Y-34000000D03*
%TD*%
D27*
%TO.P,U_LDO_VIS1,1,GND_1*%
%TO.N,GND*%
X38850000Y-9700000D03*
%TO.P,U_LDO_VIS1,2,VO_2*%
%TO.N,+3V3_VIS*%
X38850000Y-12000000D03*
D28*
X45150000Y-12000000D03*
D27*
%TO.P,U_LDO_VIS1,3,VI_3*%
%TO.N,VBAT_SW*%
X38850000Y-14300000D03*
%TD*%
D10*
%TO.P,J_AUX4,1,Pin_1_1*%
%TO.N,GND*%
X12000000Y-82000000D03*
D11*
%TO.P,J_AUX4,2,Pin_2_2*%
%TO.N,V_SERVO_L*%
X12000000Y-84540000D03*
%TO.P,J_AUX4,3,Pin_3_3*%
%TO.N,PWM_L_9*%
X12000000Y-87080000D03*
%TD*%
D10*
%TO.P,J_CAM_LED1,1,Pin_1_1*%
%TO.N,+5V_TOF*%
X44000000Y11000000D03*
D11*
%TO.P,J_CAM_LED1,2,Pin_2_2*%
%TO.N,CAM_LED_DRAIN*%
X44000000Y8460000D03*
%TD*%
D12*
%TO.P,R2,1*%
%TO.N,+3V3*%
X61675000Y-4000000D03*
%TO.P,R2,2*%
%TO.N,ESP_IO0*%
X63325000Y-4000000D03*
%TD*%
D10*
%TO.P,J_L2_F1,1,Pin_1_1*%
%TO.N,GND*%
X100000000Y-38500000D03*
D11*
%TO.P,J_L2_F1,2,Pin_2_2*%
%TO.N,V_SERVO_R*%
X97460000Y-38500000D03*
%TO.P,J_L2_F1,3,Pin_3_3*%
%TO.N,PWM_R_4*%
X94920000Y-38500000D03*
%TD*%
D12*
%TO.P,R_BZ1,1*%
%TO.N,BUZZER*%
X60675000Y-57000000D03*
%TO.P,R_BZ1,2*%
%TO.N,Net-(BZ1-+)*%
X62325000Y-57000000D03*
%TD*%
D14*
%TO.P,D_CATCH_R1,1,K_1*%
%TO.N,GND*%
X79000000Y-53900000D03*
%TO.P,D_CATCH_R1,2,A_2*%
%TO.N,Net-(D_CATCH_R1-A)*%
X79000000Y-47100000D03*
%TD*%
D26*
%TO.P,C_VBUS_VIS1,1*%
%TO.N,GND*%
X39225000Y7000000D03*
%TO.P,C_VBUS_VIS1,2*%
%TO.N,VBUS_VIS*%
X40775000Y7000000D03*
%TD*%
%TO.P,C3,1*%
%TO.N,ESP_EN*%
X73225000Y-4500000D03*
%TO.P,C3,2*%
%TO.N,GND*%
X74775000Y-4500000D03*
%TD*%
D12*
%TO.P,R_3V3_LED1,1*%
%TO.N,Net-(LED_3V3-A)*%
X78175000Y-22500000D03*
%TO.P,R_3V3_LED1,2*%
%TO.N,GND*%
X79825000Y-22500000D03*
%TD*%
D19*
%TO.P,R_LED_R1,1*%
%TO.N,Net-(LED_R1-A)*%
X89500000Y-58325000D03*
%TO.P,R_LED_R1,2*%
%TO.N,GND*%
X89500000Y-56675000D03*
%TD*%
D13*
%TO.P,C_PCA1,1*%
%TO.N,+3V3*%
X18000000Y-65775000D03*
%TO.P,C_PCA1,2*%
%TO.N,GND*%
X18000000Y-64225000D03*
%TD*%
D31*
%TO.P,C_OUT1_R1,1*%
%TO.N,V_SERVO_R*%
X67000000Y-51500000D03*
D32*
%TO.P,C_OUT1_R1,2*%
%TO.N,GND*%
X70500000Y-51500000D03*
%TD*%
D31*
%TO.P,C_IN1_R1,1*%
%TO.N,VBAT_SW*%
X87000000Y-26000000D03*
D32*
%TO.P,C_IN1_R1,2*%
%TO.N,GND*%
X90500000Y-26000000D03*
%TD*%
D20*
%TO.P,C_ISO2,1*%
%TO.N,LDO_IN*%
X54050000Y2000000D03*
%TO.P,C_ISO2,2*%
%TO.N,GND*%
X55950000Y2000000D03*
%TD*%
D12*
%TO.P,R_VIS_CC2,1*%
%TO.N,Net-(J3-CC2)*%
X75675000Y-87500000D03*
%TO.P,R_VIS_CC2,2*%
%TO.N,GND*%
X77325000Y-87500000D03*
%TD*%
D10*
%TO.P,J_L4_F1,1,Pin_1_1*%
%TO.N,GND*%
X10000000Y-19500000D03*
D11*
%TO.P,J_L4_F1,2,Pin_2_2*%
%TO.N,V_SERVO_L*%
X12540000Y-19500000D03*
%TO.P,J_L4_F1,3,Pin_3_3*%
%TO.N,PWM_L_1*%
X15080000Y-19500000D03*
%TD*%
D13*
%TO.P,C_BAT2,1*%
%TO.N,VBAT*%
X51000000Y-76275000D03*
%TO.P,C_BAT2,2*%
%TO.N,GND*%
X51000000Y-74725000D03*
%TD*%
D19*
%TO.P,R_LED_L1,1*%
%TO.N,Net-(LED_L1-A)*%
X20500000Y-58325000D03*
%TO.P,R_LED_L1,2*%
%TO.N,GND*%
X20500000Y-56675000D03*
%TD*%
D27*
%TO.P,U_REG_5V_TOF1,1,GND_1*%
%TO.N,GND*%
X51850000Y-17700000D03*
%TO.P,U_REG_5V_TOF1,2,VO_2*%
%TO.N,+5V_TOF*%
X51850000Y-20000000D03*
D28*
X58150000Y-20000000D03*
D27*
%TO.P,U_REG_5V_TOF1,3,VI_3*%
%TO.N,VBAT_SW*%
X51850000Y-22300000D03*
%TD*%
D34*
%TO.P,U1,1,GND_1*%
%TO.N,GND*%
X79250000Y5910000D03*
%TO.P,U1,2,3V3_2*%
%TO.N,+3V3*%
X79250000Y4640000D03*
%TO.P,U1,3,EN_3*%
%TO.N,ESP_EN*%
X79250000Y3370000D03*
%TO.P,U1,4,IO4_4*%
%TO.N,VISION_SYNC*%
X79250000Y2100000D03*
%TO.P,U1,5,IO5_5*%
%TO.N,unconnected-(U1-IO5-Pad5)*%
X79250000Y830000D03*
%TO.P,U1,6,IO6_6*%
%TO.N,unconnected-(U1-IO6-Pad6)*%
X79250000Y-440000D03*
%TO.P,U1,7,IO7_7*%
%TO.N,unconnected-(U1-IO7-Pad7)*%
X79250000Y-1710000D03*
%TO.P,U1,8,IO15_8*%
%TO.N,INTER_UART_RX*%
X79250000Y-2980000D03*
%TO.P,U1,9,IO16_9*%
%TO.N,INTER_UART_TX*%
X79250000Y-4250000D03*
%TO.P,U1,10,IO17_10*%
%TO.N,unconnected-(U1-IO17-Pad10)*%
X79250000Y-5520000D03*
%TO.P,U1,11,IO18_11*%
%TO.N,MPU_INT*%
X79250000Y-6790000D03*
%TO.P,U1,12,IO8_12*%
%TO.N,I2C_SDA*%
X79250000Y-8060000D03*
%TO.P,U1,13,USB_D-_13*%
%TO.N,USB_D-*%
X79250000Y-9330000D03*
%TO.P,U1,14,USB_D+_14*%
%TO.N,USB_D+*%
X79250000Y-10600000D03*
D35*
%TO.P,U1,15,IO3_15*%
%TO.N,unconnected-(U1-IO3-Pad15)*%
X81015000Y-11850000D03*
%TO.P,U1,16,IO46_16*%
%TO.N,unconnected-(U1-IO46-Pad16)*%
X82285000Y-11850000D03*
%TO.P,U1,17,IO9_17*%
%TO.N,I2C_SCL*%
X83555000Y-11850000D03*
%TO.P,U1,18,IO10_18*%
%TO.N,SERVO_OE*%
X84825000Y-11850000D03*
%TO.P,U1,19,IO11_19*%
%TO.N,unconnected-(U1-IO11-Pad19)*%
X86095000Y-11850000D03*
%TO.P,U1,20,IO12_20*%
%TO.N,unconnected-(U1-IO12-Pad20)*%
X87365000Y-11850000D03*
%TO.P,U1,21,IO13_21*%
%TO.N,unconnected-(U1-IO13-Pad21)*%
X88635000Y-11850000D03*
%TO.P,U1,22,IO14_22*%
%TO.N,VISION_RESET*%
X89905000Y-11850000D03*
%TO.P,U1,23,IO21_23*%
%TO.N,BUZZER*%
X91175000Y-11850000D03*
%TO.P,U1,24,IO47_24*%
%TO.N,unconnected-(U1-IO47-Pad24)*%
X92445000Y-11850000D03*
%TO.P,U1,25,IO48_25*%
%TO.N,Net-(U1-IO48)*%
X93715000Y-11850000D03*
%TO.P,U1,26,IO45_26*%
%TO.N,unconnected-(U1-IO45-Pad26)*%
X94985000Y-11850000D03*
D34*
%TO.P,U1,27,IO0_27*%
%TO.N,ESP_IO0*%
X96750000Y-10600000D03*
%TO.P,U1,28,IO35_28*%
%TO.N,unconnected-(U1-IO35-Pad28)*%
X96750000Y-9330000D03*
%TO.P,U1,29,IO36_29*%
%TO.N,unconnected-(U1-IO36-Pad29)*%
X96750000Y-8060000D03*
%TO.P,U1,30,IO37_30*%
%TO.N,unconnected-(U1-IO37-Pad30)*%
X96750000Y-6790000D03*
%TO.P,U1,31,IO38_31*%
%TO.N,unconnected-(U1-IO38-Pad31)*%
X96750000Y-5520000D03*
%TO.P,U1,32,IO39_32*%
%TO.N,unconnected-(U1-IO39-Pad32)*%
X96750000Y-4250000D03*
%TO.P,U1,33,IO40_33*%
%TO.N,unconnected-(U1-IO40-Pad33)*%
X96750000Y-2980000D03*
%TO.P,U1,34,IO41_34*%
%TO.N,unconnected-(U1-IO41-Pad34)*%
X96750000Y-1710000D03*
%TO.P,U1,35,IO42_35*%
%TO.N,unconnected-(U1-IO42-Pad35)*%
X96750000Y-440000D03*
%TO.P,U1,36,RXD0_36*%
%TO.N,UART_RX*%
X96750000Y830000D03*
%TO.P,U1,37,TXD0_37*%
%TO.N,UART_TX*%
X96750000Y2100000D03*
%TO.P,U1,38,IO2_38*%
%TO.N,LED_STATUS*%
X96750000Y3370000D03*
%TO.P,U1,39,IO1_39*%
%TO.N,VBAT_SENSE*%
X96750000Y4640000D03*
%TO.P,U1,40,GND_40*%
%TO.N,GND*%
X96750000Y5910000D03*
D36*
%TO.P,U1,41,GND_41*%
X85100000Y-1110000D03*
X85100000Y-2510000D03*
X85800000Y-410000D03*
X85800000Y-1810000D03*
X85800000Y-3210000D03*
X86500000Y-1110000D03*
D37*
X86500000Y-1810000D03*
D36*
X86500000Y-2510000D03*
X87200000Y-410000D03*
X87200000Y-1810000D03*
X87200000Y-3210000D03*
X87900000Y-1110000D03*
X87900000Y-2510000D03*
%TD*%
D38*
%TO.P,J_CAM1,1,Pin_1_1*%
%TO.N,unconnected-(J_CAM1-Pin_1-Pad1)*%
X60750000Y5150000D03*
%TO.P,J_CAM1,2,Pin_2_2*%
%TO.N,GND*%
X60250000Y5150000D03*
%TO.P,J_CAM1,3,Pin_3_3*%
%TO.N,CAM_SDA*%
X59750000Y5150000D03*
%TO.P,J_CAM1,4,Pin_4_4*%
%TO.N,+3V3_VIS*%
X59250000Y5150000D03*
%TO.P,J_CAM1,5,Pin_5_5*%
%TO.N,CAM_SCL*%
X58750000Y5150000D03*
%TO.P,J_CAM1,6,Pin_6_6*%
%TO.N,+3V3_VIS*%
X58250000Y5150000D03*
%TO.P,J_CAM1,7,Pin_7_7*%
%TO.N,CAM_VSYNC*%
X57750000Y5150000D03*
%TO.P,J_CAM1,8,Pin_8_8*%
%TO.N,CAM_PWDN*%
X57250000Y5150000D03*
%TO.P,J_CAM1,9,Pin_9_9*%
%TO.N,CAM_HREF*%
X56750000Y5150000D03*
%TO.P,J_CAM1,10,Pin_10_10*%
%TO.N,+3V3_VIS*%
X56250000Y5150000D03*
%TO.P,J_CAM1,11,Pin_11_11*%
X55750000Y5150000D03*
%TO.P,J_CAM1,12,Pin_12_12*%
%TO.N,CAM_D7*%
X55250000Y5150000D03*
%TO.P,J_CAM1,13,Pin_13_13*%
%TO.N,CAM_XCLK*%
X54750000Y5150000D03*
%TO.P,J_CAM1,14,Pin_14_14*%
%TO.N,CAM_D6*%
X54250000Y5150000D03*
%TO.P,J_CAM1,15,Pin_15_15*%
%TO.N,GND*%
X53750000Y5150000D03*
%TO.P,J_CAM1,16,Pin_16_16*%
%TO.N,CAM_D5*%
X53250000Y5150000D03*
%TO.P,J_CAM1,17,Pin_17_17*%
%TO.N,CAM_PCLK*%
X52750000Y5150000D03*
%TO.P,J_CAM1,18,Pin_18_18*%
%TO.N,CAM_D4*%
X52250000Y5150000D03*
%TO.P,J_CAM1,19,Pin_19_19*%
%TO.N,CAM_D0*%
X51750000Y5150000D03*
%TO.P,J_CAM1,20,Pin_20_20*%
%TO.N,CAM_D3*%
X51250000Y5150000D03*
%TO.P,J_CAM1,21,Pin_21_21*%
%TO.N,CAM_D1*%
X50750000Y5150000D03*
%TO.P,J_CAM1,22,Pin_22_22*%
%TO.N,CAM_D2*%
X50250000Y5150000D03*
%TO.P,J_CAM1,23,Pin_23_23*%
%TO.N,GND*%
X49750000Y5150000D03*
%TO.P,J_CAM1,24,Pin_24_24*%
X49250000Y5150000D03*
D39*
%TO.P,J_CAM1,MP*%
%TO.N,N/C*%
X62650000Y8400000D03*
X47350000Y8400000D03*
%TD*%
D29*
%TO.P,D_ISO1,1,K_1*%
%TO.N,VBAT_SW*%
X48350000Y2000000D03*
%TO.P,D_ISO1,2,A_2*%
%TO.N,LDO_IN*%
X51650000Y2000000D03*
%TD*%
D12*
%TO.P,R_CC3,1*%
%TO.N,Net-(J2-CC1)*%
X104175000Y-73000000D03*
%TO.P,R_CC3,2*%
%TO.N,GND*%
X105825000Y-73000000D03*
%TD*%
D26*
%TO.P,C_MPU5,1*%
%TO.N,Net-(U7-CPOUT)*%
X56725000Y-50500000D03*
%TO.P,C_MPU5,2*%
%TO.N,GND*%
X58275000Y-50500000D03*
%TD*%
D40*
%TO.P,SW_PWR1,*%
%TO.N,*%
X51900000Y-82000000D03*
X60100000Y-82000000D03*
D41*
%TO.P,SW_PWR1,1,Pin_1_1*%
%TO.N,VBAT*%
X54000000Y-82000000D03*
D42*
%TO.P,SW_PWR1,2,Pin_2_2*%
%TO.N,VBAT_SW*%
X56000000Y-82000000D03*
%TO.P,SW_PWR1,3,Pin_3_3*%
X58000000Y-82000000D03*
%TD*%
D24*
%TO.P,SW2,1,1_1*%
%TO.N,ESP_IO0*%
X64900000Y-4000000D03*
%TO.P,SW2,2,2_2*%
%TO.N,GND*%
X69100000Y-4000000D03*
%TD*%
D34*
%TO.P,U8,1,GND_1*%
%TO.N,GND*%
X13250000Y5910000D03*
%TO.P,U8,2,3V3_2*%
%TO.N,+3V3_VIS*%
X13250000Y4640000D03*
%TO.P,U8,3,EN_3*%
%TO.N,VISION_RESET*%
X13250000Y3370000D03*
%TO.P,U8,4,IO4_4*%
%TO.N,CAM_SDA*%
X13250000Y2100000D03*
%TO.P,U8,5,IO5_5*%
%TO.N,CAM_SCL*%
X13250000Y830000D03*
%TO.P,U8,6,IO6_6*%
%TO.N,CAM_VSYNC*%
X13250000Y-440000D03*
%TO.P,U8,7,IO7_7*%
%TO.N,CAM_HREF*%
X13250000Y-1710000D03*
%TO.P,U8,8,IO15_8*%
%TO.N,CAM_XCLK*%
X13250000Y-2980000D03*
%TO.P,U8,9,IO16_9*%
%TO.N,CAM_D7*%
X13250000Y-4250000D03*
%TO.P,U8,10,IO17_10*%
%TO.N,CAM_D6*%
X13250000Y-5520000D03*
%TO.P,U8,11,IO18_11*%
%TO.N,CAM_D5*%
X13250000Y-6790000D03*
%TO.P,U8,12,IO8_12*%
%TO.N,CAM_D2*%
X13250000Y-8060000D03*
%TO.P,U8,13,USB_D-_13*%
%TO.N,VIS_USB_D-*%
X13250000Y-9330000D03*
%TO.P,U8,14,USB_D+_14*%
%TO.N,VIS_USB_D+*%
X13250000Y-10600000D03*
D35*
%TO.P,U8,15,IO3_15*%
%TO.N,CAM_LED_PWM*%
X15015000Y-11850000D03*
%TO.P,U8,16,IO46_16*%
%TO.N,unconnected-(U8-IO46-Pad16)*%
X16285000Y-11850000D03*
%TO.P,U8,17,IO9_17*%
%TO.N,CAM_D1*%
X17555000Y-11850000D03*
%TO.P,U8,18,IO10_18*%
%TO.N,CAM_D3*%
X18825000Y-11850000D03*
%TO.P,U8,19,IO11_19*%
%TO.N,CAM_D0*%
X20095000Y-11850000D03*
%TO.P,U8,20,IO12_20*%
%TO.N,CAM_D4*%
X21365000Y-11850000D03*
%TO.P,U8,21,IO13_21*%
%TO.N,CAM_PCLK*%
X22635000Y-11850000D03*
%TO.P,U8,22,IO14_22*%
%TO.N,unconnected-(U8-IO14-Pad22)*%
X23905000Y-11850000D03*
%TO.P,U8,23,IO21_23*%
%TO.N,VISION_SYNC*%
X25175000Y-11850000D03*
%TO.P,U8,24,IO47_24*%
%TO.N,CAM_PWDN*%
X26445000Y-11850000D03*
%TO.P,U8,25,IO48_25*%
%TO.N,unconnected-(U8-IO48-Pad25)*%
X27715000Y-11850000D03*
%TO.P,U8,26,IO45_26*%
%TO.N,unconnected-(U8-IO45-Pad26)*%
X28985000Y-11850000D03*
D34*
%TO.P,U8,27,IO0_27*%
%TO.N,BOOT_VIS*%
X30750000Y-10600000D03*
%TO.P,U8,28,IO35_28*%
%TO.N,unconnected-(U8-IO35-Pad28)*%
X30750000Y-9330000D03*
%TO.P,U8,29,IO36_29*%
%TO.N,unconnected-(U8-IO36-Pad29)*%
X30750000Y-8060000D03*
%TO.P,U8,30,IO37_30*%
%TO.N,unconnected-(U8-IO37-Pad30)*%
X30750000Y-6790000D03*
%TO.P,U8,31,IO38_31*%
%TO.N,unconnected-(U8-IO38-Pad31)*%
X30750000Y-5520000D03*
%TO.P,U8,32,IO39_32*%
%TO.N,unconnected-(U8-IO39-Pad32)*%
X30750000Y-4250000D03*
%TO.P,U8,33,IO40_33*%
%TO.N,unconnected-(U8-IO40-Pad33)*%
X30750000Y-2980000D03*
%TO.P,U8,34,IO41_34*%
%TO.N,unconnected-(U8-IO41-Pad34)*%
X30750000Y-1710000D03*
%TO.P,U8,35,IO42_35*%
%TO.N,unconnected-(U8-IO42-Pad35)*%
X30750000Y-440000D03*
%TO.P,U8,36,RXD0_36*%
%TO.N,INTER_UART_RX*%
X30750000Y830000D03*
%TO.P,U8,37,TXD0_37*%
%TO.N,INTER_UART_TX*%
X30750000Y2100000D03*
%TO.P,U8,38,IO2_38*%
%TO.N,TOF_TXD*%
X30750000Y3370000D03*
%TO.P,U8,39,IO1_39*%
%TO.N,TOF_RXD*%
X30750000Y4640000D03*
%TO.P,U8,40,GND_40*%
%TO.N,GND*%
X30750000Y5910000D03*
D36*
%TO.P,U8,41,GND_41*%
X19100000Y-1110000D03*
X19100000Y-2510000D03*
X19800000Y-410000D03*
X19800000Y-1810000D03*
X19800000Y-3210000D03*
X20500000Y-1110000D03*
D37*
X20500000Y-1810000D03*
D36*
X20500000Y-2510000D03*
X21200000Y-410000D03*
X21200000Y-1810000D03*
X21200000Y-3210000D03*
X21900000Y-1110000D03*
X21900000Y-2510000D03*
%TD*%
D10*
%TO.P,J_L2_T1,1,Pin_1_1*%
%TO.N,GND*%
X100000000Y-43000000D03*
D11*
%TO.P,J_L2_T1,2,Pin_2_2*%
%TO.N,V_SERVO_R*%
X97460000Y-43000000D03*
%TO.P,J_L2_T1,3,Pin_3_3*%
%TO.N,PWM_R_5*%
X94920000Y-43000000D03*
%TD*%
D10*
%TO.P,J_L1_C1,1,Pin_1_1*%
%TO.N,GND*%
X100000000Y-15000000D03*
D11*
%TO.P,J_L1_C1,2,Pin_2_2*%
%TO.N,V_SERVO_R*%
X97460000Y-15000000D03*
%TO.P,J_L1_C1,3,Pin_3_3*%
%TO.N,PWM_R_0*%
X94920000Y-15000000D03*
%TD*%
D26*
%TO.P,C_OUT3_L1,1*%
%TO.N,V_SERVO_L*%
X36225000Y-59000000D03*
%TO.P,C_OUT3_L1,2*%
%TO.N,GND*%
X37775000Y-59000000D03*
%TD*%
D10*
%TO.P,J_L6_T1,1,Pin_1_1*%
%TO.N,GND*%
X10000000Y-62000000D03*
D11*
%TO.P,J_L6_T1,2,Pin_2_2*%
%TO.N,V_SERVO_L*%
X12540000Y-62000000D03*
%TO.P,J_L6_T1,3,Pin_3_3*%
%TO.N,PWM_L_8*%
X15080000Y-62000000D03*
%TD*%
D43*
%TO.P,L_CHG1,1,1_1*%
%TO.N,VBUS*%
X41300000Y-73000000D03*
%TO.P,L_CHG1,2,2_2*%
%TO.N,CHG_SW*%
X47700000Y-73000000D03*
%TD*%
D10*
%TO.P,J_AUX1,1,Pin_1_1*%
%TO.N,GND*%
X90500000Y-73000000D03*
D11*
%TO.P,J_AUX1,2,Pin_2_2*%
%TO.N,V_SERVO_R*%
X90500000Y-75540000D03*
%TO.P,J_AUX1,3,Pin_3_3*%
%TO.N,PWM_R_9*%
X90500000Y-78080000D03*
%TD*%
D44*
%TO.P,LED_RGB_MAIN1,1,DOUT_1*%
%TO.N,unconnected-(LED_RGB_MAIN1-DOUT-Pad1)*%
X72085000Y11550000D03*
%TO.P,LED_RGB_MAIN1,2,VSS_2*%
%TO.N,GND*%
X72085000Y10450000D03*
%TO.P,LED_RGB_MAIN1,3,DIN_3*%
%TO.N,Net-(LED_RGB_MAIN1-DIN)*%
X73915000Y10450000D03*
%TO.P,LED_RGB_MAIN1,4,VDD_4*%
%TO.N,+3V3*%
X73915000Y11550000D03*
%TD*%
D26*
%TO.P,C_MPU2,1*%
%TO.N,Net-(U7-REGOUT)*%
X51725000Y-50500000D03*
%TO.P,C_MPU2,2*%
%TO.N,GND*%
X53275000Y-50500000D03*
%TD*%
D31*
%TO.P,C_OUT1_L1,1*%
%TO.N,V_SERVO_L*%
X43000000Y-51500000D03*
D32*
%TO.P,C_OUT1_L1,2*%
%TO.N,GND*%
X46500000Y-51500000D03*
%TD*%
D10*
%TO.P,J_AUX2,1,Pin_1_1*%
%TO.N,GND*%
X95000000Y-73000000D03*
D11*
%TO.P,J_AUX2,2,Pin_2_2*%
%TO.N,V_SERVO_R*%
X95000000Y-75540000D03*
%TO.P,J_AUX2,3,Pin_3_3*%
%TO.N,PWM_R_10*%
X95000000Y-78080000D03*
%TD*%
D26*
%TO.P,C_VBUS_MAIN1,1*%
%TO.N,GND*%
X104225000Y-78000000D03*
%TO.P,C_VBUS_MAIN1,2*%
%TO.N,VBUS_MAIN*%
X105775000Y-78000000D03*
%TD*%
D45*
%TO.P,C_PCA2,1*%
%TO.N,+3V3*%
X18000000Y-69950000D03*
%TO.P,C_PCA2,2*%
%TO.N,GND*%
X18000000Y-68050000D03*
%TD*%
D10*
%TO.P,J_L3_T1,1,Pin_1_1*%
%TO.N,GND*%
X100000000Y-62000000D03*
D11*
%TO.P,J_L3_T1,2,Pin_2_2*%
%TO.N,V_SERVO_R*%
X97460000Y-62000000D03*
%TO.P,J_L3_T1,3,Pin_3_3*%
%TO.N,PWM_R_8*%
X94920000Y-62000000D03*
%TD*%
D24*
%TO.P,SW_VIS_RST1,1,1_1*%
%TO.N,GND*%
X18400000Y12000000D03*
%TO.P,SW_VIS_RST1,2,2_2*%
%TO.N,VISION_RESET*%
X22600000Y12000000D03*
%TD*%
D46*
%TO.P,U2,1,D-_1*%
%TO.N,unconnected-(U2-D--Pad1)*%
X34037500Y-71750000D03*
%TO.P,U2,2,STAT_2*%
%TO.N,CHG_STAT*%
X34037500Y-72250000D03*
%TO.P,U2,3,~{CE}_3*%
%TO.N,unconnected-(U2-~{CE}-Pad3)*%
X34037500Y-72750000D03*
%TO.P,U2,4,GND_4*%
%TO.N,GND*%
X34037500Y-73250000D03*
%TO.P,U2,5,OTG_5*%
%TO.N,unconnected-(U2-OTG-Pad5)*%
X34037500Y-73750000D03*
%TO.P,U2,6,VSET_6*%
%TO.N,unconnected-(U2-VSET-Pad6)*%
X34037500Y-74250000D03*
D47*
%TO.P,U2,7,TS_7*%
%TO.N,unconnected-(U2-TS-Pad7)*%
X34750000Y-74962500D03*
%TO.P,U2,8,ILIM_8*%
%TO.N,unconnected-(U2-ILIM-Pad8)*%
X35250000Y-74962500D03*
%TO.P,U2,9,~{PG}_9*%
%TO.N,CHG_PG*%
X35750000Y-74962500D03*
%TO.P,U2,10,ICHGSET_10*%
%TO.N,unconnected-(U2-ICHGSET-Pad10)*%
X36250000Y-74962500D03*
%TO.P,U2,11,REGN_11*%
%TO.N,unconnected-(U2-REGN-Pad11)*%
X36750000Y-74962500D03*
%TO.P,U2,12,BTST_12*%
%TO.N,unconnected-(U2-BTST-Pad12)*%
X37250000Y-74962500D03*
D46*
%TO.P,U2,13,BAT_13*%
%TO.N,VBAT*%
X37962500Y-74250000D03*
%TO.P,U2,14,BAT_14*%
X37962500Y-73750000D03*
%TO.P,U2,15,SYS_15*%
%TO.N,unconnected-(U2-SYS-Pad15)_1*%
X37962500Y-73250000D03*
%TO.P,U2,16,SYS_16*%
%TO.N,unconnected-(U2-SYS-Pad15)*%
X37962500Y-72750000D03*
%TO.P,U2,17,SW_17*%
%TO.N,CHG_SW*%
X37962500Y-72250000D03*
%TO.P,U2,18,SW_18*%
X37962500Y-71750000D03*
D47*
%TO.P,U2,19,GND_19*%
%TO.N,GND*%
X37250000Y-71037500D03*
%TO.P,U2,20,GND_20*%
X36750000Y-71037500D03*
%TO.P,U2,21,PMID_21*%
%TO.N,VBUS*%
X36250000Y-71037500D03*
%TO.P,U2,22,PMID_22*%
X35750000Y-71037500D03*
%TO.P,U2,23,VBUS_23*%
X35250000Y-71037500D03*
%TO.P,U2,24,D+_24*%
%TO.N,unconnected-(U2-D+-Pad24)*%
X34750000Y-71037500D03*
D48*
%TO.P,U2,25,GND_25*%
%TO.N,GND*%
X34900000Y-71900000D03*
X34900000Y-73000000D03*
X34900000Y-74100000D03*
X36000000Y-71900000D03*
X36000000Y-73000000D03*
D49*
X36000000Y-73000000D03*
D48*
X36000000Y-74100000D03*
X37100000Y-71900000D03*
X37100000Y-73000000D03*
X37100000Y-74100000D03*
%TD*%
D50*
%TO.P,BZ1,1,+_1*%
%TO.N,Net-(BZ1-+)*%
X56900000Y-67500000D03*
D32*
%TO.P,BZ1,2,-_2*%
%TO.N,GND*%
X60100000Y-67500000D03*
%TD*%
D45*
%TO.P,C_PCA4,1*%
%TO.N,+3V3*%
X92000000Y-65950000D03*
%TO.P,C_PCA4,2*%
%TO.N,GND*%
X92000000Y-64050000D03*
%TD*%
D33*
%TO.P,LED_3V3,1,K_1*%
%TO.N,+3V3*%
X78212500Y-20000000D03*
%TO.P,LED_3V3,2,A_2*%
%TO.N,Net-(LED_3V3-A)*%
X79787500Y-20000000D03*
%TD*%
D19*
%TO.P,R_FB2_R1,1*%
%TO.N,Net-(U3_R1-FB)*%
X89500000Y-51325000D03*
%TO.P,R_FB2_R1,2*%
%TO.N,GND*%
X89500000Y-49675000D03*
%TD*%
D12*
%TO.P,R_NEO1,1*%
%TO.N,Net-(U1-IO48)*%
X74175000Y8000000D03*
%TO.P,R_NEO1,2*%
%TO.N,Net-(LED_RGB_MAIN1-DIN)*%
X75825000Y8000000D03*
%TD*%
D51*
%TO.P,U3_L1,1,GND_1*%
%TO.N,GND*%
X19850000Y-35600000D03*
%TO.P,U3_L1,2,FB_2*%
%TO.N,Net-(U3_L1-FB)*%
X19850000Y-37300000D03*
%TO.P,U3_L1,3,SW_3*%
%TO.N,Net-(D_CATCH_L1-A)*%
X19850000Y-39000000D03*
D52*
X29000000Y-39000000D03*
D51*
%TO.P,U3_L1,4,VC_4*%
%TO.N,GND*%
X19850000Y-40700000D03*
%TO.P,U3_L1,5,VIN_5*%
%TO.N,VBAT_SW*%
X19850000Y-42400000D03*
%TD*%
D20*
%TO.P,C_VIS_OUT1,1*%
%TO.N,+3V3_VIS*%
X47550000Y-12000000D03*
%TO.P,C_VIS_OUT1,2*%
%TO.N,GND*%
X49450000Y-12000000D03*
%TD*%
D10*
%TO.P,J_L5_C1,1,Pin_1_1*%
%TO.N,GND*%
X10000000Y-34000000D03*
D11*
%TO.P,J_L5_C1,2,Pin_2_2*%
%TO.N,V_SERVO_L*%
X12540000Y-34000000D03*
%TO.P,J_L5_C1,3,Pin_3_3*%
%TO.N,PWM_L_3*%
X15080000Y-34000000D03*
%TD*%
D26*
%TO.P,C_MPU1,1*%
%TO.N,+3V3*%
X51725000Y-39500000D03*
%TO.P,C_MPU1,2*%
%TO.N,GND*%
X53275000Y-39500000D03*
%TD*%
D12*
%TO.P,R_CAM_SDA1,1*%
%TO.N,+3V3_VIS*%
X65675000Y12000000D03*
%TO.P,R_CAM_SDA1,2*%
%TO.N,CAM_SDA*%
X67325000Y12000000D03*
%TD*%
D53*
%TO.P,J3,A1,GND_A1*%
%TO.N,GND*%
X80800000Y-82355000D03*
%TO.P,J3,A4,VBUS_A4*%
%TO.N,VBUS_VIS*%
X81600000Y-82355000D03*
D54*
%TO.P,J3,A5,CC1_A5*%
%TO.N,Net-(J3-CC1)*%
X82750000Y-82355000D03*
%TO.P,J3,A6,D+_A6*%
%TO.N,VIS_USB_D+*%
X83750000Y-82355000D03*
%TO.P,J3,A7,D-_A7*%
%TO.N,VIS_USB_D-*%
X84250000Y-82355000D03*
%TO.P,J3,A8,SBU1_A8*%
%TO.N,unconnected-(J3-SBU1-PadA8)*%
X85250000Y-82355000D03*
D53*
%TO.P,J3,A9,VBUS_A9*%
%TO.N,VBUS_VIS*%
X86400000Y-82355000D03*
%TO.P,J3,A12,GND_A12*%
%TO.N,GND*%
X87200000Y-82355000D03*
%TO.P,J3,B1,GND_B1*%
X87200000Y-82355000D03*
%TO.P,J3,B4,VBUS_B4*%
%TO.N,VBUS_VIS*%
X86400000Y-82355000D03*
D54*
%TO.P,J3,B5,CC2_B5*%
%TO.N,Net-(J3-CC2)*%
X85750000Y-82355000D03*
%TO.P,J3,B6,D+_B6*%
%TO.N,VIS_USB_D+*%
X84750000Y-82355000D03*
%TO.P,J3,B7,D-_B7*%
%TO.N,VIS_USB_D-*%
X83250000Y-82355000D03*
%TO.P,J3,B8,SBU2_B8*%
%TO.N,unconnected-(J3-SBU2-PadB8)*%
X82250000Y-82355000D03*
D53*
%TO.P,J3,B9,VBUS_B9*%
%TO.N,VBUS_VIS*%
X81600000Y-82355000D03*
%TO.P,J3,B12,GND_B12*%
%TO.N,GND*%
X80800000Y-82355000D03*
D55*
%TO.P,J3,SH,SHIELD_SH*%
X79680000Y-82995000D03*
D56*
X79680000Y-87175000D03*
D55*
X88320000Y-82995000D03*
D56*
X88320000Y-87175000D03*
%TD*%
D26*
%TO.P,C_U8_2,1*%
%TO.N,GND*%
X8725000Y4500000D03*
%TO.P,C_U8_2,2*%
%TO.N,+3V3_VIS*%
X10275000Y4500000D03*
%TD*%
D57*
%TO.P,C_BAT1,1*%
%TO.N,VBAT*%
X51000000Y-72975000D03*
%TO.P,C_BAT1,2*%
%TO.N,GND*%
X51000000Y-70025000D03*
%TD*%
D10*
%TO.P,J_L5_T1,1,Pin_1_1*%
%TO.N,GND*%
X10000000Y-43000000D03*
D11*
%TO.P,J_L5_T1,2,Pin_2_2*%
%TO.N,V_SERVO_L*%
X12540000Y-43000000D03*
%TO.P,J_L5_T1,3,Pin_3_3*%
%TO.N,PWM_L_5*%
X15080000Y-43000000D03*
%TD*%
D12*
%TO.P,R_VIS_BOOT1,1*%
%TO.N,+3V3_VIS*%
X35175000Y-5000000D03*
%TO.P,R_VIS_BOOT1,2*%
%TO.N,BOOT_VIS*%
X36825000Y-5000000D03*
%TD*%
D20*
%TO.P,C_U8_1,1*%
%TO.N,GND*%
X8550000Y7000000D03*
%TO.P,C_U8_1,2*%
%TO.N,+3V3_VIS*%
X10450000Y7000000D03*
%TD*%
D25*
%TO.P,LED_R1,1,K_1*%
%TO.N,V_SERVO_R*%
X89500000Y-54937500D03*
%TO.P,LED_R1,2,A_2*%
%TO.N,Net-(LED_R1-A)*%
X89500000Y-53062500D03*
%TD*%
D31*
%TO.P,C_ISO1,1*%
%TO.N,LDO_IN*%
X53000000Y-3500000D03*
D32*
%TO.P,C_ISO1,2*%
%TO.N,GND*%
X56500000Y-3500000D03*
%TD*%
D10*
%TO.P,J_I2C1,1,Pin_1_1*%
%TO.N,+3V3*%
X85500000Y-70500000D03*
D11*
%TO.P,J_I2C1,2,Pin_2_2*%
%TO.N,GND*%
X85500000Y-73040000D03*
%TO.P,J_I2C1,3,Pin_3_3*%
%TO.N,I2C_SCL*%
X85500000Y-75580000D03*
%TO.P,J_I2C1,4,Pin_4_4*%
%TO.N,I2C_SDA*%
X85500000Y-78120000D03*
%TD*%
D12*
%TO.P,R_SCL1,1*%
%TO.N,+3V3*%
X53675000Y-57000000D03*
%TO.P,R_SCL1,2*%
%TO.N,I2C_SCL*%
X55325000Y-57000000D03*
%TD*%
D18*
%TO.P,L_SERVO_L1,1,1_1*%
%TO.N,Net-(D_CATCH_L1-A)*%
X37550000Y-39000000D03*
%TO.P,L_SERVO_L1,2,2_2*%
%TO.N,V_SERVO_L*%
X47450000Y-39000000D03*
%TD*%
D15*
%TO.P,C_OUT2_L1,1*%
%TO.N,V_SERVO_L*%
X41525000Y-59000000D03*
%TO.P,C_OUT2_L1,2*%
%TO.N,GND*%
X44475000Y-59000000D03*
%TD*%
D58*
%TO.P,Q_CAM_LED1,1,G_1*%
%TO.N,Net-(Q_CAM_LED1-G)*%
X35062500Y11950000D03*
%TO.P,Q_CAM_LED1,2,S_2*%
%TO.N,GND*%
X35062500Y10050000D03*
%TO.P,Q_CAM_LED1,3,D_3*%
%TO.N,CAM_LED_DRAIN*%
X36937500Y11000000D03*
%TD*%
D59*
%TO.P,U7,1,CLKIN_1*%
%TO.N,GND*%
X53050000Y-43750000D03*
%TO.P,U7,2,NC_2*%
%TO.N,unconnected-(U7-NC-Pad2)*%
X53050000Y-44250000D03*
%TO.P,U7,3,NC_3*%
%TO.N,unconnected-(U7-NC-Pad3)*%
X53050000Y-44750000D03*
%TO.P,U7,4,NC_4*%
%TO.N,unconnected-(U7-NC-Pad4)*%
X53050000Y-45250000D03*
%TO.P,U7,5,NC_5*%
%TO.N,unconnected-(U7-NC-Pad5)*%
X53050000Y-45750000D03*
%TO.P,U7,6,AUX_DA_6*%
%TO.N,unconnected-(U7-AUX_DA-Pad6)*%
X53050000Y-46250000D03*
D60*
%TO.P,U7,7,AUX_CL_7*%
%TO.N,unconnected-(U7-AUX_CL-Pad7)*%
X53750000Y-46950000D03*
%TO.P,U7,8,VLOGIC_8*%
%TO.N,+3V3*%
X54250000Y-46950000D03*
%TO.P,U7,9,AD0_9*%
%TO.N,GND*%
X54750000Y-46950000D03*
%TO.P,U7,10,REGOUT_10*%
%TO.N,Net-(U7-REGOUT)*%
X55250000Y-46950000D03*
%TO.P,U7,11,FSYNC_11*%
%TO.N,GND*%
X55750000Y-46950000D03*
%TO.P,U7,12,INT_12*%
%TO.N,MPU_INT*%
X56250000Y-46950000D03*
D59*
%TO.P,U7,13,VDD_13*%
%TO.N,+3V3*%
X56950000Y-46250000D03*
%TO.P,U7,14,NC_14*%
%TO.N,unconnected-(U7-NC-Pad14)*%
X56950000Y-45750000D03*
%TO.P,U7,15,NC_15*%
%TO.N,unconnected-(U7-NC-Pad15)*%
X56950000Y-45250000D03*
%TO.P,U7,16,NC_16*%
%TO.N,unconnected-(U7-NC-Pad16)*%
X56950000Y-44750000D03*
%TO.P,U7,17,NC_17*%
%TO.N,unconnected-(U7-NC-Pad17)*%
X56950000Y-44250000D03*
%TO.P,U7,18,GND_18*%
%TO.N,GND*%
X56950000Y-43750000D03*
D60*
%TO.P,U7,19,RESV_19*%
%TO.N,unconnected-(U7-RESV-Pad19)*%
X56250000Y-43050000D03*
%TO.P,U7,20,CPOUT_20*%
%TO.N,Net-(U7-CPOUT)*%
X55750000Y-43050000D03*
%TO.P,U7,21,RESV_21*%
%TO.N,unconnected-(U7-RESV-Pad21)*%
X55250000Y-43050000D03*
%TO.P,U7,22,RESV_22*%
%TO.N,unconnected-(U7-RESV-Pad22)*%
X54750000Y-43050000D03*
%TO.P,U7,23,SCL_23*%
%TO.N,I2C_SCL*%
X54250000Y-43050000D03*
%TO.P,U7,24,SDA_24*%
%TO.N,I2C_SDA*%
X53750000Y-43050000D03*
%TD*%
D10*
%TO.P,J_L5_F1,1,Pin_1_1*%
%TO.N,GND*%
X10000000Y-38500000D03*
D11*
%TO.P,J_L5_F1,2,Pin_2_2*%
%TO.N,V_SERVO_L*%
X12540000Y-38500000D03*
%TO.P,J_L5_F1,3,Pin_3_3*%
%TO.N,PWM_L_4*%
X15080000Y-38500000D03*
%TD*%
D12*
%TO.P,R_CAM_LED1,1*%
%TO.N,CAM_LED_PWM*%
X35175000Y7000000D03*
%TO.P,R_CAM_LED1,2*%
%TO.N,Net-(Q_CAM_LED1-G)*%
X36825000Y7000000D03*
%TD*%
%TO.P,R_FULL1,1*%
%TO.N,VBUS*%
X28675000Y-87500000D03*
%TO.P,R_FULL1,2*%
%TO.N,CHG_PG*%
X30325000Y-87500000D03*
%TD*%
D10*
%TO.P,J_L3_F1,1,Pin_1_1*%
%TO.N,GND*%
X100000000Y-57500000D03*
D11*
%TO.P,J_L3_F1,2,Pin_2_2*%
%TO.N,V_SERVO_R*%
X97460000Y-57500000D03*
%TO.P,J_L3_F1,3,Pin_3_3*%
%TO.N,PWM_R_7*%
X94920000Y-57500000D03*
%TD*%
D45*
%TO.P,C_VBUS1,1*%
%TO.N,VBUS*%
X44500000Y-84450000D03*
%TO.P,C_VBUS1,2*%
%TO.N,GND*%
X44500000Y-82550000D03*
%TD*%
D12*
%TO.P,R_PD_CAM_LED1,1*%
%TO.N,Net-(Q_CAM_LED1-G)*%
X35175000Y4500000D03*
%TO.P,R_PD_CAM_LED1,2*%
%TO.N,GND*%
X36825000Y4500000D03*
%TD*%
D10*
%TO.P,J_L4_T1,1,Pin_1_1*%
%TO.N,GND*%
X10000000Y-24000000D03*
D11*
%TO.P,J_L4_T1,2,Pin_2_2*%
%TO.N,V_SERVO_L*%
X12540000Y-24000000D03*
%TO.P,J_L4_T1,3,Pin_3_3*%
%TO.N,PWM_L_2*%
X15080000Y-24000000D03*
%TD*%
D53*
%TO.P,J1,A1,GND_A1*%
%TO.N,GND*%
X33800000Y-82355000D03*
%TO.P,J1,A4,VBUS_A4*%
%TO.N,VBUS*%
X34600000Y-82355000D03*
D54*
%TO.P,J1,A5,CC1_A5*%
%TO.N,CC1*%
X35750000Y-82355000D03*
%TO.P,J1,A6,D+_A6*%
%TO.N,USB_D+*%
X36750000Y-82355000D03*
%TO.P,J1,A7,D-_A7*%
%TO.N,USB_D-*%
X37250000Y-82355000D03*
%TO.P,J1,A8,SBU1_A8*%
%TO.N,unconnected-(J1-SBU1-PadA8)*%
X38250000Y-82355000D03*
D53*
%TO.P,J1,A9,VBUS_A9*%
%TO.N,VBUS*%
X39400000Y-82355000D03*
%TO.P,J1,A12,GND_A12*%
%TO.N,GND*%
X40200000Y-82355000D03*
%TO.P,J1,B1,GND_B1*%
X40200000Y-82355000D03*
%TO.P,J1,B4,VBUS_B4*%
%TO.N,VBUS*%
X39400000Y-82355000D03*
D54*
%TO.P,J1,B5,CC2_B5*%
%TO.N,CC2*%
X38750000Y-82355000D03*
%TO.P,J1,B6,D+_B6*%
%TO.N,USB_D+*%
X37750000Y-82355000D03*
%TO.P,J1,B7,D-_B7*%
%TO.N,USB_D-*%
X36250000Y-82355000D03*
%TO.P,J1,B8,SBU2_B8*%
%TO.N,unconnected-(J1-SBU2-PadB8)*%
X35250000Y-82355000D03*
D53*
%TO.P,J1,B9,VBUS_B9*%
%TO.N,VBUS*%
X34600000Y-82355000D03*
%TO.P,J1,B12,GND_B12*%
%TO.N,GND*%
X33800000Y-82355000D03*
D55*
%TO.P,J1,SH,SHIELD_SH*%
X32680000Y-82995000D03*
D56*
X32680000Y-87175000D03*
D55*
X41320000Y-82995000D03*
D56*
X41320000Y-87175000D03*
%TD*%
D61*
%TO.P,D_STAT1,1,K_1*%
%TO.N,LED_STATUS*%
X61000000Y-11287500D03*
%TO.P,D_STAT1,2,A_2*%
%TO.N,GND*%
X61000000Y-9712500D03*
%TD*%
D20*
%TO.P,C_TOF_OUT1,1*%
%TO.N,+5V_TOF*%
X61050000Y-20000000D03*
%TO.P,C_TOF_OUT1,2*%
%TO.N,GND*%
X62950000Y-20000000D03*
%TD*%
D53*
%TO.P,J2,A1,GND_A1*%
%TO.N,GND*%
X92300000Y-82355000D03*
%TO.P,J2,A4,VBUS_A4*%
%TO.N,VBUS_MAIN*%
X93100000Y-82355000D03*
D54*
%TO.P,J2,A5,CC1_A5*%
%TO.N,Net-(J2-CC1)*%
X94250000Y-82355000D03*
%TO.P,J2,A6,D+_A6*%
%TO.N,USB_D+*%
X95250000Y-82355000D03*
%TO.P,J2,A7,D-_A7*%
%TO.N,USB_D-*%
X95750000Y-82355000D03*
%TO.P,J2,A8,SBU1_A8*%
%TO.N,unconnected-(J2-SBU1-PadA8)*%
X96750000Y-82355000D03*
D53*
%TO.P,J2,A9,VBUS_A9*%
%TO.N,VBUS_MAIN*%
X97900000Y-82355000D03*
%TO.P,J2,A12,GND_A12*%
%TO.N,GND*%
X98700000Y-82355000D03*
%TO.P,J2,B1,GND_B1*%
X98700000Y-82355000D03*
%TO.P,J2,B4,VBUS_B4*%
%TO.N,VBUS_MAIN*%
X97900000Y-82355000D03*
D54*
%TO.P,J2,B5,CC2_B5*%
%TO.N,Net-(J2-CC2)*%
X97250000Y-82355000D03*
%TO.P,J2,B6,D+_B6*%
%TO.N,USB_D+*%
X96250000Y-82355000D03*
%TO.P,J2,B7,D-_B7*%
%TO.N,USB_D-*%
X94750000Y-82355000D03*
%TO.P,J2,B8,SBU2_B8*%
%TO.N,unconnected-(J2-SBU2-PadB8)*%
X93750000Y-82355000D03*
D53*
%TO.P,J2,B9,VBUS_B9*%
%TO.N,VBUS_MAIN*%
X93100000Y-82355000D03*
%TO.P,J2,B12,GND_B12*%
%TO.N,GND*%
X92300000Y-82355000D03*
D55*
%TO.P,J2,SH,SHIELD_SH*%
X91180000Y-82995000D03*
D56*
X91180000Y-87175000D03*
D55*
X99820000Y-82995000D03*
D56*
X99820000Y-87175000D03*
%TD*%
D10*
%TO.P,J_L1_T1,1,Pin_1_1*%
%TO.N,GND*%
X100000000Y-24000000D03*
D11*
%TO.P,J_L1_T1,2,Pin_2_2*%
%TO.N,V_SERVO_R*%
X97460000Y-24000000D03*
%TO.P,J_L1_T1,3,Pin_3_3*%
%TO.N,PWM_R_2*%
X94920000Y-24000000D03*
%TD*%
D12*
%TO.P,R_CC1,1*%
%TO.N,CC1*%
X28675000Y-81500000D03*
%TO.P,R_CC1,2*%
%TO.N,GND*%
X30325000Y-81500000D03*
%TD*%
D26*
%TO.P,C_MPU3,1*%
%TO.N,+3V3*%
X56725000Y-39500000D03*
%TO.P,C_MPU3,2*%
%TO.N,GND*%
X58275000Y-39500000D03*
%TD*%
D62*
%TO.N,GND*%
X80862700Y5585900D03*
X76394700Y3262900D03*
X53066400Y-43138600D03*
X32106700Y-28305900D03*
X69892400Y15063300D03*
X81145400Y-13808700D03*
X66136700Y-12607400D03*
X19737400Y-67870700D03*
X68014900Y5184100D03*
X55000000Y-38231700D03*
X79021300Y-85081800D03*
X90610500Y-49112700D03*
X106723500Y-75890000D03*
X57500000Y2000000D03*
X46335000Y-85988300D03*
X42797000Y-82690200D03*
X48903300Y3900000D03*
X18713000Y-50086200D03*
X34151600Y8729100D03*
X67000000Y-59480500D03*
X83020600Y-60762100D03*
X105633200Y-74250000D03*
X75909200Y1420900D03*
X13302800Y7036000D03*
X85500000Y-60050000D03*
X37547100Y-59968400D03*
X51999400Y-10799400D03*
X93076400Y-37226800D03*
X19477600Y-63702500D03*
X75849200Y-58979000D03*
X19259600Y-34417400D03*
X56910400Y-43138600D03*
X21574200Y-71333100D03*
X81078300Y-17484400D03*
X78452900Y-87409100D03*
X31452900Y-81533200D03*
X49635400Y-75078200D03*
X28027300Y-53051200D03*
X93967400Y-64906800D03*
X24500000Y-64075000D03*
X48624100Y-21328100D03*
X75581100Y6682100D03*
X32081200Y5628300D03*
X57921200Y-49570800D03*
X53978200Y-49364400D03*
X94059300Y-59622400D03*
X69981300Y-4436400D03*
X72297500Y8904400D03*
X21323700Y-55894100D03*
X74785800Y-3447100D03*
X14000000Y-77000000D03*
X31452900Y-84515200D03*
X90741200Y-44296200D03*
X61959500Y-13248400D03*
X51144400Y-71457700D03*
X59996100Y-9738700D03*
X51153500Y-12436400D03*
X36825000Y3000000D03*
X59047300Y-37936600D03*
X52022000Y-16475500D03*
X55750000Y-49300000D03*
X81078300Y-67889000D03*
X37016600Y-11689800D03*
X80857900Y-27552100D03*
X61673200Y4546600D03*
X17087100Y-40781300D03*
X55299700Y-14578600D03*
X70441200Y299000D03*
X64040900Y-19556300D03*
X43127800Y-58852800D03*
X34970800Y-649900D03*
X40724500Y-9625500D03*
X53800500Y3613000D03*
X91103100Y-56705500D03*
X81078300Y-23412200D03*
X81245400Y-53664600D03*
X27415100Y-65627700D03*
X96698000Y7034400D03*
%TO.N,V_SERVO_L*%
X34500000Y-59000000D03*
X16500000Y-46175000D03*
X16500000Y-37300000D03*
X39500000Y-59000000D03*
X22500000Y-54937500D03*
D63*
X45000000Y-44000000D03*
X45000000Y-41450000D03*
D62*
%TO.N,PWM_L_0*%
X19423300Y-65121700D03*
%TO.N,+3V3_VIS*%
X41283700Y-12724600D03*
X11269800Y4860400D03*
X19426900Y6523900D03*
X11490100Y6608100D03*
X33924300Y-5546800D03*
X37206600Y-9005500D03*
%TO.N,VISION_RESET*%
X11302900Y2723100D03*
X14586500Y2680600D03*
X89796100Y-10281000D03*
%TO.N,+3V3*%
X69892400Y-23412200D03*
X72209600Y-1958600D03*
X75849200Y-70834600D03*
X57500000Y-48200000D03*
X90063600Y-66470400D03*
X54250000Y-48200000D03*
%TO.N,V_SERVO_R*%
X87500000Y-54937500D03*
X70200000Y-59000000D03*
D63*
X65000000Y-41450000D03*
X65000000Y-44000000D03*
D62*
X63500000Y-59000000D03*
%TO.N,PWM_R_6*%
X84657700Y-64027000D03*
D63*
%TO.N,VBAT_SW*%
X22939100Y-40854900D03*
D62*
%TO.N,Net-(U3_R1-FB)*%
X91500000Y-47825000D03*
%TO.N,VBUS*%
X39400000Y-80500000D03*
D63*
X39657100Y-73284100D03*
D62*
X34600000Y-80500000D03*
%TO.N,LED_STATUS*%
X76051000Y-15551200D03*
X85679000Y3122700D03*
%TO.N,PWM_L_6*%
X19737400Y-70001700D03*
D63*
%TO.N,VBAT*%
X37948100Y-75349300D03*
D62*
%TO.N,Net-(U3_L1-FB)*%
X18500000Y-47825000D03*
%TO.N,I2C_SDA*%
X83660700Y-59168000D03*
X83197700Y-8168800D03*
X47747200Y-48412600D03*
X53815500Y-58165200D03*
%TO.N,PWM_R_1*%
X84790600Y-61522600D03*
%TO.N,+5V_TOF*%
X41767300Y-14520500D03*
X41500000Y11000000D03*
%TO.N,TOF_RXD*%
X23428300Y5043800D03*
%TO.N,TOF_TXD*%
X28194800Y3262900D03*
%TO.N,UART_TX*%
X84784400Y3008900D03*
%TO.N,UART_RX*%
X99676400Y299000D03*
%TO.N,LDO_IN*%
X64196800Y-16849700D03*
%TO.N,CAM_LED_DRAIN*%
X38500000Y4000000D03*
%TO.N,PWM_L_1*%
X20242900Y-66257200D03*
%TO.N,PWM_L_2*%
X24433000Y-63104100D03*
%TO.N,PWM_L_3*%
X25406400Y-67986600D03*
%TO.N,PWM_L_4*%
X21701700Y-67478200D03*
%TO.N,PWM_L_5*%
X21527800Y-65758300D03*
%TO.N,SERVO_OE*%
X87328500Y-14954800D03*
X84709900Y-60631700D03*
X84629500Y-54939200D03*
%TO.N,I2C_SCL*%
X54184100Y-42096500D03*
X58329900Y-55241200D03*
X83773100Y-54936900D03*
X83953700Y-18289500D03*
X84135000Y-59835500D03*
%TO.N,PWM_R_0*%
X85467300Y-57586000D03*
%TO.N,PWM_R_2*%
X88479200Y-46846300D03*
X83650600Y-62137100D03*
%TO.N,PWM_R_3*%
X85238900Y-62955700D03*
%TO.N,PWM_R_5*%
X88457200Y-50577300D03*
%TO.N,PWM_R_7*%
X85662200Y-63625100D03*
%TO.N,PWM_R_8*%
X88250000Y-67256000D03*
%TO.N,ESP_IO0*%
X94511900Y-10587300D03*
X66914000Y-4920900D03*
%TO.N,BUZZER*%
X85555900Y-54753400D03*
X90741200Y-14520500D03*
%TO.N,Net-(BZ1-+)*%
X63994700Y-56641500D03*
%TO.N,VBUS_VIS*%
X86400000Y-80500000D03*
X81600000Y-80500000D03*
%TO.N,Net-(LED_3V3-A)*%
X79897300Y-21203000D03*
%TO.N,VISION_SYNC*%
X31883500Y-11921700D03*
X76902600Y-1618800D03*
%TO.N,INTER_UART_RX*%
X77774000Y-2174500D03*
X40108400Y1189900D03*
%TO.N,INTER_UART_TX*%
X45332100Y2701100D03*
X62110700Y-5794900D03*
%TO.N,MPU_INT*%
X65962400Y-47552700D03*
X77919200Y-6725400D03*
%TO.N,USB_D-*%
X78985200Y-16324600D03*
X79330000Y-76663200D03*
%TO.N,USB_D+*%
X79144700Y-12066000D03*
X78536500Y-79394600D03*
%TO.N,CAM_PWDN*%
X30403200Y-12091500D03*
X56362300Y6854600D03*
%TO.N,CAM_D7*%
X54083900Y517900D03*
X14501200Y-3613400D03*
%TO.N,CAM_D6*%
X14542600Y-5229100D03*
X54824800Y-220600D03*
%TO.N,CAM_PCLK*%
X37613600Y2983300D03*
X36039300Y-7214000D03*
%TO.N,CAM_D4*%
X24473900Y-13246800D03*
X50774100Y-2826900D03*
%TO.N,CAM_D3*%
X32458200Y-6622000D03*
X22000000Y-10587300D03*
%TO.N,CAM_D2*%
X15186100Y-7701700D03*
X31974100Y-6012500D03*
%TO.N,Net-(U7-CPOUT)*%
X55154800Y-42168300D03*
X56944800Y-49314700D03*
%TO.N,VIS_USB_D-*%
X61823200Y-82690200D03*
X14678500Y-10587300D03*
%TO.N,VIS_USB_D+*%
X15103200Y-8592700D03*
X83442200Y-84319200D03*
%TO.N,Net-(U7-REGOUT)*%
X55083100Y-50667300D03*
X54045100Y-51206100D03*
%TO.N,VBUS_MAIN*%
X106624500Y-76799600D03*
D63*
X95924500Y-80617500D03*
X94498900Y-79876800D03*
%TD*%
%TO.N,GND*%
D64*
X28027300Y-53051200D02*
X30151200Y-53051200D01*
X95748300Y6507600D02*
X95748300Y5910000D01*
X77415900Y-87409100D02*
X77325000Y-87500000D01*
X54543300Y-38231700D02*
X53275000Y-39500000D01*
X81137500Y-58425000D02*
X81137500Y-59075000D01*
X55299700Y-14578600D02*
X53853600Y-14578600D01*
X33138300Y-81693300D02*
X33800000Y-82355000D01*
X37016600Y-11689800D02*
X36260200Y-11689800D01*
X73796000Y-58979000D02*
X73775000Y-59000000D01*
X30151200Y-53051200D02*
X31000000Y-53900000D01*
X90062300Y-49112700D02*
X89500000Y-49675000D01*
X99820000Y-81693300D02*
X99361700Y-81693300D01*
X81078300Y-17484400D02*
X80259400Y-17484400D01*
X41320000Y-81693300D02*
X40861700Y-81693300D01*
X23029400Y-71333100D02*
X21574200Y-71333100D01*
X44736700Y-85988300D02*
X44500000Y-86225000D01*
X70441200Y299000D02*
X69801000Y299000D01*
X81078300Y-67889000D02*
X81137500Y-67829800D01*
X14251700Y5910000D02*
X14251700Y6507200D01*
X79021300Y-85081800D02*
X77406800Y-85081800D01*
X37547100Y-59968400D02*
X37775000Y-59740500D01*
X80141300Y-13808700D02*
X79950000Y-14000000D01*
X37775000Y-59740500D02*
X37775000Y-59000000D01*
X90741200Y-44296200D02*
X90150000Y-43705000D01*
X50646800Y-75078200D02*
X51000000Y-74725000D01*
X96698000Y7034400D02*
X96275100Y7034400D01*
X18179300Y-67870700D02*
X18000000Y-68050000D01*
X59996100Y-9738700D02*
X60973800Y-9738700D01*
X19477600Y-63702500D02*
X18522500Y-63702500D01*
X53750000Y3663500D02*
X53750000Y5150000D01*
X49250000Y4248300D02*
X49250000Y4246700D01*
X19737400Y-67870700D02*
X18179300Y-67870700D01*
X43127800Y-58852800D02*
X44327800Y-58852800D01*
D65*
X86862500Y-60050000D02*
X85500000Y-60050000D01*
D64*
X91638300Y-81693300D02*
X92300000Y-82355000D01*
X19800000Y-1810000D02*
X20500000Y-1810000D01*
X81078300Y-23412200D02*
X80737200Y-23412200D01*
X99820000Y-82995000D02*
X99820000Y-81693300D01*
X93076400Y-37226800D02*
X90223200Y-37226800D01*
X31280900Y-28305900D02*
X30975000Y-28000000D01*
X67994500Y-59480500D02*
X68475000Y-59000000D01*
X72297500Y8904400D02*
X72085000Y9116900D01*
X14251700Y6507200D02*
X13722900Y7036000D01*
X34151600Y8729100D02*
X35062500Y9640000D01*
X99361700Y-81693300D02*
X98700000Y-82355000D01*
X69801000Y299000D02*
X69100000Y1000000D01*
X69913800Y-4368800D02*
X69468800Y-4368800D01*
X80737200Y-23412200D02*
X79825000Y-22500000D01*
X23137500Y-64075000D02*
X23137500Y-63425000D01*
X81245400Y-53664600D02*
X79235400Y-53664600D01*
X64040900Y-19556300D02*
X63393700Y-19556300D01*
X60973800Y-9738700D02*
X61000000Y-9712500D01*
X79680000Y-82995000D02*
X79680000Y-81693300D01*
X90150000Y-43705000D02*
X90150000Y-42400000D01*
X31452900Y-84515200D02*
X30340200Y-84515200D01*
X81137500Y-60375000D02*
X82633500Y-60375000D01*
X31452900Y-81533200D02*
X30358200Y-81533200D01*
X106723500Y-75890000D02*
X106215000Y-75890000D01*
X32081200Y5628300D02*
X32033400Y5628300D01*
X48624100Y-21328100D02*
X48950000Y-21002200D01*
X74775000Y-3457900D02*
X74775000Y-4500000D01*
X58275000Y-49924600D02*
X58275000Y-50500000D01*
X53800500Y3613000D02*
X53750000Y3663500D01*
X53275000Y-50067600D02*
X53275000Y-50500000D01*
X81137500Y-67829800D02*
X81137500Y-66225000D01*
X58275000Y-38708900D02*
X58275000Y-39500000D01*
X53853600Y-14578600D02*
X53775000Y-14500000D01*
X13722900Y7036000D02*
X13302800Y7036000D01*
X69981300Y-4436400D02*
X69913800Y-4368900D01*
X60250000Y5150000D02*
X60250000Y4248300D01*
X80138300Y-81693300D02*
X80800000Y-82355000D01*
X79235400Y-53664600D02*
X79000000Y-53900000D01*
X75212900Y3262900D02*
X74950000Y3000000D01*
X72085000Y9116900D02*
X72085000Y10450000D01*
X32033400Y5628300D02*
X31751700Y5910000D01*
D65*
X86862500Y-59725000D02*
X86862500Y-60375000D01*
D64*
X63393700Y-19556300D02*
X62950000Y-20000000D01*
X96750000Y5910000D02*
X95748300Y5910000D01*
X80862700Y5585900D02*
X80575800Y5585900D01*
X80857900Y-27552100D02*
X81527100Y-27552100D01*
X90223200Y-37226800D02*
X90150000Y-37300000D01*
X32680000Y-82995000D02*
X32680000Y-81693300D01*
X40724500Y-9625500D02*
X38924500Y-9625500D01*
X61959500Y-13248400D02*
X61073400Y-13248400D01*
X78452900Y-87409100D02*
X77415900Y-87409100D01*
X27415100Y-65627700D02*
X27667800Y-65375000D01*
X75775000Y6488200D02*
X75581100Y6682100D01*
X51999400Y-10799400D02*
X52624400Y-10799400D01*
X51000000Y-70025000D02*
X51000000Y-71313300D01*
X30358200Y-81533200D02*
X30325000Y-81500000D01*
X96275100Y7034400D02*
X95748300Y6507600D01*
X49635400Y-75078200D02*
X50646800Y-75078200D01*
X91180000Y-82995000D02*
X91180000Y-81693300D01*
X75695900Y1420900D02*
X74775000Y500000D01*
X79680000Y-81693300D02*
X80138300Y-81693300D01*
X61374900Y4248300D02*
X60250000Y4248300D01*
X49250000Y4246700D02*
X48903300Y3900000D01*
X34970800Y-649900D02*
X34250100Y-649900D01*
X69892400Y15063300D02*
X68513300Y15063300D01*
X81145400Y-13808700D02*
X80141300Y-13808700D01*
X106215000Y-75890000D02*
X105825000Y-75500000D01*
X49886400Y-12436400D02*
X49450000Y-12000000D01*
X49250000Y5150000D02*
X49250000Y4248300D01*
X74785800Y-3447100D02*
X74775000Y-3457900D01*
X37100000Y-71900000D02*
X37100000Y-71037500D01*
X37250000Y-71037500D02*
X37100000Y-71037500D01*
X85800000Y-1810000D02*
X86500000Y-1810000D01*
X32680000Y-81693300D02*
X33138300Y-81693300D01*
X61673200Y4546600D02*
X61374900Y4248300D01*
D65*
X23137500Y-64075000D02*
X24500000Y-64075000D01*
D64*
X34900000Y-73000000D02*
X34650000Y-73250000D01*
X94059300Y-59622400D02*
X92602600Y-59622400D01*
X46335000Y-85988300D02*
X44736700Y-85988300D01*
X80259400Y-17484400D02*
X79775000Y-17000000D01*
X17087100Y-40781300D02*
X19768700Y-40781300D01*
X21323700Y-55894100D02*
X21280900Y-55894100D01*
X13250000Y5910000D02*
X14251700Y5910000D01*
X75909200Y1420900D02*
X75695900Y1420900D01*
X88320000Y-82995000D02*
X88320000Y-81693300D01*
X51850000Y-16647500D02*
X51850000Y-17700000D01*
X81137500Y-59725000D02*
X81137500Y-60375000D01*
X51000000Y-71313300D02*
X51144400Y-71457700D01*
X69468800Y-4368800D02*
X69100000Y-4000000D01*
X56910400Y-43138600D02*
X56950000Y-43178200D01*
X34250100Y-649900D02*
X33900000Y-1000000D01*
X51153500Y-12436400D02*
X49886400Y-12436400D01*
D66*
X55950000Y2000000D02*
X57500000Y2000000D01*
D64*
X56950000Y-43178200D02*
X56950000Y-43750000D01*
X32106700Y-28305900D02*
X31280900Y-28305900D01*
X93967400Y-64906800D02*
X92856800Y-64906800D01*
X41320000Y-82995000D02*
X41320000Y-81693300D01*
X77406800Y-85081800D02*
X77325000Y-85000000D01*
X30750000Y5910000D02*
X31751700Y5910000D01*
X89530500Y-56705500D02*
X89500000Y-56675000D01*
X28862500Y-65375000D02*
X28862500Y-64725000D01*
X68014900Y5184100D02*
X67275000Y5924000D01*
X19850000Y-35007800D02*
X19850000Y-35600000D01*
X87861700Y-81693300D02*
X87200000Y-82355000D01*
X40861700Y-81693300D02*
X40200000Y-82355000D01*
X82633500Y-60375000D02*
X83020600Y-60762100D01*
X67000000Y-59480500D02*
X67994500Y-59480500D01*
D65*
X23137500Y-62775000D02*
X23137500Y-65375000D01*
D64*
X49750000Y5150000D02*
X49750000Y4248300D01*
X30340200Y-84515200D02*
X30325000Y-84500000D01*
X53050000Y-43750000D02*
X53050000Y-43155000D01*
X57921200Y-49570800D02*
X58275000Y-49924600D01*
X81137500Y-59075000D02*
X81137500Y-59725000D01*
X19768700Y-40781300D02*
X19850000Y-40700000D01*
X59047300Y-37936600D02*
X58275000Y-38708900D01*
X75775000Y5500000D02*
X75775000Y6488200D01*
X27667800Y-65375000D02*
X28862500Y-65375000D01*
X67275000Y5924000D02*
X67275000Y6000000D01*
X36260200Y-11689800D02*
X35950000Y-12000000D01*
X53050000Y-43155000D02*
X53066400Y-43138600D01*
X42797000Y-82690200D02*
X44359800Y-82690200D01*
X52022000Y-16475500D02*
X51850000Y-16647500D01*
X19259600Y-34417400D02*
X19850000Y-35007800D01*
X53978200Y-49364400D02*
X53275000Y-50067600D01*
X61073400Y-13248400D02*
X61000000Y-13175000D01*
D67*
X14000000Y-75000000D02*
X14000000Y-77000000D01*
D64*
X90610500Y-49112700D02*
X90062300Y-49112700D01*
X44327800Y-58852800D02*
X44475000Y-59000000D01*
X20088800Y-50086200D02*
X18713000Y-50086200D01*
X34650000Y-73250000D02*
X34037500Y-73250000D01*
D65*
X36825000Y4500000D02*
X36825000Y3000000D01*
D64*
X92602600Y-59622400D02*
X92000000Y-60225000D01*
X88320000Y-81693300D02*
X87861700Y-81693300D01*
X18522500Y-63702500D02*
X18000000Y-64225000D01*
X79250000Y5910000D02*
X80251700Y5910000D01*
X91103100Y-56705500D02*
X89530500Y-56705500D01*
X92856800Y-64906800D02*
X92000000Y-64050000D01*
X44359800Y-82690200D02*
X44500000Y-82550000D01*
X55750000Y-46950000D02*
X55750000Y-49300000D01*
X67757400Y-12607400D02*
X67850000Y-12700000D01*
X66136700Y-12607400D02*
X67757400Y-12607400D01*
X105825000Y-74058200D02*
X105825000Y-73000000D01*
X81527100Y-27552100D02*
X81975000Y-28000000D01*
X49750000Y4248300D02*
X49250000Y4248300D01*
X37100000Y-71037500D02*
X36750000Y-71037500D01*
X38924500Y-9625500D02*
X38850000Y-9700000D01*
X23137500Y-71225000D02*
X23029400Y-71333100D01*
X20500000Y-49675000D02*
X20088800Y-50086200D01*
X69913800Y-4368900D02*
X69913800Y-4368800D01*
X35062500Y9640000D02*
X35062500Y10050000D01*
X48950000Y-21002200D02*
X48950000Y-20000000D01*
X105633200Y-74250000D02*
X105825000Y-74058200D01*
X80575800Y5585900D02*
X80251700Y5910000D01*
X21280900Y-55894100D02*
X20500000Y-56675000D01*
X91180000Y-81693300D02*
X91638300Y-81693300D01*
X75849200Y-58979000D02*
X73796000Y-58979000D01*
X76394700Y3262900D02*
X75212900Y3262900D01*
X68513300Y15063300D02*
X67450000Y14000000D01*
X55000000Y-38231700D02*
X54543300Y-38231700D01*
X52624400Y-10799400D02*
X53825000Y-12000000D01*
%TO.N,V_SERVO_L*%
D68*
X45000000Y-41450000D02*
X45000000Y-44000000D01*
D65*
X19850000Y-37300000D02*
X16500000Y-37300000D01*
D67*
X36225000Y-59000000D02*
X34500000Y-59000000D01*
D69*
X12540000Y-34000000D02*
X12540000Y-43000000D01*
D68*
X43000000Y-46000000D02*
X43000000Y-51500000D01*
X47450000Y-39000000D02*
X45000000Y-41450000D01*
D69*
X12540000Y-53000000D02*
X12540000Y-62000000D01*
D64*
X21249200Y-46924200D02*
X21249200Y-50575800D01*
X20500000Y-46175000D02*
X21249200Y-46924200D01*
D68*
X45000000Y-44000000D02*
X43000000Y-46000000D01*
D70*
X20500000Y-54937500D02*
X22500000Y-54937500D01*
D69*
X12540000Y-15000000D02*
X12540000Y-24000000D01*
D65*
X16500000Y-46175000D02*
X20500000Y-46175000D01*
D67*
X41525000Y-59000000D02*
X39500000Y-59000000D01*
D68*
X43000000Y-46000000D02*
X43000000Y-51500000D01*
D64*
X21249200Y-50575800D02*
X20500000Y-51325000D01*
%TO.N,PWM_L_0*%
X22079500Y-65529800D02*
X21671400Y-65121700D01*
X23137500Y-66025000D02*
X22552000Y-66025000D01*
X22079500Y-65552500D02*
X22079500Y-65529800D01*
X22552000Y-66025000D02*
X22079500Y-65552500D01*
X21671400Y-65121700D02*
X19423300Y-65121700D01*
%TO.N,+3V3_VIS*%
X59250000Y5150000D02*
X59250000Y6051700D01*
X45150000Y-12000000D02*
X47550000Y-12000000D01*
X66324800Y9149800D02*
X65675000Y8500000D01*
X58250000Y4248300D02*
X59250000Y4248300D01*
X65550000Y12125000D02*
X65675000Y12000000D01*
X35175000Y-5000000D02*
X34628200Y-5546800D01*
X56250000Y4249800D02*
X56251500Y4248300D01*
X59250000Y6051700D02*
X65673300Y6051700D01*
X13250000Y4640000D02*
X17543000Y4640000D01*
X56250000Y4249800D02*
X56250000Y4248300D01*
X11490100Y6608100D02*
X10841900Y6608100D01*
X10635400Y4860400D02*
X10275000Y4500000D01*
X68005000Y8058400D02*
X67626900Y7680300D01*
X66324800Y9252400D02*
X67764800Y9252400D01*
X58250000Y5150000D02*
X58250000Y4249800D01*
X55750000Y4248300D02*
X56250000Y4248300D01*
X68005000Y9012200D02*
X68005000Y8058400D01*
X65673300Y6169600D02*
X65673300Y6051700D01*
X65673300Y6051700D02*
X65725000Y6000000D01*
X66324800Y11350200D02*
X66324800Y9252400D01*
X65675000Y12000000D02*
X66324800Y11350200D01*
X7958400Y3733400D02*
X7958400Y1216600D01*
X7958400Y1216600D02*
X8675000Y500000D01*
X67184000Y7680300D02*
X65673300Y6169600D01*
X56250000Y4336700D02*
X56250000Y4249800D01*
X8725000Y4500000D02*
X8550000Y4675000D01*
X17543000Y4640000D02*
X19426900Y6523900D01*
X37206600Y-10356600D02*
X38850000Y-12000000D01*
X49312500Y-10237500D02*
X47550000Y-12000000D01*
X66324800Y9252400D02*
X66324800Y9149800D01*
X59250000Y5150000D02*
X59250000Y4248300D01*
X58250000Y4248300D02*
X58250000Y-3873200D01*
X44425400Y-12724600D02*
X41283700Y-12724600D01*
X55750000Y5150000D02*
X55750000Y4248300D01*
X67626900Y7680300D02*
X67184000Y7680300D01*
X12248300Y4640000D02*
X11373600Y3765300D01*
X65550000Y14000000D02*
X65550000Y12125000D01*
X11373600Y3765300D02*
X9459700Y3765300D01*
X34628200Y-5546800D02*
X33924300Y-5546800D01*
X58250000Y4249800D02*
X58250000Y4248300D01*
X8550000Y4675000D02*
X8550000Y7000000D01*
X58250000Y-3873200D02*
X52988400Y-9134800D01*
X52988400Y-9134800D02*
X52988400Y-9828400D01*
X9459700Y3765300D02*
X8725000Y4500000D01*
X11269800Y4860400D02*
X10635400Y4860400D01*
X58248500Y4248300D02*
X58250000Y4249800D01*
X56250000Y5150000D02*
X56250000Y4336700D01*
X10841900Y6608100D02*
X10450000Y7000000D01*
X13250000Y4640000D02*
X12248300Y4640000D01*
X52988400Y-9828400D02*
X52579300Y-10237500D01*
X37206600Y-9005500D02*
X37206600Y-10356600D01*
X8725000Y4500000D02*
X7958400Y3733400D01*
X45150000Y-12000000D02*
X44425400Y-12724600D01*
X52579300Y-10237500D02*
X49312500Y-10237500D01*
X56251500Y4248300D02*
X58248500Y4248300D01*
X67764800Y9252400D02*
X68005000Y9012200D01*
%TO.N,VISION_RESET*%
X14251700Y3015400D02*
X14586500Y2680600D01*
X89905000Y-10389900D02*
X89905000Y-11850000D01*
X11302900Y2723100D02*
X10498100Y2723100D01*
X10498100Y2723100D02*
X10275000Y2500000D01*
X8725000Y2100000D02*
X10325000Y500000D01*
X89796100Y-10281000D02*
X89905000Y-10389900D01*
X13250000Y3370000D02*
X12248300Y3370000D01*
X12248300Y3370000D02*
X12248300Y2423300D01*
X12248300Y2423300D02*
X10325000Y500000D01*
X14251700Y3370000D02*
X14251700Y3015400D01*
X13250000Y3370000D02*
X14251700Y3370000D01*
X8725000Y2500000D02*
X8725000Y2100000D01*
%TO.N,+3V3*%
X73225000Y500000D02*
X73050000Y675000D01*
X92000000Y-65950000D02*
X90996500Y-64946500D01*
X90584000Y-65950000D02*
X92000000Y-65950000D01*
X54529900Y-50910700D02*
X54529900Y-48479900D01*
X74150500Y-14999500D02*
X74150000Y-15000000D01*
X73225000Y500000D02*
X73175000Y450000D01*
X18000000Y-65764900D02*
X18000000Y-65775000D01*
X72251000Y-2000000D02*
X72209600Y-1958600D01*
X78212500Y-20000000D02*
X78175000Y-20037500D01*
X19390300Y-64570000D02*
X19194900Y-64570000D01*
X54429700Y-56245300D02*
X53675000Y-57000000D01*
X74225000Y5500000D02*
X74225000Y5375700D01*
X61557700Y-8813500D02*
X67744200Y-15000000D01*
X77984500Y4376200D02*
X78248300Y4640000D01*
X56420300Y-56245300D02*
X54596800Y-56245300D01*
X78225000Y-17000000D02*
X77050000Y-15825000D01*
X86058400Y-57775000D02*
X86862500Y-57775000D01*
X77049500Y-14999500D02*
X74150500Y-14999500D01*
X54250000Y-46950000D02*
X54250000Y-48200000D01*
X73175000Y450000D02*
X73175000Y-2000000D01*
X57684200Y-45919600D02*
X57353800Y-46250000D01*
X50175000Y-57000000D02*
X50952200Y-56222800D01*
X75224500Y4376200D02*
X77984500Y4376200D01*
X86862500Y-57775000D02*
X87460100Y-57775000D01*
X50175000Y-57000000D02*
X44400000Y-62775000D01*
X55936000Y-40289000D02*
X57684200Y-42037200D01*
X73313300Y10948300D02*
X73313300Y6411700D01*
X70804600Y-22500000D02*
X69892400Y-23412200D01*
X90996500Y-64946500D02*
X90996500Y-62778500D01*
X86058400Y-57775100D02*
X86058400Y-57775000D01*
X74225000Y5500000D02*
X73050000Y4325000D01*
X54529900Y-48479900D02*
X54250000Y-48200000D01*
X55936000Y-40289000D02*
X52514000Y-40289000D01*
X54596800Y-56245300D02*
X54596800Y-50977600D01*
X85238900Y-58137700D02*
X85695800Y-58137700D01*
X61675000Y-4000000D02*
X61557700Y-4117300D01*
X57684200Y-42037200D02*
X57684200Y-45919600D01*
X17000400Y-68950400D02*
X18000000Y-69950000D01*
X90996500Y-62778500D02*
X92000000Y-61775000D01*
X87460100Y-57775000D02*
X91460100Y-61775000D01*
X84876200Y-57775000D02*
X85238900Y-58137700D01*
X85500000Y-70500000D02*
X80500000Y-70500000D01*
X17000400Y-66774600D02*
X17000400Y-68950400D01*
X78225000Y-17000000D02*
X78212500Y-17012500D01*
X21670000Y-62290300D02*
X19390300Y-64570000D01*
X78212500Y-17012500D02*
X78212500Y-20000000D01*
X19194900Y-64570000D02*
X18000000Y-65764900D01*
X57175000Y-57000000D02*
X56420300Y-56245300D01*
X54596800Y-50977600D02*
X54529900Y-50910700D01*
X85695800Y-58137700D02*
X86058400Y-57775100D01*
X28862500Y-62775000D02*
X28377800Y-62290300D01*
X61557700Y-4117300D02*
X61557700Y-8813500D01*
X56725000Y-39500000D02*
X55936000Y-40289000D01*
X52897800Y-56222800D02*
X53675000Y-57000000D01*
X52514000Y-40289000D02*
X51725000Y-39500000D01*
X73175000Y-2000000D02*
X72251000Y-2000000D01*
X57353800Y-46250000D02*
X56950000Y-46250000D01*
X67850000Y-15000000D02*
X74150000Y-15000000D01*
X57500000Y-48200000D02*
X56950000Y-46250000D01*
X54596800Y-56245300D02*
X54429700Y-56245300D01*
X81137500Y-57775000D02*
X84876200Y-57775000D01*
X44400000Y-62775000D02*
X28862500Y-62775000D01*
X77050000Y-15825000D02*
X77050000Y-15000000D01*
X79250000Y4640000D02*
X78248300Y4640000D01*
X77050000Y-15000000D02*
X78050000Y-14000000D01*
X73050000Y4325000D02*
X73050000Y3000000D01*
X90063600Y-66470400D02*
X90584000Y-65950000D01*
X73050000Y675000D02*
X73050000Y3000000D01*
X50952200Y-56222800D02*
X52897800Y-56222800D01*
X73915000Y11550000D02*
X73313300Y10948300D01*
X67744200Y-15000000D02*
X67850000Y-15000000D01*
X91460100Y-61775000D02*
X92000000Y-61775000D01*
X78175000Y-22500000D02*
X70804600Y-22500000D01*
X77050000Y-15000000D02*
X77049500Y-14999500D01*
X74225000Y5375700D02*
X75224500Y4376200D01*
X78175000Y-20037500D02*
X78175000Y-22500000D01*
X18000000Y-65775000D02*
X17000400Y-66774600D01*
X73313300Y6411700D02*
X74225000Y5500000D01*
X28377800Y-62290300D02*
X21670000Y-62290300D01*
%TO.N,Net-(D_CATCH_L1-A)*%
D71*
X19850000Y-39000000D02*
X29000000Y-39000000D01*
X31000000Y-39000000D02*
X31000000Y-47100000D01*
X29000000Y-39000000D02*
X37550000Y-39000000D01*
%TO.N,V_SERVO_R*%
D64*
X87544600Y-41891900D02*
X88736500Y-40700000D01*
D69*
X97460000Y-15000000D02*
X97460000Y-24000000D01*
D68*
X67000000Y-46000000D02*
X67000000Y-51500000D01*
D69*
X97460000Y-34000000D02*
X97460000Y-43000000D01*
D64*
X88750700Y-47355000D02*
X89500000Y-46605700D01*
D67*
X65525000Y-59000000D02*
X63500000Y-59000000D01*
D64*
X89500000Y-46175000D02*
X87544600Y-44219600D01*
X87544600Y-44219600D02*
X87544600Y-41891900D01*
X89500000Y-50838300D02*
X88750700Y-50089000D01*
D68*
X65000000Y-41450000D02*
X65000000Y-44000000D01*
D69*
X97460000Y-53000000D02*
X97460000Y-62000000D01*
D64*
X88736500Y-40700000D02*
X90150000Y-40700000D01*
X89500000Y-46605700D02*
X89500000Y-46175000D01*
X88750700Y-50089000D02*
X88750700Y-47355000D01*
D70*
X89500000Y-54937500D02*
X87500000Y-54937500D01*
D64*
X89500000Y-51325000D02*
X89500000Y-50838300D01*
D67*
X72225000Y-59000000D02*
X70200000Y-59000000D01*
D68*
X67000000Y-46000000D02*
X67000000Y-51500000D01*
X65000000Y-44000000D02*
X67000000Y-46000000D01*
X62550000Y-39000000D02*
X65000000Y-41450000D01*
%TO.N,PWM_R_6*%
D64*
X81137500Y-64925000D02*
X83759700Y-64925000D01*
X83759700Y-64925000D02*
X84657700Y-64027000D01*
%TO.N,PWM_L_7*%
X17326000Y-70750800D02*
X22961700Y-70750800D01*
X22961700Y-70750800D02*
X23137500Y-70575000D01*
X16626700Y-70051500D02*
X17326000Y-70750800D01*
X16626700Y-59046700D02*
X16626700Y-70051500D01*
X15080000Y-57500000D02*
X16626700Y-59046700D01*
%TO.N,VBAT_SW*%
D69*
X79025000Y-28000000D02*
X57550000Y-28000000D01*
X40432000Y-12801300D02*
X38933300Y-14300000D01*
X38850000Y-18601700D02*
X38850000Y-14300000D01*
X51752900Y-22300000D02*
X50093700Y-20640800D01*
X22939000Y-41096100D02*
X22939000Y-40854900D01*
X38850000Y-18601700D02*
X37423300Y-18601700D01*
X57550000Y-28000000D02*
X51850000Y-22300000D01*
X90150000Y-32652700D02*
X87000000Y-29502700D01*
X21635100Y-42400000D02*
X22939000Y-41096100D01*
X38933300Y-14300000D02*
X38850000Y-14300000D01*
X48350000Y-8076000D02*
X50751000Y-8076000D01*
X50751000Y-8076000D02*
X52175000Y-9500000D01*
X48350000Y-8076000D02*
X48350000Y2000000D01*
X48192200Y-18688500D02*
X47050000Y-19830700D01*
X87000000Y-29502700D02*
X80527700Y-29502700D01*
X47050000Y-19830700D02*
X40079000Y-19830700D01*
X51850000Y-22300000D02*
X51752900Y-22300000D01*
X38850000Y-14300000D02*
X36350000Y-14300000D01*
X36350000Y-14300000D02*
X34050000Y-12000000D01*
X50093700Y-19272100D02*
X49510100Y-18688500D01*
X87000000Y-26000000D02*
X87000000Y-29502700D01*
X19850000Y-42400000D02*
X21635100Y-42400000D01*
X58000000Y-82000000D02*
X58000000Y-80198300D01*
X58000000Y-80198300D02*
X56000000Y-80198300D01*
X20000000Y-28000000D02*
X21356700Y-26643300D01*
X90150000Y-35600000D02*
X90150000Y-32652700D01*
X49510100Y-18688500D02*
X48192200Y-18688500D01*
X37423300Y-18601700D02*
X28025000Y-28000000D01*
X26668300Y-26643300D02*
X28025000Y-28000000D01*
X48350000Y-8076000D02*
X44727900Y-8076000D01*
X40079000Y-19830700D02*
X38850000Y-18601700D01*
X56000000Y-82000000D02*
X56000000Y-80198300D01*
X50093700Y-20640800D02*
X50093700Y-19272100D01*
X21356700Y-26643300D02*
X26668300Y-26643300D01*
X22939000Y-40854900D02*
X22939100Y-40854900D01*
X40432000Y-12371900D02*
X40432000Y-12801300D01*
X80527700Y-29502700D02*
X79025000Y-28000000D01*
X47050000Y-20000000D02*
X47050000Y-19830700D01*
X44727900Y-8076000D02*
X40432000Y-12371900D01*
%TO.N,Net-(U3_R1-FB)*%
D70*
X89500000Y-47825000D02*
X91500000Y-47825000D01*
%TO.N,Net-(D_CATCH_R1-A)*%
D71*
X79000000Y-39000000D02*
X79000000Y-47100000D01*
X81000000Y-39000000D02*
X72450000Y-39000000D01*
X90150000Y-39000000D02*
X81000000Y-39000000D01*
%TO.N,VBUS*%
D69*
X39941200Y-73000000D02*
X39657100Y-73284100D01*
X35750000Y-70704100D02*
X35100900Y-70055000D01*
X34351900Y-70055000D02*
X33073100Y-71333800D01*
X29742100Y-88567100D02*
X28675000Y-87500000D01*
X25175000Y-81537500D02*
X25175000Y-84500000D01*
X43456200Y-86829200D02*
X41718300Y-88567100D01*
X43456200Y-85493800D02*
X43456200Y-86829200D01*
X45783500Y-81922800D02*
X44360700Y-80500000D01*
X44402000Y-87775000D02*
X44500000Y-87775000D01*
X27647500Y-88527500D02*
X28675000Y-87500000D01*
X25212500Y-87500000D02*
X25175000Y-87462500D01*
X33073100Y-71333800D02*
X33073100Y-71607200D01*
X41718300Y-88567100D02*
X29742100Y-88567100D01*
X25212500Y-79467800D02*
X25212500Y-81500000D01*
X43456200Y-86829200D02*
X44402000Y-87775000D01*
X35750000Y-71037500D02*
X35427100Y-71037500D01*
X25212500Y-81500000D02*
X25175000Y-81537500D01*
X35100900Y-70055000D02*
X34351900Y-70055000D01*
X35750000Y-71037500D02*
X35750000Y-70704100D01*
X44360700Y-80500000D02*
X39400000Y-80500000D01*
X45783500Y-83166500D02*
X45783500Y-81922800D01*
X33073100Y-71607200D02*
X25212500Y-79467800D01*
X44500000Y-84450000D02*
X45783500Y-83166500D01*
D72*
X34600000Y-82355000D02*
X34600000Y-80500000D01*
X39400000Y-82355000D02*
X39400000Y-80500000D01*
D73*
X36250000Y-71037500D02*
X35750000Y-71037500D01*
X35427100Y-71037500D02*
X35250000Y-71037500D01*
D69*
X41300000Y-73000000D02*
X39941200Y-73000000D01*
X44500000Y-84450000D02*
X43456200Y-85493800D01*
X25212500Y-87500000D02*
X26240000Y-88527500D01*
X26240000Y-88527500D02*
X27647500Y-88527500D01*
X25175000Y-87462500D02*
X25175000Y-84500000D01*
%TO.N,CHG_STAT*%
D64*
X26825000Y-81537500D02*
X26825000Y-84500000D01*
X33623200Y-72250000D02*
X34037500Y-72250000D01*
X26787500Y-81500000D02*
X26825000Y-81537500D01*
X26787500Y-81500000D02*
X26787500Y-79085700D01*
X26787500Y-79085700D02*
X33623200Y-72250000D01*
%TO.N,LED_STATUS*%
X60250700Y-12036800D02*
X60250700Y-14075700D01*
X60250700Y-14075700D02*
X61000000Y-14825000D01*
X85679000Y3122700D02*
X95501000Y3122700D01*
X76051000Y-16081000D02*
X76051000Y-15551200D01*
X61000000Y-11287500D02*
X60250700Y-12036800D01*
X64494300Y-18319300D02*
X73812700Y-18319300D01*
X96750000Y3370000D02*
X95748300Y3370000D01*
X61000000Y-14825000D02*
X64494300Y-18319300D01*
X95501000Y3122700D02*
X95748300Y3370000D01*
X73812700Y-18319300D02*
X76051000Y-16081000D01*
%TO.N,PWM_L_6*%
X19814100Y-69925000D02*
X19737400Y-70001700D01*
X23137500Y-69925000D02*
X19814100Y-69925000D01*
%TO.N,VBAT*%
D69*
X51131500Y-76275000D02*
X51000000Y-76275000D01*
X37962500Y-74250000D02*
X37962500Y-75334900D01*
X52050900Y-74025900D02*
X52050900Y-75355600D01*
X51000000Y-72975000D02*
X50534200Y-72975000D01*
X52050900Y-75355600D02*
X51131500Y-76275000D01*
X52076800Y-74000000D02*
X52050900Y-74025900D01*
X50534200Y-72975000D02*
X48857500Y-74651700D01*
X38364200Y-74651700D02*
X37962500Y-74250000D01*
X37962500Y-73927100D02*
X37962500Y-74250000D01*
X57000000Y-74000000D02*
X52076800Y-74000000D01*
X51000000Y-72975000D02*
X52050900Y-74025900D01*
D73*
X37962500Y-73927100D02*
X37962500Y-73750000D01*
D69*
X48857500Y-74651700D02*
X38364200Y-74651700D01*
X37962500Y-75334900D02*
X37948100Y-75349300D01*
%TO.N,Net-(J3-CC1)*%
D64*
X82750000Y-82355000D02*
X82750000Y-80869500D01*
X80745000Y-79930000D02*
X75675000Y-85000000D01*
X82750000Y-80869500D02*
X81810500Y-79930000D01*
X81810500Y-79930000D02*
X80745000Y-79930000D01*
%TO.N,Net-(U3_L1-FB)*%
D70*
X20500000Y-47825000D02*
X18500000Y-47825000D01*
%TO.N,BOOT_VIS*%
D64*
X36825000Y-5000000D02*
X36825000Y-2275000D01*
X36825000Y-5000000D02*
X31751700Y-10073300D01*
X36825000Y-2275000D02*
X38100000Y-1000000D01*
X31751700Y-10073300D02*
X31751700Y-10600000D01*
X30750000Y-10600000D02*
X31751700Y-10600000D01*
%TO.N,Net-(LED_L1-A)*%
X20500000Y-53062500D02*
X21468100Y-53062500D01*
X23078400Y-55746600D02*
X20500000Y-58325000D01*
X21468100Y-53062500D02*
X23078400Y-54672800D01*
X23078400Y-54672800D02*
X23078400Y-55746600D01*
%TO.N,I2C_SDA*%
X28862500Y-63425000D02*
X45400000Y-63425000D01*
X52990200Y-58165200D02*
X51825000Y-57000000D01*
X83660700Y-59168000D02*
X84339300Y-58489400D01*
X47747200Y-48412600D02*
X47747200Y-47652700D01*
X47747200Y-47652700D02*
X52824400Y-42575500D01*
X53750000Y-42974000D02*
X53750000Y-43050000D01*
X86798100Y-58489400D02*
X86862500Y-58425000D01*
X53815500Y-58165200D02*
X52990200Y-58165200D01*
X52824400Y-42575500D02*
X53351500Y-42575500D01*
X45400000Y-63425000D02*
X51825000Y-57000000D01*
X83088900Y-8060000D02*
X83197700Y-8168800D01*
X79250000Y-8060000D02*
X83088900Y-8060000D01*
X53351500Y-42575500D02*
X53750000Y-42974000D01*
X84339300Y-58489400D02*
X86798100Y-58489400D01*
%TO.N,PWM_R_1*%
X81289900Y-61522600D02*
X84790600Y-61522600D01*
X81137500Y-61675000D02*
X81289900Y-61522600D01*
%TO.N,VBAT_SENSE*%
D69*
X63630100Y305100D02*
X63630100Y1876700D01*
X54804900Y-12579100D02*
X54302400Y-13081600D01*
X66012900Y4259500D02*
X68310900Y4259500D01*
X92274000Y4640000D02*
X96750000Y4640000D01*
X52175000Y-13031600D02*
X52175000Y-12000000D01*
X71178000Y7126600D02*
X71178000Y12131400D01*
X52225000Y-14500000D02*
X52225000Y-13081600D01*
X53825000Y-9500000D02*
X63630100Y305100D01*
X71178000Y12131400D02*
X71532600Y12486000D01*
X68310900Y4259500D02*
X71178000Y7126600D01*
X71532600Y12486000D02*
X84428000Y12486000D01*
X54302400Y-13081600D02*
X52225000Y-13081600D01*
X53825000Y-9500000D02*
X54804900Y-10479900D01*
X52225000Y-13081600D02*
X52175000Y-13031600D01*
X84428000Y12486000D02*
X92274000Y4640000D01*
X63630100Y1876700D02*
X66012900Y4259500D01*
X54804900Y-10479900D02*
X54804900Y-12579100D01*
%TO.N,+5V_TOF*%
D72*
X44000000Y11000000D02*
X41500000Y11000000D01*
D64*
X58150000Y-20000000D02*
X61050000Y-20000000D01*
X51850000Y-20000000D02*
X46370500Y-14520500D01*
X51850000Y-20000000D02*
X58150000Y-20000000D01*
X46370500Y-14520500D02*
X41767300Y-14520500D01*
%TO.N,TOF_RXD*%
X23428300Y5043800D02*
X29344500Y5043800D01*
X30750000Y4640000D02*
X29748300Y4640000D01*
X29344500Y5043800D02*
X29748300Y4640000D01*
%TO.N,TOF_TXD*%
X28194800Y3262900D02*
X29641200Y3262900D01*
X30750000Y3370000D02*
X29748300Y3370000D01*
X29641200Y3262900D02*
X29748300Y3370000D01*
%TO.N,UART_TX*%
X85693300Y2100000D02*
X84784400Y3008900D01*
X96750000Y2100000D02*
X85693300Y2100000D01*
%TO.N,UART_RX*%
X96750000Y830000D02*
X99145400Y830000D01*
X99145400Y830000D02*
X99676400Y299000D01*
%TO.N,LDO_IN*%
X67850000Y-17300000D02*
X64647100Y-17300000D01*
X64647100Y-17300000D02*
X64196800Y-16849700D01*
D67*
X53000000Y2000000D02*
X53000000Y-3500000D01*
X51650000Y2000000D02*
X54050000Y2000000D01*
%TO.N,PWM_L_11*%
D64*
X22348000Y-81139400D02*
X30559600Y-72927800D01*
X29452900Y-69275000D02*
X28862500Y-69275000D01*
X30559600Y-70381700D02*
X29452900Y-69275000D01*
X30559600Y-72927800D02*
X30559600Y-70381700D01*
X21000000Y-87080000D02*
X22348000Y-85732000D01*
X22348000Y-85732000D02*
X22348000Y-81139400D01*
%TO.N,CC2*%
X38750000Y-82990900D02*
X38750000Y-82355000D01*
X36504200Y-85236700D02*
X38750000Y-82990900D01*
X28675000Y-84500000D02*
X29411700Y-85236700D01*
X29411700Y-85236700D02*
X36504200Y-85236700D01*
%TO.N,PWM_R_11*%
X87482100Y-64275000D02*
X89511900Y-66304800D01*
X98230200Y-76810200D02*
X99500000Y-78080000D01*
X89511900Y-66304800D02*
X89511900Y-66698800D01*
X89511900Y-66698800D02*
X93877800Y-71064700D01*
X94675700Y-76810200D02*
X98230200Y-76810200D01*
X93877800Y-71064700D02*
X93877800Y-76012300D01*
X86862500Y-64275000D02*
X87482100Y-64275000D01*
X93877800Y-76012300D02*
X94675700Y-76810200D01*
%TO.N,CAM_LED_DRAIN*%
D72*
X44000000Y5000000D02*
X44000000Y8460000D01*
X43650000Y4000000D02*
X44000000Y5000000D01*
D64*
X36937500Y11000000D02*
X39477500Y8460000D01*
D72*
X44000000Y5000000D02*
X44000000Y8460000D01*
D64*
X39477500Y8460000D02*
X44000000Y8460000D01*
D72*
X40350000Y4000000D02*
X38500000Y4000000D01*
%TO.N,PWM_L_1*%
D64*
X20660700Y-66675000D02*
X23137500Y-66675000D01*
X20242900Y-66257200D02*
X20660700Y-66675000D01*
%TO.N,PWM_L_2*%
X23724900Y-67325000D02*
X25115500Y-65934400D01*
X25115500Y-63786600D02*
X24433000Y-63104100D01*
X25115500Y-65934400D02*
X25115500Y-63786600D01*
X23137500Y-67325000D02*
X23724900Y-67325000D01*
%TO.N,PWM_L_3*%
X25394800Y-67975000D02*
X25406400Y-67986600D01*
X23137500Y-67975000D02*
X25394800Y-67975000D01*
%TO.N,PWM_L_4*%
X21701700Y-67802700D02*
X21701700Y-67478200D01*
X23137500Y-68625000D02*
X22524000Y-68625000D01*
X22524000Y-68625000D02*
X21701700Y-67802700D01*
%TO.N,PWM_L_5*%
X19649200Y-66070600D02*
X20031400Y-65688400D01*
X21457900Y-65688400D02*
X21527800Y-65758300D01*
X23137500Y-69275000D02*
X22442400Y-69275000D01*
X19649200Y-66481800D02*
X19649200Y-66070600D01*
X22442400Y-69275000D02*
X19649200Y-66481800D01*
X20031400Y-65688400D02*
X21457900Y-65688400D01*
%TO.N,PWM_L_8*%
X16082200Y-63002200D02*
X15857817Y-62777817D01*
X28201100Y-71886400D02*
X28862500Y-71225000D01*
X16082200Y-63002200D02*
X16082200Y-70004300D01*
X16082200Y-70004300D02*
X17964300Y-71886400D01*
X17964300Y-71886400D02*
X28201100Y-71886400D01*
%TO.N,PWM_L_9*%
X28080300Y-73242700D02*
X29852100Y-71470900D01*
X17646800Y-82710200D02*
X27114300Y-73242700D01*
X17646800Y-82909600D02*
X17646800Y-82710200D01*
X12000000Y-87080000D02*
X15713900Y-83366100D01*
X29477700Y-70575000D02*
X28862500Y-70575000D01*
X17190300Y-83366100D02*
X17646800Y-82909600D01*
X27114300Y-73242700D02*
X28080300Y-73242700D01*
X15713900Y-83366100D02*
X17190300Y-83366100D01*
X29852100Y-70949400D02*
X29477700Y-70575000D01*
X29852100Y-71470900D02*
X29852100Y-70949400D01*
%TO.N,PWM_L_10*%
X27257600Y-73615100D02*
X28205200Y-73615100D01*
X18291400Y-85288600D02*
X18291400Y-82581300D01*
X28205200Y-73615100D02*
X30203800Y-71616500D01*
X16500000Y-87080000D02*
X18291400Y-85288600D01*
X29448100Y-69925000D02*
X28862500Y-69925000D01*
X30203800Y-70680700D02*
X29448100Y-69925000D01*
X18291400Y-82581300D02*
X27257600Y-73615100D01*
X30203800Y-71616500D02*
X30203800Y-70680700D01*
%TO.N,SERVO_OE*%
X76952300Y-55697300D02*
X77128200Y-55873200D01*
X84825000Y-12851700D02*
X85225400Y-12851700D01*
X85103200Y-61025000D02*
X84709900Y-60631700D01*
X85225400Y-12851700D02*
X87328500Y-14954800D01*
X86862500Y-61025000D02*
X85103200Y-61025000D01*
X28862500Y-66025000D02*
X49800000Y-66025000D01*
X60127700Y-55697300D02*
X76952300Y-55697300D01*
X58825000Y-57000000D02*
X60127700Y-55697300D01*
X49800000Y-66025000D02*
X58825000Y-57000000D01*
X84825000Y-11850000D02*
X84825000Y-12851700D01*
X83695500Y-55873200D02*
X84629500Y-54939200D01*
X77128200Y-55873200D02*
X83695500Y-55873200D01*
%TO.N,I2C_SCL*%
X77361500Y-55434000D02*
X77211200Y-55283700D01*
X56085900Y-57760900D02*
X55325000Y-57000000D01*
X83555000Y-11850000D02*
X83555000Y-17890800D01*
X84895500Y-59075000D02*
X84135000Y-59835500D01*
X54250000Y-42162400D02*
X54184100Y-42096500D01*
X83276000Y-55434000D02*
X77361500Y-55434000D01*
X83773100Y-54936900D02*
X83276000Y-55434000D01*
X83555000Y-17890800D02*
X83953700Y-18289500D01*
X48685900Y-64075000D02*
X55325000Y-57435900D01*
X54250000Y-43050000D02*
X54250000Y-42162400D01*
X57830500Y-55783100D02*
X57830500Y-57478300D01*
X58329900Y-55241200D02*
X58329900Y-55283700D01*
X28862500Y-64075000D02*
X48685900Y-64075000D01*
X58329900Y-55283700D02*
X57830500Y-55783100D01*
X86862500Y-59075000D02*
X84895500Y-59075000D01*
X77211200Y-55283700D02*
X58329900Y-55283700D01*
X55325000Y-57435900D02*
X55325000Y-57000000D01*
X57830500Y-57478300D02*
X57547900Y-57760900D01*
X57547900Y-57760900D02*
X56085900Y-57760900D01*
%TO.N,PWM_R_0*%
X80393500Y-57280300D02*
X85161600Y-57280300D01*
X85161600Y-57280300D02*
X85467300Y-57586000D01*
X80085500Y-57588300D02*
X80393500Y-57280300D01*
X80085500Y-60630600D02*
X80085500Y-57588300D01*
X80479900Y-61025000D02*
X80085500Y-60630600D01*
X81137500Y-61025000D02*
X80479900Y-61025000D01*
%TO.N,PWM_R_2*%
X81137500Y-62325000D02*
X83462700Y-62325000D01*
X83462700Y-62325000D02*
X83650600Y-62137100D01*
%TO.N,PWM_R_3*%
X81137500Y-62975000D02*
X85219600Y-62975000D01*
X85219600Y-62975000D02*
X85238900Y-62955700D01*
%TO.N,PWM_R_4*%
X96031200Y-45983100D02*
X89945100Y-52069200D01*
X87427600Y-54189000D02*
X84688000Y-56928600D01*
X80247900Y-56928600D02*
X79733800Y-57442700D01*
X94920000Y-38500000D02*
X96031200Y-39611200D01*
X79733800Y-57442700D02*
X79733800Y-62850200D01*
X96031200Y-39611200D02*
X96031200Y-45983100D01*
X89050100Y-52069200D02*
X87427600Y-53691700D01*
X79733800Y-62850200D02*
X80508600Y-63625000D01*
X89945100Y-52069200D02*
X89050100Y-52069200D01*
X84688000Y-56928600D02*
X80247900Y-56928600D01*
X80508600Y-63625000D02*
X81137500Y-63625000D01*
X87427600Y-53691700D02*
X87427600Y-54189000D01*
%TO.N,PWM_R_5*%
X80524000Y-64275000D02*
X79382100Y-63133100D01*
X84542400Y-56576900D02*
X86952000Y-54167300D01*
X86952000Y-52082500D02*
X88457200Y-50577300D01*
X81137500Y-64275000D02*
X80524000Y-64275000D01*
X79382100Y-57297100D02*
X80102300Y-56576900D01*
X80102300Y-56576900D02*
X84542400Y-56576900D01*
X79382100Y-63133100D02*
X79382100Y-57297100D01*
X86952000Y-54167300D02*
X86952000Y-52082500D01*
%TO.N,PWM_R_7*%
X81137500Y-65575000D02*
X83889900Y-65575000D01*
X85662200Y-63802700D02*
X85662200Y-63625100D01*
X83889900Y-65575000D02*
X85662200Y-63802700D01*
%TO.N,PWM_R_8*%
X86862500Y-66225000D02*
X87893500Y-67256000D01*
X87893500Y-67256000D02*
X88250000Y-67256000D01*
%TO.N,PWM_R_9*%
X88808500Y-76388500D02*
X90500000Y-78080000D01*
X87514200Y-65575000D02*
X88808500Y-66869300D01*
X88808500Y-66869300D02*
X88808500Y-76388500D01*
X86862500Y-65575000D02*
X87514200Y-65575000D01*
%TO.N,PWM_R_10*%
X86862500Y-64925000D02*
X87450000Y-64925000D01*
X92969100Y-70653300D02*
X92969100Y-76049100D01*
X87450000Y-64925000D02*
X89160200Y-66635200D01*
X89160200Y-66844400D02*
X92969100Y-70653300D01*
X89160200Y-66635200D02*
X89160200Y-66844400D01*
X92969100Y-76049100D02*
X95000000Y-78080000D01*
%TO.N,Net-(J2-CC2)*%
X97250000Y-82355000D02*
X97250000Y-83531500D01*
X104948400Y-79499100D02*
X104948400Y-76273400D01*
X100089700Y-84357800D02*
X104948400Y-79499100D01*
X104948400Y-76273400D02*
X104175000Y-75500000D01*
X97250000Y-83531500D02*
X98076300Y-84357800D01*
X98076300Y-84357800D02*
X100089700Y-84357800D01*
%TO.N,CAM_SCL*%
X58750000Y5150000D02*
X58750000Y6051700D01*
X58752800Y6051800D02*
X58752800Y6051700D01*
X59678500Y6977500D02*
X58752800Y6051800D01*
X65802500Y6977500D02*
X59678500Y6977500D01*
X50760900Y14043700D02*
X58752800Y6051800D01*
X14251700Y830000D02*
X15010500Y830000D01*
X67325000Y8500000D02*
X65802500Y6977500D01*
X15010500Y830000D02*
X28224200Y14043700D01*
X58752800Y6051700D02*
X58750000Y6051700D01*
X13250000Y830000D02*
X14251700Y830000D01*
X28224200Y14043700D02*
X50760900Y14043700D01*
%TO.N,ESP_EN*%
X73225000Y-3600000D02*
X74825000Y-2000000D01*
X78248300Y2597300D02*
X74825000Y-826000D01*
X67932900Y-2032900D02*
X71503800Y-2032900D01*
X79250000Y3370000D02*
X78248300Y3370000D01*
X73225000Y-4500000D02*
X73225000Y-3600000D01*
X74825000Y-826000D02*
X74825000Y-2000000D01*
X73070900Y-3600000D02*
X73225000Y-3600000D01*
X78248300Y3370000D02*
X78248300Y2597300D01*
X71503800Y-2032900D02*
X73070900Y-3600000D01*
X64900000Y1000000D02*
X67932900Y-2032900D01*
%TO.N,CHG_PG*%
X27978700Y-86758000D02*
X29583000Y-86758000D01*
X35750000Y-74962500D02*
X35750000Y-75376800D01*
X26787500Y-87500000D02*
X27529500Y-86758000D01*
X33408500Y-77718300D02*
X31254900Y-77718300D01*
X27978700Y-80994500D02*
X27978700Y-86758000D01*
X35750000Y-75376800D02*
X33408500Y-77718300D01*
X31254900Y-77718300D02*
X27978700Y-80994500D01*
X29583000Y-86758000D02*
X30325000Y-87500000D01*
X27529500Y-86758000D02*
X27978700Y-86758000D01*
%TO.N,ESP_IO0*%
X65993100Y-4000000D02*
X66914000Y-4920900D01*
X64900000Y-4000000D02*
X65993100Y-4000000D01*
X64900000Y-4000000D02*
X63325000Y-4000000D01*
X96750000Y-10600000D02*
X95748300Y-10600000D01*
X94511900Y-10587300D02*
X95735600Y-10587300D01*
X95735600Y-10587300D02*
X95748300Y-10600000D01*
%TO.N,BUZZER*%
X61585300Y-56089700D02*
X76847400Y-56089700D01*
X60675000Y-57000000D02*
X61585300Y-56089700D01*
X84183000Y-56224900D02*
X85555900Y-54852000D01*
X76847400Y-56089700D02*
X76982600Y-56224900D01*
X90741200Y-14520500D02*
X91175000Y-14086700D01*
X76982600Y-56224900D02*
X84183000Y-56224900D01*
X91175000Y-14086700D02*
X91175000Y-11850000D01*
X85555900Y-54852000D02*
X85555900Y-54753400D01*
%TO.N,Net-(BZ1-+)*%
X62683500Y-56641500D02*
X63994700Y-56641500D01*
X62325000Y-57000000D02*
X62683500Y-56641500D01*
%TO.N,VBUS_VIS*%
D72*
X81600000Y-82355000D02*
X81600000Y-80500000D01*
X86400000Y-82355000D02*
X86400000Y-80500000D01*
%TO.N,Net-(LED_3V3-A)*%
D64*
X79787500Y-21093200D02*
X79787500Y-20000000D01*
X79897300Y-21203000D02*
X79787500Y-21093200D01*
%TO.N,Net-(LED_R1-A)*%
X91708800Y-56904200D02*
X90288000Y-58325000D01*
X91708800Y-55271300D02*
X91708800Y-56904200D01*
X90288000Y-58325000D02*
X89500000Y-58325000D01*
X89500000Y-53062500D02*
X91708800Y-55271300D01*
%TO.N,Net-(J3-CC2)*%
X77083600Y-86091400D02*
X82641700Y-86091400D01*
X82641700Y-86091400D02*
X85750000Y-82983100D01*
X85750000Y-82983100D02*
X85750000Y-82355000D01*
X75675000Y-87500000D02*
X77083600Y-86091400D01*
%TO.N,VISION_SYNC*%
X30601800Y-13203400D02*
X31883500Y-11921700D01*
X79250000Y2100000D02*
X78248300Y2100000D01*
X25175000Y-11850000D02*
X25175000Y-12851700D01*
X25526700Y-13203400D02*
X30601800Y-13203400D01*
X25175000Y-12851700D02*
X25526700Y-13203400D01*
X78248300Y2100000D02*
X78248300Y-273100D01*
X78248300Y-273100D02*
X76902600Y-1618800D01*
%TO.N,INTER_UART_RX*%
X77774000Y-2174500D02*
X78248300Y-2648800D01*
X30750000Y830000D02*
X31751700Y830000D01*
X79250000Y-2980000D02*
X78248300Y-2980000D01*
X78248300Y-2648800D02*
X78248300Y-2980000D01*
X40108400Y1189900D02*
X32111600Y1189900D01*
X32111600Y1189900D02*
X31751700Y830000D01*
%TO.N,INTER_UART_TX*%
X44643100Y2012100D02*
X31839600Y2012100D01*
X77417700Y-4250000D02*
X75872800Y-5794900D01*
X30750000Y2100000D02*
X31751700Y2100000D01*
X31839600Y2012100D02*
X31751700Y2100000D01*
X79250000Y-4250000D02*
X77417700Y-4250000D01*
X45332100Y2701100D02*
X44643100Y2012100D01*
X75872800Y-5794900D02*
X62110700Y-5794900D01*
%TO.N,MPU_INT*%
X56250000Y-46950000D02*
X56250000Y-47777200D01*
X77919200Y-6725400D02*
X78183700Y-6725400D01*
X64716900Y-48798200D02*
X65962400Y-47552700D01*
X57271000Y-48798200D02*
X64716900Y-48798200D01*
X56250000Y-47777200D02*
X57271000Y-48798200D01*
X78183700Y-6725400D02*
X78248300Y-6790000D01*
X79250000Y-6790000D02*
X78248300Y-6790000D01*
%TO.N,USB_D-*%
X95441300Y-81432600D02*
X95750000Y-81741300D01*
X39888100Y-78593000D02*
X37081700Y-81399400D01*
X36250000Y-82355000D02*
X36250000Y-81736600D01*
X79330000Y-76663200D02*
X77400200Y-78593000D01*
X94750000Y-82355000D02*
X94750000Y-81728400D01*
X37081700Y-81413800D02*
X37250000Y-81582100D01*
X95045800Y-81432600D02*
X95441300Y-81432600D01*
X80251700Y-12262500D02*
X78985200Y-13529000D01*
X90925000Y-84371600D02*
X93345800Y-84371600D01*
X36250000Y-81736600D02*
X36572800Y-81413800D01*
X93345800Y-84371600D02*
X94750000Y-82967400D01*
X80251700Y-9330000D02*
X80251700Y-12262500D01*
X79516800Y-76850000D02*
X85788700Y-76850000D01*
X90396100Y-81457400D02*
X90396100Y-83842700D01*
X94750000Y-82967400D02*
X94750000Y-82355000D01*
X85788700Y-76850000D02*
X90396100Y-81457400D01*
X94750000Y-81728400D02*
X95045800Y-81432600D01*
X90396100Y-83842700D02*
X90925000Y-84371600D01*
X79330000Y-76663200D02*
X79516800Y-76850000D01*
X78985200Y-13529000D02*
X78985200Y-16324600D01*
X79250000Y-9330000D02*
X80251700Y-9330000D01*
X95750000Y-81741300D02*
X95750000Y-82355000D01*
X37081700Y-81399400D02*
X37081700Y-81413800D01*
X37250000Y-81582100D02*
X37250000Y-82355000D01*
X36572800Y-81413800D02*
X37081700Y-81413800D01*
X77400200Y-78593000D02*
X39888100Y-78593000D01*
%TO.N,USB_D+*%
X95622300Y-83339700D02*
X95877700Y-83339700D01*
X95877700Y-83339700D02*
X96249900Y-82967500D01*
X37750000Y-82355000D02*
X37750000Y-83026900D01*
X78536500Y-79537600D02*
X39440800Y-79537600D01*
X89732000Y-82553800D02*
X89732000Y-83675900D01*
X78248300Y-10600000D02*
X78248300Y-11169600D01*
X89732000Y-83675900D02*
X90779400Y-84723300D01*
X78248300Y-11169600D02*
X79144700Y-12066000D01*
X37512300Y-83264600D02*
X37036900Y-83264600D01*
X90779400Y-84723300D02*
X93494100Y-84723300D01*
X37036900Y-83264600D02*
X36750000Y-82977700D01*
X96249900Y-82355000D02*
X96250000Y-82355000D01*
X37750000Y-83026900D02*
X37512300Y-83264600D01*
X36750000Y-82977700D02*
X36750000Y-82355000D01*
X86715800Y-79537600D02*
X89732000Y-82553800D01*
X78536500Y-79537600D02*
X78536500Y-79394600D01*
X39440800Y-79537600D02*
X37750000Y-81228400D01*
X95250000Y-82967400D02*
X95250000Y-82355000D01*
X37750000Y-81228400D02*
X37750000Y-82355000D01*
X95250000Y-82967400D02*
X95622300Y-83339700D01*
X93494100Y-84723300D02*
X95250000Y-82967400D01*
X96249900Y-82967500D02*
X96249900Y-82355000D01*
X79250000Y-10600000D02*
X78248300Y-10600000D01*
X78536500Y-79537600D02*
X86715800Y-79537600D01*
%TO.N,Net-(U1-IO48)*%
X75030900Y5093700D02*
X75030900Y6226200D01*
X80623000Y6611700D02*
X78395700Y6611700D01*
X81813800Y-1406900D02*
X81813800Y5420900D01*
X91255200Y-10848300D02*
X81813800Y-1406900D01*
X75030900Y6226200D02*
X74175000Y7082100D01*
X75353800Y4770800D02*
X75030900Y5093700D01*
X93715000Y-11850000D02*
X93715000Y-10848300D01*
X81813800Y5420900D02*
X80623000Y6611700D01*
X93715000Y-10848300D02*
X91255200Y-10848300D01*
X76554800Y4770800D02*
X75353800Y4770800D01*
X74175000Y7082100D02*
X74175000Y8000000D01*
X78395700Y6611700D02*
X76554800Y4770800D01*
%TO.N,CAM_SDA*%
X66675000Y14352400D02*
X66675000Y12650000D01*
X66499900Y6429000D02*
X67275600Y7204700D01*
X68356700Y10968300D02*
X67325000Y12000000D01*
X28679500Y14996300D02*
X66031100Y14996300D01*
X14251700Y2100000D02*
X15783200Y2100000D01*
X65800600Y4911200D02*
X66499900Y5610500D01*
X13250000Y2100000D02*
X14251700Y2100000D01*
X66031100Y14996300D02*
X66675000Y14352400D01*
X67275600Y7204700D02*
X67648600Y7204700D01*
X67648600Y7204700D02*
X68356700Y7912800D01*
X59750000Y4248300D02*
X60101700Y3896600D01*
X63340400Y4911200D02*
X65800600Y4911200D01*
X60101700Y3896600D02*
X62325800Y3896600D01*
X66499900Y5610500D02*
X66499900Y6429000D01*
X62325800Y3896600D02*
X63340400Y4911200D01*
X66675000Y12650000D02*
X67325000Y12000000D01*
X59750000Y5150000D02*
X59750000Y4248300D01*
X15783200Y2100000D02*
X28679500Y14996300D01*
X68356700Y7912800D02*
X68356700Y10968300D01*
%TO.N,CAM_VSYNC*%
X13250000Y-440000D02*
X14251700Y-440000D01*
X50354200Y13642900D02*
X28334600Y13642900D01*
X57750000Y6247100D02*
X50354200Y13642900D01*
X57750000Y6051700D02*
X57750000Y6247100D01*
X57750000Y5150000D02*
X57750000Y6051700D01*
X28334600Y13642900D02*
X14251700Y-440000D01*
%TO.N,CAM_PWDN*%
X29643000Y-12851700D02*
X30403200Y-12091500D01*
X57250000Y6056400D02*
X56451800Y6854600D01*
X57250000Y5150000D02*
X57250000Y6056400D01*
X26445000Y-11850000D02*
X26445000Y-12851700D01*
X56451800Y6854600D02*
X56362300Y6854600D01*
X26445000Y-12851700D02*
X29643000Y-12851700D01*
%TO.N,CAM_HREF*%
X56750000Y6051700D02*
X56385100Y6051700D01*
X49188700Y13248100D02*
X28839200Y13248100D01*
X56750000Y5150000D02*
X56750000Y6051700D01*
X56385100Y6051700D02*
X49188700Y13248100D01*
X14251700Y-1339400D02*
X14251700Y-1710000D01*
X13250000Y-1710000D02*
X14251700Y-1710000D01*
X28839200Y13248100D02*
X14251700Y-1339400D01*
%TO.N,CAM_D7*%
X55197300Y4195600D02*
X55197300Y1200600D01*
X14501200Y-3613400D02*
X14251700Y-3862900D01*
X13250000Y-4250000D02*
X14251700Y-4250000D01*
X55197300Y1200600D02*
X55395200Y1002700D01*
X14251700Y-3862900D02*
X14251700Y-4250000D01*
X54083900Y-295400D02*
X54083900Y517900D01*
X55395200Y1002700D02*
X55395200Y-433300D01*
X55056100Y-772400D02*
X54560900Y-772400D01*
X55250000Y4248300D02*
X55197300Y4195600D01*
X54560900Y-772400D02*
X54083900Y-295400D01*
X55395200Y-433300D02*
X55056100Y-772400D01*
X55250000Y5150000D02*
X55250000Y4248300D01*
%TO.N,CAM_XCLK*%
X54750000Y6051700D02*
X47905300Y12896400D01*
X21494200Y5405800D02*
X21494200Y4917300D01*
X54750000Y5150000D02*
X54750000Y6051700D01*
X14251700Y-2325200D02*
X14251700Y-2980000D01*
X13250000Y-2980000D02*
X14251700Y-2980000D01*
X21494200Y4917300D02*
X14251700Y-2325200D01*
X47905300Y12896400D02*
X28984800Y12896400D01*
X28984800Y12896400D02*
X21494200Y5405800D01*
%TO.N,CAM_D6*%
X54250000Y5150000D02*
X54250000Y4248300D01*
X14542600Y-5229100D02*
X14251700Y-5520000D01*
X54250000Y4248300D02*
X54824800Y3673500D01*
X54824800Y3673500D02*
X54824800Y-220600D01*
X13250000Y-5520000D02*
X14251700Y-5520000D01*
%TO.N,CAM_D5*%
X21845900Y4762900D02*
X15094300Y-1988700D01*
X29109200Y12523500D02*
X21845900Y5260200D01*
X53250000Y5150000D02*
X53250000Y6051700D01*
X15094300Y-5947400D02*
X14251700Y-6790000D01*
X53250000Y6051700D02*
X46778200Y12523500D01*
X21845900Y5260200D02*
X21845900Y4762900D01*
X15094300Y-1988700D02*
X15094300Y-5947400D01*
X46778200Y12523500D02*
X29109200Y12523500D01*
X13250000Y-6790000D02*
X14251700Y-6790000D01*
%TO.N,CAM_PCLK*%
X29686700Y-10995700D02*
X29539300Y-10848300D01*
X52750000Y6051700D02*
X51982900Y6818800D01*
X31950100Y-11303200D02*
X29818400Y-11303200D01*
X48172400Y6818800D02*
X44336900Y2983300D01*
X29686700Y-11171500D02*
X29686700Y-10995700D01*
X22635000Y-11850000D02*
X22635000Y-10848300D01*
X29539300Y-10848300D02*
X22635000Y-10848300D01*
X36039300Y-7214000D02*
X31950100Y-11303200D01*
X44336900Y2983300D02*
X37613600Y2983300D01*
X29818400Y-11303200D02*
X29686700Y-11171500D01*
X52750000Y5150000D02*
X52750000Y6051700D01*
X51982900Y6818800D02*
X48172400Y6818800D01*
%TO.N,CAM_D4*%
X24473900Y-13246800D02*
X24078800Y-12851700D01*
X50774200Y-2826900D02*
X50774100Y-2826900D01*
X21365000Y-11850000D02*
X21365000Y-12851700D01*
X52250000Y3980400D02*
X50774200Y2504600D01*
X24078800Y-12851700D02*
X21365000Y-12851700D01*
X52250000Y5150000D02*
X52250000Y3980400D01*
X50774200Y2504600D02*
X50774200Y-2826900D01*
%TO.N,CAM_D0*%
X51750000Y5150000D02*
X51750000Y4248300D01*
X47439800Y2854300D02*
X50356000Y2854300D01*
X20095000Y-11850000D02*
X20095000Y-12851700D01*
X30787000Y-13798500D02*
X47439800Y2854300D01*
X21041800Y-13798500D02*
X30787000Y-13798500D01*
X20095000Y-12851700D02*
X21041800Y-13798500D01*
X50356000Y2854300D02*
X51750000Y4248300D01*
%TO.N,CAM_D3*%
X33164700Y-4285900D02*
X33164700Y-5915500D01*
X47256800Y3348200D02*
X44161100Y252500D01*
X22000000Y-10587300D02*
X19086000Y-10587300D01*
X51250000Y4248300D02*
X50349900Y3348200D01*
X18825000Y-11850000D02*
X18825000Y-10848300D01*
X33164700Y-5915500D02*
X32458200Y-6622000D01*
X51250000Y5150000D02*
X51250000Y4248300D01*
X37703100Y252500D02*
X33164700Y-4285900D01*
X44161100Y252500D02*
X37703100Y252500D01*
X50349900Y3348200D02*
X47256800Y3348200D01*
X19086000Y-10587300D02*
X18825000Y-10848300D01*
%TO.N,CAM_D1*%
X24230100Y6649800D02*
X22789000Y5208700D01*
X34012500Y4558500D02*
X31921200Y6649800D01*
X22789000Y-5543400D02*
X17555000Y-10777400D01*
X48291400Y6440500D02*
X44282500Y2431600D01*
X22789000Y5208700D02*
X22789000Y-5543400D01*
X31921200Y6649800D02*
X24230100Y6649800D01*
X50452200Y6440500D02*
X48291400Y6440500D01*
X36053000Y2431600D02*
X34012500Y4472100D01*
X34012500Y4472100D02*
X34012500Y4558500D01*
X17555000Y-10777400D02*
X17555000Y-11850000D01*
X50750000Y6142700D02*
X50452200Y6440500D01*
X50750000Y5150000D02*
X50750000Y6142700D01*
X44282500Y2431600D02*
X36053000Y2431600D01*
%TO.N,CAM_D2*%
X44015500Y604200D02*
X37557500Y604200D01*
X46753700Y3845000D02*
X46753700Y3342400D01*
X14610000Y-7701700D02*
X14251700Y-8060000D01*
X50250000Y6051700D02*
X48960400Y6051700D01*
X15186100Y-7701700D02*
X14610000Y-7701700D01*
X13250000Y-8060000D02*
X14251700Y-8060000D01*
X46753700Y3342400D02*
X44015500Y604200D01*
X50250000Y5150000D02*
X50250000Y6051700D01*
X31974100Y-4979200D02*
X31974100Y-6012500D01*
X48960400Y6051700D02*
X46753700Y3845000D01*
X37557500Y604200D02*
X31974100Y-4979200D01*
%TO.N,Net-(J2-CC1)*%
X104175000Y-73000000D02*
X101215700Y-75959300D01*
X95981500Y-79638900D02*
X94250000Y-81370400D01*
X101215700Y-77929200D02*
X99506000Y-79638900D01*
X94250000Y-81370400D02*
X94250000Y-82355000D01*
X99506000Y-79638900D02*
X95981500Y-79638900D01*
X101215700Y-75959300D02*
X101215700Y-77929200D01*
%TO.N,Net-(U7-CPOUT)*%
X56944800Y-49314700D02*
X56944800Y-50280200D01*
X55750000Y-43050000D02*
X55750000Y-42586000D01*
X55332300Y-42168300D02*
X55154800Y-42168300D01*
X55750000Y-42586000D02*
X55332300Y-42168300D01*
X56944800Y-50280200D02*
X56725000Y-50500000D01*
%TO.N,VIS_USB_D-*%
X14678500Y-10587300D02*
X14264400Y-10587300D01*
X80494100Y-85733500D02*
X64866500Y-85733500D01*
X83550000Y-83277600D02*
X83250000Y-82977600D01*
X84250000Y-82355000D02*
X84250000Y-83044200D01*
X84016600Y-83277600D02*
X83550000Y-83277600D01*
X83250000Y-82977600D02*
X83250000Y-82355000D01*
X13250000Y-10600000D02*
X14251700Y-10600000D01*
X14264400Y-10587300D02*
X14251700Y-10600000D01*
X83250000Y-82977600D02*
X80494100Y-85733500D01*
X84250000Y-83044200D02*
X84016600Y-83277600D01*
X64866500Y-85733500D02*
X61823200Y-82690200D01*
%TO.N,VIS_USB_D+*%
X84750000Y-82355000D02*
X84750000Y-83094800D01*
X84024700Y-81429800D02*
X83750000Y-81704500D01*
X84750000Y-83094800D02*
X83525600Y-84319200D01*
X83750000Y-81704500D02*
X83750000Y-82355000D01*
X84750000Y-81668700D02*
X84511100Y-81429800D01*
X15103200Y-8592700D02*
X14365900Y-9330000D01*
X84511100Y-81429800D02*
X84024700Y-81429800D01*
X14365900Y-9330000D02*
X13250000Y-9330000D01*
X84750000Y-82355000D02*
X84750000Y-81668700D01*
X83525600Y-84319200D02*
X83442200Y-84319200D01*
%TO.N,CAM_LED_PWM*%
X15514300Y-8961800D02*
X15514300Y-11350700D01*
X35175000Y7000000D02*
X35102200Y7072800D01*
X15737800Y-8738300D02*
X15514300Y-8961800D01*
X22197600Y5114600D02*
X22197600Y4617300D01*
X15737800Y-1842500D02*
X15737800Y-8738300D01*
X35102200Y7072800D02*
X24155800Y7072800D01*
X22197600Y4617300D02*
X15737800Y-1842500D01*
X24155800Y7072800D02*
X22197600Y5114600D01*
X15514300Y-11350700D02*
X15015000Y-11850000D01*
%TO.N,CHG_SW*%
D73*
X38185600Y-71973100D02*
X37962500Y-71750000D01*
D69*
X46398300Y-73000000D02*
X44734300Y-71336000D01*
X44734300Y-71336000D02*
X39104500Y-71336000D01*
X47700000Y-73000000D02*
X46398300Y-73000000D01*
X39104500Y-71336000D02*
X38467400Y-71973100D01*
X37962500Y-71750000D02*
X37962500Y-72072900D01*
D73*
X38467400Y-71973100D02*
X38185600Y-71973100D01*
X37962500Y-72072900D02*
X37962500Y-72250000D01*
%TO.N,Net-(LED_RGB_MAIN1-DIN)*%
D64*
X73915000Y10450000D02*
X73915000Y9848300D01*
X73976700Y9848300D02*
X75825000Y8000000D01*
X73915000Y9848300D02*
X73976700Y9848300D01*
%TO.N,Net-(U7-REGOUT)*%
X55250000Y-49019800D02*
X55083100Y-49186700D01*
X51725000Y-50500000D02*
X52452600Y-51227600D01*
X52452600Y-51227600D02*
X54023600Y-51227600D01*
X55083100Y-49186700D02*
X55083100Y-50667300D01*
X54023600Y-51227600D02*
X54045100Y-51206100D01*
X55250000Y-46950000D02*
X55250000Y-49019800D01*
%TO.N,VBUS_MAIN*%
D69*
X98277400Y-80617500D02*
X98379000Y-80719100D01*
D74*
X93100200Y-82354800D02*
X93100000Y-82355000D01*
D64*
X105775000Y-77649100D02*
X105775000Y-78000000D01*
D69*
X101505900Y-80719100D02*
X104225000Y-78000000D01*
X94376200Y-79876800D02*
X94498900Y-79876800D01*
D64*
X106624500Y-76799600D02*
X105775000Y-77649100D01*
D69*
X98379000Y-80719100D02*
X101505900Y-80719100D01*
D74*
X93100200Y-81152800D02*
X93100200Y-82354800D01*
D69*
X95924500Y-80617500D02*
X98277400Y-80617500D01*
X93100200Y-81152800D02*
X94376200Y-79876800D01*
X98379000Y-80902200D02*
X97900000Y-81381200D01*
X98379000Y-80719100D02*
X98379000Y-80902200D01*
D74*
X97900000Y-81381200D02*
X97900000Y-82355000D01*
%TO.N,unconnected-(U2-SYS-Pad15)*%
D64*
X37962500Y-72750000D02*
X37962500Y-73250000D01*
%TO.N,Net-(Q_CAM_LED1-G)*%
X35062500Y11437600D02*
X36825000Y9675100D01*
X35175000Y4500000D02*
X36825000Y6150000D01*
X36825000Y6150000D02*
X36825000Y7000000D01*
X36825000Y9675100D02*
X36825000Y7000000D01*
X35062500Y11950000D02*
X35062500Y11437600D01*
%TO.N,CC1*%
X35750000Y-80795100D02*
X34868600Y-79913700D01*
X30261300Y-79913700D02*
X28675000Y-81500000D01*
X34868600Y-79913700D02*
X30261300Y-79913700D01*
X35750000Y-82355000D02*
X35750000Y-80795100D01*
%TD*%
M02*
