%TF.GenerationSoftware,KiCad,Pcbnew,10.0.6*%
%TF.CreationDate,2026-10-01T07:09:42+01:00*%
%TF.ProjectId,Hexapod_Robot_Board,48657861-706f-4645-9f52-6f626f745f42,rev?*%
%TF.SameCoordinates,Original*%
%TF.FileFunction,Legend,Top*%
%TF.FilePolarity,Positive*%
%FSLAX46Y46*%
G04 Gerber Fmt 4.6, Leading zero omitted, Abs format (unit mm)*
G04 Created by KiCad (PCBNEW 10.0.6) date 2026-10-01 07:09:42*
%MOMM*%
%LPD*%
G01*
G04 APERTURE LIST*
%ADD10C,0.150000*%
%ADD11C,0.200000*%
%ADD12C,0.120000*%
G04 APERTURE END LIST*
D10*
X13309524Y-72169104D02*
X13785714Y-72169104D01*
X13214286Y-72454819D02*
X13547619Y-71454819D01*
X13547619Y-71454819D02*
X13880952Y-72454819D01*
X14214286Y-71454819D02*
X14214286Y-72264342D01*
X14214286Y-72264342D02*
X14261905Y-72359580D01*
X14261905Y-72359580D02*
X14309524Y-72407200D01*
X14309524Y-72407200D02*
X14404762Y-72454819D01*
X14404762Y-72454819D02*
X14595238Y-72454819D01*
X14595238Y-72454819D02*
X14690476Y-72407200D01*
X14690476Y-72407200D02*
X14738095Y-72359580D01*
X14738095Y-72359580D02*
X14785714Y-72264342D01*
X14785714Y-72264342D02*
X14785714Y-71454819D01*
X15166667Y-71454819D02*
X15833333Y-72454819D01*
X15833333Y-71454819D02*
X15166667Y-72454819D01*
X17404762Y-71788152D02*
X17404762Y-72454819D01*
X17166667Y-71407200D02*
X16928572Y-72121485D01*
X16928572Y-72121485D02*
X17547619Y-72121485D01*
X17928572Y-72073866D02*
X18690477Y-72073866D01*
X19595238Y-71454819D02*
X19404762Y-71454819D01*
X19404762Y-71454819D02*
X19309524Y-71502438D01*
X19309524Y-71502438D02*
X19261905Y-71550057D01*
X19261905Y-71550057D02*
X19166667Y-71692914D01*
X19166667Y-71692914D02*
X19119048Y-71883390D01*
X19119048Y-71883390D02*
X19119048Y-72264342D01*
X19119048Y-72264342D02*
X19166667Y-72359580D01*
X19166667Y-72359580D02*
X19214286Y-72407200D01*
X19214286Y-72407200D02*
X19309524Y-72454819D01*
X19309524Y-72454819D02*
X19500000Y-72454819D01*
X19500000Y-72454819D02*
X19595238Y-72407200D01*
X19595238Y-72407200D02*
X19642857Y-72359580D01*
X19642857Y-72359580D02*
X19690476Y-72264342D01*
X19690476Y-72264342D02*
X19690476Y-72026247D01*
X19690476Y-72026247D02*
X19642857Y-71931009D01*
X19642857Y-71931009D02*
X19595238Y-71883390D01*
X19595238Y-71883390D02*
X19500000Y-71835771D01*
X19500000Y-71835771D02*
X19309524Y-71835771D01*
X19309524Y-71835771D02*
X19214286Y-71883390D01*
X19214286Y-71883390D02*
X19166667Y-71931009D01*
X19166667Y-71931009D02*
X19119048Y-72026247D01*
X32309524Y-87954819D02*
X32880952Y-87954819D01*
X32595238Y-88954819D02*
X32595238Y-87954819D01*
X33404762Y-88478628D02*
X33404762Y-88954819D01*
X33071429Y-87954819D02*
X33404762Y-88478628D01*
X33404762Y-88478628D02*
X33738095Y-87954819D01*
X34071429Y-88954819D02*
X34071429Y-87954819D01*
X34071429Y-87954819D02*
X34452381Y-87954819D01*
X34452381Y-87954819D02*
X34547619Y-88002438D01*
X34547619Y-88002438D02*
X34595238Y-88050057D01*
X34595238Y-88050057D02*
X34642857Y-88145295D01*
X34642857Y-88145295D02*
X34642857Y-88288152D01*
X34642857Y-88288152D02*
X34595238Y-88383390D01*
X34595238Y-88383390D02*
X34547619Y-88431009D01*
X34547619Y-88431009D02*
X34452381Y-88478628D01*
X34452381Y-88478628D02*
X34071429Y-88478628D01*
X35071429Y-88431009D02*
X35404762Y-88431009D01*
X35547619Y-88954819D02*
X35071429Y-88954819D01*
X35071429Y-88954819D02*
X35071429Y-87954819D01*
X35071429Y-87954819D02*
X35547619Y-87954819D01*
X35976191Y-88573866D02*
X36738096Y-88573866D01*
X37785714Y-88859580D02*
X37738095Y-88907200D01*
X37738095Y-88907200D02*
X37595238Y-88954819D01*
X37595238Y-88954819D02*
X37500000Y-88954819D01*
X37500000Y-88954819D02*
X37357143Y-88907200D01*
X37357143Y-88907200D02*
X37261905Y-88811961D01*
X37261905Y-88811961D02*
X37214286Y-88716723D01*
X37214286Y-88716723D02*
X37166667Y-88526247D01*
X37166667Y-88526247D02*
X37166667Y-88383390D01*
X37166667Y-88383390D02*
X37214286Y-88192914D01*
X37214286Y-88192914D02*
X37261905Y-88097676D01*
X37261905Y-88097676D02*
X37357143Y-88002438D01*
X37357143Y-88002438D02*
X37500000Y-87954819D01*
X37500000Y-87954819D02*
X37595238Y-87954819D01*
X37595238Y-87954819D02*
X37738095Y-88002438D01*
X37738095Y-88002438D02*
X37785714Y-88050057D01*
X39547619Y-88859580D02*
X39500000Y-88907200D01*
X39500000Y-88907200D02*
X39357143Y-88954819D01*
X39357143Y-88954819D02*
X39261905Y-88954819D01*
X39261905Y-88954819D02*
X39119048Y-88907200D01*
X39119048Y-88907200D02*
X39023810Y-88811961D01*
X39023810Y-88811961D02*
X38976191Y-88716723D01*
X38976191Y-88716723D02*
X38928572Y-88526247D01*
X38928572Y-88526247D02*
X38928572Y-88383390D01*
X38928572Y-88383390D02*
X38976191Y-88192914D01*
X38976191Y-88192914D02*
X39023810Y-88097676D01*
X39023810Y-88097676D02*
X39119048Y-88002438D01*
X39119048Y-88002438D02*
X39261905Y-87954819D01*
X39261905Y-87954819D02*
X39357143Y-87954819D01*
X39357143Y-87954819D02*
X39500000Y-88002438D01*
X39500000Y-88002438D02*
X39547619Y-88050057D01*
X39976191Y-88954819D02*
X39976191Y-87954819D01*
X39976191Y-88431009D02*
X40547619Y-88431009D01*
X40547619Y-88954819D02*
X40547619Y-87954819D01*
X41547619Y-88002438D02*
X41452381Y-87954819D01*
X41452381Y-87954819D02*
X41309524Y-87954819D01*
X41309524Y-87954819D02*
X41166667Y-88002438D01*
X41166667Y-88002438D02*
X41071429Y-88097676D01*
X41071429Y-88097676D02*
X41023810Y-88192914D01*
X41023810Y-88192914D02*
X40976191Y-88383390D01*
X40976191Y-88383390D02*
X40976191Y-88526247D01*
X40976191Y-88526247D02*
X41023810Y-88716723D01*
X41023810Y-88716723D02*
X41071429Y-88811961D01*
X41071429Y-88811961D02*
X41166667Y-88907200D01*
X41166667Y-88907200D02*
X41309524Y-88954819D01*
X41309524Y-88954819D02*
X41404762Y-88954819D01*
X41404762Y-88954819D02*
X41547619Y-88907200D01*
X41547619Y-88907200D02*
X41595238Y-88859580D01*
X41595238Y-88859580D02*
X41595238Y-88526247D01*
X41595238Y-88526247D02*
X41404762Y-88526247D01*
X32880951Y-64131009D02*
X33214284Y-64131009D01*
X33357141Y-64654819D02*
X32880951Y-64654819D01*
X32880951Y-64654819D02*
X32880951Y-63654819D01*
X32880951Y-63654819D02*
X33357141Y-63654819D01*
X33738094Y-64607200D02*
X33880951Y-64654819D01*
X33880951Y-64654819D02*
X34119046Y-64654819D01*
X34119046Y-64654819D02*
X34214284Y-64607200D01*
X34214284Y-64607200D02*
X34261903Y-64559580D01*
X34261903Y-64559580D02*
X34309522Y-64464342D01*
X34309522Y-64464342D02*
X34309522Y-64369104D01*
X34309522Y-64369104D02*
X34261903Y-64273866D01*
X34261903Y-64273866D02*
X34214284Y-64226247D01*
X34214284Y-64226247D02*
X34119046Y-64178628D01*
X34119046Y-64178628D02*
X33928570Y-64131009D01*
X33928570Y-64131009D02*
X33833332Y-64083390D01*
X33833332Y-64083390D02*
X33785713Y-64035771D01*
X33785713Y-64035771D02*
X33738094Y-63940533D01*
X33738094Y-63940533D02*
X33738094Y-63845295D01*
X33738094Y-63845295D02*
X33785713Y-63750057D01*
X33785713Y-63750057D02*
X33833332Y-63702438D01*
X33833332Y-63702438D02*
X33928570Y-63654819D01*
X33928570Y-63654819D02*
X34166665Y-63654819D01*
X34166665Y-63654819D02*
X34309522Y-63702438D01*
X34738094Y-64654819D02*
X34738094Y-63654819D01*
X34738094Y-63654819D02*
X35119046Y-63654819D01*
X35119046Y-63654819D02*
X35214284Y-63702438D01*
X35214284Y-63702438D02*
X35261903Y-63750057D01*
X35261903Y-63750057D02*
X35309522Y-63845295D01*
X35309522Y-63845295D02*
X35309522Y-63988152D01*
X35309522Y-63988152D02*
X35261903Y-64083390D01*
X35261903Y-64083390D02*
X35214284Y-64131009D01*
X35214284Y-64131009D02*
X35119046Y-64178628D01*
X35119046Y-64178628D02*
X34738094Y-64178628D01*
X35642856Y-63654819D02*
X36261903Y-63654819D01*
X36261903Y-63654819D02*
X35928570Y-64035771D01*
X35928570Y-64035771D02*
X36071427Y-64035771D01*
X36071427Y-64035771D02*
X36166665Y-64083390D01*
X36166665Y-64083390D02*
X36214284Y-64131009D01*
X36214284Y-64131009D02*
X36261903Y-64226247D01*
X36261903Y-64226247D02*
X36261903Y-64464342D01*
X36261903Y-64464342D02*
X36214284Y-64559580D01*
X36214284Y-64559580D02*
X36166665Y-64607200D01*
X36166665Y-64607200D02*
X36071427Y-64654819D01*
X36071427Y-64654819D02*
X35785713Y-64654819D01*
X35785713Y-64654819D02*
X35690475Y-64607200D01*
X35690475Y-64607200D02*
X35642856Y-64559580D01*
X36642856Y-63750057D02*
X36690475Y-63702438D01*
X36690475Y-63702438D02*
X36785713Y-63654819D01*
X36785713Y-63654819D02*
X37023808Y-63654819D01*
X37023808Y-63654819D02*
X37119046Y-63702438D01*
X37119046Y-63702438D02*
X37166665Y-63750057D01*
X37166665Y-63750057D02*
X37214284Y-63845295D01*
X37214284Y-63845295D02*
X37214284Y-63940533D01*
X37214284Y-63940533D02*
X37166665Y-64083390D01*
X37166665Y-64083390D02*
X36595237Y-64654819D01*
X36595237Y-64654819D02*
X37214284Y-64654819D01*
X37642856Y-64273866D02*
X38404761Y-64273866D01*
X38833332Y-64607200D02*
X38976189Y-64654819D01*
X38976189Y-64654819D02*
X39214284Y-64654819D01*
X39214284Y-64654819D02*
X39309522Y-64607200D01*
X39309522Y-64607200D02*
X39357141Y-64559580D01*
X39357141Y-64559580D02*
X39404760Y-64464342D01*
X39404760Y-64464342D02*
X39404760Y-64369104D01*
X39404760Y-64369104D02*
X39357141Y-64273866D01*
X39357141Y-64273866D02*
X39309522Y-64226247D01*
X39309522Y-64226247D02*
X39214284Y-64178628D01*
X39214284Y-64178628D02*
X39023808Y-64131009D01*
X39023808Y-64131009D02*
X38928570Y-64083390D01*
X38928570Y-64083390D02*
X38880951Y-64035771D01*
X38880951Y-64035771D02*
X38833332Y-63940533D01*
X38833332Y-63940533D02*
X38833332Y-63845295D01*
X38833332Y-63845295D02*
X38880951Y-63750057D01*
X38880951Y-63750057D02*
X38928570Y-63702438D01*
X38928570Y-63702438D02*
X39023808Y-63654819D01*
X39023808Y-63654819D02*
X39261903Y-63654819D01*
X39261903Y-63654819D02*
X39404760Y-63702438D01*
X39738094Y-63654819D02*
X40357141Y-63654819D01*
X40357141Y-63654819D02*
X40023808Y-64035771D01*
X40023808Y-64035771D02*
X40166665Y-64035771D01*
X40166665Y-64035771D02*
X40261903Y-64083390D01*
X40261903Y-64083390D02*
X40309522Y-64131009D01*
X40309522Y-64131009D02*
X40357141Y-64226247D01*
X40357141Y-64226247D02*
X40357141Y-64464342D01*
X40357141Y-64464342D02*
X40309522Y-64559580D01*
X40309522Y-64559580D02*
X40261903Y-64607200D01*
X40261903Y-64607200D02*
X40166665Y-64654819D01*
X40166665Y-64654819D02*
X39880951Y-64654819D01*
X39880951Y-64654819D02*
X39785713Y-64607200D01*
X39785713Y-64607200D02*
X39738094Y-64559580D01*
X40785713Y-64273866D02*
X41547618Y-64273866D01*
X41928570Y-63654819D02*
X42166665Y-64654819D01*
X42166665Y-64654819D02*
X42357141Y-63940533D01*
X42357141Y-63940533D02*
X42547617Y-64654819D01*
X42547617Y-64654819D02*
X42785713Y-63654819D01*
X43738093Y-64654819D02*
X43404760Y-64178628D01*
X43166665Y-64654819D02*
X43166665Y-63654819D01*
X43166665Y-63654819D02*
X43547617Y-63654819D01*
X43547617Y-63654819D02*
X43642855Y-63702438D01*
X43642855Y-63702438D02*
X43690474Y-63750057D01*
X43690474Y-63750057D02*
X43738093Y-63845295D01*
X43738093Y-63845295D02*
X43738093Y-63988152D01*
X43738093Y-63988152D02*
X43690474Y-64083390D01*
X43690474Y-64083390D02*
X43642855Y-64131009D01*
X43642855Y-64131009D02*
X43547617Y-64178628D01*
X43547617Y-64178628D02*
X43166665Y-64178628D01*
X44357141Y-63654819D02*
X44547617Y-63654819D01*
X44547617Y-63654819D02*
X44642855Y-63702438D01*
X44642855Y-63702438D02*
X44738093Y-63797676D01*
X44738093Y-63797676D02*
X44785712Y-63988152D01*
X44785712Y-63988152D02*
X44785712Y-64321485D01*
X44785712Y-64321485D02*
X44738093Y-64511961D01*
X44738093Y-64511961D02*
X44642855Y-64607200D01*
X44642855Y-64607200D02*
X44547617Y-64654819D01*
X44547617Y-64654819D02*
X44357141Y-64654819D01*
X44357141Y-64654819D02*
X44261903Y-64607200D01*
X44261903Y-64607200D02*
X44166665Y-64511961D01*
X44166665Y-64511961D02*
X44119046Y-64321485D01*
X44119046Y-64321485D02*
X44119046Y-63988152D01*
X44119046Y-63988152D02*
X44166665Y-63797676D01*
X44166665Y-63797676D02*
X44261903Y-63702438D01*
X44261903Y-63702438D02*
X44357141Y-63654819D01*
X45404760Y-63654819D02*
X45595236Y-63654819D01*
X45595236Y-63654819D02*
X45690474Y-63702438D01*
X45690474Y-63702438D02*
X45785712Y-63797676D01*
X45785712Y-63797676D02*
X45833331Y-63988152D01*
X45833331Y-63988152D02*
X45833331Y-64321485D01*
X45833331Y-64321485D02*
X45785712Y-64511961D01*
X45785712Y-64511961D02*
X45690474Y-64607200D01*
X45690474Y-64607200D02*
X45595236Y-64654819D01*
X45595236Y-64654819D02*
X45404760Y-64654819D01*
X45404760Y-64654819D02*
X45309522Y-64607200D01*
X45309522Y-64607200D02*
X45214284Y-64511961D01*
X45214284Y-64511961D02*
X45166665Y-64321485D01*
X45166665Y-64321485D02*
X45166665Y-63988152D01*
X45166665Y-63988152D02*
X45214284Y-63797676D01*
X45214284Y-63797676D02*
X45309522Y-63702438D01*
X45309522Y-63702438D02*
X45404760Y-63654819D01*
X46261903Y-64654819D02*
X46261903Y-63654819D01*
X46261903Y-63654819D02*
X46595236Y-64369104D01*
X46595236Y-64369104D02*
X46928569Y-63654819D01*
X46928569Y-63654819D02*
X46928569Y-64654819D01*
X47404760Y-64273866D02*
X48166665Y-64273866D01*
X49166664Y-64654819D02*
X48595236Y-64654819D01*
X48880950Y-64654819D02*
X48880950Y-63654819D01*
X48880950Y-63654819D02*
X48785712Y-63797676D01*
X48785712Y-63797676D02*
X48690474Y-63892914D01*
X48690474Y-63892914D02*
X48595236Y-63940533D01*
X49595236Y-63654819D02*
X49595236Y-64464342D01*
X49595236Y-64464342D02*
X49642855Y-64559580D01*
X49642855Y-64559580D02*
X49690474Y-64607200D01*
X49690474Y-64607200D02*
X49785712Y-64654819D01*
X49785712Y-64654819D02*
X49976188Y-64654819D01*
X49976188Y-64654819D02*
X50071426Y-64607200D01*
X50071426Y-64607200D02*
X50119045Y-64559580D01*
X50119045Y-64559580D02*
X50166664Y-64464342D01*
X50166664Y-64464342D02*
X50166664Y-63654819D01*
X52309522Y-63654819D02*
X52309522Y-63892914D01*
X52071427Y-63797676D02*
X52309522Y-63892914D01*
X52309522Y-63892914D02*
X52547617Y-63797676D01*
X52166665Y-64083390D02*
X52309522Y-63892914D01*
X52309522Y-63892914D02*
X52452379Y-64083390D01*
X54452380Y-64654819D02*
X54452380Y-63654819D01*
X54452380Y-63654819D02*
X54785713Y-64369104D01*
X54785713Y-64369104D02*
X55119046Y-63654819D01*
X55119046Y-63654819D02*
X55119046Y-64654819D01*
X55595237Y-64654819D02*
X55595237Y-63654819D01*
X55595237Y-63654819D02*
X55976189Y-63654819D01*
X55976189Y-63654819D02*
X56071427Y-63702438D01*
X56071427Y-63702438D02*
X56119046Y-63750057D01*
X56119046Y-63750057D02*
X56166665Y-63845295D01*
X56166665Y-63845295D02*
X56166665Y-63988152D01*
X56166665Y-63988152D02*
X56119046Y-64083390D01*
X56119046Y-64083390D02*
X56071427Y-64131009D01*
X56071427Y-64131009D02*
X55976189Y-64178628D01*
X55976189Y-64178628D02*
X55595237Y-64178628D01*
X56595237Y-63654819D02*
X56595237Y-64464342D01*
X56595237Y-64464342D02*
X56642856Y-64559580D01*
X56642856Y-64559580D02*
X56690475Y-64607200D01*
X56690475Y-64607200D02*
X56785713Y-64654819D01*
X56785713Y-64654819D02*
X56976189Y-64654819D01*
X56976189Y-64654819D02*
X57071427Y-64607200D01*
X57071427Y-64607200D02*
X57119046Y-64559580D01*
X57119046Y-64559580D02*
X57166665Y-64464342D01*
X57166665Y-64464342D02*
X57166665Y-63654819D01*
X57642856Y-64273866D02*
X58404761Y-64273866D01*
X59309522Y-63654819D02*
X59119046Y-63654819D01*
X59119046Y-63654819D02*
X59023808Y-63702438D01*
X59023808Y-63702438D02*
X58976189Y-63750057D01*
X58976189Y-63750057D02*
X58880951Y-63892914D01*
X58880951Y-63892914D02*
X58833332Y-64083390D01*
X58833332Y-64083390D02*
X58833332Y-64464342D01*
X58833332Y-64464342D02*
X58880951Y-64559580D01*
X58880951Y-64559580D02*
X58928570Y-64607200D01*
X58928570Y-64607200D02*
X59023808Y-64654819D01*
X59023808Y-64654819D02*
X59214284Y-64654819D01*
X59214284Y-64654819D02*
X59309522Y-64607200D01*
X59309522Y-64607200D02*
X59357141Y-64559580D01*
X59357141Y-64559580D02*
X59404760Y-64464342D01*
X59404760Y-64464342D02*
X59404760Y-64226247D01*
X59404760Y-64226247D02*
X59357141Y-64131009D01*
X59357141Y-64131009D02*
X59309522Y-64083390D01*
X59309522Y-64083390D02*
X59214284Y-64035771D01*
X59214284Y-64035771D02*
X59023808Y-64035771D01*
X59023808Y-64035771D02*
X58928570Y-64083390D01*
X58928570Y-64083390D02*
X58880951Y-64131009D01*
X58880951Y-64131009D02*
X58833332Y-64226247D01*
X60023808Y-63654819D02*
X60119046Y-63654819D01*
X60119046Y-63654819D02*
X60214284Y-63702438D01*
X60214284Y-63702438D02*
X60261903Y-63750057D01*
X60261903Y-63750057D02*
X60309522Y-63845295D01*
X60309522Y-63845295D02*
X60357141Y-64035771D01*
X60357141Y-64035771D02*
X60357141Y-64273866D01*
X60357141Y-64273866D02*
X60309522Y-64464342D01*
X60309522Y-64464342D02*
X60261903Y-64559580D01*
X60261903Y-64559580D02*
X60214284Y-64607200D01*
X60214284Y-64607200D02*
X60119046Y-64654819D01*
X60119046Y-64654819D02*
X60023808Y-64654819D01*
X60023808Y-64654819D02*
X59928570Y-64607200D01*
X59928570Y-64607200D02*
X59880951Y-64559580D01*
X59880951Y-64559580D02*
X59833332Y-64464342D01*
X59833332Y-64464342D02*
X59785713Y-64273866D01*
X59785713Y-64273866D02*
X59785713Y-64035771D01*
X59785713Y-64035771D02*
X59833332Y-63845295D01*
X59833332Y-63845295D02*
X59880951Y-63750057D01*
X59880951Y-63750057D02*
X59928570Y-63702438D01*
X59928570Y-63702438D02*
X60023808Y-63654819D01*
X61261903Y-63654819D02*
X60785713Y-63654819D01*
X60785713Y-63654819D02*
X60738094Y-64131009D01*
X60738094Y-64131009D02*
X60785713Y-64083390D01*
X60785713Y-64083390D02*
X60880951Y-64035771D01*
X60880951Y-64035771D02*
X61119046Y-64035771D01*
X61119046Y-64035771D02*
X61214284Y-64083390D01*
X61214284Y-64083390D02*
X61261903Y-64131009D01*
X61261903Y-64131009D02*
X61309522Y-64226247D01*
X61309522Y-64226247D02*
X61309522Y-64464342D01*
X61309522Y-64464342D02*
X61261903Y-64559580D01*
X61261903Y-64559580D02*
X61214284Y-64607200D01*
X61214284Y-64607200D02*
X61119046Y-64654819D01*
X61119046Y-64654819D02*
X60880951Y-64654819D01*
X60880951Y-64654819D02*
X60785713Y-64607200D01*
X60785713Y-64607200D02*
X60738094Y-64559580D01*
X61928570Y-63654819D02*
X62023808Y-63654819D01*
X62023808Y-63654819D02*
X62119046Y-63702438D01*
X62119046Y-63702438D02*
X62166665Y-63750057D01*
X62166665Y-63750057D02*
X62214284Y-63845295D01*
X62214284Y-63845295D02*
X62261903Y-64035771D01*
X62261903Y-64035771D02*
X62261903Y-64273866D01*
X62261903Y-64273866D02*
X62214284Y-64464342D01*
X62214284Y-64464342D02*
X62166665Y-64559580D01*
X62166665Y-64559580D02*
X62119046Y-64607200D01*
X62119046Y-64607200D02*
X62023808Y-64654819D01*
X62023808Y-64654819D02*
X61928570Y-64654819D01*
X61928570Y-64654819D02*
X61833332Y-64607200D01*
X61833332Y-64607200D02*
X61785713Y-64559580D01*
X61785713Y-64559580D02*
X61738094Y-64464342D01*
X61738094Y-64464342D02*
X61690475Y-64273866D01*
X61690475Y-64273866D02*
X61690475Y-64035771D01*
X61690475Y-64035771D02*
X61738094Y-63845295D01*
X61738094Y-63845295D02*
X61785713Y-63750057D01*
X61785713Y-63750057D02*
X61833332Y-63702438D01*
X61833332Y-63702438D02*
X61928570Y-63654819D01*
X64357142Y-63654819D02*
X64357142Y-63892914D01*
X64119047Y-63797676D02*
X64357142Y-63892914D01*
X64357142Y-63892914D02*
X64595237Y-63797676D01*
X64214285Y-64083390D02*
X64357142Y-63892914D01*
X64357142Y-63892914D02*
X64499999Y-64083390D01*
X66500000Y-64654819D02*
X66500000Y-63654819D01*
X66500000Y-63654819D02*
X66738095Y-63654819D01*
X66738095Y-63654819D02*
X66880952Y-63702438D01*
X66880952Y-63702438D02*
X66976190Y-63797676D01*
X66976190Y-63797676D02*
X67023809Y-63892914D01*
X67023809Y-63892914D02*
X67071428Y-64083390D01*
X67071428Y-64083390D02*
X67071428Y-64226247D01*
X67071428Y-64226247D02*
X67023809Y-64416723D01*
X67023809Y-64416723D02*
X66976190Y-64511961D01*
X66976190Y-64511961D02*
X66880952Y-64607200D01*
X66880952Y-64607200D02*
X66738095Y-64654819D01*
X66738095Y-64654819D02*
X66500000Y-64654819D01*
X67500000Y-63654819D02*
X67500000Y-64464342D01*
X67500000Y-64464342D02*
X67547619Y-64559580D01*
X67547619Y-64559580D02*
X67595238Y-64607200D01*
X67595238Y-64607200D02*
X67690476Y-64654819D01*
X67690476Y-64654819D02*
X67880952Y-64654819D01*
X67880952Y-64654819D02*
X67976190Y-64607200D01*
X67976190Y-64607200D02*
X68023809Y-64559580D01*
X68023809Y-64559580D02*
X68071428Y-64464342D01*
X68071428Y-64464342D02*
X68071428Y-63654819D01*
X68500000Y-64369104D02*
X68976190Y-64369104D01*
X68404762Y-64654819D02*
X68738095Y-63654819D01*
X68738095Y-63654819D02*
X69071428Y-64654819D01*
X69880952Y-64654819D02*
X69404762Y-64654819D01*
X69404762Y-64654819D02*
X69404762Y-63654819D01*
X71452381Y-63654819D02*
X70976191Y-63654819D01*
X70976191Y-63654819D02*
X70928572Y-64131009D01*
X70928572Y-64131009D02*
X70976191Y-64083390D01*
X70976191Y-64083390D02*
X71071429Y-64035771D01*
X71071429Y-64035771D02*
X71309524Y-64035771D01*
X71309524Y-64035771D02*
X71404762Y-64083390D01*
X71404762Y-64083390D02*
X71452381Y-64131009D01*
X71452381Y-64131009D02*
X71500000Y-64226247D01*
X71500000Y-64226247D02*
X71500000Y-64464342D01*
X71500000Y-64464342D02*
X71452381Y-64559580D01*
X71452381Y-64559580D02*
X71404762Y-64607200D01*
X71404762Y-64607200D02*
X71309524Y-64654819D01*
X71309524Y-64654819D02*
X71071429Y-64654819D01*
X71071429Y-64654819D02*
X70976191Y-64607200D01*
X70976191Y-64607200D02*
X70928572Y-64559580D01*
X71880953Y-64369104D02*
X72357143Y-64369104D01*
X71785715Y-64654819D02*
X72119048Y-63654819D01*
X72119048Y-63654819D02*
X72452381Y-64654819D01*
X73880953Y-64131009D02*
X74023810Y-64178628D01*
X74023810Y-64178628D02*
X74071429Y-64226247D01*
X74071429Y-64226247D02*
X74119048Y-64321485D01*
X74119048Y-64321485D02*
X74119048Y-64464342D01*
X74119048Y-64464342D02*
X74071429Y-64559580D01*
X74071429Y-64559580D02*
X74023810Y-64607200D01*
X74023810Y-64607200D02*
X73928572Y-64654819D01*
X73928572Y-64654819D02*
X73547620Y-64654819D01*
X73547620Y-64654819D02*
X73547620Y-63654819D01*
X73547620Y-63654819D02*
X73880953Y-63654819D01*
X73880953Y-63654819D02*
X73976191Y-63702438D01*
X73976191Y-63702438D02*
X74023810Y-63750057D01*
X74023810Y-63750057D02*
X74071429Y-63845295D01*
X74071429Y-63845295D02*
X74071429Y-63940533D01*
X74071429Y-63940533D02*
X74023810Y-64035771D01*
X74023810Y-64035771D02*
X73976191Y-64083390D01*
X73976191Y-64083390D02*
X73880953Y-64131009D01*
X73880953Y-64131009D02*
X73547620Y-64131009D01*
X74547620Y-63654819D02*
X74547620Y-64464342D01*
X74547620Y-64464342D02*
X74595239Y-64559580D01*
X74595239Y-64559580D02*
X74642858Y-64607200D01*
X74642858Y-64607200D02*
X74738096Y-64654819D01*
X74738096Y-64654819D02*
X74928572Y-64654819D01*
X74928572Y-64654819D02*
X75023810Y-64607200D01*
X75023810Y-64607200D02*
X75071429Y-64559580D01*
X75071429Y-64559580D02*
X75119048Y-64464342D01*
X75119048Y-64464342D02*
X75119048Y-63654819D01*
X76166667Y-64559580D02*
X76119048Y-64607200D01*
X76119048Y-64607200D02*
X75976191Y-64654819D01*
X75976191Y-64654819D02*
X75880953Y-64654819D01*
X75880953Y-64654819D02*
X75738096Y-64607200D01*
X75738096Y-64607200D02*
X75642858Y-64511961D01*
X75642858Y-64511961D02*
X75595239Y-64416723D01*
X75595239Y-64416723D02*
X75547620Y-64226247D01*
X75547620Y-64226247D02*
X75547620Y-64083390D01*
X75547620Y-64083390D02*
X75595239Y-63892914D01*
X75595239Y-63892914D02*
X75642858Y-63797676D01*
X75642858Y-63797676D02*
X75738096Y-63702438D01*
X75738096Y-63702438D02*
X75880953Y-63654819D01*
X75880953Y-63654819D02*
X75976191Y-63654819D01*
X75976191Y-63654819D02*
X76119048Y-63702438D01*
X76119048Y-63702438D02*
X76166667Y-63750057D01*
X76595239Y-64654819D02*
X76595239Y-63654819D01*
X77166667Y-64654819D02*
X76738096Y-64083390D01*
X77166667Y-63654819D02*
X76595239Y-64226247D01*
X51595238Y-77954819D02*
X51595238Y-76954819D01*
X51595238Y-76954819D02*
X51976190Y-76954819D01*
X51976190Y-76954819D02*
X52071428Y-77002438D01*
X52071428Y-77002438D02*
X52119047Y-77050057D01*
X52119047Y-77050057D02*
X52166666Y-77145295D01*
X52166666Y-77145295D02*
X52166666Y-77288152D01*
X52166666Y-77288152D02*
X52119047Y-77383390D01*
X52119047Y-77383390D02*
X52071428Y-77431009D01*
X52071428Y-77431009D02*
X51976190Y-77478628D01*
X51976190Y-77478628D02*
X51595238Y-77478628D01*
X52500000Y-76954819D02*
X52738095Y-77954819D01*
X52738095Y-77954819D02*
X52928571Y-77240533D01*
X52928571Y-77240533D02*
X53119047Y-77954819D01*
X53119047Y-77954819D02*
X53357143Y-76954819D01*
X54309523Y-77954819D02*
X53976190Y-77478628D01*
X53738095Y-77954819D02*
X53738095Y-76954819D01*
X53738095Y-76954819D02*
X54119047Y-76954819D01*
X54119047Y-76954819D02*
X54214285Y-77002438D01*
X54214285Y-77002438D02*
X54261904Y-77050057D01*
X54261904Y-77050057D02*
X54309523Y-77145295D01*
X54309523Y-77145295D02*
X54309523Y-77288152D01*
X54309523Y-77288152D02*
X54261904Y-77383390D01*
X54261904Y-77383390D02*
X54214285Y-77431009D01*
X54214285Y-77431009D02*
X54119047Y-77478628D01*
X54119047Y-77478628D02*
X53738095Y-77478628D01*
X55452381Y-77907200D02*
X55595238Y-77954819D01*
X55595238Y-77954819D02*
X55833333Y-77954819D01*
X55833333Y-77954819D02*
X55928571Y-77907200D01*
X55928571Y-77907200D02*
X55976190Y-77859580D01*
X55976190Y-77859580D02*
X56023809Y-77764342D01*
X56023809Y-77764342D02*
X56023809Y-77669104D01*
X56023809Y-77669104D02*
X55976190Y-77573866D01*
X55976190Y-77573866D02*
X55928571Y-77526247D01*
X55928571Y-77526247D02*
X55833333Y-77478628D01*
X55833333Y-77478628D02*
X55642857Y-77431009D01*
X55642857Y-77431009D02*
X55547619Y-77383390D01*
X55547619Y-77383390D02*
X55500000Y-77335771D01*
X55500000Y-77335771D02*
X55452381Y-77240533D01*
X55452381Y-77240533D02*
X55452381Y-77145295D01*
X55452381Y-77145295D02*
X55500000Y-77050057D01*
X55500000Y-77050057D02*
X55547619Y-77002438D01*
X55547619Y-77002438D02*
X55642857Y-76954819D01*
X55642857Y-76954819D02*
X55880952Y-76954819D01*
X55880952Y-76954819D02*
X56023809Y-77002438D01*
X56357143Y-76954819D02*
X56595238Y-77954819D01*
X56595238Y-77954819D02*
X56785714Y-77240533D01*
X56785714Y-77240533D02*
X56976190Y-77954819D01*
X56976190Y-77954819D02*
X57214286Y-76954819D01*
X57595238Y-77954819D02*
X57595238Y-76954819D01*
X57928571Y-76954819D02*
X58499999Y-76954819D01*
X58214285Y-77954819D02*
X58214285Y-76954819D01*
X59404761Y-77859580D02*
X59357142Y-77907200D01*
X59357142Y-77907200D02*
X59214285Y-77954819D01*
X59214285Y-77954819D02*
X59119047Y-77954819D01*
X59119047Y-77954819D02*
X58976190Y-77907200D01*
X58976190Y-77907200D02*
X58880952Y-77811961D01*
X58880952Y-77811961D02*
X58833333Y-77716723D01*
X58833333Y-77716723D02*
X58785714Y-77526247D01*
X58785714Y-77526247D02*
X58785714Y-77383390D01*
X58785714Y-77383390D02*
X58833333Y-77192914D01*
X58833333Y-77192914D02*
X58880952Y-77097676D01*
X58880952Y-77097676D02*
X58976190Y-77002438D01*
X58976190Y-77002438D02*
X59119047Y-76954819D01*
X59119047Y-76954819D02*
X59214285Y-76954819D01*
X59214285Y-76954819D02*
X59357142Y-77002438D01*
X59357142Y-77002438D02*
X59404761Y-77050057D01*
X59833333Y-77954819D02*
X59833333Y-76954819D01*
X59833333Y-77431009D02*
X60404761Y-77431009D01*
X60404761Y-77954819D02*
X60404761Y-76954819D01*
X78904762Y-71454819D02*
X78904762Y-72264342D01*
X78904762Y-72264342D02*
X78952381Y-72359580D01*
X78952381Y-72359580D02*
X79000000Y-72407200D01*
X79000000Y-72407200D02*
X79095238Y-72454819D01*
X79095238Y-72454819D02*
X79285714Y-72454819D01*
X79285714Y-72454819D02*
X79380952Y-72407200D01*
X79380952Y-72407200D02*
X79428571Y-72359580D01*
X79428571Y-72359580D02*
X79476190Y-72264342D01*
X79476190Y-72264342D02*
X79476190Y-71454819D01*
X79904762Y-72169104D02*
X80380952Y-72169104D01*
X79809524Y-72454819D02*
X80142857Y-71454819D01*
X80142857Y-71454819D02*
X80476190Y-72454819D01*
X81380952Y-72454819D02*
X81047619Y-71978628D01*
X80809524Y-72454819D02*
X80809524Y-71454819D01*
X80809524Y-71454819D02*
X81190476Y-71454819D01*
X81190476Y-71454819D02*
X81285714Y-71502438D01*
X81285714Y-71502438D02*
X81333333Y-71550057D01*
X81333333Y-71550057D02*
X81380952Y-71645295D01*
X81380952Y-71645295D02*
X81380952Y-71788152D01*
X81380952Y-71788152D02*
X81333333Y-71883390D01*
X81333333Y-71883390D02*
X81285714Y-71931009D01*
X81285714Y-71931009D02*
X81190476Y-71978628D01*
X81190476Y-71978628D02*
X80809524Y-71978628D01*
X81666667Y-71454819D02*
X82238095Y-71454819D01*
X81952381Y-72454819D02*
X81952381Y-71454819D01*
X84523810Y-72454819D02*
X84523810Y-71454819D01*
X84952381Y-71550057D02*
X85000000Y-71502438D01*
X85000000Y-71502438D02*
X85095238Y-71454819D01*
X85095238Y-71454819D02*
X85333333Y-71454819D01*
X85333333Y-71454819D02*
X85428571Y-71502438D01*
X85428571Y-71502438D02*
X85476190Y-71550057D01*
X85476190Y-71550057D02*
X85523809Y-71645295D01*
X85523809Y-71645295D02*
X85523809Y-71740533D01*
X85523809Y-71740533D02*
X85476190Y-71883390D01*
X85476190Y-71883390D02*
X84904762Y-72454819D01*
X84904762Y-72454819D02*
X85523809Y-72454819D01*
X86523809Y-72359580D02*
X86476190Y-72407200D01*
X86476190Y-72407200D02*
X86333333Y-72454819D01*
X86333333Y-72454819D02*
X86238095Y-72454819D01*
X86238095Y-72454819D02*
X86095238Y-72407200D01*
X86095238Y-72407200D02*
X86000000Y-72311961D01*
X86000000Y-72311961D02*
X85952381Y-72216723D01*
X85952381Y-72216723D02*
X85904762Y-72026247D01*
X85904762Y-72026247D02*
X85904762Y-71883390D01*
X85904762Y-71883390D02*
X85952381Y-71692914D01*
X85952381Y-71692914D02*
X86000000Y-71597676D01*
X86000000Y-71597676D02*
X86095238Y-71502438D01*
X86095238Y-71502438D02*
X86238095Y-71454819D01*
X86238095Y-71454819D02*
X86333333Y-71454819D01*
X86333333Y-71454819D02*
X86476190Y-71502438D01*
X86476190Y-71502438D02*
X86523809Y-71550057D01*
X91809524Y-72169104D02*
X92285714Y-72169104D01*
X91714286Y-72454819D02*
X92047619Y-71454819D01*
X92047619Y-71454819D02*
X92380952Y-72454819D01*
X92714286Y-71454819D02*
X92714286Y-72264342D01*
X92714286Y-72264342D02*
X92761905Y-72359580D01*
X92761905Y-72359580D02*
X92809524Y-72407200D01*
X92809524Y-72407200D02*
X92904762Y-72454819D01*
X92904762Y-72454819D02*
X93095238Y-72454819D01*
X93095238Y-72454819D02*
X93190476Y-72407200D01*
X93190476Y-72407200D02*
X93238095Y-72359580D01*
X93238095Y-72359580D02*
X93285714Y-72264342D01*
X93285714Y-72264342D02*
X93285714Y-71454819D01*
X93666667Y-71454819D02*
X94333333Y-72454819D01*
X94333333Y-71454819D02*
X93666667Y-72454819D01*
X96000000Y-72454819D02*
X95428572Y-72454819D01*
X95714286Y-72454819D02*
X95714286Y-71454819D01*
X95714286Y-71454819D02*
X95619048Y-71597676D01*
X95619048Y-71597676D02*
X95523810Y-71692914D01*
X95523810Y-71692914D02*
X95428572Y-71740533D01*
X96428572Y-72073866D02*
X97190477Y-72073866D01*
X97571429Y-71454819D02*
X98190476Y-71454819D01*
X98190476Y-71454819D02*
X97857143Y-71835771D01*
X97857143Y-71835771D02*
X98000000Y-71835771D01*
X98000000Y-71835771D02*
X98095238Y-71883390D01*
X98095238Y-71883390D02*
X98142857Y-71931009D01*
X98142857Y-71931009D02*
X98190476Y-72026247D01*
X98190476Y-72026247D02*
X98190476Y-72264342D01*
X98190476Y-72264342D02*
X98142857Y-72359580D01*
X98142857Y-72359580D02*
X98095238Y-72407200D01*
X98095238Y-72407200D02*
X98000000Y-72454819D01*
X98000000Y-72454819D02*
X97714286Y-72454819D01*
X97714286Y-72454819D02*
X97619048Y-72407200D01*
X97619048Y-72407200D02*
X97571429Y-72359580D01*
X7780953Y-10001080D02*
X7257143Y-10001080D01*
X7257143Y-10001080D02*
X7257143Y-8901080D01*
X8147619Y-9424890D02*
X8514286Y-9424890D01*
X8671429Y-10001080D02*
X8147619Y-10001080D01*
X8147619Y-10001080D02*
X8147619Y-8901080D01*
X8147619Y-8901080D02*
X8671429Y-8901080D01*
X9719048Y-8953461D02*
X9614286Y-8901080D01*
X9614286Y-8901080D02*
X9457143Y-8901080D01*
X9457143Y-8901080D02*
X9300000Y-8953461D01*
X9300000Y-8953461D02*
X9195238Y-9058223D01*
X9195238Y-9058223D02*
X9142857Y-9162985D01*
X9142857Y-9162985D02*
X9090476Y-9372509D01*
X9090476Y-9372509D02*
X9090476Y-9529652D01*
X9090476Y-9529652D02*
X9142857Y-9739176D01*
X9142857Y-9739176D02*
X9195238Y-9843938D01*
X9195238Y-9843938D02*
X9300000Y-9948700D01*
X9300000Y-9948700D02*
X9457143Y-10001080D01*
X9457143Y-10001080D02*
X9561905Y-10001080D01*
X9561905Y-10001080D02*
X9719048Y-9948700D01*
X9719048Y-9948700D02*
X9771429Y-9896319D01*
X9771429Y-9896319D02*
X9771429Y-9529652D01*
X9771429Y-9529652D02*
X9561905Y-9529652D01*
X11552381Y-9267747D02*
X11552381Y-10001080D01*
X11290476Y-8848700D02*
X11028571Y-9634414D01*
X11028571Y-9634414D02*
X11709524Y-9634414D01*
X13280952Y-10367747D02*
X13019047Y-10367747D01*
X13019047Y-10367747D02*
X13019047Y-8796319D01*
X13019047Y-8796319D02*
X13280952Y-8796319D01*
X14223809Y-10001080D02*
X13699999Y-10001080D01*
X13699999Y-10001080D02*
X13699999Y-8901080D01*
X14957142Y-9424890D02*
X14590475Y-9424890D01*
X14590475Y-10001080D02*
X14590475Y-8901080D01*
X14590475Y-8901080D02*
X15114285Y-8901080D01*
X15428570Y-10367747D02*
X15690475Y-10367747D01*
X15690475Y-10367747D02*
X15690475Y-8796319D01*
X15690475Y-8796319D02*
X15428570Y-8796319D01*
X7623810Y-29001080D02*
X7100000Y-29001080D01*
X7100000Y-29001080D02*
X7100000Y-27901080D01*
X7990476Y-28424890D02*
X8357143Y-28424890D01*
X8514286Y-29001080D02*
X7990476Y-29001080D01*
X7990476Y-29001080D02*
X7990476Y-27901080D01*
X7990476Y-27901080D02*
X8514286Y-27901080D01*
X9561905Y-27953461D02*
X9457143Y-27901080D01*
X9457143Y-27901080D02*
X9300000Y-27901080D01*
X9300000Y-27901080D02*
X9142857Y-27953461D01*
X9142857Y-27953461D02*
X9038095Y-28058223D01*
X9038095Y-28058223D02*
X8985714Y-28162985D01*
X8985714Y-28162985D02*
X8933333Y-28372509D01*
X8933333Y-28372509D02*
X8933333Y-28529652D01*
X8933333Y-28529652D02*
X8985714Y-28739176D01*
X8985714Y-28739176D02*
X9038095Y-28843938D01*
X9038095Y-28843938D02*
X9142857Y-28948700D01*
X9142857Y-28948700D02*
X9300000Y-29001080D01*
X9300000Y-29001080D02*
X9404762Y-29001080D01*
X9404762Y-29001080D02*
X9561905Y-28948700D01*
X9561905Y-28948700D02*
X9614286Y-28896319D01*
X9614286Y-28896319D02*
X9614286Y-28529652D01*
X9614286Y-28529652D02*
X9404762Y-28529652D01*
X11447619Y-27901080D02*
X10923809Y-27901080D01*
X10923809Y-27901080D02*
X10871428Y-28424890D01*
X10871428Y-28424890D02*
X10923809Y-28372509D01*
X10923809Y-28372509D02*
X11028571Y-28320128D01*
X11028571Y-28320128D02*
X11290476Y-28320128D01*
X11290476Y-28320128D02*
X11395238Y-28372509D01*
X11395238Y-28372509D02*
X11447619Y-28424890D01*
X11447619Y-28424890D02*
X11500000Y-28529652D01*
X11500000Y-28529652D02*
X11500000Y-28791557D01*
X11500000Y-28791557D02*
X11447619Y-28896319D01*
X11447619Y-28896319D02*
X11395238Y-28948700D01*
X11395238Y-28948700D02*
X11290476Y-29001080D01*
X11290476Y-29001080D02*
X11028571Y-29001080D01*
X11028571Y-29001080D02*
X10923809Y-28948700D01*
X10923809Y-28948700D02*
X10871428Y-28896319D01*
X13123809Y-29367747D02*
X12861904Y-29367747D01*
X12861904Y-29367747D02*
X12861904Y-27796319D01*
X12861904Y-27796319D02*
X13123809Y-27796319D01*
X14066666Y-29001080D02*
X13542856Y-29001080D01*
X13542856Y-29001080D02*
X13542856Y-27901080D01*
X14433332Y-29001080D02*
X14433332Y-27901080D01*
X14433332Y-27901080D02*
X14799999Y-28686795D01*
X14799999Y-28686795D02*
X15166666Y-27901080D01*
X15166666Y-27901080D02*
X15166666Y-29001080D01*
X15585713Y-29367747D02*
X15847618Y-29367747D01*
X15847618Y-29367747D02*
X15847618Y-27796319D01*
X15847618Y-27796319D02*
X15585713Y-27796319D01*
X7702382Y-48001080D02*
X7178572Y-48001080D01*
X7178572Y-48001080D02*
X7178572Y-46901080D01*
X8069048Y-47424890D02*
X8435715Y-47424890D01*
X8592858Y-48001080D02*
X8069048Y-48001080D01*
X8069048Y-48001080D02*
X8069048Y-46901080D01*
X8069048Y-46901080D02*
X8592858Y-46901080D01*
X9640477Y-46953461D02*
X9535715Y-46901080D01*
X9535715Y-46901080D02*
X9378572Y-46901080D01*
X9378572Y-46901080D02*
X9221429Y-46953461D01*
X9221429Y-46953461D02*
X9116667Y-47058223D01*
X9116667Y-47058223D02*
X9064286Y-47162985D01*
X9064286Y-47162985D02*
X9011905Y-47372509D01*
X9011905Y-47372509D02*
X9011905Y-47529652D01*
X9011905Y-47529652D02*
X9064286Y-47739176D01*
X9064286Y-47739176D02*
X9116667Y-47843938D01*
X9116667Y-47843938D02*
X9221429Y-47948700D01*
X9221429Y-47948700D02*
X9378572Y-48001080D01*
X9378572Y-48001080D02*
X9483334Y-48001080D01*
X9483334Y-48001080D02*
X9640477Y-47948700D01*
X9640477Y-47948700D02*
X9692858Y-47896319D01*
X9692858Y-47896319D02*
X9692858Y-47529652D01*
X9692858Y-47529652D02*
X9483334Y-47529652D01*
X11473810Y-46901080D02*
X11264286Y-46901080D01*
X11264286Y-46901080D02*
X11159524Y-46953461D01*
X11159524Y-46953461D02*
X11107143Y-47005842D01*
X11107143Y-47005842D02*
X11002381Y-47162985D01*
X11002381Y-47162985D02*
X10950000Y-47372509D01*
X10950000Y-47372509D02*
X10950000Y-47791557D01*
X10950000Y-47791557D02*
X11002381Y-47896319D01*
X11002381Y-47896319D02*
X11054762Y-47948700D01*
X11054762Y-47948700D02*
X11159524Y-48001080D01*
X11159524Y-48001080D02*
X11369048Y-48001080D01*
X11369048Y-48001080D02*
X11473810Y-47948700D01*
X11473810Y-47948700D02*
X11526191Y-47896319D01*
X11526191Y-47896319D02*
X11578572Y-47791557D01*
X11578572Y-47791557D02*
X11578572Y-47529652D01*
X11578572Y-47529652D02*
X11526191Y-47424890D01*
X11526191Y-47424890D02*
X11473810Y-47372509D01*
X11473810Y-47372509D02*
X11369048Y-47320128D01*
X11369048Y-47320128D02*
X11159524Y-47320128D01*
X11159524Y-47320128D02*
X11054762Y-47372509D01*
X11054762Y-47372509D02*
X11002381Y-47424890D01*
X11002381Y-47424890D02*
X10950000Y-47529652D01*
X13202381Y-48367747D02*
X12940476Y-48367747D01*
X12940476Y-48367747D02*
X12940476Y-46796319D01*
X12940476Y-46796319D02*
X13202381Y-46796319D01*
X14145238Y-48001080D02*
X13621428Y-48001080D01*
X13621428Y-48001080D02*
X13621428Y-46901080D01*
X15140476Y-48001080D02*
X14773809Y-47477271D01*
X14511904Y-48001080D02*
X14511904Y-46901080D01*
X14511904Y-46901080D02*
X14930952Y-46901080D01*
X14930952Y-46901080D02*
X15035714Y-46953461D01*
X15035714Y-46953461D02*
X15088095Y-47005842D01*
X15088095Y-47005842D02*
X15140476Y-47110604D01*
X15140476Y-47110604D02*
X15140476Y-47267747D01*
X15140476Y-47267747D02*
X15088095Y-47372509D01*
X15088095Y-47372509D02*
X15035714Y-47424890D01*
X15035714Y-47424890D02*
X14930952Y-47477271D01*
X14930952Y-47477271D02*
X14511904Y-47477271D01*
X15507142Y-48367747D02*
X15769047Y-48367747D01*
X15769047Y-48367747D02*
X15769047Y-46796319D01*
X15769047Y-46796319D02*
X15507142Y-46796319D01*
X22890477Y-32424890D02*
X23047620Y-32477271D01*
X23047620Y-32477271D02*
X23100001Y-32529652D01*
X23100001Y-32529652D02*
X23152382Y-32634414D01*
X23152382Y-32634414D02*
X23152382Y-32791557D01*
X23152382Y-32791557D02*
X23100001Y-32896319D01*
X23100001Y-32896319D02*
X23047620Y-32948700D01*
X23047620Y-32948700D02*
X22942858Y-33001080D01*
X22942858Y-33001080D02*
X22523810Y-33001080D01*
X22523810Y-33001080D02*
X22523810Y-31901080D01*
X22523810Y-31901080D02*
X22890477Y-31901080D01*
X22890477Y-31901080D02*
X22995239Y-31953461D01*
X22995239Y-31953461D02*
X23047620Y-32005842D01*
X23047620Y-32005842D02*
X23100001Y-32110604D01*
X23100001Y-32110604D02*
X23100001Y-32215366D01*
X23100001Y-32215366D02*
X23047620Y-32320128D01*
X23047620Y-32320128D02*
X22995239Y-32372509D01*
X22995239Y-32372509D02*
X22890477Y-32424890D01*
X22890477Y-32424890D02*
X22523810Y-32424890D01*
X23623810Y-31901080D02*
X23623810Y-32791557D01*
X23623810Y-32791557D02*
X23676191Y-32896319D01*
X23676191Y-32896319D02*
X23728572Y-32948700D01*
X23728572Y-32948700D02*
X23833334Y-33001080D01*
X23833334Y-33001080D02*
X24042858Y-33001080D01*
X24042858Y-33001080D02*
X24147620Y-32948700D01*
X24147620Y-32948700D02*
X24200001Y-32896319D01*
X24200001Y-32896319D02*
X24252382Y-32791557D01*
X24252382Y-32791557D02*
X24252382Y-31901080D01*
X25404763Y-32896319D02*
X25352382Y-32948700D01*
X25352382Y-32948700D02*
X25195239Y-33001080D01*
X25195239Y-33001080D02*
X25090477Y-33001080D01*
X25090477Y-33001080D02*
X24933334Y-32948700D01*
X24933334Y-32948700D02*
X24828572Y-32843938D01*
X24828572Y-32843938D02*
X24776191Y-32739176D01*
X24776191Y-32739176D02*
X24723810Y-32529652D01*
X24723810Y-32529652D02*
X24723810Y-32372509D01*
X24723810Y-32372509D02*
X24776191Y-32162985D01*
X24776191Y-32162985D02*
X24828572Y-32058223D01*
X24828572Y-32058223D02*
X24933334Y-31953461D01*
X24933334Y-31953461D02*
X25090477Y-31901080D01*
X25090477Y-31901080D02*
X25195239Y-31901080D01*
X25195239Y-31901080D02*
X25352382Y-31953461D01*
X25352382Y-31953461D02*
X25404763Y-32005842D01*
X25876191Y-33001080D02*
X25876191Y-31901080D01*
X26504763Y-33001080D02*
X26033334Y-32372509D01*
X26504763Y-31901080D02*
X25876191Y-32529652D01*
X28338096Y-33001080D02*
X27814286Y-33001080D01*
X27814286Y-33001080D02*
X27814286Y-31901080D01*
X29857143Y-33420128D02*
X29804762Y-33367747D01*
X29804762Y-33367747D02*
X29700000Y-33210604D01*
X29700000Y-33210604D02*
X29647619Y-33105842D01*
X29647619Y-33105842D02*
X29595238Y-32948700D01*
X29595238Y-32948700D02*
X29542857Y-32686795D01*
X29542857Y-32686795D02*
X29542857Y-32477271D01*
X29542857Y-32477271D02*
X29595238Y-32215366D01*
X29595238Y-32215366D02*
X29647619Y-32058223D01*
X29647619Y-32058223D02*
X29700000Y-31953461D01*
X29700000Y-31953461D02*
X29804762Y-31796319D01*
X29804762Y-31796319D02*
X29857143Y-31743938D01*
X30800000Y-31901080D02*
X30276190Y-31901080D01*
X30276190Y-31901080D02*
X30223809Y-32424890D01*
X30223809Y-32424890D02*
X30276190Y-32372509D01*
X30276190Y-32372509D02*
X30380952Y-32320128D01*
X30380952Y-32320128D02*
X30642857Y-32320128D01*
X30642857Y-32320128D02*
X30747619Y-32372509D01*
X30747619Y-32372509D02*
X30800000Y-32424890D01*
X30800000Y-32424890D02*
X30852381Y-32529652D01*
X30852381Y-32529652D02*
X30852381Y-32791557D01*
X30852381Y-32791557D02*
X30800000Y-32896319D01*
X30800000Y-32896319D02*
X30747619Y-32948700D01*
X30747619Y-32948700D02*
X30642857Y-33001080D01*
X30642857Y-33001080D02*
X30380952Y-33001080D01*
X30380952Y-33001080D02*
X30276190Y-32948700D01*
X30276190Y-32948700D02*
X30223809Y-32896319D01*
X31271428Y-32686795D02*
X31795238Y-32686795D01*
X31166666Y-33001080D02*
X31533333Y-31901080D01*
X31533333Y-31901080D02*
X31900000Y-33001080D01*
X32161904Y-33420128D02*
X32214285Y-33367747D01*
X32214285Y-33367747D02*
X32319047Y-33210604D01*
X32319047Y-33210604D02*
X32371428Y-33105842D01*
X32371428Y-33105842D02*
X32423809Y-32948700D01*
X32423809Y-32948700D02*
X32476190Y-32686795D01*
X32476190Y-32686795D02*
X32476190Y-32477271D01*
X32476190Y-32477271D02*
X32423809Y-32215366D01*
X32423809Y-32215366D02*
X32371428Y-32058223D01*
X32371428Y-32058223D02*
X32319047Y-31953461D01*
X32319047Y-31953461D02*
X32214285Y-31796319D01*
X32214285Y-31796319D02*
X32161904Y-31743938D01*
X50730952Y-37001080D02*
X50730952Y-35901080D01*
X50730952Y-35901080D02*
X51097619Y-36686795D01*
X51097619Y-36686795D02*
X51464286Y-35901080D01*
X51464286Y-35901080D02*
X51464286Y-37001080D01*
X51988095Y-37001080D02*
X51988095Y-35901080D01*
X51988095Y-35901080D02*
X52407143Y-35901080D01*
X52407143Y-35901080D02*
X52511905Y-35953461D01*
X52511905Y-35953461D02*
X52564286Y-36005842D01*
X52564286Y-36005842D02*
X52616667Y-36110604D01*
X52616667Y-36110604D02*
X52616667Y-36267747D01*
X52616667Y-36267747D02*
X52564286Y-36372509D01*
X52564286Y-36372509D02*
X52511905Y-36424890D01*
X52511905Y-36424890D02*
X52407143Y-36477271D01*
X52407143Y-36477271D02*
X51988095Y-36477271D01*
X53088095Y-35901080D02*
X53088095Y-36791557D01*
X53088095Y-36791557D02*
X53140476Y-36896319D01*
X53140476Y-36896319D02*
X53192857Y-36948700D01*
X53192857Y-36948700D02*
X53297619Y-37001080D01*
X53297619Y-37001080D02*
X53507143Y-37001080D01*
X53507143Y-37001080D02*
X53611905Y-36948700D01*
X53611905Y-36948700D02*
X53664286Y-36896319D01*
X53664286Y-36896319D02*
X53716667Y-36791557D01*
X53716667Y-36791557D02*
X53716667Y-35901080D01*
X54240476Y-36582033D02*
X55078572Y-36582033D01*
X56073810Y-35901080D02*
X55864286Y-35901080D01*
X55864286Y-35901080D02*
X55759524Y-35953461D01*
X55759524Y-35953461D02*
X55707143Y-36005842D01*
X55707143Y-36005842D02*
X55602381Y-36162985D01*
X55602381Y-36162985D02*
X55550000Y-36372509D01*
X55550000Y-36372509D02*
X55550000Y-36791557D01*
X55550000Y-36791557D02*
X55602381Y-36896319D01*
X55602381Y-36896319D02*
X55654762Y-36948700D01*
X55654762Y-36948700D02*
X55759524Y-37001080D01*
X55759524Y-37001080D02*
X55969048Y-37001080D01*
X55969048Y-37001080D02*
X56073810Y-36948700D01*
X56073810Y-36948700D02*
X56126191Y-36896319D01*
X56126191Y-36896319D02*
X56178572Y-36791557D01*
X56178572Y-36791557D02*
X56178572Y-36529652D01*
X56178572Y-36529652D02*
X56126191Y-36424890D01*
X56126191Y-36424890D02*
X56073810Y-36372509D01*
X56073810Y-36372509D02*
X55969048Y-36320128D01*
X55969048Y-36320128D02*
X55759524Y-36320128D01*
X55759524Y-36320128D02*
X55654762Y-36372509D01*
X55654762Y-36372509D02*
X55602381Y-36424890D01*
X55602381Y-36424890D02*
X55550000Y-36529652D01*
X56859524Y-35901080D02*
X56964286Y-35901080D01*
X56964286Y-35901080D02*
X57069048Y-35953461D01*
X57069048Y-35953461D02*
X57121429Y-36005842D01*
X57121429Y-36005842D02*
X57173810Y-36110604D01*
X57173810Y-36110604D02*
X57226191Y-36320128D01*
X57226191Y-36320128D02*
X57226191Y-36582033D01*
X57226191Y-36582033D02*
X57173810Y-36791557D01*
X57173810Y-36791557D02*
X57121429Y-36896319D01*
X57121429Y-36896319D02*
X57069048Y-36948700D01*
X57069048Y-36948700D02*
X56964286Y-37001080D01*
X56964286Y-37001080D02*
X56859524Y-37001080D01*
X56859524Y-37001080D02*
X56754762Y-36948700D01*
X56754762Y-36948700D02*
X56702381Y-36896319D01*
X56702381Y-36896319D02*
X56650000Y-36791557D01*
X56650000Y-36791557D02*
X56597619Y-36582033D01*
X56597619Y-36582033D02*
X56597619Y-36320128D01*
X56597619Y-36320128D02*
X56650000Y-36110604D01*
X56650000Y-36110604D02*
X56702381Y-36005842D01*
X56702381Y-36005842D02*
X56754762Y-35953461D01*
X56754762Y-35953461D02*
X56859524Y-35901080D01*
X58221429Y-35901080D02*
X57697619Y-35901080D01*
X57697619Y-35901080D02*
X57645238Y-36424890D01*
X57645238Y-36424890D02*
X57697619Y-36372509D01*
X57697619Y-36372509D02*
X57802381Y-36320128D01*
X57802381Y-36320128D02*
X58064286Y-36320128D01*
X58064286Y-36320128D02*
X58169048Y-36372509D01*
X58169048Y-36372509D02*
X58221429Y-36424890D01*
X58221429Y-36424890D02*
X58273810Y-36529652D01*
X58273810Y-36529652D02*
X58273810Y-36791557D01*
X58273810Y-36791557D02*
X58221429Y-36896319D01*
X58221429Y-36896319D02*
X58169048Y-36948700D01*
X58169048Y-36948700D02*
X58064286Y-37001080D01*
X58064286Y-37001080D02*
X57802381Y-37001080D01*
X57802381Y-37001080D02*
X57697619Y-36948700D01*
X57697619Y-36948700D02*
X57645238Y-36896319D01*
X58954762Y-35901080D02*
X59059524Y-35901080D01*
X59059524Y-35901080D02*
X59164286Y-35953461D01*
X59164286Y-35953461D02*
X59216667Y-36005842D01*
X59216667Y-36005842D02*
X59269048Y-36110604D01*
X59269048Y-36110604D02*
X59321429Y-36320128D01*
X59321429Y-36320128D02*
X59321429Y-36582033D01*
X59321429Y-36582033D02*
X59269048Y-36791557D01*
X59269048Y-36791557D02*
X59216667Y-36896319D01*
X59216667Y-36896319D02*
X59164286Y-36948700D01*
X59164286Y-36948700D02*
X59059524Y-37001080D01*
X59059524Y-37001080D02*
X58954762Y-37001080D01*
X58954762Y-37001080D02*
X58850000Y-36948700D01*
X58850000Y-36948700D02*
X58797619Y-36896319D01*
X58797619Y-36896319D02*
X58745238Y-36791557D01*
X58745238Y-36791557D02*
X58692857Y-36582033D01*
X58692857Y-36582033D02*
X58692857Y-36320128D01*
X58692857Y-36320128D02*
X58745238Y-36110604D01*
X58745238Y-36110604D02*
X58797619Y-36005842D01*
X58797619Y-36005842D02*
X58850000Y-35953461D01*
X58850000Y-35953461D02*
X58954762Y-35901080D01*
X67788095Y-85005842D02*
X67840476Y-84953461D01*
X67840476Y-84953461D02*
X67945238Y-84901080D01*
X67945238Y-84901080D02*
X68207143Y-84901080D01*
X68207143Y-84901080D02*
X68311905Y-84953461D01*
X68311905Y-84953461D02*
X68364286Y-85005842D01*
X68364286Y-85005842D02*
X68416667Y-85110604D01*
X68416667Y-85110604D02*
X68416667Y-85215366D01*
X68416667Y-85215366D02*
X68364286Y-85372509D01*
X68364286Y-85372509D02*
X67735714Y-86001080D01*
X67735714Y-86001080D02*
X68416667Y-86001080D01*
X68835714Y-85948700D02*
X68992857Y-86001080D01*
X68992857Y-86001080D02*
X69254762Y-86001080D01*
X69254762Y-86001080D02*
X69359524Y-85948700D01*
X69359524Y-85948700D02*
X69411905Y-85896319D01*
X69411905Y-85896319D02*
X69464286Y-85791557D01*
X69464286Y-85791557D02*
X69464286Y-85686795D01*
X69464286Y-85686795D02*
X69411905Y-85582033D01*
X69411905Y-85582033D02*
X69359524Y-85529652D01*
X69359524Y-85529652D02*
X69254762Y-85477271D01*
X69254762Y-85477271D02*
X69045238Y-85424890D01*
X69045238Y-85424890D02*
X68940476Y-85372509D01*
X68940476Y-85372509D02*
X68888095Y-85320128D01*
X68888095Y-85320128D02*
X68835714Y-85215366D01*
X68835714Y-85215366D02*
X68835714Y-85110604D01*
X68835714Y-85110604D02*
X68888095Y-85005842D01*
X68888095Y-85005842D02*
X68940476Y-84953461D01*
X68940476Y-84953461D02*
X69045238Y-84901080D01*
X69045238Y-84901080D02*
X69307143Y-84901080D01*
X69307143Y-84901080D02*
X69464286Y-84953461D01*
X71297619Y-86001080D02*
X70773809Y-86001080D01*
X70773809Y-86001080D02*
X70773809Y-84901080D01*
X71664285Y-86001080D02*
X71664285Y-85267747D01*
X71664285Y-84901080D02*
X71611904Y-84953461D01*
X71611904Y-84953461D02*
X71664285Y-85005842D01*
X71664285Y-85005842D02*
X71716666Y-84953461D01*
X71716666Y-84953461D02*
X71664285Y-84901080D01*
X71664285Y-84901080D02*
X71664285Y-85005842D01*
X72188095Y-86001080D02*
X72188095Y-84901080D01*
X72188095Y-84901080D02*
X72607143Y-84901080D01*
X72607143Y-84901080D02*
X72711905Y-84953461D01*
X72711905Y-84953461D02*
X72764286Y-85005842D01*
X72764286Y-85005842D02*
X72816667Y-85110604D01*
X72816667Y-85110604D02*
X72816667Y-85267747D01*
X72816667Y-85267747D02*
X72764286Y-85372509D01*
X72764286Y-85372509D02*
X72711905Y-85424890D01*
X72711905Y-85424890D02*
X72607143Y-85477271D01*
X72607143Y-85477271D02*
X72188095Y-85477271D01*
X73445238Y-86001080D02*
X73340476Y-85948700D01*
X73340476Y-85948700D02*
X73288095Y-85896319D01*
X73288095Y-85896319D02*
X73235714Y-85791557D01*
X73235714Y-85791557D02*
X73235714Y-85477271D01*
X73235714Y-85477271D02*
X73288095Y-85372509D01*
X73288095Y-85372509D02*
X73340476Y-85320128D01*
X73340476Y-85320128D02*
X73445238Y-85267747D01*
X73445238Y-85267747D02*
X73602381Y-85267747D01*
X73602381Y-85267747D02*
X73707143Y-85320128D01*
X73707143Y-85320128D02*
X73759524Y-85372509D01*
X73759524Y-85372509D02*
X73811905Y-85477271D01*
X73811905Y-85477271D02*
X73811905Y-85791557D01*
X73811905Y-85791557D02*
X73759524Y-85896319D01*
X73759524Y-85896319D02*
X73707143Y-85948700D01*
X73707143Y-85948700D02*
X73602381Y-86001080D01*
X73602381Y-86001080D02*
X73445238Y-86001080D01*
X75016666Y-84901080D02*
X75750000Y-84901080D01*
X75750000Y-84901080D02*
X75278571Y-86001080D01*
X76169047Y-85896319D02*
X76221428Y-85948700D01*
X76221428Y-85948700D02*
X76169047Y-86001080D01*
X76169047Y-86001080D02*
X76116666Y-85948700D01*
X76116666Y-85948700D02*
X76169047Y-85896319D01*
X76169047Y-85896319D02*
X76169047Y-86001080D01*
X77164286Y-85267747D02*
X77164286Y-86001080D01*
X76902381Y-84848700D02*
X76640476Y-85634414D01*
X76640476Y-85634414D02*
X77321429Y-85634414D01*
X77583333Y-84901080D02*
X77950000Y-86001080D01*
X77950000Y-86001080D02*
X78316667Y-84901080D01*
X77785715Y-32424890D02*
X77942858Y-32477271D01*
X77942858Y-32477271D02*
X77995239Y-32529652D01*
X77995239Y-32529652D02*
X78047620Y-32634414D01*
X78047620Y-32634414D02*
X78047620Y-32791557D01*
X78047620Y-32791557D02*
X77995239Y-32896319D01*
X77995239Y-32896319D02*
X77942858Y-32948700D01*
X77942858Y-32948700D02*
X77838096Y-33001080D01*
X77838096Y-33001080D02*
X77419048Y-33001080D01*
X77419048Y-33001080D02*
X77419048Y-31901080D01*
X77419048Y-31901080D02*
X77785715Y-31901080D01*
X77785715Y-31901080D02*
X77890477Y-31953461D01*
X77890477Y-31953461D02*
X77942858Y-32005842D01*
X77942858Y-32005842D02*
X77995239Y-32110604D01*
X77995239Y-32110604D02*
X77995239Y-32215366D01*
X77995239Y-32215366D02*
X77942858Y-32320128D01*
X77942858Y-32320128D02*
X77890477Y-32372509D01*
X77890477Y-32372509D02*
X77785715Y-32424890D01*
X77785715Y-32424890D02*
X77419048Y-32424890D01*
X78519048Y-31901080D02*
X78519048Y-32791557D01*
X78519048Y-32791557D02*
X78571429Y-32896319D01*
X78571429Y-32896319D02*
X78623810Y-32948700D01*
X78623810Y-32948700D02*
X78728572Y-33001080D01*
X78728572Y-33001080D02*
X78938096Y-33001080D01*
X78938096Y-33001080D02*
X79042858Y-32948700D01*
X79042858Y-32948700D02*
X79095239Y-32896319D01*
X79095239Y-32896319D02*
X79147620Y-32791557D01*
X79147620Y-32791557D02*
X79147620Y-31901080D01*
X80300001Y-32896319D02*
X80247620Y-32948700D01*
X80247620Y-32948700D02*
X80090477Y-33001080D01*
X80090477Y-33001080D02*
X79985715Y-33001080D01*
X79985715Y-33001080D02*
X79828572Y-32948700D01*
X79828572Y-32948700D02*
X79723810Y-32843938D01*
X79723810Y-32843938D02*
X79671429Y-32739176D01*
X79671429Y-32739176D02*
X79619048Y-32529652D01*
X79619048Y-32529652D02*
X79619048Y-32372509D01*
X79619048Y-32372509D02*
X79671429Y-32162985D01*
X79671429Y-32162985D02*
X79723810Y-32058223D01*
X79723810Y-32058223D02*
X79828572Y-31953461D01*
X79828572Y-31953461D02*
X79985715Y-31901080D01*
X79985715Y-31901080D02*
X80090477Y-31901080D01*
X80090477Y-31901080D02*
X80247620Y-31953461D01*
X80247620Y-31953461D02*
X80300001Y-32005842D01*
X80771429Y-33001080D02*
X80771429Y-31901080D01*
X81400001Y-33001080D02*
X80928572Y-32372509D01*
X81400001Y-31901080D02*
X80771429Y-32529652D01*
X83338096Y-33001080D02*
X82971429Y-32477271D01*
X82709524Y-33001080D02*
X82709524Y-31901080D01*
X82709524Y-31901080D02*
X83128572Y-31901080D01*
X83128572Y-31901080D02*
X83233334Y-31953461D01*
X83233334Y-31953461D02*
X83285715Y-32005842D01*
X83285715Y-32005842D02*
X83338096Y-32110604D01*
X83338096Y-32110604D02*
X83338096Y-32267747D01*
X83338096Y-32267747D02*
X83285715Y-32372509D01*
X83285715Y-32372509D02*
X83233334Y-32424890D01*
X83233334Y-32424890D02*
X83128572Y-32477271D01*
X83128572Y-32477271D02*
X82709524Y-32477271D01*
X84961905Y-33420128D02*
X84909524Y-33367747D01*
X84909524Y-33367747D02*
X84804762Y-33210604D01*
X84804762Y-33210604D02*
X84752381Y-33105842D01*
X84752381Y-33105842D02*
X84700000Y-32948700D01*
X84700000Y-32948700D02*
X84647619Y-32686795D01*
X84647619Y-32686795D02*
X84647619Y-32477271D01*
X84647619Y-32477271D02*
X84700000Y-32215366D01*
X84700000Y-32215366D02*
X84752381Y-32058223D01*
X84752381Y-32058223D02*
X84804762Y-31953461D01*
X84804762Y-31953461D02*
X84909524Y-31796319D01*
X84909524Y-31796319D02*
X84961905Y-31743938D01*
X85904762Y-31901080D02*
X85380952Y-31901080D01*
X85380952Y-31901080D02*
X85328571Y-32424890D01*
X85328571Y-32424890D02*
X85380952Y-32372509D01*
X85380952Y-32372509D02*
X85485714Y-32320128D01*
X85485714Y-32320128D02*
X85747619Y-32320128D01*
X85747619Y-32320128D02*
X85852381Y-32372509D01*
X85852381Y-32372509D02*
X85904762Y-32424890D01*
X85904762Y-32424890D02*
X85957143Y-32529652D01*
X85957143Y-32529652D02*
X85957143Y-32791557D01*
X85957143Y-32791557D02*
X85904762Y-32896319D01*
X85904762Y-32896319D02*
X85852381Y-32948700D01*
X85852381Y-32948700D02*
X85747619Y-33001080D01*
X85747619Y-33001080D02*
X85485714Y-33001080D01*
X85485714Y-33001080D02*
X85380952Y-32948700D01*
X85380952Y-32948700D02*
X85328571Y-32896319D01*
X86376190Y-32686795D02*
X86900000Y-32686795D01*
X86271428Y-33001080D02*
X86638095Y-31901080D01*
X86638095Y-31901080D02*
X87004762Y-33001080D01*
X87266666Y-33420128D02*
X87319047Y-33367747D01*
X87319047Y-33367747D02*
X87423809Y-33210604D01*
X87423809Y-33210604D02*
X87476190Y-33105842D01*
X87476190Y-33105842D02*
X87528571Y-32948700D01*
X87528571Y-32948700D02*
X87580952Y-32686795D01*
X87580952Y-32686795D02*
X87580952Y-32477271D01*
X87580952Y-32477271D02*
X87528571Y-32215366D01*
X87528571Y-32215366D02*
X87476190Y-32058223D01*
X87476190Y-32058223D02*
X87423809Y-31953461D01*
X87423809Y-31953461D02*
X87319047Y-31796319D01*
X87319047Y-31796319D02*
X87266666Y-31743938D01*
X94676191Y-10001080D02*
X94152381Y-10001080D01*
X94152381Y-10001080D02*
X94152381Y-8901080D01*
X95042857Y-9424890D02*
X95409524Y-9424890D01*
X95566667Y-10001080D02*
X95042857Y-10001080D01*
X95042857Y-10001080D02*
X95042857Y-8901080D01*
X95042857Y-8901080D02*
X95566667Y-8901080D01*
X96614286Y-8953461D02*
X96509524Y-8901080D01*
X96509524Y-8901080D02*
X96352381Y-8901080D01*
X96352381Y-8901080D02*
X96195238Y-8953461D01*
X96195238Y-8953461D02*
X96090476Y-9058223D01*
X96090476Y-9058223D02*
X96038095Y-9162985D01*
X96038095Y-9162985D02*
X95985714Y-9372509D01*
X95985714Y-9372509D02*
X95985714Y-9529652D01*
X95985714Y-9529652D02*
X96038095Y-9739176D01*
X96038095Y-9739176D02*
X96090476Y-9843938D01*
X96090476Y-9843938D02*
X96195238Y-9948700D01*
X96195238Y-9948700D02*
X96352381Y-10001080D01*
X96352381Y-10001080D02*
X96457143Y-10001080D01*
X96457143Y-10001080D02*
X96614286Y-9948700D01*
X96614286Y-9948700D02*
X96666667Y-9896319D01*
X96666667Y-9896319D02*
X96666667Y-9529652D01*
X96666667Y-9529652D02*
X96457143Y-9529652D01*
X98552381Y-10001080D02*
X97923809Y-10001080D01*
X98238095Y-10001080D02*
X98238095Y-8901080D01*
X98238095Y-8901080D02*
X98133333Y-9058223D01*
X98133333Y-9058223D02*
X98028571Y-9162985D01*
X98028571Y-9162985D02*
X97923809Y-9215366D01*
X100176190Y-10367747D02*
X99914285Y-10367747D01*
X99914285Y-10367747D02*
X99914285Y-8796319D01*
X99914285Y-8796319D02*
X100176190Y-8796319D01*
X101223809Y-10001080D02*
X100857142Y-9477271D01*
X100595237Y-10001080D02*
X100595237Y-8901080D01*
X100595237Y-8901080D02*
X101014285Y-8901080D01*
X101014285Y-8901080D02*
X101119047Y-8953461D01*
X101119047Y-8953461D02*
X101171428Y-9005842D01*
X101171428Y-9005842D02*
X101223809Y-9110604D01*
X101223809Y-9110604D02*
X101223809Y-9267747D01*
X101223809Y-9267747D02*
X101171428Y-9372509D01*
X101171428Y-9372509D02*
X101119047Y-9424890D01*
X101119047Y-9424890D02*
X101014285Y-9477271D01*
X101014285Y-9477271D02*
X100595237Y-9477271D01*
X102061904Y-9424890D02*
X101695237Y-9424890D01*
X101695237Y-10001080D02*
X101695237Y-8901080D01*
X101695237Y-8901080D02*
X102219047Y-8901080D01*
X102533332Y-10367747D02*
X102795237Y-10367747D01*
X102795237Y-10367747D02*
X102795237Y-8796319D01*
X102795237Y-8796319D02*
X102533332Y-8796319D01*
X94519048Y-29001080D02*
X93995238Y-29001080D01*
X93995238Y-29001080D02*
X93995238Y-27901080D01*
X94885714Y-28424890D02*
X95252381Y-28424890D01*
X95409524Y-29001080D02*
X94885714Y-29001080D01*
X94885714Y-29001080D02*
X94885714Y-27901080D01*
X94885714Y-27901080D02*
X95409524Y-27901080D01*
X96457143Y-27953461D02*
X96352381Y-27901080D01*
X96352381Y-27901080D02*
X96195238Y-27901080D01*
X96195238Y-27901080D02*
X96038095Y-27953461D01*
X96038095Y-27953461D02*
X95933333Y-28058223D01*
X95933333Y-28058223D02*
X95880952Y-28162985D01*
X95880952Y-28162985D02*
X95828571Y-28372509D01*
X95828571Y-28372509D02*
X95828571Y-28529652D01*
X95828571Y-28529652D02*
X95880952Y-28739176D01*
X95880952Y-28739176D02*
X95933333Y-28843938D01*
X95933333Y-28843938D02*
X96038095Y-28948700D01*
X96038095Y-28948700D02*
X96195238Y-29001080D01*
X96195238Y-29001080D02*
X96300000Y-29001080D01*
X96300000Y-29001080D02*
X96457143Y-28948700D01*
X96457143Y-28948700D02*
X96509524Y-28896319D01*
X96509524Y-28896319D02*
X96509524Y-28529652D01*
X96509524Y-28529652D02*
X96300000Y-28529652D01*
X97766666Y-28005842D02*
X97819047Y-27953461D01*
X97819047Y-27953461D02*
X97923809Y-27901080D01*
X97923809Y-27901080D02*
X98185714Y-27901080D01*
X98185714Y-27901080D02*
X98290476Y-27953461D01*
X98290476Y-27953461D02*
X98342857Y-28005842D01*
X98342857Y-28005842D02*
X98395238Y-28110604D01*
X98395238Y-28110604D02*
X98395238Y-28215366D01*
X98395238Y-28215366D02*
X98342857Y-28372509D01*
X98342857Y-28372509D02*
X97714285Y-29001080D01*
X97714285Y-29001080D02*
X98395238Y-29001080D01*
X100019047Y-29367747D02*
X99757142Y-29367747D01*
X99757142Y-29367747D02*
X99757142Y-27796319D01*
X99757142Y-27796319D02*
X100019047Y-27796319D01*
X101066666Y-29001080D02*
X100699999Y-28477271D01*
X100438094Y-29001080D02*
X100438094Y-27901080D01*
X100438094Y-27901080D02*
X100857142Y-27901080D01*
X100857142Y-27901080D02*
X100961904Y-27953461D01*
X100961904Y-27953461D02*
X101014285Y-28005842D01*
X101014285Y-28005842D02*
X101066666Y-28110604D01*
X101066666Y-28110604D02*
X101066666Y-28267747D01*
X101066666Y-28267747D02*
X101014285Y-28372509D01*
X101014285Y-28372509D02*
X100961904Y-28424890D01*
X100961904Y-28424890D02*
X100857142Y-28477271D01*
X100857142Y-28477271D02*
X100438094Y-28477271D01*
X101538094Y-29001080D02*
X101538094Y-27901080D01*
X101538094Y-27901080D02*
X101904761Y-28686795D01*
X101904761Y-28686795D02*
X102271428Y-27901080D01*
X102271428Y-27901080D02*
X102271428Y-29001080D01*
X102690475Y-29367747D02*
X102952380Y-29367747D01*
X102952380Y-29367747D02*
X102952380Y-27796319D01*
X102952380Y-27796319D02*
X102690475Y-27796319D01*
X94597620Y-48001080D02*
X94073810Y-48001080D01*
X94073810Y-48001080D02*
X94073810Y-46901080D01*
X94964286Y-47424890D02*
X95330953Y-47424890D01*
X95488096Y-48001080D02*
X94964286Y-48001080D01*
X94964286Y-48001080D02*
X94964286Y-46901080D01*
X94964286Y-46901080D02*
X95488096Y-46901080D01*
X96535715Y-46953461D02*
X96430953Y-46901080D01*
X96430953Y-46901080D02*
X96273810Y-46901080D01*
X96273810Y-46901080D02*
X96116667Y-46953461D01*
X96116667Y-46953461D02*
X96011905Y-47058223D01*
X96011905Y-47058223D02*
X95959524Y-47162985D01*
X95959524Y-47162985D02*
X95907143Y-47372509D01*
X95907143Y-47372509D02*
X95907143Y-47529652D01*
X95907143Y-47529652D02*
X95959524Y-47739176D01*
X95959524Y-47739176D02*
X96011905Y-47843938D01*
X96011905Y-47843938D02*
X96116667Y-47948700D01*
X96116667Y-47948700D02*
X96273810Y-48001080D01*
X96273810Y-48001080D02*
X96378572Y-48001080D01*
X96378572Y-48001080D02*
X96535715Y-47948700D01*
X96535715Y-47948700D02*
X96588096Y-47896319D01*
X96588096Y-47896319D02*
X96588096Y-47529652D01*
X96588096Y-47529652D02*
X96378572Y-47529652D01*
X97792857Y-46901080D02*
X98473810Y-46901080D01*
X98473810Y-46901080D02*
X98107143Y-47320128D01*
X98107143Y-47320128D02*
X98264286Y-47320128D01*
X98264286Y-47320128D02*
X98369048Y-47372509D01*
X98369048Y-47372509D02*
X98421429Y-47424890D01*
X98421429Y-47424890D02*
X98473810Y-47529652D01*
X98473810Y-47529652D02*
X98473810Y-47791557D01*
X98473810Y-47791557D02*
X98421429Y-47896319D01*
X98421429Y-47896319D02*
X98369048Y-47948700D01*
X98369048Y-47948700D02*
X98264286Y-48001080D01*
X98264286Y-48001080D02*
X97950000Y-48001080D01*
X97950000Y-48001080D02*
X97845238Y-47948700D01*
X97845238Y-47948700D02*
X97792857Y-47896319D01*
X100097619Y-48367747D02*
X99835714Y-48367747D01*
X99835714Y-48367747D02*
X99835714Y-46796319D01*
X99835714Y-46796319D02*
X100097619Y-46796319D01*
X101145238Y-48001080D02*
X100778571Y-47477271D01*
X100516666Y-48001080D02*
X100516666Y-46901080D01*
X100516666Y-46901080D02*
X100935714Y-46901080D01*
X100935714Y-46901080D02*
X101040476Y-46953461D01*
X101040476Y-46953461D02*
X101092857Y-47005842D01*
X101092857Y-47005842D02*
X101145238Y-47110604D01*
X101145238Y-47110604D02*
X101145238Y-47267747D01*
X101145238Y-47267747D02*
X101092857Y-47372509D01*
X101092857Y-47372509D02*
X101040476Y-47424890D01*
X101040476Y-47424890D02*
X100935714Y-47477271D01*
X100935714Y-47477271D02*
X100516666Y-47477271D01*
X102245238Y-48001080D02*
X101878571Y-47477271D01*
X101616666Y-48001080D02*
X101616666Y-46901080D01*
X101616666Y-46901080D02*
X102035714Y-46901080D01*
X102035714Y-46901080D02*
X102140476Y-46953461D01*
X102140476Y-46953461D02*
X102192857Y-47005842D01*
X102192857Y-47005842D02*
X102245238Y-47110604D01*
X102245238Y-47110604D02*
X102245238Y-47267747D01*
X102245238Y-47267747D02*
X102192857Y-47372509D01*
X102192857Y-47372509D02*
X102140476Y-47424890D01*
X102140476Y-47424890D02*
X102035714Y-47477271D01*
X102035714Y-47477271D02*
X101616666Y-47477271D01*
X102611904Y-48367747D02*
X102873809Y-48367747D01*
X102873809Y-48367747D02*
X102873809Y-46796319D01*
X102873809Y-46796319D02*
X102611904Y-46796319D01*
D11*
X39499998Y-62637266D02*
X39499998Y-61237266D01*
X39499998Y-61903933D02*
X40299998Y-61903933D01*
X40299998Y-62637266D02*
X40299998Y-61237266D01*
X40966665Y-61903933D02*
X41433332Y-61903933D01*
X41633332Y-62637266D02*
X40966665Y-62637266D01*
X40966665Y-62637266D02*
X40966665Y-61237266D01*
X40966665Y-61237266D02*
X41633332Y-61237266D01*
X42099999Y-61237266D02*
X43033332Y-62637266D01*
X43033332Y-61237266D02*
X42099999Y-62637266D01*
X43499998Y-62237266D02*
X44166665Y-62237266D01*
X43366665Y-62637266D02*
X43833332Y-61237266D01*
X43833332Y-61237266D02*
X44299998Y-62637266D01*
X44766665Y-62637266D02*
X44766665Y-61237266D01*
X44766665Y-61237266D02*
X45299998Y-61237266D01*
X45299998Y-61237266D02*
X45433332Y-61303933D01*
X45433332Y-61303933D02*
X45499998Y-61370600D01*
X45499998Y-61370600D02*
X45566665Y-61503933D01*
X45566665Y-61503933D02*
X45566665Y-61703933D01*
X45566665Y-61703933D02*
X45499998Y-61837266D01*
X45499998Y-61837266D02*
X45433332Y-61903933D01*
X45433332Y-61903933D02*
X45299998Y-61970600D01*
X45299998Y-61970600D02*
X44766665Y-61970600D01*
X46433332Y-61237266D02*
X46699998Y-61237266D01*
X46699998Y-61237266D02*
X46833332Y-61303933D01*
X46833332Y-61303933D02*
X46966665Y-61437266D01*
X46966665Y-61437266D02*
X47033332Y-61703933D01*
X47033332Y-61703933D02*
X47033332Y-62170600D01*
X47033332Y-62170600D02*
X46966665Y-62437266D01*
X46966665Y-62437266D02*
X46833332Y-62570600D01*
X46833332Y-62570600D02*
X46699998Y-62637266D01*
X46699998Y-62637266D02*
X46433332Y-62637266D01*
X46433332Y-62637266D02*
X46299998Y-62570600D01*
X46299998Y-62570600D02*
X46166665Y-62437266D01*
X46166665Y-62437266D02*
X46099998Y-62170600D01*
X46099998Y-62170600D02*
X46099998Y-61703933D01*
X46099998Y-61703933D02*
X46166665Y-61437266D01*
X46166665Y-61437266D02*
X46299998Y-61303933D01*
X46299998Y-61303933D02*
X46433332Y-61237266D01*
X47633332Y-62637266D02*
X47633332Y-61237266D01*
X47633332Y-61237266D02*
X47966665Y-61237266D01*
X47966665Y-61237266D02*
X48166665Y-61303933D01*
X48166665Y-61303933D02*
X48299999Y-61437266D01*
X48299999Y-61437266D02*
X48366665Y-61570600D01*
X48366665Y-61570600D02*
X48433332Y-61837266D01*
X48433332Y-61837266D02*
X48433332Y-62037266D01*
X48433332Y-62037266D02*
X48366665Y-62303933D01*
X48366665Y-62303933D02*
X48299999Y-62437266D01*
X48299999Y-62437266D02*
X48166665Y-62570600D01*
X48166665Y-62570600D02*
X47966665Y-62637266D01*
X47966665Y-62637266D02*
X47633332Y-62637266D01*
X50899999Y-62637266D02*
X50433332Y-61970600D01*
X50099999Y-62637266D02*
X50099999Y-61237266D01*
X50099999Y-61237266D02*
X50633332Y-61237266D01*
X50633332Y-61237266D02*
X50766666Y-61303933D01*
X50766666Y-61303933D02*
X50833332Y-61370600D01*
X50833332Y-61370600D02*
X50899999Y-61503933D01*
X50899999Y-61503933D02*
X50899999Y-61703933D01*
X50899999Y-61703933D02*
X50833332Y-61837266D01*
X50833332Y-61837266D02*
X50766666Y-61903933D01*
X50766666Y-61903933D02*
X50633332Y-61970600D01*
X50633332Y-61970600D02*
X50099999Y-61970600D01*
X51766666Y-61237266D02*
X52033332Y-61237266D01*
X52033332Y-61237266D02*
X52166666Y-61303933D01*
X52166666Y-61303933D02*
X52299999Y-61437266D01*
X52299999Y-61437266D02*
X52366666Y-61703933D01*
X52366666Y-61703933D02*
X52366666Y-62170600D01*
X52366666Y-62170600D02*
X52299999Y-62437266D01*
X52299999Y-62437266D02*
X52166666Y-62570600D01*
X52166666Y-62570600D02*
X52033332Y-62637266D01*
X52033332Y-62637266D02*
X51766666Y-62637266D01*
X51766666Y-62637266D02*
X51633332Y-62570600D01*
X51633332Y-62570600D02*
X51499999Y-62437266D01*
X51499999Y-62437266D02*
X51433332Y-62170600D01*
X51433332Y-62170600D02*
X51433332Y-61703933D01*
X51433332Y-61703933D02*
X51499999Y-61437266D01*
X51499999Y-61437266D02*
X51633332Y-61303933D01*
X51633332Y-61303933D02*
X51766666Y-61237266D01*
X53433333Y-61903933D02*
X53633333Y-61970600D01*
X53633333Y-61970600D02*
X53699999Y-62037266D01*
X53699999Y-62037266D02*
X53766666Y-62170600D01*
X53766666Y-62170600D02*
X53766666Y-62370600D01*
X53766666Y-62370600D02*
X53699999Y-62503933D01*
X53699999Y-62503933D02*
X53633333Y-62570600D01*
X53633333Y-62570600D02*
X53499999Y-62637266D01*
X53499999Y-62637266D02*
X52966666Y-62637266D01*
X52966666Y-62637266D02*
X52966666Y-61237266D01*
X52966666Y-61237266D02*
X53433333Y-61237266D01*
X53433333Y-61237266D02*
X53566666Y-61303933D01*
X53566666Y-61303933D02*
X53633333Y-61370600D01*
X53633333Y-61370600D02*
X53699999Y-61503933D01*
X53699999Y-61503933D02*
X53699999Y-61637266D01*
X53699999Y-61637266D02*
X53633333Y-61770600D01*
X53633333Y-61770600D02*
X53566666Y-61837266D01*
X53566666Y-61837266D02*
X53433333Y-61903933D01*
X53433333Y-61903933D02*
X52966666Y-61903933D01*
X54633333Y-61237266D02*
X54899999Y-61237266D01*
X54899999Y-61237266D02*
X55033333Y-61303933D01*
X55033333Y-61303933D02*
X55166666Y-61437266D01*
X55166666Y-61437266D02*
X55233333Y-61703933D01*
X55233333Y-61703933D02*
X55233333Y-62170600D01*
X55233333Y-62170600D02*
X55166666Y-62437266D01*
X55166666Y-62437266D02*
X55033333Y-62570600D01*
X55033333Y-62570600D02*
X54899999Y-62637266D01*
X54899999Y-62637266D02*
X54633333Y-62637266D01*
X54633333Y-62637266D02*
X54499999Y-62570600D01*
X54499999Y-62570600D02*
X54366666Y-62437266D01*
X54366666Y-62437266D02*
X54299999Y-62170600D01*
X54299999Y-62170600D02*
X54299999Y-61703933D01*
X54299999Y-61703933D02*
X54366666Y-61437266D01*
X54366666Y-61437266D02*
X54499999Y-61303933D01*
X54499999Y-61303933D02*
X54633333Y-61237266D01*
X55633333Y-61237266D02*
X56433333Y-61237266D01*
X56033333Y-62637266D02*
X56033333Y-61237266D01*
X58766667Y-62503933D02*
X58700000Y-62570600D01*
X58700000Y-62570600D02*
X58500000Y-62637266D01*
X58500000Y-62637266D02*
X58366667Y-62637266D01*
X58366667Y-62637266D02*
X58166667Y-62570600D01*
X58166667Y-62570600D02*
X58033334Y-62437266D01*
X58033334Y-62437266D02*
X57966667Y-62303933D01*
X57966667Y-62303933D02*
X57900000Y-62037266D01*
X57900000Y-62037266D02*
X57900000Y-61837266D01*
X57900000Y-61837266D02*
X57966667Y-61570600D01*
X57966667Y-61570600D02*
X58033334Y-61437266D01*
X58033334Y-61437266D02*
X58166667Y-61303933D01*
X58166667Y-61303933D02*
X58366667Y-61237266D01*
X58366667Y-61237266D02*
X58500000Y-61237266D01*
X58500000Y-61237266D02*
X58700000Y-61303933D01*
X58700000Y-61303933D02*
X58766667Y-61370600D01*
X59633334Y-61237266D02*
X59900000Y-61237266D01*
X59900000Y-61237266D02*
X60033334Y-61303933D01*
X60033334Y-61303933D02*
X60166667Y-61437266D01*
X60166667Y-61437266D02*
X60233334Y-61703933D01*
X60233334Y-61703933D02*
X60233334Y-62170600D01*
X60233334Y-62170600D02*
X60166667Y-62437266D01*
X60166667Y-62437266D02*
X60033334Y-62570600D01*
X60033334Y-62570600D02*
X59900000Y-62637266D01*
X59900000Y-62637266D02*
X59633334Y-62637266D01*
X59633334Y-62637266D02*
X59500000Y-62570600D01*
X59500000Y-62570600D02*
X59366667Y-62437266D01*
X59366667Y-62437266D02*
X59300000Y-62170600D01*
X59300000Y-62170600D02*
X59300000Y-61703933D01*
X59300000Y-61703933D02*
X59366667Y-61437266D01*
X59366667Y-61437266D02*
X59500000Y-61303933D01*
X59500000Y-61303933D02*
X59633334Y-61237266D01*
X60833334Y-62637266D02*
X60833334Y-61237266D01*
X60833334Y-61237266D02*
X61633334Y-62637266D01*
X61633334Y-62637266D02*
X61633334Y-61237266D01*
X62100001Y-61237266D02*
X62900001Y-61237266D01*
X62500001Y-62637266D02*
X62500001Y-61237266D01*
X64166668Y-62637266D02*
X63700001Y-61970600D01*
X63366668Y-62637266D02*
X63366668Y-61237266D01*
X63366668Y-61237266D02*
X63900001Y-61237266D01*
X63900001Y-61237266D02*
X64033335Y-61303933D01*
X64033335Y-61303933D02*
X64100001Y-61370600D01*
X64100001Y-61370600D02*
X64166668Y-61503933D01*
X64166668Y-61503933D02*
X64166668Y-61703933D01*
X64166668Y-61703933D02*
X64100001Y-61837266D01*
X64100001Y-61837266D02*
X64033335Y-61903933D01*
X64033335Y-61903933D02*
X63900001Y-61970600D01*
X63900001Y-61970600D02*
X63366668Y-61970600D01*
X65033335Y-61237266D02*
X65300001Y-61237266D01*
X65300001Y-61237266D02*
X65433335Y-61303933D01*
X65433335Y-61303933D02*
X65566668Y-61437266D01*
X65566668Y-61437266D02*
X65633335Y-61703933D01*
X65633335Y-61703933D02*
X65633335Y-62170600D01*
X65633335Y-62170600D02*
X65566668Y-62437266D01*
X65566668Y-62437266D02*
X65433335Y-62570600D01*
X65433335Y-62570600D02*
X65300001Y-62637266D01*
X65300001Y-62637266D02*
X65033335Y-62637266D01*
X65033335Y-62637266D02*
X64900001Y-62570600D01*
X64900001Y-62570600D02*
X64766668Y-62437266D01*
X64766668Y-62437266D02*
X64700001Y-62170600D01*
X64700001Y-62170600D02*
X64700001Y-61703933D01*
X64700001Y-61703933D02*
X64766668Y-61437266D01*
X64766668Y-61437266D02*
X64900001Y-61303933D01*
X64900001Y-61303933D02*
X65033335Y-61237266D01*
X66900002Y-62637266D02*
X66233335Y-62637266D01*
X66233335Y-62637266D02*
X66233335Y-61237266D01*
X68033335Y-62637266D02*
X67366668Y-62637266D01*
X67366668Y-62637266D02*
X67366668Y-61237266D01*
X68500001Y-61903933D02*
X68966668Y-61903933D01*
X69166668Y-62637266D02*
X68500001Y-62637266D01*
X68500001Y-62637266D02*
X68500001Y-61237266D01*
X68500001Y-61237266D02*
X69166668Y-61237266D01*
X70566668Y-62637266D02*
X70100001Y-61970600D01*
X69766668Y-62637266D02*
X69766668Y-61237266D01*
X69766668Y-61237266D02*
X70300001Y-61237266D01*
X70300001Y-61237266D02*
X70433335Y-61303933D01*
X70433335Y-61303933D02*
X70500001Y-61370600D01*
X70500001Y-61370600D02*
X70566668Y-61503933D01*
X70566668Y-61503933D02*
X70566668Y-61703933D01*
X70566668Y-61703933D02*
X70500001Y-61837266D01*
X70500001Y-61837266D02*
X70433335Y-61903933D01*
X70433335Y-61903933D02*
X70300001Y-61970600D01*
X70300001Y-61970600D02*
X69766668Y-61970600D01*
D10*
X27262295Y-53509523D02*
X26462295Y-53509523D01*
X26462295Y-53509523D02*
X26462295Y-53319047D01*
X26462295Y-53319047D02*
X26500390Y-53204761D01*
X26500390Y-53204761D02*
X26576580Y-53128571D01*
X26576580Y-53128571D02*
X26652771Y-53090476D01*
X26652771Y-53090476D02*
X26805152Y-53052380D01*
X26805152Y-53052380D02*
X26919438Y-53052380D01*
X26919438Y-53052380D02*
X27071819Y-53090476D01*
X27071819Y-53090476D02*
X27148009Y-53128571D01*
X27148009Y-53128571D02*
X27224200Y-53204761D01*
X27224200Y-53204761D02*
X27262295Y-53319047D01*
X27262295Y-53319047D02*
X27262295Y-53509523D01*
X27338485Y-52900000D02*
X27338485Y-52290476D01*
X27186104Y-51642856D02*
X27224200Y-51680952D01*
X27224200Y-51680952D02*
X27262295Y-51795237D01*
X27262295Y-51795237D02*
X27262295Y-51871428D01*
X27262295Y-51871428D02*
X27224200Y-51985714D01*
X27224200Y-51985714D02*
X27148009Y-52061904D01*
X27148009Y-52061904D02*
X27071819Y-52099999D01*
X27071819Y-52099999D02*
X26919438Y-52138095D01*
X26919438Y-52138095D02*
X26805152Y-52138095D01*
X26805152Y-52138095D02*
X26652771Y-52099999D01*
X26652771Y-52099999D02*
X26576580Y-52061904D01*
X26576580Y-52061904D02*
X26500390Y-51985714D01*
X26500390Y-51985714D02*
X26462295Y-51871428D01*
X26462295Y-51871428D02*
X26462295Y-51795237D01*
X26462295Y-51795237D02*
X26500390Y-51680952D01*
X26500390Y-51680952D02*
X26538485Y-51642856D01*
X27033723Y-51338095D02*
X27033723Y-50957142D01*
X27262295Y-51414285D02*
X26462295Y-51147618D01*
X26462295Y-51147618D02*
X27262295Y-50880952D01*
X26462295Y-50728571D02*
X26462295Y-50271428D01*
X27262295Y-50500000D02*
X26462295Y-50500000D01*
X27186104Y-49547618D02*
X27224200Y-49585714D01*
X27224200Y-49585714D02*
X27262295Y-49699999D01*
X27262295Y-49699999D02*
X27262295Y-49776190D01*
X27262295Y-49776190D02*
X27224200Y-49890476D01*
X27224200Y-49890476D02*
X27148009Y-49966666D01*
X27148009Y-49966666D02*
X27071819Y-50004761D01*
X27071819Y-50004761D02*
X26919438Y-50042857D01*
X26919438Y-50042857D02*
X26805152Y-50042857D01*
X26805152Y-50042857D02*
X26652771Y-50004761D01*
X26652771Y-50004761D02*
X26576580Y-49966666D01*
X26576580Y-49966666D02*
X26500390Y-49890476D01*
X26500390Y-49890476D02*
X26462295Y-49776190D01*
X26462295Y-49776190D02*
X26462295Y-49699999D01*
X26462295Y-49699999D02*
X26500390Y-49585714D01*
X26500390Y-49585714D02*
X26538485Y-49547618D01*
X27262295Y-49204761D02*
X26462295Y-49204761D01*
X26843247Y-49204761D02*
X26843247Y-48747618D01*
X27262295Y-48747618D02*
X26462295Y-48747618D01*
X27338485Y-48557143D02*
X27338485Y-47947619D01*
X27262295Y-47376190D02*
X27262295Y-47757142D01*
X27262295Y-47757142D02*
X26462295Y-47757142D01*
X78747619Y-26436104D02*
X78709523Y-26474200D01*
X78709523Y-26474200D02*
X78595238Y-26512295D01*
X78595238Y-26512295D02*
X78519047Y-26512295D01*
X78519047Y-26512295D02*
X78404761Y-26474200D01*
X78404761Y-26474200D02*
X78328571Y-26398009D01*
X78328571Y-26398009D02*
X78290476Y-26321819D01*
X78290476Y-26321819D02*
X78252380Y-26169438D01*
X78252380Y-26169438D02*
X78252380Y-26055152D01*
X78252380Y-26055152D02*
X78290476Y-25902771D01*
X78290476Y-25902771D02*
X78328571Y-25826580D01*
X78328571Y-25826580D02*
X78404761Y-25750390D01*
X78404761Y-25750390D02*
X78519047Y-25712295D01*
X78519047Y-25712295D02*
X78595238Y-25712295D01*
X78595238Y-25712295D02*
X78709523Y-25750390D01*
X78709523Y-25750390D02*
X78747619Y-25788485D01*
X78900000Y-26588485D02*
X79509523Y-26588485D01*
X79700000Y-26512295D02*
X79700000Y-25712295D01*
X80080952Y-26512295D02*
X80080952Y-25712295D01*
X80080952Y-25712295D02*
X80538095Y-26512295D01*
X80538095Y-26512295D02*
X80538095Y-25712295D01*
X80880951Y-25788485D02*
X80919047Y-25750390D01*
X80919047Y-25750390D02*
X80995237Y-25712295D01*
X80995237Y-25712295D02*
X81185713Y-25712295D01*
X81185713Y-25712295D02*
X81261904Y-25750390D01*
X81261904Y-25750390D02*
X81299999Y-25788485D01*
X81299999Y-25788485D02*
X81338094Y-25864676D01*
X81338094Y-25864676D02*
X81338094Y-25940866D01*
X81338094Y-25940866D02*
X81299999Y-26055152D01*
X81299999Y-26055152D02*
X80842856Y-26512295D01*
X80842856Y-26512295D02*
X81338094Y-26512295D01*
X81490476Y-26588485D02*
X82099999Y-26588485D01*
X82747619Y-26512295D02*
X82480952Y-26131342D01*
X82290476Y-26512295D02*
X82290476Y-25712295D01*
X82290476Y-25712295D02*
X82595238Y-25712295D01*
X82595238Y-25712295D02*
X82671428Y-25750390D01*
X82671428Y-25750390D02*
X82709523Y-25788485D01*
X82709523Y-25788485D02*
X82747619Y-25864676D01*
X82747619Y-25864676D02*
X82747619Y-25978961D01*
X82747619Y-25978961D02*
X82709523Y-26055152D01*
X82709523Y-26055152D02*
X82671428Y-26093247D01*
X82671428Y-26093247D02*
X82595238Y-26131342D01*
X82595238Y-26131342D02*
X82290476Y-26131342D01*
X81185714Y-45212295D02*
X81185714Y-45859914D01*
X81185714Y-45859914D02*
X81223809Y-45936104D01*
X81223809Y-45936104D02*
X81261904Y-45974200D01*
X81261904Y-45974200D02*
X81338095Y-46012295D01*
X81338095Y-46012295D02*
X81490476Y-46012295D01*
X81490476Y-46012295D02*
X81566666Y-45974200D01*
X81566666Y-45974200D02*
X81604761Y-45936104D01*
X81604761Y-45936104D02*
X81642857Y-45859914D01*
X81642857Y-45859914D02*
X81642857Y-45212295D01*
X81947618Y-45212295D02*
X82442856Y-45212295D01*
X82442856Y-45212295D02*
X82176190Y-45517057D01*
X82176190Y-45517057D02*
X82290475Y-45517057D01*
X82290475Y-45517057D02*
X82366666Y-45555152D01*
X82366666Y-45555152D02*
X82404761Y-45593247D01*
X82404761Y-45593247D02*
X82442856Y-45669438D01*
X82442856Y-45669438D02*
X82442856Y-45859914D01*
X82442856Y-45859914D02*
X82404761Y-45936104D01*
X82404761Y-45936104D02*
X82366666Y-45974200D01*
X82366666Y-45974200D02*
X82290475Y-46012295D01*
X82290475Y-46012295D02*
X82061904Y-46012295D01*
X82061904Y-46012295D02*
X81985713Y-45974200D01*
X81985713Y-45974200D02*
X81947618Y-45936104D01*
X82595238Y-46088485D02*
X83204761Y-46088485D01*
X83852381Y-46012295D02*
X83585714Y-45631342D01*
X83395238Y-46012295D02*
X83395238Y-45212295D01*
X83395238Y-45212295D02*
X83700000Y-45212295D01*
X83700000Y-45212295D02*
X83776190Y-45250390D01*
X83776190Y-45250390D02*
X83814285Y-45288485D01*
X83814285Y-45288485D02*
X83852381Y-45364676D01*
X83852381Y-45364676D02*
X83852381Y-45478961D01*
X83852381Y-45478961D02*
X83814285Y-45555152D01*
X83814285Y-45555152D02*
X83776190Y-45593247D01*
X83776190Y-45593247D02*
X83700000Y-45631342D01*
X83700000Y-45631342D02*
X83395238Y-45631342D01*
X64833333Y-46762295D02*
X64452381Y-46762295D01*
X64452381Y-46762295D02*
X64452381Y-45962295D01*
X64909524Y-46838485D02*
X65519047Y-46838485D01*
X65671428Y-46724200D02*
X65785714Y-46762295D01*
X65785714Y-46762295D02*
X65976190Y-46762295D01*
X65976190Y-46762295D02*
X66052381Y-46724200D01*
X66052381Y-46724200D02*
X66090476Y-46686104D01*
X66090476Y-46686104D02*
X66128571Y-46609914D01*
X66128571Y-46609914D02*
X66128571Y-46533723D01*
X66128571Y-46533723D02*
X66090476Y-46457533D01*
X66090476Y-46457533D02*
X66052381Y-46419438D01*
X66052381Y-46419438D02*
X65976190Y-46381342D01*
X65976190Y-46381342D02*
X65823809Y-46343247D01*
X65823809Y-46343247D02*
X65747619Y-46305152D01*
X65747619Y-46305152D02*
X65709524Y-46267057D01*
X65709524Y-46267057D02*
X65671428Y-46190866D01*
X65671428Y-46190866D02*
X65671428Y-46114676D01*
X65671428Y-46114676D02*
X65709524Y-46038485D01*
X65709524Y-46038485D02*
X65747619Y-46000390D01*
X65747619Y-46000390D02*
X65823809Y-45962295D01*
X65823809Y-45962295D02*
X66014286Y-45962295D01*
X66014286Y-45962295D02*
X66128571Y-46000390D01*
X66471429Y-46343247D02*
X66738095Y-46343247D01*
X66852381Y-46762295D02*
X66471429Y-46762295D01*
X66471429Y-46762295D02*
X66471429Y-45962295D01*
X66471429Y-45962295D02*
X66852381Y-45962295D01*
X67652382Y-46762295D02*
X67385715Y-46381342D01*
X67195239Y-46762295D02*
X67195239Y-45962295D01*
X67195239Y-45962295D02*
X67500001Y-45962295D01*
X67500001Y-45962295D02*
X67576191Y-46000390D01*
X67576191Y-46000390D02*
X67614286Y-46038485D01*
X67614286Y-46038485D02*
X67652382Y-46114676D01*
X67652382Y-46114676D02*
X67652382Y-46228961D01*
X67652382Y-46228961D02*
X67614286Y-46305152D01*
X67614286Y-46305152D02*
X67576191Y-46343247D01*
X67576191Y-46343247D02*
X67500001Y-46381342D01*
X67500001Y-46381342D02*
X67195239Y-46381342D01*
X67880953Y-45962295D02*
X68147620Y-46762295D01*
X68147620Y-46762295D02*
X68414286Y-45962295D01*
X68833334Y-45962295D02*
X68985715Y-45962295D01*
X68985715Y-45962295D02*
X69061905Y-46000390D01*
X69061905Y-46000390D02*
X69138096Y-46076580D01*
X69138096Y-46076580D02*
X69176191Y-46228961D01*
X69176191Y-46228961D02*
X69176191Y-46495628D01*
X69176191Y-46495628D02*
X69138096Y-46648009D01*
X69138096Y-46648009D02*
X69061905Y-46724200D01*
X69061905Y-46724200D02*
X68985715Y-46762295D01*
X68985715Y-46762295D02*
X68833334Y-46762295D01*
X68833334Y-46762295D02*
X68757143Y-46724200D01*
X68757143Y-46724200D02*
X68680953Y-46648009D01*
X68680953Y-46648009D02*
X68642857Y-46495628D01*
X68642857Y-46495628D02*
X68642857Y-46228961D01*
X68642857Y-46228961D02*
X68680953Y-46076580D01*
X68680953Y-46076580D02*
X68757143Y-46000390D01*
X68757143Y-46000390D02*
X68833334Y-45962295D01*
X69328572Y-46838485D02*
X69938095Y-46838485D01*
X70585715Y-46762295D02*
X70319048Y-46381342D01*
X70128572Y-46762295D02*
X70128572Y-45962295D01*
X70128572Y-45962295D02*
X70433334Y-45962295D01*
X70433334Y-45962295D02*
X70509524Y-46000390D01*
X70509524Y-46000390D02*
X70547619Y-46038485D01*
X70547619Y-46038485D02*
X70585715Y-46114676D01*
X70585715Y-46114676D02*
X70585715Y-46228961D01*
X70585715Y-46228961D02*
X70547619Y-46305152D01*
X70547619Y-46305152D02*
X70509524Y-46343247D01*
X70509524Y-46343247D02*
X70433334Y-46381342D01*
X70433334Y-46381342D02*
X70128572Y-46381342D01*
X64714286Y-57436104D02*
X64676190Y-57474200D01*
X64676190Y-57474200D02*
X64561905Y-57512295D01*
X64561905Y-57512295D02*
X64485714Y-57512295D01*
X64485714Y-57512295D02*
X64371428Y-57474200D01*
X64371428Y-57474200D02*
X64295238Y-57398009D01*
X64295238Y-57398009D02*
X64257143Y-57321819D01*
X64257143Y-57321819D02*
X64219047Y-57169438D01*
X64219047Y-57169438D02*
X64219047Y-57055152D01*
X64219047Y-57055152D02*
X64257143Y-56902771D01*
X64257143Y-56902771D02*
X64295238Y-56826580D01*
X64295238Y-56826580D02*
X64371428Y-56750390D01*
X64371428Y-56750390D02*
X64485714Y-56712295D01*
X64485714Y-56712295D02*
X64561905Y-56712295D01*
X64561905Y-56712295D02*
X64676190Y-56750390D01*
X64676190Y-56750390D02*
X64714286Y-56788485D01*
X64866667Y-57588485D02*
X65476190Y-57588485D01*
X65819048Y-56712295D02*
X65971429Y-56712295D01*
X65971429Y-56712295D02*
X66047619Y-56750390D01*
X66047619Y-56750390D02*
X66123810Y-56826580D01*
X66123810Y-56826580D02*
X66161905Y-56978961D01*
X66161905Y-56978961D02*
X66161905Y-57245628D01*
X66161905Y-57245628D02*
X66123810Y-57398009D01*
X66123810Y-57398009D02*
X66047619Y-57474200D01*
X66047619Y-57474200D02*
X65971429Y-57512295D01*
X65971429Y-57512295D02*
X65819048Y-57512295D01*
X65819048Y-57512295D02*
X65742857Y-57474200D01*
X65742857Y-57474200D02*
X65666667Y-57398009D01*
X65666667Y-57398009D02*
X65628571Y-57245628D01*
X65628571Y-57245628D02*
X65628571Y-56978961D01*
X65628571Y-56978961D02*
X65666667Y-56826580D01*
X65666667Y-56826580D02*
X65742857Y-56750390D01*
X65742857Y-56750390D02*
X65819048Y-56712295D01*
X66504762Y-56712295D02*
X66504762Y-57359914D01*
X66504762Y-57359914D02*
X66542857Y-57436104D01*
X66542857Y-57436104D02*
X66580952Y-57474200D01*
X66580952Y-57474200D02*
X66657143Y-57512295D01*
X66657143Y-57512295D02*
X66809524Y-57512295D01*
X66809524Y-57512295D02*
X66885714Y-57474200D01*
X66885714Y-57474200D02*
X66923809Y-57436104D01*
X66923809Y-57436104D02*
X66961905Y-57359914D01*
X66961905Y-57359914D02*
X66961905Y-56712295D01*
X67228571Y-56712295D02*
X67685714Y-56712295D01*
X67457142Y-57512295D02*
X67457142Y-56712295D01*
X67914285Y-56788485D02*
X67952381Y-56750390D01*
X67952381Y-56750390D02*
X68028571Y-56712295D01*
X68028571Y-56712295D02*
X68219047Y-56712295D01*
X68219047Y-56712295D02*
X68295238Y-56750390D01*
X68295238Y-56750390D02*
X68333333Y-56788485D01*
X68333333Y-56788485D02*
X68371428Y-56864676D01*
X68371428Y-56864676D02*
X68371428Y-56940866D01*
X68371428Y-56940866D02*
X68333333Y-57055152D01*
X68333333Y-57055152D02*
X67876190Y-57512295D01*
X67876190Y-57512295D02*
X68371428Y-57512295D01*
X68523810Y-57588485D02*
X69133333Y-57588485D01*
X69780953Y-57512295D02*
X69514286Y-57131342D01*
X69323810Y-57512295D02*
X69323810Y-56712295D01*
X69323810Y-56712295D02*
X69628572Y-56712295D01*
X69628572Y-56712295D02*
X69704762Y-56750390D01*
X69704762Y-56750390D02*
X69742857Y-56788485D01*
X69742857Y-56788485D02*
X69780953Y-56864676D01*
X69780953Y-56864676D02*
X69780953Y-56978961D01*
X69780953Y-56978961D02*
X69742857Y-57055152D01*
X69742857Y-57055152D02*
X69704762Y-57093247D01*
X69704762Y-57093247D02*
X69628572Y-57131342D01*
X69628572Y-57131342D02*
X69323810Y-57131342D01*
X64428571Y-80114700D02*
X65571429Y-80114700D01*
X65000000Y-80686128D02*
X65000000Y-79543271D01*
X75428571Y-80114700D02*
X76571429Y-80114700D01*
X19432295Y-52309523D02*
X19051342Y-52576190D01*
X19432295Y-52766666D02*
X18632295Y-52766666D01*
X18632295Y-52766666D02*
X18632295Y-52461904D01*
X18632295Y-52461904D02*
X18670390Y-52385714D01*
X18670390Y-52385714D02*
X18708485Y-52347619D01*
X18708485Y-52347619D02*
X18784676Y-52309523D01*
X18784676Y-52309523D02*
X18898961Y-52309523D01*
X18898961Y-52309523D02*
X18975152Y-52347619D01*
X18975152Y-52347619D02*
X19013247Y-52385714D01*
X19013247Y-52385714D02*
X19051342Y-52461904D01*
X19051342Y-52461904D02*
X19051342Y-52766666D01*
X19508485Y-52157143D02*
X19508485Y-51547619D01*
X19013247Y-51090476D02*
X19013247Y-51357142D01*
X19432295Y-51357142D02*
X18632295Y-51357142D01*
X18632295Y-51357142D02*
X18632295Y-50976190D01*
X19013247Y-50404762D02*
X19051342Y-50290476D01*
X19051342Y-50290476D02*
X19089438Y-50252381D01*
X19089438Y-50252381D02*
X19165628Y-50214285D01*
X19165628Y-50214285D02*
X19279914Y-50214285D01*
X19279914Y-50214285D02*
X19356104Y-50252381D01*
X19356104Y-50252381D02*
X19394200Y-50290476D01*
X19394200Y-50290476D02*
X19432295Y-50366666D01*
X19432295Y-50366666D02*
X19432295Y-50671428D01*
X19432295Y-50671428D02*
X18632295Y-50671428D01*
X18632295Y-50671428D02*
X18632295Y-50404762D01*
X18632295Y-50404762D02*
X18670390Y-50328571D01*
X18670390Y-50328571D02*
X18708485Y-50290476D01*
X18708485Y-50290476D02*
X18784676Y-50252381D01*
X18784676Y-50252381D02*
X18860866Y-50252381D01*
X18860866Y-50252381D02*
X18937057Y-50290476D01*
X18937057Y-50290476D02*
X18975152Y-50328571D01*
X18975152Y-50328571D02*
X19013247Y-50404762D01*
X19013247Y-50404762D02*
X19013247Y-50671428D01*
X18708485Y-49909524D02*
X18670390Y-49871428D01*
X18670390Y-49871428D02*
X18632295Y-49795238D01*
X18632295Y-49795238D02*
X18632295Y-49604762D01*
X18632295Y-49604762D02*
X18670390Y-49528571D01*
X18670390Y-49528571D02*
X18708485Y-49490476D01*
X18708485Y-49490476D02*
X18784676Y-49452381D01*
X18784676Y-49452381D02*
X18860866Y-49452381D01*
X18860866Y-49452381D02*
X18975152Y-49490476D01*
X18975152Y-49490476D02*
X19432295Y-49947619D01*
X19432295Y-49947619D02*
X19432295Y-49452381D01*
X19508485Y-49300000D02*
X19508485Y-48690476D01*
X19432295Y-48119047D02*
X19432295Y-48499999D01*
X19432295Y-48499999D02*
X18632295Y-48499999D01*
X27823810Y-26436104D02*
X27785714Y-26474200D01*
X27785714Y-26474200D02*
X27671429Y-26512295D01*
X27671429Y-26512295D02*
X27595238Y-26512295D01*
X27595238Y-26512295D02*
X27480952Y-26474200D01*
X27480952Y-26474200D02*
X27404762Y-26398009D01*
X27404762Y-26398009D02*
X27366667Y-26321819D01*
X27366667Y-26321819D02*
X27328571Y-26169438D01*
X27328571Y-26169438D02*
X27328571Y-26055152D01*
X27328571Y-26055152D02*
X27366667Y-25902771D01*
X27366667Y-25902771D02*
X27404762Y-25826580D01*
X27404762Y-25826580D02*
X27480952Y-25750390D01*
X27480952Y-25750390D02*
X27595238Y-25712295D01*
X27595238Y-25712295D02*
X27671429Y-25712295D01*
X27671429Y-25712295D02*
X27785714Y-25750390D01*
X27785714Y-25750390D02*
X27823810Y-25788485D01*
X27976191Y-26588485D02*
X28585714Y-26588485D01*
X28776191Y-26512295D02*
X28776191Y-25712295D01*
X29157143Y-26512295D02*
X29157143Y-25712295D01*
X29157143Y-25712295D02*
X29614286Y-26512295D01*
X29614286Y-26512295D02*
X29614286Y-25712295D01*
X29957142Y-25788485D02*
X29995238Y-25750390D01*
X29995238Y-25750390D02*
X30071428Y-25712295D01*
X30071428Y-25712295D02*
X30261904Y-25712295D01*
X30261904Y-25712295D02*
X30338095Y-25750390D01*
X30338095Y-25750390D02*
X30376190Y-25788485D01*
X30376190Y-25788485D02*
X30414285Y-25864676D01*
X30414285Y-25864676D02*
X30414285Y-25940866D01*
X30414285Y-25940866D02*
X30376190Y-26055152D01*
X30376190Y-26055152D02*
X29919047Y-26512295D01*
X29919047Y-26512295D02*
X30414285Y-26512295D01*
X30566667Y-26588485D02*
X31176190Y-26588485D01*
X31747619Y-26512295D02*
X31366667Y-26512295D01*
X31366667Y-26512295D02*
X31366667Y-25712295D01*
X19212295Y-55142857D02*
X19212295Y-55523809D01*
X19212295Y-55523809D02*
X18412295Y-55523809D01*
X18793247Y-54876190D02*
X18793247Y-54609524D01*
X19212295Y-54495238D02*
X19212295Y-54876190D01*
X19212295Y-54876190D02*
X18412295Y-54876190D01*
X18412295Y-54876190D02*
X18412295Y-54495238D01*
X19212295Y-54152380D02*
X18412295Y-54152380D01*
X18412295Y-54152380D02*
X18412295Y-53961904D01*
X18412295Y-53961904D02*
X18450390Y-53847618D01*
X18450390Y-53847618D02*
X18526580Y-53771428D01*
X18526580Y-53771428D02*
X18602771Y-53733333D01*
X18602771Y-53733333D02*
X18755152Y-53695237D01*
X18755152Y-53695237D02*
X18869438Y-53695237D01*
X18869438Y-53695237D02*
X19021819Y-53733333D01*
X19021819Y-53733333D02*
X19098009Y-53771428D01*
X19098009Y-53771428D02*
X19174200Y-53847618D01*
X19174200Y-53847618D02*
X19212295Y-53961904D01*
X19212295Y-53961904D02*
X19212295Y-54152380D01*
X19288485Y-53542857D02*
X19288485Y-52933333D01*
X19212295Y-52361904D02*
X19212295Y-52742856D01*
X19212295Y-52742856D02*
X18412295Y-52742856D01*
X88432295Y-48885713D02*
X88051342Y-49152380D01*
X88432295Y-49342856D02*
X87632295Y-49342856D01*
X87632295Y-49342856D02*
X87632295Y-49038094D01*
X87632295Y-49038094D02*
X87670390Y-48961904D01*
X87670390Y-48961904D02*
X87708485Y-48923809D01*
X87708485Y-48923809D02*
X87784676Y-48885713D01*
X87784676Y-48885713D02*
X87898961Y-48885713D01*
X87898961Y-48885713D02*
X87975152Y-48923809D01*
X87975152Y-48923809D02*
X88013247Y-48961904D01*
X88013247Y-48961904D02*
X88051342Y-49038094D01*
X88051342Y-49038094D02*
X88051342Y-49342856D01*
X88508485Y-48733333D02*
X88508485Y-48123809D01*
X88013247Y-47666666D02*
X88013247Y-47933332D01*
X88432295Y-47933332D02*
X87632295Y-47933332D01*
X87632295Y-47933332D02*
X87632295Y-47552380D01*
X88013247Y-46980952D02*
X88051342Y-46866666D01*
X88051342Y-46866666D02*
X88089438Y-46828571D01*
X88089438Y-46828571D02*
X88165628Y-46790475D01*
X88165628Y-46790475D02*
X88279914Y-46790475D01*
X88279914Y-46790475D02*
X88356104Y-46828571D01*
X88356104Y-46828571D02*
X88394200Y-46866666D01*
X88394200Y-46866666D02*
X88432295Y-46942856D01*
X88432295Y-46942856D02*
X88432295Y-47247618D01*
X88432295Y-47247618D02*
X87632295Y-47247618D01*
X87632295Y-47247618D02*
X87632295Y-46980952D01*
X87632295Y-46980952D02*
X87670390Y-46904761D01*
X87670390Y-46904761D02*
X87708485Y-46866666D01*
X87708485Y-46866666D02*
X87784676Y-46828571D01*
X87784676Y-46828571D02*
X87860866Y-46828571D01*
X87860866Y-46828571D02*
X87937057Y-46866666D01*
X87937057Y-46866666D02*
X87975152Y-46904761D01*
X87975152Y-46904761D02*
X88013247Y-46980952D01*
X88013247Y-46980952D02*
X88013247Y-47247618D01*
X88432295Y-46028571D02*
X88432295Y-46485714D01*
X88432295Y-46257142D02*
X87632295Y-46257142D01*
X87632295Y-46257142D02*
X87746580Y-46333333D01*
X87746580Y-46333333D02*
X87822771Y-46409523D01*
X87822771Y-46409523D02*
X87860866Y-46485714D01*
X88508485Y-45876190D02*
X88508485Y-45266666D01*
X88432295Y-44619046D02*
X88051342Y-44885713D01*
X88432295Y-45076189D02*
X87632295Y-45076189D01*
X87632295Y-45076189D02*
X87632295Y-44771427D01*
X87632295Y-44771427D02*
X87670390Y-44695237D01*
X87670390Y-44695237D02*
X87708485Y-44657142D01*
X87708485Y-44657142D02*
X87784676Y-44619046D01*
X87784676Y-44619046D02*
X87898961Y-44619046D01*
X87898961Y-44619046D02*
X87975152Y-44657142D01*
X87975152Y-44657142D02*
X88013247Y-44695237D01*
X88013247Y-44695237D02*
X88051342Y-44771427D01*
X88051342Y-44771427D02*
X88051342Y-45076189D01*
X20073810Y-23036104D02*
X20035714Y-23074200D01*
X20035714Y-23074200D02*
X19921429Y-23112295D01*
X19921429Y-23112295D02*
X19845238Y-23112295D01*
X19845238Y-23112295D02*
X19730952Y-23074200D01*
X19730952Y-23074200D02*
X19654762Y-22998009D01*
X19654762Y-22998009D02*
X19616667Y-22921819D01*
X19616667Y-22921819D02*
X19578571Y-22769438D01*
X19578571Y-22769438D02*
X19578571Y-22655152D01*
X19578571Y-22655152D02*
X19616667Y-22502771D01*
X19616667Y-22502771D02*
X19654762Y-22426580D01*
X19654762Y-22426580D02*
X19730952Y-22350390D01*
X19730952Y-22350390D02*
X19845238Y-22312295D01*
X19845238Y-22312295D02*
X19921429Y-22312295D01*
X19921429Y-22312295D02*
X20035714Y-22350390D01*
X20035714Y-22350390D02*
X20073810Y-22388485D01*
X20226191Y-23188485D02*
X20835714Y-23188485D01*
X21026191Y-23112295D02*
X21026191Y-22312295D01*
X21407143Y-23112295D02*
X21407143Y-22312295D01*
X21407143Y-22312295D02*
X21864286Y-23112295D01*
X21864286Y-23112295D02*
X21864286Y-22312295D01*
X22664285Y-23112295D02*
X22207142Y-23112295D01*
X22435714Y-23112295D02*
X22435714Y-22312295D01*
X22435714Y-22312295D02*
X22359523Y-22426580D01*
X22359523Y-22426580D02*
X22283333Y-22502771D01*
X22283333Y-22502771D02*
X22207142Y-22540866D01*
X22816667Y-23188485D02*
X23426190Y-23188485D01*
X23997619Y-23112295D02*
X23616667Y-23112295D01*
X23616667Y-23112295D02*
X23616667Y-22312295D01*
X19432295Y-48809523D02*
X19051342Y-49076190D01*
X19432295Y-49266666D02*
X18632295Y-49266666D01*
X18632295Y-49266666D02*
X18632295Y-48961904D01*
X18632295Y-48961904D02*
X18670390Y-48885714D01*
X18670390Y-48885714D02*
X18708485Y-48847619D01*
X18708485Y-48847619D02*
X18784676Y-48809523D01*
X18784676Y-48809523D02*
X18898961Y-48809523D01*
X18898961Y-48809523D02*
X18975152Y-48847619D01*
X18975152Y-48847619D02*
X19013247Y-48885714D01*
X19013247Y-48885714D02*
X19051342Y-48961904D01*
X19051342Y-48961904D02*
X19051342Y-49266666D01*
X19508485Y-48657143D02*
X19508485Y-48047619D01*
X19013247Y-47590476D02*
X19013247Y-47857142D01*
X19432295Y-47857142D02*
X18632295Y-47857142D01*
X18632295Y-47857142D02*
X18632295Y-47476190D01*
X19013247Y-46904762D02*
X19051342Y-46790476D01*
X19051342Y-46790476D02*
X19089438Y-46752381D01*
X19089438Y-46752381D02*
X19165628Y-46714285D01*
X19165628Y-46714285D02*
X19279914Y-46714285D01*
X19279914Y-46714285D02*
X19356104Y-46752381D01*
X19356104Y-46752381D02*
X19394200Y-46790476D01*
X19394200Y-46790476D02*
X19432295Y-46866666D01*
X19432295Y-46866666D02*
X19432295Y-47171428D01*
X19432295Y-47171428D02*
X18632295Y-47171428D01*
X18632295Y-47171428D02*
X18632295Y-46904762D01*
X18632295Y-46904762D02*
X18670390Y-46828571D01*
X18670390Y-46828571D02*
X18708485Y-46790476D01*
X18708485Y-46790476D02*
X18784676Y-46752381D01*
X18784676Y-46752381D02*
X18860866Y-46752381D01*
X18860866Y-46752381D02*
X18937057Y-46790476D01*
X18937057Y-46790476D02*
X18975152Y-46828571D01*
X18975152Y-46828571D02*
X19013247Y-46904762D01*
X19013247Y-46904762D02*
X19013247Y-47171428D01*
X19432295Y-45952381D02*
X19432295Y-46409524D01*
X19432295Y-46180952D02*
X18632295Y-46180952D01*
X18632295Y-46180952D02*
X18746580Y-46257143D01*
X18746580Y-46257143D02*
X18822771Y-46333333D01*
X18822771Y-46333333D02*
X18860866Y-46409524D01*
X19508485Y-45800000D02*
X19508485Y-45190476D01*
X19432295Y-44619047D02*
X19432295Y-44999999D01*
X19432295Y-44999999D02*
X18632295Y-44999999D01*
X70714286Y-57856104D02*
X70676190Y-57894200D01*
X70676190Y-57894200D02*
X70561905Y-57932295D01*
X70561905Y-57932295D02*
X70485714Y-57932295D01*
X70485714Y-57932295D02*
X70371428Y-57894200D01*
X70371428Y-57894200D02*
X70295238Y-57818009D01*
X70295238Y-57818009D02*
X70257143Y-57741819D01*
X70257143Y-57741819D02*
X70219047Y-57589438D01*
X70219047Y-57589438D02*
X70219047Y-57475152D01*
X70219047Y-57475152D02*
X70257143Y-57322771D01*
X70257143Y-57322771D02*
X70295238Y-57246580D01*
X70295238Y-57246580D02*
X70371428Y-57170390D01*
X70371428Y-57170390D02*
X70485714Y-57132295D01*
X70485714Y-57132295D02*
X70561905Y-57132295D01*
X70561905Y-57132295D02*
X70676190Y-57170390D01*
X70676190Y-57170390D02*
X70714286Y-57208485D01*
X70866667Y-58008485D02*
X71476190Y-58008485D01*
X71819048Y-57132295D02*
X71971429Y-57132295D01*
X71971429Y-57132295D02*
X72047619Y-57170390D01*
X72047619Y-57170390D02*
X72123810Y-57246580D01*
X72123810Y-57246580D02*
X72161905Y-57398961D01*
X72161905Y-57398961D02*
X72161905Y-57665628D01*
X72161905Y-57665628D02*
X72123810Y-57818009D01*
X72123810Y-57818009D02*
X72047619Y-57894200D01*
X72047619Y-57894200D02*
X71971429Y-57932295D01*
X71971429Y-57932295D02*
X71819048Y-57932295D01*
X71819048Y-57932295D02*
X71742857Y-57894200D01*
X71742857Y-57894200D02*
X71666667Y-57818009D01*
X71666667Y-57818009D02*
X71628571Y-57665628D01*
X71628571Y-57665628D02*
X71628571Y-57398961D01*
X71628571Y-57398961D02*
X71666667Y-57246580D01*
X71666667Y-57246580D02*
X71742857Y-57170390D01*
X71742857Y-57170390D02*
X71819048Y-57132295D01*
X72504762Y-57132295D02*
X72504762Y-57779914D01*
X72504762Y-57779914D02*
X72542857Y-57856104D01*
X72542857Y-57856104D02*
X72580952Y-57894200D01*
X72580952Y-57894200D02*
X72657143Y-57932295D01*
X72657143Y-57932295D02*
X72809524Y-57932295D01*
X72809524Y-57932295D02*
X72885714Y-57894200D01*
X72885714Y-57894200D02*
X72923809Y-57856104D01*
X72923809Y-57856104D02*
X72961905Y-57779914D01*
X72961905Y-57779914D02*
X72961905Y-57132295D01*
X73228571Y-57132295D02*
X73685714Y-57132295D01*
X73457142Y-57932295D02*
X73457142Y-57132295D01*
X73876190Y-57132295D02*
X74371428Y-57132295D01*
X74371428Y-57132295D02*
X74104762Y-57437057D01*
X74104762Y-57437057D02*
X74219047Y-57437057D01*
X74219047Y-57437057D02*
X74295238Y-57475152D01*
X74295238Y-57475152D02*
X74333333Y-57513247D01*
X74333333Y-57513247D02*
X74371428Y-57589438D01*
X74371428Y-57589438D02*
X74371428Y-57779914D01*
X74371428Y-57779914D02*
X74333333Y-57856104D01*
X74333333Y-57856104D02*
X74295238Y-57894200D01*
X74295238Y-57894200D02*
X74219047Y-57932295D01*
X74219047Y-57932295D02*
X73990476Y-57932295D01*
X73990476Y-57932295D02*
X73914285Y-57894200D01*
X73914285Y-57894200D02*
X73876190Y-57856104D01*
X74523810Y-58008485D02*
X75133333Y-58008485D01*
X75780953Y-57932295D02*
X75514286Y-57551342D01*
X75323810Y-57932295D02*
X75323810Y-57132295D01*
X75323810Y-57132295D02*
X75628572Y-57132295D01*
X75628572Y-57132295D02*
X75704762Y-57170390D01*
X75704762Y-57170390D02*
X75742857Y-57208485D01*
X75742857Y-57208485D02*
X75780953Y-57284676D01*
X75780953Y-57284676D02*
X75780953Y-57398961D01*
X75780953Y-57398961D02*
X75742857Y-57475152D01*
X75742857Y-57475152D02*
X75704762Y-57513247D01*
X75704762Y-57513247D02*
X75628572Y-57551342D01*
X75628572Y-57551342D02*
X75323810Y-57551342D01*
X75262295Y-53585713D02*
X74462295Y-53585713D01*
X74462295Y-53585713D02*
X74462295Y-53395237D01*
X74462295Y-53395237D02*
X74500390Y-53280951D01*
X74500390Y-53280951D02*
X74576580Y-53204761D01*
X74576580Y-53204761D02*
X74652771Y-53166666D01*
X74652771Y-53166666D02*
X74805152Y-53128570D01*
X74805152Y-53128570D02*
X74919438Y-53128570D01*
X74919438Y-53128570D02*
X75071819Y-53166666D01*
X75071819Y-53166666D02*
X75148009Y-53204761D01*
X75148009Y-53204761D02*
X75224200Y-53280951D01*
X75224200Y-53280951D02*
X75262295Y-53395237D01*
X75262295Y-53395237D02*
X75262295Y-53585713D01*
X75338485Y-52976190D02*
X75338485Y-52366666D01*
X75186104Y-51719046D02*
X75224200Y-51757142D01*
X75224200Y-51757142D02*
X75262295Y-51871427D01*
X75262295Y-51871427D02*
X75262295Y-51947618D01*
X75262295Y-51947618D02*
X75224200Y-52061904D01*
X75224200Y-52061904D02*
X75148009Y-52138094D01*
X75148009Y-52138094D02*
X75071819Y-52176189D01*
X75071819Y-52176189D02*
X74919438Y-52214285D01*
X74919438Y-52214285D02*
X74805152Y-52214285D01*
X74805152Y-52214285D02*
X74652771Y-52176189D01*
X74652771Y-52176189D02*
X74576580Y-52138094D01*
X74576580Y-52138094D02*
X74500390Y-52061904D01*
X74500390Y-52061904D02*
X74462295Y-51947618D01*
X74462295Y-51947618D02*
X74462295Y-51871427D01*
X74462295Y-51871427D02*
X74500390Y-51757142D01*
X74500390Y-51757142D02*
X74538485Y-51719046D01*
X75033723Y-51414285D02*
X75033723Y-51033332D01*
X75262295Y-51490475D02*
X74462295Y-51223808D01*
X74462295Y-51223808D02*
X75262295Y-50957142D01*
X74462295Y-50804761D02*
X74462295Y-50347618D01*
X75262295Y-50576190D02*
X74462295Y-50576190D01*
X75186104Y-49623808D02*
X75224200Y-49661904D01*
X75224200Y-49661904D02*
X75262295Y-49776189D01*
X75262295Y-49776189D02*
X75262295Y-49852380D01*
X75262295Y-49852380D02*
X75224200Y-49966666D01*
X75224200Y-49966666D02*
X75148009Y-50042856D01*
X75148009Y-50042856D02*
X75071819Y-50080951D01*
X75071819Y-50080951D02*
X74919438Y-50119047D01*
X74919438Y-50119047D02*
X74805152Y-50119047D01*
X74805152Y-50119047D02*
X74652771Y-50080951D01*
X74652771Y-50080951D02*
X74576580Y-50042856D01*
X74576580Y-50042856D02*
X74500390Y-49966666D01*
X74500390Y-49966666D02*
X74462295Y-49852380D01*
X74462295Y-49852380D02*
X74462295Y-49776189D01*
X74462295Y-49776189D02*
X74500390Y-49661904D01*
X74500390Y-49661904D02*
X74538485Y-49623808D01*
X75262295Y-49280951D02*
X74462295Y-49280951D01*
X74843247Y-49280951D02*
X74843247Y-48823808D01*
X75262295Y-48823808D02*
X74462295Y-48823808D01*
X75338485Y-48633333D02*
X75338485Y-48023809D01*
X75262295Y-47376189D02*
X74881342Y-47642856D01*
X75262295Y-47833332D02*
X74462295Y-47833332D01*
X74462295Y-47833332D02*
X74462295Y-47528570D01*
X74462295Y-47528570D02*
X74500390Y-47452380D01*
X74500390Y-47452380D02*
X74538485Y-47414285D01*
X74538485Y-47414285D02*
X74614676Y-47376189D01*
X74614676Y-47376189D02*
X74728961Y-47376189D01*
X74728961Y-47376189D02*
X74805152Y-47414285D01*
X74805152Y-47414285D02*
X74843247Y-47452380D01*
X74843247Y-47452380D02*
X74881342Y-47528570D01*
X74881342Y-47528570D02*
X74881342Y-47833332D01*
X88432295Y-59347618D02*
X88051342Y-59614285D01*
X88432295Y-59804761D02*
X87632295Y-59804761D01*
X87632295Y-59804761D02*
X87632295Y-59499999D01*
X87632295Y-59499999D02*
X87670390Y-59423809D01*
X87670390Y-59423809D02*
X87708485Y-59385714D01*
X87708485Y-59385714D02*
X87784676Y-59347618D01*
X87784676Y-59347618D02*
X87898961Y-59347618D01*
X87898961Y-59347618D02*
X87975152Y-59385714D01*
X87975152Y-59385714D02*
X88013247Y-59423809D01*
X88013247Y-59423809D02*
X88051342Y-59499999D01*
X88051342Y-59499999D02*
X88051342Y-59804761D01*
X88508485Y-59195238D02*
X88508485Y-58585714D01*
X88432295Y-58014285D02*
X88432295Y-58395237D01*
X88432295Y-58395237D02*
X87632295Y-58395237D01*
X88013247Y-57747618D02*
X88013247Y-57480952D01*
X88432295Y-57366666D02*
X88432295Y-57747618D01*
X88432295Y-57747618D02*
X87632295Y-57747618D01*
X87632295Y-57747618D02*
X87632295Y-57366666D01*
X88432295Y-57023808D02*
X87632295Y-57023808D01*
X87632295Y-57023808D02*
X87632295Y-56833332D01*
X87632295Y-56833332D02*
X87670390Y-56719046D01*
X87670390Y-56719046D02*
X87746580Y-56642856D01*
X87746580Y-56642856D02*
X87822771Y-56604761D01*
X87822771Y-56604761D02*
X87975152Y-56566665D01*
X87975152Y-56566665D02*
X88089438Y-56566665D01*
X88089438Y-56566665D02*
X88241819Y-56604761D01*
X88241819Y-56604761D02*
X88318009Y-56642856D01*
X88318009Y-56642856D02*
X88394200Y-56719046D01*
X88394200Y-56719046D02*
X88432295Y-56833332D01*
X88432295Y-56833332D02*
X88432295Y-57023808D01*
X88508485Y-56414285D02*
X88508485Y-55804761D01*
X88432295Y-55157141D02*
X88051342Y-55423808D01*
X88432295Y-55614284D02*
X87632295Y-55614284D01*
X87632295Y-55614284D02*
X87632295Y-55309522D01*
X87632295Y-55309522D02*
X87670390Y-55233332D01*
X87670390Y-55233332D02*
X87708485Y-55195237D01*
X87708485Y-55195237D02*
X87784676Y-55157141D01*
X87784676Y-55157141D02*
X87898961Y-55157141D01*
X87898961Y-55157141D02*
X87975152Y-55195237D01*
X87975152Y-55195237D02*
X88013247Y-55233332D01*
X88013247Y-55233332D02*
X88051342Y-55309522D01*
X88051342Y-55309522D02*
X88051342Y-55614284D01*
X66464286Y-46536104D02*
X66426190Y-46574200D01*
X66426190Y-46574200D02*
X66311905Y-46612295D01*
X66311905Y-46612295D02*
X66235714Y-46612295D01*
X66235714Y-46612295D02*
X66121428Y-46574200D01*
X66121428Y-46574200D02*
X66045238Y-46498009D01*
X66045238Y-46498009D02*
X66007143Y-46421819D01*
X66007143Y-46421819D02*
X65969047Y-46269438D01*
X65969047Y-46269438D02*
X65969047Y-46155152D01*
X65969047Y-46155152D02*
X66007143Y-46002771D01*
X66007143Y-46002771D02*
X66045238Y-45926580D01*
X66045238Y-45926580D02*
X66121428Y-45850390D01*
X66121428Y-45850390D02*
X66235714Y-45812295D01*
X66235714Y-45812295D02*
X66311905Y-45812295D01*
X66311905Y-45812295D02*
X66426190Y-45850390D01*
X66426190Y-45850390D02*
X66464286Y-45888485D01*
X66616667Y-46688485D02*
X67226190Y-46688485D01*
X67569048Y-45812295D02*
X67721429Y-45812295D01*
X67721429Y-45812295D02*
X67797619Y-45850390D01*
X67797619Y-45850390D02*
X67873810Y-45926580D01*
X67873810Y-45926580D02*
X67911905Y-46078961D01*
X67911905Y-46078961D02*
X67911905Y-46345628D01*
X67911905Y-46345628D02*
X67873810Y-46498009D01*
X67873810Y-46498009D02*
X67797619Y-46574200D01*
X67797619Y-46574200D02*
X67721429Y-46612295D01*
X67721429Y-46612295D02*
X67569048Y-46612295D01*
X67569048Y-46612295D02*
X67492857Y-46574200D01*
X67492857Y-46574200D02*
X67416667Y-46498009D01*
X67416667Y-46498009D02*
X67378571Y-46345628D01*
X67378571Y-46345628D02*
X67378571Y-46078961D01*
X67378571Y-46078961D02*
X67416667Y-45926580D01*
X67416667Y-45926580D02*
X67492857Y-45850390D01*
X67492857Y-45850390D02*
X67569048Y-45812295D01*
X68254762Y-45812295D02*
X68254762Y-46459914D01*
X68254762Y-46459914D02*
X68292857Y-46536104D01*
X68292857Y-46536104D02*
X68330952Y-46574200D01*
X68330952Y-46574200D02*
X68407143Y-46612295D01*
X68407143Y-46612295D02*
X68559524Y-46612295D01*
X68559524Y-46612295D02*
X68635714Y-46574200D01*
X68635714Y-46574200D02*
X68673809Y-46536104D01*
X68673809Y-46536104D02*
X68711905Y-46459914D01*
X68711905Y-46459914D02*
X68711905Y-45812295D01*
X68978571Y-45812295D02*
X69435714Y-45812295D01*
X69207142Y-46612295D02*
X69207142Y-45812295D01*
X70121428Y-46612295D02*
X69664285Y-46612295D01*
X69892857Y-46612295D02*
X69892857Y-45812295D01*
X69892857Y-45812295D02*
X69816666Y-45926580D01*
X69816666Y-45926580D02*
X69740476Y-46002771D01*
X69740476Y-46002771D02*
X69664285Y-46040866D01*
X70273810Y-46688485D02*
X70883333Y-46688485D01*
X71530953Y-46612295D02*
X71264286Y-46231342D01*
X71073810Y-46612295D02*
X71073810Y-45812295D01*
X71073810Y-45812295D02*
X71378572Y-45812295D01*
X71378572Y-45812295D02*
X71454762Y-45850390D01*
X71454762Y-45850390D02*
X71492857Y-45888485D01*
X71492857Y-45888485D02*
X71530953Y-45964676D01*
X71530953Y-45964676D02*
X71530953Y-46078961D01*
X71530953Y-46078961D02*
X71492857Y-46155152D01*
X71492857Y-46155152D02*
X71454762Y-46193247D01*
X71454762Y-46193247D02*
X71378572Y-46231342D01*
X71378572Y-46231342D02*
X71073810Y-46231342D01*
X86997619Y-21036104D02*
X86959523Y-21074200D01*
X86959523Y-21074200D02*
X86845238Y-21112295D01*
X86845238Y-21112295D02*
X86769047Y-21112295D01*
X86769047Y-21112295D02*
X86654761Y-21074200D01*
X86654761Y-21074200D02*
X86578571Y-20998009D01*
X86578571Y-20998009D02*
X86540476Y-20921819D01*
X86540476Y-20921819D02*
X86502380Y-20769438D01*
X86502380Y-20769438D02*
X86502380Y-20655152D01*
X86502380Y-20655152D02*
X86540476Y-20502771D01*
X86540476Y-20502771D02*
X86578571Y-20426580D01*
X86578571Y-20426580D02*
X86654761Y-20350390D01*
X86654761Y-20350390D02*
X86769047Y-20312295D01*
X86769047Y-20312295D02*
X86845238Y-20312295D01*
X86845238Y-20312295D02*
X86959523Y-20350390D01*
X86959523Y-20350390D02*
X86997619Y-20388485D01*
X87150000Y-21188485D02*
X87759523Y-21188485D01*
X87950000Y-21112295D02*
X87950000Y-20312295D01*
X88330952Y-21112295D02*
X88330952Y-20312295D01*
X88330952Y-20312295D02*
X88788095Y-21112295D01*
X88788095Y-21112295D02*
X88788095Y-20312295D01*
X89588094Y-21112295D02*
X89130951Y-21112295D01*
X89359523Y-21112295D02*
X89359523Y-20312295D01*
X89359523Y-20312295D02*
X89283332Y-20426580D01*
X89283332Y-20426580D02*
X89207142Y-20502771D01*
X89207142Y-20502771D02*
X89130951Y-20540866D01*
X89740476Y-21188485D02*
X90349999Y-21188485D01*
X90997619Y-21112295D02*
X90730952Y-20731342D01*
X90540476Y-21112295D02*
X90540476Y-20312295D01*
X90540476Y-20312295D02*
X90845238Y-20312295D01*
X90845238Y-20312295D02*
X90921428Y-20350390D01*
X90921428Y-20350390D02*
X90959523Y-20388485D01*
X90959523Y-20388485D02*
X90997619Y-20464676D01*
X90997619Y-20464676D02*
X90997619Y-20578961D01*
X90997619Y-20578961D02*
X90959523Y-20655152D01*
X90959523Y-20655152D02*
X90921428Y-20693247D01*
X90921428Y-20693247D02*
X90845238Y-20731342D01*
X90845238Y-20731342D02*
X90540476Y-20731342D01*
X19432295Y-59271428D02*
X19051342Y-59538095D01*
X19432295Y-59728571D02*
X18632295Y-59728571D01*
X18632295Y-59728571D02*
X18632295Y-59423809D01*
X18632295Y-59423809D02*
X18670390Y-59347619D01*
X18670390Y-59347619D02*
X18708485Y-59309524D01*
X18708485Y-59309524D02*
X18784676Y-59271428D01*
X18784676Y-59271428D02*
X18898961Y-59271428D01*
X18898961Y-59271428D02*
X18975152Y-59309524D01*
X18975152Y-59309524D02*
X19013247Y-59347619D01*
X19013247Y-59347619D02*
X19051342Y-59423809D01*
X19051342Y-59423809D02*
X19051342Y-59728571D01*
X19508485Y-59119048D02*
X19508485Y-58509524D01*
X19432295Y-57938095D02*
X19432295Y-58319047D01*
X19432295Y-58319047D02*
X18632295Y-58319047D01*
X19013247Y-57671428D02*
X19013247Y-57404762D01*
X19432295Y-57290476D02*
X19432295Y-57671428D01*
X19432295Y-57671428D02*
X18632295Y-57671428D01*
X18632295Y-57671428D02*
X18632295Y-57290476D01*
X19432295Y-56947618D02*
X18632295Y-56947618D01*
X18632295Y-56947618D02*
X18632295Y-56757142D01*
X18632295Y-56757142D02*
X18670390Y-56642856D01*
X18670390Y-56642856D02*
X18746580Y-56566666D01*
X18746580Y-56566666D02*
X18822771Y-56528571D01*
X18822771Y-56528571D02*
X18975152Y-56490475D01*
X18975152Y-56490475D02*
X19089438Y-56490475D01*
X19089438Y-56490475D02*
X19241819Y-56528571D01*
X19241819Y-56528571D02*
X19318009Y-56566666D01*
X19318009Y-56566666D02*
X19394200Y-56642856D01*
X19394200Y-56642856D02*
X19432295Y-56757142D01*
X19432295Y-56757142D02*
X19432295Y-56947618D01*
X19508485Y-56338095D02*
X19508485Y-55728571D01*
X19432295Y-55157142D02*
X19432295Y-55538094D01*
X19432295Y-55538094D02*
X18632295Y-55538094D01*
X44062295Y-20359523D02*
X44709914Y-20359523D01*
X44709914Y-20359523D02*
X44786104Y-20321428D01*
X44786104Y-20321428D02*
X44824200Y-20283333D01*
X44824200Y-20283333D02*
X44862295Y-20207142D01*
X44862295Y-20207142D02*
X44862295Y-20054761D01*
X44862295Y-20054761D02*
X44824200Y-19978571D01*
X44824200Y-19978571D02*
X44786104Y-19940476D01*
X44786104Y-19940476D02*
X44709914Y-19902380D01*
X44709914Y-19902380D02*
X44062295Y-19902380D01*
X44862295Y-19102381D02*
X44862295Y-19559524D01*
X44862295Y-19330952D02*
X44062295Y-19330952D01*
X44062295Y-19330952D02*
X44176580Y-19407143D01*
X44176580Y-19407143D02*
X44252771Y-19483333D01*
X44252771Y-19483333D02*
X44290866Y-19559524D01*
X55785714Y-49356104D02*
X55747618Y-49394200D01*
X55747618Y-49394200D02*
X55633333Y-49432295D01*
X55633333Y-49432295D02*
X55557142Y-49432295D01*
X55557142Y-49432295D02*
X55442856Y-49394200D01*
X55442856Y-49394200D02*
X55366666Y-49318009D01*
X55366666Y-49318009D02*
X55328571Y-49241819D01*
X55328571Y-49241819D02*
X55290475Y-49089438D01*
X55290475Y-49089438D02*
X55290475Y-48975152D01*
X55290475Y-48975152D02*
X55328571Y-48822771D01*
X55328571Y-48822771D02*
X55366666Y-48746580D01*
X55366666Y-48746580D02*
X55442856Y-48670390D01*
X55442856Y-48670390D02*
X55557142Y-48632295D01*
X55557142Y-48632295D02*
X55633333Y-48632295D01*
X55633333Y-48632295D02*
X55747618Y-48670390D01*
X55747618Y-48670390D02*
X55785714Y-48708485D01*
X55938095Y-49508485D02*
X56547618Y-49508485D01*
X56738095Y-49432295D02*
X56738095Y-48632295D01*
X56738095Y-48632295D02*
X57004761Y-49203723D01*
X57004761Y-49203723D02*
X57271428Y-48632295D01*
X57271428Y-48632295D02*
X57271428Y-49432295D01*
X57652381Y-49432295D02*
X57652381Y-48632295D01*
X57652381Y-48632295D02*
X57957143Y-48632295D01*
X57957143Y-48632295D02*
X58033333Y-48670390D01*
X58033333Y-48670390D02*
X58071428Y-48708485D01*
X58071428Y-48708485D02*
X58109524Y-48784676D01*
X58109524Y-48784676D02*
X58109524Y-48898961D01*
X58109524Y-48898961D02*
X58071428Y-48975152D01*
X58071428Y-48975152D02*
X58033333Y-49013247D01*
X58033333Y-49013247D02*
X57957143Y-49051342D01*
X57957143Y-49051342D02*
X57652381Y-49051342D01*
X58452381Y-48632295D02*
X58452381Y-49279914D01*
X58452381Y-49279914D02*
X58490476Y-49356104D01*
X58490476Y-49356104D02*
X58528571Y-49394200D01*
X58528571Y-49394200D02*
X58604762Y-49432295D01*
X58604762Y-49432295D02*
X58757143Y-49432295D01*
X58757143Y-49432295D02*
X58833333Y-49394200D01*
X58833333Y-49394200D02*
X58871428Y-49356104D01*
X58871428Y-49356104D02*
X58909524Y-49279914D01*
X58909524Y-49279914D02*
X58909524Y-48632295D01*
X59671428Y-48632295D02*
X59290476Y-48632295D01*
X59290476Y-48632295D02*
X59252380Y-49013247D01*
X59252380Y-49013247D02*
X59290476Y-48975152D01*
X59290476Y-48975152D02*
X59366666Y-48937057D01*
X59366666Y-48937057D02*
X59557142Y-48937057D01*
X59557142Y-48937057D02*
X59633333Y-48975152D01*
X59633333Y-48975152D02*
X59671428Y-49013247D01*
X59671428Y-49013247D02*
X59709523Y-49089438D01*
X59709523Y-49089438D02*
X59709523Y-49279914D01*
X59709523Y-49279914D02*
X59671428Y-49356104D01*
X59671428Y-49356104D02*
X59633333Y-49394200D01*
X59633333Y-49394200D02*
X59557142Y-49432295D01*
X59557142Y-49432295D02*
X59366666Y-49432295D01*
X59366666Y-49432295D02*
X59290476Y-49394200D01*
X59290476Y-49394200D02*
X59252380Y-49356104D01*
X34790476Y-57856104D02*
X34752380Y-57894200D01*
X34752380Y-57894200D02*
X34638095Y-57932295D01*
X34638095Y-57932295D02*
X34561904Y-57932295D01*
X34561904Y-57932295D02*
X34447618Y-57894200D01*
X34447618Y-57894200D02*
X34371428Y-57818009D01*
X34371428Y-57818009D02*
X34333333Y-57741819D01*
X34333333Y-57741819D02*
X34295237Y-57589438D01*
X34295237Y-57589438D02*
X34295237Y-57475152D01*
X34295237Y-57475152D02*
X34333333Y-57322771D01*
X34333333Y-57322771D02*
X34371428Y-57246580D01*
X34371428Y-57246580D02*
X34447618Y-57170390D01*
X34447618Y-57170390D02*
X34561904Y-57132295D01*
X34561904Y-57132295D02*
X34638095Y-57132295D01*
X34638095Y-57132295D02*
X34752380Y-57170390D01*
X34752380Y-57170390D02*
X34790476Y-57208485D01*
X34942857Y-58008485D02*
X35552380Y-58008485D01*
X35895238Y-57132295D02*
X36047619Y-57132295D01*
X36047619Y-57132295D02*
X36123809Y-57170390D01*
X36123809Y-57170390D02*
X36200000Y-57246580D01*
X36200000Y-57246580D02*
X36238095Y-57398961D01*
X36238095Y-57398961D02*
X36238095Y-57665628D01*
X36238095Y-57665628D02*
X36200000Y-57818009D01*
X36200000Y-57818009D02*
X36123809Y-57894200D01*
X36123809Y-57894200D02*
X36047619Y-57932295D01*
X36047619Y-57932295D02*
X35895238Y-57932295D01*
X35895238Y-57932295D02*
X35819047Y-57894200D01*
X35819047Y-57894200D02*
X35742857Y-57818009D01*
X35742857Y-57818009D02*
X35704761Y-57665628D01*
X35704761Y-57665628D02*
X35704761Y-57398961D01*
X35704761Y-57398961D02*
X35742857Y-57246580D01*
X35742857Y-57246580D02*
X35819047Y-57170390D01*
X35819047Y-57170390D02*
X35895238Y-57132295D01*
X36580952Y-57132295D02*
X36580952Y-57779914D01*
X36580952Y-57779914D02*
X36619047Y-57856104D01*
X36619047Y-57856104D02*
X36657142Y-57894200D01*
X36657142Y-57894200D02*
X36733333Y-57932295D01*
X36733333Y-57932295D02*
X36885714Y-57932295D01*
X36885714Y-57932295D02*
X36961904Y-57894200D01*
X36961904Y-57894200D02*
X36999999Y-57856104D01*
X36999999Y-57856104D02*
X37038095Y-57779914D01*
X37038095Y-57779914D02*
X37038095Y-57132295D01*
X37304761Y-57132295D02*
X37761904Y-57132295D01*
X37533332Y-57932295D02*
X37533332Y-57132295D01*
X37952380Y-57132295D02*
X38447618Y-57132295D01*
X38447618Y-57132295D02*
X38180952Y-57437057D01*
X38180952Y-57437057D02*
X38295237Y-57437057D01*
X38295237Y-57437057D02*
X38371428Y-57475152D01*
X38371428Y-57475152D02*
X38409523Y-57513247D01*
X38409523Y-57513247D02*
X38447618Y-57589438D01*
X38447618Y-57589438D02*
X38447618Y-57779914D01*
X38447618Y-57779914D02*
X38409523Y-57856104D01*
X38409523Y-57856104D02*
X38371428Y-57894200D01*
X38371428Y-57894200D02*
X38295237Y-57932295D01*
X38295237Y-57932295D02*
X38066666Y-57932295D01*
X38066666Y-57932295D02*
X37990475Y-57894200D01*
X37990475Y-57894200D02*
X37952380Y-57856104D01*
X38600000Y-58008485D02*
X39209523Y-58008485D01*
X39780952Y-57932295D02*
X39400000Y-57932295D01*
X39400000Y-57932295D02*
X39400000Y-57132295D01*
X50785714Y-49356104D02*
X50747618Y-49394200D01*
X50747618Y-49394200D02*
X50633333Y-49432295D01*
X50633333Y-49432295D02*
X50557142Y-49432295D01*
X50557142Y-49432295D02*
X50442856Y-49394200D01*
X50442856Y-49394200D02*
X50366666Y-49318009D01*
X50366666Y-49318009D02*
X50328571Y-49241819D01*
X50328571Y-49241819D02*
X50290475Y-49089438D01*
X50290475Y-49089438D02*
X50290475Y-48975152D01*
X50290475Y-48975152D02*
X50328571Y-48822771D01*
X50328571Y-48822771D02*
X50366666Y-48746580D01*
X50366666Y-48746580D02*
X50442856Y-48670390D01*
X50442856Y-48670390D02*
X50557142Y-48632295D01*
X50557142Y-48632295D02*
X50633333Y-48632295D01*
X50633333Y-48632295D02*
X50747618Y-48670390D01*
X50747618Y-48670390D02*
X50785714Y-48708485D01*
X50938095Y-49508485D02*
X51547618Y-49508485D01*
X51738095Y-49432295D02*
X51738095Y-48632295D01*
X51738095Y-48632295D02*
X52004761Y-49203723D01*
X52004761Y-49203723D02*
X52271428Y-48632295D01*
X52271428Y-48632295D02*
X52271428Y-49432295D01*
X52652381Y-49432295D02*
X52652381Y-48632295D01*
X52652381Y-48632295D02*
X52957143Y-48632295D01*
X52957143Y-48632295D02*
X53033333Y-48670390D01*
X53033333Y-48670390D02*
X53071428Y-48708485D01*
X53071428Y-48708485D02*
X53109524Y-48784676D01*
X53109524Y-48784676D02*
X53109524Y-48898961D01*
X53109524Y-48898961D02*
X53071428Y-48975152D01*
X53071428Y-48975152D02*
X53033333Y-49013247D01*
X53033333Y-49013247D02*
X52957143Y-49051342D01*
X52957143Y-49051342D02*
X52652381Y-49051342D01*
X53452381Y-48632295D02*
X53452381Y-49279914D01*
X53452381Y-49279914D02*
X53490476Y-49356104D01*
X53490476Y-49356104D02*
X53528571Y-49394200D01*
X53528571Y-49394200D02*
X53604762Y-49432295D01*
X53604762Y-49432295D02*
X53757143Y-49432295D01*
X53757143Y-49432295D02*
X53833333Y-49394200D01*
X53833333Y-49394200D02*
X53871428Y-49356104D01*
X53871428Y-49356104D02*
X53909524Y-49279914D01*
X53909524Y-49279914D02*
X53909524Y-48632295D01*
X54252380Y-48708485D02*
X54290476Y-48670390D01*
X54290476Y-48670390D02*
X54366666Y-48632295D01*
X54366666Y-48632295D02*
X54557142Y-48632295D01*
X54557142Y-48632295D02*
X54633333Y-48670390D01*
X54633333Y-48670390D02*
X54671428Y-48708485D01*
X54671428Y-48708485D02*
X54709523Y-48784676D01*
X54709523Y-48784676D02*
X54709523Y-48860866D01*
X54709523Y-48860866D02*
X54671428Y-48975152D01*
X54671428Y-48975152D02*
X54214285Y-49432295D01*
X54214285Y-49432295D02*
X54709523Y-49432295D01*
X42540476Y-46536104D02*
X42502380Y-46574200D01*
X42502380Y-46574200D02*
X42388095Y-46612295D01*
X42388095Y-46612295D02*
X42311904Y-46612295D01*
X42311904Y-46612295D02*
X42197618Y-46574200D01*
X42197618Y-46574200D02*
X42121428Y-46498009D01*
X42121428Y-46498009D02*
X42083333Y-46421819D01*
X42083333Y-46421819D02*
X42045237Y-46269438D01*
X42045237Y-46269438D02*
X42045237Y-46155152D01*
X42045237Y-46155152D02*
X42083333Y-46002771D01*
X42083333Y-46002771D02*
X42121428Y-45926580D01*
X42121428Y-45926580D02*
X42197618Y-45850390D01*
X42197618Y-45850390D02*
X42311904Y-45812295D01*
X42311904Y-45812295D02*
X42388095Y-45812295D01*
X42388095Y-45812295D02*
X42502380Y-45850390D01*
X42502380Y-45850390D02*
X42540476Y-45888485D01*
X42692857Y-46688485D02*
X43302380Y-46688485D01*
X43645238Y-45812295D02*
X43797619Y-45812295D01*
X43797619Y-45812295D02*
X43873809Y-45850390D01*
X43873809Y-45850390D02*
X43950000Y-45926580D01*
X43950000Y-45926580D02*
X43988095Y-46078961D01*
X43988095Y-46078961D02*
X43988095Y-46345628D01*
X43988095Y-46345628D02*
X43950000Y-46498009D01*
X43950000Y-46498009D02*
X43873809Y-46574200D01*
X43873809Y-46574200D02*
X43797619Y-46612295D01*
X43797619Y-46612295D02*
X43645238Y-46612295D01*
X43645238Y-46612295D02*
X43569047Y-46574200D01*
X43569047Y-46574200D02*
X43492857Y-46498009D01*
X43492857Y-46498009D02*
X43454761Y-46345628D01*
X43454761Y-46345628D02*
X43454761Y-46078961D01*
X43454761Y-46078961D02*
X43492857Y-45926580D01*
X43492857Y-45926580D02*
X43569047Y-45850390D01*
X43569047Y-45850390D02*
X43645238Y-45812295D01*
X44330952Y-45812295D02*
X44330952Y-46459914D01*
X44330952Y-46459914D02*
X44369047Y-46536104D01*
X44369047Y-46536104D02*
X44407142Y-46574200D01*
X44407142Y-46574200D02*
X44483333Y-46612295D01*
X44483333Y-46612295D02*
X44635714Y-46612295D01*
X44635714Y-46612295D02*
X44711904Y-46574200D01*
X44711904Y-46574200D02*
X44749999Y-46536104D01*
X44749999Y-46536104D02*
X44788095Y-46459914D01*
X44788095Y-46459914D02*
X44788095Y-45812295D01*
X45054761Y-45812295D02*
X45511904Y-45812295D01*
X45283332Y-46612295D02*
X45283332Y-45812295D01*
X46197618Y-46612295D02*
X45740475Y-46612295D01*
X45969047Y-46612295D02*
X45969047Y-45812295D01*
X45969047Y-45812295D02*
X45892856Y-45926580D01*
X45892856Y-45926580D02*
X45816666Y-46002771D01*
X45816666Y-46002771D02*
X45740475Y-46040866D01*
X46350000Y-46688485D02*
X46959523Y-46688485D01*
X47530952Y-46612295D02*
X47150000Y-46612295D01*
X47150000Y-46612295D02*
X47150000Y-45812295D01*
X88432295Y-52385713D02*
X88051342Y-52652380D01*
X88432295Y-52842856D02*
X87632295Y-52842856D01*
X87632295Y-52842856D02*
X87632295Y-52538094D01*
X87632295Y-52538094D02*
X87670390Y-52461904D01*
X87670390Y-52461904D02*
X87708485Y-52423809D01*
X87708485Y-52423809D02*
X87784676Y-52385713D01*
X87784676Y-52385713D02*
X87898961Y-52385713D01*
X87898961Y-52385713D02*
X87975152Y-52423809D01*
X87975152Y-52423809D02*
X88013247Y-52461904D01*
X88013247Y-52461904D02*
X88051342Y-52538094D01*
X88051342Y-52538094D02*
X88051342Y-52842856D01*
X88508485Y-52233333D02*
X88508485Y-51623809D01*
X88013247Y-51166666D02*
X88013247Y-51433332D01*
X88432295Y-51433332D02*
X87632295Y-51433332D01*
X87632295Y-51433332D02*
X87632295Y-51052380D01*
X88013247Y-50480952D02*
X88051342Y-50366666D01*
X88051342Y-50366666D02*
X88089438Y-50328571D01*
X88089438Y-50328571D02*
X88165628Y-50290475D01*
X88165628Y-50290475D02*
X88279914Y-50290475D01*
X88279914Y-50290475D02*
X88356104Y-50328571D01*
X88356104Y-50328571D02*
X88394200Y-50366666D01*
X88394200Y-50366666D02*
X88432295Y-50442856D01*
X88432295Y-50442856D02*
X88432295Y-50747618D01*
X88432295Y-50747618D02*
X87632295Y-50747618D01*
X87632295Y-50747618D02*
X87632295Y-50480952D01*
X87632295Y-50480952D02*
X87670390Y-50404761D01*
X87670390Y-50404761D02*
X87708485Y-50366666D01*
X87708485Y-50366666D02*
X87784676Y-50328571D01*
X87784676Y-50328571D02*
X87860866Y-50328571D01*
X87860866Y-50328571D02*
X87937057Y-50366666D01*
X87937057Y-50366666D02*
X87975152Y-50404761D01*
X87975152Y-50404761D02*
X88013247Y-50480952D01*
X88013247Y-50480952D02*
X88013247Y-50747618D01*
X87708485Y-49985714D02*
X87670390Y-49947618D01*
X87670390Y-49947618D02*
X87632295Y-49871428D01*
X87632295Y-49871428D02*
X87632295Y-49680952D01*
X87632295Y-49680952D02*
X87670390Y-49604761D01*
X87670390Y-49604761D02*
X87708485Y-49566666D01*
X87708485Y-49566666D02*
X87784676Y-49528571D01*
X87784676Y-49528571D02*
X87860866Y-49528571D01*
X87860866Y-49528571D02*
X87975152Y-49566666D01*
X87975152Y-49566666D02*
X88432295Y-50023809D01*
X88432295Y-50023809D02*
X88432295Y-49528571D01*
X88508485Y-49376190D02*
X88508485Y-48766666D01*
X88432295Y-48119046D02*
X88051342Y-48385713D01*
X88432295Y-48576189D02*
X87632295Y-48576189D01*
X87632295Y-48576189D02*
X87632295Y-48271427D01*
X87632295Y-48271427D02*
X87670390Y-48195237D01*
X87670390Y-48195237D02*
X87708485Y-48157142D01*
X87708485Y-48157142D02*
X87784676Y-48119046D01*
X87784676Y-48119046D02*
X87898961Y-48119046D01*
X87898961Y-48119046D02*
X87975152Y-48157142D01*
X87975152Y-48157142D02*
X88013247Y-48195237D01*
X88013247Y-48195237D02*
X88051342Y-48271427D01*
X88051342Y-48271427D02*
X88051342Y-48576189D01*
X26261905Y-31912295D02*
X26261905Y-32559914D01*
X26261905Y-32559914D02*
X26300000Y-32636104D01*
X26300000Y-32636104D02*
X26338095Y-32674200D01*
X26338095Y-32674200D02*
X26414286Y-32712295D01*
X26414286Y-32712295D02*
X26566667Y-32712295D01*
X26566667Y-32712295D02*
X26642857Y-32674200D01*
X26642857Y-32674200D02*
X26680952Y-32636104D01*
X26680952Y-32636104D02*
X26719048Y-32559914D01*
X26719048Y-32559914D02*
X26719048Y-31912295D01*
X27023809Y-31912295D02*
X27519047Y-31912295D01*
X27519047Y-31912295D02*
X27252381Y-32217057D01*
X27252381Y-32217057D02*
X27366666Y-32217057D01*
X27366666Y-32217057D02*
X27442857Y-32255152D01*
X27442857Y-32255152D02*
X27480952Y-32293247D01*
X27480952Y-32293247D02*
X27519047Y-32369438D01*
X27519047Y-32369438D02*
X27519047Y-32559914D01*
X27519047Y-32559914D02*
X27480952Y-32636104D01*
X27480952Y-32636104D02*
X27442857Y-32674200D01*
X27442857Y-32674200D02*
X27366666Y-32712295D01*
X27366666Y-32712295D02*
X27138095Y-32712295D01*
X27138095Y-32712295D02*
X27061904Y-32674200D01*
X27061904Y-32674200D02*
X27023809Y-32636104D01*
X27671429Y-32788485D02*
X28280952Y-32788485D01*
X28852381Y-32712295D02*
X28471429Y-32712295D01*
X28471429Y-32712295D02*
X28471429Y-31912295D01*
X50785714Y-38356104D02*
X50747618Y-38394200D01*
X50747618Y-38394200D02*
X50633333Y-38432295D01*
X50633333Y-38432295D02*
X50557142Y-38432295D01*
X50557142Y-38432295D02*
X50442856Y-38394200D01*
X50442856Y-38394200D02*
X50366666Y-38318009D01*
X50366666Y-38318009D02*
X50328571Y-38241819D01*
X50328571Y-38241819D02*
X50290475Y-38089438D01*
X50290475Y-38089438D02*
X50290475Y-37975152D01*
X50290475Y-37975152D02*
X50328571Y-37822771D01*
X50328571Y-37822771D02*
X50366666Y-37746580D01*
X50366666Y-37746580D02*
X50442856Y-37670390D01*
X50442856Y-37670390D02*
X50557142Y-37632295D01*
X50557142Y-37632295D02*
X50633333Y-37632295D01*
X50633333Y-37632295D02*
X50747618Y-37670390D01*
X50747618Y-37670390D02*
X50785714Y-37708485D01*
X50938095Y-38508485D02*
X51547618Y-38508485D01*
X51738095Y-38432295D02*
X51738095Y-37632295D01*
X51738095Y-37632295D02*
X52004761Y-38203723D01*
X52004761Y-38203723D02*
X52271428Y-37632295D01*
X52271428Y-37632295D02*
X52271428Y-38432295D01*
X52652381Y-38432295D02*
X52652381Y-37632295D01*
X52652381Y-37632295D02*
X52957143Y-37632295D01*
X52957143Y-37632295D02*
X53033333Y-37670390D01*
X53033333Y-37670390D02*
X53071428Y-37708485D01*
X53071428Y-37708485D02*
X53109524Y-37784676D01*
X53109524Y-37784676D02*
X53109524Y-37898961D01*
X53109524Y-37898961D02*
X53071428Y-37975152D01*
X53071428Y-37975152D02*
X53033333Y-38013247D01*
X53033333Y-38013247D02*
X52957143Y-38051342D01*
X52957143Y-38051342D02*
X52652381Y-38051342D01*
X53452381Y-37632295D02*
X53452381Y-38279914D01*
X53452381Y-38279914D02*
X53490476Y-38356104D01*
X53490476Y-38356104D02*
X53528571Y-38394200D01*
X53528571Y-38394200D02*
X53604762Y-38432295D01*
X53604762Y-38432295D02*
X53757143Y-38432295D01*
X53757143Y-38432295D02*
X53833333Y-38394200D01*
X53833333Y-38394200D02*
X53871428Y-38356104D01*
X53871428Y-38356104D02*
X53909524Y-38279914D01*
X53909524Y-38279914D02*
X53909524Y-37632295D01*
X54709523Y-38432295D02*
X54252380Y-38432295D01*
X54480952Y-38432295D02*
X54480952Y-37632295D01*
X54480952Y-37632295D02*
X54404761Y-37746580D01*
X54404761Y-37746580D02*
X54328571Y-37822771D01*
X54328571Y-37822771D02*
X54252380Y-37860866D01*
X88212295Y-55219047D02*
X88212295Y-55599999D01*
X88212295Y-55599999D02*
X87412295Y-55599999D01*
X87793247Y-54952380D02*
X87793247Y-54685714D01*
X88212295Y-54571428D02*
X88212295Y-54952380D01*
X88212295Y-54952380D02*
X87412295Y-54952380D01*
X87412295Y-54952380D02*
X87412295Y-54571428D01*
X88212295Y-54228570D02*
X87412295Y-54228570D01*
X87412295Y-54228570D02*
X87412295Y-54038094D01*
X87412295Y-54038094D02*
X87450390Y-53923808D01*
X87450390Y-53923808D02*
X87526580Y-53847618D01*
X87526580Y-53847618D02*
X87602771Y-53809523D01*
X87602771Y-53809523D02*
X87755152Y-53771427D01*
X87755152Y-53771427D02*
X87869438Y-53771427D01*
X87869438Y-53771427D02*
X88021819Y-53809523D01*
X88021819Y-53809523D02*
X88098009Y-53847618D01*
X88098009Y-53847618D02*
X88174200Y-53923808D01*
X88174200Y-53923808D02*
X88212295Y-54038094D01*
X88212295Y-54038094D02*
X88212295Y-54228570D01*
X88288485Y-53619047D02*
X88288485Y-53009523D01*
X88212295Y-52361903D02*
X87831342Y-52628570D01*
X88212295Y-52819046D02*
X87412295Y-52819046D01*
X87412295Y-52819046D02*
X87412295Y-52514284D01*
X87412295Y-52514284D02*
X87450390Y-52438094D01*
X87450390Y-52438094D02*
X87488485Y-52399999D01*
X87488485Y-52399999D02*
X87564676Y-52361903D01*
X87564676Y-52361903D02*
X87678961Y-52361903D01*
X87678961Y-52361903D02*
X87755152Y-52399999D01*
X87755152Y-52399999D02*
X87793247Y-52438094D01*
X87793247Y-52438094D02*
X87831342Y-52514284D01*
X87831342Y-52514284D02*
X87831342Y-52819046D01*
X39909523Y-31962295D02*
X39528571Y-31962295D01*
X39528571Y-31962295D02*
X39528571Y-31162295D01*
X39985714Y-32038485D02*
X40595237Y-32038485D01*
X40747618Y-31924200D02*
X40861904Y-31962295D01*
X40861904Y-31962295D02*
X41052380Y-31962295D01*
X41052380Y-31962295D02*
X41128571Y-31924200D01*
X41128571Y-31924200D02*
X41166666Y-31886104D01*
X41166666Y-31886104D02*
X41204761Y-31809914D01*
X41204761Y-31809914D02*
X41204761Y-31733723D01*
X41204761Y-31733723D02*
X41166666Y-31657533D01*
X41166666Y-31657533D02*
X41128571Y-31619438D01*
X41128571Y-31619438D02*
X41052380Y-31581342D01*
X41052380Y-31581342D02*
X40899999Y-31543247D01*
X40899999Y-31543247D02*
X40823809Y-31505152D01*
X40823809Y-31505152D02*
X40785714Y-31467057D01*
X40785714Y-31467057D02*
X40747618Y-31390866D01*
X40747618Y-31390866D02*
X40747618Y-31314676D01*
X40747618Y-31314676D02*
X40785714Y-31238485D01*
X40785714Y-31238485D02*
X40823809Y-31200390D01*
X40823809Y-31200390D02*
X40899999Y-31162295D01*
X40899999Y-31162295D02*
X41090476Y-31162295D01*
X41090476Y-31162295D02*
X41204761Y-31200390D01*
X41547619Y-31543247D02*
X41814285Y-31543247D01*
X41928571Y-31962295D02*
X41547619Y-31962295D01*
X41547619Y-31962295D02*
X41547619Y-31162295D01*
X41547619Y-31162295D02*
X41928571Y-31162295D01*
X42728572Y-31962295D02*
X42461905Y-31581342D01*
X42271429Y-31962295D02*
X42271429Y-31162295D01*
X42271429Y-31162295D02*
X42576191Y-31162295D01*
X42576191Y-31162295D02*
X42652381Y-31200390D01*
X42652381Y-31200390D02*
X42690476Y-31238485D01*
X42690476Y-31238485D02*
X42728572Y-31314676D01*
X42728572Y-31314676D02*
X42728572Y-31428961D01*
X42728572Y-31428961D02*
X42690476Y-31505152D01*
X42690476Y-31505152D02*
X42652381Y-31543247D01*
X42652381Y-31543247D02*
X42576191Y-31581342D01*
X42576191Y-31581342D02*
X42271429Y-31581342D01*
X42957143Y-31162295D02*
X43223810Y-31962295D01*
X43223810Y-31962295D02*
X43490476Y-31162295D01*
X43909524Y-31162295D02*
X44061905Y-31162295D01*
X44061905Y-31162295D02*
X44138095Y-31200390D01*
X44138095Y-31200390D02*
X44214286Y-31276580D01*
X44214286Y-31276580D02*
X44252381Y-31428961D01*
X44252381Y-31428961D02*
X44252381Y-31695628D01*
X44252381Y-31695628D02*
X44214286Y-31848009D01*
X44214286Y-31848009D02*
X44138095Y-31924200D01*
X44138095Y-31924200D02*
X44061905Y-31962295D01*
X44061905Y-31962295D02*
X43909524Y-31962295D01*
X43909524Y-31962295D02*
X43833333Y-31924200D01*
X43833333Y-31924200D02*
X43757143Y-31848009D01*
X43757143Y-31848009D02*
X43719047Y-31695628D01*
X43719047Y-31695628D02*
X43719047Y-31428961D01*
X43719047Y-31428961D02*
X43757143Y-31276580D01*
X43757143Y-31276580D02*
X43833333Y-31200390D01*
X43833333Y-31200390D02*
X43909524Y-31162295D01*
X44404762Y-32038485D02*
X45014285Y-32038485D01*
X45585714Y-31962295D02*
X45204762Y-31962295D01*
X45204762Y-31962295D02*
X45204762Y-31162295D01*
X40790476Y-57436104D02*
X40752380Y-57474200D01*
X40752380Y-57474200D02*
X40638095Y-57512295D01*
X40638095Y-57512295D02*
X40561904Y-57512295D01*
X40561904Y-57512295D02*
X40447618Y-57474200D01*
X40447618Y-57474200D02*
X40371428Y-57398009D01*
X40371428Y-57398009D02*
X40333333Y-57321819D01*
X40333333Y-57321819D02*
X40295237Y-57169438D01*
X40295237Y-57169438D02*
X40295237Y-57055152D01*
X40295237Y-57055152D02*
X40333333Y-56902771D01*
X40333333Y-56902771D02*
X40371428Y-56826580D01*
X40371428Y-56826580D02*
X40447618Y-56750390D01*
X40447618Y-56750390D02*
X40561904Y-56712295D01*
X40561904Y-56712295D02*
X40638095Y-56712295D01*
X40638095Y-56712295D02*
X40752380Y-56750390D01*
X40752380Y-56750390D02*
X40790476Y-56788485D01*
X40942857Y-57588485D02*
X41552380Y-57588485D01*
X41895238Y-56712295D02*
X42047619Y-56712295D01*
X42047619Y-56712295D02*
X42123809Y-56750390D01*
X42123809Y-56750390D02*
X42200000Y-56826580D01*
X42200000Y-56826580D02*
X42238095Y-56978961D01*
X42238095Y-56978961D02*
X42238095Y-57245628D01*
X42238095Y-57245628D02*
X42200000Y-57398009D01*
X42200000Y-57398009D02*
X42123809Y-57474200D01*
X42123809Y-57474200D02*
X42047619Y-57512295D01*
X42047619Y-57512295D02*
X41895238Y-57512295D01*
X41895238Y-57512295D02*
X41819047Y-57474200D01*
X41819047Y-57474200D02*
X41742857Y-57398009D01*
X41742857Y-57398009D02*
X41704761Y-57245628D01*
X41704761Y-57245628D02*
X41704761Y-56978961D01*
X41704761Y-56978961D02*
X41742857Y-56826580D01*
X41742857Y-56826580D02*
X41819047Y-56750390D01*
X41819047Y-56750390D02*
X41895238Y-56712295D01*
X42580952Y-56712295D02*
X42580952Y-57359914D01*
X42580952Y-57359914D02*
X42619047Y-57436104D01*
X42619047Y-57436104D02*
X42657142Y-57474200D01*
X42657142Y-57474200D02*
X42733333Y-57512295D01*
X42733333Y-57512295D02*
X42885714Y-57512295D01*
X42885714Y-57512295D02*
X42961904Y-57474200D01*
X42961904Y-57474200D02*
X42999999Y-57436104D01*
X42999999Y-57436104D02*
X43038095Y-57359914D01*
X43038095Y-57359914D02*
X43038095Y-56712295D01*
X43304761Y-56712295D02*
X43761904Y-56712295D01*
X43533332Y-57512295D02*
X43533332Y-56712295D01*
X43990475Y-56788485D02*
X44028571Y-56750390D01*
X44028571Y-56750390D02*
X44104761Y-56712295D01*
X44104761Y-56712295D02*
X44295237Y-56712295D01*
X44295237Y-56712295D02*
X44371428Y-56750390D01*
X44371428Y-56750390D02*
X44409523Y-56788485D01*
X44409523Y-56788485D02*
X44447618Y-56864676D01*
X44447618Y-56864676D02*
X44447618Y-56940866D01*
X44447618Y-56940866D02*
X44409523Y-57055152D01*
X44409523Y-57055152D02*
X43952380Y-57512295D01*
X43952380Y-57512295D02*
X44447618Y-57512295D01*
X44600000Y-57588485D02*
X45209523Y-57588485D01*
X45780952Y-57512295D02*
X45400000Y-57512295D01*
X45400000Y-57512295D02*
X45400000Y-56712295D01*
X54390476Y-41187295D02*
X54390476Y-41834914D01*
X54390476Y-41834914D02*
X54428571Y-41911104D01*
X54428571Y-41911104D02*
X54466666Y-41949200D01*
X54466666Y-41949200D02*
X54542857Y-41987295D01*
X54542857Y-41987295D02*
X54695238Y-41987295D01*
X54695238Y-41987295D02*
X54771428Y-41949200D01*
X54771428Y-41949200D02*
X54809523Y-41911104D01*
X54809523Y-41911104D02*
X54847619Y-41834914D01*
X54847619Y-41834914D02*
X54847619Y-41187295D01*
X55152380Y-41187295D02*
X55685714Y-41187295D01*
X55685714Y-41187295D02*
X55342856Y-41987295D01*
X55785714Y-38356104D02*
X55747618Y-38394200D01*
X55747618Y-38394200D02*
X55633333Y-38432295D01*
X55633333Y-38432295D02*
X55557142Y-38432295D01*
X55557142Y-38432295D02*
X55442856Y-38394200D01*
X55442856Y-38394200D02*
X55366666Y-38318009D01*
X55366666Y-38318009D02*
X55328571Y-38241819D01*
X55328571Y-38241819D02*
X55290475Y-38089438D01*
X55290475Y-38089438D02*
X55290475Y-37975152D01*
X55290475Y-37975152D02*
X55328571Y-37822771D01*
X55328571Y-37822771D02*
X55366666Y-37746580D01*
X55366666Y-37746580D02*
X55442856Y-37670390D01*
X55442856Y-37670390D02*
X55557142Y-37632295D01*
X55557142Y-37632295D02*
X55633333Y-37632295D01*
X55633333Y-37632295D02*
X55747618Y-37670390D01*
X55747618Y-37670390D02*
X55785714Y-37708485D01*
X55938095Y-38508485D02*
X56547618Y-38508485D01*
X56738095Y-38432295D02*
X56738095Y-37632295D01*
X56738095Y-37632295D02*
X57004761Y-38203723D01*
X57004761Y-38203723D02*
X57271428Y-37632295D01*
X57271428Y-37632295D02*
X57271428Y-38432295D01*
X57652381Y-38432295D02*
X57652381Y-37632295D01*
X57652381Y-37632295D02*
X57957143Y-37632295D01*
X57957143Y-37632295D02*
X58033333Y-37670390D01*
X58033333Y-37670390D02*
X58071428Y-37708485D01*
X58071428Y-37708485D02*
X58109524Y-37784676D01*
X58109524Y-37784676D02*
X58109524Y-37898961D01*
X58109524Y-37898961D02*
X58071428Y-37975152D01*
X58071428Y-37975152D02*
X58033333Y-38013247D01*
X58033333Y-38013247D02*
X57957143Y-38051342D01*
X57957143Y-38051342D02*
X57652381Y-38051342D01*
X58452381Y-37632295D02*
X58452381Y-38279914D01*
X58452381Y-38279914D02*
X58490476Y-38356104D01*
X58490476Y-38356104D02*
X58528571Y-38394200D01*
X58528571Y-38394200D02*
X58604762Y-38432295D01*
X58604762Y-38432295D02*
X58757143Y-38432295D01*
X58757143Y-38432295D02*
X58833333Y-38394200D01*
X58833333Y-38394200D02*
X58871428Y-38356104D01*
X58871428Y-38356104D02*
X58909524Y-38279914D01*
X58909524Y-38279914D02*
X58909524Y-37632295D01*
X59214285Y-37632295D02*
X59709523Y-37632295D01*
X59709523Y-37632295D02*
X59442857Y-37937057D01*
X59442857Y-37937057D02*
X59557142Y-37937057D01*
X59557142Y-37937057D02*
X59633333Y-37975152D01*
X59633333Y-37975152D02*
X59671428Y-38013247D01*
X59671428Y-38013247D02*
X59709523Y-38089438D01*
X59709523Y-38089438D02*
X59709523Y-38279914D01*
X59709523Y-38279914D02*
X59671428Y-38356104D01*
X59671428Y-38356104D02*
X59633333Y-38394200D01*
X59633333Y-38394200D02*
X59557142Y-38432295D01*
X59557142Y-38432295D02*
X59328571Y-38432295D01*
X59328571Y-38432295D02*
X59252380Y-38394200D01*
X59252380Y-38394200D02*
X59214285Y-38356104D01*
%TO.C,J_L4_C*%
D12*
X8620000Y-16380000D02*
X8620000Y-15000000D01*
X10000000Y-16380000D02*
X8620000Y-16380000D01*
X11270000Y-13620000D02*
X16460000Y-13620000D01*
X11270000Y-16380000D02*
X11270000Y-13620000D01*
X11270000Y-16380000D02*
X16460000Y-16380000D01*
X16460000Y-16380000D02*
X16460000Y-13620000D01*
%TO.C,C_PCA3*%
X91490000Y-65140580D02*
X91490000Y-64859420D01*
X92510000Y-65140580D02*
X92510000Y-64859420D01*
%TO.C,D_CATCH_L*%
X27750000Y-55410000D02*
X27750000Y-46900000D01*
X34250000Y-55410000D02*
X27750000Y-55410000D01*
X34250000Y-55410000D02*
X34250000Y-46900000D01*
%TO.C,J_L3_C*%
X93540000Y-51620000D02*
X93540000Y-54380000D01*
X98730000Y-51620000D02*
X93540000Y-51620000D01*
X98730000Y-51620000D02*
X98730000Y-54380000D01*
X98730000Y-54380000D02*
X93540000Y-54380000D01*
X100000000Y-51620000D02*
X101380000Y-51620000D01*
X101380000Y-51620000D02*
X101380000Y-53000000D01*
%TO.C,J_L6_F*%
X8620000Y-58880000D02*
X8620000Y-57500000D01*
X10000000Y-58880000D02*
X8620000Y-58880000D01*
X11270000Y-56120000D02*
X16460000Y-56120000D01*
X11270000Y-58880000D02*
X11270000Y-56120000D01*
X11270000Y-58880000D02*
X16460000Y-58880000D01*
X16460000Y-58880000D02*
X16460000Y-56120000D01*
%TO.C,C_IN2_R*%
X79788748Y-27090000D02*
X81211252Y-27090000D01*
X79788748Y-28910000D02*
X81211252Y-28910000D01*
%TO.C,U3_R*%
X85960000Y-33800000D02*
X87325000Y-33800000D01*
X85960000Y-44200000D02*
X87325000Y-44200000D01*
X87325000Y-33800000D02*
X87325000Y-34750000D01*
X87325000Y-44200000D02*
X87325000Y-43250000D01*
X90150000Y-43210000D02*
X90490000Y-43680000D01*
X89810000Y-43680000D01*
X90150000Y-43210000D01*
G36*
X90490000Y-43680000D02*
G01*
X89810000Y-43680000D01*
X90150000Y-43210000D01*
X90490000Y-43680000D01*
G37*
%TO.C,R_CHG*%
X25762742Y-83977500D02*
X26237258Y-83977500D01*
X25762742Y-85022500D02*
X26237258Y-85022500D01*
%TO.C,L_SERVO_R*%
X61200000Y-32700000D02*
X73800000Y-32700000D01*
X61200000Y-35700000D02*
X61200000Y-32700000D01*
X61200000Y-45300000D02*
X61200000Y-42300000D01*
X73800000Y-32700000D02*
X73800000Y-35700000D01*
X73800000Y-42300000D02*
X73800000Y-45300000D01*
X73800000Y-45300000D02*
X61200000Y-45300000D01*
%TO.C,R_STAT*%
X67477500Y-28237258D02*
X67477500Y-27762742D01*
X68522500Y-28237258D02*
X68522500Y-27762742D01*
%TO.C,C_OUT2_R*%
X66288748Y-58090000D02*
X67711252Y-58090000D01*
X66288748Y-59910000D02*
X67711252Y-59910000D01*
%TO.C,J_L6_C*%
X8620000Y-54380000D02*
X8620000Y-53000000D01*
X10000000Y-54380000D02*
X8620000Y-54380000D01*
X11270000Y-51620000D02*
X16460000Y-51620000D01*
X11270000Y-54380000D02*
X11270000Y-51620000D01*
X11270000Y-54380000D02*
X16460000Y-54380000D01*
X16460000Y-54380000D02*
X16460000Y-51620000D01*
%TO.C,C_VBUS2*%
X43990000Y-87140580D02*
X43990000Y-86859420D01*
X45010000Y-87140580D02*
X45010000Y-86859420D01*
%TO.C,J_BAT*%
X64850000Y-68890000D02*
X65440000Y-68890000D01*
X64850000Y-71110000D02*
X65440000Y-71110000D01*
X65440000Y-66790000D02*
X65440000Y-68890000D01*
X65440000Y-66790000D02*
X75560000Y-66790000D01*
X65440000Y-71110000D02*
X65440000Y-76010000D01*
X65440000Y-76010000D02*
X75560000Y-76010000D01*
X75560000Y-66790000D02*
X75560000Y-68890000D01*
X75560000Y-68890000D02*
X76150000Y-68890000D01*
X75560000Y-71110000D02*
X75560000Y-76010000D01*
X75560000Y-71110000D02*
X76150000Y-71110000D01*
X64850000Y-71110000D02*
G75*
G02*
X64850000Y-68890000I0J1110000D01*
G01*
X76150000Y-68890000D02*
G75*
G02*
X76150000Y-71110000I0J-1110000D01*
G01*
%TO.C,R_FB2_L*%
X19977500Y-50737258D02*
X19977500Y-50262742D01*
X21022500Y-50737258D02*
X21022500Y-50262742D01*
%TO.C,C_IN2_L*%
X28788748Y-27090000D02*
X30211252Y-27090000D01*
X28788748Y-28910000D02*
X30211252Y-28910000D01*
%TO.C,LED_L*%
X19540000Y-53000000D02*
X19540000Y-55685000D01*
X19540000Y-55685000D02*
X21460000Y-55685000D01*
X21460000Y-55685000D02*
X21460000Y-53000000D01*
%TO.C,C2*%
X41859420Y-16990000D02*
X42140580Y-16990000D01*
X41859420Y-18010000D02*
X42140580Y-18010000D01*
%TO.C,R_SDA*%
X50762742Y-54477500D02*
X51237258Y-54477500D01*
X50762742Y-55522500D02*
X51237258Y-55522500D01*
%TO.C,J_L1_F*%
X93540000Y-18120000D02*
X93540000Y-20880000D01*
X98730000Y-18120000D02*
X93540000Y-18120000D01*
X98730000Y-18120000D02*
X98730000Y-20880000D01*
X98730000Y-20880000D02*
X93540000Y-20880000D01*
X100000000Y-18120000D02*
X101380000Y-18120000D01*
X101380000Y-18120000D02*
X101380000Y-19500000D01*
%TO.C,C_DIV*%
X67490000Y-21140580D02*
X67490000Y-20859420D01*
X68510000Y-21140580D02*
X68510000Y-20859420D01*
%TO.C,J_UART*%
X79120000Y-74620000D02*
X80500000Y-74620000D01*
X79120000Y-76000000D02*
X79120000Y-74620000D01*
X79120000Y-77270000D02*
X79120000Y-85000000D01*
X79120000Y-77270000D02*
X81880000Y-77270000D01*
X79120000Y-85000000D02*
X81880000Y-85000000D01*
X81880000Y-77270000D02*
X81880000Y-85000000D01*
%TO.C,U4*%
X82150000Y-9590000D02*
X85910000Y-9590000D01*
X82150000Y-16410000D02*
X85910000Y-16410000D01*
X85910000Y-9590000D02*
X85910000Y-10850000D01*
X85910000Y-16410000D02*
X85910000Y-15150000D01*
X80870000Y-9690000D02*
X80630000Y-9360000D01*
X81110000Y-9360000D01*
X80870000Y-9690000D01*
G36*
X80870000Y-9690000D02*
G01*
X80630000Y-9360000D01*
X81110000Y-9360000D01*
X80870000Y-9690000D01*
G37*
%TO.C,J_AUX6*%
X20120000Y-74620000D02*
X21500000Y-74620000D01*
X20120000Y-76000000D02*
X20120000Y-74620000D01*
X20120000Y-77270000D02*
X20120000Y-82460000D01*
X20120000Y-77270000D02*
X22880000Y-77270000D01*
X20120000Y-82460000D02*
X22880000Y-82460000D01*
X22880000Y-77270000D02*
X22880000Y-82460000D01*
%TO.C,R_CC2*%
X29262742Y-83977500D02*
X29737258Y-83977500D01*
X29262742Y-85022500D02*
X29737258Y-85022500D01*
%TO.C,J_AUX3*%
X98120000Y-74620000D02*
X99500000Y-74620000D01*
X98120000Y-76000000D02*
X98120000Y-74620000D01*
X98120000Y-77270000D02*
X98120000Y-82460000D01*
X98120000Y-77270000D02*
X100880000Y-77270000D01*
X98120000Y-82460000D02*
X100880000Y-82460000D01*
X100880000Y-77270000D02*
X100880000Y-82460000D01*
%TO.C,C_3V3_1*%
X88738748Y-6765000D02*
X89261252Y-6765000D01*
X88738748Y-8235000D02*
X89261252Y-8235000D01*
%TO.C,R_FB1_R*%
X88977500Y-47237258D02*
X88977500Y-46762742D01*
X90022500Y-47237258D02*
X90022500Y-46762742D01*
%TO.C,U6*%
X81690000Y-62040000D02*
X86310000Y-62040000D01*
X81690000Y-62315000D02*
X81690000Y-62040000D01*
X81690000Y-71960000D02*
X81690000Y-71685000D01*
X86310000Y-62040000D02*
X86310000Y-62315000D01*
X86310000Y-71685000D02*
X86310000Y-71960000D01*
X86310000Y-71960000D02*
X81690000Y-71960000D01*
X81050000Y-62310000D02*
X80710000Y-61840000D01*
X81390000Y-61840000D01*
X81050000Y-62310000D01*
G36*
X81050000Y-62310000D02*
G01*
X80710000Y-61840000D01*
X81390000Y-61840000D01*
X81050000Y-62310000D01*
G37*
%TO.C,U5*%
X23690000Y-62040000D02*
X28310000Y-62040000D01*
X23690000Y-62315000D02*
X23690000Y-62040000D01*
X23690000Y-71960000D02*
X23690000Y-71685000D01*
X28310000Y-62040000D02*
X28310000Y-62315000D01*
X28310000Y-71685000D02*
X28310000Y-71960000D01*
X28310000Y-71960000D02*
X23690000Y-71960000D01*
X23050000Y-62310000D02*
X22710000Y-61840000D01*
X23390000Y-61840000D01*
X23050000Y-62310000D01*
G36*
X23050000Y-62310000D02*
G01*
X22710000Y-61840000D01*
X23390000Y-61840000D01*
X23050000Y-62310000D01*
G37*
%TO.C,C_IN1_L*%
X17340302Y-25685000D02*
X18140302Y-25685000D01*
X17740302Y-25285000D02*
X17740302Y-26085000D01*
X21750000Y-23920000D02*
X21750000Y-32080000D01*
X21790000Y-23920000D02*
X21790000Y-32080000D01*
X21830000Y-23921000D02*
X21830000Y-32079000D01*
X21870000Y-23922000D02*
X21870000Y-32078000D01*
X21910000Y-23923000D02*
X21910000Y-32077000D01*
X21950000Y-23925000D02*
X21950000Y-32075000D01*
X21990000Y-23927000D02*
X21990000Y-32073000D01*
X22030000Y-23930000D02*
X22030000Y-32070000D01*
X22070000Y-23932000D02*
X22070000Y-32068000D01*
X22110000Y-23936000D02*
X22110000Y-32064000D01*
X22150000Y-23939000D02*
X22150000Y-32061000D01*
X22190000Y-23944000D02*
X22190000Y-32056000D01*
X22230000Y-23948000D02*
X22230000Y-32052000D01*
X22270000Y-23953000D02*
X22270000Y-32047000D01*
X22310000Y-23958000D02*
X22310000Y-32042000D01*
X22350000Y-23964000D02*
X22350000Y-32036000D01*
X22390000Y-23970000D02*
X22390000Y-32030000D01*
X22430000Y-23977000D02*
X22430000Y-32023000D01*
X22470000Y-23983000D02*
X22470000Y-26960000D01*
X22470000Y-29040000D02*
X22470000Y-32017000D01*
X22510000Y-23991000D02*
X22510000Y-26960000D01*
X22510000Y-29040000D02*
X22510000Y-32009000D01*
X22550000Y-23998000D02*
X22550000Y-26960000D01*
X22550000Y-29040000D02*
X22550000Y-32002000D01*
X22590000Y-24007000D02*
X22590000Y-26960000D01*
X22590000Y-29040000D02*
X22590000Y-31993000D01*
X22630000Y-24015000D02*
X22630000Y-26960000D01*
X22630000Y-29040000D02*
X22630000Y-31985000D01*
X22670000Y-24024000D02*
X22670000Y-26960000D01*
X22670000Y-29040000D02*
X22670000Y-31976000D01*
X22710000Y-24033000D02*
X22710000Y-26960000D01*
X22710000Y-29040000D02*
X22710000Y-31967000D01*
X22750000Y-24043000D02*
X22750000Y-26960000D01*
X22750000Y-29040000D02*
X22750000Y-31957000D01*
X22790000Y-24053000D02*
X22790000Y-26960000D01*
X22790000Y-29040000D02*
X22790000Y-31947000D01*
X22830000Y-24064000D02*
X22830000Y-26960000D01*
X22830000Y-29040000D02*
X22830000Y-31936000D01*
X22870000Y-24075000D02*
X22870000Y-26960000D01*
X22870000Y-29040000D02*
X22870000Y-31925000D01*
X22910000Y-24087000D02*
X22910000Y-26960000D01*
X22910000Y-29040000D02*
X22910000Y-31913000D01*
X22950000Y-24099000D02*
X22950000Y-26960000D01*
X22950000Y-29040000D02*
X22950000Y-31901000D01*
X22990000Y-24111000D02*
X22990000Y-26960000D01*
X22990000Y-29040000D02*
X22990000Y-31889000D01*
X23030000Y-24124000D02*
X23030000Y-26960000D01*
X23030000Y-29040000D02*
X23030000Y-31876000D01*
X23070000Y-24137000D02*
X23070000Y-26960000D01*
X23070000Y-29040000D02*
X23070000Y-31863000D01*
X23110000Y-24151000D02*
X23110000Y-26960000D01*
X23110000Y-29040000D02*
X23110000Y-31849000D01*
X23150000Y-24165000D02*
X23150000Y-26960000D01*
X23150000Y-29040000D02*
X23150000Y-31835000D01*
X23190000Y-24180000D02*
X23190000Y-26960000D01*
X23190000Y-29040000D02*
X23190000Y-31820000D01*
X23230000Y-24195000D02*
X23230000Y-26960000D01*
X23230000Y-29040000D02*
X23230000Y-31805000D01*
X23270000Y-24211000D02*
X23270000Y-26960000D01*
X23270000Y-29040000D02*
X23270000Y-31789000D01*
X23310000Y-24227000D02*
X23310000Y-26960000D01*
X23310000Y-29040000D02*
X23310000Y-31773000D01*
X23350000Y-24243000D02*
X23350000Y-26960000D01*
X23350000Y-29040000D02*
X23350000Y-31757000D01*
X23390000Y-24260000D02*
X23390000Y-26960000D01*
X23390000Y-29040000D02*
X23390000Y-31740000D01*
X23430000Y-24278000D02*
X23430000Y-26960000D01*
X23430000Y-29040000D02*
X23430000Y-31722000D01*
X23470000Y-24296000D02*
X23470000Y-26960000D01*
X23470000Y-29040000D02*
X23470000Y-31704000D01*
X23510000Y-24315000D02*
X23510000Y-26960000D01*
X23510000Y-29040000D02*
X23510000Y-31685000D01*
X23550000Y-24334000D02*
X23550000Y-26960000D01*
X23550000Y-29040000D02*
X23550000Y-31666000D01*
X23590000Y-24354000D02*
X23590000Y-26960000D01*
X23590000Y-29040000D02*
X23590000Y-31646000D01*
X23630000Y-24374000D02*
X23630000Y-26960000D01*
X23630000Y-29040000D02*
X23630000Y-31626000D01*
X23670000Y-24395000D02*
X23670000Y-26960000D01*
X23670000Y-29040000D02*
X23670000Y-31605000D01*
X23710000Y-24416000D02*
X23710000Y-26960000D01*
X23710000Y-29040000D02*
X23710000Y-31584000D01*
X23750000Y-24438000D02*
X23750000Y-26960000D01*
X23750000Y-29040000D02*
X23750000Y-31562000D01*
X23790000Y-24461000D02*
X23790000Y-26960000D01*
X23790000Y-29040000D02*
X23790000Y-31539000D01*
X23830000Y-24484000D02*
X23830000Y-26960000D01*
X23830000Y-29040000D02*
X23830000Y-31516000D01*
X23870000Y-24507000D02*
X23870000Y-26960000D01*
X23870000Y-29040000D02*
X23870000Y-31493000D01*
X23910000Y-24532000D02*
X23910000Y-26960000D01*
X23910000Y-29040000D02*
X23910000Y-31468000D01*
X23950000Y-24557000D02*
X23950000Y-26960000D01*
X23950000Y-29040000D02*
X23950000Y-31443000D01*
X23990000Y-24582000D02*
X23990000Y-26960000D01*
X23990000Y-29040000D02*
X23990000Y-31418000D01*
X24030000Y-24608000D02*
X24030000Y-26960000D01*
X24030000Y-29040000D02*
X24030000Y-31392000D01*
X24070000Y-24635000D02*
X24070000Y-26960000D01*
X24070000Y-29040000D02*
X24070000Y-31365000D01*
X24110000Y-24663000D02*
X24110000Y-26960000D01*
X24110000Y-29040000D02*
X24110000Y-31337000D01*
X24150000Y-24691000D02*
X24150000Y-26960000D01*
X24150000Y-29040000D02*
X24150000Y-31309000D01*
X24190000Y-24720000D02*
X24190000Y-26960000D01*
X24190000Y-29040000D02*
X24190000Y-31280000D01*
X24230000Y-24750000D02*
X24230000Y-26960000D01*
X24230000Y-29040000D02*
X24230000Y-31250000D01*
X24270000Y-24781000D02*
X24270000Y-26960000D01*
X24270000Y-29040000D02*
X24270000Y-31219000D01*
X24310000Y-24812000D02*
X24310000Y-26960000D01*
X24310000Y-29040000D02*
X24310000Y-31188000D01*
X24350000Y-24844000D02*
X24350000Y-26960000D01*
X24350000Y-29040000D02*
X24350000Y-31156000D01*
X24390000Y-24877000D02*
X24390000Y-26960000D01*
X24390000Y-29040000D02*
X24390000Y-31123000D01*
X24430000Y-24911000D02*
X24430000Y-26960000D01*
X24430000Y-29040000D02*
X24430000Y-31089000D01*
X24470000Y-24945000D02*
X24470000Y-26960000D01*
X24470000Y-29040000D02*
X24470000Y-31055000D01*
X24510000Y-24981000D02*
X24510000Y-26960000D01*
X24510000Y-29040000D02*
X24510000Y-31019000D01*
X24550000Y-25018000D02*
X24550000Y-30982000D01*
X24590000Y-25055000D02*
X24590000Y-30945000D01*
X24630000Y-25094000D02*
X24630000Y-30906000D01*
X24670000Y-25133000D02*
X24670000Y-30867000D01*
X24710000Y-25174000D02*
X24710000Y-30826000D01*
X24750000Y-25216000D02*
X24750000Y-30784000D01*
X24790000Y-25259000D02*
X24790000Y-30741000D01*
X24830000Y-25304000D02*
X24830000Y-30696000D01*
X24870000Y-25349000D02*
X24870000Y-30651000D01*
X24910000Y-25396000D02*
X24910000Y-30604000D01*
X24950000Y-25445000D02*
X24950000Y-30555000D01*
X24990000Y-25495000D02*
X24990000Y-30505000D01*
X25030000Y-25547000D02*
X25030000Y-30453000D01*
X25070000Y-25600000D02*
X25070000Y-30400000D01*
X25110000Y-25656000D02*
X25110000Y-30344000D01*
X25150000Y-25713000D02*
X25150000Y-30287000D01*
X25190000Y-25773000D02*
X25190000Y-30227000D01*
X25230000Y-25835000D02*
X25230000Y-30165000D01*
X25270000Y-25899000D02*
X25270000Y-30101000D01*
X25310000Y-25966000D02*
X25310000Y-30034000D01*
X25350000Y-26036000D02*
X25350000Y-29964000D01*
X25390000Y-26110000D02*
X25390000Y-29890000D01*
X25430000Y-26187000D02*
X25430000Y-29813000D01*
X25470000Y-26269000D02*
X25470000Y-29731000D01*
X25510000Y-26356000D02*
X25510000Y-29644000D01*
X25550000Y-26448000D02*
X25550000Y-29552000D01*
X25590000Y-26547000D02*
X25590000Y-29453000D01*
X25630000Y-26654000D02*
X25630000Y-29346000D01*
X25670000Y-26772000D02*
X25670000Y-29228000D01*
X25710000Y-26903000D02*
X25710000Y-29097000D01*
X25750000Y-27053000D02*
X25750000Y-28947000D01*
X25790000Y-27232000D02*
X25790000Y-28768000D01*
X25830000Y-27467000D02*
X25830000Y-28533000D01*
X25870000Y-28000000D02*
G75*
G02*
X17630000Y-28000000I-4120000J0D01*
G01*
X17630000Y-28000000D02*
G75*
G02*
X25870000Y-28000000I4120000J0D01*
G01*
%TO.C,R_DIV2*%
X67477500Y-17737258D02*
X67477500Y-17262742D01*
X68522500Y-17737258D02*
X68522500Y-17262742D01*
%TO.C,C1*%
X41738748Y-13265000D02*
X42261252Y-13265000D01*
X41738748Y-14735000D02*
X42261252Y-14735000D01*
%TO.C,J_AUX5*%
X15120000Y-74620000D02*
X16500000Y-74620000D01*
X15120000Y-76000000D02*
X15120000Y-74620000D01*
X15120000Y-77270000D02*
X15120000Y-82460000D01*
X15120000Y-77270000D02*
X17880000Y-77270000D01*
X15120000Y-82460000D02*
X17880000Y-82460000D01*
X17880000Y-77270000D02*
X17880000Y-82460000D01*
%TO.C,C_3V3_2*%
X88859420Y-17990000D02*
X89140580Y-17990000D01*
X88859420Y-19010000D02*
X89140580Y-19010000D01*
%TO.C,LED_CHG*%
X24515000Y-80765000D02*
X24515000Y-82235000D01*
X24515000Y-82235000D02*
X26800000Y-82235000D01*
X26800000Y-80765000D02*
X24515000Y-80765000D01*
%TO.C,R_DIV1*%
X67477500Y-14237258D02*
X67477500Y-13762742D01*
X68522500Y-14237258D02*
X68522500Y-13762742D01*
%TO.C,R_OE*%
X56762742Y-54477500D02*
X57237258Y-54477500D01*
X56762742Y-55522500D02*
X57237258Y-55522500D01*
%TO.C,R1*%
X42762742Y-7977500D02*
X43237258Y-7977500D01*
X42762742Y-9022500D02*
X43237258Y-9022500D01*
%TO.C,R_FB1_L*%
X19977500Y-47237258D02*
X19977500Y-46762742D01*
X21022500Y-47237258D02*
X21022500Y-46762742D01*
%TO.C,SW1*%
X35930000Y-3930000D02*
X40070000Y-3930000D01*
X35930000Y-4230000D02*
X35930000Y-3930000D01*
X35930000Y-7070000D02*
X35930000Y-6770000D01*
X40070000Y-3930000D02*
X40070000Y-4230000D01*
X40070000Y-6770000D02*
X40070000Y-7070000D01*
X40070000Y-7070000D02*
X35930000Y-7070000D01*
%TO.C,C_OUT3_R*%
X72859420Y-58490000D02*
X73140580Y-58490000D01*
X72859420Y-59510000D02*
X73140580Y-59510000D01*
%TO.C,LED_FULL*%
X24515000Y-86765000D02*
X24515000Y-88235000D01*
X24515000Y-88235000D02*
X26800000Y-88235000D01*
X26800000Y-86765000D02*
X24515000Y-86765000D01*
%TO.C,J_L2_C*%
X93540000Y-32620000D02*
X93540000Y-35380000D01*
X98730000Y-32620000D02*
X93540000Y-32620000D01*
X98730000Y-32620000D02*
X98730000Y-35380000D01*
X98730000Y-35380000D02*
X93540000Y-35380000D01*
X100000000Y-32620000D02*
X101380000Y-32620000D01*
X101380000Y-32620000D02*
X101380000Y-34000000D01*
%TO.C,J_AUX4*%
X10120000Y-74620000D02*
X11500000Y-74620000D01*
X10120000Y-76000000D02*
X10120000Y-74620000D01*
X10120000Y-77270000D02*
X10120000Y-82460000D01*
X10120000Y-77270000D02*
X12880000Y-77270000D01*
X10120000Y-82460000D02*
X12880000Y-82460000D01*
X12880000Y-77270000D02*
X12880000Y-82460000D01*
%TO.C,R2*%
X66762742Y-4977500D02*
X67237258Y-4977500D01*
X66762742Y-6022500D02*
X67237258Y-6022500D01*
%TO.C,J_L2_F*%
X93540000Y-37120000D02*
X93540000Y-39880000D01*
X98730000Y-37120000D02*
X93540000Y-37120000D01*
X98730000Y-37120000D02*
X98730000Y-39880000D01*
X98730000Y-39880000D02*
X93540000Y-39880000D01*
X100000000Y-37120000D02*
X101380000Y-37120000D01*
X101380000Y-37120000D02*
X101380000Y-38500000D01*
%TO.C,R_BZ*%
X59762742Y-54477500D02*
X60237258Y-54477500D01*
X59762742Y-55522500D02*
X60237258Y-55522500D01*
%TO.C,D_CATCH_R*%
X75750000Y-55410000D02*
X75750000Y-46900000D01*
X82250000Y-55410000D02*
X75750000Y-55410000D01*
X82250000Y-55410000D02*
X82250000Y-46900000D01*
%TO.C,C3*%
X42859420Y-4990000D02*
X43140580Y-4990000D01*
X42859420Y-6010000D02*
X43140580Y-6010000D01*
%TO.C,R_3V3_LED*%
X93762742Y-10477500D02*
X94237258Y-10477500D01*
X93762742Y-11522500D02*
X94237258Y-11522500D01*
%TO.C,R_LED_R*%
X88977500Y-57737258D02*
X88977500Y-57262742D01*
X90022500Y-57737258D02*
X90022500Y-57262742D01*
%TO.C,C_PCA1*%
X17490000Y-65140580D02*
X17490000Y-64859420D01*
X18510000Y-65140580D02*
X18510000Y-64859420D01*
%TO.C,C_OUT1_R*%
X64340302Y-49185000D02*
X65140302Y-49185000D01*
X64740302Y-48785000D02*
X64740302Y-49585000D01*
X68750000Y-47420000D02*
X68750000Y-55580000D01*
X68790000Y-47420000D02*
X68790000Y-55580000D01*
X68830000Y-47421000D02*
X68830000Y-55579000D01*
X68870000Y-47422000D02*
X68870000Y-55578000D01*
X68910000Y-47423000D02*
X68910000Y-55577000D01*
X68950000Y-47425000D02*
X68950000Y-55575000D01*
X68990000Y-47427000D02*
X68990000Y-55573000D01*
X69030000Y-47430000D02*
X69030000Y-55570000D01*
X69070000Y-47432000D02*
X69070000Y-55568000D01*
X69110000Y-47436000D02*
X69110000Y-55564000D01*
X69150000Y-47439000D02*
X69150000Y-55561000D01*
X69190000Y-47444000D02*
X69190000Y-55556000D01*
X69230000Y-47448000D02*
X69230000Y-55552000D01*
X69270000Y-47453000D02*
X69270000Y-55547000D01*
X69310000Y-47458000D02*
X69310000Y-55542000D01*
X69350000Y-47464000D02*
X69350000Y-55536000D01*
X69390000Y-47470000D02*
X69390000Y-55530000D01*
X69430000Y-47477000D02*
X69430000Y-55523000D01*
X69470000Y-47483000D02*
X69470000Y-50460000D01*
X69470000Y-52540000D02*
X69470000Y-55517000D01*
X69510000Y-47491000D02*
X69510000Y-50460000D01*
X69510000Y-52540000D02*
X69510000Y-55509000D01*
X69550000Y-47498000D02*
X69550000Y-50460000D01*
X69550000Y-52540000D02*
X69550000Y-55502000D01*
X69590000Y-47507000D02*
X69590000Y-50460000D01*
X69590000Y-52540000D02*
X69590000Y-55493000D01*
X69630000Y-47515000D02*
X69630000Y-50460000D01*
X69630000Y-52540000D02*
X69630000Y-55485000D01*
X69670000Y-47524000D02*
X69670000Y-50460000D01*
X69670000Y-52540000D02*
X69670000Y-55476000D01*
X69710000Y-47533000D02*
X69710000Y-50460000D01*
X69710000Y-52540000D02*
X69710000Y-55467000D01*
X69750000Y-47543000D02*
X69750000Y-50460000D01*
X69750000Y-52540000D02*
X69750000Y-55457000D01*
X69790000Y-47553000D02*
X69790000Y-50460000D01*
X69790000Y-52540000D02*
X69790000Y-55447000D01*
X69830000Y-47564000D02*
X69830000Y-50460000D01*
X69830000Y-52540000D02*
X69830000Y-55436000D01*
X69870000Y-47575000D02*
X69870000Y-50460000D01*
X69870000Y-52540000D02*
X69870000Y-55425000D01*
X69910000Y-47587000D02*
X69910000Y-50460000D01*
X69910000Y-52540000D02*
X69910000Y-55413000D01*
X69950000Y-47599000D02*
X69950000Y-50460000D01*
X69950000Y-52540000D02*
X69950000Y-55401000D01*
X69990000Y-47611000D02*
X69990000Y-50460000D01*
X69990000Y-52540000D02*
X69990000Y-55389000D01*
X70030000Y-47624000D02*
X70030000Y-50460000D01*
X70030000Y-52540000D02*
X70030000Y-55376000D01*
X70070000Y-47637000D02*
X70070000Y-50460000D01*
X70070000Y-52540000D02*
X70070000Y-55363000D01*
X70110000Y-47651000D02*
X70110000Y-50460000D01*
X70110000Y-52540000D02*
X70110000Y-55349000D01*
X70150000Y-47665000D02*
X70150000Y-50460000D01*
X70150000Y-52540000D02*
X70150000Y-55335000D01*
X70190000Y-47680000D02*
X70190000Y-50460000D01*
X70190000Y-52540000D02*
X70190000Y-55320000D01*
X70230000Y-47695000D02*
X70230000Y-50460000D01*
X70230000Y-52540000D02*
X70230000Y-55305000D01*
X70270000Y-47711000D02*
X70270000Y-50460000D01*
X70270000Y-52540000D02*
X70270000Y-55289000D01*
X70310000Y-47727000D02*
X70310000Y-50460000D01*
X70310000Y-52540000D02*
X70310000Y-55273000D01*
X70350000Y-47743000D02*
X70350000Y-50460000D01*
X70350000Y-52540000D02*
X70350000Y-55257000D01*
X70390000Y-47760000D02*
X70390000Y-50460000D01*
X70390000Y-52540000D02*
X70390000Y-55240000D01*
X70430000Y-47778000D02*
X70430000Y-50460000D01*
X70430000Y-52540000D02*
X70430000Y-55222000D01*
X70470000Y-47796000D02*
X70470000Y-50460000D01*
X70470000Y-52540000D02*
X70470000Y-55204000D01*
X70510000Y-47815000D02*
X70510000Y-50460000D01*
X70510000Y-52540000D02*
X70510000Y-55185000D01*
X70550000Y-47834000D02*
X70550000Y-50460000D01*
X70550000Y-52540000D02*
X70550000Y-55166000D01*
X70590000Y-47854000D02*
X70590000Y-50460000D01*
X70590000Y-52540000D02*
X70590000Y-55146000D01*
X70630000Y-47874000D02*
X70630000Y-50460000D01*
X70630000Y-52540000D02*
X70630000Y-55126000D01*
X70670000Y-47895000D02*
X70670000Y-50460000D01*
X70670000Y-52540000D02*
X70670000Y-55105000D01*
X70710000Y-47916000D02*
X70710000Y-50460000D01*
X70710000Y-52540000D02*
X70710000Y-55084000D01*
X70750000Y-47938000D02*
X70750000Y-50460000D01*
X70750000Y-52540000D02*
X70750000Y-55062000D01*
X70790000Y-47961000D02*
X70790000Y-50460000D01*
X70790000Y-52540000D02*
X70790000Y-55039000D01*
X70830000Y-47984000D02*
X70830000Y-50460000D01*
X70830000Y-52540000D02*
X70830000Y-55016000D01*
X70870000Y-48007000D02*
X70870000Y-50460000D01*
X70870000Y-52540000D02*
X70870000Y-54993000D01*
X70910000Y-48032000D02*
X70910000Y-50460000D01*
X70910000Y-52540000D02*
X70910000Y-54968000D01*
X70950000Y-48057000D02*
X70950000Y-50460000D01*
X70950000Y-52540000D02*
X70950000Y-54943000D01*
X70990000Y-48082000D02*
X70990000Y-50460000D01*
X70990000Y-52540000D02*
X70990000Y-54918000D01*
X71030000Y-48108000D02*
X71030000Y-50460000D01*
X71030000Y-52540000D02*
X71030000Y-54892000D01*
X71070000Y-48135000D02*
X71070000Y-50460000D01*
X71070000Y-52540000D02*
X71070000Y-54865000D01*
X71110000Y-48163000D02*
X71110000Y-50460000D01*
X71110000Y-52540000D02*
X71110000Y-54837000D01*
X71150000Y-48191000D02*
X71150000Y-50460000D01*
X71150000Y-52540000D02*
X71150000Y-54809000D01*
X71190000Y-48220000D02*
X71190000Y-50460000D01*
X71190000Y-52540000D02*
X71190000Y-54780000D01*
X71230000Y-48250000D02*
X71230000Y-50460000D01*
X71230000Y-52540000D02*
X71230000Y-54750000D01*
X71270000Y-48281000D02*
X71270000Y-50460000D01*
X71270000Y-52540000D02*
X71270000Y-54719000D01*
X71310000Y-48312000D02*
X71310000Y-50460000D01*
X71310000Y-52540000D02*
X71310000Y-54688000D01*
X71350000Y-48344000D02*
X71350000Y-50460000D01*
X71350000Y-52540000D02*
X71350000Y-54656000D01*
X71390000Y-48377000D02*
X71390000Y-50460000D01*
X71390000Y-52540000D02*
X71390000Y-54623000D01*
X71430000Y-48411000D02*
X71430000Y-50460000D01*
X71430000Y-52540000D02*
X71430000Y-54589000D01*
X71470000Y-48445000D02*
X71470000Y-50460000D01*
X71470000Y-52540000D02*
X71470000Y-54555000D01*
X71510000Y-48481000D02*
X71510000Y-50460000D01*
X71510000Y-52540000D02*
X71510000Y-54519000D01*
X71550000Y-48518000D02*
X71550000Y-54482000D01*
X71590000Y-48555000D02*
X71590000Y-54445000D01*
X71630000Y-48594000D02*
X71630000Y-54406000D01*
X71670000Y-48633000D02*
X71670000Y-54367000D01*
X71710000Y-48674000D02*
X71710000Y-54326000D01*
X71750000Y-48716000D02*
X71750000Y-54284000D01*
X71790000Y-48759000D02*
X71790000Y-54241000D01*
X71830000Y-48804000D02*
X71830000Y-54196000D01*
X71870000Y-48849000D02*
X71870000Y-54151000D01*
X71910000Y-48896000D02*
X71910000Y-54104000D01*
X71950000Y-48945000D02*
X71950000Y-54055000D01*
X71990000Y-48995000D02*
X71990000Y-54005000D01*
X72030000Y-49047000D02*
X72030000Y-53953000D01*
X72070000Y-49100000D02*
X72070000Y-53900000D01*
X72110000Y-49156000D02*
X72110000Y-53844000D01*
X72150000Y-49213000D02*
X72150000Y-53787000D01*
X72190000Y-49273000D02*
X72190000Y-53727000D01*
X72230000Y-49335000D02*
X72230000Y-53665000D01*
X72270000Y-49399000D02*
X72270000Y-53601000D01*
X72310000Y-49466000D02*
X72310000Y-53534000D01*
X72350000Y-49536000D02*
X72350000Y-53464000D01*
X72390000Y-49610000D02*
X72390000Y-53390000D01*
X72430000Y-49687000D02*
X72430000Y-53313000D01*
X72470000Y-49769000D02*
X72470000Y-53231000D01*
X72510000Y-49856000D02*
X72510000Y-53144000D01*
X72550000Y-49948000D02*
X72550000Y-53052000D01*
X72590000Y-50047000D02*
X72590000Y-52953000D01*
X72630000Y-50154000D02*
X72630000Y-52846000D01*
X72670000Y-50272000D02*
X72670000Y-52728000D01*
X72710000Y-50403000D02*
X72710000Y-52597000D01*
X72750000Y-50553000D02*
X72750000Y-52447000D01*
X72790000Y-50732000D02*
X72790000Y-52268000D01*
X72830000Y-50967000D02*
X72830000Y-52033000D01*
X72870000Y-51500000D02*
G75*
G02*
X64630000Y-51500000I-4120000J0D01*
G01*
X64630000Y-51500000D02*
G75*
G02*
X72870000Y-51500000I4120000J0D01*
G01*
%TO.C,C_IN1_R*%
X84340302Y-23685000D02*
X85140302Y-23685000D01*
X84740302Y-23285000D02*
X84740302Y-24085000D01*
X88750000Y-21920000D02*
X88750000Y-30080000D01*
X88790000Y-21920000D02*
X88790000Y-30080000D01*
X88830000Y-21921000D02*
X88830000Y-30079000D01*
X88870000Y-21922000D02*
X88870000Y-30078000D01*
X88910000Y-21923000D02*
X88910000Y-30077000D01*
X88950000Y-21925000D02*
X88950000Y-30075000D01*
X88990000Y-21927000D02*
X88990000Y-30073000D01*
X89030000Y-21930000D02*
X89030000Y-30070000D01*
X89070000Y-21932000D02*
X89070000Y-30068000D01*
X89110000Y-21936000D02*
X89110000Y-30064000D01*
X89150000Y-21939000D02*
X89150000Y-30061000D01*
X89190000Y-21944000D02*
X89190000Y-30056000D01*
X89230000Y-21948000D02*
X89230000Y-30052000D01*
X89270000Y-21953000D02*
X89270000Y-30047000D01*
X89310000Y-21958000D02*
X89310000Y-30042000D01*
X89350000Y-21964000D02*
X89350000Y-30036000D01*
X89390000Y-21970000D02*
X89390000Y-30030000D01*
X89430000Y-21977000D02*
X89430000Y-30023000D01*
X89470000Y-21983000D02*
X89470000Y-24960000D01*
X89470000Y-27040000D02*
X89470000Y-30017000D01*
X89510000Y-21991000D02*
X89510000Y-24960000D01*
X89510000Y-27040000D02*
X89510000Y-30009000D01*
X89550000Y-21998000D02*
X89550000Y-24960000D01*
X89550000Y-27040000D02*
X89550000Y-30002000D01*
X89590000Y-22007000D02*
X89590000Y-24960000D01*
X89590000Y-27040000D02*
X89590000Y-29993000D01*
X89630000Y-22015000D02*
X89630000Y-24960000D01*
X89630000Y-27040000D02*
X89630000Y-29985000D01*
X89670000Y-22024000D02*
X89670000Y-24960000D01*
X89670000Y-27040000D02*
X89670000Y-29976000D01*
X89710000Y-22033000D02*
X89710000Y-24960000D01*
X89710000Y-27040000D02*
X89710000Y-29967000D01*
X89750000Y-22043000D02*
X89750000Y-24960000D01*
X89750000Y-27040000D02*
X89750000Y-29957000D01*
X89790000Y-22053000D02*
X89790000Y-24960000D01*
X89790000Y-27040000D02*
X89790000Y-29947000D01*
X89830000Y-22064000D02*
X89830000Y-24960000D01*
X89830000Y-27040000D02*
X89830000Y-29936000D01*
X89870000Y-22075000D02*
X89870000Y-24960000D01*
X89870000Y-27040000D02*
X89870000Y-29925000D01*
X89910000Y-22087000D02*
X89910000Y-24960000D01*
X89910000Y-27040000D02*
X89910000Y-29913000D01*
X89950000Y-22099000D02*
X89950000Y-24960000D01*
X89950000Y-27040000D02*
X89950000Y-29901000D01*
X89990000Y-22111000D02*
X89990000Y-24960000D01*
X89990000Y-27040000D02*
X89990000Y-29889000D01*
X90030000Y-22124000D02*
X90030000Y-24960000D01*
X90030000Y-27040000D02*
X90030000Y-29876000D01*
X90070000Y-22137000D02*
X90070000Y-24960000D01*
X90070000Y-27040000D02*
X90070000Y-29863000D01*
X90110000Y-22151000D02*
X90110000Y-24960000D01*
X90110000Y-27040000D02*
X90110000Y-29849000D01*
X90150000Y-22165000D02*
X90150000Y-24960000D01*
X90150000Y-27040000D02*
X90150000Y-29835000D01*
X90190000Y-22180000D02*
X90190000Y-24960000D01*
X90190000Y-27040000D02*
X90190000Y-29820000D01*
X90230000Y-22195000D02*
X90230000Y-24960000D01*
X90230000Y-27040000D02*
X90230000Y-29805000D01*
X90270000Y-22211000D02*
X90270000Y-24960000D01*
X90270000Y-27040000D02*
X90270000Y-29789000D01*
X90310000Y-22227000D02*
X90310000Y-24960000D01*
X90310000Y-27040000D02*
X90310000Y-29773000D01*
X90350000Y-22243000D02*
X90350000Y-24960000D01*
X90350000Y-27040000D02*
X90350000Y-29757000D01*
X90390000Y-22260000D02*
X90390000Y-24960000D01*
X90390000Y-27040000D02*
X90390000Y-29740000D01*
X90430000Y-22278000D02*
X90430000Y-24960000D01*
X90430000Y-27040000D02*
X90430000Y-29722000D01*
X90470000Y-22296000D02*
X90470000Y-24960000D01*
X90470000Y-27040000D02*
X90470000Y-29704000D01*
X90510000Y-22315000D02*
X90510000Y-24960000D01*
X90510000Y-27040000D02*
X90510000Y-29685000D01*
X90550000Y-22334000D02*
X90550000Y-24960000D01*
X90550000Y-27040000D02*
X90550000Y-29666000D01*
X90590000Y-22354000D02*
X90590000Y-24960000D01*
X90590000Y-27040000D02*
X90590000Y-29646000D01*
X90630000Y-22374000D02*
X90630000Y-24960000D01*
X90630000Y-27040000D02*
X90630000Y-29626000D01*
X90670000Y-22395000D02*
X90670000Y-24960000D01*
X90670000Y-27040000D02*
X90670000Y-29605000D01*
X90710000Y-22416000D02*
X90710000Y-24960000D01*
X90710000Y-27040000D02*
X90710000Y-29584000D01*
X90750000Y-22438000D02*
X90750000Y-24960000D01*
X90750000Y-27040000D02*
X90750000Y-29562000D01*
X90790000Y-22461000D02*
X90790000Y-24960000D01*
X90790000Y-27040000D02*
X90790000Y-29539000D01*
X90830000Y-22484000D02*
X90830000Y-24960000D01*
X90830000Y-27040000D02*
X90830000Y-29516000D01*
X90870000Y-22507000D02*
X90870000Y-24960000D01*
X90870000Y-27040000D02*
X90870000Y-29493000D01*
X90910000Y-22532000D02*
X90910000Y-24960000D01*
X90910000Y-27040000D02*
X90910000Y-29468000D01*
X90950000Y-22557000D02*
X90950000Y-24960000D01*
X90950000Y-27040000D02*
X90950000Y-29443000D01*
X90990000Y-22582000D02*
X90990000Y-24960000D01*
X90990000Y-27040000D02*
X90990000Y-29418000D01*
X91030000Y-22608000D02*
X91030000Y-24960000D01*
X91030000Y-27040000D02*
X91030000Y-29392000D01*
X91070000Y-22635000D02*
X91070000Y-24960000D01*
X91070000Y-27040000D02*
X91070000Y-29365000D01*
X91110000Y-22663000D02*
X91110000Y-24960000D01*
X91110000Y-27040000D02*
X91110000Y-29337000D01*
X91150000Y-22691000D02*
X91150000Y-24960000D01*
X91150000Y-27040000D02*
X91150000Y-29309000D01*
X91190000Y-22720000D02*
X91190000Y-24960000D01*
X91190000Y-27040000D02*
X91190000Y-29280000D01*
X91230000Y-22750000D02*
X91230000Y-24960000D01*
X91230000Y-27040000D02*
X91230000Y-29250000D01*
X91270000Y-22781000D02*
X91270000Y-24960000D01*
X91270000Y-27040000D02*
X91270000Y-29219000D01*
X91310000Y-22812000D02*
X91310000Y-24960000D01*
X91310000Y-27040000D02*
X91310000Y-29188000D01*
X91350000Y-22844000D02*
X91350000Y-24960000D01*
X91350000Y-27040000D02*
X91350000Y-29156000D01*
X91390000Y-22877000D02*
X91390000Y-24960000D01*
X91390000Y-27040000D02*
X91390000Y-29123000D01*
X91430000Y-22911000D02*
X91430000Y-24960000D01*
X91430000Y-27040000D02*
X91430000Y-29089000D01*
X91470000Y-22945000D02*
X91470000Y-24960000D01*
X91470000Y-27040000D02*
X91470000Y-29055000D01*
X91510000Y-22981000D02*
X91510000Y-24960000D01*
X91510000Y-27040000D02*
X91510000Y-29019000D01*
X91550000Y-23018000D02*
X91550000Y-28982000D01*
X91590000Y-23055000D02*
X91590000Y-28945000D01*
X91630000Y-23094000D02*
X91630000Y-28906000D01*
X91670000Y-23133000D02*
X91670000Y-28867000D01*
X91710000Y-23174000D02*
X91710000Y-28826000D01*
X91750000Y-23216000D02*
X91750000Y-28784000D01*
X91790000Y-23259000D02*
X91790000Y-28741000D01*
X91830000Y-23304000D02*
X91830000Y-28696000D01*
X91870000Y-23349000D02*
X91870000Y-28651000D01*
X91910000Y-23396000D02*
X91910000Y-28604000D01*
X91950000Y-23445000D02*
X91950000Y-28555000D01*
X91990000Y-23495000D02*
X91990000Y-28505000D01*
X92030000Y-23547000D02*
X92030000Y-28453000D01*
X92070000Y-23600000D02*
X92070000Y-28400000D01*
X92110000Y-23656000D02*
X92110000Y-28344000D01*
X92150000Y-23713000D02*
X92150000Y-28287000D01*
X92190000Y-23773000D02*
X92190000Y-28227000D01*
X92230000Y-23835000D02*
X92230000Y-28165000D01*
X92270000Y-23899000D02*
X92270000Y-28101000D01*
X92310000Y-23966000D02*
X92310000Y-28034000D01*
X92350000Y-24036000D02*
X92350000Y-27964000D01*
X92390000Y-24110000D02*
X92390000Y-27890000D01*
X92430000Y-24187000D02*
X92430000Y-27813000D01*
X92470000Y-24269000D02*
X92470000Y-27731000D01*
X92510000Y-24356000D02*
X92510000Y-27644000D01*
X92550000Y-24448000D02*
X92550000Y-27552000D01*
X92590000Y-24547000D02*
X92590000Y-27453000D01*
X92630000Y-24654000D02*
X92630000Y-27346000D01*
X92670000Y-24772000D02*
X92670000Y-27228000D01*
X92710000Y-24903000D02*
X92710000Y-27097000D01*
X92750000Y-25053000D02*
X92750000Y-26947000D01*
X92790000Y-25232000D02*
X92790000Y-26768000D01*
X92830000Y-25467000D02*
X92830000Y-26533000D01*
X92870000Y-26000000D02*
G75*
G02*
X84630000Y-26000000I-4120000J0D01*
G01*
X84630000Y-26000000D02*
G75*
G02*
X92870000Y-26000000I4120000J0D01*
G01*
%TO.C,C_ISO2*%
X73738748Y-27265000D02*
X74261252Y-27265000D01*
X73738748Y-28735000D02*
X74261252Y-28735000D01*
%TO.C,J_L4_F*%
X8620000Y-20880000D02*
X8620000Y-19500000D01*
X10000000Y-20880000D02*
X8620000Y-20880000D01*
X11270000Y-18120000D02*
X16460000Y-18120000D01*
X11270000Y-20880000D02*
X11270000Y-18120000D01*
X11270000Y-20880000D02*
X16460000Y-20880000D01*
X16460000Y-20880000D02*
X16460000Y-18120000D01*
%TO.C,C_BAT2*%
X50490000Y-75640580D02*
X50490000Y-75359420D01*
X51510000Y-75640580D02*
X51510000Y-75359420D01*
%TO.C,R_LED_L*%
X19977500Y-57737258D02*
X19977500Y-57262742D01*
X21022500Y-57737258D02*
X21022500Y-57262742D01*
%TO.C,U1*%
X45800000Y-1700000D02*
X64200000Y-1700000D01*
X45800000Y-20300000D02*
X45800000Y-21300000D01*
X45800000Y-21300000D02*
X47300000Y-21300000D01*
X64200000Y-1700000D02*
X64200000Y-2400000D01*
X64200000Y-21300000D02*
X62700000Y-21300000D01*
X64200000Y-21300000D02*
X64200000Y-20300000D01*
X45800000Y-2450000D02*
X45300000Y-2450000D01*
X45800000Y-1950000D01*
X45800000Y-2450000D01*
G36*
X45800000Y-2450000D02*
G01*
X45300000Y-2450000D01*
X45800000Y-1950000D01*
X45800000Y-2450000D01*
G37*
%TO.C,D_ISO*%
X78360000Y-11000000D02*
X74350000Y-11000000D01*
X78360000Y-13000000D02*
X74350000Y-13000000D01*
X78360000Y-13000000D02*
X78360000Y-11000000D01*
%TO.C,C_MPU5*%
X57359420Y-49990000D02*
X57640580Y-49990000D01*
X57359420Y-51010000D02*
X57640580Y-51010000D01*
%TO.C,SW_PWR*%
X53590000Y-79740000D02*
X62410000Y-79740000D01*
X53590000Y-80050000D02*
X53590000Y-79740000D01*
X53590000Y-84260000D02*
X53590000Y-83950000D01*
X55500000Y-79040000D02*
X56000000Y-79540000D01*
X56000000Y-79540000D02*
X56500000Y-79040000D01*
X56500000Y-79040000D02*
X55500000Y-79040000D01*
X62410000Y-79740000D02*
X62410000Y-80050000D01*
X62410000Y-84260000D02*
X53590000Y-84260000D01*
X62410000Y-84260000D02*
X62410000Y-83950000D01*
%TO.C,SW2*%
X69930000Y-3930000D02*
X74070000Y-3930000D01*
X69930000Y-4230000D02*
X69930000Y-3930000D01*
X69930000Y-7070000D02*
X69930000Y-6770000D01*
X74070000Y-3930000D02*
X74070000Y-4230000D01*
X74070000Y-6770000D02*
X74070000Y-7070000D01*
X74070000Y-7070000D02*
X69930000Y-7070000D01*
%TO.C,J_L2_T*%
X93540000Y-41620000D02*
X93540000Y-44380000D01*
X98730000Y-41620000D02*
X93540000Y-41620000D01*
X98730000Y-41620000D02*
X98730000Y-44380000D01*
X98730000Y-44380000D02*
X93540000Y-44380000D01*
X100000000Y-41620000D02*
X101380000Y-41620000D01*
X101380000Y-41620000D02*
X101380000Y-43000000D01*
%TO.C,J_L1_C*%
X93540000Y-13620000D02*
X93540000Y-16380000D01*
X98730000Y-13620000D02*
X93540000Y-13620000D01*
X98730000Y-13620000D02*
X98730000Y-16380000D01*
X98730000Y-16380000D02*
X93540000Y-16380000D01*
X100000000Y-13620000D02*
X101380000Y-13620000D01*
X101380000Y-13620000D02*
X101380000Y-15000000D01*
%TO.C,C_OUT3_L*%
X36859420Y-58490000D02*
X37140580Y-58490000D01*
X36859420Y-59510000D02*
X37140580Y-59510000D01*
%TO.C,J_L6_T*%
X8620000Y-63380000D02*
X8620000Y-62000000D01*
X10000000Y-63380000D02*
X8620000Y-63380000D01*
X11270000Y-60620000D02*
X16460000Y-60620000D01*
X11270000Y-63380000D02*
X11270000Y-60620000D01*
X11270000Y-63380000D02*
X16460000Y-63380000D01*
X16460000Y-63380000D02*
X16460000Y-60620000D01*
%TO.C,L_CHG*%
X40800000Y-69300000D02*
X48200000Y-69300000D01*
X40800000Y-71600000D02*
X40800000Y-69300000D01*
X40800000Y-76700000D02*
X40800000Y-74400000D01*
X48200000Y-69300000D02*
X48200000Y-71600000D01*
X48200000Y-74400000D02*
X48200000Y-76700000D01*
X48200000Y-76700000D02*
X40800000Y-76700000D01*
%TO.C,J_AUX1*%
X89120000Y-74620000D02*
X90500000Y-74620000D01*
X89120000Y-76000000D02*
X89120000Y-74620000D01*
X89120000Y-77270000D02*
X89120000Y-82460000D01*
X89120000Y-77270000D02*
X91880000Y-77270000D01*
X89120000Y-82460000D02*
X91880000Y-82460000D01*
X91880000Y-77270000D02*
X91880000Y-82460000D01*
%TO.C,C_MPU2*%
X52359420Y-49990000D02*
X52640580Y-49990000D01*
X52359420Y-51010000D02*
X52640580Y-51010000D01*
%TO.C,C_OUT1_L*%
X40340302Y-49185000D02*
X41140302Y-49185000D01*
X40740302Y-48785000D02*
X40740302Y-49585000D01*
X44750000Y-47420000D02*
X44750000Y-55580000D01*
X44790000Y-47420000D02*
X44790000Y-55580000D01*
X44830000Y-47421000D02*
X44830000Y-55579000D01*
X44870000Y-47422000D02*
X44870000Y-55578000D01*
X44910000Y-47423000D02*
X44910000Y-55577000D01*
X44950000Y-47425000D02*
X44950000Y-55575000D01*
X44990000Y-47427000D02*
X44990000Y-55573000D01*
X45030000Y-47430000D02*
X45030000Y-55570000D01*
X45070000Y-47432000D02*
X45070000Y-55568000D01*
X45110000Y-47436000D02*
X45110000Y-55564000D01*
X45150000Y-47439000D02*
X45150000Y-55561000D01*
X45190000Y-47444000D02*
X45190000Y-55556000D01*
X45230000Y-47448000D02*
X45230000Y-55552000D01*
X45270000Y-47453000D02*
X45270000Y-55547000D01*
X45310000Y-47458000D02*
X45310000Y-55542000D01*
X45350000Y-47464000D02*
X45350000Y-55536000D01*
X45390000Y-47470000D02*
X45390000Y-55530000D01*
X45430000Y-47477000D02*
X45430000Y-55523000D01*
X45470000Y-47483000D02*
X45470000Y-50460000D01*
X45470000Y-52540000D02*
X45470000Y-55517000D01*
X45510000Y-47491000D02*
X45510000Y-50460000D01*
X45510000Y-52540000D02*
X45510000Y-55509000D01*
X45550000Y-47498000D02*
X45550000Y-50460000D01*
X45550000Y-52540000D02*
X45550000Y-55502000D01*
X45590000Y-47507000D02*
X45590000Y-50460000D01*
X45590000Y-52540000D02*
X45590000Y-55493000D01*
X45630000Y-47515000D02*
X45630000Y-50460000D01*
X45630000Y-52540000D02*
X45630000Y-55485000D01*
X45670000Y-47524000D02*
X45670000Y-50460000D01*
X45670000Y-52540000D02*
X45670000Y-55476000D01*
X45710000Y-47533000D02*
X45710000Y-50460000D01*
X45710000Y-52540000D02*
X45710000Y-55467000D01*
X45750000Y-47543000D02*
X45750000Y-50460000D01*
X45750000Y-52540000D02*
X45750000Y-55457000D01*
X45790000Y-47553000D02*
X45790000Y-50460000D01*
X45790000Y-52540000D02*
X45790000Y-55447000D01*
X45830000Y-47564000D02*
X45830000Y-50460000D01*
X45830000Y-52540000D02*
X45830000Y-55436000D01*
X45870000Y-47575000D02*
X45870000Y-50460000D01*
X45870000Y-52540000D02*
X45870000Y-55425000D01*
X45910000Y-47587000D02*
X45910000Y-50460000D01*
X45910000Y-52540000D02*
X45910000Y-55413000D01*
X45950000Y-47599000D02*
X45950000Y-50460000D01*
X45950000Y-52540000D02*
X45950000Y-55401000D01*
X45990000Y-47611000D02*
X45990000Y-50460000D01*
X45990000Y-52540000D02*
X45990000Y-55389000D01*
X46030000Y-47624000D02*
X46030000Y-50460000D01*
X46030000Y-52540000D02*
X46030000Y-55376000D01*
X46070000Y-47637000D02*
X46070000Y-50460000D01*
X46070000Y-52540000D02*
X46070000Y-55363000D01*
X46110000Y-47651000D02*
X46110000Y-50460000D01*
X46110000Y-52540000D02*
X46110000Y-55349000D01*
X46150000Y-47665000D02*
X46150000Y-50460000D01*
X46150000Y-52540000D02*
X46150000Y-55335000D01*
X46190000Y-47680000D02*
X46190000Y-50460000D01*
X46190000Y-52540000D02*
X46190000Y-55320000D01*
X46230000Y-47695000D02*
X46230000Y-50460000D01*
X46230000Y-52540000D02*
X46230000Y-55305000D01*
X46270000Y-47711000D02*
X46270000Y-50460000D01*
X46270000Y-52540000D02*
X46270000Y-55289000D01*
X46310000Y-47727000D02*
X46310000Y-50460000D01*
X46310000Y-52540000D02*
X46310000Y-55273000D01*
X46350000Y-47743000D02*
X46350000Y-50460000D01*
X46350000Y-52540000D02*
X46350000Y-55257000D01*
X46390000Y-47760000D02*
X46390000Y-50460000D01*
X46390000Y-52540000D02*
X46390000Y-55240000D01*
X46430000Y-47778000D02*
X46430000Y-50460000D01*
X46430000Y-52540000D02*
X46430000Y-55222000D01*
X46470000Y-47796000D02*
X46470000Y-50460000D01*
X46470000Y-52540000D02*
X46470000Y-55204000D01*
X46510000Y-47815000D02*
X46510000Y-50460000D01*
X46510000Y-52540000D02*
X46510000Y-55185000D01*
X46550000Y-47834000D02*
X46550000Y-50460000D01*
X46550000Y-52540000D02*
X46550000Y-55166000D01*
X46590000Y-47854000D02*
X46590000Y-50460000D01*
X46590000Y-52540000D02*
X46590000Y-55146000D01*
X46630000Y-47874000D02*
X46630000Y-50460000D01*
X46630000Y-52540000D02*
X46630000Y-55126000D01*
X46670000Y-47895000D02*
X46670000Y-50460000D01*
X46670000Y-52540000D02*
X46670000Y-55105000D01*
X46710000Y-47916000D02*
X46710000Y-50460000D01*
X46710000Y-52540000D02*
X46710000Y-55084000D01*
X46750000Y-47938000D02*
X46750000Y-50460000D01*
X46750000Y-52540000D02*
X46750000Y-55062000D01*
X46790000Y-47961000D02*
X46790000Y-50460000D01*
X46790000Y-52540000D02*
X46790000Y-55039000D01*
X46830000Y-47984000D02*
X46830000Y-50460000D01*
X46830000Y-52540000D02*
X46830000Y-55016000D01*
X46870000Y-48007000D02*
X46870000Y-50460000D01*
X46870000Y-52540000D02*
X46870000Y-54993000D01*
X46910000Y-48032000D02*
X46910000Y-50460000D01*
X46910000Y-52540000D02*
X46910000Y-54968000D01*
X46950000Y-48057000D02*
X46950000Y-50460000D01*
X46950000Y-52540000D02*
X46950000Y-54943000D01*
X46990000Y-48082000D02*
X46990000Y-50460000D01*
X46990000Y-52540000D02*
X46990000Y-54918000D01*
X47030000Y-48108000D02*
X47030000Y-50460000D01*
X47030000Y-52540000D02*
X47030000Y-54892000D01*
X47070000Y-48135000D02*
X47070000Y-50460000D01*
X47070000Y-52540000D02*
X47070000Y-54865000D01*
X47110000Y-48163000D02*
X47110000Y-50460000D01*
X47110000Y-52540000D02*
X47110000Y-54837000D01*
X47150000Y-48191000D02*
X47150000Y-50460000D01*
X47150000Y-52540000D02*
X47150000Y-54809000D01*
X47190000Y-48220000D02*
X47190000Y-50460000D01*
X47190000Y-52540000D02*
X47190000Y-54780000D01*
X47230000Y-48250000D02*
X47230000Y-50460000D01*
X47230000Y-52540000D02*
X47230000Y-54750000D01*
X47270000Y-48281000D02*
X47270000Y-50460000D01*
X47270000Y-52540000D02*
X47270000Y-54719000D01*
X47310000Y-48312000D02*
X47310000Y-50460000D01*
X47310000Y-52540000D02*
X47310000Y-54688000D01*
X47350000Y-48344000D02*
X47350000Y-50460000D01*
X47350000Y-52540000D02*
X47350000Y-54656000D01*
X47390000Y-48377000D02*
X47390000Y-50460000D01*
X47390000Y-52540000D02*
X47390000Y-54623000D01*
X47430000Y-48411000D02*
X47430000Y-50460000D01*
X47430000Y-52540000D02*
X47430000Y-54589000D01*
X47470000Y-48445000D02*
X47470000Y-50460000D01*
X47470000Y-52540000D02*
X47470000Y-54555000D01*
X47510000Y-48481000D02*
X47510000Y-50460000D01*
X47510000Y-52540000D02*
X47510000Y-54519000D01*
X47550000Y-48518000D02*
X47550000Y-54482000D01*
X47590000Y-48555000D02*
X47590000Y-54445000D01*
X47630000Y-48594000D02*
X47630000Y-54406000D01*
X47670000Y-48633000D02*
X47670000Y-54367000D01*
X47710000Y-48674000D02*
X47710000Y-54326000D01*
X47750000Y-48716000D02*
X47750000Y-54284000D01*
X47790000Y-48759000D02*
X47790000Y-54241000D01*
X47830000Y-48804000D02*
X47830000Y-54196000D01*
X47870000Y-48849000D02*
X47870000Y-54151000D01*
X47910000Y-48896000D02*
X47910000Y-54104000D01*
X47950000Y-48945000D02*
X47950000Y-54055000D01*
X47990000Y-48995000D02*
X47990000Y-54005000D01*
X48030000Y-49047000D02*
X48030000Y-53953000D01*
X48070000Y-49100000D02*
X48070000Y-53900000D01*
X48110000Y-49156000D02*
X48110000Y-53844000D01*
X48150000Y-49213000D02*
X48150000Y-53787000D01*
X48190000Y-49273000D02*
X48190000Y-53727000D01*
X48230000Y-49335000D02*
X48230000Y-53665000D01*
X48270000Y-49399000D02*
X48270000Y-53601000D01*
X48310000Y-49466000D02*
X48310000Y-53534000D01*
X48350000Y-49536000D02*
X48350000Y-53464000D01*
X48390000Y-49610000D02*
X48390000Y-53390000D01*
X48430000Y-49687000D02*
X48430000Y-53313000D01*
X48470000Y-49769000D02*
X48470000Y-53231000D01*
X48510000Y-49856000D02*
X48510000Y-53144000D01*
X48550000Y-49948000D02*
X48550000Y-53052000D01*
X48590000Y-50047000D02*
X48590000Y-52953000D01*
X48630000Y-50154000D02*
X48630000Y-52846000D01*
X48670000Y-50272000D02*
X48670000Y-52728000D01*
X48710000Y-50403000D02*
X48710000Y-52597000D01*
X48750000Y-50553000D02*
X48750000Y-52447000D01*
X48790000Y-50732000D02*
X48790000Y-52268000D01*
X48830000Y-50967000D02*
X48830000Y-52033000D01*
X48870000Y-51500000D02*
G75*
G02*
X40630000Y-51500000I-4120000J0D01*
G01*
X40630000Y-51500000D02*
G75*
G02*
X48870000Y-51500000I4120000J0D01*
G01*
%TO.C,J_AUX2*%
X93620000Y-74620000D02*
X95000000Y-74620000D01*
X93620000Y-76000000D02*
X93620000Y-74620000D01*
X93620000Y-77270000D02*
X93620000Y-82460000D01*
X93620000Y-77270000D02*
X96380000Y-77270000D01*
X93620000Y-82460000D02*
X96380000Y-82460000D01*
X96380000Y-77270000D02*
X96380000Y-82460000D01*
%TO.C,C_PCA2*%
X17265000Y-69261252D02*
X17265000Y-68738748D01*
X18735000Y-69261252D02*
X18735000Y-68738748D01*
%TO.C,J_L3_T*%
X93540000Y-60620000D02*
X93540000Y-63380000D01*
X98730000Y-60620000D02*
X93540000Y-60620000D01*
X98730000Y-60620000D02*
X98730000Y-63380000D01*
X98730000Y-63380000D02*
X93540000Y-63380000D01*
X100000000Y-60620000D02*
X101380000Y-60620000D01*
X101380000Y-60620000D02*
X101380000Y-62000000D01*
%TO.C,U2*%
X33890000Y-70890000D02*
X34365000Y-70890000D01*
X33890000Y-71365000D02*
X33890000Y-70890000D01*
X33890000Y-75110000D02*
X33890000Y-74635000D01*
X34365000Y-75110000D02*
X33890000Y-75110000D01*
X37635000Y-70890000D02*
X38110000Y-70890000D01*
X38110000Y-70890000D02*
X38110000Y-71365000D01*
X38110000Y-74635000D02*
X38110000Y-75110000D01*
X38110000Y-75110000D02*
X37635000Y-75110000D01*
X33360000Y-71750000D02*
X33030000Y-71990000D01*
X33030000Y-71510000D01*
X33360000Y-71750000D01*
G36*
X33360000Y-71750000D02*
G01*
X33030000Y-71990000D01*
X33030000Y-71510000D01*
X33360000Y-71750000D01*
G37*
%TO.C,C_PCA4*%
X91265000Y-69261252D02*
X91265000Y-68738748D01*
X92735000Y-69261252D02*
X92735000Y-68738748D01*
%TO.C,LED_3V3*%
X92515000Y-6765000D02*
X92515000Y-8235000D01*
X92515000Y-8235000D02*
X94800000Y-8235000D01*
X94800000Y-6765000D02*
X92515000Y-6765000D01*
%TO.C,R_FB2_R*%
X88977500Y-50737258D02*
X88977500Y-50262742D01*
X90022500Y-50737258D02*
X90022500Y-50262742D01*
%TO.C,U3_L*%
X22675000Y-33800000D02*
X22675000Y-34750000D01*
X22675000Y-44200000D02*
X22675000Y-43250000D01*
X24040000Y-33800000D02*
X22675000Y-33800000D01*
X24040000Y-44200000D02*
X22675000Y-44200000D01*
X19850000Y-34790000D02*
X19510000Y-34320000D01*
X20190000Y-34320000D01*
X19850000Y-34790000D01*
G36*
X19850000Y-34790000D02*
G01*
X19510000Y-34320000D01*
X20190000Y-34320000D01*
X19850000Y-34790000D01*
G37*
%TO.C,J_L5_C*%
X8620000Y-35380000D02*
X8620000Y-34000000D01*
X10000000Y-35380000D02*
X8620000Y-35380000D01*
X11270000Y-32620000D02*
X16460000Y-32620000D01*
X11270000Y-35380000D02*
X11270000Y-32620000D01*
X11270000Y-35380000D02*
X16460000Y-35380000D01*
X16460000Y-35380000D02*
X16460000Y-32620000D01*
%TO.C,C_MPU1*%
X52359420Y-38990000D02*
X52640580Y-38990000D01*
X52359420Y-40010000D02*
X52640580Y-40010000D01*
%TO.C,C_BAT1*%
X50090000Y-72211252D02*
X50090000Y-70788748D01*
X51910000Y-72211252D02*
X51910000Y-70788748D01*
%TO.C,J_L5_T*%
X8620000Y-44380000D02*
X8620000Y-43000000D01*
X10000000Y-44380000D02*
X8620000Y-44380000D01*
X11270000Y-41620000D02*
X16460000Y-41620000D01*
X11270000Y-44380000D02*
X11270000Y-41620000D01*
X11270000Y-44380000D02*
X16460000Y-44380000D01*
X16460000Y-44380000D02*
X16460000Y-41620000D01*
%TO.C,LED_R*%
X88540000Y-53000000D02*
X88540000Y-55685000D01*
X88540000Y-55685000D02*
X90460000Y-55685000D01*
X90460000Y-55685000D02*
X90460000Y-53000000D01*
%TO.C,C_ISO1*%
X71340302Y-19685000D02*
X72140302Y-19685000D01*
X71740302Y-19285000D02*
X71740302Y-20085000D01*
X75750000Y-17920000D02*
X75750000Y-26080000D01*
X75790000Y-17920000D02*
X75790000Y-26080000D01*
X75830000Y-17921000D02*
X75830000Y-26079000D01*
X75870000Y-17922000D02*
X75870000Y-26078000D01*
X75910000Y-17923000D02*
X75910000Y-26077000D01*
X75950000Y-17925000D02*
X75950000Y-26075000D01*
X75990000Y-17927000D02*
X75990000Y-26073000D01*
X76030000Y-17930000D02*
X76030000Y-26070000D01*
X76070000Y-17932000D02*
X76070000Y-26068000D01*
X76110000Y-17936000D02*
X76110000Y-26064000D01*
X76150000Y-17939000D02*
X76150000Y-26061000D01*
X76190000Y-17944000D02*
X76190000Y-26056000D01*
X76230000Y-17948000D02*
X76230000Y-26052000D01*
X76270000Y-17953000D02*
X76270000Y-26047000D01*
X76310000Y-17958000D02*
X76310000Y-26042000D01*
X76350000Y-17964000D02*
X76350000Y-26036000D01*
X76390000Y-17970000D02*
X76390000Y-26030000D01*
X76430000Y-17977000D02*
X76430000Y-26023000D01*
X76470000Y-17983000D02*
X76470000Y-20960000D01*
X76470000Y-23040000D02*
X76470000Y-26017000D01*
X76510000Y-17991000D02*
X76510000Y-20960000D01*
X76510000Y-23040000D02*
X76510000Y-26009000D01*
X76550000Y-17998000D02*
X76550000Y-20960000D01*
X76550000Y-23040000D02*
X76550000Y-26002000D01*
X76590000Y-18007000D02*
X76590000Y-20960000D01*
X76590000Y-23040000D02*
X76590000Y-25993000D01*
X76630000Y-18015000D02*
X76630000Y-20960000D01*
X76630000Y-23040000D02*
X76630000Y-25985000D01*
X76670000Y-18024000D02*
X76670000Y-20960000D01*
X76670000Y-23040000D02*
X76670000Y-25976000D01*
X76710000Y-18033000D02*
X76710000Y-20960000D01*
X76710000Y-23040000D02*
X76710000Y-25967000D01*
X76750000Y-18043000D02*
X76750000Y-20960000D01*
X76750000Y-23040000D02*
X76750000Y-25957000D01*
X76790000Y-18053000D02*
X76790000Y-20960000D01*
X76790000Y-23040000D02*
X76790000Y-25947000D01*
X76830000Y-18064000D02*
X76830000Y-20960000D01*
X76830000Y-23040000D02*
X76830000Y-25936000D01*
X76870000Y-18075000D02*
X76870000Y-20960000D01*
X76870000Y-23040000D02*
X76870000Y-25925000D01*
X76910000Y-18087000D02*
X76910000Y-20960000D01*
X76910000Y-23040000D02*
X76910000Y-25913000D01*
X76950000Y-18099000D02*
X76950000Y-20960000D01*
X76950000Y-23040000D02*
X76950000Y-25901000D01*
X76990000Y-18111000D02*
X76990000Y-20960000D01*
X76990000Y-23040000D02*
X76990000Y-25889000D01*
X77030000Y-18124000D02*
X77030000Y-20960000D01*
X77030000Y-23040000D02*
X77030000Y-25876000D01*
X77070000Y-18137000D02*
X77070000Y-20960000D01*
X77070000Y-23040000D02*
X77070000Y-25863000D01*
X77110000Y-18151000D02*
X77110000Y-20960000D01*
X77110000Y-23040000D02*
X77110000Y-25849000D01*
X77150000Y-18165000D02*
X77150000Y-20960000D01*
X77150000Y-23040000D02*
X77150000Y-25835000D01*
X77190000Y-18180000D02*
X77190000Y-20960000D01*
X77190000Y-23040000D02*
X77190000Y-25820000D01*
X77230000Y-18195000D02*
X77230000Y-20960000D01*
X77230000Y-23040000D02*
X77230000Y-25805000D01*
X77270000Y-18211000D02*
X77270000Y-20960000D01*
X77270000Y-23040000D02*
X77270000Y-25789000D01*
X77310000Y-18227000D02*
X77310000Y-20960000D01*
X77310000Y-23040000D02*
X77310000Y-25773000D01*
X77350000Y-18243000D02*
X77350000Y-20960000D01*
X77350000Y-23040000D02*
X77350000Y-25757000D01*
X77390000Y-18260000D02*
X77390000Y-20960000D01*
X77390000Y-23040000D02*
X77390000Y-25740000D01*
X77430000Y-18278000D02*
X77430000Y-20960000D01*
X77430000Y-23040000D02*
X77430000Y-25722000D01*
X77470000Y-18296000D02*
X77470000Y-20960000D01*
X77470000Y-23040000D02*
X77470000Y-25704000D01*
X77510000Y-18315000D02*
X77510000Y-20960000D01*
X77510000Y-23040000D02*
X77510000Y-25685000D01*
X77550000Y-18334000D02*
X77550000Y-20960000D01*
X77550000Y-23040000D02*
X77550000Y-25666000D01*
X77590000Y-18354000D02*
X77590000Y-20960000D01*
X77590000Y-23040000D02*
X77590000Y-25646000D01*
X77630000Y-18374000D02*
X77630000Y-20960000D01*
X77630000Y-23040000D02*
X77630000Y-25626000D01*
X77670000Y-18395000D02*
X77670000Y-20960000D01*
X77670000Y-23040000D02*
X77670000Y-25605000D01*
X77710000Y-18416000D02*
X77710000Y-20960000D01*
X77710000Y-23040000D02*
X77710000Y-25584000D01*
X77750000Y-18438000D02*
X77750000Y-20960000D01*
X77750000Y-23040000D02*
X77750000Y-25562000D01*
X77790000Y-18461000D02*
X77790000Y-20960000D01*
X77790000Y-23040000D02*
X77790000Y-25539000D01*
X77830000Y-18484000D02*
X77830000Y-20960000D01*
X77830000Y-23040000D02*
X77830000Y-25516000D01*
X77870000Y-18507000D02*
X77870000Y-20960000D01*
X77870000Y-23040000D02*
X77870000Y-25493000D01*
X77910000Y-18532000D02*
X77910000Y-20960000D01*
X77910000Y-23040000D02*
X77910000Y-25468000D01*
X77950000Y-18557000D02*
X77950000Y-20960000D01*
X77950000Y-23040000D02*
X77950000Y-25443000D01*
X77990000Y-18582000D02*
X77990000Y-20960000D01*
X77990000Y-23040000D02*
X77990000Y-25418000D01*
X78030000Y-18608000D02*
X78030000Y-20960000D01*
X78030000Y-23040000D02*
X78030000Y-25392000D01*
X78070000Y-18635000D02*
X78070000Y-20960000D01*
X78070000Y-23040000D02*
X78070000Y-25365000D01*
X78110000Y-18663000D02*
X78110000Y-20960000D01*
X78110000Y-23040000D02*
X78110000Y-25337000D01*
X78150000Y-18691000D02*
X78150000Y-20960000D01*
X78150000Y-23040000D02*
X78150000Y-25309000D01*
X78190000Y-18720000D02*
X78190000Y-20960000D01*
X78190000Y-23040000D02*
X78190000Y-25280000D01*
X78230000Y-18750000D02*
X78230000Y-20960000D01*
X78230000Y-23040000D02*
X78230000Y-25250000D01*
X78270000Y-18781000D02*
X78270000Y-20960000D01*
X78270000Y-23040000D02*
X78270000Y-25219000D01*
X78310000Y-18812000D02*
X78310000Y-20960000D01*
X78310000Y-23040000D02*
X78310000Y-25188000D01*
X78350000Y-18844000D02*
X78350000Y-20960000D01*
X78350000Y-23040000D02*
X78350000Y-25156000D01*
X78390000Y-18877000D02*
X78390000Y-20960000D01*
X78390000Y-23040000D02*
X78390000Y-25123000D01*
X78430000Y-18911000D02*
X78430000Y-20960000D01*
X78430000Y-23040000D02*
X78430000Y-25089000D01*
X78470000Y-18945000D02*
X78470000Y-20960000D01*
X78470000Y-23040000D02*
X78470000Y-25055000D01*
X78510000Y-18981000D02*
X78510000Y-20960000D01*
X78510000Y-23040000D02*
X78510000Y-25019000D01*
X78550000Y-19018000D02*
X78550000Y-24982000D01*
X78590000Y-19055000D02*
X78590000Y-24945000D01*
X78630000Y-19094000D02*
X78630000Y-24906000D01*
X78670000Y-19133000D02*
X78670000Y-24867000D01*
X78710000Y-19174000D02*
X78710000Y-24826000D01*
X78750000Y-19216000D02*
X78750000Y-24784000D01*
X78790000Y-19259000D02*
X78790000Y-24741000D01*
X78830000Y-19304000D02*
X78830000Y-24696000D01*
X78870000Y-19349000D02*
X78870000Y-24651000D01*
X78910000Y-19396000D02*
X78910000Y-24604000D01*
X78950000Y-19445000D02*
X78950000Y-24555000D01*
X78990000Y-19495000D02*
X78990000Y-24505000D01*
X79030000Y-19547000D02*
X79030000Y-24453000D01*
X79070000Y-19600000D02*
X79070000Y-24400000D01*
X79110000Y-19656000D02*
X79110000Y-24344000D01*
X79150000Y-19713000D02*
X79150000Y-24287000D01*
X79190000Y-19773000D02*
X79190000Y-24227000D01*
X79230000Y-19835000D02*
X79230000Y-24165000D01*
X79270000Y-19899000D02*
X79270000Y-24101000D01*
X79310000Y-19966000D02*
X79310000Y-24034000D01*
X79350000Y-20036000D02*
X79350000Y-23964000D01*
X79390000Y-20110000D02*
X79390000Y-23890000D01*
X79430000Y-20187000D02*
X79430000Y-23813000D01*
X79470000Y-20269000D02*
X79470000Y-23731000D01*
X79510000Y-20356000D02*
X79510000Y-23644000D01*
X79550000Y-20448000D02*
X79550000Y-23552000D01*
X79590000Y-20547000D02*
X79590000Y-23453000D01*
X79630000Y-20654000D02*
X79630000Y-23346000D01*
X79670000Y-20772000D02*
X79670000Y-23228000D01*
X79710000Y-20903000D02*
X79710000Y-23097000D01*
X79750000Y-21053000D02*
X79750000Y-22947000D01*
X79790000Y-21232000D02*
X79790000Y-22768000D01*
X79830000Y-21467000D02*
X79830000Y-22533000D01*
X79870000Y-22000000D02*
G75*
G02*
X71630000Y-22000000I-4120000J0D01*
G01*
X71630000Y-22000000D02*
G75*
G02*
X79870000Y-22000000I4120000J0D01*
G01*
%TO.C,J_I2C*%
X84120000Y-74620000D02*
X85500000Y-74620000D01*
X84120000Y-76000000D02*
X84120000Y-74620000D01*
X84120000Y-77270000D02*
X84120000Y-85000000D01*
X84120000Y-77270000D02*
X86880000Y-77270000D01*
X84120000Y-85000000D02*
X86880000Y-85000000D01*
X86880000Y-77270000D02*
X86880000Y-85000000D01*
%TO.C,R_SCL*%
X53762742Y-54477500D02*
X54237258Y-54477500D01*
X53762742Y-55522500D02*
X54237258Y-55522500D01*
%TO.C,L_SERVO_L*%
X36200000Y-32700000D02*
X48800000Y-32700000D01*
X36200000Y-35700000D02*
X36200000Y-32700000D01*
X36200000Y-45300000D02*
X36200000Y-42300000D01*
X48800000Y-32700000D02*
X48800000Y-35700000D01*
X48800000Y-42300000D02*
X48800000Y-45300000D01*
X48800000Y-45300000D02*
X36200000Y-45300000D01*
%TO.C,C_OUT2_L*%
X42288748Y-58090000D02*
X43711252Y-58090000D01*
X42288748Y-59910000D02*
X43711252Y-59910000D01*
%TO.C,U7*%
X52850000Y-43315000D02*
X52850000Y-43090000D01*
X52850000Y-47150000D02*
X52850000Y-46625000D01*
X52850000Y-47150000D02*
X53375000Y-47150000D01*
X53375000Y-42850000D02*
X53150000Y-42850000D01*
X57150000Y-42850000D02*
X56625000Y-42850000D01*
X57150000Y-42850000D02*
X57150000Y-43375000D01*
X57150000Y-47150000D02*
X56625000Y-47150000D01*
X57150000Y-47150000D02*
X57150000Y-46625000D01*
X52850000Y-42850000D02*
X52610000Y-42520000D01*
X53090000Y-42520000D01*
X52850000Y-42850000D01*
G36*
X52850000Y-42850000D02*
G01*
X52610000Y-42520000D01*
X53090000Y-42520000D01*
X52850000Y-42850000D01*
G37*
%TO.C,J_L5_F*%
X8620000Y-39880000D02*
X8620000Y-38500000D01*
X10000000Y-39880000D02*
X8620000Y-39880000D01*
X11270000Y-37120000D02*
X16460000Y-37120000D01*
X11270000Y-39880000D02*
X11270000Y-37120000D01*
X11270000Y-39880000D02*
X16460000Y-39880000D01*
X16460000Y-39880000D02*
X16460000Y-37120000D01*
%TO.C,R_FULL*%
X29262742Y-86977500D02*
X29737258Y-86977500D01*
X29262742Y-88022500D02*
X29737258Y-88022500D01*
%TO.C,J_L3_F*%
X93540000Y-56120000D02*
X93540000Y-58880000D01*
X98730000Y-56120000D02*
X93540000Y-56120000D01*
X98730000Y-56120000D02*
X98730000Y-58880000D01*
X98730000Y-58880000D02*
X93540000Y-58880000D01*
X100000000Y-56120000D02*
X101380000Y-56120000D01*
X101380000Y-56120000D02*
X101380000Y-57500000D01*
%TO.C,C_VBUS1*%
X43765000Y-83761252D02*
X43765000Y-83238748D01*
X45235000Y-83761252D02*
X45235000Y-83238748D01*
%TO.C,J_L4_T*%
X8620000Y-25380000D02*
X8620000Y-24000000D01*
X10000000Y-25380000D02*
X8620000Y-25380000D01*
X11270000Y-22620000D02*
X16460000Y-22620000D01*
X11270000Y-25380000D02*
X11270000Y-22620000D01*
X11270000Y-25380000D02*
X16460000Y-25380000D01*
X16460000Y-25380000D02*
X16460000Y-22620000D01*
%TO.C,J1*%
X32300000Y-84320000D02*
X32300000Y-86100000D01*
X34200000Y-81400000D02*
X33400000Y-81400000D01*
X41700000Y-84320000D02*
X41700000Y-86100000D01*
%TO.C,D_STAT*%
X67265000Y-23700000D02*
X67265000Y-25985000D01*
X67265000Y-25985000D02*
X68735000Y-25985000D01*
X68735000Y-25985000D02*
X68735000Y-23700000D01*
%TO.C,J_L1_T*%
X93540000Y-22620000D02*
X93540000Y-25380000D01*
X98730000Y-22620000D02*
X93540000Y-22620000D01*
X98730000Y-22620000D02*
X98730000Y-25380000D01*
X98730000Y-25380000D02*
X93540000Y-25380000D01*
X100000000Y-22620000D02*
X101380000Y-22620000D01*
X101380000Y-22620000D02*
X101380000Y-24000000D01*
%TO.C,R_CC1*%
X29262742Y-80977500D02*
X29737258Y-80977500D01*
X29262742Y-82022500D02*
X29737258Y-82022500D01*
%TO.C,C_MPU3*%
X57359420Y-38990000D02*
X57640580Y-38990000D01*
X57359420Y-40010000D02*
X57640580Y-40010000D01*
%TD*%
M02*
