M48
; DRILL file KiCad 10.0.6 date 2026-10-07T06:19:44
; FORMAT={-:-/ absolute / metric / decimal}
; #@! TF.CreationDate,2026-10-07T06:19:44+01:00
; #@! TF.GenerationSoftware,Kicad,Pcbnew,10.0.6
; #@! TF.FileFunction,Plated,1,4,PTH
FMAT,2
METRIC
; #@! TA.AperFunction,Plated,PTH,ComponentDrill
T1C0.200
; #@! TA.AperFunction,Plated,PTH,ViaDrill
T2C0.300
; #@! TA.AperFunction,Plated,PTH,ViaDrill
T3C0.400
; #@! TA.AperFunction,Plated,PTH,ComponentDrill
T4C0.600
; #@! TA.AperFunction,Plated,PTH,ComponentDrill
T5C0.800
; #@! TA.AperFunction,Plated,PTH,ComponentDrill
T6C1.000
; #@! TA.AperFunction,Plated,PTH,ComponentDrill
T7C1.500
; #@! TA.AperFunction,Plated,PTH,ComponentDrill
T8C1.900
%
G90
G05
T1
X19.1Y-1.11
X19.1Y-2.51
X19.8Y-0.41
X19.8Y-1.81
X19.8Y-3.21
X20.5Y-1.11
X20.5Y-2.51
X21.2Y-0.41
X21.2Y-1.81
X21.2Y-3.21
X21.9Y-1.11
X21.9Y-2.51
X34.9Y-71.9
X34.9Y-73.0
X34.9Y-74.1
X36.0Y-71.9
X36.0Y-73.0
X36.0Y-74.1
X37.1Y-71.9
X37.1Y-73.0
X37.1Y-74.1
X85.1Y-1.11
X85.1Y-2.51
X85.8Y-0.41
X85.8Y-1.81
X85.8Y-3.21
X86.5Y-1.11
X86.5Y-2.51
X87.2Y-0.41
X87.2Y-1.81
X87.2Y-3.21
X87.9Y-1.11
X87.9Y-2.51
T2
X11.27Y4.86
X11.303Y2.723
X11.49Y6.608
X13.303Y7.036
X14.0Y-77.0
X14.501Y-3.613
X14.543Y-5.229
X14.586Y2.681
X14.678Y-10.587
X15.103Y-8.593
X15.186Y-7.702
X16.5Y-37.3
X16.5Y-46.175
X17.087Y-40.781
X18.713Y-50.086
X19.26Y-34.417
X19.423Y-65.122
X19.427Y6.524
X19.478Y-63.703
X19.737Y-67.871
X19.737Y-70.002
X20.243Y-66.257
X21.324Y-55.894
X21.528Y-65.758
X21.574Y-71.333
X21.702Y-67.478
X22.0Y-10.587
X23.428Y5.044
X24.433Y-63.104
X24.474Y-13.247
X24.5Y-64.075
X25.406Y-67.987
X27.415Y-65.628
X28.027Y-53.051
X28.195Y3.263
X30.403Y-12.091
X31.453Y-81.533
X31.453Y-84.515
X31.883Y-11.922
X31.974Y-6.012
X32.081Y5.628
X32.107Y-28.306
X32.458Y-6.622
X33.924Y-5.547
X34.152Y8.729
X34.971Y-0.65
X36.039Y-7.214
X36.825Y3.0
X37.017Y-11.69
X37.207Y-9.005
X37.547Y-59.968
X37.614Y2.983
X40.108Y1.19
X40.724Y-9.625
X41.284Y-12.725
X41.767Y-14.521
X42.797Y-82.69
X43.128Y-58.853
X45.332Y2.701
X46.335Y-85.988
X47.747Y-48.413
X48.624Y-21.328
X48.903Y3.9
X49.635Y-75.078
X50.774Y-2.827
X51.144Y-71.458
X51.154Y-12.436
X51.999Y-10.799
X52.022Y-16.476
X53.066Y-43.139
X53.8Y3.613
X53.816Y-58.165
X53.978Y-49.364
X54.045Y-51.206
X54.084Y0.518
X54.184Y-42.096
X54.25Y-48.2
X54.825Y-0.221
X55.0Y-38.232
X55.083Y-50.667
X55.155Y-42.168
X55.3Y-14.579
X55.75Y-49.3
X56.362Y6.855
X56.91Y-43.139
X56.945Y-49.315
X57.5Y2.0
X57.5Y-48.2
X57.921Y-49.571
X58.33Y-55.241
X59.047Y-37.937
X59.996Y-9.739
X61.673Y4.547
X61.823Y-82.69
X61.959Y-13.248
X62.111Y-5.795
X63.995Y-56.642
X64.041Y-19.556
X64.197Y-16.85
X65.962Y-47.553
X66.137Y-12.607
X66.914Y-4.921
X67.0Y-59.48
X68.015Y5.184
X69.892Y15.063
X69.892Y-23.412
X69.981Y-4.436
X70.441Y0.299
X72.21Y-1.959
X72.297Y8.904
X74.786Y-3.447
X75.581Y6.682
X75.849Y-58.979
X75.849Y-70.835
X75.909Y1.421
X76.051Y-15.551
X76.395Y3.263
X76.903Y-1.619
X77.774Y-2.175
X77.919Y-6.725
X78.453Y-87.409
X78.536Y-79.395
X78.985Y-16.325
X79.021Y-85.082
X79.145Y-12.066
X79.33Y-76.663
X79.897Y-21.203
X80.858Y-27.552
X80.863Y5.586
X81.078Y-17.484
X81.078Y-23.412
X81.078Y-67.889
X81.145Y-13.809
X81.245Y-53.665
X83.021Y-60.762
X83.198Y-8.169
X83.442Y-84.319
X83.651Y-62.137
X83.661Y-59.168
X83.773Y-54.937
X83.954Y-18.29
X84.135Y-59.835
X84.629Y-54.939
X84.658Y-64.027
X84.71Y-60.632
X84.784Y3.009
X84.791Y-61.523
X85.239Y-62.956
X85.467Y-57.586
X85.5Y-60.05
X85.556Y-54.753
X85.662Y-63.625
X85.679Y3.123
X87.328Y-14.955
X88.25Y-67.256
X88.457Y-50.577
X88.479Y-46.846
X89.796Y-10.281
X90.064Y-66.47
X90.611Y-49.113
X90.741Y-14.521
X90.741Y-44.296
X91.103Y-56.706
X93.076Y-37.227
X93.967Y-64.907
X94.059Y-59.622
X94.512Y-10.587
X96.698Y7.034
X99.676Y0.299
X105.633Y-74.25
X106.624Y-76.8
X106.724Y-75.89
T3
X18.5Y-47.825
X22.5Y-54.938
X22.939Y-40.855
X34.5Y-59.0
X34.6Y-80.5
X37.948Y-75.349
X38.5Y4.0
X39.4Y-80.5
X39.5Y-59.0
X39.657Y-73.284
X41.5Y11.0
X45.0Y-41.45
X45.0Y-44.0
X63.5Y-59.0
X65.0Y-41.45
X65.0Y-44.0
X70.2Y-59.0
X81.6Y-80.5
X86.4Y-80.5
X87.5Y-54.938
X91.5Y-47.825
X94.499Y-79.877
X95.924Y-80.617
T5
X20.0Y-28.0
X23.5Y-28.0
X43.0Y-51.5
X46.5Y-51.5
X53.0Y-3.5
X54.0Y-82.0
X56.0Y-82.0
X56.5Y-3.5
X58.0Y-82.0
X67.0Y-51.5
X70.5Y-51.5
X87.0Y-26.0
X90.5Y-26.0
T6
X4.0Y-67.0
X4.0Y-78.0
X5.0Y11.0
X7.54Y11.0
X10.0Y-15.0
X10.0Y-19.5
X10.0Y-24.0
X10.0Y-34.0
X10.0Y-38.5
X10.0Y-43.0
X10.0Y-53.0
X10.0Y-57.5
X10.0Y-62.0
X10.08Y11.0
X12.0Y-82.0
X12.0Y-84.54
X12.0Y-87.08
X12.54Y-15.0
X12.54Y-19.5
X12.54Y-24.0
X12.54Y-34.0
X12.54Y-38.5
X12.54Y-43.0
X12.54Y-53.0
X12.54Y-57.5
X12.54Y-62.0
X12.62Y11.0
X15.08Y-15.0
X15.08Y-19.5
X15.08Y-24.0
X15.08Y-34.0
X15.08Y-38.5
X15.08Y-43.0
X15.08Y-53.0
X15.08Y-57.5
X15.08Y-62.0
X16.5Y-82.0
X16.5Y-84.54
X16.5Y-87.08
X21.0Y-82.0
X21.0Y-84.54
X21.0Y-87.08
X44.0Y11.0
X44.0Y8.46
X56.9Y-67.5
X57.0Y-74.0
X57.0Y-76.54
X60.1Y-67.5
X80.5Y-70.5
X80.5Y-73.04
X80.5Y-75.58
X80.5Y-78.12
X85.5Y-70.5
X85.5Y-73.04
X85.5Y-75.58
X85.5Y-78.12
X90.5Y-73.0
X90.5Y-75.54
X90.5Y-78.08
X94.92Y-15.0
X94.92Y-19.5
X94.92Y-24.0
X94.92Y-34.0
X94.92Y-38.5
X94.92Y-43.0
X94.92Y-53.0
X94.92Y-57.5
X94.92Y-62.0
X95.0Y-73.0
X95.0Y-75.54
X95.0Y-78.08
X97.46Y-15.0
X97.46Y-19.5
X97.46Y-24.0
X97.46Y-34.0
X97.46Y-38.5
X97.46Y-43.0
X97.46Y-53.0
X97.46Y-57.5
X97.46Y-62.0
X99.5Y-73.0
X99.5Y-75.54
X99.5Y-78.08
X100.0Y-15.0
X100.0Y-19.5
X100.0Y-24.0
X100.0Y-34.0
X100.0Y-38.5
X100.0Y-43.0
X100.0Y-53.0
X100.0Y-57.5
X100.0Y-62.0
T7
X51.9Y-82.0
X60.1Y-82.0
T8
X14.0Y-70.0
X14.0Y-75.0
T4
X32.68Y-82.445G85X32.68Y-83.545
G05
X32.68Y-86.875G85X32.68Y-87.475
G05
X41.32Y-82.445G85X41.32Y-83.545
G05
X41.32Y-86.875G85X41.32Y-87.475
G05
X79.68Y-82.445G85X79.68Y-83.545
G05
X79.68Y-86.875G85X79.68Y-87.475
G05
X88.32Y-82.445G85X88.32Y-83.545
G05
X88.32Y-86.875G85X88.32Y-87.475
G05
X91.18Y-82.445G85X91.18Y-83.545
G05
X91.18Y-86.875G85X91.18Y-87.475
G05
X99.82Y-82.445G85X99.82Y-83.545
G05
X99.82Y-86.875G85X99.82Y-87.475
G05
M30
