%TF.GenerationSoftware,KiCad,Pcbnew,10.0.6*%
%TF.CreationDate,2026-09-29T14:31:59+01:00*%
%TF.ProjectId,Hexapod_Robot_Board,48657861-706f-4645-9f52-6f626f745f42,rev?*%
%TF.SameCoordinates,Original*%
%TF.FileFunction,Other,Comment*%
%FSLAX46Y46*%
G04 Gerber Fmt 4.6, Leading zero omitted, Abs format (unit mm)*
G04 Created by KiCad (PCBNEW 10.0.6) date 2026-09-29 14:31:59*
%MOMM*%
%LPD*%
G01*
G04 APERTURE LIST*
%ADD10C,0.150000*%
G04 APERTURE END LIST*
D10*
X47188095Y-14729104D02*
X47664285Y-14729104D01*
X47092857Y-15014819D02*
X47426190Y-14014819D01*
X47426190Y-14014819D02*
X47759523Y-15014819D01*
X48092857Y-14348152D02*
X48092857Y-15014819D01*
X48092857Y-14443390D02*
X48140476Y-14395771D01*
X48140476Y-14395771D02*
X48235714Y-14348152D01*
X48235714Y-14348152D02*
X48378571Y-14348152D01*
X48378571Y-14348152D02*
X48473809Y-14395771D01*
X48473809Y-14395771D02*
X48521428Y-14491009D01*
X48521428Y-14491009D02*
X48521428Y-15014819D01*
X48854762Y-14348152D02*
X49235714Y-14348152D01*
X48997619Y-14014819D02*
X48997619Y-14871961D01*
X48997619Y-14871961D02*
X49045238Y-14967200D01*
X49045238Y-14967200D02*
X49140476Y-15014819D01*
X49140476Y-15014819D02*
X49235714Y-15014819D01*
X49950000Y-14967200D02*
X49854762Y-15014819D01*
X49854762Y-15014819D02*
X49664286Y-15014819D01*
X49664286Y-15014819D02*
X49569048Y-14967200D01*
X49569048Y-14967200D02*
X49521429Y-14871961D01*
X49521429Y-14871961D02*
X49521429Y-14491009D01*
X49521429Y-14491009D02*
X49569048Y-14395771D01*
X49569048Y-14395771D02*
X49664286Y-14348152D01*
X49664286Y-14348152D02*
X49854762Y-14348152D01*
X49854762Y-14348152D02*
X49950000Y-14395771D01*
X49950000Y-14395771D02*
X49997619Y-14491009D01*
X49997619Y-14491009D02*
X49997619Y-14586247D01*
X49997619Y-14586247D02*
X49521429Y-14681485D01*
X50426191Y-14348152D02*
X50426191Y-15014819D01*
X50426191Y-14443390D02*
X50473810Y-14395771D01*
X50473810Y-14395771D02*
X50569048Y-14348152D01*
X50569048Y-14348152D02*
X50711905Y-14348152D01*
X50711905Y-14348152D02*
X50807143Y-14395771D01*
X50807143Y-14395771D02*
X50854762Y-14491009D01*
X50854762Y-14491009D02*
X50854762Y-15014819D01*
X51330953Y-14348152D02*
X51330953Y-15014819D01*
X51330953Y-14443390D02*
X51378572Y-14395771D01*
X51378572Y-14395771D02*
X51473810Y-14348152D01*
X51473810Y-14348152D02*
X51616667Y-14348152D01*
X51616667Y-14348152D02*
X51711905Y-14395771D01*
X51711905Y-14395771D02*
X51759524Y-14491009D01*
X51759524Y-14491009D02*
X51759524Y-15014819D01*
X52664286Y-15014819D02*
X52664286Y-14491009D01*
X52664286Y-14491009D02*
X52616667Y-14395771D01*
X52616667Y-14395771D02*
X52521429Y-14348152D01*
X52521429Y-14348152D02*
X52330953Y-14348152D01*
X52330953Y-14348152D02*
X52235715Y-14395771D01*
X52664286Y-14967200D02*
X52569048Y-15014819D01*
X52569048Y-15014819D02*
X52330953Y-15014819D01*
X52330953Y-15014819D02*
X52235715Y-14967200D01*
X52235715Y-14967200D02*
X52188096Y-14871961D01*
X52188096Y-14871961D02*
X52188096Y-14776723D01*
X52188096Y-14776723D02*
X52235715Y-14681485D01*
X52235715Y-14681485D02*
X52330953Y-14633866D01*
X52330953Y-14633866D02*
X52569048Y-14633866D01*
X52569048Y-14633866D02*
X52664286Y-14586247D01*
X37857142Y-5997438D02*
X37857142Y-3997438D01*
X38999999Y-5997438D02*
X38142856Y-4854580D01*
X38999999Y-3997438D02*
X37857142Y-5140295D01*
X39857142Y-4949819D02*
X40523809Y-4949819D01*
X40809523Y-5997438D02*
X39857142Y-5997438D01*
X39857142Y-5997438D02*
X39857142Y-3997438D01*
X39857142Y-3997438D02*
X40809523Y-3997438D01*
X41666666Y-4949819D02*
X42333333Y-4949819D01*
X42619047Y-5997438D02*
X41666666Y-5997438D01*
X41666666Y-5997438D02*
X41666666Y-3997438D01*
X41666666Y-3997438D02*
X42619047Y-3997438D01*
X43476190Y-5997438D02*
X43476190Y-3997438D01*
X43476190Y-3997438D02*
X44238095Y-3997438D01*
X44238095Y-3997438D02*
X44428571Y-4092676D01*
X44428571Y-4092676D02*
X44523809Y-4187914D01*
X44523809Y-4187914D02*
X44619047Y-4378390D01*
X44619047Y-4378390D02*
X44619047Y-4664104D01*
X44619047Y-4664104D02*
X44523809Y-4854580D01*
X44523809Y-4854580D02*
X44428571Y-4949819D01*
X44428571Y-4949819D02*
X44238095Y-5045057D01*
X44238095Y-5045057D02*
X43476190Y-5045057D01*
X45476190Y-5235533D02*
X47000000Y-5235533D01*
X48333332Y-3997438D02*
X48714285Y-3997438D01*
X48714285Y-3997438D02*
X48904761Y-4092676D01*
X48904761Y-4092676D02*
X49095237Y-4283152D01*
X49095237Y-4283152D02*
X49190475Y-4664104D01*
X49190475Y-4664104D02*
X49190475Y-5330771D01*
X49190475Y-5330771D02*
X49095237Y-5711723D01*
X49095237Y-5711723D02*
X48904761Y-5902200D01*
X48904761Y-5902200D02*
X48714285Y-5997438D01*
X48714285Y-5997438D02*
X48333332Y-5997438D01*
X48333332Y-5997438D02*
X48142856Y-5902200D01*
X48142856Y-5902200D02*
X47952380Y-5711723D01*
X47952380Y-5711723D02*
X47857142Y-5330771D01*
X47857142Y-5330771D02*
X47857142Y-4664104D01*
X47857142Y-4664104D02*
X47952380Y-4283152D01*
X47952380Y-4283152D02*
X48142856Y-4092676D01*
X48142856Y-4092676D02*
X48333332Y-3997438D01*
X50047618Y-3997438D02*
X50047618Y-5616485D01*
X50047618Y-5616485D02*
X50142856Y-5806961D01*
X50142856Y-5806961D02*
X50238094Y-5902200D01*
X50238094Y-5902200D02*
X50428570Y-5997438D01*
X50428570Y-5997438D02*
X50809523Y-5997438D01*
X50809523Y-5997438D02*
X50999999Y-5902200D01*
X50999999Y-5902200D02*
X51095237Y-5806961D01*
X51095237Y-5806961D02*
X51190475Y-5616485D01*
X51190475Y-5616485D02*
X51190475Y-3997438D01*
X51857142Y-3997438D02*
X52999999Y-3997438D01*
X52428570Y-5997438D02*
X52428570Y-3997438D01*
X55000000Y-3997438D02*
X56333333Y-3997438D01*
X56333333Y-3997438D02*
X55000000Y-5997438D01*
X55000000Y-5997438D02*
X56333333Y-5997438D01*
X57476190Y-3997438D02*
X57857143Y-3997438D01*
X57857143Y-3997438D02*
X58047619Y-4092676D01*
X58047619Y-4092676D02*
X58238095Y-4283152D01*
X58238095Y-4283152D02*
X58333333Y-4664104D01*
X58333333Y-4664104D02*
X58333333Y-5330771D01*
X58333333Y-5330771D02*
X58238095Y-5711723D01*
X58238095Y-5711723D02*
X58047619Y-5902200D01*
X58047619Y-5902200D02*
X57857143Y-5997438D01*
X57857143Y-5997438D02*
X57476190Y-5997438D01*
X57476190Y-5997438D02*
X57285714Y-5902200D01*
X57285714Y-5902200D02*
X57095238Y-5711723D01*
X57095238Y-5711723D02*
X57000000Y-5330771D01*
X57000000Y-5330771D02*
X57000000Y-4664104D01*
X57000000Y-4664104D02*
X57095238Y-4283152D01*
X57095238Y-4283152D02*
X57285714Y-4092676D01*
X57285714Y-4092676D02*
X57476190Y-3997438D01*
X59190476Y-5997438D02*
X59190476Y-3997438D01*
X59190476Y-3997438D02*
X60333333Y-5997438D01*
X60333333Y-5997438D02*
X60333333Y-3997438D01*
X61285714Y-4949819D02*
X61952381Y-4949819D01*
X62238095Y-5997438D02*
X61285714Y-5997438D01*
X61285714Y-5997438D02*
X61285714Y-3997438D01*
X61285714Y-3997438D02*
X62238095Y-3997438D01*
%TO.C,H3*%
X9200000Y-74000000D02*
G75*
G02*
X2800000Y-74000000I-3200000J0D01*
G01*
X2800000Y-74000000D02*
G75*
G02*
X9200000Y-74000000I3200000J0D01*
G01*
%TO.C,H1*%
X9200000Y-6000000D02*
G75*
G02*
X2800000Y-6000000I-3200000J0D01*
G01*
X2800000Y-6000000D02*
G75*
G02*
X9200000Y-6000000I3200000J0D01*
G01*
%TO.C,H4*%
X97200000Y-74000000D02*
G75*
G02*
X90800000Y-74000000I-3200000J0D01*
G01*
X90800000Y-74000000D02*
G75*
G02*
X97200000Y-74000000I3200000J0D01*
G01*
%TO.C,H2*%
X97200000Y-6000000D02*
G75*
G02*
X90800000Y-6000000I-3200000J0D01*
G01*
X90800000Y-6000000D02*
G75*
G02*
X97200000Y-6000000I3200000J0D01*
G01*
%TD*%
M02*
