%TF.GenerationSoftware,KiCad,Pcbnew,10.0.6*%
%TF.CreationDate,2026-09-28T06:23:18+01:00*%
%TF.ProjectId,Hexapod_Robot_Board,48657861-706f-4645-9f52-6f626f745f42,rev?*%
%TF.SameCoordinates,Original*%
%TF.FileFunction,Soldermask,Bot*%
%TF.FilePolarity,Negative*%
%FSLAX46Y46*%
G04 Gerber Fmt 4.6, Leading zero omitted, Abs format (unit mm)*
G04 Created by KiCad (PCBNEW 10.0.6) date 2026-09-28 06:23:18*
%MOMM*%
%LPD*%
G01*
G04 APERTURE LIST*
G04 Aperture macros list*
%AMRoundRect*
0 Rectangle with rounded corners*
0 $1 Rounding radius*
0 $2 $3 $4 $5 $6 $7 $8 $9 X,Y pos of 4 corners*
0 Add a 4 corners polygon primitive as box body*
4,1,4,$2,$3,$4,$5,$6,$7,$8,$9,$2,$3,0*
0 Add four circle primitives for the rounded corners*
1,1,$1+$1,$2,$3*
1,1,$1+$1,$4,$5*
1,1,$1+$1,$6,$7*
1,1,$1+$1,$8,$9*
0 Add four rect primitives between the rounded corners*
20,1,$1+$1,$2,$3,$4,$5,0*
20,1,$1+$1,$4,$5,$6,$7,0*
20,1,$1+$1,$6,$7,$8,$9,0*
20,1,$1+$1,$8,$9,$2,$3,0*%
G04 Aperture macros list end*
%ADD10R,1.700000X1.700000*%
%ADD11C,1.700000*%
%ADD12C,1.400000*%
%ADD13RoundRect,0.770000X-0.980000X-0.980000X0.980000X-0.980000X0.980000X0.980000X-0.980000X0.980000X0*%
%ADD14C,3.500000*%
%ADD15C,0.800000*%
%ADD16C,6.400000*%
%ADD17RoundRect,0.250000X-0.550000X-0.550000X0.550000X-0.550000X0.550000X0.550000X-0.550000X0.550000X0*%
%ADD18C,1.600000*%
%ADD19O,3.500000X2.200000*%
%ADD20R,2.500000X1.500000*%
%ADD21O,2.500000X1.500000*%
%ADD22C,0.650000*%
%ADD23O,1.000000X2.100000*%
%ADD24O,1.000000X1.600000*%
G04 APERTURE END LIST*
D10*
%TO.C,J_L4_C*%
X10000000Y-15000000D03*
D11*
X12540000Y-15000000D03*
X15080000Y-15000000D03*
%TD*%
D10*
%TO.C,J_L3_C*%
X90000000Y-51000000D03*
D11*
X92540000Y-51000000D03*
X95080000Y-51000000D03*
%TD*%
D10*
%TO.C,J_L6_F*%
X10000000Y-55500000D03*
D11*
X12540000Y-55500000D03*
X15080000Y-55500000D03*
%TD*%
D10*
%TO.C,J_L6_C*%
X10000000Y-51000000D03*
D11*
X12540000Y-51000000D03*
X15080000Y-51000000D03*
%TD*%
D12*
%TO.C,J_BAT*%
X20000000Y-62000000D03*
X31000000Y-62000000D03*
D13*
X28000000Y-72000000D03*
D14*
X23000000Y-72000000D03*
%TD*%
D10*
%TO.C,J_L1_F*%
X90000000Y-19500000D03*
D11*
X92540000Y-19500000D03*
X95080000Y-19500000D03*
%TD*%
D15*
%TO.C,H3*%
X3600000Y-74000000D03*
X4302944Y-72302944D03*
X4302944Y-75697056D03*
X6000000Y-71600000D03*
D16*
X6000000Y-74000000D03*
D15*
X6000000Y-76400000D03*
X7697056Y-72302944D03*
X7697056Y-75697056D03*
X8400000Y-74000000D03*
%TD*%
D17*
%TO.C,C_IN1*%
X24000000Y-50000000D03*
D18*
X27500000Y-50000000D03*
%TD*%
D10*
%TO.C,J_UART*%
X37000000Y-69000000D03*
D11*
X37000000Y-71540000D03*
X37000000Y-74080000D03*
X37000000Y-76620000D03*
%TD*%
D10*
%TO.C,J_AUX6*%
X73000000Y-71000000D03*
D11*
X73000000Y-73540000D03*
X73000000Y-76080000D03*
%TD*%
D10*
%TO.C,J_AUX3*%
X55000000Y-71000000D03*
D11*
X55000000Y-73540000D03*
X55000000Y-76080000D03*
%TD*%
D15*
%TO.C,H1*%
X3600000Y-6000000D03*
X4302944Y-4302944D03*
X4302944Y-7697056D03*
X6000000Y-3600000D03*
D16*
X6000000Y-6000000D03*
D15*
X6000000Y-8400000D03*
X7697056Y-4302944D03*
X7697056Y-7697056D03*
X8400000Y-6000000D03*
%TD*%
D10*
%TO.C,J_AUX5*%
X67000000Y-71000000D03*
D11*
X67000000Y-73540000D03*
X67000000Y-76080000D03*
%TD*%
D15*
%TO.C,H4*%
X91600000Y-74000000D03*
X92302944Y-72302944D03*
X92302944Y-75697056D03*
X94000000Y-71600000D03*
D16*
X94000000Y-74000000D03*
D15*
X94000000Y-76400000D03*
X95697056Y-72302944D03*
X95697056Y-75697056D03*
X96400000Y-74000000D03*
%TD*%
D10*
%TO.C,J_L2_C*%
X90000000Y-33000000D03*
D11*
X92540000Y-33000000D03*
X95080000Y-33000000D03*
%TD*%
D10*
%TO.C,J_AUX4*%
X61000000Y-71000000D03*
D11*
X61000000Y-73540000D03*
X61000000Y-76080000D03*
%TD*%
D10*
%TO.C,J_L2_F*%
X90000000Y-37500000D03*
D11*
X92540000Y-37500000D03*
X95080000Y-37500000D03*
%TD*%
D10*
%TO.C,J_L4_F*%
X10000000Y-19500000D03*
D11*
X12540000Y-19500000D03*
X15080000Y-19500000D03*
%TD*%
D15*
%TO.C,H2*%
X91600000Y-6000000D03*
X92302944Y-4302944D03*
X92302944Y-7697056D03*
X94000000Y-3600000D03*
D16*
X94000000Y-6000000D03*
D15*
X94000000Y-8400000D03*
X95697056Y-4302944D03*
X95697056Y-7697056D03*
X96400000Y-6000000D03*
%TD*%
D19*
%TO.C,SW_PWR*%
X14000000Y-73100000D03*
X14000000Y-64900000D03*
D20*
X14000000Y-71000000D03*
D21*
X14000000Y-69000000D03*
X14000000Y-67000000D03*
%TD*%
D10*
%TO.C,J_L2_T*%
X90000000Y-42000000D03*
D11*
X92540000Y-42000000D03*
X95080000Y-42000000D03*
%TD*%
D10*
%TO.C,J_L1_C*%
X90000000Y-15000000D03*
D11*
X92540000Y-15000000D03*
X95080000Y-15000000D03*
%TD*%
D10*
%TO.C,J_L6_T*%
X10000000Y-60000000D03*
D11*
X12540000Y-60000000D03*
X15080000Y-60000000D03*
%TD*%
D10*
%TO.C,J_AUX1*%
X43000000Y-71000000D03*
D11*
X43000000Y-73540000D03*
X43000000Y-76080000D03*
%TD*%
D10*
%TO.C,J_AUX2*%
X49000000Y-71000000D03*
D11*
X49000000Y-73540000D03*
X49000000Y-76080000D03*
%TD*%
D10*
%TO.C,J_L3_T*%
X90000000Y-60000000D03*
D11*
X92540000Y-60000000D03*
X95080000Y-60000000D03*
%TD*%
D10*
%TO.C,J_L5_C*%
X10000000Y-33000000D03*
D11*
X12540000Y-33000000D03*
X15080000Y-33000000D03*
%TD*%
D10*
%TO.C,J_L5_T*%
X10000000Y-42000000D03*
D11*
X12540000Y-42000000D03*
X15080000Y-42000000D03*
%TD*%
D17*
%TO.C,C_ISO1*%
X78000000Y-8000000D03*
D18*
X81500000Y-8000000D03*
%TD*%
D10*
%TO.C,J_I2C*%
X79000000Y-69000000D03*
D11*
X79000000Y-71540000D03*
X79000000Y-74080000D03*
X79000000Y-76620000D03*
%TD*%
D10*
%TO.C,J_L5_F*%
X10000000Y-37500000D03*
D11*
X12540000Y-37500000D03*
X15080000Y-37500000D03*
%TD*%
D10*
%TO.C,J_L3_F*%
X90000000Y-55500000D03*
D11*
X92540000Y-55500000D03*
X95080000Y-55500000D03*
%TD*%
D10*
%TO.C,J_L4_T*%
X10000000Y-24000000D03*
D11*
X12540000Y-24000000D03*
X15080000Y-24000000D03*
%TD*%
D22*
%TO.C,J1*%
X47110000Y-2395000D03*
X52890000Y-2395000D03*
D23*
X45680000Y-1895000D03*
D24*
X45680000Y-6075000D03*
D23*
X54320000Y-1895000D03*
D24*
X54320000Y-6075000D03*
%TD*%
D17*
%TO.C,C_OUT1*%
X71000000Y-50000000D03*
D18*
X74500000Y-50000000D03*
%TD*%
D10*
%TO.C,J_L1_T*%
X90000000Y-24000000D03*
D11*
X92540000Y-24000000D03*
X95080000Y-24000000D03*
%TD*%
M02*
