%TF.GenerationSoftware,KiCad,Pcbnew,10.0.6*%
%TF.CreationDate,2026-09-29T14:31:59+01:00*%
%TF.ProjectId,Hexapod_Robot_Board,48657861-706f-4645-9f52-6f626f745f42,rev?*%
%TF.SameCoordinates,Original*%
%TF.FileFunction,Other,User*%
%FSLAX46Y46*%
G04 Gerber Fmt 4.6, Leading zero omitted, Abs format (unit mm)*
G04 Created by KiCad (PCBNEW 10.0.6) date 2026-09-29 14:31:59*
%MOMM*%
%LPD*%
G01*
G04 APERTURE LIST*
%ADD10C,0.050000*%
G04 APERTURE END LIST*
%TO.C,J_L4_C*%
D10*
X8230000Y-13230000D02*
X16850000Y-13230000D01*
X16850000Y-16770000D01*
X8230000Y-16770000D01*
X8230000Y-13230000D01*
%TO.C,C_PCA3*%
X70520000Y-29270000D02*
X73480000Y-29270000D01*
X73480000Y-30730000D01*
X70520000Y-30730000D01*
X70520000Y-29270000D01*
%TO.C,J_L3_C*%
X88230000Y-49230000D02*
X96850000Y-49230000D01*
X96850000Y-52770000D01*
X88230000Y-52770000D01*
X88230000Y-49230000D01*
%TO.C,J_L6_F*%
X8230000Y-53730000D02*
X16850000Y-53730000D01*
X16850000Y-57270000D01*
X8230000Y-57270000D01*
X8230000Y-53730000D01*
%TO.C,R_CHG*%
X26270000Y-5720000D02*
X27730000Y-5720000D01*
X27730000Y-8680000D01*
X26270000Y-8680000D01*
X26270000Y-5720000D01*
%TO.C,R_STAT*%
X62520000Y-18270000D02*
X65480000Y-18270000D01*
X65480000Y-19730000D01*
X62520000Y-19730000D01*
X62520000Y-18270000D01*
%TO.C,J_L6_C*%
X8230000Y-49230000D02*
X16850000Y-49230000D01*
X16850000Y-52770000D01*
X8230000Y-52770000D01*
X8230000Y-49230000D01*
%TO.C,C_VBUS2*%
X21520000Y-10770000D02*
X24480000Y-10770000D01*
X24480000Y-12230000D01*
X21520000Y-12230000D01*
X21520000Y-10770000D01*
%TO.C,J_BAT*%
X18350000Y-58400000D02*
X18350000Y-74250000D01*
X18350000Y-58400000D02*
X32650000Y-58400000D01*
X18350000Y-74250000D02*
X32650000Y-74250000D01*
X32650000Y-58400000D02*
X32650000Y-74250000D01*
%TO.C,U1*%
X40750000Y-11000000D02*
X59250000Y-11000000D01*
X59250000Y-37000000D01*
X40750000Y-37000000D01*
X40750000Y-11000000D01*
%TO.C,C2*%
X32520000Y-21270000D02*
X35480000Y-21270000D01*
X35480000Y-22730000D01*
X32520000Y-22730000D01*
X32520000Y-21270000D01*
%TO.C,C_OUT2*%
X69850000Y-55700000D02*
X72150000Y-55700000D01*
X72150000Y-60300000D01*
X69850000Y-60300000D01*
X69850000Y-55700000D01*
%TO.C,R_SDA*%
X44520000Y-41270000D02*
X47480000Y-41270000D01*
X47480000Y-42730000D01*
X44520000Y-42730000D01*
X44520000Y-41270000D01*
%TO.C,J_L1_F*%
X88230000Y-17730000D02*
X96850000Y-17730000D01*
X96850000Y-21270000D01*
X88230000Y-21270000D01*
X88230000Y-17730000D01*
%TO.C,C_DIV*%
X72520000Y-26270000D02*
X75480000Y-26270000D01*
X75480000Y-27730000D01*
X72520000Y-27730000D01*
X72520000Y-26270000D01*
%TO.C,H3*%
X9450000Y-74000000D02*
G75*
G02*
X2550000Y-74000000I-3450000J0D01*
G01*
X2550000Y-74000000D02*
G75*
G02*
X9450000Y-74000000I3450000J0D01*
G01*
%TO.C,C_IN1*%
X30000000Y-50000000D02*
G75*
G02*
X21500000Y-50000000I-4250000J0D01*
G01*
X21500000Y-50000000D02*
G75*
G02*
X30000000Y-50000000I4250000J0D01*
G01*
%TO.C,L_SERVO*%
X51140000Y-45400000D02*
X64860000Y-45400000D01*
X51140000Y-58600000D02*
X51140000Y-45400000D01*
X64860000Y-45400000D02*
X64860000Y-58600000D01*
X64860000Y-58600000D02*
X51140000Y-58600000D01*
%TO.C,J_UART*%
X35230000Y-67230000D02*
X38770000Y-67230000D01*
X38770000Y-78390000D01*
X35230000Y-78390000D01*
X35230000Y-67230000D01*
%TO.C,U4*%
X75600000Y-12400000D02*
X75600000Y-19600000D01*
X75600000Y-19600000D02*
X84400000Y-19600000D01*
X84400000Y-12400000D02*
X75600000Y-12400000D01*
X84400000Y-19600000D02*
X84400000Y-12400000D01*
%TO.C,J_AUX6*%
X71230000Y-69230000D02*
X74770000Y-69230000D01*
X74770000Y-77850000D01*
X71230000Y-77850000D01*
X71230000Y-69230000D01*
%TO.C,R_CC2*%
X10520000Y-5770000D02*
X13480000Y-5770000D01*
X13480000Y-7230000D01*
X10520000Y-7230000D01*
X10520000Y-5770000D01*
%TO.C,J_AUX3*%
X53230000Y-69230000D02*
X56770000Y-69230000D01*
X56770000Y-77850000D01*
X53230000Y-77850000D01*
X53230000Y-69230000D01*
%TO.C,C_3V3_1*%
X82300000Y-21020000D02*
X85700000Y-21020000D01*
X85700000Y-22980000D01*
X82300000Y-22980000D01*
X82300000Y-21020000D01*
%TO.C,U6*%
X70150000Y-33320000D02*
X71550000Y-33320000D01*
X70150000Y-42680000D02*
X70150000Y-33320000D01*
X71550000Y-32900000D02*
X76450000Y-32900000D01*
X71550000Y-33320000D02*
X71550000Y-32900000D01*
X71550000Y-42680000D02*
X70150000Y-42680000D01*
X71550000Y-43100000D02*
X71550000Y-42680000D01*
X76450000Y-32900000D02*
X76450000Y-33320000D01*
X76450000Y-33320000D02*
X77850000Y-33320000D01*
X76450000Y-42680000D02*
X76450000Y-43100000D01*
X76450000Y-43100000D02*
X71550000Y-43100000D01*
X77850000Y-33320000D02*
X77850000Y-42680000D01*
X77850000Y-42680000D02*
X76450000Y-42680000D01*
%TO.C,U5*%
X22150000Y-33320000D02*
X23550000Y-33320000D01*
X22150000Y-42680000D02*
X22150000Y-33320000D01*
X23550000Y-32900000D02*
X28450000Y-32900000D01*
X23550000Y-33320000D02*
X23550000Y-32900000D01*
X23550000Y-42680000D02*
X22150000Y-42680000D01*
X23550000Y-43100000D02*
X23550000Y-42680000D01*
X28450000Y-32900000D02*
X28450000Y-33320000D01*
X28450000Y-33320000D02*
X29850000Y-33320000D01*
X28450000Y-42680000D02*
X28450000Y-43100000D01*
X28450000Y-43100000D02*
X23550000Y-43100000D01*
X29850000Y-33320000D02*
X29850000Y-42680000D01*
X29850000Y-42680000D02*
X28450000Y-42680000D01*
%TO.C,R_DIV2*%
X72520000Y-22770000D02*
X75480000Y-22770000D01*
X75480000Y-24230000D01*
X72520000Y-24230000D01*
X72520000Y-22770000D01*
%TO.C,C1*%
X32300000Y-17020000D02*
X35700000Y-17020000D01*
X35700000Y-18980000D01*
X32300000Y-18980000D01*
X32300000Y-17020000D01*
%TO.C,H1*%
X9450000Y-6000000D02*
G75*
G02*
X2550000Y-6000000I-3450000J0D01*
G01*
X2550000Y-6000000D02*
G75*
G02*
X9450000Y-6000000I3450000J0D01*
G01*
%TO.C,J_AUX5*%
X65230000Y-69230000D02*
X68770000Y-69230000D01*
X68770000Y-77850000D01*
X65230000Y-77850000D01*
X65230000Y-69230000D01*
%TO.C,C_3V3_2*%
X82520000Y-24270000D02*
X85480000Y-24270000D01*
X85480000Y-25730000D01*
X82520000Y-25730000D01*
X82520000Y-24270000D01*
%TO.C,LED_CHG*%
X26270000Y-2520000D02*
X27730000Y-2520000D01*
X27730000Y-5480000D01*
X26270000Y-5480000D01*
X26270000Y-2520000D01*
%TO.C,R_DIV1*%
X72520000Y-19270000D02*
X75480000Y-19270000D01*
X75480000Y-20730000D01*
X72520000Y-20730000D01*
X72520000Y-19270000D01*
%TO.C,R_OE*%
X52520000Y-41270000D02*
X55480000Y-41270000D01*
X55480000Y-42730000D01*
X52520000Y-42730000D01*
X52520000Y-41270000D01*
%TO.C,R1*%
X32520000Y-25270000D02*
X35480000Y-25270000D01*
X35480000Y-26730000D01*
X32520000Y-26730000D01*
X32520000Y-25270000D01*
%TO.C,SW1*%
X32750000Y-3800000D02*
X38250000Y-3800000D01*
X32750000Y-7200000D02*
X32750000Y-3800000D01*
X38250000Y-3800000D02*
X38250000Y-7200000D01*
X38250000Y-7200000D02*
X32750000Y-7200000D01*
%TO.C,LED_FULL*%
X29770000Y-2520000D02*
X31230000Y-2520000D01*
X31230000Y-5480000D01*
X29770000Y-5480000D01*
X29770000Y-2520000D01*
%TO.C,R_SERVO_LED*%
X76270000Y-58520000D02*
X77730000Y-58520000D01*
X77730000Y-61480000D01*
X76270000Y-61480000D01*
X76270000Y-58520000D01*
%TO.C,H4*%
X97450000Y-74000000D02*
G75*
G02*
X90550000Y-74000000I-3450000J0D01*
G01*
X90550000Y-74000000D02*
G75*
G02*
X97450000Y-74000000I3450000J0D01*
G01*
%TO.C,J_L2_C*%
X88230000Y-31230000D02*
X96850000Y-31230000D01*
X96850000Y-34770000D01*
X88230000Y-34770000D01*
X88230000Y-31230000D01*
%TO.C,J_AUX4*%
X59230000Y-69230000D02*
X62770000Y-69230000D01*
X62770000Y-77850000D01*
X59230000Y-77850000D01*
X59230000Y-69230000D01*
%TO.C,R2*%
X61520000Y-11270000D02*
X64480000Y-11270000D01*
X64480000Y-12730000D01*
X61520000Y-12730000D01*
X61520000Y-11270000D01*
%TO.C,J_L2_F*%
X88230000Y-35730000D02*
X96850000Y-35730000D01*
X96850000Y-39270000D01*
X88230000Y-39270000D01*
X88230000Y-35730000D01*
%TO.C,R_BZ*%
X62520000Y-26270000D02*
X65480000Y-26270000D01*
X65480000Y-27730000D01*
X62520000Y-27730000D01*
X62520000Y-26270000D01*
%TO.C,C3*%
X32520000Y-29270000D02*
X35480000Y-29270000D01*
X35480000Y-30730000D01*
X32520000Y-30730000D01*
X32520000Y-29270000D01*
%TO.C,R_3V3_LED*%
X82520000Y-30270000D02*
X85480000Y-30270000D01*
X85480000Y-31730000D01*
X82520000Y-31730000D01*
X82520000Y-30270000D01*
%TO.C,C_PCA1*%
X22020000Y-29770000D02*
X24980000Y-29770000D01*
X24980000Y-31230000D01*
X22020000Y-31230000D01*
X22020000Y-29770000D01*
%TO.C,C_OUT3*%
X69520000Y-61270000D02*
X72480000Y-61270000D01*
X72480000Y-62730000D01*
X69520000Y-62730000D01*
X69520000Y-61270000D01*
%TO.C,C_ISO2*%
X70300000Y-9020000D02*
X73700000Y-9020000D01*
X73700000Y-10980000D01*
X70300000Y-10980000D01*
X70300000Y-9020000D01*
%TO.C,J_L4_F*%
X8230000Y-17730000D02*
X16850000Y-17730000D01*
X16850000Y-21270000D01*
X8230000Y-21270000D01*
X8230000Y-17730000D01*
%TO.C,C_BAT2*%
X30020000Y-10770000D02*
X32980000Y-10770000D01*
X32980000Y-12230000D01*
X30020000Y-12230000D01*
X30020000Y-10770000D01*
%TO.C,D_ISO*%
X69650000Y-4850000D02*
X69650000Y-7150000D01*
X69650000Y-4850000D02*
X74350000Y-4850000D01*
X74350000Y-4850000D02*
X74350000Y-7150000D01*
X74350000Y-7150000D02*
X69650000Y-7150000D01*
%TO.C,H2*%
X97450000Y-6000000D02*
G75*
G02*
X90550000Y-6000000I-3450000J0D01*
G01*
X90550000Y-6000000D02*
G75*
G02*
X97450000Y-6000000I3450000J0D01*
G01*
%TO.C,SW2*%
X61750000Y-4300000D02*
X67250000Y-4300000D01*
X61750000Y-7700000D02*
X61750000Y-4300000D01*
X67250000Y-4300000D02*
X67250000Y-7700000D01*
X67250000Y-7700000D02*
X61750000Y-7700000D01*
%TO.C,J_L2_T*%
X88230000Y-40230000D02*
X96850000Y-40230000D01*
X96850000Y-43770000D01*
X88230000Y-43770000D01*
X88230000Y-40230000D01*
%TO.C,J_L1_C*%
X88230000Y-13230000D02*
X96850000Y-13230000D01*
X96850000Y-16770000D01*
X88230000Y-16770000D01*
X88230000Y-13230000D01*
%TO.C,J_L6_T*%
X8230000Y-58230000D02*
X16850000Y-58230000D01*
X16850000Y-61770000D01*
X8230000Y-61770000D01*
X8230000Y-58230000D01*
%TO.C,L_CHG*%
X17800000Y-16100000D02*
X17800000Y-23900000D01*
X17800000Y-23900000D02*
X26200000Y-23900000D01*
X26200000Y-16100000D02*
X17800000Y-16100000D01*
X26200000Y-23900000D02*
X26200000Y-16100000D01*
%TO.C,J_AUX1*%
X41230000Y-69230000D02*
X44770000Y-69230000D01*
X44770000Y-77850000D01*
X41230000Y-77850000D01*
X41230000Y-69230000D01*
%TO.C,J_AUX2*%
X47230000Y-69230000D02*
X50770000Y-69230000D01*
X50770000Y-77850000D01*
X47230000Y-77850000D01*
X47230000Y-69230000D01*
%TO.C,C_PCA2*%
X25800000Y-29520000D02*
X29200000Y-29520000D01*
X29200000Y-31480000D01*
X25800000Y-31480000D01*
X25800000Y-29520000D01*
%TO.C,J_L3_T*%
X88230000Y-58230000D02*
X96850000Y-58230000D01*
X96850000Y-61770000D01*
X88230000Y-61770000D01*
X88230000Y-58230000D01*
%TO.C,U2*%
X26370000Y-18370000D02*
X26750000Y-18370000D01*
X26370000Y-21630000D02*
X26370000Y-18370000D01*
X26750000Y-17750000D02*
X27370000Y-17750000D01*
X26750000Y-18370000D02*
X26750000Y-17750000D01*
X26750000Y-21630000D02*
X26370000Y-21630000D01*
X26750000Y-22250000D02*
X26750000Y-21630000D01*
X27370000Y-17370000D02*
X30630000Y-17370000D01*
X27370000Y-17750000D02*
X27370000Y-17370000D01*
X27370000Y-22250000D02*
X26750000Y-22250000D01*
X27370000Y-22630000D02*
X27370000Y-22250000D01*
X30630000Y-17370000D02*
X30630000Y-17750000D01*
X30630000Y-17750000D02*
X31250000Y-17750000D01*
X30630000Y-22250000D02*
X30630000Y-22630000D01*
X30630000Y-22630000D02*
X27370000Y-22630000D01*
X31250000Y-17750000D02*
X31250000Y-18370000D01*
X31250000Y-18370000D02*
X31630000Y-18370000D01*
X31250000Y-21630000D02*
X31250000Y-22250000D01*
X31250000Y-22250000D02*
X30630000Y-22250000D01*
X31630000Y-18370000D02*
X31630000Y-21630000D01*
X31630000Y-21630000D02*
X31250000Y-21630000D01*
%TO.C,C_PCA4*%
X74300000Y-29020000D02*
X77700000Y-29020000D01*
X77700000Y-30980000D01*
X74300000Y-30980000D01*
X74300000Y-29020000D01*
%TO.C,LED_3V3*%
X82520000Y-27270000D02*
X85480000Y-27270000D01*
X85480000Y-28730000D01*
X82520000Y-28730000D01*
X82520000Y-27270000D01*
%TO.C,R_FB1*%
X47520000Y-60270000D02*
X50480000Y-60270000D01*
X50480000Y-61730000D01*
X47520000Y-61730000D01*
X47520000Y-60270000D01*
%TO.C,J_L5_C*%
X8230000Y-31230000D02*
X16850000Y-31230000D01*
X16850000Y-34770000D01*
X8230000Y-34770000D01*
X8230000Y-31230000D01*
%TO.C,C_BAT1*%
X25200000Y-10350000D02*
X29800000Y-10350000D01*
X29800000Y-12650000D01*
X25200000Y-12650000D01*
X25200000Y-10350000D01*
%TO.C,J_L5_T*%
X8230000Y-40230000D02*
X16850000Y-40230000D01*
X16850000Y-43770000D01*
X8230000Y-43770000D01*
X8230000Y-40230000D01*
%TO.C,C_IN2*%
X29700000Y-42850000D02*
X34300000Y-42850000D01*
X34300000Y-45150000D01*
X29700000Y-45150000D01*
X29700000Y-42850000D01*
%TO.C,C_ISO1*%
X84000000Y-8000000D02*
G75*
G02*
X75500000Y-8000000I-4250000J0D01*
G01*
X75500000Y-8000000D02*
G75*
G02*
X84000000Y-8000000I4250000J0D01*
G01*
%TO.C,J_I2C*%
X77230000Y-67230000D02*
X80770000Y-67230000D01*
X80770000Y-78390000D01*
X77230000Y-78390000D01*
X77230000Y-67230000D01*
%TO.C,U3*%
X31800000Y-46350000D02*
X48450000Y-46350000D01*
X48450000Y-57650000D01*
X31800000Y-57650000D01*
X31800000Y-46350000D01*
%TO.C,R_SCL*%
X48520000Y-41270000D02*
X51480000Y-41270000D01*
X51480000Y-42730000D01*
X48520000Y-42730000D01*
X48520000Y-41270000D01*
%TO.C,LED_SERVO*%
X76270000Y-54520000D02*
X77730000Y-54520000D01*
X77730000Y-57480000D01*
X76270000Y-57480000D01*
X76270000Y-54520000D01*
%TO.C,J_L5_F*%
X8230000Y-35730000D02*
X16850000Y-35730000D01*
X16850000Y-39270000D01*
X8230000Y-39270000D01*
X8230000Y-35730000D01*
%TO.C,R_FB2*%
X47520000Y-63270000D02*
X50480000Y-63270000D01*
X50480000Y-64730000D01*
X47520000Y-64730000D01*
X47520000Y-63270000D01*
%TO.C,R_FULL*%
X29770000Y-5720000D02*
X31230000Y-5720000D01*
X31230000Y-8680000D01*
X29770000Y-8680000D01*
X29770000Y-5720000D01*
%TO.C,J_L3_F*%
X88230000Y-53730000D02*
X96850000Y-53730000D01*
X96850000Y-57270000D01*
X88230000Y-57270000D01*
X88230000Y-53730000D01*
%TO.C,C_VBUS1*%
X17800000Y-10520000D02*
X21200000Y-10520000D01*
X21200000Y-12480000D01*
X17800000Y-12480000D01*
X17800000Y-10520000D01*
%TO.C,J_L4_T*%
X8230000Y-22230000D02*
X16850000Y-22230000D01*
X16850000Y-25770000D01*
X8230000Y-25770000D01*
X8230000Y-22230000D01*
%TO.C,J1*%
X14680000Y-8800000D02*
X14680000Y280000D01*
X25320000Y280000D02*
X14680000Y280000D01*
X25320000Y-8800000D02*
X14680000Y-8800000D01*
X25320000Y-8800000D02*
X25320000Y280000D01*
%TO.C,D_STAT*%
X62520000Y-22270000D02*
X65480000Y-22270000D01*
X65480000Y-23730000D01*
X62520000Y-23730000D01*
X62520000Y-22270000D01*
%TO.C,C_OUT1*%
X77000000Y-50000000D02*
G75*
G02*
X68500000Y-50000000I-4250000J0D01*
G01*
X68500000Y-50000000D02*
G75*
G02*
X77000000Y-50000000I4250000J0D01*
G01*
%TO.C,D_CATCH*%
X37100000Y-59650000D02*
X46900000Y-59650000D01*
X37100000Y-66350000D02*
X37100000Y-59650000D01*
X46900000Y-59650000D02*
X46900000Y-66350000D01*
X46900000Y-66350000D02*
X37100000Y-66350000D01*
%TO.C,J_L1_T*%
X88230000Y-22230000D02*
X96850000Y-22230000D01*
X96850000Y-25770000D01*
X88230000Y-25770000D01*
X88230000Y-22230000D01*
%TO.C,R_CC1*%
X10520000Y-3270000D02*
X13480000Y-3270000D01*
X13480000Y-4730000D01*
X10520000Y-4730000D01*
X10520000Y-3270000D01*
%TD*%
M02*
