M48
; DRILL file KiCad 10.0.6 date 2026-10-01T06:41:42
; FORMAT={-:-/ absolute / metric / decimal}
; #@! TF.CreationDate,2026-10-01T06:41:42+01:00
; #@! TF.GenerationSoftware,Kicad,Pcbnew,10.0.6
; #@! TF.FileFunction,Plated,1,4,PTH
FMAT,2
METRIC
; #@! TA.AperFunction,Plated,PTH,ComponentDrill
T1C0.200
; #@! TA.AperFunction,Plated,PTH,ViaDrill
T2C0.300
; #@! TA.AperFunction,Plated,PTH,ViaDrill
T3C0.400
; #@! TA.AperFunction,Plated,PTH,ComponentDrill
T4C0.500
; #@! TA.AperFunction,Plated,PTH,ComponentDrill
T5C0.600
; #@! TA.AperFunction,Plated,PTH,ComponentDrill
T6C0.800
; #@! TA.AperFunction,Plated,PTH,ComponentDrill
T7C1.000
; #@! TA.AperFunction,Plated,PTH,ComponentDrill
T8C1.500
; #@! TA.AperFunction,Plated,PTH,ComponentDrill
T9C1.900
; #@! TA.AperFunction,Plated,PTH,ComponentDrill
T10C3.200
%
G90
G05
T1
X34.9Y-71.9
X34.9Y-73.0
X34.9Y-74.1
X36.0Y-71.9
X36.0Y-73.0
X36.0Y-74.1
X37.1Y-71.9
X37.1Y-73.0
X37.1Y-74.1
X52.1Y-10.11
X52.1Y-11.51
X52.8Y-9.41
X52.8Y-10.81
X52.8Y-12.21
X53.5Y-10.11
X53.5Y-11.51
X54.2Y-9.41
X54.2Y-10.81
X54.2Y-12.21
X54.9Y-10.11
X54.9Y-11.51
T2
X16.006Y-65.3
X16.5Y-37.3
X16.5Y-46.175
X17.087Y-41.244
X19.26Y-33.362
X19.329Y-48.702
X19.614Y-68.401
X21.735Y-56.39
X23.039Y-74.122
X23.093Y-72.034
X24.358Y-67.125
X24.5Y-64.075
X24.681Y-65.314
X24.925Y-63.145
X25.291Y-66.932
X25.292Y-68.837
X25.342Y-71.126
X26.969Y-73.569
X27.012Y-66.403
X27.085Y-68.469
X27.418Y-69.922
X27.764Y-73.282
X28.515Y-53.729
X28.755Y-46.893
X30.095Y-69.983
X31.12Y-65.499
X31.453Y-81.614
X31.658Y-70.479
X31.694Y-84.804
X32.107Y-28.121
X34.884Y-69.103
X37.095Y-77.069
X37.242Y-60.238
X37.907Y-79.331
X39.159Y-5.168
X41.05Y-9.625
X42.797Y-82.826
X43.184Y-58.74
X43.807Y-17.601
X44.014Y-13.934
X44.931Y-19.562
X44.957Y-4.595
X45.038Y-3.359
X45.038Y-18.254
X46.065Y-21.722
X46.335Y-86.015
X48.5Y-4.36
X49.006Y-65.33
X49.044Y-15.903
X49.33Y-74.496
X50.319Y-22.388
X51.65Y-22.388
X52.067Y-48.876
X52.4Y-43.75
X52.706Y-70.093
X52.947Y-47.027
X53.0Y-42.3
X53.854Y-55.862
X54.276Y-49.151
X54.392Y-42.17
X54.8Y-39.742
X55.0Y-53.718
X55.008Y-50.829
X55.73Y-48.415
X57.022Y-42.943
X57.212Y-53.606
X58.03Y-7.225
X58.194Y-51.624
X58.195Y-38.375
X58.387Y-22.388
X58.387Y-53.651
X58.651Y-79.13
X59.135Y-72.94
X60.657Y-64.494
X60.741Y-67.036
X60.957Y-7.173
X61.232Y-65.033
X61.836Y-54.854
X62.226Y-66.492
X64.961Y-3.174
X64.962Y-19.524
X66.474Y-27.435
X66.999Y-59.748
X68.03Y-22.701
X68.08Y-6.674
X68.449Y-19.284
X69.929Y-16.291
X72.54Y-4.264
X72.871Y-67.989
X74.196Y-13.513
X75.048Y-67.407
X75.988Y-59.687
X76.395Y-27.541
X81.096Y-72.034
X81.318Y-60.87
X81.973Y-53.729
X82.551Y-61.564
X82.573Y-10.857
X82.585Y-63.392
X83.721Y-63.148
X83.79Y-66.22
X84.34Y-27.374
X84.583Y-65.495
X84.73Y-63.394
X86.459Y-73.153
X87.06Y-36.865
X88.557Y-65.499
X89.384Y-43.743
X90.143Y-55.894
X90.382Y-50.335
X91.228Y-18.812
X91.341Y-7.173
X93.842Y-65.367
X93.967Y-68.277
X96.706Y-7.173
X96.706Y-10.083
T3
X18.5Y-47.825
X22.5Y-54.938
X22.939Y-42.09
X34.5Y-59.0
X34.6Y-80.5
X39.4Y-80.5
X39.5Y-59.0
X40.149Y-75.673
X43.087Y-70.182
X45.0Y-41.45
X45.0Y-44.0
X60.957Y-50.819
X63.5Y-59.0
X65.0Y-41.45
X65.0Y-44.0
X70.2Y-59.0
X87.5Y-54.938
X91.5Y-47.825
T4
X2.6Y-5.0
X2.6Y-85.0
X3.303Y-3.303
X3.303Y-6.697
X3.303Y-83.303
X3.303Y-86.697
X5.0Y-2.6
X5.0Y-7.4
X5.0Y-82.6
X5.0Y-87.4
X6.697Y-3.303
X6.697Y-6.697
X6.697Y-83.303
X6.697Y-86.697
X7.4Y-5.0
X7.4Y-85.0
X102.6Y-5.0
X102.6Y-85.0
X103.303Y-3.303
X103.303Y-6.697
X103.303Y-83.303
X103.303Y-86.697
X105.0Y-2.6
X105.0Y-7.4
X105.0Y-82.6
X105.0Y-87.4
X106.697Y-3.303
X106.697Y-6.697
X106.697Y-83.303
X106.697Y-86.697
X107.4Y-5.0
X107.4Y-85.0
T6
X20.0Y-28.0
X23.5Y-28.0
X43.0Y-51.5
X46.5Y-51.5
X56.0Y-82.0
X58.0Y-82.0
X60.0Y-82.0
X67.0Y-51.5
X70.5Y-51.5
X74.0Y-22.0
X77.5Y-22.0
X87.0Y-26.0
X90.5Y-26.0
T7
X10.0Y-15.0
X10.0Y-19.5
X10.0Y-24.0
X10.0Y-34.0
X10.0Y-38.5
X10.0Y-43.0
X10.0Y-53.0
X10.0Y-57.5
X10.0Y-62.0
X11.5Y-76.0
X11.5Y-78.54
X11.5Y-81.08
X12.54Y-15.0
X12.54Y-19.5
X12.54Y-24.0
X12.54Y-34.0
X12.54Y-38.5
X12.54Y-43.0
X12.54Y-53.0
X12.54Y-57.5
X12.54Y-62.0
X15.08Y-15.0
X15.08Y-19.5
X15.08Y-24.0
X15.08Y-34.0
X15.08Y-38.5
X15.08Y-43.0
X15.08Y-53.0
X15.08Y-57.5
X15.08Y-62.0
X16.5Y-76.0
X16.5Y-78.54
X16.5Y-81.08
X21.5Y-76.0
X21.5Y-78.54
X21.5Y-81.08
X65.0Y-70.0
X76.0Y-70.0
X80.5Y-76.0
X80.5Y-78.54
X80.5Y-81.08
X80.5Y-83.62
X85.5Y-76.0
X85.5Y-78.54
X85.5Y-81.08
X85.5Y-83.62
X90.5Y-76.0
X90.5Y-78.54
X90.5Y-81.08
X94.92Y-15.0
X94.92Y-19.5
X94.92Y-24.0
X94.92Y-34.0
X94.92Y-38.5
X94.92Y-43.0
X94.92Y-53.0
X94.92Y-57.5
X94.92Y-62.0
X95.0Y-76.0
X95.0Y-78.54
X95.0Y-81.08
X97.46Y-15.0
X97.46Y-19.5
X97.46Y-24.0
X97.46Y-34.0
X97.46Y-38.5
X97.46Y-43.0
X97.46Y-53.0
X97.46Y-57.5
X97.46Y-62.0
X99.5Y-76.0
X99.5Y-78.54
X99.5Y-81.08
X100.0Y-15.0
X100.0Y-19.5
X100.0Y-24.0
X100.0Y-34.0
X100.0Y-38.5
X100.0Y-43.0
X100.0Y-53.0
X100.0Y-57.5
X100.0Y-62.0
T8
X53.9Y-82.0
X62.1Y-82.0
T9
X68.0Y-80.0
X73.0Y-80.0
T10
X5.0Y-5.0
X5.0Y-85.0
X105.0Y-5.0
X105.0Y-85.0
T5
X32.68Y-82.445G85X32.68Y-83.545
G05
X32.68Y-86.875G85X32.68Y-87.475
G05
X41.32Y-82.445G85X41.32Y-83.545
G05
X41.32Y-86.875G85X41.32Y-87.475
G05
M30
