%TF.GenerationSoftware,KiCad,Pcbnew,10.0.6*%
%TF.CreationDate,2026-10-01T06:41:42+01:00*%
%TF.ProjectId,Hexapod_Robot_Board,48657861-706f-4645-9f52-6f626f745f42,rev?*%
%TF.SameCoordinates,Original*%
%TF.FileFunction,Soldermask,Bot*%
%TF.FilePolarity,Negative*%
%FSLAX46Y46*%
G04 Gerber Fmt 4.6, Leading zero omitted, Abs format (unit mm)*
G04 Created by KiCad (PCBNEW 10.0.6) date 2026-10-01 06:41:42*
%MOMM*%
%LPD*%
G01*
G04 APERTURE LIST*
G04 Aperture macros list*
%AMRoundRect*
0 Rectangle with rounded corners*
0 $1 Rounding radius*
0 $2 $3 $4 $5 $6 $7 $8 $9 X,Y pos of 4 corners*
0 Add a 4 corners polygon primitive as box body*
4,1,4,$2,$3,$4,$5,$6,$7,$8,$9,$2,$3,0*
0 Add four circle primitives for the rounded corners*
1,1,$1+$1,$2,$3*
1,1,$1+$1,$4,$5*
1,1,$1+$1,$6,$7*
1,1,$1+$1,$8,$9*
0 Add four rect primitives between the rounded corners*
20,1,$1+$1,$2,$3,$4,$5,0*
20,1,$1+$1,$4,$5,$6,$7,0*
20,1,$1+$1,$6,$7,$8,$9,0*
20,1,$1+$1,$8,$9,$2,$3,0*%
G04 Aperture macros list end*
%ADD10R,1.700000X1.700000*%
%ADD11C,1.700000*%
%ADD12C,1.400000*%
%ADD13RoundRect,0.770000X-0.980000X-0.980000X0.980000X-0.980000X0.980000X0.980000X-0.980000X0.980000X0*%
%ADD14C,3.500000*%
%ADD15C,0.800000*%
%ADD16C,6.400000*%
%ADD17RoundRect,0.250000X-0.550000X-0.550000X0.550000X-0.550000X0.550000X0.550000X-0.550000X0.550000X0*%
%ADD18C,1.600000*%
%ADD19O,2.200000X3.500000*%
%ADD20R,1.500000X2.500000*%
%ADD21O,1.500000X2.500000*%
%ADD22C,0.650000*%
%ADD23O,1.000000X2.100000*%
%ADD24O,1.000000X1.600000*%
G04 APERTURE END LIST*
D10*
%TO.C,J_L4_C*%
X10000000Y-15000000D03*
D11*
X12540000Y-15000000D03*
X15080000Y-15000000D03*
%TD*%
D10*
%TO.C,J_L3_C*%
X100000000Y-53000000D03*
D11*
X97460000Y-53000000D03*
X94920000Y-53000000D03*
%TD*%
D10*
%TO.C,J_L6_F*%
X10000000Y-57500000D03*
D11*
X12540000Y-57500000D03*
X15080000Y-57500000D03*
%TD*%
D10*
%TO.C,J_L6_C*%
X10000000Y-53000000D03*
D11*
X12540000Y-53000000D03*
X15080000Y-53000000D03*
%TD*%
D12*
%TO.C,J_BAT*%
X65000000Y-70000000D03*
X76000000Y-70000000D03*
D13*
X73000000Y-80000000D03*
D14*
X68000000Y-80000000D03*
%TD*%
D10*
%TO.C,J_L1_F*%
X100000000Y-19500000D03*
D11*
X97460000Y-19500000D03*
X94920000Y-19500000D03*
%TD*%
D15*
%TO.C,H3*%
X2600000Y-85000000D03*
X3302944Y-83302944D03*
X3302944Y-86697056D03*
X5000000Y-82600000D03*
D16*
X5000000Y-85000000D03*
D15*
X5000000Y-87400000D03*
X6697056Y-83302944D03*
X6697056Y-86697056D03*
X7400000Y-85000000D03*
%TD*%
D10*
%TO.C,J_UART*%
X80500000Y-76000000D03*
D11*
X80500000Y-78540000D03*
X80500000Y-81080000D03*
X80500000Y-83620000D03*
%TD*%
D10*
%TO.C,J_AUX6*%
X21500000Y-76000000D03*
D11*
X21500000Y-78540000D03*
X21500000Y-81080000D03*
%TD*%
D10*
%TO.C,J_AUX3*%
X99500000Y-76000000D03*
D11*
X99500000Y-78540000D03*
X99500000Y-81080000D03*
%TD*%
D17*
%TO.C,C_IN1_L*%
X20000000Y-28000000D03*
D18*
X23500000Y-28000000D03*
%TD*%
D15*
%TO.C,H1*%
X2600000Y-5000000D03*
X3302944Y-3302944D03*
X3302944Y-6697056D03*
X5000000Y-2600000D03*
D16*
X5000000Y-5000000D03*
D15*
X5000000Y-7400000D03*
X6697056Y-3302944D03*
X6697056Y-6697056D03*
X7400000Y-5000000D03*
%TD*%
D10*
%TO.C,J_AUX5*%
X16500000Y-76000000D03*
D11*
X16500000Y-78540000D03*
X16500000Y-81080000D03*
%TD*%
D15*
%TO.C,H4*%
X102600000Y-85000000D03*
X103302944Y-83302944D03*
X103302944Y-86697056D03*
X105000000Y-82600000D03*
D16*
X105000000Y-85000000D03*
D15*
X105000000Y-87400000D03*
X106697056Y-83302944D03*
X106697056Y-86697056D03*
X107400000Y-85000000D03*
%TD*%
D10*
%TO.C,J_L2_C*%
X100000000Y-34000000D03*
D11*
X97460000Y-34000000D03*
X94920000Y-34000000D03*
%TD*%
D10*
%TO.C,J_AUX4*%
X11500000Y-76000000D03*
D11*
X11500000Y-78540000D03*
X11500000Y-81080000D03*
%TD*%
D10*
%TO.C,J_L2_F*%
X100000000Y-38500000D03*
D11*
X97460000Y-38500000D03*
X94920000Y-38500000D03*
%TD*%
D17*
%TO.C,C_OUT1_R*%
X67000000Y-51500000D03*
D18*
X70500000Y-51500000D03*
%TD*%
D17*
%TO.C,C_IN1_R*%
X87000000Y-26000000D03*
D18*
X90500000Y-26000000D03*
%TD*%
D10*
%TO.C,J_L4_F*%
X10000000Y-19500000D03*
D11*
X12540000Y-19500000D03*
X15080000Y-19500000D03*
%TD*%
D15*
%TO.C,H2*%
X102600000Y-5000000D03*
X103302944Y-3302944D03*
X103302944Y-6697056D03*
X105000000Y-2600000D03*
D16*
X105000000Y-5000000D03*
D15*
X105000000Y-7400000D03*
X106697056Y-3302944D03*
X106697056Y-6697056D03*
X107400000Y-5000000D03*
%TD*%
D19*
%TO.C,SW_PWR*%
X53900000Y-82000000D03*
X62100000Y-82000000D03*
D20*
X56000000Y-82000000D03*
D21*
X58000000Y-82000000D03*
X60000000Y-82000000D03*
%TD*%
D10*
%TO.C,J_L2_T*%
X100000000Y-43000000D03*
D11*
X97460000Y-43000000D03*
X94920000Y-43000000D03*
%TD*%
D10*
%TO.C,J_L1_C*%
X100000000Y-15000000D03*
D11*
X97460000Y-15000000D03*
X94920000Y-15000000D03*
%TD*%
D10*
%TO.C,J_L6_T*%
X10000000Y-62000000D03*
D11*
X12540000Y-62000000D03*
X15080000Y-62000000D03*
%TD*%
D10*
%TO.C,J_AUX1*%
X90500000Y-76000000D03*
D11*
X90500000Y-78540000D03*
X90500000Y-81080000D03*
%TD*%
D17*
%TO.C,C_OUT1_L*%
X43000000Y-51500000D03*
D18*
X46500000Y-51500000D03*
%TD*%
D10*
%TO.C,J_AUX2*%
X95000000Y-76000000D03*
D11*
X95000000Y-78540000D03*
X95000000Y-81080000D03*
%TD*%
D10*
%TO.C,J_L3_T*%
X100000000Y-62000000D03*
D11*
X97460000Y-62000000D03*
X94920000Y-62000000D03*
%TD*%
D10*
%TO.C,J_L5_C*%
X10000000Y-34000000D03*
D11*
X12540000Y-34000000D03*
X15080000Y-34000000D03*
%TD*%
D10*
%TO.C,J_L5_T*%
X10000000Y-43000000D03*
D11*
X12540000Y-43000000D03*
X15080000Y-43000000D03*
%TD*%
D17*
%TO.C,C_ISO1*%
X74000000Y-22000000D03*
D18*
X77500000Y-22000000D03*
%TD*%
D10*
%TO.C,J_I2C*%
X85500000Y-76000000D03*
D11*
X85500000Y-78540000D03*
X85500000Y-81080000D03*
X85500000Y-83620000D03*
%TD*%
D10*
%TO.C,J_L5_F*%
X10000000Y-38500000D03*
D11*
X12540000Y-38500000D03*
X15080000Y-38500000D03*
%TD*%
D10*
%TO.C,J_L3_F*%
X100000000Y-57500000D03*
D11*
X97460000Y-57500000D03*
X94920000Y-57500000D03*
%TD*%
D10*
%TO.C,J_L4_T*%
X10000000Y-24000000D03*
D11*
X12540000Y-24000000D03*
X15080000Y-24000000D03*
%TD*%
D22*
%TO.C,J1*%
X34110000Y-83495000D03*
X39890000Y-83495000D03*
D23*
X32680000Y-82995000D03*
D24*
X32680000Y-87175000D03*
D23*
X41320000Y-82995000D03*
D24*
X41320000Y-87175000D03*
%TD*%
D10*
%TO.C,J_L1_T*%
X100000000Y-24000000D03*
D11*
X97460000Y-24000000D03*
X94920000Y-24000000D03*
%TD*%
M02*
