%TF.GenerationSoftware,KiCad,Pcbnew,10.0.6*%
%TF.CreationDate,2026-10-01T07:09:42+01:00*%
%TF.ProjectId,Hexapod_Robot_Board,48657861-706f-4645-9f52-6f626f745f42,rev?*%
%TF.SameCoordinates,Original*%
%TF.FileFunction,Copper,L1,Top*%
%TF.FilePolarity,Positive*%
%FSLAX46Y46*%
G04 Gerber Fmt 4.6, Leading zero omitted, Abs format (unit mm)*
G04 Created by KiCad (PCBNEW 10.0.6) date 2026-10-01 07:09:42*
%MOMM*%
%LPD*%
G01*
G04 APERTURE LIST*
G04 Aperture macros list*
%AMRoundRect*
0 Rectangle with rounded corners*
0 $1 Rounding radius*
0 $2 $3 $4 $5 $6 $7 $8 $9 X,Y pos of 4 corners*
0 Add a 4 corners polygon primitive as box body*
4,1,4,$2,$3,$4,$5,$6,$7,$8,$9,$2,$3,0*
0 Add four circle primitives for the rounded corners*
1,1,$1+$1,$2,$3*
1,1,$1+$1,$4,$5*
1,1,$1+$1,$6,$7*
1,1,$1+$1,$8,$9*
0 Add four rect primitives between the rounded corners*
20,1,$1+$1,$2,$3,$4,$5,0*
20,1,$1+$1,$4,$5,$6,$7,0*
20,1,$1+$1,$6,$7,$8,$9,0*
20,1,$1+$1,$8,$9,$2,$3,0*%
G04 Aperture macros list end*
%TA.AperFunction,ComponentPad*%
%ADD10R,1.700000X1.700000*%
%TD*%
%TA.AperFunction,ComponentPad*%
%ADD11C,1.700000*%
%TD*%
%TA.AperFunction,SMDPad,CuDef*%
%ADD12RoundRect,0.225000X0.250000X-0.225000X0.250000X0.225000X-0.250000X0.225000X-0.250000X-0.225000X0*%
%TD*%
%TA.AperFunction,SMDPad,CuDef*%
%ADD13RoundRect,0.250000X1.400000X1.000000X-1.400000X1.000000X-1.400000X-1.000000X1.400000X-1.000000X0*%
%TD*%
%TA.AperFunction,SMDPad,CuDef*%
%ADD14RoundRect,0.250000X-0.325000X-0.650000X0.325000X-0.650000X0.325000X0.650000X-0.325000X0.650000X0*%
%TD*%
%TA.AperFunction,SMDPad,CuDef*%
%ADD15RoundRect,0.250000X2.050000X0.300000X-2.050000X0.300000X-2.050000X-0.300000X2.050000X-0.300000X0*%
%TD*%
%TA.AperFunction,SMDPad,CuDef*%
%ADD16RoundRect,0.250002X4.449998X5.149998X-4.449998X5.149998X-4.449998X-5.149998X4.449998X-5.149998X0*%
%TD*%
%TA.AperFunction,SMDPad,CuDef*%
%ADD17RoundRect,0.200000X-0.200000X-0.275000X0.200000X-0.275000X0.200000X0.275000X-0.200000X0.275000X0*%
%TD*%
%TA.AperFunction,SMDPad,CuDef*%
%ADD18R,2.900000X5.400000*%
%TD*%
%TA.AperFunction,SMDPad,CuDef*%
%ADD19RoundRect,0.200000X0.275000X-0.200000X0.275000X0.200000X-0.275000X0.200000X-0.275000X-0.200000X0*%
%TD*%
%TA.AperFunction,ComponentPad*%
%ADD20C,1.400000*%
%TD*%
%TA.AperFunction,ComponentPad*%
%ADD21RoundRect,0.770000X-0.980000X-0.980000X0.980000X-0.980000X0.980000X0.980000X-0.980000X0.980000X0*%
%TD*%
%TA.AperFunction,ComponentPad*%
%ADD22C,3.500000*%
%TD*%
%TA.AperFunction,SMDPad,CuDef*%
%ADD23RoundRect,0.243750X0.456250X-0.243750X0.456250X0.243750X-0.456250X0.243750X-0.456250X-0.243750X0*%
%TD*%
%TA.AperFunction,SMDPad,CuDef*%
%ADD24RoundRect,0.225000X-0.225000X-0.250000X0.225000X-0.250000X0.225000X0.250000X-0.225000X0.250000X0*%
%TD*%
%TA.AperFunction,ComponentPad*%
%ADD25C,0.800000*%
%TD*%
%TA.AperFunction,ComponentPad*%
%ADD26C,6.400000*%
%TD*%
%TA.AperFunction,SMDPad,CuDef*%
%ADD27RoundRect,0.375000X-0.625000X-0.375000X0.625000X-0.375000X0.625000X0.375000X-0.625000X0.375000X0*%
%TD*%
%TA.AperFunction,SMDPad,CuDef*%
%ADD28RoundRect,0.500000X-0.500000X-1.400000X0.500000X-1.400000X0.500000X1.400000X-0.500000X1.400000X0*%
%TD*%
%TA.AperFunction,SMDPad,CuDef*%
%ADD29RoundRect,0.250000X-0.250000X-0.475000X0.250000X-0.475000X0.250000X0.475000X-0.250000X0.475000X0*%
%TD*%
%TA.AperFunction,SMDPad,CuDef*%
%ADD30RoundRect,0.100000X-0.637500X-0.100000X0.637500X-0.100000X0.637500X0.100000X-0.637500X0.100000X0*%
%TD*%
%TA.AperFunction,ComponentPad*%
%ADD31RoundRect,0.250000X-0.550000X-0.550000X0.550000X-0.550000X0.550000X0.550000X-0.550000X0.550000X0*%
%TD*%
%TA.AperFunction,ComponentPad*%
%ADD32C,1.600000*%
%TD*%
%TA.AperFunction,SMDPad,CuDef*%
%ADD33RoundRect,0.218750X-0.218750X-0.256250X0.218750X-0.256250X0.218750X0.256250X-0.218750X0.256250X0*%
%TD*%
%TA.AperFunction,SMDPad,CuDef*%
%ADD34RoundRect,0.200000X-0.200000X-0.800000X0.200000X-0.800000X0.200000X0.800000X-0.200000X0.800000X0*%
%TD*%
%TA.AperFunction,SMDPad,CuDef*%
%ADD35R,1.500000X0.900000*%
%TD*%
%TA.AperFunction,SMDPad,CuDef*%
%ADD36R,0.900000X1.500000*%
%TD*%
%TA.AperFunction,HeatsinkPad*%
%ADD37C,0.600000*%
%TD*%
%TA.AperFunction,HeatsinkPad*%
%ADD38R,3.900000X3.900000*%
%TD*%
%TA.AperFunction,SMDPad,CuDef*%
%ADD39RoundRect,0.225000X0.225000X0.375000X-0.225000X0.375000X-0.225000X-0.375000X0.225000X-0.375000X0*%
%TD*%
%TA.AperFunction,ComponentPad*%
%ADD40O,2.200000X3.500000*%
%TD*%
%TA.AperFunction,ComponentPad*%
%ADD41R,1.500000X2.500000*%
%TD*%
%TA.AperFunction,ComponentPad*%
%ADD42O,1.500000X2.500000*%
%TD*%
%TA.AperFunction,SMDPad,CuDef*%
%ADD43R,1.500000X2.200000*%
%TD*%
%TA.AperFunction,SMDPad,CuDef*%
%ADD44RoundRect,0.250000X0.475000X-0.250000X0.475000X0.250000X-0.475000X0.250000X-0.475000X-0.250000X0*%
%TD*%
%TA.AperFunction,SMDPad,CuDef*%
%ADD45RoundRect,0.062500X-0.350000X-0.062500X0.350000X-0.062500X0.350000X0.062500X-0.350000X0.062500X0*%
%TD*%
%TA.AperFunction,SMDPad,CuDef*%
%ADD46RoundRect,0.062500X-0.062500X-0.350000X0.062500X-0.350000X0.062500X0.350000X-0.062500X0.350000X0*%
%TD*%
%TA.AperFunction,HeatsinkPad*%
%ADD47C,0.500000*%
%TD*%
%TA.AperFunction,HeatsinkPad*%
%ADD48R,2.700000X2.700000*%
%TD*%
%TA.AperFunction,SMDPad,CuDef*%
%ADD49RoundRect,0.250000X-2.050000X-0.300000X2.050000X-0.300000X2.050000X0.300000X-2.050000X0.300000X0*%
%TD*%
%TA.AperFunction,SMDPad,CuDef*%
%ADD50RoundRect,0.250002X-4.449998X-5.149998X4.449998X-5.149998X4.449998X5.149998X-4.449998X5.149998X0*%
%TD*%
%TA.AperFunction,SMDPad,CuDef*%
%ADD51RoundRect,0.250000X0.650000X-0.325000X0.650000X0.325000X-0.650000X0.325000X-0.650000X-0.325000X0*%
%TD*%
%TA.AperFunction,SMDPad,CuDef*%
%ADD52RoundRect,0.075000X-0.350000X-0.075000X0.350000X-0.075000X0.350000X0.075000X-0.350000X0.075000X0*%
%TD*%
%TA.AperFunction,SMDPad,CuDef*%
%ADD53RoundRect,0.075000X0.075000X-0.350000X0.075000X0.350000X-0.075000X0.350000X-0.075000X-0.350000X0*%
%TD*%
%TA.AperFunction,SMDPad,CuDef*%
%ADD54RoundRect,0.150000X-0.150000X-0.500000X0.150000X-0.500000X0.150000X0.500000X-0.150000X0.500000X0*%
%TD*%
%TA.AperFunction,SMDPad,CuDef*%
%ADD55RoundRect,0.075000X-0.075000X-0.575000X0.075000X-0.575000X0.075000X0.575000X-0.075000X0.575000X0*%
%TD*%
%TA.AperFunction,ComponentPad*%
%ADD56O,1.000000X2.100000*%
%TD*%
%TA.AperFunction,ComponentPad*%
%ADD57O,1.000000X1.600000*%
%TD*%
%TA.AperFunction,SMDPad,CuDef*%
%ADD58RoundRect,0.218750X0.256250X-0.218750X0.256250X0.218750X-0.256250X0.218750X-0.256250X-0.218750X0*%
%TD*%
%TA.AperFunction,ViaPad*%
%ADD59C,0.600000*%
%TD*%
%TA.AperFunction,ViaPad*%
%ADD60C,0.500000*%
%TD*%
%TA.AperFunction,ViaPad*%
%ADD61C,0.800000*%
%TD*%
%TA.AperFunction,ViaPad*%
%ADD62C,0.550000*%
%TD*%
%TA.AperFunction,Conductor*%
%ADD63C,0.200000*%
%TD*%
%TA.AperFunction,Conductor*%
%ADD64C,0.250000*%
%TD*%
%TA.AperFunction,Conductor*%
%ADD65C,0.800000*%
%TD*%
%TA.AperFunction,Conductor*%
%ADD66C,0.300000*%
%TD*%
%TA.AperFunction,Conductor*%
%ADD67C,1.000000*%
%TD*%
%TA.AperFunction,Conductor*%
%ADD68C,0.500000*%
%TD*%
%TA.AperFunction,Conductor*%
%ADD69C,1.200000*%
%TD*%
%TA.AperFunction,Conductor*%
%ADD70C,0.250200*%
%TD*%
%TA.AperFunction,Conductor*%
%ADD71C,0.400000*%
%TD*%
G04 APERTURE END LIST*
D10*
%TO.P,J_L4_C,1*%
%TO.N,GND*%
X10000000Y-15000000D03*
D11*
%TO.P,J_L4_C,2*%
%TO.N,V_SERVO_L*%
X12540000Y-15000000D03*
%TO.P,J_L4_C,3*%
%TO.N,PWM_9*%
X15080000Y-15000000D03*
%TD*%
D12*
%TO.P,C_PCA3,1*%
%TO.N,+3V3*%
X92000000Y-65775000D03*
%TO.P,C_PCA3,2*%
%TO.N,GND*%
X92000000Y-64225000D03*
%TD*%
D13*
%TO.P,D_CATCH_L,1*%
%TO.N,GND*%
X31000000Y-53900000D03*
%TO.P,D_CATCH_L,2*%
%TO.N,BUCK_SW_L*%
X31000000Y-47100000D03*
%TD*%
D10*
%TO.P,J_L3_C,1*%
%TO.N,GND*%
X100000000Y-53000000D03*
D11*
%TO.P,J_L3_C,2*%
%TO.N,V_SERVO_R*%
X97460000Y-53000000D03*
%TO.P,J_L3_C,3*%
%TO.N,PWM_6*%
X94920000Y-53000000D03*
%TD*%
D10*
%TO.P,J_L6_F,1*%
%TO.N,GND*%
X10000000Y-57500000D03*
D11*
%TO.P,J_L6_F,2*%
%TO.N,V_SERVO_L*%
X12540000Y-57500000D03*
%TO.P,J_L6_F,3*%
%TO.N,PWM_16*%
X15080000Y-57500000D03*
%TD*%
D14*
%TO.P,C_IN2_R,1*%
%TO.N,VBAT_SW*%
X79025000Y-28000000D03*
%TO.P,C_IN2_R,2*%
%TO.N,GND*%
X81975000Y-28000000D03*
%TD*%
D15*
%TO.P,U3_R,1*%
%TO.N,GND*%
X90150000Y-42400000D03*
%TO.P,U3_R,2*%
%TO.N,BUCK_FB_R*%
X90150000Y-40700000D03*
%TO.P,U3_R,3*%
%TO.N,BUCK_SW_R*%
X90150000Y-39000000D03*
D16*
X81000000Y-39000000D03*
D15*
%TO.P,U3_R,4*%
%TO.N,GND*%
X90150000Y-37300000D03*
%TO.P,U3_R,5*%
%TO.N,VBAT_SW*%
X90150000Y-35600000D03*
%TD*%
D17*
%TO.P,R_CHG,1*%
%TO.N,VBUS*%
X25175000Y-84500000D03*
%TO.P,R_CHG,2*%
%TO.N,CHG_STAT*%
X26825000Y-84500000D03*
%TD*%
D18*
%TO.P,L_SERVO_R,1*%
%TO.N,BUCK_SW_R*%
X72450000Y-39000000D03*
%TO.P,L_SERVO_R,2*%
%TO.N,V_SERVO_R*%
X62550000Y-39000000D03*
%TD*%
D19*
%TO.P,R_STAT,1*%
%TO.N,LED_STATUS*%
X68000000Y-28825000D03*
%TO.P,R_STAT,2*%
%TO.N,GND*%
X68000000Y-27175000D03*
%TD*%
D14*
%TO.P,C_OUT2_R,1*%
%TO.N,V_SERVO_R*%
X65525000Y-59000000D03*
%TO.P,C_OUT2_R,2*%
%TO.N,GND*%
X68475000Y-59000000D03*
%TD*%
D10*
%TO.P,J_L6_C,1*%
%TO.N,GND*%
X10000000Y-53000000D03*
D11*
%TO.P,J_L6_C,2*%
%TO.N,V_SERVO_L*%
X12540000Y-53000000D03*
%TO.P,J_L6_C,3*%
%TO.N,PWM_15*%
X15080000Y-53000000D03*
%TD*%
D12*
%TO.P,C_VBUS2,1*%
%TO.N,VBUS*%
X44500000Y-87775000D03*
%TO.P,C_VBUS2,2*%
%TO.N,GND*%
X44500000Y-86225000D03*
%TD*%
D20*
%TO.P,J_BAT,*%
%TO.N,*%
X65000000Y-70000000D03*
X76000000Y-70000000D03*
D21*
%TO.P,J_BAT,1*%
%TO.N,VBAT*%
X73000000Y-80000000D03*
D22*
%TO.P,J_BAT,2*%
%TO.N,GND*%
X68000000Y-80000000D03*
%TD*%
D19*
%TO.P,R_FB2_L,1*%
%TO.N,BUCK_FB_L*%
X20500000Y-51325000D03*
%TO.P,R_FB2_L,2*%
%TO.N,GND*%
X20500000Y-49675000D03*
%TD*%
D14*
%TO.P,C_IN2_L,1*%
%TO.N,VBAT_SW*%
X28025000Y-28000000D03*
%TO.P,C_IN2_L,2*%
%TO.N,GND*%
X30975000Y-28000000D03*
%TD*%
D23*
%TO.P,LED_L,1*%
%TO.N,V_SERVO_L*%
X20500000Y-54937500D03*
%TO.P,LED_L,2*%
%TO.N,Net-(LED_L-A)*%
X20500000Y-53062500D03*
%TD*%
D24*
%TO.P,C2,1*%
%TO.N,+3V3*%
X41225000Y-17500000D03*
%TO.P,C2,2*%
%TO.N,GND*%
X42775000Y-17500000D03*
%TD*%
D17*
%TO.P,R_SDA,1*%
%TO.N,+3V3*%
X50175000Y-55000000D03*
%TO.P,R_SDA,2*%
%TO.N,I2C_SDA*%
X51825000Y-55000000D03*
%TD*%
D10*
%TO.P,J_L1_F,1*%
%TO.N,GND*%
X100000000Y-19500000D03*
D11*
%TO.P,J_L1_F,2*%
%TO.N,V_SERVO_R*%
X97460000Y-19500000D03*
%TO.P,J_L1_F,3*%
%TO.N,PWM_1*%
X94920000Y-19500000D03*
%TD*%
D12*
%TO.P,C_DIV,1*%
%TO.N,VBAT_SENSE*%
X68000000Y-21775000D03*
%TO.P,C_DIV,2*%
%TO.N,GND*%
X68000000Y-20225000D03*
%TD*%
D25*
%TO.P,H3,1*%
%TO.N,GND*%
X2600000Y-85000000D03*
X3302944Y-83302944D03*
X3302944Y-86697056D03*
X5000000Y-82600000D03*
D26*
X5000000Y-85000000D03*
D25*
X5000000Y-87400000D03*
X6697056Y-83302944D03*
X6697056Y-86697056D03*
X7400000Y-85000000D03*
%TD*%
D10*
%TO.P,J_UART,1*%
%TO.N,+3V3*%
X80500000Y-76000000D03*
D11*
%TO.P,J_UART,2*%
%TO.N,GND*%
X80500000Y-78540000D03*
%TO.P,J_UART,3*%
%TO.N,UART_TX*%
X80500000Y-81080000D03*
%TO.P,J_UART,4*%
%TO.N,UART_RX*%
X80500000Y-83620000D03*
%TD*%
D27*
%TO.P,U4,1*%
%TO.N,GND*%
X80850000Y-10700000D03*
%TO.P,U4,2*%
%TO.N,+3V3*%
X80850000Y-13000000D03*
D28*
X87150000Y-13000000D03*
D27*
%TO.P,U4,3*%
%TO.N,LDO_IN*%
X80850000Y-15300000D03*
%TD*%
D10*
%TO.P,J_AUX6,1*%
%TO.N,GND*%
X21500000Y-76000000D03*
D11*
%TO.P,J_AUX6,2*%
%TO.N,V_SERVO_L*%
X21500000Y-78540000D03*
%TO.P,J_AUX6,3*%
%TO.N,PWM_23*%
X21500000Y-81080000D03*
%TD*%
D17*
%TO.P,R_CC2,1*%
%TO.N,CC2*%
X28675000Y-84500000D03*
%TO.P,R_CC2,2*%
%TO.N,GND*%
X30325000Y-84500000D03*
%TD*%
D10*
%TO.P,J_AUX3,1*%
%TO.N,GND*%
X99500000Y-76000000D03*
D11*
%TO.P,J_AUX3,2*%
%TO.N,V_SERVO_R*%
X99500000Y-78540000D03*
%TO.P,J_AUX3,3*%
%TO.N,PWM_20*%
X99500000Y-81080000D03*
%TD*%
D29*
%TO.P,C_3V3_1,1*%
%TO.N,+3V3*%
X88050000Y-7500000D03*
%TO.P,C_3V3_1,2*%
%TO.N,GND*%
X89950000Y-7500000D03*
%TD*%
D19*
%TO.P,R_FB1_R,1*%
%TO.N,V_SERVO_R*%
X89500000Y-47825000D03*
%TO.P,R_FB1_R,2*%
%TO.N,BUCK_FB_R*%
X89500000Y-46175000D03*
%TD*%
D30*
%TO.P,U6,1*%
%TO.N,+3V3*%
X81137500Y-62775000D03*
%TO.P,U6,2*%
%TO.N,GND*%
X81137500Y-63425000D03*
%TO.P,U6,3*%
X81137500Y-64075000D03*
%TO.P,U6,4*%
X81137500Y-64725000D03*
%TO.P,U6,5*%
X81137500Y-65375000D03*
%TO.P,U6,6*%
%TO.N,PWM_16*%
X81137500Y-66025000D03*
%TO.P,U6,7*%
%TO.N,PWM_17*%
X81137500Y-66675000D03*
%TO.P,U6,8*%
%TO.N,PWM_18*%
X81137500Y-67325000D03*
%TO.P,U6,9*%
%TO.N,PWM_19*%
X81137500Y-67975000D03*
%TO.P,U6,10*%
%TO.N,PWM_20*%
X81137500Y-68625000D03*
%TO.P,U6,11*%
%TO.N,PWM_21*%
X81137500Y-69275000D03*
%TO.P,U6,12*%
%TO.N,PWM_22*%
X81137500Y-69925000D03*
%TO.P,U6,13*%
%TO.N,PWM_23*%
X81137500Y-70575000D03*
%TO.P,U6,14*%
%TO.N,GND*%
X81137500Y-71225000D03*
%TO.P,U6,15*%
%TO.N,unconnected-(U6-LED8-Pad15)*%
X86862500Y-71225000D03*
%TO.P,U6,16*%
%TO.N,unconnected-(U6-LED9-Pad16)*%
X86862500Y-70575000D03*
%TO.P,U6,17*%
%TO.N,unconnected-(U6-LED10-Pad17)*%
X86862500Y-69925000D03*
%TO.P,U6,18*%
%TO.N,unconnected-(U6-LED11-Pad18)*%
X86862500Y-69275000D03*
%TO.P,U6,19*%
%TO.N,unconnected-(U6-LED12-Pad19)*%
X86862500Y-68625000D03*
%TO.P,U6,20*%
%TO.N,unconnected-(U6-LED13-Pad20)*%
X86862500Y-67975000D03*
%TO.P,U6,21*%
%TO.N,unconnected-(U6-LED14-Pad21)*%
X86862500Y-67325000D03*
%TO.P,U6,22*%
%TO.N,unconnected-(U6-LED15-Pad22)*%
X86862500Y-66675000D03*
%TO.P,U6,23*%
%TO.N,SERVO_OE*%
X86862500Y-66025000D03*
%TO.P,U6,24*%
%TO.N,GND*%
X86862500Y-65375000D03*
%TO.P,U6,25*%
X86862500Y-64725000D03*
%TO.P,U6,26*%
%TO.N,I2C_SCL*%
X86862500Y-64075000D03*
%TO.P,U6,27*%
%TO.N,I2C_SDA*%
X86862500Y-63425000D03*
%TO.P,U6,28*%
%TO.N,+3V3*%
X86862500Y-62775000D03*
%TD*%
%TO.P,U5,1*%
%TO.N,GND*%
X23137500Y-62775000D03*
%TO.P,U5,2*%
X23137500Y-63425000D03*
%TO.P,U5,3*%
X23137500Y-64075000D03*
%TO.P,U5,4*%
X23137500Y-64725000D03*
%TO.P,U5,5*%
X23137500Y-65375000D03*
%TO.P,U5,6*%
%TO.N,PWM_0*%
X23137500Y-66025000D03*
%TO.P,U5,7*%
%TO.N,PWM_1*%
X23137500Y-66675000D03*
%TO.P,U5,8*%
%TO.N,PWM_2*%
X23137500Y-67325000D03*
%TO.P,U5,9*%
%TO.N,PWM_3*%
X23137500Y-67975000D03*
%TO.P,U5,10*%
%TO.N,PWM_4*%
X23137500Y-68625000D03*
%TO.P,U5,11*%
%TO.N,PWM_5*%
X23137500Y-69275000D03*
%TO.P,U5,12*%
%TO.N,PWM_6*%
X23137500Y-69925000D03*
%TO.P,U5,13*%
%TO.N,PWM_7*%
X23137500Y-70575000D03*
%TO.P,U5,14*%
%TO.N,GND*%
X23137500Y-71225000D03*
%TO.P,U5,15*%
%TO.N,PWM_8*%
X28862500Y-71225000D03*
%TO.P,U5,16*%
%TO.N,PWM_9*%
X28862500Y-70575000D03*
%TO.P,U5,17*%
%TO.N,PWM_10*%
X28862500Y-69925000D03*
%TO.P,U5,18*%
%TO.N,PWM_11*%
X28862500Y-69275000D03*
%TO.P,U5,19*%
%TO.N,PWM_12*%
X28862500Y-68625000D03*
%TO.P,U5,20*%
%TO.N,PWM_13*%
X28862500Y-67975000D03*
%TO.P,U5,21*%
%TO.N,PWM_14*%
X28862500Y-67325000D03*
%TO.P,U5,22*%
%TO.N,PWM_15*%
X28862500Y-66675000D03*
%TO.P,U5,23*%
%TO.N,SERVO_OE*%
X28862500Y-66025000D03*
%TO.P,U5,24*%
%TO.N,GND*%
X28862500Y-65375000D03*
%TO.P,U5,25*%
X28862500Y-64725000D03*
%TO.P,U5,26*%
%TO.N,I2C_SCL*%
X28862500Y-64075000D03*
%TO.P,U5,27*%
%TO.N,I2C_SDA*%
X28862500Y-63425000D03*
%TO.P,U5,28*%
%TO.N,+3V3*%
X28862500Y-62775000D03*
%TD*%
D31*
%TO.P,C_IN1_L,1*%
%TO.N,VBAT_SW*%
X20000000Y-28000000D03*
D32*
%TO.P,C_IN1_L,2*%
%TO.N,GND*%
X23500000Y-28000000D03*
%TD*%
D19*
%TO.P,R_DIV2,1*%
%TO.N,VBAT_SENSE*%
X68000000Y-18325000D03*
%TO.P,R_DIV2,2*%
%TO.N,GND*%
X68000000Y-16675000D03*
%TD*%
D29*
%TO.P,C1,1*%
%TO.N,+3V3*%
X41050000Y-14000000D03*
%TO.P,C1,2*%
%TO.N,GND*%
X42950000Y-14000000D03*
%TD*%
D25*
%TO.P,H1,1*%
%TO.N,GND*%
X2600000Y-5000000D03*
X3302944Y-3302944D03*
X3302944Y-6697056D03*
X5000000Y-2600000D03*
D26*
X5000000Y-5000000D03*
D25*
X5000000Y-7400000D03*
X6697056Y-3302944D03*
X6697056Y-6697056D03*
X7400000Y-5000000D03*
%TD*%
D10*
%TO.P,J_AUX5,1*%
%TO.N,GND*%
X16500000Y-76000000D03*
D11*
%TO.P,J_AUX5,2*%
%TO.N,V_SERVO_L*%
X16500000Y-78540000D03*
%TO.P,J_AUX5,3*%
%TO.N,PWM_22*%
X16500000Y-81080000D03*
%TD*%
D24*
%TO.P,C_3V3_2,1*%
%TO.N,+3V3*%
X88225000Y-18500000D03*
%TO.P,C_3V3_2,2*%
%TO.N,GND*%
X89775000Y-18500000D03*
%TD*%
D33*
%TO.P,LED_CHG,1*%
%TO.N,VBUS*%
X25212500Y-81500000D03*
%TO.P,LED_CHG,2*%
%TO.N,CHG_STAT*%
X26787500Y-81500000D03*
%TD*%
D19*
%TO.P,R_DIV1,1*%
%TO.N,VBAT_SW*%
X68000000Y-14825000D03*
%TO.P,R_DIV1,2*%
%TO.N,VBAT_SENSE*%
X68000000Y-13175000D03*
%TD*%
D17*
%TO.P,R_OE,1*%
%TO.N,+3V3*%
X56175000Y-55000000D03*
%TO.P,R_OE,2*%
%TO.N,SERVO_OE*%
X57825000Y-55000000D03*
%TD*%
%TO.P,R1,1*%
%TO.N,+3V3*%
X42175000Y-8500000D03*
%TO.P,R1,2*%
%TO.N,ESP_EN*%
X43825000Y-8500000D03*
%TD*%
D19*
%TO.P,R_FB1_L,1*%
%TO.N,V_SERVO_L*%
X20500000Y-47825000D03*
%TO.P,R_FB1_L,2*%
%TO.N,BUCK_FB_L*%
X20500000Y-46175000D03*
%TD*%
D34*
%TO.P,SW1,1*%
%TO.N,ESP_EN*%
X35900000Y-5500000D03*
%TO.P,SW1,2*%
%TO.N,GND*%
X40100000Y-5500000D03*
%TD*%
D24*
%TO.P,C_OUT3_R,1*%
%TO.N,V_SERVO_R*%
X72225000Y-59000000D03*
%TO.P,C_OUT3_R,2*%
%TO.N,GND*%
X73775000Y-59000000D03*
%TD*%
D33*
%TO.P,LED_FULL,1*%
%TO.N,VBUS*%
X25212500Y-87500000D03*
%TO.P,LED_FULL,2*%
%TO.N,CHG_PG*%
X26787500Y-87500000D03*
%TD*%
D25*
%TO.P,H4,1*%
%TO.N,GND*%
X102600000Y-85000000D03*
X103302944Y-83302944D03*
X103302944Y-86697056D03*
X105000000Y-82600000D03*
D26*
X105000000Y-85000000D03*
D25*
X105000000Y-87400000D03*
X106697056Y-83302944D03*
X106697056Y-86697056D03*
X107400000Y-85000000D03*
%TD*%
D10*
%TO.P,J_L2_C,1*%
%TO.N,GND*%
X100000000Y-34000000D03*
D11*
%TO.P,J_L2_C,2*%
%TO.N,V_SERVO_R*%
X97460000Y-34000000D03*
%TO.P,J_L2_C,3*%
%TO.N,PWM_3*%
X94920000Y-34000000D03*
%TD*%
D10*
%TO.P,J_AUX4,1*%
%TO.N,GND*%
X11500000Y-76000000D03*
D11*
%TO.P,J_AUX4,2*%
%TO.N,V_SERVO_L*%
X11500000Y-78540000D03*
%TO.P,J_AUX4,3*%
%TO.N,PWM_21*%
X11500000Y-81080000D03*
%TD*%
D17*
%TO.P,R2,1*%
%TO.N,+3V3*%
X66175000Y-5500000D03*
%TO.P,R2,2*%
%TO.N,ESP_IO0*%
X67825000Y-5500000D03*
%TD*%
D10*
%TO.P,J_L2_F,1*%
%TO.N,GND*%
X100000000Y-38500000D03*
D11*
%TO.P,J_L2_F,2*%
%TO.N,V_SERVO_R*%
X97460000Y-38500000D03*
%TO.P,J_L2_F,3*%
%TO.N,PWM_4*%
X94920000Y-38500000D03*
%TD*%
D17*
%TO.P,R_BZ,1*%
%TO.N,BUZZER*%
X59175000Y-55000000D03*
%TO.P,R_BZ,2*%
%TO.N,GND*%
X60825000Y-55000000D03*
%TD*%
D13*
%TO.P,D_CATCH_R,1*%
%TO.N,GND*%
X79000000Y-53900000D03*
%TO.P,D_CATCH_R,2*%
%TO.N,BUCK_SW_R*%
X79000000Y-47100000D03*
%TD*%
D24*
%TO.P,C3,1*%
%TO.N,ESP_EN*%
X42225000Y-5500000D03*
%TO.P,C3,2*%
%TO.N,GND*%
X43775000Y-5500000D03*
%TD*%
D17*
%TO.P,R_3V3_LED,1*%
%TO.N,+3V3*%
X93175000Y-11000000D03*
%TO.P,R_3V3_LED,2*%
%TO.N,GND*%
X94825000Y-11000000D03*
%TD*%
D19*
%TO.P,R_LED_R,1*%
%TO.N,Net-(LED_R-A)*%
X89500000Y-58325000D03*
%TO.P,R_LED_R,2*%
%TO.N,GND*%
X89500000Y-56675000D03*
%TD*%
D12*
%TO.P,C_PCA1,1*%
%TO.N,+3V3*%
X18000000Y-65775000D03*
%TO.P,C_PCA1,2*%
%TO.N,GND*%
X18000000Y-64225000D03*
%TD*%
D31*
%TO.P,C_OUT1_R,1*%
%TO.N,V_SERVO_R*%
X67000000Y-51500000D03*
D32*
%TO.P,C_OUT1_R,2*%
%TO.N,GND*%
X70500000Y-51500000D03*
%TD*%
D31*
%TO.P,C_IN1_R,1*%
%TO.N,VBAT_SW*%
X87000000Y-26000000D03*
D32*
%TO.P,C_IN1_R,2*%
%TO.N,GND*%
X90500000Y-26000000D03*
%TD*%
D29*
%TO.P,C_ISO2,1*%
%TO.N,LDO_IN*%
X73050000Y-28000000D03*
%TO.P,C_ISO2,2*%
%TO.N,GND*%
X74950000Y-28000000D03*
%TD*%
D10*
%TO.P,J_L4_F,1*%
%TO.N,GND*%
X10000000Y-19500000D03*
D11*
%TO.P,J_L4_F,2*%
%TO.N,V_SERVO_L*%
X12540000Y-19500000D03*
%TO.P,J_L4_F,3*%
%TO.N,PWM_10*%
X15080000Y-19500000D03*
%TD*%
D12*
%TO.P,C_BAT2,1*%
%TO.N,VBAT*%
X51000000Y-76275000D03*
%TO.P,C_BAT2,2*%
%TO.N,GND*%
X51000000Y-74725000D03*
%TD*%
D19*
%TO.P,R_LED_L,1*%
%TO.N,Net-(LED_L-A)*%
X20500000Y-58325000D03*
%TO.P,R_LED_L,2*%
%TO.N,GND*%
X20500000Y-56675000D03*
%TD*%
D35*
%TO.P,U1,1*%
%TO.N,GND*%
X46250000Y-3090000D03*
%TO.P,U1,2*%
%TO.N,+3V3*%
X46250000Y-4360000D03*
%TO.P,U1,3*%
%TO.N,ESP_EN*%
X46250000Y-5630000D03*
%TO.P,U1,4*%
%TO.N,unconnected-(U1-IO4-Pad4)*%
X46250000Y-6900000D03*
%TO.P,U1,5*%
%TO.N,unconnected-(U1-IO5-Pad5)*%
X46250000Y-8170000D03*
%TO.P,U1,6*%
%TO.N,unconnected-(U1-IO6-Pad6)*%
X46250000Y-9440000D03*
%TO.P,U1,7*%
%TO.N,unconnected-(U1-IO7-Pad7)*%
X46250000Y-10710000D03*
%TO.P,U1,8*%
%TO.N,unconnected-(U1-IO15-Pad8)*%
X46250000Y-11980000D03*
%TO.P,U1,9*%
%TO.N,unconnected-(U1-IO16-Pad9)*%
X46250000Y-13250000D03*
%TO.P,U1,10*%
%TO.N,unconnected-(U1-IO17-Pad10)*%
X46250000Y-14520000D03*
%TO.P,U1,11*%
%TO.N,MPU_INT*%
X46250000Y-15790000D03*
%TO.P,U1,12*%
%TO.N,I2C_SDA*%
X46250000Y-17060000D03*
%TO.P,U1,13*%
%TO.N,USB_D-*%
X46250000Y-18330000D03*
%TO.P,U1,14*%
%TO.N,USB_D+*%
X46250000Y-19600000D03*
D36*
%TO.P,U1,15*%
%TO.N,unconnected-(U1-IO3-Pad15)*%
X48015000Y-20850000D03*
%TO.P,U1,16*%
%TO.N,unconnected-(U1-IO46-Pad16)*%
X49285000Y-20850000D03*
%TO.P,U1,17*%
%TO.N,I2C_SCL*%
X50555000Y-20850000D03*
%TO.P,U1,18*%
%TO.N,SERVO_OE*%
X51825000Y-20850000D03*
%TO.P,U1,19*%
%TO.N,unconnected-(U1-IO11-Pad19)*%
X53095000Y-20850000D03*
%TO.P,U1,20*%
%TO.N,unconnected-(U1-IO12-Pad20)*%
X54365000Y-20850000D03*
%TO.P,U1,21*%
%TO.N,unconnected-(U1-IO13-Pad21)*%
X55635000Y-20850000D03*
%TO.P,U1,22*%
%TO.N,unconnected-(U1-IO14-Pad22)*%
X56905000Y-20850000D03*
%TO.P,U1,23*%
%TO.N,BUZZER*%
X58175000Y-20850000D03*
%TO.P,U1,24*%
%TO.N,unconnected-(U1-IO47-Pad24)*%
X59445000Y-20850000D03*
%TO.P,U1,25*%
%TO.N,unconnected-(U1-IO48-Pad25)*%
X60715000Y-20850000D03*
%TO.P,U1,26*%
%TO.N,unconnected-(U1-IO45-Pad26)*%
X61985000Y-20850000D03*
D35*
%TO.P,U1,27*%
%TO.N,ESP_IO0*%
X63750000Y-19600000D03*
%TO.P,U1,28*%
%TO.N,unconnected-(U1-IO35-Pad28)*%
X63750000Y-18330000D03*
%TO.P,U1,29*%
%TO.N,unconnected-(U1-IO36-Pad29)*%
X63750000Y-17060000D03*
%TO.P,U1,30*%
%TO.N,unconnected-(U1-IO37-Pad30)*%
X63750000Y-15790000D03*
%TO.P,U1,31*%
%TO.N,unconnected-(U1-IO38-Pad31)*%
X63750000Y-14520000D03*
%TO.P,U1,32*%
%TO.N,unconnected-(U1-IO39-Pad32)*%
X63750000Y-13250000D03*
%TO.P,U1,33*%
%TO.N,unconnected-(U1-IO40-Pad33)*%
X63750000Y-11980000D03*
%TO.P,U1,34*%
%TO.N,unconnected-(U1-IO41-Pad34)*%
X63750000Y-10710000D03*
%TO.P,U1,35*%
%TO.N,unconnected-(U1-IO42-Pad35)*%
X63750000Y-9440000D03*
%TO.P,U1,36*%
%TO.N,UART_RX*%
X63750000Y-8170000D03*
%TO.P,U1,37*%
%TO.N,UART_TX*%
X63750000Y-6900000D03*
%TO.P,U1,38*%
%TO.N,LED_STATUS*%
X63750000Y-5630000D03*
%TO.P,U1,39*%
%TO.N,VBAT_SENSE*%
X63750000Y-4360000D03*
%TO.P,U1,40*%
%TO.N,GND*%
X63750000Y-3090000D03*
D37*
%TO.P,U1,41*%
X52100000Y-10110000D03*
X52100000Y-11510000D03*
X52800000Y-9410000D03*
X52800000Y-10810000D03*
X52800000Y-12210000D03*
X53500000Y-10110000D03*
D38*
X53500000Y-10810000D03*
D37*
X53500000Y-11510000D03*
X54200000Y-9410000D03*
X54200000Y-10810000D03*
X54200000Y-12210000D03*
X54900000Y-10110000D03*
X54900000Y-11510000D03*
%TD*%
D39*
%TO.P,D_ISO,1*%
%TO.N,VBAT_SW*%
X77650000Y-12000000D03*
%TO.P,D_ISO,2*%
%TO.N,LDO_IN*%
X74350000Y-12000000D03*
%TD*%
D25*
%TO.P,H2,1*%
%TO.N,GND*%
X102600000Y-5000000D03*
X103302944Y-3302944D03*
X103302944Y-6697056D03*
X105000000Y-2600000D03*
D26*
X105000000Y-5000000D03*
D25*
X105000000Y-7400000D03*
X106697056Y-3302944D03*
X106697056Y-6697056D03*
X107400000Y-5000000D03*
%TD*%
D24*
%TO.P,C_MPU5,1*%
%TO.N,Net-(U7-CPOUT)*%
X56725000Y-50500000D03*
%TO.P,C_MPU5,2*%
%TO.N,GND*%
X58275000Y-50500000D03*
%TD*%
D40*
%TO.P,SW_PWR,*%
%TO.N,*%
X53900000Y-82000000D03*
X62100000Y-82000000D03*
D41*
%TO.P,SW_PWR,1*%
%TO.N,VBAT*%
X56000000Y-82000000D03*
D42*
%TO.P,SW_PWR,2*%
%TO.N,VBAT_SW*%
X58000000Y-82000000D03*
%TO.P,SW_PWR,3*%
X60000000Y-82000000D03*
%TD*%
D34*
%TO.P,SW2,1*%
%TO.N,ESP_IO0*%
X69900000Y-5500000D03*
%TO.P,SW2,2*%
%TO.N,GND*%
X74100000Y-5500000D03*
%TD*%
D10*
%TO.P,J_L2_T,1*%
%TO.N,GND*%
X100000000Y-43000000D03*
D11*
%TO.P,J_L2_T,2*%
%TO.N,V_SERVO_R*%
X97460000Y-43000000D03*
%TO.P,J_L2_T,3*%
%TO.N,PWM_5*%
X94920000Y-43000000D03*
%TD*%
D10*
%TO.P,J_L1_C,1*%
%TO.N,GND*%
X100000000Y-15000000D03*
D11*
%TO.P,J_L1_C,2*%
%TO.N,V_SERVO_R*%
X97460000Y-15000000D03*
%TO.P,J_L1_C,3*%
%TO.N,PWM_0*%
X94920000Y-15000000D03*
%TD*%
D24*
%TO.P,C_OUT3_L,1*%
%TO.N,V_SERVO_L*%
X36225000Y-59000000D03*
%TO.P,C_OUT3_L,2*%
%TO.N,GND*%
X37775000Y-59000000D03*
%TD*%
D10*
%TO.P,J_L6_T,1*%
%TO.N,GND*%
X10000000Y-62000000D03*
D11*
%TO.P,J_L6_T,2*%
%TO.N,V_SERVO_L*%
X12540000Y-62000000D03*
%TO.P,J_L6_T,3*%
%TO.N,PWM_17*%
X15080000Y-62000000D03*
%TD*%
D43*
%TO.P,L_CHG,1*%
%TO.N,VBUS*%
X41300000Y-73000000D03*
%TO.P,L_CHG,2*%
%TO.N,CHG_SW*%
X47700000Y-73000000D03*
%TD*%
D10*
%TO.P,J_AUX1,1*%
%TO.N,GND*%
X90500000Y-76000000D03*
D11*
%TO.P,J_AUX1,2*%
%TO.N,V_SERVO_R*%
X90500000Y-78540000D03*
%TO.P,J_AUX1,3*%
%TO.N,PWM_18*%
X90500000Y-81080000D03*
%TD*%
D24*
%TO.P,C_MPU2,1*%
%TO.N,Net-(U7-REGOUT)*%
X51725000Y-50500000D03*
%TO.P,C_MPU2,2*%
%TO.N,GND*%
X53275000Y-50500000D03*
%TD*%
D31*
%TO.P,C_OUT1_L,1*%
%TO.N,V_SERVO_L*%
X43000000Y-51500000D03*
D32*
%TO.P,C_OUT1_L,2*%
%TO.N,GND*%
X46500000Y-51500000D03*
%TD*%
D10*
%TO.P,J_AUX2,1*%
%TO.N,GND*%
X95000000Y-76000000D03*
D11*
%TO.P,J_AUX2,2*%
%TO.N,V_SERVO_R*%
X95000000Y-78540000D03*
%TO.P,J_AUX2,3*%
%TO.N,PWM_19*%
X95000000Y-81080000D03*
%TD*%
D44*
%TO.P,C_PCA2,1*%
%TO.N,+3V3*%
X18000000Y-69950000D03*
%TO.P,C_PCA2,2*%
%TO.N,GND*%
X18000000Y-68050000D03*
%TD*%
D10*
%TO.P,J_L3_T,1*%
%TO.N,GND*%
X100000000Y-62000000D03*
D11*
%TO.P,J_L3_T,2*%
%TO.N,V_SERVO_R*%
X97460000Y-62000000D03*
%TO.P,J_L3_T,3*%
%TO.N,PWM_8*%
X94920000Y-62000000D03*
%TD*%
D45*
%TO.P,U2,1*%
%TO.N,unconnected-(U2-D--Pad1)*%
X34037500Y-71750000D03*
%TO.P,U2,2*%
%TO.N,CHG_STAT*%
X34037500Y-72250000D03*
%TO.P,U2,3*%
%TO.N,unconnected-(U2-~{CE}-Pad3)*%
X34037500Y-72750000D03*
%TO.P,U2,4*%
%TO.N,GND*%
X34037500Y-73250000D03*
%TO.P,U2,5*%
%TO.N,unconnected-(U2-OTG-Pad5)*%
X34037500Y-73750000D03*
%TO.P,U2,6*%
%TO.N,unconnected-(U2-VSET-Pad6)*%
X34037500Y-74250000D03*
D46*
%TO.P,U2,7*%
%TO.N,unconnected-(U2-TS-Pad7)*%
X34750000Y-74962500D03*
%TO.P,U2,8*%
%TO.N,unconnected-(U2-ILIM-Pad8)*%
X35250000Y-74962500D03*
%TO.P,U2,9*%
%TO.N,CHG_PG*%
X35750000Y-74962500D03*
%TO.P,U2,10*%
%TO.N,unconnected-(U2-ICHGSET-Pad10)*%
X36250000Y-74962500D03*
%TO.P,U2,11*%
%TO.N,unconnected-(U2-REGN-Pad11)*%
X36750000Y-74962500D03*
%TO.P,U2,12*%
%TO.N,unconnected-(U2-BTST-Pad12)*%
X37250000Y-74962500D03*
D45*
%TO.P,U2,13*%
%TO.N,VBAT*%
X37962500Y-74250000D03*
%TO.P,U2,14*%
X37962500Y-73750000D03*
%TO.P,U2,15*%
%TO.N,unconnected-(U2-SYS-Pad15)*%
X37962500Y-73250000D03*
%TO.P,U2,16*%
X37962500Y-72750000D03*
%TO.P,U2,17*%
%TO.N,CHG_SW*%
X37962500Y-72250000D03*
%TO.P,U2,18*%
X37962500Y-71750000D03*
D46*
%TO.P,U2,19*%
%TO.N,GND*%
X37250000Y-71037500D03*
%TO.P,U2,20*%
X36750000Y-71037500D03*
%TO.P,U2,21*%
%TO.N,VBUS*%
X36250000Y-71037500D03*
%TO.P,U2,22*%
X35750000Y-71037500D03*
%TO.P,U2,23*%
X35250000Y-71037500D03*
%TO.P,U2,24*%
%TO.N,unconnected-(U2-D+-Pad24)*%
X34750000Y-71037500D03*
D47*
%TO.P,U2,25*%
%TO.N,GND*%
X34900000Y-71900000D03*
X34900000Y-73000000D03*
X34900000Y-74100000D03*
X36000000Y-71900000D03*
X36000000Y-73000000D03*
D48*
X36000000Y-73000000D03*
D47*
X36000000Y-74100000D03*
X37100000Y-71900000D03*
X37100000Y-73000000D03*
X37100000Y-74100000D03*
%TD*%
D44*
%TO.P,C_PCA4,1*%
%TO.N,+3V3*%
X92000000Y-69950000D03*
%TO.P,C_PCA4,2*%
%TO.N,GND*%
X92000000Y-68050000D03*
%TD*%
D33*
%TO.P,LED_3V3,1*%
%TO.N,+3V3*%
X93212500Y-7500000D03*
%TO.P,LED_3V3,2*%
%TO.N,GND*%
X94787500Y-7500000D03*
%TD*%
D19*
%TO.P,R_FB2_R,1*%
%TO.N,BUCK_FB_R*%
X89500000Y-51325000D03*
%TO.P,R_FB2_R,2*%
%TO.N,GND*%
X89500000Y-49675000D03*
%TD*%
D49*
%TO.P,U3_L,1*%
%TO.N,GND*%
X19850000Y-35600000D03*
%TO.P,U3_L,2*%
%TO.N,BUCK_FB_L*%
X19850000Y-37300000D03*
%TO.P,U3_L,3*%
%TO.N,BUCK_SW_L*%
X19850000Y-39000000D03*
D50*
X29000000Y-39000000D03*
D49*
%TO.P,U3_L,4*%
%TO.N,GND*%
X19850000Y-40700000D03*
%TO.P,U3_L,5*%
%TO.N,VBAT_SW*%
X19850000Y-42400000D03*
%TD*%
D10*
%TO.P,J_L5_C,1*%
%TO.N,GND*%
X10000000Y-34000000D03*
D11*
%TO.P,J_L5_C,2*%
%TO.N,V_SERVO_L*%
X12540000Y-34000000D03*
%TO.P,J_L5_C,3*%
%TO.N,PWM_12*%
X15080000Y-34000000D03*
%TD*%
D24*
%TO.P,C_MPU1,1*%
%TO.N,+3V3*%
X51725000Y-39500000D03*
%TO.P,C_MPU1,2*%
%TO.N,GND*%
X53275000Y-39500000D03*
%TD*%
D51*
%TO.P,C_BAT1,1*%
%TO.N,VBAT*%
X51000000Y-72975000D03*
%TO.P,C_BAT1,2*%
%TO.N,GND*%
X51000000Y-70025000D03*
%TD*%
D10*
%TO.P,J_L5_T,1*%
%TO.N,GND*%
X10000000Y-43000000D03*
D11*
%TO.P,J_L5_T,2*%
%TO.N,V_SERVO_L*%
X12540000Y-43000000D03*
%TO.P,J_L5_T,3*%
%TO.N,PWM_14*%
X15080000Y-43000000D03*
%TD*%
D23*
%TO.P,LED_R,1*%
%TO.N,V_SERVO_R*%
X89500000Y-54937500D03*
%TO.P,LED_R,2*%
%TO.N,Net-(LED_R-A)*%
X89500000Y-53062500D03*
%TD*%
D31*
%TO.P,C_ISO1,1*%
%TO.N,LDO_IN*%
X74000000Y-22000000D03*
D32*
%TO.P,C_ISO1,2*%
%TO.N,GND*%
X77500000Y-22000000D03*
%TD*%
D10*
%TO.P,J_I2C,1*%
%TO.N,+3V3*%
X85500000Y-76000000D03*
D11*
%TO.P,J_I2C,2*%
%TO.N,GND*%
X85500000Y-78540000D03*
%TO.P,J_I2C,3*%
%TO.N,I2C_SCL*%
X85500000Y-81080000D03*
%TO.P,J_I2C,4*%
%TO.N,I2C_SDA*%
X85500000Y-83620000D03*
%TD*%
D17*
%TO.P,R_SCL,1*%
%TO.N,+3V3*%
X53175000Y-55000000D03*
%TO.P,R_SCL,2*%
%TO.N,I2C_SCL*%
X54825000Y-55000000D03*
%TD*%
D18*
%TO.P,L_SERVO_L,1*%
%TO.N,BUCK_SW_L*%
X37550000Y-39000000D03*
%TO.P,L_SERVO_L,2*%
%TO.N,V_SERVO_L*%
X47450000Y-39000000D03*
%TD*%
D14*
%TO.P,C_OUT2_L,1*%
%TO.N,V_SERVO_L*%
X41525000Y-59000000D03*
%TO.P,C_OUT2_L,2*%
%TO.N,GND*%
X44475000Y-59000000D03*
%TD*%
D52*
%TO.P,U7,1*%
%TO.N,GND*%
X53050000Y-43750000D03*
%TO.P,U7,2*%
%TO.N,unconnected-(U7-NC-Pad2)*%
X53050000Y-44250000D03*
%TO.P,U7,3*%
%TO.N,unconnected-(U7-NC-Pad3)*%
X53050000Y-44750000D03*
%TO.P,U7,4*%
%TO.N,unconnected-(U7-NC-Pad4)*%
X53050000Y-45250000D03*
%TO.P,U7,5*%
%TO.N,unconnected-(U7-NC-Pad5)*%
X53050000Y-45750000D03*
%TO.P,U7,6*%
%TO.N,unconnected-(U7-AUX_DA-Pad6)*%
X53050000Y-46250000D03*
D53*
%TO.P,U7,7*%
%TO.N,unconnected-(U7-AUX_CL-Pad7)*%
X53750000Y-46950000D03*
%TO.P,U7,8*%
%TO.N,+3V3*%
X54250000Y-46950000D03*
%TO.P,U7,9*%
%TO.N,GND*%
X54750000Y-46950000D03*
%TO.P,U7,10*%
%TO.N,Net-(U7-REGOUT)*%
X55250000Y-46950000D03*
%TO.P,U7,11*%
%TO.N,GND*%
X55750000Y-46950000D03*
%TO.P,U7,12*%
%TO.N,MPU_INT*%
X56250000Y-46950000D03*
D52*
%TO.P,U7,13*%
%TO.N,+3V3*%
X56950000Y-46250000D03*
%TO.P,U7,14*%
%TO.N,unconnected-(U7-NC-Pad14)*%
X56950000Y-45750000D03*
%TO.P,U7,15*%
%TO.N,unconnected-(U7-NC-Pad15)*%
X56950000Y-45250000D03*
%TO.P,U7,16*%
%TO.N,unconnected-(U7-NC-Pad16)*%
X56950000Y-44750000D03*
%TO.P,U7,17*%
%TO.N,unconnected-(U7-NC-Pad17)*%
X56950000Y-44250000D03*
%TO.P,U7,18*%
%TO.N,GND*%
X56950000Y-43750000D03*
D53*
%TO.P,U7,19*%
%TO.N,unconnected-(U7-RESV-Pad19)*%
X56250000Y-43050000D03*
%TO.P,U7,20*%
%TO.N,Net-(U7-CPOUT)*%
X55750000Y-43050000D03*
%TO.P,U7,21*%
%TO.N,unconnected-(U7-RESV-Pad21)*%
X55250000Y-43050000D03*
%TO.P,U7,22*%
%TO.N,unconnected-(U7-RESV-Pad22)*%
X54750000Y-43050000D03*
%TO.P,U7,23*%
%TO.N,I2C_SCL*%
X54250000Y-43050000D03*
%TO.P,U7,24*%
%TO.N,I2C_SDA*%
X53750000Y-43050000D03*
%TD*%
D10*
%TO.P,J_L5_F,1*%
%TO.N,GND*%
X10000000Y-38500000D03*
D11*
%TO.P,J_L5_F,2*%
%TO.N,V_SERVO_L*%
X12540000Y-38500000D03*
%TO.P,J_L5_F,3*%
%TO.N,PWM_13*%
X15080000Y-38500000D03*
%TD*%
D17*
%TO.P,R_FULL,1*%
%TO.N,VBUS*%
X28675000Y-87500000D03*
%TO.P,R_FULL,2*%
%TO.N,CHG_PG*%
X30325000Y-87500000D03*
%TD*%
D10*
%TO.P,J_L3_F,1*%
%TO.N,GND*%
X100000000Y-57500000D03*
D11*
%TO.P,J_L3_F,2*%
%TO.N,V_SERVO_R*%
X97460000Y-57500000D03*
%TO.P,J_L3_F,3*%
%TO.N,PWM_7*%
X94920000Y-57500000D03*
%TD*%
D44*
%TO.P,C_VBUS1,1*%
%TO.N,VBUS*%
X44500000Y-84450000D03*
%TO.P,C_VBUS1,2*%
%TO.N,GND*%
X44500000Y-82550000D03*
%TD*%
D10*
%TO.P,J_L4_T,1*%
%TO.N,GND*%
X10000000Y-24000000D03*
D11*
%TO.P,J_L4_T,2*%
%TO.N,V_SERVO_L*%
X12540000Y-24000000D03*
%TO.P,J_L4_T,3*%
%TO.N,PWM_11*%
X15080000Y-24000000D03*
%TD*%
D54*
%TO.P,J1,A1*%
%TO.N,GND*%
X33800000Y-82355000D03*
%TO.P,J1,A4*%
%TO.N,VBUS*%
X34600000Y-82355000D03*
D55*
%TO.P,J1,A5*%
%TO.N,CC1*%
X35750000Y-82355000D03*
%TO.P,J1,A6*%
%TO.N,USB_D+*%
X36750000Y-82355000D03*
%TO.P,J1,A7*%
%TO.N,USB_D-*%
X37250000Y-82355000D03*
%TO.P,J1,A8*%
%TO.N,unconnected-(J1-SBU1-PadA8)*%
X38250000Y-82355000D03*
D54*
%TO.P,J1,A9*%
%TO.N,VBUS*%
X39400000Y-82355000D03*
%TO.P,J1,A12*%
%TO.N,GND*%
X40200000Y-82355000D03*
%TO.P,J1,B1*%
X40200000Y-82355000D03*
%TO.P,J1,B4*%
%TO.N,VBUS*%
X39400000Y-82355000D03*
D55*
%TO.P,J1,B5*%
%TO.N,CC2*%
X38750000Y-82355000D03*
%TO.P,J1,B6*%
%TO.N,USB_D+*%
X37750000Y-82355000D03*
%TO.P,J1,B7*%
%TO.N,USB_D-*%
X36250000Y-82355000D03*
%TO.P,J1,B8*%
%TO.N,unconnected-(J1-SBU2-PadB8)*%
X35250000Y-82355000D03*
D54*
%TO.P,J1,B9*%
%TO.N,VBUS*%
X34600000Y-82355000D03*
%TO.P,J1,B12*%
%TO.N,GND*%
X33800000Y-82355000D03*
D56*
%TO.P,J1,SH*%
X32680000Y-82995000D03*
D57*
X32680000Y-87175000D03*
D56*
X41320000Y-82995000D03*
D57*
X41320000Y-87175000D03*
%TD*%
D58*
%TO.P,D_STAT,1*%
%TO.N,LED_STATUS*%
X68000000Y-25287500D03*
%TO.P,D_STAT,2*%
%TO.N,GND*%
X68000000Y-23712500D03*
%TD*%
D10*
%TO.P,J_L1_T,1*%
%TO.N,GND*%
X100000000Y-24000000D03*
D11*
%TO.P,J_L1_T,2*%
%TO.N,V_SERVO_R*%
X97460000Y-24000000D03*
%TO.P,J_L1_T,3*%
%TO.N,PWM_2*%
X94920000Y-24000000D03*
%TD*%
D17*
%TO.P,R_CC1,1*%
%TO.N,CC1*%
X28675000Y-81500000D03*
%TO.P,R_CC1,2*%
%TO.N,GND*%
X30325000Y-81500000D03*
%TD*%
D24*
%TO.P,C_MPU3,1*%
%TO.N,+3V3*%
X56725000Y-39500000D03*
%TO.P,C_MPU3,2*%
%TO.N,GND*%
X58275000Y-39500000D03*
%TD*%
D59*
%TO.N,GND*%
X44957000Y-4594700D03*
X19259600Y-33362400D03*
X93842400Y-65367500D03*
X52706100Y-70092900D03*
X93967400Y-68277200D03*
X45038000Y-3359500D03*
X82573300Y-10857200D03*
X61836100Y-54853900D03*
X52067500Y-48875700D03*
X19329200Y-48702200D03*
X76394700Y-27541400D03*
X89383600Y-43743300D03*
X82585300Y-63392200D03*
X69928700Y-16291200D03*
X54799700Y-39741800D03*
X64960800Y-3174500D03*
X17087100Y-41243600D03*
X44013500Y-13934500D03*
X66474500Y-27435100D03*
X43806900Y-17600500D03*
X81096100Y-72033600D03*
X32106700Y-28121200D03*
X31452900Y-81614500D03*
X42797000Y-82825700D03*
X16005700Y-65299900D03*
X19613900Y-68400700D03*
X72540400Y-4263800D03*
X84340200Y-27373600D03*
X21735500Y-56390400D03*
X90143300Y-55894100D03*
X75987700Y-59686700D03*
X90381600Y-50335100D03*
X81973100Y-53728700D03*
X68029900Y-22701400D03*
D60*
X52400000Y-43750000D03*
D59*
X58194100Y-51623800D03*
X49329700Y-74496000D03*
X31694100Y-84803600D03*
X57022400Y-42942700D03*
X96706500Y-10083200D03*
X91228200Y-18812300D03*
X58195200Y-38374700D03*
X23092800Y-72033600D03*
X87059700Y-36864600D03*
X68448600Y-19284500D03*
X31120400Y-65498700D03*
X28515200Y-53728700D03*
X37242200Y-60237800D03*
X43183800Y-58739800D03*
X24500000Y-64075000D03*
X55730200Y-48415000D03*
X88557200Y-65498600D03*
X66998900Y-59748500D03*
X39159200Y-5167700D03*
X55008000Y-50828600D03*
X91340700Y-7173500D03*
X96706500Y-7173500D03*
X46335000Y-86015400D03*
D61*
%TO.N,V_SERVO_L*%
X45000000Y-41450000D03*
D59*
X34500000Y-59000000D03*
X22500000Y-54937500D03*
X39500000Y-59000000D03*
D61*
X45000000Y-44000000D03*
D59*
X18500000Y-47825000D03*
%TO.N,PWM_9*%
X30094900Y-69982500D03*
%TO.N,+3V3*%
X86458700Y-73153400D03*
X41050000Y-9625000D03*
X82550900Y-61563600D03*
X83720900Y-63148200D03*
X48500000Y-4360000D03*
D61*
%TO.N,V_SERVO_R*%
X65000000Y-44000000D03*
X65000000Y-41450000D03*
D59*
X70200000Y-59000000D03*
X91500000Y-47825000D03*
X63500000Y-59000000D03*
X87500000Y-54937500D03*
%TO.N,PWM_6*%
X75047800Y-67406900D03*
%TO.N,PWM_16*%
X49006300Y-65330300D03*
D61*
%TO.N,VBAT_SW*%
X22939100Y-42089900D03*
X60957200Y-50819000D03*
D59*
%TO.N,VBUS*%
X39400000Y-80500000D03*
X34600000Y-80500000D03*
D61*
X43086800Y-70182200D03*
X40149000Y-75672800D03*
D59*
%TO.N,PWM_15*%
X24924800Y-63145000D03*
%TO.N,BUCK_FB_L*%
X16500000Y-37300000D03*
X16500000Y-46175000D03*
D62*
%TO.N,I2C_SDA*%
X53000000Y-42300000D03*
D59*
X46065200Y-21722000D03*
X53853600Y-55862100D03*
X84730400Y-63393800D03*
X52946500Y-47026600D03*
%TO.N,PWM_1*%
X27011900Y-66403000D03*
X61231600Y-65033200D03*
%TO.N,UART_TX*%
X59135000Y-72940400D03*
X60957200Y-7173500D03*
%TO.N,UART_RX*%
X58651200Y-79129700D03*
X58030200Y-7225000D03*
%TO.N,LDO_IN*%
X74195800Y-13512900D03*
%TO.N,PWM_17*%
X26969100Y-73569300D03*
%TO.N,PWM_21*%
X34883900Y-69102900D03*
%TO.N,SERVO_OE*%
X51650000Y-22388400D03*
X57212000Y-53606400D03*
X81317800Y-60870200D03*
X83789800Y-66219700D03*
%TO.N,I2C_SCL*%
X50318900Y-22388400D03*
X55000400Y-53717800D03*
X84582800Y-65494600D03*
X54392300Y-42170300D03*
%TO.N,PWM_0*%
X24680700Y-65313900D03*
X60657000Y-64493600D03*
%TO.N,PWM_2*%
X60740800Y-67036300D03*
X23038600Y-74122300D03*
%TO.N,PWM_3*%
X28755400Y-46893100D03*
X27763900Y-73282000D03*
%TO.N,PWM_4*%
X72870800Y-67988800D03*
%TO.N,PWM_5*%
X62225600Y-66491700D03*
%TO.N,PWM_7*%
X25341600Y-71126500D03*
%TO.N,PWM_10*%
X27418200Y-69922400D03*
%TO.N,PWM_11*%
X25292100Y-68837000D03*
%TO.N,PWM_12*%
X27084600Y-68469000D03*
%TO.N,PWM_13*%
X24357600Y-67124800D03*
%TO.N,PWM_14*%
X25290800Y-66932500D03*
%TO.N,ESP_IO0*%
X64962400Y-19523600D03*
X68080200Y-6673600D03*
%TO.N,BUZZER*%
X58387400Y-22388400D03*
X58387400Y-53650800D03*
%TO.N,MPU_INT*%
X54275900Y-49151300D03*
X49043600Y-15902600D03*
%TO.N,USB_D-*%
X31657800Y-70479100D03*
X37095400Y-77069200D03*
X45038000Y-18253700D03*
%TO.N,USB_D+*%
X37907300Y-79330600D03*
X44931000Y-19562100D03*
%TD*%
%TO.N,GND*%
D63*
X37100000Y-71037500D02*
X36750000Y-71037500D01*
X89714600Y-36864600D02*
X87059700Y-36864600D01*
X23092800Y-72033600D02*
X23137500Y-71988900D01*
X28862500Y-65375000D02*
X28862500Y-64725000D01*
X42797000Y-82825700D02*
X44224300Y-82825700D01*
X69928700Y-16291200D02*
X68383800Y-16291200D01*
X52800000Y-10810000D02*
X53500000Y-10810000D01*
X75408600Y-27541400D02*
X74950000Y-28000000D01*
X44224300Y-82825700D02*
X44500000Y-82550000D01*
X75987700Y-59686700D02*
X74461700Y-59686700D01*
X93967400Y-68277200D02*
X92227200Y-68277200D01*
X88557200Y-65498600D02*
X86986100Y-65498600D01*
X81137500Y-64075000D02*
X81137500Y-64725000D01*
X90087300Y-18812300D02*
X89775000Y-18500000D01*
X54799700Y-39741800D02*
X53516800Y-39741800D01*
X31120400Y-65498700D02*
X28986200Y-65498700D01*
X43015500Y-13934500D02*
X42950000Y-14000000D01*
X81007200Y-10857200D02*
X80850000Y-10700000D01*
X44709600Y-86015400D02*
X44500000Y-86225000D01*
X30828700Y-53728700D02*
X31000000Y-53900000D01*
X90381600Y-50335100D02*
X90160100Y-50335100D01*
X68383800Y-16291200D02*
X68000000Y-16675000D01*
X90150000Y-42400000D02*
X90150000Y-42976900D01*
X49558700Y-74725000D02*
X51000000Y-74725000D01*
X31452900Y-81614500D02*
X30439500Y-81614500D01*
X72540400Y-4263800D02*
X72863800Y-4263800D01*
X43183800Y-58739800D02*
X44214800Y-58739800D01*
X81096100Y-72033600D02*
X81137500Y-71992200D01*
X37775000Y-59705000D02*
X37242200Y-60237800D01*
X34900000Y-73000000D02*
X34650000Y-73250000D01*
X31096200Y-28121200D02*
X30975000Y-28000000D01*
X44680300Y-4594700D02*
X43775000Y-5500000D01*
X60971100Y-54853900D02*
X60825000Y-55000000D01*
X46335000Y-86015400D02*
X44709600Y-86015400D01*
X58275000Y-51542900D02*
X58194100Y-51623800D01*
X58275000Y-50500000D02*
X58275000Y-51542900D01*
X43806900Y-17600500D02*
X42875500Y-17600500D01*
X23137500Y-64075000D02*
X23137500Y-64725000D01*
X37100000Y-71900000D02*
X37100000Y-71037500D01*
X89500000Y-56537400D02*
X89500000Y-56675000D01*
X18350700Y-68400700D02*
X18000000Y-68050000D01*
X23137500Y-64075000D02*
X23137500Y-63425000D01*
X90276500Y-7173500D02*
X89950000Y-7500000D01*
X34650000Y-73250000D02*
X34037500Y-73250000D01*
X19613900Y-68400700D02*
X18350700Y-68400700D01*
X41320000Y-81693300D02*
X40861700Y-81693300D01*
X53232600Y-48875700D02*
X54750000Y-47358300D01*
X68475000Y-59000000D02*
X67726500Y-59748500D01*
X19850000Y-40700000D02*
X19306400Y-41243600D01*
X68000000Y-22731300D02*
X68000000Y-23712500D01*
X28515200Y-53728700D02*
X30828700Y-53728700D01*
X33138300Y-81693300D02*
X33800000Y-82355000D01*
X17080600Y-64225000D02*
X18000000Y-64225000D01*
X92699900Y-64225000D02*
X92000000Y-64225000D01*
X56950000Y-43015100D02*
X56950000Y-43750000D01*
X44957000Y-4594700D02*
X44680300Y-4594700D01*
X96706500Y-10083200D02*
X95741800Y-10083200D01*
X64836200Y-3174500D02*
X64751700Y-3090000D01*
X40861700Y-81693300D02*
X40200000Y-82355000D01*
X44013500Y-13934500D02*
X43015500Y-13934500D01*
X21735500Y-56390400D02*
X20784600Y-56390400D01*
X74461700Y-59686700D02*
X73775000Y-59000000D01*
X90150000Y-42976900D02*
X89383600Y-43743300D01*
X68448600Y-19284500D02*
X68000000Y-19733100D01*
X19306400Y-41243600D02*
X17087100Y-41243600D01*
X55750000Y-48395200D02*
X55730200Y-48415000D01*
X53275000Y-50500000D02*
X53603600Y-50828600D01*
X95741800Y-10083200D02*
X94825000Y-11000000D01*
X91340700Y-7173500D02*
X90276500Y-7173500D01*
X37775000Y-59000000D02*
X37775000Y-59705000D01*
X19329200Y-48702200D02*
X19527200Y-48702200D01*
X81137500Y-64725000D02*
X81137500Y-65375000D01*
X91228200Y-18812300D02*
X90087300Y-18812300D01*
X19527200Y-48702200D02*
X20500000Y-49675000D01*
X79171300Y-53728700D02*
X79000000Y-53900000D01*
X53603600Y-50828600D02*
X55008000Y-50828600D01*
X90143300Y-55894100D02*
X89500000Y-56537400D01*
X53050000Y-43750000D02*
X52400000Y-43750000D01*
X32106700Y-28121200D02*
X31096200Y-28121200D01*
X90160100Y-50335100D02*
X89500000Y-49675000D01*
X81137500Y-71992200D02*
X81137500Y-71225000D01*
X45038000Y-3359500D02*
X45248300Y-3149200D01*
X86862500Y-65375000D02*
X86862500Y-64725000D01*
X57022400Y-42942700D02*
X56950000Y-43015100D01*
X66474500Y-27435100D02*
X67739900Y-27435100D01*
X32680000Y-81693300D02*
X33138300Y-81693300D01*
X72863800Y-4263800D02*
X74100000Y-5500000D01*
X39159200Y-5167700D02*
X39767700Y-5167700D01*
X31694100Y-84803600D02*
X30628600Y-84803600D01*
X58275000Y-38454500D02*
X58195200Y-38374700D01*
X19850000Y-33952800D02*
X19259600Y-33362400D01*
X68000000Y-19733100D02*
X68000000Y-20225000D01*
X68029900Y-22701400D02*
X68000000Y-22731300D01*
X53516800Y-39741800D02*
X53275000Y-39500000D01*
X92227200Y-68277200D02*
X92000000Y-68050000D01*
X52706100Y-70092900D02*
X51067900Y-70092900D01*
D64*
X23137500Y-62775000D02*
X23137500Y-65375000D01*
D63*
X86986100Y-65498600D02*
X86862500Y-65375000D01*
X81137500Y-63425000D02*
X81137500Y-64075000D01*
X23137500Y-71988900D02*
X23137500Y-71225000D01*
X41320000Y-82995000D02*
X41320000Y-81693300D01*
X46250000Y-3090000D02*
X45248300Y-3090000D01*
X67726500Y-59748500D02*
X66998900Y-59748500D01*
X84340200Y-27373600D02*
X82601400Y-27373600D01*
X42875500Y-17600500D02*
X42775000Y-17500000D01*
X95114000Y-7173500D02*
X94787500Y-7500000D01*
X67739900Y-27435100D02*
X68000000Y-27175000D01*
X51067900Y-70092900D02*
X51000000Y-70025000D01*
X39767700Y-5167700D02*
X40100000Y-5500000D01*
X28986200Y-65498700D02*
X28862500Y-65375000D01*
X81973100Y-53728700D02*
X79171300Y-53728700D01*
X90150000Y-37300000D02*
X89714600Y-36864600D01*
X30628600Y-84803600D02*
X30325000Y-84500000D01*
X93842400Y-65367500D02*
X92699900Y-64225000D01*
X81137500Y-63425000D02*
X81170300Y-63392200D01*
X82601400Y-27373600D02*
X81975000Y-28000000D01*
X55750000Y-46950000D02*
X55750000Y-48395200D01*
X49329700Y-74496000D02*
X49558700Y-74725000D01*
X64960800Y-3174500D02*
X64836200Y-3174500D01*
X63750000Y-3090000D02*
X64751700Y-3090000D01*
X32680000Y-82995000D02*
X32680000Y-81693300D01*
D64*
X23137500Y-64075000D02*
X24500000Y-64075000D01*
D63*
X61836100Y-54853900D02*
X60971100Y-54853900D01*
X76394700Y-27541400D02*
X75408600Y-27541400D01*
X30439500Y-81614500D02*
X30325000Y-81500000D01*
X45248300Y-3149200D02*
X45248300Y-3090000D01*
X58275000Y-39500000D02*
X58275000Y-38454500D01*
X44214800Y-58739800D02*
X44475000Y-59000000D01*
X16005700Y-65299900D02*
X17080600Y-64225000D01*
X82573300Y-10857200D02*
X81007200Y-10857200D01*
X54750000Y-47358300D02*
X54750000Y-46950000D01*
X37250000Y-71037500D02*
X37100000Y-71037500D01*
X52067500Y-48875700D02*
X53232600Y-48875700D01*
X19850000Y-35600000D02*
X19850000Y-33952800D01*
X20784600Y-56390400D02*
X20500000Y-56675000D01*
X96706500Y-7173500D02*
X95114000Y-7173500D01*
X81170300Y-63392200D02*
X82585300Y-63392200D01*
%TO.N,V_SERVO_L*%
D65*
X12540000Y-53000000D02*
X12540000Y-62000000D01*
X12540000Y-15000000D02*
X12540000Y-24000000D01*
D66*
X20500000Y-47825000D02*
X18500000Y-47825000D01*
D67*
X43000000Y-46000000D02*
X43000000Y-51500000D01*
D68*
X36225000Y-59000000D02*
X34500000Y-59000000D01*
D67*
X45000000Y-44000000D02*
X43000000Y-46000000D01*
X45000000Y-41450000D02*
X45000000Y-44000000D01*
X43000000Y-46000000D02*
X43000000Y-51500000D01*
D68*
X41525000Y-59000000D02*
X39500000Y-59000000D01*
D65*
X12540000Y-34000000D02*
X12540000Y-43000000D01*
D67*
X47450000Y-39000000D02*
X45000000Y-41450000D01*
D66*
X20500000Y-54937500D02*
X22500000Y-54937500D01*
%TO.N,PWM_9*%
D63*
X28862500Y-70575000D02*
X29502400Y-70575000D01*
X29502400Y-70575000D02*
X30094900Y-69982500D01*
%TO.N,+3V3*%
X87150000Y-17425000D02*
X87150000Y-13000000D01*
X54250000Y-47347300D02*
X53898600Y-47698700D01*
D66*
X46250000Y-4360000D02*
X48500000Y-4360000D01*
D63*
X73905300Y-52677500D02*
X56445900Y-52677500D01*
X82550900Y-61563600D02*
X82550900Y-61323100D01*
X92000000Y-69950000D02*
X90957600Y-68907600D01*
X42400000Y-62775000D02*
X28862500Y-62775000D01*
X17019600Y-68969600D02*
X17019600Y-66755400D01*
X41050000Y-17325000D02*
X41050000Y-14000000D01*
X41225000Y-27497000D02*
X41225000Y-17500000D01*
X53175000Y-54271000D02*
X50904000Y-54271000D01*
X56725000Y-39500000D02*
X55973500Y-38748500D01*
X55802400Y-52034000D02*
X55802400Y-49977700D01*
X88225000Y-18500000D02*
X87150000Y-17425000D01*
X86458700Y-73153400D02*
X89662100Y-69950000D01*
X50175000Y-49734600D02*
X52210900Y-47698700D01*
X92176800Y-6464300D02*
X93212500Y-7500000D01*
X66175000Y-3525100D02*
X65038200Y-2388300D01*
X93175000Y-7537500D02*
X93175000Y-11000000D01*
X77503200Y-9653200D02*
X80850000Y-13000000D01*
X89085700Y-6464300D02*
X92176800Y-6464300D01*
X56950000Y-48830100D02*
X56950000Y-46250000D01*
X83720900Y-63148200D02*
X83720900Y-62775000D01*
X52476500Y-38748500D02*
X41225000Y-27497000D01*
X90957600Y-66817400D02*
X92000000Y-65775000D01*
X50175000Y-55000000D02*
X50175000Y-49734600D01*
X53175000Y-55000000D02*
X53175000Y-54271000D01*
X18000000Y-65775000D02*
X21463200Y-62311800D01*
X41050000Y-9625000D02*
X41050000Y-14000000D01*
X93212500Y-7500000D02*
X93175000Y-7537500D01*
X55446000Y-54271000D02*
X54400500Y-54271000D01*
D66*
X41050000Y-9625000D02*
X42175000Y-8500000D01*
D63*
X83720900Y-62775000D02*
X81137500Y-62775000D01*
X28399300Y-62311800D02*
X28862500Y-62775000D01*
X55802400Y-49977700D02*
X56950000Y-48830100D01*
X17019600Y-66755400D02*
X18000000Y-65775000D01*
X87150000Y-13000000D02*
X87150000Y-8400000D01*
X55973500Y-38748500D02*
X52476500Y-38748500D01*
X52476500Y-38748500D02*
X51725000Y-39500000D01*
X56175000Y-55000000D02*
X55446000Y-54271000D01*
X56445900Y-52677500D02*
X55802400Y-52034000D01*
X89662100Y-69950000D02*
X92000000Y-69950000D01*
X54400500Y-54271000D02*
X54400500Y-53435900D01*
X85500000Y-76000000D02*
X80500000Y-76000000D01*
X41225000Y-17500000D02*
X41050000Y-17325000D01*
X88050000Y-7500000D02*
X89085700Y-6464300D01*
X50904000Y-54271000D02*
X50175000Y-55000000D01*
X86862500Y-62775000D02*
X83720900Y-62775000D01*
X87150000Y-13000000D02*
X80850000Y-13000000D01*
X66175000Y-5500000D02*
X66175000Y-5548500D01*
X51725000Y-47212800D02*
X51725000Y-39500000D01*
X66175000Y-5500000D02*
X66175000Y-3525100D01*
X18000000Y-69950000D02*
X17019600Y-68969600D01*
X21463200Y-62311800D02*
X28399300Y-62311800D01*
X50175000Y-55000000D02*
X42400000Y-62775000D01*
X70279700Y-9653200D02*
X77503200Y-9653200D01*
X54250000Y-46950000D02*
X54250000Y-47347300D01*
X90957600Y-68907600D02*
X90957600Y-66817400D01*
X54400500Y-54271000D02*
X53175000Y-54271000D01*
X54400500Y-53435900D02*
X55802400Y-52034000D01*
X50471700Y-2388300D02*
X48500000Y-4360000D01*
X53898600Y-47698700D02*
X52210900Y-47698700D01*
X66175000Y-5548500D02*
X70279700Y-9653200D01*
X87150000Y-8400000D02*
X88050000Y-7500000D01*
X82550900Y-61323100D02*
X73905300Y-52677500D01*
X65038200Y-2388300D02*
X50471700Y-2388300D01*
X52210900Y-47698700D02*
X51725000Y-47212800D01*
%TO.N,BUCK_SW_L*%
D69*
X29000000Y-39000000D02*
X37550000Y-39000000D01*
X31000000Y-39000000D02*
X31000000Y-47100000D01*
X19850000Y-39000000D02*
X29000000Y-39000000D01*
%TO.N,V_SERVO_R*%
D66*
X89500000Y-47825000D02*
X91500000Y-47825000D01*
D67*
X65000000Y-41450000D02*
X65000000Y-44000000D01*
X62550000Y-39000000D02*
X65000000Y-41450000D01*
D65*
X97460000Y-53000000D02*
X97460000Y-62000000D01*
D67*
X65000000Y-44000000D02*
X67000000Y-46000000D01*
D68*
X65525000Y-59000000D02*
X63500000Y-59000000D01*
D67*
X67000000Y-46000000D02*
X67000000Y-51500000D01*
D65*
X97460000Y-15000000D02*
X97460000Y-24000000D01*
D66*
X89500000Y-54937500D02*
X87500000Y-54937500D01*
D65*
X97460000Y-34000000D02*
X97460000Y-43000000D01*
D67*
X67000000Y-46000000D02*
X67000000Y-51500000D01*
D68*
X72225000Y-59000000D02*
X70200000Y-59000000D01*
%TO.N,PWM_6*%
D63*
X34549200Y-67662900D02*
X60090000Y-67662900D01*
X25128200Y-70276700D02*
X25722000Y-70276700D01*
X23137500Y-69925000D02*
X24776500Y-69925000D01*
X60090000Y-67662900D02*
X60366800Y-67939700D01*
X61114900Y-67939700D02*
X61647700Y-67406900D01*
X32209500Y-70707600D02*
X32209500Y-70002600D01*
X27479000Y-72033700D02*
X30883400Y-72033700D01*
X61647700Y-67406900D02*
X75047800Y-67406900D01*
X30883400Y-72033700D02*
X32209500Y-70707600D01*
X24776500Y-69925000D02*
X25128200Y-70276700D01*
X25722000Y-70276700D02*
X27479000Y-72033700D01*
X32209500Y-70002600D02*
X34549200Y-67662900D01*
X60366800Y-67939700D02*
X61114900Y-67939700D01*
%TO.N,PWM_16*%
X81137500Y-66025000D02*
X80983000Y-65870500D01*
X49546500Y-65870500D02*
X49006300Y-65330300D01*
X80983000Y-65870500D02*
X49546500Y-65870500D01*
%TO.N,VBAT_SW*%
D65*
X19850000Y-42400000D02*
X22629000Y-42400000D01*
X21382000Y-29382000D02*
X26643000Y-29382000D01*
X26643000Y-29382000D02*
X28025000Y-28000000D01*
X81025000Y-26000000D02*
X79025000Y-28000000D01*
X58000000Y-82000000D02*
X58000000Y-80198300D01*
X74825000Y-14825000D02*
X81025000Y-21025000D01*
X22629000Y-42400000D02*
X22939100Y-42089900D01*
X87000000Y-26000000D02*
X81025000Y-26000000D01*
X58000000Y-80198300D02*
X60000000Y-80198300D01*
X81025000Y-21025000D02*
X81025000Y-26000000D01*
X90150000Y-35600000D02*
X87000000Y-32450000D01*
X74825000Y-14825000D02*
X68000000Y-14825000D01*
X77650000Y-12000000D02*
X74825000Y-14825000D01*
X60000000Y-82000000D02*
X60000000Y-80198300D01*
X20000000Y-28000000D02*
X21382000Y-29382000D01*
X87000000Y-32450000D02*
X87000000Y-26000000D01*
%TO.N,BUCK_FB_R*%
D63*
X88750700Y-46924300D02*
X88750700Y-50575700D01*
X88750700Y-50575700D02*
X89500000Y-51325000D01*
X87544600Y-41891900D02*
X88736500Y-40700000D01*
X88736500Y-40700000D02*
X90150000Y-40700000D01*
X89500000Y-46175000D02*
X87544600Y-44219600D01*
X87544600Y-44219600D02*
X87544600Y-41891900D01*
X89500000Y-46175000D02*
X88750700Y-46924300D01*
%TO.N,BUCK_SW_R*%
D69*
X90150000Y-39000000D02*
X81000000Y-39000000D01*
X81000000Y-39000000D02*
X72450000Y-39000000D01*
X79000000Y-39000000D02*
X79000000Y-47100000D01*
%TO.N,VBUS*%
D65*
X43086800Y-70182200D02*
X42977700Y-70073100D01*
X41300000Y-73000000D02*
X41300000Y-74651700D01*
D70*
X35427100Y-71037500D02*
X35250000Y-71037500D01*
D65*
X44402000Y-87775000D02*
X44500000Y-87775000D01*
X25212500Y-87500000D02*
X26240000Y-88527500D01*
X45786700Y-81959000D02*
X44327700Y-80500000D01*
X43456200Y-86829200D02*
X41718300Y-88567100D01*
X25212500Y-87500000D02*
X25175000Y-87462500D01*
X25212500Y-81500000D02*
X25212500Y-84462500D01*
X43456200Y-86829200D02*
X44402000Y-87775000D01*
X35750000Y-70756000D02*
X35750000Y-71037500D01*
D71*
X34600000Y-82355000D02*
X34600000Y-80500000D01*
D65*
X45786700Y-83163300D02*
X45786700Y-81959000D01*
D71*
X39400000Y-82355000D02*
X39400000Y-80500000D01*
D65*
X25175000Y-87462500D02*
X25175000Y-84500000D01*
X44327700Y-80500000D02*
X39400000Y-80500000D01*
X35750000Y-71037500D02*
X35427100Y-71037500D01*
X44500000Y-84450000D02*
X45786700Y-83163300D01*
X29742100Y-88567100D02*
X28675000Y-87500000D01*
X36432900Y-70073100D02*
X35750000Y-70756000D01*
X25212500Y-84462500D02*
X25175000Y-84500000D01*
X43456200Y-85493800D02*
X43456200Y-86829200D01*
D70*
X36250000Y-71037500D02*
X35750000Y-71037500D01*
D65*
X42977700Y-70073100D02*
X36432900Y-70073100D01*
X41300000Y-74651700D02*
X41170100Y-74651700D01*
X44500000Y-84450000D02*
X43456200Y-85493800D01*
X41170100Y-74651700D02*
X40149000Y-75672800D01*
X41718300Y-88567100D02*
X29742100Y-88567100D01*
X27647500Y-88527500D02*
X28675000Y-87500000D01*
X26240000Y-88527500D02*
X27647500Y-88527500D01*
%TO.N,CHG_STAT*%
D63*
X26787500Y-81500000D02*
X26787500Y-79085700D01*
X26787500Y-79085700D02*
X33623200Y-72250000D01*
X26825000Y-81537500D02*
X26825000Y-84500000D01*
X26787500Y-81500000D02*
X26825000Y-81537500D01*
X33623200Y-72250000D02*
X34037500Y-72250000D01*
%TO.N,LED_STATUS*%
X62748300Y-12868200D02*
X57465400Y-7585300D01*
X68749200Y-26036700D02*
X68749200Y-28075800D01*
X68000000Y-25287500D02*
X68749200Y-26036700D01*
X68000000Y-25287500D02*
X67770300Y-25287500D01*
X62748300Y-20265500D02*
X62748300Y-12868200D01*
X57465400Y-7585300D02*
X57465400Y-6928200D01*
X58763600Y-5630000D02*
X63750000Y-5630000D01*
X67770300Y-25287500D02*
X62748300Y-20265500D01*
X68749200Y-28075800D02*
X68000000Y-28825000D01*
X57465400Y-6928200D02*
X58763600Y-5630000D01*
%TO.N,PWM_15*%
X28270900Y-66675000D02*
X24924800Y-63328900D01*
X24924800Y-63328900D02*
X24924800Y-63145000D01*
X28862500Y-66675000D02*
X28270900Y-66675000D01*
%TO.N,VBAT*%
D65*
X37962500Y-74250000D02*
X37962500Y-73927100D01*
X37962500Y-74832200D02*
X37962500Y-74250000D01*
X52426200Y-76624500D02*
X51000000Y-76624500D01*
X51101700Y-76275000D02*
X51000000Y-76275000D01*
X51000000Y-72975000D02*
X52054000Y-74029000D01*
X51000000Y-76624500D02*
X39754800Y-76624500D01*
X52054000Y-75322700D02*
X51101700Y-76275000D01*
D70*
X37962500Y-73927100D02*
X37962500Y-73750000D01*
D65*
X52054000Y-74029000D02*
X52054000Y-75322700D01*
X51000000Y-76624500D02*
X51000000Y-76275000D01*
X56000000Y-82000000D02*
X56000000Y-80198300D01*
X39754800Y-76624500D02*
X37962500Y-74832200D01*
X56000000Y-80198300D02*
X52426200Y-76624500D01*
%TO.N,BUCK_FB_L*%
D63*
X21249200Y-50575800D02*
X20500000Y-51325000D01*
X21249200Y-46924200D02*
X21249200Y-50575800D01*
D64*
X19850000Y-37300000D02*
X16500000Y-37300000D01*
X16500000Y-46175000D02*
X20500000Y-46175000D01*
D63*
X20500000Y-46175000D02*
X21249200Y-46924200D01*
%TO.N,Net-(LED_L-A)*%
X20500000Y-58325000D02*
X20581100Y-58325000D01*
X23081800Y-54706000D02*
X21438300Y-53062500D01*
X20581100Y-58325000D02*
X23081800Y-55824300D01*
X23081800Y-55824300D02*
X23081800Y-54706000D01*
X21438300Y-53062500D02*
X20500000Y-53062500D01*
%TO.N,I2C_SDA*%
X53853600Y-55862100D02*
X52687100Y-55862100D01*
X44366300Y-17942000D02*
X44366300Y-20023100D01*
X51825000Y-55000000D02*
X43400000Y-63425000D01*
X46250000Y-17060000D02*
X45248300Y-17060000D01*
X52687100Y-55862100D02*
X51825000Y-55000000D01*
X44366300Y-20023100D02*
X46065200Y-21722000D01*
X86862500Y-63425000D02*
X84761600Y-63425000D01*
X53750000Y-43050000D02*
X53000000Y-42300000D01*
X45248300Y-17060000D02*
X44366300Y-17942000D01*
X84761600Y-63425000D02*
X84730400Y-63393800D01*
X43400000Y-63425000D02*
X28862500Y-63425000D01*
%TO.N,PWM_1*%
X24070600Y-66352900D02*
X26961800Y-66352900D01*
X26961800Y-66352900D02*
X27011900Y-66403000D01*
X23748500Y-66675000D02*
X24070600Y-66352900D01*
X23137500Y-66675000D02*
X23748500Y-66675000D01*
%TO.N,VBAT_SENSE*%
D65*
X68000000Y-18325000D02*
X66930800Y-17255800D01*
X66961400Y-19363600D02*
X66961400Y-20826500D01*
X68000000Y-13175000D02*
X65051700Y-10226700D01*
X66930800Y-17255800D02*
X66930800Y-14244200D01*
X66930800Y-14244200D02*
X68000000Y-13175000D01*
X63750000Y-4360000D02*
X65051700Y-4360000D01*
X65051700Y-10226700D02*
X65051700Y-4360000D01*
X66961400Y-20826500D02*
X67909900Y-21775000D01*
X68000000Y-18325000D02*
X66961400Y-19363600D01*
X67909900Y-21775000D02*
X68000000Y-21775000D01*
%TO.N,UART_TX*%
D63*
X59135000Y-72940500D02*
X59135000Y-72940400D01*
X63750000Y-6900000D02*
X61230700Y-6900000D01*
X80500000Y-81080000D02*
X72360500Y-72940500D01*
X72360500Y-72940500D02*
X59135000Y-72940500D01*
X61230700Y-6900000D02*
X60957200Y-7173500D01*
%TO.N,UART_RX*%
X68188300Y-83620000D02*
X80500000Y-83620000D01*
X63750000Y-8170000D02*
X58975200Y-8170000D01*
X58975200Y-8170000D02*
X58030200Y-7225000D01*
X63698000Y-79129700D02*
X68188300Y-83620000D01*
X58651200Y-79129700D02*
X63698000Y-79129700D01*
%TO.N,LDO_IN*%
X74195800Y-12154200D02*
X74195800Y-13512900D01*
X75248200Y-11101800D02*
X78055400Y-11101800D01*
X74350000Y-12000000D02*
X74195800Y-12154200D01*
X73050000Y-22950000D02*
X73050000Y-28000000D01*
X74350000Y-12000000D02*
X75248200Y-11101800D01*
X78055400Y-11101800D02*
X78522100Y-11568500D01*
X74000000Y-22000000D02*
X73050000Y-22950000D01*
X78522100Y-11568500D02*
X78522100Y-12972100D01*
X78522100Y-12972100D02*
X80850000Y-15300000D01*
%TO.N,PWM_23*%
X47249900Y-71311400D02*
X79413000Y-71311400D01*
X43739700Y-69421400D02*
X44925500Y-70607200D01*
X79413000Y-71311400D02*
X80149400Y-70575000D01*
X44925500Y-70607200D02*
X46545700Y-70607200D01*
X34898800Y-70007500D02*
X35576900Y-70007500D01*
X21500000Y-81080000D02*
X23826300Y-81080000D01*
X36163000Y-69421400D02*
X43739700Y-69421400D01*
X46545700Y-70607200D02*
X47249900Y-71311400D01*
X23826300Y-81080000D02*
X34898800Y-70007500D01*
X80149400Y-70575000D02*
X81137500Y-70575000D01*
X35576900Y-70007500D02*
X36163000Y-69421400D01*
%TO.N,CC2*%
X36416200Y-85355300D02*
X38750000Y-83021500D01*
X28675000Y-84500000D02*
X29530300Y-85355300D01*
X29530300Y-85355300D02*
X36416200Y-85355300D01*
X38750000Y-83021500D02*
X38750000Y-82355000D01*
%TO.N,PWM_20*%
X98029500Y-82550500D02*
X99500000Y-81080000D01*
X85939100Y-74408500D02*
X86021200Y-74408500D01*
X82177000Y-68999400D02*
X82177000Y-70646400D01*
X86021200Y-74408500D02*
X87652700Y-76040000D01*
X87652700Y-80440900D02*
X89762300Y-82550500D01*
X82177000Y-70646400D02*
X85939100Y-74408500D01*
X87652700Y-76040000D02*
X87652700Y-80440900D01*
X81137500Y-68625000D02*
X81802600Y-68625000D01*
X89762300Y-82550500D02*
X98029500Y-82550500D01*
X81802600Y-68625000D02*
X82177000Y-68999400D01*
%TO.N,PWM_17*%
X60075600Y-68643100D02*
X74591800Y-68643100D01*
X27233500Y-73833700D02*
X30078000Y-73833700D01*
X26969100Y-73569300D02*
X27233500Y-73833700D01*
X30078000Y-73833700D02*
X32912900Y-70998800D01*
X74591800Y-68643100D02*
X76559900Y-66675000D01*
X76559900Y-66675000D02*
X81137500Y-66675000D01*
X32912900Y-70998800D02*
X32912900Y-70293800D01*
X34840400Y-68366300D02*
X59798800Y-68366300D01*
X59798800Y-68366300D02*
X60075600Y-68643100D01*
X32912900Y-70293800D02*
X34840400Y-68366300D01*
%TO.N,PWM_18*%
X82954100Y-70428900D02*
X86230300Y-73705100D01*
X81137500Y-67325000D02*
X81731100Y-67325000D01*
X88531000Y-79111000D02*
X90500000Y-81080000D01*
X82954100Y-68548000D02*
X82954100Y-70428900D01*
X81731100Y-67325000D02*
X82954100Y-68548000D01*
X88531000Y-75923700D02*
X88531000Y-79111000D01*
X86312400Y-73705100D02*
X88531000Y-75923700D01*
X86230300Y-73705100D02*
X86312400Y-73705100D01*
%TO.N,PWM_19*%
X86084700Y-74056800D02*
X86166800Y-74056800D01*
X88026800Y-80281400D02*
X89940300Y-82194900D01*
X86166800Y-74056800D02*
X88026800Y-75916800D01*
X81723000Y-67975000D02*
X82528700Y-68780700D01*
X82528700Y-70500800D02*
X86084700Y-74056800D01*
X82528700Y-68780700D02*
X82528700Y-70500800D01*
X93885100Y-82194900D02*
X95000000Y-81080000D01*
X89940300Y-82194900D02*
X93885100Y-82194900D01*
X88026800Y-75916800D02*
X88026800Y-80281400D01*
X81137500Y-67975000D02*
X81723000Y-67975000D01*
%TO.N,PWM_21*%
X81137500Y-69275000D02*
X77297700Y-69275000D01*
X44503800Y-69016000D02*
X44205800Y-68718000D01*
X77038700Y-69016000D02*
X44503800Y-69016000D01*
X77297700Y-69275000D02*
X77038700Y-69016000D01*
X35268800Y-68718000D02*
X34883900Y-69102900D01*
X44205800Y-68718000D02*
X35268800Y-68718000D01*
%TO.N,PWM_22*%
X24599000Y-79810000D02*
X34753200Y-69655800D01*
X35431300Y-69655800D02*
X36017400Y-69069700D01*
X44060200Y-69069700D02*
X44411900Y-69421400D01*
X44411900Y-69421400D02*
X46352500Y-69421400D01*
X46352500Y-69421400D02*
X47890800Y-70959700D01*
X47890800Y-70959700D02*
X77080200Y-70959700D01*
X34753200Y-69655800D02*
X35431300Y-69655800D01*
X17770000Y-79810000D02*
X24599000Y-79810000D01*
X77080200Y-70959700D02*
X78114900Y-69925000D01*
X78114900Y-69925000D02*
X81137500Y-69925000D01*
X36017400Y-69069700D02*
X44060200Y-69069700D01*
X16500000Y-81080000D02*
X17770000Y-79810000D01*
%TO.N,SERVO_OE*%
X51825000Y-20850000D02*
X51825000Y-21851700D01*
X47770500Y-64060100D02*
X48764900Y-64060100D01*
X86667800Y-66219700D02*
X83789800Y-66219700D01*
X51825000Y-21851700D02*
X51650000Y-22026700D01*
X57825000Y-55000000D02*
X57825000Y-55801000D01*
X28916400Y-66078900D02*
X45751700Y-66078900D01*
X48764900Y-64060100D02*
X57024000Y-55801000D01*
X57825000Y-55801000D02*
X76248600Y-55801000D01*
X76248600Y-55801000D02*
X81317800Y-60870200D01*
X86862500Y-66025000D02*
X86667800Y-66219700D01*
X51650000Y-22026700D02*
X51650000Y-22388400D01*
X57212000Y-53606400D02*
X57212000Y-54387000D01*
X57212000Y-54387000D02*
X57825000Y-55000000D01*
X28862500Y-66025000D02*
X28916400Y-66078900D01*
X45751700Y-66078900D02*
X47770500Y-64060100D01*
X57024000Y-55801000D02*
X57825000Y-55801000D01*
%TO.N,I2C_SCL*%
X28862500Y-64075000D02*
X46491800Y-64075000D01*
X54825000Y-55741800D02*
X56567000Y-55741800D01*
X56828200Y-55480600D02*
X56828200Y-54491300D01*
X86002400Y-64075000D02*
X84582800Y-65494600D01*
X56828200Y-54491300D02*
X56054700Y-53717800D01*
X54250000Y-42312600D02*
X54392300Y-42170300D01*
X50318900Y-22388400D02*
X50555000Y-22152300D01*
X46491800Y-64075000D02*
X54825000Y-55741800D01*
X54250000Y-43050000D02*
X54250000Y-42312600D01*
X56567000Y-55741800D02*
X56828200Y-55480600D01*
X56054700Y-53717800D02*
X55000400Y-53717800D01*
X86862500Y-64075000D02*
X86002400Y-64075000D01*
X50555000Y-22152300D02*
X50555000Y-20850000D01*
X54825000Y-55741800D02*
X54825000Y-55000000D01*
%TO.N,PWM_0*%
X24558200Y-65313900D02*
X24680700Y-65313900D01*
X23847100Y-66025000D02*
X24558200Y-65313900D01*
X23137500Y-66025000D02*
X23847100Y-66025000D01*
%TO.N,PWM_2*%
X21402900Y-68458900D02*
X21402900Y-72486600D01*
X23137500Y-67325000D02*
X22536800Y-67325000D01*
X21402900Y-72486600D02*
X23038600Y-74122300D01*
X22536800Y-67325000D02*
X21402900Y-68458900D01*
%TO.N,PWM_3*%
X21754600Y-71997700D02*
X21754600Y-68761100D01*
X22540700Y-67975000D02*
X23137500Y-67975000D01*
X21754600Y-68761100D02*
X22540700Y-67975000D01*
X22751500Y-72994600D02*
X21754600Y-71997700D01*
X27763900Y-73282000D02*
X27476500Y-72994600D01*
X27476500Y-72994600D02*
X22751500Y-72994600D01*
%TO.N,PWM_4*%
X34694800Y-68014600D02*
X59944400Y-68014600D01*
X72568200Y-68291400D02*
X72870800Y-67988800D01*
X22118300Y-71861600D02*
X22890700Y-72634000D01*
X60221200Y-68291400D02*
X72568200Y-68291400D01*
X59944400Y-68014600D02*
X60221200Y-68291400D01*
X32561200Y-70148200D02*
X34694800Y-68014600D01*
X23137500Y-68625000D02*
X22478700Y-68625000D01*
X30780400Y-72634000D02*
X32561200Y-70853200D01*
X22890700Y-72634000D02*
X30780400Y-72634000D01*
X22478700Y-68625000D02*
X22118300Y-68985400D01*
X32561200Y-70853200D02*
X32561200Y-70148200D01*
X22118300Y-68985400D02*
X22118300Y-71861600D01*
%TO.N,PWM_5*%
X60969300Y-67588000D02*
X62065600Y-66491700D01*
X27799400Y-71682000D02*
X29673000Y-71682000D01*
X23137500Y-69275000D02*
X24871300Y-69275000D01*
X60512400Y-67588000D02*
X60969300Y-67588000D01*
X60225600Y-67301200D02*
X60512400Y-67588000D01*
X34053800Y-67301200D02*
X60225600Y-67301200D01*
X24871300Y-69275000D02*
X25346300Y-69750000D01*
X29673000Y-71682000D02*
X34053800Y-67301200D01*
X62065600Y-66491700D02*
X62225600Y-66491700D01*
X25346300Y-69750000D02*
X25867400Y-69750000D01*
X25867400Y-69750000D02*
X27799400Y-71682000D01*
%TO.N,PWM_7*%
X24790100Y-70575000D02*
X25341600Y-71126500D01*
X23137500Y-70575000D02*
X24790100Y-70575000D01*
%TO.N,PWM_8*%
X45798800Y-66774500D02*
X34083200Y-66774500D01*
X48151600Y-64421700D02*
X45798800Y-66774500D01*
X94804700Y-62115300D02*
X51443200Y-62115300D01*
X34083200Y-66774500D02*
X29632700Y-71225000D01*
X94920000Y-62000000D02*
X94804700Y-62115300D01*
X51443200Y-62115300D02*
X49136800Y-64421700D01*
X49136800Y-64421700D02*
X48151600Y-64421700D01*
X29632700Y-71225000D02*
X28862500Y-71225000D01*
%TO.N,PWM_10*%
X27420800Y-69925000D02*
X27418200Y-69922400D01*
X28862500Y-69925000D02*
X27420800Y-69925000D01*
%TO.N,PWM_11*%
X28862500Y-69275000D02*
X25730100Y-69275000D01*
X25730100Y-69275000D02*
X25292100Y-68837000D01*
%TO.N,PWM_12*%
X28862500Y-68625000D02*
X27240600Y-68625000D01*
X27240600Y-68625000D02*
X27084600Y-68469000D01*
%TO.N,PWM_13*%
X28862500Y-67975000D02*
X28764400Y-67876900D01*
X25109700Y-67876900D02*
X24357600Y-67124800D01*
X28764400Y-67876900D02*
X25109700Y-67876900D01*
%TO.N,PWM_14*%
X28862500Y-67325000D02*
X25683300Y-67325000D01*
X25683300Y-67325000D02*
X25290800Y-66932500D01*
%TO.N,ESP_EN*%
X40920200Y-6804800D02*
X42225000Y-5500000D01*
X43825000Y-6227600D02*
X42952600Y-6227600D01*
X46250000Y-5630000D02*
X44795400Y-5630000D01*
X42952600Y-6227600D02*
X42225000Y-5500000D01*
X43825000Y-6227600D02*
X43825000Y-8500000D01*
X37204800Y-6804800D02*
X40920200Y-6804800D01*
X44197800Y-6227600D02*
X43825000Y-6227600D01*
X35900000Y-5500000D02*
X37204800Y-6804800D01*
X44795400Y-5630000D02*
X44197800Y-6227600D01*
%TO.N,CHG_PG*%
X26787500Y-87500000D02*
X27744500Y-86543000D01*
X28022200Y-86543000D02*
X29368000Y-86543000D01*
X27744500Y-86543000D02*
X28022200Y-86543000D01*
X28022200Y-81027600D02*
X28022200Y-86543000D01*
X35750000Y-74962500D02*
X35750000Y-75357500D01*
X35750000Y-75357500D02*
X31435800Y-79671700D01*
X31435800Y-79671700D02*
X29378100Y-79671700D01*
X29378100Y-79671700D02*
X28022200Y-81027600D01*
X29368000Y-86543000D02*
X30325000Y-87500000D01*
%TO.N,ESP_IO0*%
X67825000Y-6418400D02*
X67825000Y-5500000D01*
X63750000Y-19600000D02*
X64886000Y-19600000D01*
X69900000Y-5500000D02*
X67825000Y-5500000D01*
X68080200Y-6673600D02*
X67825000Y-6418400D01*
X64886000Y-19600000D02*
X64962400Y-19523600D01*
%TO.N,BUZZER*%
X58175000Y-20850000D02*
X58175000Y-21851700D01*
X58387400Y-22064100D02*
X58387400Y-22388400D01*
X58175000Y-21851700D02*
X58387400Y-22064100D01*
X58387400Y-53650800D02*
X59175000Y-54438400D01*
X59175000Y-54438400D02*
X59175000Y-55000000D01*
%TO.N,Net-(LED_R-A)*%
X89500000Y-58325000D02*
X90695000Y-57130000D01*
X90695000Y-54257500D02*
X89500000Y-53062500D01*
X90695000Y-57130000D02*
X90695000Y-54257500D01*
%TO.N,MPU_INT*%
X56250000Y-46950000D02*
X56335200Y-47035200D01*
X55794100Y-49151300D02*
X54275900Y-49151300D01*
X49043600Y-15902600D02*
X47364300Y-15902600D01*
X56335200Y-47035200D02*
X56335200Y-48610200D01*
X47364300Y-15902600D02*
X47251700Y-15790000D01*
X56335200Y-48610200D02*
X55794100Y-49151300D01*
X46250000Y-15790000D02*
X47251700Y-15790000D01*
%TO.N,USB_D-*%
X37250000Y-81568400D02*
X37095400Y-81413800D01*
X36250000Y-81695000D02*
X36250000Y-82355000D01*
X45172000Y-18253700D02*
X45038000Y-18253700D01*
X36531200Y-81413800D02*
X36250000Y-81695000D01*
X45248300Y-18330000D02*
X45172000Y-18253700D01*
X37095400Y-81413800D02*
X36531200Y-81413800D01*
X46250000Y-18330000D02*
X45248300Y-18330000D01*
X37095400Y-81413800D02*
X37095400Y-77069200D01*
X37250000Y-82355000D02*
X37250000Y-81568400D01*
%TO.N,USB_D+*%
X37749900Y-82967500D02*
X37460400Y-83257000D01*
X46250000Y-19600000D02*
X45248300Y-19600000D01*
X37750000Y-79487900D02*
X37907300Y-79330600D01*
X37750000Y-82355000D02*
X37750000Y-79487900D01*
X37749900Y-82355000D02*
X37749900Y-82967500D01*
X44931000Y-19562100D02*
X45210400Y-19562100D01*
X37039600Y-83257000D02*
X36750100Y-82967500D01*
X45210400Y-19562100D02*
X45248300Y-19600000D01*
X36750100Y-82967500D02*
X36750100Y-82355000D01*
X37750000Y-82355000D02*
X37749900Y-82355000D01*
X36750100Y-82355000D02*
X36750000Y-82355000D01*
X37460400Y-83257000D02*
X37039600Y-83257000D01*
%TO.N,Net-(U7-CPOUT)*%
X56725000Y-50500000D02*
X57642200Y-49582800D01*
X55750000Y-42637100D02*
X55750000Y-43050000D01*
X57169900Y-42310000D02*
X56077100Y-42310000D01*
X57642200Y-42782300D02*
X57169900Y-42310000D01*
X57642200Y-49582800D02*
X57642200Y-42782300D01*
X56077100Y-42310000D02*
X55750000Y-42637100D01*
%TO.N,CHG_SW*%
D65*
X37962500Y-71750000D02*
X37962500Y-72072900D01*
D70*
X38467400Y-71973100D02*
X38185600Y-71973100D01*
X37962500Y-72072900D02*
X37962500Y-72250000D01*
D65*
X44734300Y-71336000D02*
X46398300Y-73000000D01*
X47700000Y-73000000D02*
X46398300Y-73000000D01*
D70*
X38185600Y-71973100D02*
X37962500Y-71750000D01*
D65*
X38467400Y-71973100D02*
X39104500Y-71336000D01*
X39104500Y-71336000D02*
X44734300Y-71336000D01*
%TO.N,Net-(U7-REGOUT)*%
D63*
X52710700Y-49514300D02*
X53114400Y-49514300D01*
X51725000Y-50500000D02*
X52710700Y-49514300D01*
X53114400Y-49514300D02*
X55250000Y-47378700D01*
X55250000Y-47378700D02*
X55250000Y-46950000D01*
%TO.N,unconnected-(U2-SYS-Pad15)*%
X37962500Y-72750000D02*
X37962500Y-73250000D01*
%TO.N,CC1*%
X35750000Y-83030200D02*
X34423700Y-84356500D01*
X34423700Y-84356500D02*
X32027200Y-84356500D01*
X29170700Y-81500000D02*
X28675000Y-81500000D01*
X32027200Y-84356500D02*
X29170700Y-81500000D01*
X35750000Y-82355000D02*
X35750000Y-83030200D01*
%TD*%
M02*
