%TF.GenerationSoftware,KiCad,Pcbnew,10.0.6*%
%TF.CreationDate,2026-09-28T06:23:18+01:00*%
%TF.ProjectId,Hexapod_Robot_Board,48657861-706f-4645-9f52-6f626f745f42,rev?*%
%TF.SameCoordinates,Original*%
%TF.FileFunction,AssemblyDrawing,Top*%
%FSLAX46Y46*%
G04 Gerber Fmt 4.6, Leading zero omitted, Abs format (unit mm)*
G04 Created by KiCad (PCBNEW 10.0.6) date 2026-09-28 06:23:18*
%MOMM*%
%LPD*%
G01*
G04 APERTURE LIST*
%ADD10C,0.150000*%
%ADD11C,0.060000*%
%ADD12C,0.120000*%
%ADD13C,0.080000*%
%ADD14C,0.100000*%
G04 APERTURE END LIST*
D10*
X10539999Y-14454819D02*
X10539999Y-15169104D01*
X10539999Y-15169104D02*
X10492380Y-15311961D01*
X10492380Y-15311961D02*
X10397142Y-15407200D01*
X10397142Y-15407200D02*
X10254285Y-15454819D01*
X10254285Y-15454819D02*
X10159047Y-15454819D01*
X10778095Y-15550057D02*
X11539999Y-15550057D01*
X12254285Y-15454819D02*
X11778095Y-15454819D01*
X11778095Y-15454819D02*
X11778095Y-14454819D01*
X13016190Y-14788152D02*
X13016190Y-15454819D01*
X12778095Y-14407200D02*
X12540000Y-15121485D01*
X12540000Y-15121485D02*
X13159047Y-15121485D01*
X13301905Y-15550057D02*
X14063809Y-15550057D01*
X14873333Y-15359580D02*
X14825714Y-15407200D01*
X14825714Y-15407200D02*
X14682857Y-15454819D01*
X14682857Y-15454819D02*
X14587619Y-15454819D01*
X14587619Y-15454819D02*
X14444762Y-15407200D01*
X14444762Y-15407200D02*
X14349524Y-15311961D01*
X14349524Y-15311961D02*
X14301905Y-15216723D01*
X14301905Y-15216723D02*
X14254286Y-15026247D01*
X14254286Y-15026247D02*
X14254286Y-14883390D01*
X14254286Y-14883390D02*
X14301905Y-14692914D01*
X14301905Y-14692914D02*
X14349524Y-14597676D01*
X14349524Y-14597676D02*
X14444762Y-14502438D01*
X14444762Y-14502438D02*
X14587619Y-14454819D01*
X14587619Y-14454819D02*
X14682857Y-14454819D01*
X14682857Y-14454819D02*
X14825714Y-14502438D01*
X14825714Y-14502438D02*
X14873333Y-14550057D01*
D11*
X71209524Y-30143832D02*
X71190476Y-30162880D01*
X71190476Y-30162880D02*
X71133334Y-30181927D01*
X71133334Y-30181927D02*
X71095238Y-30181927D01*
X71095238Y-30181927D02*
X71038095Y-30162880D01*
X71038095Y-30162880D02*
X71000000Y-30124784D01*
X71000000Y-30124784D02*
X70980953Y-30086689D01*
X70980953Y-30086689D02*
X70961905Y-30010499D01*
X70961905Y-30010499D02*
X70961905Y-29953356D01*
X70961905Y-29953356D02*
X70980953Y-29877165D01*
X70980953Y-29877165D02*
X71000000Y-29839070D01*
X71000000Y-29839070D02*
X71038095Y-29800975D01*
X71038095Y-29800975D02*
X71095238Y-29781927D01*
X71095238Y-29781927D02*
X71133334Y-29781927D01*
X71133334Y-29781927D02*
X71190476Y-29800975D01*
X71190476Y-29800975D02*
X71209524Y-29820022D01*
X71285715Y-30220022D02*
X71590476Y-30220022D01*
X71685715Y-30181927D02*
X71685715Y-29781927D01*
X71685715Y-29781927D02*
X71838096Y-29781927D01*
X71838096Y-29781927D02*
X71876191Y-29800975D01*
X71876191Y-29800975D02*
X71895238Y-29820022D01*
X71895238Y-29820022D02*
X71914286Y-29858118D01*
X71914286Y-29858118D02*
X71914286Y-29915260D01*
X71914286Y-29915260D02*
X71895238Y-29953356D01*
X71895238Y-29953356D02*
X71876191Y-29972403D01*
X71876191Y-29972403D02*
X71838096Y-29991451D01*
X71838096Y-29991451D02*
X71685715Y-29991451D01*
X72314286Y-30143832D02*
X72295238Y-30162880D01*
X72295238Y-30162880D02*
X72238096Y-30181927D01*
X72238096Y-30181927D02*
X72200000Y-30181927D01*
X72200000Y-30181927D02*
X72142857Y-30162880D01*
X72142857Y-30162880D02*
X72104762Y-30124784D01*
X72104762Y-30124784D02*
X72085715Y-30086689D01*
X72085715Y-30086689D02*
X72066667Y-30010499D01*
X72066667Y-30010499D02*
X72066667Y-29953356D01*
X72066667Y-29953356D02*
X72085715Y-29877165D01*
X72085715Y-29877165D02*
X72104762Y-29839070D01*
X72104762Y-29839070D02*
X72142857Y-29800975D01*
X72142857Y-29800975D02*
X72200000Y-29781927D01*
X72200000Y-29781927D02*
X72238096Y-29781927D01*
X72238096Y-29781927D02*
X72295238Y-29800975D01*
X72295238Y-29800975D02*
X72314286Y-29820022D01*
X72466667Y-30067641D02*
X72657143Y-30067641D01*
X72428572Y-30181927D02*
X72561905Y-29781927D01*
X72561905Y-29781927D02*
X72695238Y-30181927D01*
X72790476Y-29781927D02*
X73038095Y-29781927D01*
X73038095Y-29781927D02*
X72904762Y-29934308D01*
X72904762Y-29934308D02*
X72961905Y-29934308D01*
X72961905Y-29934308D02*
X73000000Y-29953356D01*
X73000000Y-29953356D02*
X73019048Y-29972403D01*
X73019048Y-29972403D02*
X73038095Y-30010499D01*
X73038095Y-30010499D02*
X73038095Y-30105737D01*
X73038095Y-30105737D02*
X73019048Y-30143832D01*
X73019048Y-30143832D02*
X73000000Y-30162880D01*
X73000000Y-30162880D02*
X72961905Y-30181927D01*
X72961905Y-30181927D02*
X72847619Y-30181927D01*
X72847619Y-30181927D02*
X72809524Y-30162880D01*
X72809524Y-30162880D02*
X72790476Y-30143832D01*
D10*
X90539999Y-50454819D02*
X90539999Y-51169104D01*
X90539999Y-51169104D02*
X90492380Y-51311961D01*
X90492380Y-51311961D02*
X90397142Y-51407200D01*
X90397142Y-51407200D02*
X90254285Y-51454819D01*
X90254285Y-51454819D02*
X90159047Y-51454819D01*
X90778095Y-51550057D02*
X91539999Y-51550057D01*
X92254285Y-51454819D02*
X91778095Y-51454819D01*
X91778095Y-51454819D02*
X91778095Y-50454819D01*
X92492381Y-50454819D02*
X93111428Y-50454819D01*
X93111428Y-50454819D02*
X92778095Y-50835771D01*
X92778095Y-50835771D02*
X92920952Y-50835771D01*
X92920952Y-50835771D02*
X93016190Y-50883390D01*
X93016190Y-50883390D02*
X93063809Y-50931009D01*
X93063809Y-50931009D02*
X93111428Y-51026247D01*
X93111428Y-51026247D02*
X93111428Y-51264342D01*
X93111428Y-51264342D02*
X93063809Y-51359580D01*
X93063809Y-51359580D02*
X93016190Y-51407200D01*
X93016190Y-51407200D02*
X92920952Y-51454819D01*
X92920952Y-51454819D02*
X92635238Y-51454819D01*
X92635238Y-51454819D02*
X92540000Y-51407200D01*
X92540000Y-51407200D02*
X92492381Y-51359580D01*
X93301905Y-51550057D02*
X94063809Y-51550057D01*
X94873333Y-51359580D02*
X94825714Y-51407200D01*
X94825714Y-51407200D02*
X94682857Y-51454819D01*
X94682857Y-51454819D02*
X94587619Y-51454819D01*
X94587619Y-51454819D02*
X94444762Y-51407200D01*
X94444762Y-51407200D02*
X94349524Y-51311961D01*
X94349524Y-51311961D02*
X94301905Y-51216723D01*
X94301905Y-51216723D02*
X94254286Y-51026247D01*
X94254286Y-51026247D02*
X94254286Y-50883390D01*
X94254286Y-50883390D02*
X94301905Y-50692914D01*
X94301905Y-50692914D02*
X94349524Y-50597676D01*
X94349524Y-50597676D02*
X94444762Y-50502438D01*
X94444762Y-50502438D02*
X94587619Y-50454819D01*
X94587619Y-50454819D02*
X94682857Y-50454819D01*
X94682857Y-50454819D02*
X94825714Y-50502438D01*
X94825714Y-50502438D02*
X94873333Y-50550057D01*
X10611428Y-54954819D02*
X10611428Y-55669104D01*
X10611428Y-55669104D02*
X10563809Y-55811961D01*
X10563809Y-55811961D02*
X10468571Y-55907200D01*
X10468571Y-55907200D02*
X10325714Y-55954819D01*
X10325714Y-55954819D02*
X10230476Y-55954819D01*
X10849524Y-56050057D02*
X11611428Y-56050057D01*
X12325714Y-55954819D02*
X11849524Y-55954819D01*
X11849524Y-55954819D02*
X11849524Y-54954819D01*
X13087619Y-54954819D02*
X12897143Y-54954819D01*
X12897143Y-54954819D02*
X12801905Y-55002438D01*
X12801905Y-55002438D02*
X12754286Y-55050057D01*
X12754286Y-55050057D02*
X12659048Y-55192914D01*
X12659048Y-55192914D02*
X12611429Y-55383390D01*
X12611429Y-55383390D02*
X12611429Y-55764342D01*
X12611429Y-55764342D02*
X12659048Y-55859580D01*
X12659048Y-55859580D02*
X12706667Y-55907200D01*
X12706667Y-55907200D02*
X12801905Y-55954819D01*
X12801905Y-55954819D02*
X12992381Y-55954819D01*
X12992381Y-55954819D02*
X13087619Y-55907200D01*
X13087619Y-55907200D02*
X13135238Y-55859580D01*
X13135238Y-55859580D02*
X13182857Y-55764342D01*
X13182857Y-55764342D02*
X13182857Y-55526247D01*
X13182857Y-55526247D02*
X13135238Y-55431009D01*
X13135238Y-55431009D02*
X13087619Y-55383390D01*
X13087619Y-55383390D02*
X12992381Y-55335771D01*
X12992381Y-55335771D02*
X12801905Y-55335771D01*
X12801905Y-55335771D02*
X12706667Y-55383390D01*
X12706667Y-55383390D02*
X12659048Y-55431009D01*
X12659048Y-55431009D02*
X12611429Y-55526247D01*
X13373334Y-56050057D02*
X14135238Y-56050057D01*
X14706667Y-55431009D02*
X14373334Y-55431009D01*
X14373334Y-55954819D02*
X14373334Y-54954819D01*
X14373334Y-54954819D02*
X14849524Y-54954819D01*
D11*
X23181927Y-6638095D02*
X22991451Y-6771428D01*
X23181927Y-6866666D02*
X22781927Y-6866666D01*
X22781927Y-6866666D02*
X22781927Y-6714285D01*
X22781927Y-6714285D02*
X22800975Y-6676190D01*
X22800975Y-6676190D02*
X22820022Y-6657143D01*
X22820022Y-6657143D02*
X22858118Y-6638095D01*
X22858118Y-6638095D02*
X22915260Y-6638095D01*
X22915260Y-6638095D02*
X22953356Y-6657143D01*
X22953356Y-6657143D02*
X22972403Y-6676190D01*
X22972403Y-6676190D02*
X22991451Y-6714285D01*
X22991451Y-6714285D02*
X22991451Y-6866666D01*
X23220022Y-6561905D02*
X23220022Y-6257143D01*
X23143832Y-5933333D02*
X23162880Y-5952381D01*
X23162880Y-5952381D02*
X23181927Y-6009523D01*
X23181927Y-6009523D02*
X23181927Y-6047619D01*
X23181927Y-6047619D02*
X23162880Y-6104762D01*
X23162880Y-6104762D02*
X23124784Y-6142857D01*
X23124784Y-6142857D02*
X23086689Y-6161904D01*
X23086689Y-6161904D02*
X23010499Y-6180952D01*
X23010499Y-6180952D02*
X22953356Y-6180952D01*
X22953356Y-6180952D02*
X22877165Y-6161904D01*
X22877165Y-6161904D02*
X22839070Y-6142857D01*
X22839070Y-6142857D02*
X22800975Y-6104762D01*
X22800975Y-6104762D02*
X22781927Y-6047619D01*
X22781927Y-6047619D02*
X22781927Y-6009523D01*
X22781927Y-6009523D02*
X22800975Y-5952381D01*
X22800975Y-5952381D02*
X22820022Y-5933333D01*
X23181927Y-5761904D02*
X22781927Y-5761904D01*
X22972403Y-5761904D02*
X22972403Y-5533333D01*
X23181927Y-5533333D02*
X22781927Y-5533333D01*
X22800975Y-5133333D02*
X22781927Y-5171428D01*
X22781927Y-5171428D02*
X22781927Y-5228571D01*
X22781927Y-5228571D02*
X22800975Y-5285714D01*
X22800975Y-5285714D02*
X22839070Y-5323809D01*
X22839070Y-5323809D02*
X22877165Y-5342856D01*
X22877165Y-5342856D02*
X22953356Y-5361904D01*
X22953356Y-5361904D02*
X23010499Y-5361904D01*
X23010499Y-5361904D02*
X23086689Y-5342856D01*
X23086689Y-5342856D02*
X23124784Y-5323809D01*
X23124784Y-5323809D02*
X23162880Y-5285714D01*
X23162880Y-5285714D02*
X23181927Y-5228571D01*
X23181927Y-5228571D02*
X23181927Y-5190475D01*
X23181927Y-5190475D02*
X23162880Y-5133333D01*
X23162880Y-5133333D02*
X23143832Y-5114285D01*
X23143832Y-5114285D02*
X23010499Y-5114285D01*
X23010499Y-5114285D02*
X23010499Y-5190475D01*
X63304762Y-19181927D02*
X63171429Y-18991451D01*
X63076191Y-19181927D02*
X63076191Y-18781927D01*
X63076191Y-18781927D02*
X63228572Y-18781927D01*
X63228572Y-18781927D02*
X63266667Y-18800975D01*
X63266667Y-18800975D02*
X63285714Y-18820022D01*
X63285714Y-18820022D02*
X63304762Y-18858118D01*
X63304762Y-18858118D02*
X63304762Y-18915260D01*
X63304762Y-18915260D02*
X63285714Y-18953356D01*
X63285714Y-18953356D02*
X63266667Y-18972403D01*
X63266667Y-18972403D02*
X63228572Y-18991451D01*
X63228572Y-18991451D02*
X63076191Y-18991451D01*
X63380953Y-19220022D02*
X63685714Y-19220022D01*
X63761905Y-19162880D02*
X63819048Y-19181927D01*
X63819048Y-19181927D02*
X63914286Y-19181927D01*
X63914286Y-19181927D02*
X63952381Y-19162880D01*
X63952381Y-19162880D02*
X63971429Y-19143832D01*
X63971429Y-19143832D02*
X63990476Y-19105737D01*
X63990476Y-19105737D02*
X63990476Y-19067641D01*
X63990476Y-19067641D02*
X63971429Y-19029546D01*
X63971429Y-19029546D02*
X63952381Y-19010499D01*
X63952381Y-19010499D02*
X63914286Y-18991451D01*
X63914286Y-18991451D02*
X63838095Y-18972403D01*
X63838095Y-18972403D02*
X63800000Y-18953356D01*
X63800000Y-18953356D02*
X63780953Y-18934308D01*
X63780953Y-18934308D02*
X63761905Y-18896213D01*
X63761905Y-18896213D02*
X63761905Y-18858118D01*
X63761905Y-18858118D02*
X63780953Y-18820022D01*
X63780953Y-18820022D02*
X63800000Y-18800975D01*
X63800000Y-18800975D02*
X63838095Y-18781927D01*
X63838095Y-18781927D02*
X63933334Y-18781927D01*
X63933334Y-18781927D02*
X63990476Y-18800975D01*
X64104762Y-18781927D02*
X64333333Y-18781927D01*
X64219047Y-19181927D02*
X64219047Y-18781927D01*
X64447619Y-19067641D02*
X64638095Y-19067641D01*
X64409524Y-19181927D02*
X64542857Y-18781927D01*
X64542857Y-18781927D02*
X64676190Y-19181927D01*
X64752381Y-18781927D02*
X64980952Y-18781927D01*
X64866666Y-19181927D02*
X64866666Y-18781927D01*
D10*
X10539999Y-50454819D02*
X10539999Y-51169104D01*
X10539999Y-51169104D02*
X10492380Y-51311961D01*
X10492380Y-51311961D02*
X10397142Y-51407200D01*
X10397142Y-51407200D02*
X10254285Y-51454819D01*
X10254285Y-51454819D02*
X10159047Y-51454819D01*
X10778095Y-51550057D02*
X11539999Y-51550057D01*
X12254285Y-51454819D02*
X11778095Y-51454819D01*
X11778095Y-51454819D02*
X11778095Y-50454819D01*
X13016190Y-50454819D02*
X12825714Y-50454819D01*
X12825714Y-50454819D02*
X12730476Y-50502438D01*
X12730476Y-50502438D02*
X12682857Y-50550057D01*
X12682857Y-50550057D02*
X12587619Y-50692914D01*
X12587619Y-50692914D02*
X12540000Y-50883390D01*
X12540000Y-50883390D02*
X12540000Y-51264342D01*
X12540000Y-51264342D02*
X12587619Y-51359580D01*
X12587619Y-51359580D02*
X12635238Y-51407200D01*
X12635238Y-51407200D02*
X12730476Y-51454819D01*
X12730476Y-51454819D02*
X12920952Y-51454819D01*
X12920952Y-51454819D02*
X13016190Y-51407200D01*
X13016190Y-51407200D02*
X13063809Y-51359580D01*
X13063809Y-51359580D02*
X13111428Y-51264342D01*
X13111428Y-51264342D02*
X13111428Y-51026247D01*
X13111428Y-51026247D02*
X13063809Y-50931009D01*
X13063809Y-50931009D02*
X13016190Y-50883390D01*
X13016190Y-50883390D02*
X12920952Y-50835771D01*
X12920952Y-50835771D02*
X12730476Y-50835771D01*
X12730476Y-50835771D02*
X12635238Y-50883390D01*
X12635238Y-50883390D02*
X12587619Y-50931009D01*
X12587619Y-50931009D02*
X12540000Y-51026247D01*
X13301905Y-51550057D02*
X14063809Y-51550057D01*
X14873333Y-51359580D02*
X14825714Y-51407200D01*
X14825714Y-51407200D02*
X14682857Y-51454819D01*
X14682857Y-51454819D02*
X14587619Y-51454819D01*
X14587619Y-51454819D02*
X14444762Y-51407200D01*
X14444762Y-51407200D02*
X14349524Y-51311961D01*
X14349524Y-51311961D02*
X14301905Y-51216723D01*
X14301905Y-51216723D02*
X14254286Y-51026247D01*
X14254286Y-51026247D02*
X14254286Y-50883390D01*
X14254286Y-50883390D02*
X14301905Y-50692914D01*
X14301905Y-50692914D02*
X14349524Y-50597676D01*
X14349524Y-50597676D02*
X14444762Y-50502438D01*
X14444762Y-50502438D02*
X14587619Y-50454819D01*
X14587619Y-50454819D02*
X14682857Y-50454819D01*
X14682857Y-50454819D02*
X14825714Y-50502438D01*
X14825714Y-50502438D02*
X14873333Y-50550057D01*
D11*
X22009524Y-11643832D02*
X21990476Y-11662880D01*
X21990476Y-11662880D02*
X21933334Y-11681927D01*
X21933334Y-11681927D02*
X21895238Y-11681927D01*
X21895238Y-11681927D02*
X21838095Y-11662880D01*
X21838095Y-11662880D02*
X21800000Y-11624784D01*
X21800000Y-11624784D02*
X21780953Y-11586689D01*
X21780953Y-11586689D02*
X21761905Y-11510499D01*
X21761905Y-11510499D02*
X21761905Y-11453356D01*
X21761905Y-11453356D02*
X21780953Y-11377165D01*
X21780953Y-11377165D02*
X21800000Y-11339070D01*
X21800000Y-11339070D02*
X21838095Y-11300975D01*
X21838095Y-11300975D02*
X21895238Y-11281927D01*
X21895238Y-11281927D02*
X21933334Y-11281927D01*
X21933334Y-11281927D02*
X21990476Y-11300975D01*
X21990476Y-11300975D02*
X22009524Y-11320022D01*
X22085715Y-11720022D02*
X22390476Y-11720022D01*
X22428572Y-11281927D02*
X22561905Y-11681927D01*
X22561905Y-11681927D02*
X22695238Y-11281927D01*
X22961905Y-11472403D02*
X23019048Y-11491451D01*
X23019048Y-11491451D02*
X23038095Y-11510499D01*
X23038095Y-11510499D02*
X23057143Y-11548594D01*
X23057143Y-11548594D02*
X23057143Y-11605737D01*
X23057143Y-11605737D02*
X23038095Y-11643832D01*
X23038095Y-11643832D02*
X23019048Y-11662880D01*
X23019048Y-11662880D02*
X22980953Y-11681927D01*
X22980953Y-11681927D02*
X22828572Y-11681927D01*
X22828572Y-11681927D02*
X22828572Y-11281927D01*
X22828572Y-11281927D02*
X22961905Y-11281927D01*
X22961905Y-11281927D02*
X23000000Y-11300975D01*
X23000000Y-11300975D02*
X23019048Y-11320022D01*
X23019048Y-11320022D02*
X23038095Y-11358118D01*
X23038095Y-11358118D02*
X23038095Y-11396213D01*
X23038095Y-11396213D02*
X23019048Y-11434308D01*
X23019048Y-11434308D02*
X23000000Y-11453356D01*
X23000000Y-11453356D02*
X22961905Y-11472403D01*
X22961905Y-11472403D02*
X22828572Y-11472403D01*
X23228572Y-11281927D02*
X23228572Y-11605737D01*
X23228572Y-11605737D02*
X23247619Y-11643832D01*
X23247619Y-11643832D02*
X23266667Y-11662880D01*
X23266667Y-11662880D02*
X23304762Y-11681927D01*
X23304762Y-11681927D02*
X23380953Y-11681927D01*
X23380953Y-11681927D02*
X23419048Y-11662880D01*
X23419048Y-11662880D02*
X23438095Y-11643832D01*
X23438095Y-11643832D02*
X23457143Y-11605737D01*
X23457143Y-11605737D02*
X23457143Y-11281927D01*
X23628572Y-11662880D02*
X23685715Y-11681927D01*
X23685715Y-11681927D02*
X23780953Y-11681927D01*
X23780953Y-11681927D02*
X23819048Y-11662880D01*
X23819048Y-11662880D02*
X23838096Y-11643832D01*
X23838096Y-11643832D02*
X23857143Y-11605737D01*
X23857143Y-11605737D02*
X23857143Y-11567641D01*
X23857143Y-11567641D02*
X23838096Y-11529546D01*
X23838096Y-11529546D02*
X23819048Y-11510499D01*
X23819048Y-11510499D02*
X23780953Y-11491451D01*
X23780953Y-11491451D02*
X23704762Y-11472403D01*
X23704762Y-11472403D02*
X23666667Y-11453356D01*
X23666667Y-11453356D02*
X23647620Y-11434308D01*
X23647620Y-11434308D02*
X23628572Y-11396213D01*
X23628572Y-11396213D02*
X23628572Y-11358118D01*
X23628572Y-11358118D02*
X23647620Y-11320022D01*
X23647620Y-11320022D02*
X23666667Y-11300975D01*
X23666667Y-11300975D02*
X23704762Y-11281927D01*
X23704762Y-11281927D02*
X23800001Y-11281927D01*
X23800001Y-11281927D02*
X23857143Y-11300975D01*
X24009524Y-11320022D02*
X24028572Y-11300975D01*
X24028572Y-11300975D02*
X24066667Y-11281927D01*
X24066667Y-11281927D02*
X24161905Y-11281927D01*
X24161905Y-11281927D02*
X24200000Y-11300975D01*
X24200000Y-11300975D02*
X24219048Y-11320022D01*
X24219048Y-11320022D02*
X24238095Y-11358118D01*
X24238095Y-11358118D02*
X24238095Y-11396213D01*
X24238095Y-11396213D02*
X24219048Y-11453356D01*
X24219048Y-11453356D02*
X23990476Y-11681927D01*
X23990476Y-11681927D02*
X24238095Y-11681927D01*
D10*
X23952380Y-68454819D02*
X23952380Y-69169104D01*
X23952380Y-69169104D02*
X23904761Y-69311961D01*
X23904761Y-69311961D02*
X23809523Y-69407200D01*
X23809523Y-69407200D02*
X23666666Y-69454819D01*
X23666666Y-69454819D02*
X23571428Y-69454819D01*
X24190476Y-69550057D02*
X24952380Y-69550057D01*
X25523809Y-68931009D02*
X25666666Y-68978628D01*
X25666666Y-68978628D02*
X25714285Y-69026247D01*
X25714285Y-69026247D02*
X25761904Y-69121485D01*
X25761904Y-69121485D02*
X25761904Y-69264342D01*
X25761904Y-69264342D02*
X25714285Y-69359580D01*
X25714285Y-69359580D02*
X25666666Y-69407200D01*
X25666666Y-69407200D02*
X25571428Y-69454819D01*
X25571428Y-69454819D02*
X25190476Y-69454819D01*
X25190476Y-69454819D02*
X25190476Y-68454819D01*
X25190476Y-68454819D02*
X25523809Y-68454819D01*
X25523809Y-68454819D02*
X25619047Y-68502438D01*
X25619047Y-68502438D02*
X25666666Y-68550057D01*
X25666666Y-68550057D02*
X25714285Y-68645295D01*
X25714285Y-68645295D02*
X25714285Y-68740533D01*
X25714285Y-68740533D02*
X25666666Y-68835771D01*
X25666666Y-68835771D02*
X25619047Y-68883390D01*
X25619047Y-68883390D02*
X25523809Y-68931009D01*
X25523809Y-68931009D02*
X25190476Y-68931009D01*
X26142857Y-69169104D02*
X26619047Y-69169104D01*
X26047619Y-69454819D02*
X26380952Y-68454819D01*
X26380952Y-68454819D02*
X26714285Y-69454819D01*
X26904762Y-68454819D02*
X27476190Y-68454819D01*
X27190476Y-69454819D02*
X27190476Y-68454819D01*
X49238095Y-22854819D02*
X49238095Y-23664342D01*
X49238095Y-23664342D02*
X49285714Y-23759580D01*
X49285714Y-23759580D02*
X49333333Y-23807200D01*
X49333333Y-23807200D02*
X49428571Y-23854819D01*
X49428571Y-23854819D02*
X49619047Y-23854819D01*
X49619047Y-23854819D02*
X49714285Y-23807200D01*
X49714285Y-23807200D02*
X49761904Y-23759580D01*
X49761904Y-23759580D02*
X49809523Y-23664342D01*
X49809523Y-23664342D02*
X49809523Y-22854819D01*
X50809523Y-23854819D02*
X50238095Y-23854819D01*
X50523809Y-23854819D02*
X50523809Y-22854819D01*
X50523809Y-22854819D02*
X50428571Y-22997676D01*
X50428571Y-22997676D02*
X50333333Y-23092914D01*
X50333333Y-23092914D02*
X50238095Y-23140533D01*
D11*
X33933333Y-22143832D02*
X33914285Y-22162880D01*
X33914285Y-22162880D02*
X33857143Y-22181927D01*
X33857143Y-22181927D02*
X33819047Y-22181927D01*
X33819047Y-22181927D02*
X33761904Y-22162880D01*
X33761904Y-22162880D02*
X33723809Y-22124784D01*
X33723809Y-22124784D02*
X33704762Y-22086689D01*
X33704762Y-22086689D02*
X33685714Y-22010499D01*
X33685714Y-22010499D02*
X33685714Y-21953356D01*
X33685714Y-21953356D02*
X33704762Y-21877165D01*
X33704762Y-21877165D02*
X33723809Y-21839070D01*
X33723809Y-21839070D02*
X33761904Y-21800975D01*
X33761904Y-21800975D02*
X33819047Y-21781927D01*
X33819047Y-21781927D02*
X33857143Y-21781927D01*
X33857143Y-21781927D02*
X33914285Y-21800975D01*
X33914285Y-21800975D02*
X33933333Y-21820022D01*
X34085714Y-21820022D02*
X34104762Y-21800975D01*
X34104762Y-21800975D02*
X34142857Y-21781927D01*
X34142857Y-21781927D02*
X34238095Y-21781927D01*
X34238095Y-21781927D02*
X34276190Y-21800975D01*
X34276190Y-21800975D02*
X34295238Y-21820022D01*
X34295238Y-21820022D02*
X34314285Y-21858118D01*
X34314285Y-21858118D02*
X34314285Y-21896213D01*
X34314285Y-21896213D02*
X34295238Y-21953356D01*
X34295238Y-21953356D02*
X34066666Y-22181927D01*
X34066666Y-22181927D02*
X34314285Y-22181927D01*
D12*
X71287664Y-59580951D02*
X71325760Y-59619047D01*
X71325760Y-59619047D02*
X71363855Y-59733332D01*
X71363855Y-59733332D02*
X71363855Y-59809523D01*
X71363855Y-59809523D02*
X71325760Y-59923809D01*
X71325760Y-59923809D02*
X71249569Y-59999999D01*
X71249569Y-59999999D02*
X71173379Y-60038094D01*
X71173379Y-60038094D02*
X71020998Y-60076190D01*
X71020998Y-60076190D02*
X70906712Y-60076190D01*
X70906712Y-60076190D02*
X70754331Y-60038094D01*
X70754331Y-60038094D02*
X70678140Y-59999999D01*
X70678140Y-59999999D02*
X70601950Y-59923809D01*
X70601950Y-59923809D02*
X70563855Y-59809523D01*
X70563855Y-59809523D02*
X70563855Y-59733332D01*
X70563855Y-59733332D02*
X70601950Y-59619047D01*
X70601950Y-59619047D02*
X70640045Y-59580951D01*
X71440045Y-59428571D02*
X71440045Y-58819047D01*
X70563855Y-58476189D02*
X70563855Y-58323808D01*
X70563855Y-58323808D02*
X70601950Y-58247618D01*
X70601950Y-58247618D02*
X70678140Y-58171427D01*
X70678140Y-58171427D02*
X70830521Y-58133332D01*
X70830521Y-58133332D02*
X71097188Y-58133332D01*
X71097188Y-58133332D02*
X71249569Y-58171427D01*
X71249569Y-58171427D02*
X71325760Y-58247618D01*
X71325760Y-58247618D02*
X71363855Y-58323808D01*
X71363855Y-58323808D02*
X71363855Y-58476189D01*
X71363855Y-58476189D02*
X71325760Y-58552380D01*
X71325760Y-58552380D02*
X71249569Y-58628570D01*
X71249569Y-58628570D02*
X71097188Y-58666666D01*
X71097188Y-58666666D02*
X70830521Y-58666666D01*
X70830521Y-58666666D02*
X70678140Y-58628570D01*
X70678140Y-58628570D02*
X70601950Y-58552380D01*
X70601950Y-58552380D02*
X70563855Y-58476189D01*
X70563855Y-57790475D02*
X71211474Y-57790475D01*
X71211474Y-57790475D02*
X71287664Y-57752380D01*
X71287664Y-57752380D02*
X71325760Y-57714285D01*
X71325760Y-57714285D02*
X71363855Y-57638094D01*
X71363855Y-57638094D02*
X71363855Y-57485713D01*
X71363855Y-57485713D02*
X71325760Y-57409523D01*
X71325760Y-57409523D02*
X71287664Y-57371428D01*
X71287664Y-57371428D02*
X71211474Y-57333332D01*
X71211474Y-57333332D02*
X70563855Y-57333332D01*
X70563855Y-57066666D02*
X70563855Y-56609523D01*
X71363855Y-56838095D02*
X70563855Y-56838095D01*
X70640045Y-56380952D02*
X70601950Y-56342856D01*
X70601950Y-56342856D02*
X70563855Y-56266666D01*
X70563855Y-56266666D02*
X70563855Y-56076190D01*
X70563855Y-56076190D02*
X70601950Y-55999999D01*
X70601950Y-55999999D02*
X70640045Y-55961904D01*
X70640045Y-55961904D02*
X70716236Y-55923809D01*
X70716236Y-55923809D02*
X70792426Y-55923809D01*
X70792426Y-55923809D02*
X70906712Y-55961904D01*
X70906712Y-55961904D02*
X71363855Y-56419047D01*
X71363855Y-56419047D02*
X71363855Y-55923809D01*
D11*
X45409524Y-42181927D02*
X45276191Y-41991451D01*
X45180953Y-42181927D02*
X45180953Y-41781927D01*
X45180953Y-41781927D02*
X45333334Y-41781927D01*
X45333334Y-41781927D02*
X45371429Y-41800975D01*
X45371429Y-41800975D02*
X45390476Y-41820022D01*
X45390476Y-41820022D02*
X45409524Y-41858118D01*
X45409524Y-41858118D02*
X45409524Y-41915260D01*
X45409524Y-41915260D02*
X45390476Y-41953356D01*
X45390476Y-41953356D02*
X45371429Y-41972403D01*
X45371429Y-41972403D02*
X45333334Y-41991451D01*
X45333334Y-41991451D02*
X45180953Y-41991451D01*
X45485715Y-42220022D02*
X45790476Y-42220022D01*
X45866667Y-42162880D02*
X45923810Y-42181927D01*
X45923810Y-42181927D02*
X46019048Y-42181927D01*
X46019048Y-42181927D02*
X46057143Y-42162880D01*
X46057143Y-42162880D02*
X46076191Y-42143832D01*
X46076191Y-42143832D02*
X46095238Y-42105737D01*
X46095238Y-42105737D02*
X46095238Y-42067641D01*
X46095238Y-42067641D02*
X46076191Y-42029546D01*
X46076191Y-42029546D02*
X46057143Y-42010499D01*
X46057143Y-42010499D02*
X46019048Y-41991451D01*
X46019048Y-41991451D02*
X45942857Y-41972403D01*
X45942857Y-41972403D02*
X45904762Y-41953356D01*
X45904762Y-41953356D02*
X45885715Y-41934308D01*
X45885715Y-41934308D02*
X45866667Y-41896213D01*
X45866667Y-41896213D02*
X45866667Y-41858118D01*
X45866667Y-41858118D02*
X45885715Y-41820022D01*
X45885715Y-41820022D02*
X45904762Y-41800975D01*
X45904762Y-41800975D02*
X45942857Y-41781927D01*
X45942857Y-41781927D02*
X46038096Y-41781927D01*
X46038096Y-41781927D02*
X46095238Y-41800975D01*
X46266667Y-42181927D02*
X46266667Y-41781927D01*
X46266667Y-41781927D02*
X46361905Y-41781927D01*
X46361905Y-41781927D02*
X46419048Y-41800975D01*
X46419048Y-41800975D02*
X46457143Y-41839070D01*
X46457143Y-41839070D02*
X46476190Y-41877165D01*
X46476190Y-41877165D02*
X46495238Y-41953356D01*
X46495238Y-41953356D02*
X46495238Y-42010499D01*
X46495238Y-42010499D02*
X46476190Y-42086689D01*
X46476190Y-42086689D02*
X46457143Y-42124784D01*
X46457143Y-42124784D02*
X46419048Y-42162880D01*
X46419048Y-42162880D02*
X46361905Y-42181927D01*
X46361905Y-42181927D02*
X46266667Y-42181927D01*
X46647619Y-42067641D02*
X46838095Y-42067641D01*
X46609524Y-42181927D02*
X46742857Y-41781927D01*
X46742857Y-41781927D02*
X46876190Y-42181927D01*
D10*
X90611428Y-18954819D02*
X90611428Y-19669104D01*
X90611428Y-19669104D02*
X90563809Y-19811961D01*
X90563809Y-19811961D02*
X90468571Y-19907200D01*
X90468571Y-19907200D02*
X90325714Y-19954819D01*
X90325714Y-19954819D02*
X90230476Y-19954819D01*
X90849524Y-20050057D02*
X91611428Y-20050057D01*
X92325714Y-19954819D02*
X91849524Y-19954819D01*
X91849524Y-19954819D02*
X91849524Y-18954819D01*
X93182857Y-19954819D02*
X92611429Y-19954819D01*
X92897143Y-19954819D02*
X92897143Y-18954819D01*
X92897143Y-18954819D02*
X92801905Y-19097676D01*
X92801905Y-19097676D02*
X92706667Y-19192914D01*
X92706667Y-19192914D02*
X92611429Y-19240533D01*
X93373334Y-20050057D02*
X94135238Y-20050057D01*
X94706667Y-19431009D02*
X94373334Y-19431009D01*
X94373334Y-19954819D02*
X94373334Y-18954819D01*
X94373334Y-18954819D02*
X94849524Y-18954819D01*
D11*
X73504762Y-27143832D02*
X73485714Y-27162880D01*
X73485714Y-27162880D02*
X73428572Y-27181927D01*
X73428572Y-27181927D02*
X73390476Y-27181927D01*
X73390476Y-27181927D02*
X73333333Y-27162880D01*
X73333333Y-27162880D02*
X73295238Y-27124784D01*
X73295238Y-27124784D02*
X73276191Y-27086689D01*
X73276191Y-27086689D02*
X73257143Y-27010499D01*
X73257143Y-27010499D02*
X73257143Y-26953356D01*
X73257143Y-26953356D02*
X73276191Y-26877165D01*
X73276191Y-26877165D02*
X73295238Y-26839070D01*
X73295238Y-26839070D02*
X73333333Y-26800975D01*
X73333333Y-26800975D02*
X73390476Y-26781927D01*
X73390476Y-26781927D02*
X73428572Y-26781927D01*
X73428572Y-26781927D02*
X73485714Y-26800975D01*
X73485714Y-26800975D02*
X73504762Y-26820022D01*
X73580953Y-27220022D02*
X73885714Y-27220022D01*
X73980953Y-27181927D02*
X73980953Y-26781927D01*
X73980953Y-26781927D02*
X74076191Y-26781927D01*
X74076191Y-26781927D02*
X74133334Y-26800975D01*
X74133334Y-26800975D02*
X74171429Y-26839070D01*
X74171429Y-26839070D02*
X74190476Y-26877165D01*
X74190476Y-26877165D02*
X74209524Y-26953356D01*
X74209524Y-26953356D02*
X74209524Y-27010499D01*
X74209524Y-27010499D02*
X74190476Y-27086689D01*
X74190476Y-27086689D02*
X74171429Y-27124784D01*
X74171429Y-27124784D02*
X74133334Y-27162880D01*
X74133334Y-27162880D02*
X74076191Y-27181927D01*
X74076191Y-27181927D02*
X73980953Y-27181927D01*
X74380953Y-27181927D02*
X74380953Y-26781927D01*
X74514286Y-26781927D02*
X74647619Y-27181927D01*
X74647619Y-27181927D02*
X74780952Y-26781927D01*
D10*
X5238095Y-74454819D02*
X5238095Y-73454819D01*
X5238095Y-73931009D02*
X5809523Y-73931009D01*
X5809523Y-74454819D02*
X5809523Y-73454819D01*
X6190476Y-73454819D02*
X6809523Y-73454819D01*
X6809523Y-73454819D02*
X6476190Y-73835771D01*
X6476190Y-73835771D02*
X6619047Y-73835771D01*
X6619047Y-73835771D02*
X6714285Y-73883390D01*
X6714285Y-73883390D02*
X6761904Y-73931009D01*
X6761904Y-73931009D02*
X6809523Y-74026247D01*
X6809523Y-74026247D02*
X6809523Y-74264342D01*
X6809523Y-74264342D02*
X6761904Y-74359580D01*
X6761904Y-74359580D02*
X6714285Y-74407200D01*
X6714285Y-74407200D02*
X6619047Y-74454819D01*
X6619047Y-74454819D02*
X6333333Y-74454819D01*
X6333333Y-74454819D02*
X6238095Y-74407200D01*
X6238095Y-74407200D02*
X6190476Y-74359580D01*
X24440476Y-50359580D02*
X24392857Y-50407200D01*
X24392857Y-50407200D02*
X24250000Y-50454819D01*
X24250000Y-50454819D02*
X24154762Y-50454819D01*
X24154762Y-50454819D02*
X24011905Y-50407200D01*
X24011905Y-50407200D02*
X23916667Y-50311961D01*
X23916667Y-50311961D02*
X23869048Y-50216723D01*
X23869048Y-50216723D02*
X23821429Y-50026247D01*
X23821429Y-50026247D02*
X23821429Y-49883390D01*
X23821429Y-49883390D02*
X23869048Y-49692914D01*
X23869048Y-49692914D02*
X23916667Y-49597676D01*
X23916667Y-49597676D02*
X24011905Y-49502438D01*
X24011905Y-49502438D02*
X24154762Y-49454819D01*
X24154762Y-49454819D02*
X24250000Y-49454819D01*
X24250000Y-49454819D02*
X24392857Y-49502438D01*
X24392857Y-49502438D02*
X24440476Y-49550057D01*
X24630953Y-50550057D02*
X25392857Y-50550057D01*
X25630953Y-50454819D02*
X25630953Y-49454819D01*
X26107143Y-50454819D02*
X26107143Y-49454819D01*
X26107143Y-49454819D02*
X26678571Y-50454819D01*
X26678571Y-50454819D02*
X26678571Y-49454819D01*
X27678571Y-50454819D02*
X27107143Y-50454819D01*
X27392857Y-50454819D02*
X27392857Y-49454819D01*
X27392857Y-49454819D02*
X27297619Y-49597676D01*
X27297619Y-49597676D02*
X27202381Y-49692914D01*
X27202381Y-49692914D02*
X27107143Y-49740533D01*
X55547618Y-52454819D02*
X55071428Y-52454819D01*
X55071428Y-52454819D02*
X55071428Y-51454819D01*
X55642857Y-52550057D02*
X56404761Y-52550057D01*
X56595238Y-52407200D02*
X56738095Y-52454819D01*
X56738095Y-52454819D02*
X56976190Y-52454819D01*
X56976190Y-52454819D02*
X57071428Y-52407200D01*
X57071428Y-52407200D02*
X57119047Y-52359580D01*
X57119047Y-52359580D02*
X57166666Y-52264342D01*
X57166666Y-52264342D02*
X57166666Y-52169104D01*
X57166666Y-52169104D02*
X57119047Y-52073866D01*
X57119047Y-52073866D02*
X57071428Y-52026247D01*
X57071428Y-52026247D02*
X56976190Y-51978628D01*
X56976190Y-51978628D02*
X56785714Y-51931009D01*
X56785714Y-51931009D02*
X56690476Y-51883390D01*
X56690476Y-51883390D02*
X56642857Y-51835771D01*
X56642857Y-51835771D02*
X56595238Y-51740533D01*
X56595238Y-51740533D02*
X56595238Y-51645295D01*
X56595238Y-51645295D02*
X56642857Y-51550057D01*
X56642857Y-51550057D02*
X56690476Y-51502438D01*
X56690476Y-51502438D02*
X56785714Y-51454819D01*
X56785714Y-51454819D02*
X57023809Y-51454819D01*
X57023809Y-51454819D02*
X57166666Y-51502438D01*
X57595238Y-51931009D02*
X57928571Y-51931009D01*
X58071428Y-52454819D02*
X57595238Y-52454819D01*
X57595238Y-52454819D02*
X57595238Y-51454819D01*
X57595238Y-51454819D02*
X58071428Y-51454819D01*
X59071428Y-52454819D02*
X58738095Y-51978628D01*
X58500000Y-52454819D02*
X58500000Y-51454819D01*
X58500000Y-51454819D02*
X58880952Y-51454819D01*
X58880952Y-51454819D02*
X58976190Y-51502438D01*
X58976190Y-51502438D02*
X59023809Y-51550057D01*
X59023809Y-51550057D02*
X59071428Y-51645295D01*
X59071428Y-51645295D02*
X59071428Y-51788152D01*
X59071428Y-51788152D02*
X59023809Y-51883390D01*
X59023809Y-51883390D02*
X58976190Y-51931009D01*
X58976190Y-51931009D02*
X58880952Y-51978628D01*
X58880952Y-51978628D02*
X58500000Y-51978628D01*
X59357143Y-51454819D02*
X59690476Y-52454819D01*
X59690476Y-52454819D02*
X60023809Y-51454819D01*
X60547619Y-51454819D02*
X60738095Y-51454819D01*
X60738095Y-51454819D02*
X60833333Y-51502438D01*
X60833333Y-51502438D02*
X60928571Y-51597676D01*
X60928571Y-51597676D02*
X60976190Y-51788152D01*
X60976190Y-51788152D02*
X60976190Y-52121485D01*
X60976190Y-52121485D02*
X60928571Y-52311961D01*
X60928571Y-52311961D02*
X60833333Y-52407200D01*
X60833333Y-52407200D02*
X60738095Y-52454819D01*
X60738095Y-52454819D02*
X60547619Y-52454819D01*
X60547619Y-52454819D02*
X60452381Y-52407200D01*
X60452381Y-52407200D02*
X60357143Y-52311961D01*
X60357143Y-52311961D02*
X60309524Y-52121485D01*
X60309524Y-52121485D02*
X60309524Y-51788152D01*
X60309524Y-51788152D02*
X60357143Y-51597676D01*
X60357143Y-51597676D02*
X60452381Y-51502438D01*
X60452381Y-51502438D02*
X60547619Y-51454819D01*
X36454819Y-74881428D02*
X37169104Y-74881428D01*
X37169104Y-74881428D02*
X37311961Y-74929047D01*
X37311961Y-74929047D02*
X37407200Y-75024285D01*
X37407200Y-75024285D02*
X37454819Y-75167142D01*
X37454819Y-75167142D02*
X37454819Y-75262380D01*
X37550057Y-74643333D02*
X37550057Y-73881428D01*
X36454819Y-73643332D02*
X37264342Y-73643332D01*
X37264342Y-73643332D02*
X37359580Y-73595713D01*
X37359580Y-73595713D02*
X37407200Y-73548094D01*
X37407200Y-73548094D02*
X37454819Y-73452856D01*
X37454819Y-73452856D02*
X37454819Y-73262380D01*
X37454819Y-73262380D02*
X37407200Y-73167142D01*
X37407200Y-73167142D02*
X37359580Y-73119523D01*
X37359580Y-73119523D02*
X37264342Y-73071904D01*
X37264342Y-73071904D02*
X36454819Y-73071904D01*
X37169104Y-72643332D02*
X37169104Y-72167142D01*
X37454819Y-72738570D02*
X36454819Y-72405237D01*
X36454819Y-72405237D02*
X37454819Y-72071904D01*
X37454819Y-71167142D02*
X36978628Y-71500475D01*
X37454819Y-71738570D02*
X36454819Y-71738570D01*
X36454819Y-71738570D02*
X36454819Y-71357618D01*
X36454819Y-71357618D02*
X36502438Y-71262380D01*
X36502438Y-71262380D02*
X36550057Y-71214761D01*
X36550057Y-71214761D02*
X36645295Y-71167142D01*
X36645295Y-71167142D02*
X36788152Y-71167142D01*
X36788152Y-71167142D02*
X36883390Y-71214761D01*
X36883390Y-71214761D02*
X36931009Y-71262380D01*
X36931009Y-71262380D02*
X36978628Y-71357618D01*
X36978628Y-71357618D02*
X36978628Y-71738570D01*
X36454819Y-70881427D02*
X36454819Y-70309999D01*
X37454819Y-70595713D02*
X36454819Y-70595713D01*
D12*
X79563855Y-16609523D02*
X80211474Y-16609523D01*
X80211474Y-16609523D02*
X80287664Y-16571428D01*
X80287664Y-16571428D02*
X80325760Y-16533333D01*
X80325760Y-16533333D02*
X80363855Y-16457142D01*
X80363855Y-16457142D02*
X80363855Y-16304761D01*
X80363855Y-16304761D02*
X80325760Y-16228571D01*
X80325760Y-16228571D02*
X80287664Y-16190476D01*
X80287664Y-16190476D02*
X80211474Y-16152380D01*
X80211474Y-16152380D02*
X79563855Y-16152380D01*
X79830521Y-15428571D02*
X80363855Y-15428571D01*
X79525760Y-15619047D02*
X80097188Y-15809524D01*
X80097188Y-15809524D02*
X80097188Y-15314285D01*
D10*
X72454819Y-75682857D02*
X73169104Y-75682857D01*
X73169104Y-75682857D02*
X73311961Y-75730476D01*
X73311961Y-75730476D02*
X73407200Y-75825714D01*
X73407200Y-75825714D02*
X73454819Y-75968571D01*
X73454819Y-75968571D02*
X73454819Y-76063809D01*
X73550057Y-75444762D02*
X73550057Y-74682857D01*
X73169104Y-74492380D02*
X73169104Y-74016190D01*
X73454819Y-74587618D02*
X72454819Y-74254285D01*
X72454819Y-74254285D02*
X73454819Y-73920952D01*
X72454819Y-73587618D02*
X73264342Y-73587618D01*
X73264342Y-73587618D02*
X73359580Y-73539999D01*
X73359580Y-73539999D02*
X73407200Y-73492380D01*
X73407200Y-73492380D02*
X73454819Y-73397142D01*
X73454819Y-73397142D02*
X73454819Y-73206666D01*
X73454819Y-73206666D02*
X73407200Y-73111428D01*
X73407200Y-73111428D02*
X73359580Y-73063809D01*
X73359580Y-73063809D02*
X73264342Y-73016190D01*
X73264342Y-73016190D02*
X72454819Y-73016190D01*
X72454819Y-72635237D02*
X73454819Y-71968571D01*
X72454819Y-71968571D02*
X73454819Y-72635237D01*
X72454819Y-71159047D02*
X72454819Y-71349523D01*
X72454819Y-71349523D02*
X72502438Y-71444761D01*
X72502438Y-71444761D02*
X72550057Y-71492380D01*
X72550057Y-71492380D02*
X72692914Y-71587618D01*
X72692914Y-71587618D02*
X72883390Y-71635237D01*
X72883390Y-71635237D02*
X73264342Y-71635237D01*
X73264342Y-71635237D02*
X73359580Y-71587618D01*
X73359580Y-71587618D02*
X73407200Y-71539999D01*
X73407200Y-71539999D02*
X73454819Y-71444761D01*
X73454819Y-71444761D02*
X73454819Y-71254285D01*
X73454819Y-71254285D02*
X73407200Y-71159047D01*
X73407200Y-71159047D02*
X73359580Y-71111428D01*
X73359580Y-71111428D02*
X73264342Y-71063809D01*
X73264342Y-71063809D02*
X73026247Y-71063809D01*
X73026247Y-71063809D02*
X72931009Y-71111428D01*
X72931009Y-71111428D02*
X72883390Y-71159047D01*
X72883390Y-71159047D02*
X72835771Y-71254285D01*
X72835771Y-71254285D02*
X72835771Y-71444761D01*
X72835771Y-71444761D02*
X72883390Y-71539999D01*
X72883390Y-71539999D02*
X72931009Y-71587618D01*
X72931009Y-71587618D02*
X73026247Y-71635237D01*
D11*
X58181927Y-5619047D02*
X57991451Y-5752380D01*
X58181927Y-5847618D02*
X57781927Y-5847618D01*
X57781927Y-5847618D02*
X57781927Y-5695237D01*
X57781927Y-5695237D02*
X57800975Y-5657142D01*
X57800975Y-5657142D02*
X57820022Y-5638095D01*
X57820022Y-5638095D02*
X57858118Y-5619047D01*
X57858118Y-5619047D02*
X57915260Y-5619047D01*
X57915260Y-5619047D02*
X57953356Y-5638095D01*
X57953356Y-5638095D02*
X57972403Y-5657142D01*
X57972403Y-5657142D02*
X57991451Y-5695237D01*
X57991451Y-5695237D02*
X57991451Y-5847618D01*
X58220022Y-5542857D02*
X58220022Y-5238095D01*
X58143832Y-4914285D02*
X58162880Y-4933333D01*
X58162880Y-4933333D02*
X58181927Y-4990475D01*
X58181927Y-4990475D02*
X58181927Y-5028571D01*
X58181927Y-5028571D02*
X58162880Y-5085714D01*
X58162880Y-5085714D02*
X58124784Y-5123809D01*
X58124784Y-5123809D02*
X58086689Y-5142856D01*
X58086689Y-5142856D02*
X58010499Y-5161904D01*
X58010499Y-5161904D02*
X57953356Y-5161904D01*
X57953356Y-5161904D02*
X57877165Y-5142856D01*
X57877165Y-5142856D02*
X57839070Y-5123809D01*
X57839070Y-5123809D02*
X57800975Y-5085714D01*
X57800975Y-5085714D02*
X57781927Y-5028571D01*
X57781927Y-5028571D02*
X57781927Y-4990475D01*
X57781927Y-4990475D02*
X57800975Y-4933333D01*
X57800975Y-4933333D02*
X57820022Y-4914285D01*
X58143832Y-4514285D02*
X58162880Y-4533333D01*
X58162880Y-4533333D02*
X58181927Y-4590475D01*
X58181927Y-4590475D02*
X58181927Y-4628571D01*
X58181927Y-4628571D02*
X58162880Y-4685714D01*
X58162880Y-4685714D02*
X58124784Y-4723809D01*
X58124784Y-4723809D02*
X58086689Y-4742856D01*
X58086689Y-4742856D02*
X58010499Y-4761904D01*
X58010499Y-4761904D02*
X57953356Y-4761904D01*
X57953356Y-4761904D02*
X57877165Y-4742856D01*
X57877165Y-4742856D02*
X57839070Y-4723809D01*
X57839070Y-4723809D02*
X57800975Y-4685714D01*
X57800975Y-4685714D02*
X57781927Y-4628571D01*
X57781927Y-4628571D02*
X57781927Y-4590475D01*
X57781927Y-4590475D02*
X57800975Y-4533333D01*
X57800975Y-4533333D02*
X57820022Y-4514285D01*
X57820022Y-4361904D02*
X57800975Y-4342856D01*
X57800975Y-4342856D02*
X57781927Y-4304761D01*
X57781927Y-4304761D02*
X57781927Y-4209523D01*
X57781927Y-4209523D02*
X57800975Y-4171428D01*
X57800975Y-4171428D02*
X57820022Y-4152380D01*
X57820022Y-4152380D02*
X57858118Y-4133333D01*
X57858118Y-4133333D02*
X57896213Y-4133333D01*
X57896213Y-4133333D02*
X57953356Y-4152380D01*
X57953356Y-4152380D02*
X58181927Y-4380952D01*
X58181927Y-4380952D02*
X58181927Y-4133333D01*
D10*
X54454819Y-75682857D02*
X55169104Y-75682857D01*
X55169104Y-75682857D02*
X55311961Y-75730476D01*
X55311961Y-75730476D02*
X55407200Y-75825714D01*
X55407200Y-75825714D02*
X55454819Y-75968571D01*
X55454819Y-75968571D02*
X55454819Y-76063809D01*
X55550057Y-75444762D02*
X55550057Y-74682857D01*
X55169104Y-74492380D02*
X55169104Y-74016190D01*
X55454819Y-74587618D02*
X54454819Y-74254285D01*
X54454819Y-74254285D02*
X55454819Y-73920952D01*
X54454819Y-73587618D02*
X55264342Y-73587618D01*
X55264342Y-73587618D02*
X55359580Y-73539999D01*
X55359580Y-73539999D02*
X55407200Y-73492380D01*
X55407200Y-73492380D02*
X55454819Y-73397142D01*
X55454819Y-73397142D02*
X55454819Y-73206666D01*
X55454819Y-73206666D02*
X55407200Y-73111428D01*
X55407200Y-73111428D02*
X55359580Y-73063809D01*
X55359580Y-73063809D02*
X55264342Y-73016190D01*
X55264342Y-73016190D02*
X54454819Y-73016190D01*
X54454819Y-72635237D02*
X55454819Y-71968571D01*
X54454819Y-71968571D02*
X55454819Y-72635237D01*
X54454819Y-71682856D02*
X54454819Y-71063809D01*
X54454819Y-71063809D02*
X54835771Y-71397142D01*
X54835771Y-71397142D02*
X54835771Y-71254285D01*
X54835771Y-71254285D02*
X54883390Y-71159047D01*
X54883390Y-71159047D02*
X54931009Y-71111428D01*
X54931009Y-71111428D02*
X55026247Y-71063809D01*
X55026247Y-71063809D02*
X55264342Y-71063809D01*
X55264342Y-71063809D02*
X55359580Y-71111428D01*
X55359580Y-71111428D02*
X55407200Y-71159047D01*
X55407200Y-71159047D02*
X55454819Y-71254285D01*
X55454819Y-71254285D02*
X55454819Y-71539999D01*
X55454819Y-71539999D02*
X55407200Y-71635237D01*
X55407200Y-71635237D02*
X55359580Y-71682856D01*
D13*
X82845239Y-22179530D02*
X82821430Y-22203340D01*
X82821430Y-22203340D02*
X82750001Y-22227149D01*
X82750001Y-22227149D02*
X82702382Y-22227149D01*
X82702382Y-22227149D02*
X82630954Y-22203340D01*
X82630954Y-22203340D02*
X82583335Y-22155720D01*
X82583335Y-22155720D02*
X82559525Y-22108101D01*
X82559525Y-22108101D02*
X82535716Y-22012863D01*
X82535716Y-22012863D02*
X82535716Y-21941435D01*
X82535716Y-21941435D02*
X82559525Y-21846197D01*
X82559525Y-21846197D02*
X82583335Y-21798578D01*
X82583335Y-21798578D02*
X82630954Y-21750959D01*
X82630954Y-21750959D02*
X82702382Y-21727149D01*
X82702382Y-21727149D02*
X82750001Y-21727149D01*
X82750001Y-21727149D02*
X82821430Y-21750959D01*
X82821430Y-21750959D02*
X82845239Y-21774768D01*
X82940478Y-22274768D02*
X83321430Y-22274768D01*
X83392858Y-21727149D02*
X83702382Y-21727149D01*
X83702382Y-21727149D02*
X83535715Y-21917625D01*
X83535715Y-21917625D02*
X83607144Y-21917625D01*
X83607144Y-21917625D02*
X83654763Y-21941435D01*
X83654763Y-21941435D02*
X83678572Y-21965244D01*
X83678572Y-21965244D02*
X83702382Y-22012863D01*
X83702382Y-22012863D02*
X83702382Y-22131911D01*
X83702382Y-22131911D02*
X83678572Y-22179530D01*
X83678572Y-22179530D02*
X83654763Y-22203340D01*
X83654763Y-22203340D02*
X83607144Y-22227149D01*
X83607144Y-22227149D02*
X83464287Y-22227149D01*
X83464287Y-22227149D02*
X83416668Y-22203340D01*
X83416668Y-22203340D02*
X83392858Y-22179530D01*
X83845239Y-21727149D02*
X84011905Y-22227149D01*
X84011905Y-22227149D02*
X84178572Y-21727149D01*
X84297619Y-21727149D02*
X84607143Y-21727149D01*
X84607143Y-21727149D02*
X84440476Y-21917625D01*
X84440476Y-21917625D02*
X84511905Y-21917625D01*
X84511905Y-21917625D02*
X84559524Y-21941435D01*
X84559524Y-21941435D02*
X84583333Y-21965244D01*
X84583333Y-21965244D02*
X84607143Y-22012863D01*
X84607143Y-22012863D02*
X84607143Y-22131911D01*
X84607143Y-22131911D02*
X84583333Y-22179530D01*
X84583333Y-22179530D02*
X84559524Y-22203340D01*
X84559524Y-22203340D02*
X84511905Y-22227149D01*
X84511905Y-22227149D02*
X84369048Y-22227149D01*
X84369048Y-22227149D02*
X84321429Y-22203340D01*
X84321429Y-22203340D02*
X84297619Y-22179530D01*
X84702381Y-22274768D02*
X85083333Y-22274768D01*
X85464285Y-22227149D02*
X85178571Y-22227149D01*
X85321428Y-22227149D02*
X85321428Y-21727149D01*
X85321428Y-21727149D02*
X85273809Y-21798578D01*
X85273809Y-21798578D02*
X85226190Y-21846197D01*
X85226190Y-21846197D02*
X85178571Y-21870006D01*
D10*
X73238095Y-37454819D02*
X73238095Y-38264342D01*
X73238095Y-38264342D02*
X73285714Y-38359580D01*
X73285714Y-38359580D02*
X73333333Y-38407200D01*
X73333333Y-38407200D02*
X73428571Y-38454819D01*
X73428571Y-38454819D02*
X73619047Y-38454819D01*
X73619047Y-38454819D02*
X73714285Y-38407200D01*
X73714285Y-38407200D02*
X73761904Y-38359580D01*
X73761904Y-38359580D02*
X73809523Y-38264342D01*
X73809523Y-38264342D02*
X73809523Y-37454819D01*
X74714285Y-37454819D02*
X74523809Y-37454819D01*
X74523809Y-37454819D02*
X74428571Y-37502438D01*
X74428571Y-37502438D02*
X74380952Y-37550057D01*
X74380952Y-37550057D02*
X74285714Y-37692914D01*
X74285714Y-37692914D02*
X74238095Y-37883390D01*
X74238095Y-37883390D02*
X74238095Y-38264342D01*
X74238095Y-38264342D02*
X74285714Y-38359580D01*
X74285714Y-38359580D02*
X74333333Y-38407200D01*
X74333333Y-38407200D02*
X74428571Y-38454819D01*
X74428571Y-38454819D02*
X74619047Y-38454819D01*
X74619047Y-38454819D02*
X74714285Y-38407200D01*
X74714285Y-38407200D02*
X74761904Y-38359580D01*
X74761904Y-38359580D02*
X74809523Y-38264342D01*
X74809523Y-38264342D02*
X74809523Y-38026247D01*
X74809523Y-38026247D02*
X74761904Y-37931009D01*
X74761904Y-37931009D02*
X74714285Y-37883390D01*
X74714285Y-37883390D02*
X74619047Y-37835771D01*
X74619047Y-37835771D02*
X74428571Y-37835771D01*
X74428571Y-37835771D02*
X74333333Y-37883390D01*
X74333333Y-37883390D02*
X74285714Y-37931009D01*
X74285714Y-37931009D02*
X74238095Y-38026247D01*
X25238095Y-37454819D02*
X25238095Y-38264342D01*
X25238095Y-38264342D02*
X25285714Y-38359580D01*
X25285714Y-38359580D02*
X25333333Y-38407200D01*
X25333333Y-38407200D02*
X25428571Y-38454819D01*
X25428571Y-38454819D02*
X25619047Y-38454819D01*
X25619047Y-38454819D02*
X25714285Y-38407200D01*
X25714285Y-38407200D02*
X25761904Y-38359580D01*
X25761904Y-38359580D02*
X25809523Y-38264342D01*
X25809523Y-38264342D02*
X25809523Y-37454819D01*
X26761904Y-37454819D02*
X26285714Y-37454819D01*
X26285714Y-37454819D02*
X26238095Y-37931009D01*
X26238095Y-37931009D02*
X26285714Y-37883390D01*
X26285714Y-37883390D02*
X26380952Y-37835771D01*
X26380952Y-37835771D02*
X26619047Y-37835771D01*
X26619047Y-37835771D02*
X26714285Y-37883390D01*
X26714285Y-37883390D02*
X26761904Y-37931009D01*
X26761904Y-37931009D02*
X26809523Y-38026247D01*
X26809523Y-38026247D02*
X26809523Y-38264342D01*
X26809523Y-38264342D02*
X26761904Y-38359580D01*
X26761904Y-38359580D02*
X26714285Y-38407200D01*
X26714285Y-38407200D02*
X26619047Y-38454819D01*
X26619047Y-38454819D02*
X26380952Y-38454819D01*
X26380952Y-38454819D02*
X26285714Y-38407200D01*
X26285714Y-38407200D02*
X26238095Y-38359580D01*
D11*
X73314286Y-23681927D02*
X73180953Y-23491451D01*
X73085715Y-23681927D02*
X73085715Y-23281927D01*
X73085715Y-23281927D02*
X73238096Y-23281927D01*
X73238096Y-23281927D02*
X73276191Y-23300975D01*
X73276191Y-23300975D02*
X73295238Y-23320022D01*
X73295238Y-23320022D02*
X73314286Y-23358118D01*
X73314286Y-23358118D02*
X73314286Y-23415260D01*
X73314286Y-23415260D02*
X73295238Y-23453356D01*
X73295238Y-23453356D02*
X73276191Y-23472403D01*
X73276191Y-23472403D02*
X73238096Y-23491451D01*
X73238096Y-23491451D02*
X73085715Y-23491451D01*
X73390477Y-23720022D02*
X73695238Y-23720022D01*
X73790477Y-23681927D02*
X73790477Y-23281927D01*
X73790477Y-23281927D02*
X73885715Y-23281927D01*
X73885715Y-23281927D02*
X73942858Y-23300975D01*
X73942858Y-23300975D02*
X73980953Y-23339070D01*
X73980953Y-23339070D02*
X74000000Y-23377165D01*
X74000000Y-23377165D02*
X74019048Y-23453356D01*
X74019048Y-23453356D02*
X74019048Y-23510499D01*
X74019048Y-23510499D02*
X74000000Y-23586689D01*
X74000000Y-23586689D02*
X73980953Y-23624784D01*
X73980953Y-23624784D02*
X73942858Y-23662880D01*
X73942858Y-23662880D02*
X73885715Y-23681927D01*
X73885715Y-23681927D02*
X73790477Y-23681927D01*
X74190477Y-23681927D02*
X74190477Y-23281927D01*
X74323810Y-23281927D02*
X74457143Y-23681927D01*
X74457143Y-23681927D02*
X74590476Y-23281927D01*
X74704762Y-23320022D02*
X74723810Y-23300975D01*
X74723810Y-23300975D02*
X74761905Y-23281927D01*
X74761905Y-23281927D02*
X74857143Y-23281927D01*
X74857143Y-23281927D02*
X74895238Y-23300975D01*
X74895238Y-23300975D02*
X74914286Y-23320022D01*
X74914286Y-23320022D02*
X74933333Y-23358118D01*
X74933333Y-23358118D02*
X74933333Y-23396213D01*
X74933333Y-23396213D02*
X74914286Y-23453356D01*
X74914286Y-23453356D02*
X74685714Y-23681927D01*
X74685714Y-23681927D02*
X74933333Y-23681927D01*
D13*
X33916666Y-18179530D02*
X33892857Y-18203340D01*
X33892857Y-18203340D02*
X33821428Y-18227149D01*
X33821428Y-18227149D02*
X33773809Y-18227149D01*
X33773809Y-18227149D02*
X33702381Y-18203340D01*
X33702381Y-18203340D02*
X33654762Y-18155720D01*
X33654762Y-18155720D02*
X33630952Y-18108101D01*
X33630952Y-18108101D02*
X33607143Y-18012863D01*
X33607143Y-18012863D02*
X33607143Y-17941435D01*
X33607143Y-17941435D02*
X33630952Y-17846197D01*
X33630952Y-17846197D02*
X33654762Y-17798578D01*
X33654762Y-17798578D02*
X33702381Y-17750959D01*
X33702381Y-17750959D02*
X33773809Y-17727149D01*
X33773809Y-17727149D02*
X33821428Y-17727149D01*
X33821428Y-17727149D02*
X33892857Y-17750959D01*
X33892857Y-17750959D02*
X33916666Y-17774768D01*
X34392857Y-18227149D02*
X34107143Y-18227149D01*
X34250000Y-18227149D02*
X34250000Y-17727149D01*
X34250000Y-17727149D02*
X34202381Y-17798578D01*
X34202381Y-17798578D02*
X34154762Y-17846197D01*
X34154762Y-17846197D02*
X34107143Y-17870006D01*
D10*
X5238095Y-6454819D02*
X5238095Y-5454819D01*
X5238095Y-5931009D02*
X5809523Y-5931009D01*
X5809523Y-6454819D02*
X5809523Y-5454819D01*
X6809523Y-6454819D02*
X6238095Y-6454819D01*
X6523809Y-6454819D02*
X6523809Y-5454819D01*
X6523809Y-5454819D02*
X6428571Y-5597676D01*
X6428571Y-5597676D02*
X6333333Y-5692914D01*
X6333333Y-5692914D02*
X6238095Y-5740533D01*
X66454819Y-75682857D02*
X67169104Y-75682857D01*
X67169104Y-75682857D02*
X67311961Y-75730476D01*
X67311961Y-75730476D02*
X67407200Y-75825714D01*
X67407200Y-75825714D02*
X67454819Y-75968571D01*
X67454819Y-75968571D02*
X67454819Y-76063809D01*
X67550057Y-75444762D02*
X67550057Y-74682857D01*
X67169104Y-74492380D02*
X67169104Y-74016190D01*
X67454819Y-74587618D02*
X66454819Y-74254285D01*
X66454819Y-74254285D02*
X67454819Y-73920952D01*
X66454819Y-73587618D02*
X67264342Y-73587618D01*
X67264342Y-73587618D02*
X67359580Y-73539999D01*
X67359580Y-73539999D02*
X67407200Y-73492380D01*
X67407200Y-73492380D02*
X67454819Y-73397142D01*
X67454819Y-73397142D02*
X67454819Y-73206666D01*
X67454819Y-73206666D02*
X67407200Y-73111428D01*
X67407200Y-73111428D02*
X67359580Y-73063809D01*
X67359580Y-73063809D02*
X67264342Y-73016190D01*
X67264342Y-73016190D02*
X66454819Y-73016190D01*
X66454819Y-72635237D02*
X67454819Y-71968571D01*
X66454819Y-71968571D02*
X67454819Y-72635237D01*
X66454819Y-71111428D02*
X66454819Y-71587618D01*
X66454819Y-71587618D02*
X66931009Y-71635237D01*
X66931009Y-71635237D02*
X66883390Y-71587618D01*
X66883390Y-71587618D02*
X66835771Y-71492380D01*
X66835771Y-71492380D02*
X66835771Y-71254285D01*
X66835771Y-71254285D02*
X66883390Y-71159047D01*
X66883390Y-71159047D02*
X66931009Y-71111428D01*
X66931009Y-71111428D02*
X67026247Y-71063809D01*
X67026247Y-71063809D02*
X67264342Y-71063809D01*
X67264342Y-71063809D02*
X67359580Y-71111428D01*
X67359580Y-71111428D02*
X67407200Y-71159047D01*
X67407200Y-71159047D02*
X67454819Y-71254285D01*
X67454819Y-71254285D02*
X67454819Y-71492380D01*
X67454819Y-71492380D02*
X67407200Y-71587618D01*
X67407200Y-71587618D02*
X67359580Y-71635237D01*
D11*
X83076191Y-25143832D02*
X83057143Y-25162880D01*
X83057143Y-25162880D02*
X83000001Y-25181927D01*
X83000001Y-25181927D02*
X82961905Y-25181927D01*
X82961905Y-25181927D02*
X82904762Y-25162880D01*
X82904762Y-25162880D02*
X82866667Y-25124784D01*
X82866667Y-25124784D02*
X82847620Y-25086689D01*
X82847620Y-25086689D02*
X82828572Y-25010499D01*
X82828572Y-25010499D02*
X82828572Y-24953356D01*
X82828572Y-24953356D02*
X82847620Y-24877165D01*
X82847620Y-24877165D02*
X82866667Y-24839070D01*
X82866667Y-24839070D02*
X82904762Y-24800975D01*
X82904762Y-24800975D02*
X82961905Y-24781927D01*
X82961905Y-24781927D02*
X83000001Y-24781927D01*
X83000001Y-24781927D02*
X83057143Y-24800975D01*
X83057143Y-24800975D02*
X83076191Y-24820022D01*
X83152382Y-25220022D02*
X83457143Y-25220022D01*
X83514286Y-24781927D02*
X83761905Y-24781927D01*
X83761905Y-24781927D02*
X83628572Y-24934308D01*
X83628572Y-24934308D02*
X83685715Y-24934308D01*
X83685715Y-24934308D02*
X83723810Y-24953356D01*
X83723810Y-24953356D02*
X83742858Y-24972403D01*
X83742858Y-24972403D02*
X83761905Y-25010499D01*
X83761905Y-25010499D02*
X83761905Y-25105737D01*
X83761905Y-25105737D02*
X83742858Y-25143832D01*
X83742858Y-25143832D02*
X83723810Y-25162880D01*
X83723810Y-25162880D02*
X83685715Y-25181927D01*
X83685715Y-25181927D02*
X83571429Y-25181927D01*
X83571429Y-25181927D02*
X83533334Y-25162880D01*
X83533334Y-25162880D02*
X83514286Y-25143832D01*
X83876191Y-24781927D02*
X84009524Y-25181927D01*
X84009524Y-25181927D02*
X84142857Y-24781927D01*
X84238095Y-24781927D02*
X84485714Y-24781927D01*
X84485714Y-24781927D02*
X84352381Y-24934308D01*
X84352381Y-24934308D02*
X84409524Y-24934308D01*
X84409524Y-24934308D02*
X84447619Y-24953356D01*
X84447619Y-24953356D02*
X84466667Y-24972403D01*
X84466667Y-24972403D02*
X84485714Y-25010499D01*
X84485714Y-25010499D02*
X84485714Y-25105737D01*
X84485714Y-25105737D02*
X84466667Y-25143832D01*
X84466667Y-25143832D02*
X84447619Y-25162880D01*
X84447619Y-25162880D02*
X84409524Y-25181927D01*
X84409524Y-25181927D02*
X84295238Y-25181927D01*
X84295238Y-25181927D02*
X84257143Y-25162880D01*
X84257143Y-25162880D02*
X84238095Y-25143832D01*
X84561905Y-25220022D02*
X84866666Y-25220022D01*
X84942857Y-24820022D02*
X84961905Y-24800975D01*
X84961905Y-24800975D02*
X85000000Y-24781927D01*
X85000000Y-24781927D02*
X85095238Y-24781927D01*
X85095238Y-24781927D02*
X85133333Y-24800975D01*
X85133333Y-24800975D02*
X85152381Y-24820022D01*
X85152381Y-24820022D02*
X85171428Y-24858118D01*
X85171428Y-24858118D02*
X85171428Y-24896213D01*
X85171428Y-24896213D02*
X85152381Y-24953356D01*
X85152381Y-24953356D02*
X84923809Y-25181927D01*
X84923809Y-25181927D02*
X85171428Y-25181927D01*
X20181927Y-7019047D02*
X20181927Y-7209523D01*
X20181927Y-7209523D02*
X19781927Y-7209523D01*
X19972403Y-6885713D02*
X19972403Y-6752380D01*
X20181927Y-6695237D02*
X20181927Y-6885713D01*
X20181927Y-6885713D02*
X19781927Y-6885713D01*
X19781927Y-6885713D02*
X19781927Y-6695237D01*
X20181927Y-6523808D02*
X19781927Y-6523808D01*
X19781927Y-6523808D02*
X19781927Y-6428570D01*
X19781927Y-6428570D02*
X19800975Y-6371427D01*
X19800975Y-6371427D02*
X19839070Y-6333332D01*
X19839070Y-6333332D02*
X19877165Y-6314285D01*
X19877165Y-6314285D02*
X19953356Y-6295237D01*
X19953356Y-6295237D02*
X20010499Y-6295237D01*
X20010499Y-6295237D02*
X20086689Y-6314285D01*
X20086689Y-6314285D02*
X20124784Y-6333332D01*
X20124784Y-6333332D02*
X20162880Y-6371427D01*
X20162880Y-6371427D02*
X20181927Y-6428570D01*
X20181927Y-6428570D02*
X20181927Y-6523808D01*
X20220022Y-6219047D02*
X20220022Y-5914285D01*
X20143832Y-5590475D02*
X20162880Y-5609523D01*
X20162880Y-5609523D02*
X20181927Y-5666665D01*
X20181927Y-5666665D02*
X20181927Y-5704761D01*
X20181927Y-5704761D02*
X20162880Y-5761904D01*
X20162880Y-5761904D02*
X20124784Y-5799999D01*
X20124784Y-5799999D02*
X20086689Y-5819046D01*
X20086689Y-5819046D02*
X20010499Y-5838094D01*
X20010499Y-5838094D02*
X19953356Y-5838094D01*
X19953356Y-5838094D02*
X19877165Y-5819046D01*
X19877165Y-5819046D02*
X19839070Y-5799999D01*
X19839070Y-5799999D02*
X19800975Y-5761904D01*
X19800975Y-5761904D02*
X19781927Y-5704761D01*
X19781927Y-5704761D02*
X19781927Y-5666665D01*
X19781927Y-5666665D02*
X19800975Y-5609523D01*
X19800975Y-5609523D02*
X19820022Y-5590475D01*
X20181927Y-5419046D02*
X19781927Y-5419046D01*
X19972403Y-5419046D02*
X19972403Y-5190475D01*
X20181927Y-5190475D02*
X19781927Y-5190475D01*
X19800975Y-4790475D02*
X19781927Y-4828570D01*
X19781927Y-4828570D02*
X19781927Y-4885713D01*
X19781927Y-4885713D02*
X19800975Y-4942856D01*
X19800975Y-4942856D02*
X19839070Y-4980951D01*
X19839070Y-4980951D02*
X19877165Y-4999998D01*
X19877165Y-4999998D02*
X19953356Y-5019046D01*
X19953356Y-5019046D02*
X20010499Y-5019046D01*
X20010499Y-5019046D02*
X20086689Y-4999998D01*
X20086689Y-4999998D02*
X20124784Y-4980951D01*
X20124784Y-4980951D02*
X20162880Y-4942856D01*
X20162880Y-4942856D02*
X20181927Y-4885713D01*
X20181927Y-4885713D02*
X20181927Y-4847617D01*
X20181927Y-4847617D02*
X20162880Y-4790475D01*
X20162880Y-4790475D02*
X20143832Y-4771427D01*
X20143832Y-4771427D02*
X20010499Y-4771427D01*
X20010499Y-4771427D02*
X20010499Y-4847617D01*
X73314286Y-20181927D02*
X73180953Y-19991451D01*
X73085715Y-20181927D02*
X73085715Y-19781927D01*
X73085715Y-19781927D02*
X73238096Y-19781927D01*
X73238096Y-19781927D02*
X73276191Y-19800975D01*
X73276191Y-19800975D02*
X73295238Y-19820022D01*
X73295238Y-19820022D02*
X73314286Y-19858118D01*
X73314286Y-19858118D02*
X73314286Y-19915260D01*
X73314286Y-19915260D02*
X73295238Y-19953356D01*
X73295238Y-19953356D02*
X73276191Y-19972403D01*
X73276191Y-19972403D02*
X73238096Y-19991451D01*
X73238096Y-19991451D02*
X73085715Y-19991451D01*
X73390477Y-20220022D02*
X73695238Y-20220022D01*
X73790477Y-20181927D02*
X73790477Y-19781927D01*
X73790477Y-19781927D02*
X73885715Y-19781927D01*
X73885715Y-19781927D02*
X73942858Y-19800975D01*
X73942858Y-19800975D02*
X73980953Y-19839070D01*
X73980953Y-19839070D02*
X74000000Y-19877165D01*
X74000000Y-19877165D02*
X74019048Y-19953356D01*
X74019048Y-19953356D02*
X74019048Y-20010499D01*
X74019048Y-20010499D02*
X74000000Y-20086689D01*
X74000000Y-20086689D02*
X73980953Y-20124784D01*
X73980953Y-20124784D02*
X73942858Y-20162880D01*
X73942858Y-20162880D02*
X73885715Y-20181927D01*
X73885715Y-20181927D02*
X73790477Y-20181927D01*
X74190477Y-20181927D02*
X74190477Y-19781927D01*
X74323810Y-19781927D02*
X74457143Y-20181927D01*
X74457143Y-20181927D02*
X74590476Y-19781927D01*
X74933333Y-20181927D02*
X74704762Y-20181927D01*
X74819048Y-20181927D02*
X74819048Y-19781927D01*
X74819048Y-19781927D02*
X74780952Y-19839070D01*
X74780952Y-19839070D02*
X74742857Y-19877165D01*
X74742857Y-19877165D02*
X74704762Y-19896213D01*
X53580952Y-42181927D02*
X53447619Y-41991451D01*
X53352381Y-42181927D02*
X53352381Y-41781927D01*
X53352381Y-41781927D02*
X53504762Y-41781927D01*
X53504762Y-41781927D02*
X53542857Y-41800975D01*
X53542857Y-41800975D02*
X53561904Y-41820022D01*
X53561904Y-41820022D02*
X53580952Y-41858118D01*
X53580952Y-41858118D02*
X53580952Y-41915260D01*
X53580952Y-41915260D02*
X53561904Y-41953356D01*
X53561904Y-41953356D02*
X53542857Y-41972403D01*
X53542857Y-41972403D02*
X53504762Y-41991451D01*
X53504762Y-41991451D02*
X53352381Y-41991451D01*
X53657143Y-42220022D02*
X53961904Y-42220022D01*
X54133333Y-41781927D02*
X54209524Y-41781927D01*
X54209524Y-41781927D02*
X54247619Y-41800975D01*
X54247619Y-41800975D02*
X54285714Y-41839070D01*
X54285714Y-41839070D02*
X54304762Y-41915260D01*
X54304762Y-41915260D02*
X54304762Y-42048594D01*
X54304762Y-42048594D02*
X54285714Y-42124784D01*
X54285714Y-42124784D02*
X54247619Y-42162880D01*
X54247619Y-42162880D02*
X54209524Y-42181927D01*
X54209524Y-42181927D02*
X54133333Y-42181927D01*
X54133333Y-42181927D02*
X54095238Y-42162880D01*
X54095238Y-42162880D02*
X54057143Y-42124784D01*
X54057143Y-42124784D02*
X54038095Y-42048594D01*
X54038095Y-42048594D02*
X54038095Y-41915260D01*
X54038095Y-41915260D02*
X54057143Y-41839070D01*
X54057143Y-41839070D02*
X54095238Y-41800975D01*
X54095238Y-41800975D02*
X54133333Y-41781927D01*
X54476191Y-41972403D02*
X54609524Y-41972403D01*
X54666667Y-42181927D02*
X54476191Y-42181927D01*
X54476191Y-42181927D02*
X54476191Y-41781927D01*
X54476191Y-41781927D02*
X54666667Y-41781927D01*
X33933333Y-26181927D02*
X33800000Y-25991451D01*
X33704762Y-26181927D02*
X33704762Y-25781927D01*
X33704762Y-25781927D02*
X33857143Y-25781927D01*
X33857143Y-25781927D02*
X33895238Y-25800975D01*
X33895238Y-25800975D02*
X33914285Y-25820022D01*
X33914285Y-25820022D02*
X33933333Y-25858118D01*
X33933333Y-25858118D02*
X33933333Y-25915260D01*
X33933333Y-25915260D02*
X33914285Y-25953356D01*
X33914285Y-25953356D02*
X33895238Y-25972403D01*
X33895238Y-25972403D02*
X33857143Y-25991451D01*
X33857143Y-25991451D02*
X33704762Y-25991451D01*
X34314285Y-26181927D02*
X34085714Y-26181927D01*
X34200000Y-26181927D02*
X34200000Y-25781927D01*
X34200000Y-25781927D02*
X34161904Y-25839070D01*
X34161904Y-25839070D02*
X34123809Y-25877165D01*
X34123809Y-25877165D02*
X34085714Y-25896213D01*
D10*
X31666667Y-6407200D02*
X31809524Y-6454819D01*
X31809524Y-6454819D02*
X32047619Y-6454819D01*
X32047619Y-6454819D02*
X32142857Y-6407200D01*
X32142857Y-6407200D02*
X32190476Y-6359580D01*
X32190476Y-6359580D02*
X32238095Y-6264342D01*
X32238095Y-6264342D02*
X32238095Y-6169104D01*
X32238095Y-6169104D02*
X32190476Y-6073866D01*
X32190476Y-6073866D02*
X32142857Y-6026247D01*
X32142857Y-6026247D02*
X32047619Y-5978628D01*
X32047619Y-5978628D02*
X31857143Y-5931009D01*
X31857143Y-5931009D02*
X31761905Y-5883390D01*
X31761905Y-5883390D02*
X31714286Y-5835771D01*
X31714286Y-5835771D02*
X31666667Y-5740533D01*
X31666667Y-5740533D02*
X31666667Y-5645295D01*
X31666667Y-5645295D02*
X31714286Y-5550057D01*
X31714286Y-5550057D02*
X31761905Y-5502438D01*
X31761905Y-5502438D02*
X31857143Y-5454819D01*
X31857143Y-5454819D02*
X32095238Y-5454819D01*
X32095238Y-5454819D02*
X32238095Y-5502438D01*
X32571429Y-5454819D02*
X32809524Y-6454819D01*
X32809524Y-6454819D02*
X33000000Y-5740533D01*
X33000000Y-5740533D02*
X33190476Y-6454819D01*
X33190476Y-6454819D02*
X33428572Y-5454819D01*
X34333333Y-6454819D02*
X33761905Y-6454819D01*
X34047619Y-6454819D02*
X34047619Y-5454819D01*
X34047619Y-5454819D02*
X33952381Y-5597676D01*
X33952381Y-5597676D02*
X33857143Y-5692914D01*
X33857143Y-5692914D02*
X33761905Y-5740533D01*
D11*
X26681927Y-7114286D02*
X26681927Y-7304762D01*
X26681927Y-7304762D02*
X26281927Y-7304762D01*
X26472403Y-6980952D02*
X26472403Y-6847619D01*
X26681927Y-6790476D02*
X26681927Y-6980952D01*
X26681927Y-6980952D02*
X26281927Y-6980952D01*
X26281927Y-6980952D02*
X26281927Y-6790476D01*
X26681927Y-6619047D02*
X26281927Y-6619047D01*
X26281927Y-6619047D02*
X26281927Y-6523809D01*
X26281927Y-6523809D02*
X26300975Y-6466666D01*
X26300975Y-6466666D02*
X26339070Y-6428571D01*
X26339070Y-6428571D02*
X26377165Y-6409524D01*
X26377165Y-6409524D02*
X26453356Y-6390476D01*
X26453356Y-6390476D02*
X26510499Y-6390476D01*
X26510499Y-6390476D02*
X26586689Y-6409524D01*
X26586689Y-6409524D02*
X26624784Y-6428571D01*
X26624784Y-6428571D02*
X26662880Y-6466666D01*
X26662880Y-6466666D02*
X26681927Y-6523809D01*
X26681927Y-6523809D02*
X26681927Y-6619047D01*
X26720022Y-6314286D02*
X26720022Y-6009524D01*
X26472403Y-5780952D02*
X26472403Y-5914285D01*
X26681927Y-5914285D02*
X26281927Y-5914285D01*
X26281927Y-5914285D02*
X26281927Y-5723809D01*
X26281927Y-5571428D02*
X26605737Y-5571428D01*
X26605737Y-5571428D02*
X26643832Y-5552381D01*
X26643832Y-5552381D02*
X26662880Y-5533333D01*
X26662880Y-5533333D02*
X26681927Y-5495238D01*
X26681927Y-5495238D02*
X26681927Y-5419047D01*
X26681927Y-5419047D02*
X26662880Y-5380952D01*
X26662880Y-5380952D02*
X26643832Y-5361905D01*
X26643832Y-5361905D02*
X26605737Y-5342857D01*
X26605737Y-5342857D02*
X26281927Y-5342857D01*
X26681927Y-4961904D02*
X26681927Y-5152380D01*
X26681927Y-5152380D02*
X26281927Y-5152380D01*
X26681927Y-4638094D02*
X26681927Y-4828570D01*
X26681927Y-4828570D02*
X26281927Y-4828570D01*
X77181927Y-61676190D02*
X76991451Y-61809523D01*
X77181927Y-61904761D02*
X76781927Y-61904761D01*
X76781927Y-61904761D02*
X76781927Y-61752380D01*
X76781927Y-61752380D02*
X76800975Y-61714285D01*
X76800975Y-61714285D02*
X76820022Y-61695238D01*
X76820022Y-61695238D02*
X76858118Y-61676190D01*
X76858118Y-61676190D02*
X76915260Y-61676190D01*
X76915260Y-61676190D02*
X76953356Y-61695238D01*
X76953356Y-61695238D02*
X76972403Y-61714285D01*
X76972403Y-61714285D02*
X76991451Y-61752380D01*
X76991451Y-61752380D02*
X76991451Y-61904761D01*
X77220022Y-61600000D02*
X77220022Y-61295238D01*
X77162880Y-61219047D02*
X77181927Y-61161904D01*
X77181927Y-61161904D02*
X77181927Y-61066666D01*
X77181927Y-61066666D02*
X77162880Y-61028571D01*
X77162880Y-61028571D02*
X77143832Y-61009523D01*
X77143832Y-61009523D02*
X77105737Y-60990476D01*
X77105737Y-60990476D02*
X77067641Y-60990476D01*
X77067641Y-60990476D02*
X77029546Y-61009523D01*
X77029546Y-61009523D02*
X77010499Y-61028571D01*
X77010499Y-61028571D02*
X76991451Y-61066666D01*
X76991451Y-61066666D02*
X76972403Y-61142857D01*
X76972403Y-61142857D02*
X76953356Y-61180952D01*
X76953356Y-61180952D02*
X76934308Y-61199999D01*
X76934308Y-61199999D02*
X76896213Y-61219047D01*
X76896213Y-61219047D02*
X76858118Y-61219047D01*
X76858118Y-61219047D02*
X76820022Y-61199999D01*
X76820022Y-61199999D02*
X76800975Y-61180952D01*
X76800975Y-61180952D02*
X76781927Y-61142857D01*
X76781927Y-61142857D02*
X76781927Y-61047618D01*
X76781927Y-61047618D02*
X76800975Y-60990476D01*
X76972403Y-60819047D02*
X76972403Y-60685714D01*
X77181927Y-60628571D02*
X77181927Y-60819047D01*
X77181927Y-60819047D02*
X76781927Y-60819047D01*
X76781927Y-60819047D02*
X76781927Y-60628571D01*
X77181927Y-60228571D02*
X76991451Y-60361904D01*
X77181927Y-60457142D02*
X76781927Y-60457142D01*
X76781927Y-60457142D02*
X76781927Y-60304761D01*
X76781927Y-60304761D02*
X76800975Y-60266666D01*
X76800975Y-60266666D02*
X76820022Y-60247619D01*
X76820022Y-60247619D02*
X76858118Y-60228571D01*
X76858118Y-60228571D02*
X76915260Y-60228571D01*
X76915260Y-60228571D02*
X76953356Y-60247619D01*
X76953356Y-60247619D02*
X76972403Y-60266666D01*
X76972403Y-60266666D02*
X76991451Y-60304761D01*
X76991451Y-60304761D02*
X76991451Y-60457142D01*
X76781927Y-60114285D02*
X77181927Y-59980952D01*
X77181927Y-59980952D02*
X76781927Y-59847619D01*
X76781927Y-59638095D02*
X76781927Y-59561904D01*
X76781927Y-59561904D02*
X76800975Y-59523809D01*
X76800975Y-59523809D02*
X76839070Y-59485714D01*
X76839070Y-59485714D02*
X76915260Y-59466666D01*
X76915260Y-59466666D02*
X77048594Y-59466666D01*
X77048594Y-59466666D02*
X77124784Y-59485714D01*
X77124784Y-59485714D02*
X77162880Y-59523809D01*
X77162880Y-59523809D02*
X77181927Y-59561904D01*
X77181927Y-59561904D02*
X77181927Y-59638095D01*
X77181927Y-59638095D02*
X77162880Y-59676190D01*
X77162880Y-59676190D02*
X77124784Y-59714285D01*
X77124784Y-59714285D02*
X77048594Y-59733333D01*
X77048594Y-59733333D02*
X76915260Y-59733333D01*
X76915260Y-59733333D02*
X76839070Y-59714285D01*
X76839070Y-59714285D02*
X76800975Y-59676190D01*
X76800975Y-59676190D02*
X76781927Y-59638095D01*
X77220022Y-59390476D02*
X77220022Y-59085714D01*
X77181927Y-58799999D02*
X77181927Y-58990475D01*
X77181927Y-58990475D02*
X76781927Y-58990475D01*
X76972403Y-58666665D02*
X76972403Y-58533332D01*
X77181927Y-58476189D02*
X77181927Y-58666665D01*
X77181927Y-58666665D02*
X76781927Y-58666665D01*
X76781927Y-58666665D02*
X76781927Y-58476189D01*
X77181927Y-58304760D02*
X76781927Y-58304760D01*
X76781927Y-58304760D02*
X76781927Y-58209522D01*
X76781927Y-58209522D02*
X76800975Y-58152379D01*
X76800975Y-58152379D02*
X76839070Y-58114284D01*
X76839070Y-58114284D02*
X76877165Y-58095237D01*
X76877165Y-58095237D02*
X76953356Y-58076189D01*
X76953356Y-58076189D02*
X77010499Y-58076189D01*
X77010499Y-58076189D02*
X77086689Y-58095237D01*
X77086689Y-58095237D02*
X77124784Y-58114284D01*
X77124784Y-58114284D02*
X77162880Y-58152379D01*
X77162880Y-58152379D02*
X77181927Y-58209522D01*
X77181927Y-58209522D02*
X77181927Y-58304760D01*
D10*
X93238095Y-74454819D02*
X93238095Y-73454819D01*
X93238095Y-73931009D02*
X93809523Y-73931009D01*
X93809523Y-74454819D02*
X93809523Y-73454819D01*
X94714285Y-73788152D02*
X94714285Y-74454819D01*
X94476190Y-73407200D02*
X94238095Y-74121485D01*
X94238095Y-74121485D02*
X94857142Y-74121485D01*
X90539999Y-32454819D02*
X90539999Y-33169104D01*
X90539999Y-33169104D02*
X90492380Y-33311961D01*
X90492380Y-33311961D02*
X90397142Y-33407200D01*
X90397142Y-33407200D02*
X90254285Y-33454819D01*
X90254285Y-33454819D02*
X90159047Y-33454819D01*
X90778095Y-33550057D02*
X91539999Y-33550057D01*
X92254285Y-33454819D02*
X91778095Y-33454819D01*
X91778095Y-33454819D02*
X91778095Y-32454819D01*
X92540000Y-32550057D02*
X92587619Y-32502438D01*
X92587619Y-32502438D02*
X92682857Y-32454819D01*
X92682857Y-32454819D02*
X92920952Y-32454819D01*
X92920952Y-32454819D02*
X93016190Y-32502438D01*
X93016190Y-32502438D02*
X93063809Y-32550057D01*
X93063809Y-32550057D02*
X93111428Y-32645295D01*
X93111428Y-32645295D02*
X93111428Y-32740533D01*
X93111428Y-32740533D02*
X93063809Y-32883390D01*
X93063809Y-32883390D02*
X92492381Y-33454819D01*
X92492381Y-33454819D02*
X93111428Y-33454819D01*
X93301905Y-33550057D02*
X94063809Y-33550057D01*
X94873333Y-33359580D02*
X94825714Y-33407200D01*
X94825714Y-33407200D02*
X94682857Y-33454819D01*
X94682857Y-33454819D02*
X94587619Y-33454819D01*
X94587619Y-33454819D02*
X94444762Y-33407200D01*
X94444762Y-33407200D02*
X94349524Y-33311961D01*
X94349524Y-33311961D02*
X94301905Y-33216723D01*
X94301905Y-33216723D02*
X94254286Y-33026247D01*
X94254286Y-33026247D02*
X94254286Y-32883390D01*
X94254286Y-32883390D02*
X94301905Y-32692914D01*
X94301905Y-32692914D02*
X94349524Y-32597676D01*
X94349524Y-32597676D02*
X94444762Y-32502438D01*
X94444762Y-32502438D02*
X94587619Y-32454819D01*
X94587619Y-32454819D02*
X94682857Y-32454819D01*
X94682857Y-32454819D02*
X94825714Y-32502438D01*
X94825714Y-32502438D02*
X94873333Y-32550057D01*
X60454819Y-75682857D02*
X61169104Y-75682857D01*
X61169104Y-75682857D02*
X61311961Y-75730476D01*
X61311961Y-75730476D02*
X61407200Y-75825714D01*
X61407200Y-75825714D02*
X61454819Y-75968571D01*
X61454819Y-75968571D02*
X61454819Y-76063809D01*
X61550057Y-75444762D02*
X61550057Y-74682857D01*
X61169104Y-74492380D02*
X61169104Y-74016190D01*
X61454819Y-74587618D02*
X60454819Y-74254285D01*
X60454819Y-74254285D02*
X61454819Y-73920952D01*
X60454819Y-73587618D02*
X61264342Y-73587618D01*
X61264342Y-73587618D02*
X61359580Y-73539999D01*
X61359580Y-73539999D02*
X61407200Y-73492380D01*
X61407200Y-73492380D02*
X61454819Y-73397142D01*
X61454819Y-73397142D02*
X61454819Y-73206666D01*
X61454819Y-73206666D02*
X61407200Y-73111428D01*
X61407200Y-73111428D02*
X61359580Y-73063809D01*
X61359580Y-73063809D02*
X61264342Y-73016190D01*
X61264342Y-73016190D02*
X60454819Y-73016190D01*
X60454819Y-72635237D02*
X61454819Y-71968571D01*
X60454819Y-71968571D02*
X61454819Y-72635237D01*
X60788152Y-71159047D02*
X61454819Y-71159047D01*
X60407200Y-71397142D02*
X61121485Y-71635237D01*
X61121485Y-71635237D02*
X61121485Y-71016190D01*
D11*
X62933333Y-12181927D02*
X62800000Y-11991451D01*
X62704762Y-12181927D02*
X62704762Y-11781927D01*
X62704762Y-11781927D02*
X62857143Y-11781927D01*
X62857143Y-11781927D02*
X62895238Y-11800975D01*
X62895238Y-11800975D02*
X62914285Y-11820022D01*
X62914285Y-11820022D02*
X62933333Y-11858118D01*
X62933333Y-11858118D02*
X62933333Y-11915260D01*
X62933333Y-11915260D02*
X62914285Y-11953356D01*
X62914285Y-11953356D02*
X62895238Y-11972403D01*
X62895238Y-11972403D02*
X62857143Y-11991451D01*
X62857143Y-11991451D02*
X62704762Y-11991451D01*
X63085714Y-11820022D02*
X63104762Y-11800975D01*
X63104762Y-11800975D02*
X63142857Y-11781927D01*
X63142857Y-11781927D02*
X63238095Y-11781927D01*
X63238095Y-11781927D02*
X63276190Y-11800975D01*
X63276190Y-11800975D02*
X63295238Y-11820022D01*
X63295238Y-11820022D02*
X63314285Y-11858118D01*
X63314285Y-11858118D02*
X63314285Y-11896213D01*
X63314285Y-11896213D02*
X63295238Y-11953356D01*
X63295238Y-11953356D02*
X63066666Y-12181927D01*
X63066666Y-12181927D02*
X63314285Y-12181927D01*
D10*
X90611428Y-36954819D02*
X90611428Y-37669104D01*
X90611428Y-37669104D02*
X90563809Y-37811961D01*
X90563809Y-37811961D02*
X90468571Y-37907200D01*
X90468571Y-37907200D02*
X90325714Y-37954819D01*
X90325714Y-37954819D02*
X90230476Y-37954819D01*
X90849524Y-38050057D02*
X91611428Y-38050057D01*
X92325714Y-37954819D02*
X91849524Y-37954819D01*
X91849524Y-37954819D02*
X91849524Y-36954819D01*
X92611429Y-37050057D02*
X92659048Y-37002438D01*
X92659048Y-37002438D02*
X92754286Y-36954819D01*
X92754286Y-36954819D02*
X92992381Y-36954819D01*
X92992381Y-36954819D02*
X93087619Y-37002438D01*
X93087619Y-37002438D02*
X93135238Y-37050057D01*
X93135238Y-37050057D02*
X93182857Y-37145295D01*
X93182857Y-37145295D02*
X93182857Y-37240533D01*
X93182857Y-37240533D02*
X93135238Y-37383390D01*
X93135238Y-37383390D02*
X92563810Y-37954819D01*
X92563810Y-37954819D02*
X93182857Y-37954819D01*
X93373334Y-38050057D02*
X94135238Y-38050057D01*
X94706667Y-37431009D02*
X94373334Y-37431009D01*
X94373334Y-37954819D02*
X94373334Y-36954819D01*
X94373334Y-36954819D02*
X94849524Y-36954819D01*
D11*
X63580952Y-27181927D02*
X63447619Y-26991451D01*
X63352381Y-27181927D02*
X63352381Y-26781927D01*
X63352381Y-26781927D02*
X63504762Y-26781927D01*
X63504762Y-26781927D02*
X63542857Y-26800975D01*
X63542857Y-26800975D02*
X63561904Y-26820022D01*
X63561904Y-26820022D02*
X63580952Y-26858118D01*
X63580952Y-26858118D02*
X63580952Y-26915260D01*
X63580952Y-26915260D02*
X63561904Y-26953356D01*
X63561904Y-26953356D02*
X63542857Y-26972403D01*
X63542857Y-26972403D02*
X63504762Y-26991451D01*
X63504762Y-26991451D02*
X63352381Y-26991451D01*
X63657143Y-27220022D02*
X63961904Y-27220022D01*
X64190476Y-26972403D02*
X64247619Y-26991451D01*
X64247619Y-26991451D02*
X64266666Y-27010499D01*
X64266666Y-27010499D02*
X64285714Y-27048594D01*
X64285714Y-27048594D02*
X64285714Y-27105737D01*
X64285714Y-27105737D02*
X64266666Y-27143832D01*
X64266666Y-27143832D02*
X64247619Y-27162880D01*
X64247619Y-27162880D02*
X64209524Y-27181927D01*
X64209524Y-27181927D02*
X64057143Y-27181927D01*
X64057143Y-27181927D02*
X64057143Y-26781927D01*
X64057143Y-26781927D02*
X64190476Y-26781927D01*
X64190476Y-26781927D02*
X64228571Y-26800975D01*
X64228571Y-26800975D02*
X64247619Y-26820022D01*
X64247619Y-26820022D02*
X64266666Y-26858118D01*
X64266666Y-26858118D02*
X64266666Y-26896213D01*
X64266666Y-26896213D02*
X64247619Y-26934308D01*
X64247619Y-26934308D02*
X64228571Y-26953356D01*
X64228571Y-26953356D02*
X64190476Y-26972403D01*
X64190476Y-26972403D02*
X64057143Y-26972403D01*
X64419047Y-26781927D02*
X64685714Y-26781927D01*
X64685714Y-26781927D02*
X64419047Y-27181927D01*
X64419047Y-27181927D02*
X64685714Y-27181927D01*
X33933333Y-30143832D02*
X33914285Y-30162880D01*
X33914285Y-30162880D02*
X33857143Y-30181927D01*
X33857143Y-30181927D02*
X33819047Y-30181927D01*
X33819047Y-30181927D02*
X33761904Y-30162880D01*
X33761904Y-30162880D02*
X33723809Y-30124784D01*
X33723809Y-30124784D02*
X33704762Y-30086689D01*
X33704762Y-30086689D02*
X33685714Y-30010499D01*
X33685714Y-30010499D02*
X33685714Y-29953356D01*
X33685714Y-29953356D02*
X33704762Y-29877165D01*
X33704762Y-29877165D02*
X33723809Y-29839070D01*
X33723809Y-29839070D02*
X33761904Y-29800975D01*
X33761904Y-29800975D02*
X33819047Y-29781927D01*
X33819047Y-29781927D02*
X33857143Y-29781927D01*
X33857143Y-29781927D02*
X33914285Y-29800975D01*
X33914285Y-29800975D02*
X33933333Y-29820022D01*
X34066666Y-29781927D02*
X34314285Y-29781927D01*
X34314285Y-29781927D02*
X34180952Y-29934308D01*
X34180952Y-29934308D02*
X34238095Y-29934308D01*
X34238095Y-29934308D02*
X34276190Y-29953356D01*
X34276190Y-29953356D02*
X34295238Y-29972403D01*
X34295238Y-29972403D02*
X34314285Y-30010499D01*
X34314285Y-30010499D02*
X34314285Y-30105737D01*
X34314285Y-30105737D02*
X34295238Y-30143832D01*
X34295238Y-30143832D02*
X34276190Y-30162880D01*
X34276190Y-30162880D02*
X34238095Y-30181927D01*
X34238095Y-30181927D02*
X34123809Y-30181927D01*
X34123809Y-30181927D02*
X34085714Y-30162880D01*
X34085714Y-30162880D02*
X34066666Y-30143832D01*
X82723809Y-31181927D02*
X82590476Y-30991451D01*
X82495238Y-31181927D02*
X82495238Y-30781927D01*
X82495238Y-30781927D02*
X82647619Y-30781927D01*
X82647619Y-30781927D02*
X82685714Y-30800975D01*
X82685714Y-30800975D02*
X82704761Y-30820022D01*
X82704761Y-30820022D02*
X82723809Y-30858118D01*
X82723809Y-30858118D02*
X82723809Y-30915260D01*
X82723809Y-30915260D02*
X82704761Y-30953356D01*
X82704761Y-30953356D02*
X82685714Y-30972403D01*
X82685714Y-30972403D02*
X82647619Y-30991451D01*
X82647619Y-30991451D02*
X82495238Y-30991451D01*
X82800000Y-31220022D02*
X83104761Y-31220022D01*
X83161904Y-30781927D02*
X83409523Y-30781927D01*
X83409523Y-30781927D02*
X83276190Y-30934308D01*
X83276190Y-30934308D02*
X83333333Y-30934308D01*
X83333333Y-30934308D02*
X83371428Y-30953356D01*
X83371428Y-30953356D02*
X83390476Y-30972403D01*
X83390476Y-30972403D02*
X83409523Y-31010499D01*
X83409523Y-31010499D02*
X83409523Y-31105737D01*
X83409523Y-31105737D02*
X83390476Y-31143832D01*
X83390476Y-31143832D02*
X83371428Y-31162880D01*
X83371428Y-31162880D02*
X83333333Y-31181927D01*
X83333333Y-31181927D02*
X83219047Y-31181927D01*
X83219047Y-31181927D02*
X83180952Y-31162880D01*
X83180952Y-31162880D02*
X83161904Y-31143832D01*
X83523809Y-30781927D02*
X83657142Y-31181927D01*
X83657142Y-31181927D02*
X83790475Y-30781927D01*
X83885713Y-30781927D02*
X84133332Y-30781927D01*
X84133332Y-30781927D02*
X83999999Y-30934308D01*
X83999999Y-30934308D02*
X84057142Y-30934308D01*
X84057142Y-30934308D02*
X84095237Y-30953356D01*
X84095237Y-30953356D02*
X84114285Y-30972403D01*
X84114285Y-30972403D02*
X84133332Y-31010499D01*
X84133332Y-31010499D02*
X84133332Y-31105737D01*
X84133332Y-31105737D02*
X84114285Y-31143832D01*
X84114285Y-31143832D02*
X84095237Y-31162880D01*
X84095237Y-31162880D02*
X84057142Y-31181927D01*
X84057142Y-31181927D02*
X83942856Y-31181927D01*
X83942856Y-31181927D02*
X83904761Y-31162880D01*
X83904761Y-31162880D02*
X83885713Y-31143832D01*
X84209523Y-31220022D02*
X84514284Y-31220022D01*
X84799999Y-31181927D02*
X84609523Y-31181927D01*
X84609523Y-31181927D02*
X84609523Y-30781927D01*
X84933333Y-30972403D02*
X85066666Y-30972403D01*
X85123809Y-31181927D02*
X84933333Y-31181927D01*
X84933333Y-31181927D02*
X84933333Y-30781927D01*
X84933333Y-30781927D02*
X85123809Y-30781927D01*
X85295238Y-31181927D02*
X85295238Y-30781927D01*
X85295238Y-30781927D02*
X85390476Y-30781927D01*
X85390476Y-30781927D02*
X85447619Y-30800975D01*
X85447619Y-30800975D02*
X85485714Y-30839070D01*
X85485714Y-30839070D02*
X85504761Y-30877165D01*
X85504761Y-30877165D02*
X85523809Y-30953356D01*
X85523809Y-30953356D02*
X85523809Y-31010499D01*
X85523809Y-31010499D02*
X85504761Y-31086689D01*
X85504761Y-31086689D02*
X85485714Y-31124784D01*
X85485714Y-31124784D02*
X85447619Y-31162880D01*
X85447619Y-31162880D02*
X85390476Y-31181927D01*
X85390476Y-31181927D02*
X85295238Y-31181927D01*
X22709524Y-30643832D02*
X22690476Y-30662880D01*
X22690476Y-30662880D02*
X22633334Y-30681927D01*
X22633334Y-30681927D02*
X22595238Y-30681927D01*
X22595238Y-30681927D02*
X22538095Y-30662880D01*
X22538095Y-30662880D02*
X22500000Y-30624784D01*
X22500000Y-30624784D02*
X22480953Y-30586689D01*
X22480953Y-30586689D02*
X22461905Y-30510499D01*
X22461905Y-30510499D02*
X22461905Y-30453356D01*
X22461905Y-30453356D02*
X22480953Y-30377165D01*
X22480953Y-30377165D02*
X22500000Y-30339070D01*
X22500000Y-30339070D02*
X22538095Y-30300975D01*
X22538095Y-30300975D02*
X22595238Y-30281927D01*
X22595238Y-30281927D02*
X22633334Y-30281927D01*
X22633334Y-30281927D02*
X22690476Y-30300975D01*
X22690476Y-30300975D02*
X22709524Y-30320022D01*
X22785715Y-30720022D02*
X23090476Y-30720022D01*
X23185715Y-30681927D02*
X23185715Y-30281927D01*
X23185715Y-30281927D02*
X23338096Y-30281927D01*
X23338096Y-30281927D02*
X23376191Y-30300975D01*
X23376191Y-30300975D02*
X23395238Y-30320022D01*
X23395238Y-30320022D02*
X23414286Y-30358118D01*
X23414286Y-30358118D02*
X23414286Y-30415260D01*
X23414286Y-30415260D02*
X23395238Y-30453356D01*
X23395238Y-30453356D02*
X23376191Y-30472403D01*
X23376191Y-30472403D02*
X23338096Y-30491451D01*
X23338096Y-30491451D02*
X23185715Y-30491451D01*
X23814286Y-30643832D02*
X23795238Y-30662880D01*
X23795238Y-30662880D02*
X23738096Y-30681927D01*
X23738096Y-30681927D02*
X23700000Y-30681927D01*
X23700000Y-30681927D02*
X23642857Y-30662880D01*
X23642857Y-30662880D02*
X23604762Y-30624784D01*
X23604762Y-30624784D02*
X23585715Y-30586689D01*
X23585715Y-30586689D02*
X23566667Y-30510499D01*
X23566667Y-30510499D02*
X23566667Y-30453356D01*
X23566667Y-30453356D02*
X23585715Y-30377165D01*
X23585715Y-30377165D02*
X23604762Y-30339070D01*
X23604762Y-30339070D02*
X23642857Y-30300975D01*
X23642857Y-30300975D02*
X23700000Y-30281927D01*
X23700000Y-30281927D02*
X23738096Y-30281927D01*
X23738096Y-30281927D02*
X23795238Y-30300975D01*
X23795238Y-30300975D02*
X23814286Y-30320022D01*
X23966667Y-30567641D02*
X24157143Y-30567641D01*
X23928572Y-30681927D02*
X24061905Y-30281927D01*
X24061905Y-30281927D02*
X24195238Y-30681927D01*
X24538095Y-30681927D02*
X24309524Y-30681927D01*
X24423810Y-30681927D02*
X24423810Y-30281927D01*
X24423810Y-30281927D02*
X24385714Y-30339070D01*
X24385714Y-30339070D02*
X24347619Y-30377165D01*
X24347619Y-30377165D02*
X24309524Y-30396213D01*
X70209523Y-62143832D02*
X70190475Y-62162880D01*
X70190475Y-62162880D02*
X70133333Y-62181927D01*
X70133333Y-62181927D02*
X70095237Y-62181927D01*
X70095237Y-62181927D02*
X70038094Y-62162880D01*
X70038094Y-62162880D02*
X69999999Y-62124784D01*
X69999999Y-62124784D02*
X69980952Y-62086689D01*
X69980952Y-62086689D02*
X69961904Y-62010499D01*
X69961904Y-62010499D02*
X69961904Y-61953356D01*
X69961904Y-61953356D02*
X69980952Y-61877165D01*
X69980952Y-61877165D02*
X69999999Y-61839070D01*
X69999999Y-61839070D02*
X70038094Y-61800975D01*
X70038094Y-61800975D02*
X70095237Y-61781927D01*
X70095237Y-61781927D02*
X70133333Y-61781927D01*
X70133333Y-61781927D02*
X70190475Y-61800975D01*
X70190475Y-61800975D02*
X70209523Y-61820022D01*
X70285714Y-62220022D02*
X70590475Y-62220022D01*
X70761904Y-61781927D02*
X70838095Y-61781927D01*
X70838095Y-61781927D02*
X70876190Y-61800975D01*
X70876190Y-61800975D02*
X70914285Y-61839070D01*
X70914285Y-61839070D02*
X70933333Y-61915260D01*
X70933333Y-61915260D02*
X70933333Y-62048594D01*
X70933333Y-62048594D02*
X70914285Y-62124784D01*
X70914285Y-62124784D02*
X70876190Y-62162880D01*
X70876190Y-62162880D02*
X70838095Y-62181927D01*
X70838095Y-62181927D02*
X70761904Y-62181927D01*
X70761904Y-62181927D02*
X70723809Y-62162880D01*
X70723809Y-62162880D02*
X70685714Y-62124784D01*
X70685714Y-62124784D02*
X70666666Y-62048594D01*
X70666666Y-62048594D02*
X70666666Y-61915260D01*
X70666666Y-61915260D02*
X70685714Y-61839070D01*
X70685714Y-61839070D02*
X70723809Y-61800975D01*
X70723809Y-61800975D02*
X70761904Y-61781927D01*
X71104762Y-61781927D02*
X71104762Y-62105737D01*
X71104762Y-62105737D02*
X71123809Y-62143832D01*
X71123809Y-62143832D02*
X71142857Y-62162880D01*
X71142857Y-62162880D02*
X71180952Y-62181927D01*
X71180952Y-62181927D02*
X71257143Y-62181927D01*
X71257143Y-62181927D02*
X71295238Y-62162880D01*
X71295238Y-62162880D02*
X71314285Y-62143832D01*
X71314285Y-62143832D02*
X71333333Y-62105737D01*
X71333333Y-62105737D02*
X71333333Y-61781927D01*
X71466667Y-61781927D02*
X71695238Y-61781927D01*
X71580952Y-62181927D02*
X71580952Y-61781927D01*
X71790476Y-61781927D02*
X72038095Y-61781927D01*
X72038095Y-61781927D02*
X71904762Y-61934308D01*
X71904762Y-61934308D02*
X71961905Y-61934308D01*
X71961905Y-61934308D02*
X72000000Y-61953356D01*
X72000000Y-61953356D02*
X72019048Y-61972403D01*
X72019048Y-61972403D02*
X72038095Y-62010499D01*
X72038095Y-62010499D02*
X72038095Y-62105737D01*
X72038095Y-62105737D02*
X72019048Y-62143832D01*
X72019048Y-62143832D02*
X72000000Y-62162880D01*
X72000000Y-62162880D02*
X71961905Y-62181927D01*
X71961905Y-62181927D02*
X71847619Y-62181927D01*
X71847619Y-62181927D02*
X71809524Y-62162880D01*
X71809524Y-62162880D02*
X71790476Y-62143832D01*
D13*
X71107143Y-10179530D02*
X71083334Y-10203340D01*
X71083334Y-10203340D02*
X71011905Y-10227149D01*
X71011905Y-10227149D02*
X70964286Y-10227149D01*
X70964286Y-10227149D02*
X70892858Y-10203340D01*
X70892858Y-10203340D02*
X70845239Y-10155720D01*
X70845239Y-10155720D02*
X70821429Y-10108101D01*
X70821429Y-10108101D02*
X70797620Y-10012863D01*
X70797620Y-10012863D02*
X70797620Y-9941435D01*
X70797620Y-9941435D02*
X70821429Y-9846197D01*
X70821429Y-9846197D02*
X70845239Y-9798578D01*
X70845239Y-9798578D02*
X70892858Y-9750959D01*
X70892858Y-9750959D02*
X70964286Y-9727149D01*
X70964286Y-9727149D02*
X71011905Y-9727149D01*
X71011905Y-9727149D02*
X71083334Y-9750959D01*
X71083334Y-9750959D02*
X71107143Y-9774768D01*
X71202382Y-10274768D02*
X71583334Y-10274768D01*
X71702381Y-10227149D02*
X71702381Y-9727149D01*
X71916667Y-10203340D02*
X71988095Y-10227149D01*
X71988095Y-10227149D02*
X72107143Y-10227149D01*
X72107143Y-10227149D02*
X72154762Y-10203340D01*
X72154762Y-10203340D02*
X72178571Y-10179530D01*
X72178571Y-10179530D02*
X72202381Y-10131911D01*
X72202381Y-10131911D02*
X72202381Y-10084292D01*
X72202381Y-10084292D02*
X72178571Y-10036673D01*
X72178571Y-10036673D02*
X72154762Y-10012863D01*
X72154762Y-10012863D02*
X72107143Y-9989054D01*
X72107143Y-9989054D02*
X72011905Y-9965244D01*
X72011905Y-9965244D02*
X71964286Y-9941435D01*
X71964286Y-9941435D02*
X71940476Y-9917625D01*
X71940476Y-9917625D02*
X71916667Y-9870006D01*
X71916667Y-9870006D02*
X71916667Y-9822387D01*
X71916667Y-9822387D02*
X71940476Y-9774768D01*
X71940476Y-9774768D02*
X71964286Y-9750959D01*
X71964286Y-9750959D02*
X72011905Y-9727149D01*
X72011905Y-9727149D02*
X72130952Y-9727149D01*
X72130952Y-9727149D02*
X72202381Y-9750959D01*
X72511904Y-9727149D02*
X72607142Y-9727149D01*
X72607142Y-9727149D02*
X72654761Y-9750959D01*
X72654761Y-9750959D02*
X72702380Y-9798578D01*
X72702380Y-9798578D02*
X72726190Y-9893816D01*
X72726190Y-9893816D02*
X72726190Y-10060482D01*
X72726190Y-10060482D02*
X72702380Y-10155720D01*
X72702380Y-10155720D02*
X72654761Y-10203340D01*
X72654761Y-10203340D02*
X72607142Y-10227149D01*
X72607142Y-10227149D02*
X72511904Y-10227149D01*
X72511904Y-10227149D02*
X72464285Y-10203340D01*
X72464285Y-10203340D02*
X72416666Y-10155720D01*
X72416666Y-10155720D02*
X72392857Y-10060482D01*
X72392857Y-10060482D02*
X72392857Y-9893816D01*
X72392857Y-9893816D02*
X72416666Y-9798578D01*
X72416666Y-9798578D02*
X72464285Y-9750959D01*
X72464285Y-9750959D02*
X72511904Y-9727149D01*
X72916667Y-9774768D02*
X72940476Y-9750959D01*
X72940476Y-9750959D02*
X72988095Y-9727149D01*
X72988095Y-9727149D02*
X73107143Y-9727149D01*
X73107143Y-9727149D02*
X73154762Y-9750959D01*
X73154762Y-9750959D02*
X73178571Y-9774768D01*
X73178571Y-9774768D02*
X73202381Y-9822387D01*
X73202381Y-9822387D02*
X73202381Y-9870006D01*
X73202381Y-9870006D02*
X73178571Y-9941435D01*
X73178571Y-9941435D02*
X72892857Y-10227149D01*
X72892857Y-10227149D02*
X73202381Y-10227149D01*
D10*
X10611428Y-18954819D02*
X10611428Y-19669104D01*
X10611428Y-19669104D02*
X10563809Y-19811961D01*
X10563809Y-19811961D02*
X10468571Y-19907200D01*
X10468571Y-19907200D02*
X10325714Y-19954819D01*
X10325714Y-19954819D02*
X10230476Y-19954819D01*
X10849524Y-20050057D02*
X11611428Y-20050057D01*
X12325714Y-19954819D02*
X11849524Y-19954819D01*
X11849524Y-19954819D02*
X11849524Y-18954819D01*
X13087619Y-19288152D02*
X13087619Y-19954819D01*
X12849524Y-18907200D02*
X12611429Y-19621485D01*
X12611429Y-19621485D02*
X13230476Y-19621485D01*
X13373334Y-20050057D02*
X14135238Y-20050057D01*
X14706667Y-19431009D02*
X14373334Y-19431009D01*
X14373334Y-19954819D02*
X14373334Y-18954819D01*
X14373334Y-18954819D02*
X14849524Y-18954819D01*
D11*
X30757143Y-11643832D02*
X30738095Y-11662880D01*
X30738095Y-11662880D02*
X30680953Y-11681927D01*
X30680953Y-11681927D02*
X30642857Y-11681927D01*
X30642857Y-11681927D02*
X30585714Y-11662880D01*
X30585714Y-11662880D02*
X30547619Y-11624784D01*
X30547619Y-11624784D02*
X30528572Y-11586689D01*
X30528572Y-11586689D02*
X30509524Y-11510499D01*
X30509524Y-11510499D02*
X30509524Y-11453356D01*
X30509524Y-11453356D02*
X30528572Y-11377165D01*
X30528572Y-11377165D02*
X30547619Y-11339070D01*
X30547619Y-11339070D02*
X30585714Y-11300975D01*
X30585714Y-11300975D02*
X30642857Y-11281927D01*
X30642857Y-11281927D02*
X30680953Y-11281927D01*
X30680953Y-11281927D02*
X30738095Y-11300975D01*
X30738095Y-11300975D02*
X30757143Y-11320022D01*
X30833334Y-11720022D02*
X31138095Y-11720022D01*
X31366667Y-11472403D02*
X31423810Y-11491451D01*
X31423810Y-11491451D02*
X31442857Y-11510499D01*
X31442857Y-11510499D02*
X31461905Y-11548594D01*
X31461905Y-11548594D02*
X31461905Y-11605737D01*
X31461905Y-11605737D02*
X31442857Y-11643832D01*
X31442857Y-11643832D02*
X31423810Y-11662880D01*
X31423810Y-11662880D02*
X31385715Y-11681927D01*
X31385715Y-11681927D02*
X31233334Y-11681927D01*
X31233334Y-11681927D02*
X31233334Y-11281927D01*
X31233334Y-11281927D02*
X31366667Y-11281927D01*
X31366667Y-11281927D02*
X31404762Y-11300975D01*
X31404762Y-11300975D02*
X31423810Y-11320022D01*
X31423810Y-11320022D02*
X31442857Y-11358118D01*
X31442857Y-11358118D02*
X31442857Y-11396213D01*
X31442857Y-11396213D02*
X31423810Y-11434308D01*
X31423810Y-11434308D02*
X31404762Y-11453356D01*
X31404762Y-11453356D02*
X31366667Y-11472403D01*
X31366667Y-11472403D02*
X31233334Y-11472403D01*
X31614286Y-11567641D02*
X31804762Y-11567641D01*
X31576191Y-11681927D02*
X31709524Y-11281927D01*
X31709524Y-11281927D02*
X31842857Y-11681927D01*
X31919048Y-11281927D02*
X32147619Y-11281927D01*
X32033333Y-11681927D02*
X32033333Y-11281927D01*
X32261905Y-11320022D02*
X32280953Y-11300975D01*
X32280953Y-11300975D02*
X32319048Y-11281927D01*
X32319048Y-11281927D02*
X32414286Y-11281927D01*
X32414286Y-11281927D02*
X32452381Y-11300975D01*
X32452381Y-11300975D02*
X32471429Y-11320022D01*
X32471429Y-11320022D02*
X32490476Y-11358118D01*
X32490476Y-11358118D02*
X32490476Y-11396213D01*
X32490476Y-11396213D02*
X32471429Y-11453356D01*
X32471429Y-11453356D02*
X32242857Y-11681927D01*
X32242857Y-11681927D02*
X32490476Y-11681927D01*
D10*
X70119048Y-4454819D02*
X70119048Y-3454819D01*
X70119048Y-3454819D02*
X70357143Y-3454819D01*
X70357143Y-3454819D02*
X70500000Y-3502438D01*
X70500000Y-3502438D02*
X70595238Y-3597676D01*
X70595238Y-3597676D02*
X70642857Y-3692914D01*
X70642857Y-3692914D02*
X70690476Y-3883390D01*
X70690476Y-3883390D02*
X70690476Y-4026247D01*
X70690476Y-4026247D02*
X70642857Y-4216723D01*
X70642857Y-4216723D02*
X70595238Y-4311961D01*
X70595238Y-4311961D02*
X70500000Y-4407200D01*
X70500000Y-4407200D02*
X70357143Y-4454819D01*
X70357143Y-4454819D02*
X70119048Y-4454819D01*
X70880953Y-4550057D02*
X71642857Y-4550057D01*
X71880953Y-4454819D02*
X71880953Y-3454819D01*
X72309524Y-4407200D02*
X72452381Y-4454819D01*
X72452381Y-4454819D02*
X72690476Y-4454819D01*
X72690476Y-4454819D02*
X72785714Y-4407200D01*
X72785714Y-4407200D02*
X72833333Y-4359580D01*
X72833333Y-4359580D02*
X72880952Y-4264342D01*
X72880952Y-4264342D02*
X72880952Y-4169104D01*
X72880952Y-4169104D02*
X72833333Y-4073866D01*
X72833333Y-4073866D02*
X72785714Y-4026247D01*
X72785714Y-4026247D02*
X72690476Y-3978628D01*
X72690476Y-3978628D02*
X72500000Y-3931009D01*
X72500000Y-3931009D02*
X72404762Y-3883390D01*
X72404762Y-3883390D02*
X72357143Y-3835771D01*
X72357143Y-3835771D02*
X72309524Y-3740533D01*
X72309524Y-3740533D02*
X72309524Y-3645295D01*
X72309524Y-3645295D02*
X72357143Y-3550057D01*
X72357143Y-3550057D02*
X72404762Y-3502438D01*
X72404762Y-3502438D02*
X72500000Y-3454819D01*
X72500000Y-3454819D02*
X72738095Y-3454819D01*
X72738095Y-3454819D02*
X72880952Y-3502438D01*
X73500000Y-3454819D02*
X73690476Y-3454819D01*
X73690476Y-3454819D02*
X73785714Y-3502438D01*
X73785714Y-3502438D02*
X73880952Y-3597676D01*
X73880952Y-3597676D02*
X73928571Y-3788152D01*
X73928571Y-3788152D02*
X73928571Y-4121485D01*
X73928571Y-4121485D02*
X73880952Y-4311961D01*
X73880952Y-4311961D02*
X73785714Y-4407200D01*
X73785714Y-4407200D02*
X73690476Y-4454819D01*
X73690476Y-4454819D02*
X73500000Y-4454819D01*
X73500000Y-4454819D02*
X73404762Y-4407200D01*
X73404762Y-4407200D02*
X73309524Y-4311961D01*
X73309524Y-4311961D02*
X73261905Y-4121485D01*
X73261905Y-4121485D02*
X73261905Y-3788152D01*
X73261905Y-3788152D02*
X73309524Y-3597676D01*
X73309524Y-3597676D02*
X73404762Y-3502438D01*
X73404762Y-3502438D02*
X73500000Y-3454819D01*
X93238095Y-6454819D02*
X93238095Y-5454819D01*
X93238095Y-5931009D02*
X93809523Y-5931009D01*
X93809523Y-6454819D02*
X93809523Y-5454819D01*
X94238095Y-5550057D02*
X94285714Y-5502438D01*
X94285714Y-5502438D02*
X94380952Y-5454819D01*
X94380952Y-5454819D02*
X94619047Y-5454819D01*
X94619047Y-5454819D02*
X94714285Y-5502438D01*
X94714285Y-5502438D02*
X94761904Y-5550057D01*
X94761904Y-5550057D02*
X94809523Y-5645295D01*
X94809523Y-5645295D02*
X94809523Y-5740533D01*
X94809523Y-5740533D02*
X94761904Y-5883390D01*
X94761904Y-5883390D02*
X94190476Y-6454819D01*
X94190476Y-6454819D02*
X94809523Y-6454819D01*
X11417200Y-69819523D02*
X11464819Y-69676666D01*
X11464819Y-69676666D02*
X11464819Y-69438571D01*
X11464819Y-69438571D02*
X11417200Y-69343333D01*
X11417200Y-69343333D02*
X11369580Y-69295714D01*
X11369580Y-69295714D02*
X11274342Y-69248095D01*
X11274342Y-69248095D02*
X11179104Y-69248095D01*
X11179104Y-69248095D02*
X11083866Y-69295714D01*
X11083866Y-69295714D02*
X11036247Y-69343333D01*
X11036247Y-69343333D02*
X10988628Y-69438571D01*
X10988628Y-69438571D02*
X10941009Y-69629047D01*
X10941009Y-69629047D02*
X10893390Y-69724285D01*
X10893390Y-69724285D02*
X10845771Y-69771904D01*
X10845771Y-69771904D02*
X10750533Y-69819523D01*
X10750533Y-69819523D02*
X10655295Y-69819523D01*
X10655295Y-69819523D02*
X10560057Y-69771904D01*
X10560057Y-69771904D02*
X10512438Y-69724285D01*
X10512438Y-69724285D02*
X10464819Y-69629047D01*
X10464819Y-69629047D02*
X10464819Y-69390952D01*
X10464819Y-69390952D02*
X10512438Y-69248095D01*
X10464819Y-68914761D02*
X11464819Y-68676666D01*
X11464819Y-68676666D02*
X10750533Y-68486190D01*
X10750533Y-68486190D02*
X11464819Y-68295714D01*
X11464819Y-68295714D02*
X10464819Y-68057619D01*
X11560057Y-67914762D02*
X11560057Y-67152857D01*
X11464819Y-66914761D02*
X10464819Y-66914761D01*
X10464819Y-66914761D02*
X10464819Y-66533809D01*
X10464819Y-66533809D02*
X10512438Y-66438571D01*
X10512438Y-66438571D02*
X10560057Y-66390952D01*
X10560057Y-66390952D02*
X10655295Y-66343333D01*
X10655295Y-66343333D02*
X10798152Y-66343333D01*
X10798152Y-66343333D02*
X10893390Y-66390952D01*
X10893390Y-66390952D02*
X10941009Y-66438571D01*
X10941009Y-66438571D02*
X10988628Y-66533809D01*
X10988628Y-66533809D02*
X10988628Y-66914761D01*
X10464819Y-66009999D02*
X11464819Y-65771904D01*
X11464819Y-65771904D02*
X10750533Y-65581428D01*
X10750533Y-65581428D02*
X11464819Y-65390952D01*
X11464819Y-65390952D02*
X10464819Y-65152857D01*
X11464819Y-64200476D02*
X10988628Y-64533809D01*
X11464819Y-64771904D02*
X10464819Y-64771904D01*
X10464819Y-64771904D02*
X10464819Y-64390952D01*
X10464819Y-64390952D02*
X10512438Y-64295714D01*
X10512438Y-64295714D02*
X10560057Y-64248095D01*
X10560057Y-64248095D02*
X10655295Y-64200476D01*
X10655295Y-64200476D02*
X10798152Y-64200476D01*
X10798152Y-64200476D02*
X10893390Y-64248095D01*
X10893390Y-64248095D02*
X10941009Y-64295714D01*
X10941009Y-64295714D02*
X10988628Y-64390952D01*
X10988628Y-64390952D02*
X10988628Y-64771904D01*
X60666667Y-6407200D02*
X60809524Y-6454819D01*
X60809524Y-6454819D02*
X61047619Y-6454819D01*
X61047619Y-6454819D02*
X61142857Y-6407200D01*
X61142857Y-6407200D02*
X61190476Y-6359580D01*
X61190476Y-6359580D02*
X61238095Y-6264342D01*
X61238095Y-6264342D02*
X61238095Y-6169104D01*
X61238095Y-6169104D02*
X61190476Y-6073866D01*
X61190476Y-6073866D02*
X61142857Y-6026247D01*
X61142857Y-6026247D02*
X61047619Y-5978628D01*
X61047619Y-5978628D02*
X60857143Y-5931009D01*
X60857143Y-5931009D02*
X60761905Y-5883390D01*
X60761905Y-5883390D02*
X60714286Y-5835771D01*
X60714286Y-5835771D02*
X60666667Y-5740533D01*
X60666667Y-5740533D02*
X60666667Y-5645295D01*
X60666667Y-5645295D02*
X60714286Y-5550057D01*
X60714286Y-5550057D02*
X60761905Y-5502438D01*
X60761905Y-5502438D02*
X60857143Y-5454819D01*
X60857143Y-5454819D02*
X61095238Y-5454819D01*
X61095238Y-5454819D02*
X61238095Y-5502438D01*
X61571429Y-5454819D02*
X61809524Y-6454819D01*
X61809524Y-6454819D02*
X62000000Y-5740533D01*
X62000000Y-5740533D02*
X62190476Y-6454819D01*
X62190476Y-6454819D02*
X62428572Y-5454819D01*
X62761905Y-5550057D02*
X62809524Y-5502438D01*
X62809524Y-5502438D02*
X62904762Y-5454819D01*
X62904762Y-5454819D02*
X63142857Y-5454819D01*
X63142857Y-5454819D02*
X63238095Y-5502438D01*
X63238095Y-5502438D02*
X63285714Y-5550057D01*
X63285714Y-5550057D02*
X63333333Y-5645295D01*
X63333333Y-5645295D02*
X63333333Y-5740533D01*
X63333333Y-5740533D02*
X63285714Y-5883390D01*
X63285714Y-5883390D02*
X62714286Y-6454819D01*
X62714286Y-6454819D02*
X63333333Y-6454819D01*
X90659047Y-41454819D02*
X90659047Y-42169104D01*
X90659047Y-42169104D02*
X90611428Y-42311961D01*
X90611428Y-42311961D02*
X90516190Y-42407200D01*
X90516190Y-42407200D02*
X90373333Y-42454819D01*
X90373333Y-42454819D02*
X90278095Y-42454819D01*
X90897143Y-42550057D02*
X91659047Y-42550057D01*
X92373333Y-42454819D02*
X91897143Y-42454819D01*
X91897143Y-42454819D02*
X91897143Y-41454819D01*
X92659048Y-41550057D02*
X92706667Y-41502438D01*
X92706667Y-41502438D02*
X92801905Y-41454819D01*
X92801905Y-41454819D02*
X93040000Y-41454819D01*
X93040000Y-41454819D02*
X93135238Y-41502438D01*
X93135238Y-41502438D02*
X93182857Y-41550057D01*
X93182857Y-41550057D02*
X93230476Y-41645295D01*
X93230476Y-41645295D02*
X93230476Y-41740533D01*
X93230476Y-41740533D02*
X93182857Y-41883390D01*
X93182857Y-41883390D02*
X92611429Y-42454819D01*
X92611429Y-42454819D02*
X93230476Y-42454819D01*
X93420953Y-42550057D02*
X94182857Y-42550057D01*
X94278096Y-41454819D02*
X94849524Y-41454819D01*
X94563810Y-42454819D02*
X94563810Y-41454819D01*
X90539999Y-14454819D02*
X90539999Y-15169104D01*
X90539999Y-15169104D02*
X90492380Y-15311961D01*
X90492380Y-15311961D02*
X90397142Y-15407200D01*
X90397142Y-15407200D02*
X90254285Y-15454819D01*
X90254285Y-15454819D02*
X90159047Y-15454819D01*
X90778095Y-15550057D02*
X91539999Y-15550057D01*
X92254285Y-15454819D02*
X91778095Y-15454819D01*
X91778095Y-15454819D02*
X91778095Y-14454819D01*
X93111428Y-15454819D02*
X92540000Y-15454819D01*
X92825714Y-15454819D02*
X92825714Y-14454819D01*
X92825714Y-14454819D02*
X92730476Y-14597676D01*
X92730476Y-14597676D02*
X92635238Y-14692914D01*
X92635238Y-14692914D02*
X92540000Y-14740533D01*
X93301905Y-15550057D02*
X94063809Y-15550057D01*
X94873333Y-15359580D02*
X94825714Y-15407200D01*
X94825714Y-15407200D02*
X94682857Y-15454819D01*
X94682857Y-15454819D02*
X94587619Y-15454819D01*
X94587619Y-15454819D02*
X94444762Y-15407200D01*
X94444762Y-15407200D02*
X94349524Y-15311961D01*
X94349524Y-15311961D02*
X94301905Y-15216723D01*
X94301905Y-15216723D02*
X94254286Y-15026247D01*
X94254286Y-15026247D02*
X94254286Y-14883390D01*
X94254286Y-14883390D02*
X94301905Y-14692914D01*
X94301905Y-14692914D02*
X94349524Y-14597676D01*
X94349524Y-14597676D02*
X94444762Y-14502438D01*
X94444762Y-14502438D02*
X94587619Y-14454819D01*
X94587619Y-14454819D02*
X94682857Y-14454819D01*
X94682857Y-14454819D02*
X94825714Y-14502438D01*
X94825714Y-14502438D02*
X94873333Y-14550057D01*
X10659047Y-59454819D02*
X10659047Y-60169104D01*
X10659047Y-60169104D02*
X10611428Y-60311961D01*
X10611428Y-60311961D02*
X10516190Y-60407200D01*
X10516190Y-60407200D02*
X10373333Y-60454819D01*
X10373333Y-60454819D02*
X10278095Y-60454819D01*
X10897143Y-60550057D02*
X11659047Y-60550057D01*
X12373333Y-60454819D02*
X11897143Y-60454819D01*
X11897143Y-60454819D02*
X11897143Y-59454819D01*
X13135238Y-59454819D02*
X12944762Y-59454819D01*
X12944762Y-59454819D02*
X12849524Y-59502438D01*
X12849524Y-59502438D02*
X12801905Y-59550057D01*
X12801905Y-59550057D02*
X12706667Y-59692914D01*
X12706667Y-59692914D02*
X12659048Y-59883390D01*
X12659048Y-59883390D02*
X12659048Y-60264342D01*
X12659048Y-60264342D02*
X12706667Y-60359580D01*
X12706667Y-60359580D02*
X12754286Y-60407200D01*
X12754286Y-60407200D02*
X12849524Y-60454819D01*
X12849524Y-60454819D02*
X13040000Y-60454819D01*
X13040000Y-60454819D02*
X13135238Y-60407200D01*
X13135238Y-60407200D02*
X13182857Y-60359580D01*
X13182857Y-60359580D02*
X13230476Y-60264342D01*
X13230476Y-60264342D02*
X13230476Y-60026247D01*
X13230476Y-60026247D02*
X13182857Y-59931009D01*
X13182857Y-59931009D02*
X13135238Y-59883390D01*
X13135238Y-59883390D02*
X13040000Y-59835771D01*
X13040000Y-59835771D02*
X12849524Y-59835771D01*
X12849524Y-59835771D02*
X12754286Y-59883390D01*
X12754286Y-59883390D02*
X12706667Y-59931009D01*
X12706667Y-59931009D02*
X12659048Y-60026247D01*
X13420953Y-60550057D02*
X14182857Y-60550057D01*
X14278096Y-59454819D02*
X14849524Y-59454819D01*
X14563810Y-60454819D02*
X14563810Y-59454819D01*
X20404761Y-20454819D02*
X19928571Y-20454819D01*
X19928571Y-20454819D02*
X19928571Y-19454819D01*
X20500000Y-20550057D02*
X21261904Y-20550057D01*
X22071428Y-20359580D02*
X22023809Y-20407200D01*
X22023809Y-20407200D02*
X21880952Y-20454819D01*
X21880952Y-20454819D02*
X21785714Y-20454819D01*
X21785714Y-20454819D02*
X21642857Y-20407200D01*
X21642857Y-20407200D02*
X21547619Y-20311961D01*
X21547619Y-20311961D02*
X21500000Y-20216723D01*
X21500000Y-20216723D02*
X21452381Y-20026247D01*
X21452381Y-20026247D02*
X21452381Y-19883390D01*
X21452381Y-19883390D02*
X21500000Y-19692914D01*
X21500000Y-19692914D02*
X21547619Y-19597676D01*
X21547619Y-19597676D02*
X21642857Y-19502438D01*
X21642857Y-19502438D02*
X21785714Y-19454819D01*
X21785714Y-19454819D02*
X21880952Y-19454819D01*
X21880952Y-19454819D02*
X22023809Y-19502438D01*
X22023809Y-19502438D02*
X22071428Y-19550057D01*
X22500000Y-20454819D02*
X22500000Y-19454819D01*
X22500000Y-19931009D02*
X23071428Y-19931009D01*
X23071428Y-20454819D02*
X23071428Y-19454819D01*
X24071428Y-19502438D02*
X23976190Y-19454819D01*
X23976190Y-19454819D02*
X23833333Y-19454819D01*
X23833333Y-19454819D02*
X23690476Y-19502438D01*
X23690476Y-19502438D02*
X23595238Y-19597676D01*
X23595238Y-19597676D02*
X23547619Y-19692914D01*
X23547619Y-19692914D02*
X23500000Y-19883390D01*
X23500000Y-19883390D02*
X23500000Y-20026247D01*
X23500000Y-20026247D02*
X23547619Y-20216723D01*
X23547619Y-20216723D02*
X23595238Y-20311961D01*
X23595238Y-20311961D02*
X23690476Y-20407200D01*
X23690476Y-20407200D02*
X23833333Y-20454819D01*
X23833333Y-20454819D02*
X23928571Y-20454819D01*
X23928571Y-20454819D02*
X24071428Y-20407200D01*
X24071428Y-20407200D02*
X24119047Y-20359580D01*
X24119047Y-20359580D02*
X24119047Y-20026247D01*
X24119047Y-20026247D02*
X23928571Y-20026247D01*
X42454819Y-75682857D02*
X43169104Y-75682857D01*
X43169104Y-75682857D02*
X43311961Y-75730476D01*
X43311961Y-75730476D02*
X43407200Y-75825714D01*
X43407200Y-75825714D02*
X43454819Y-75968571D01*
X43454819Y-75968571D02*
X43454819Y-76063809D01*
X43550057Y-75444762D02*
X43550057Y-74682857D01*
X43169104Y-74492380D02*
X43169104Y-74016190D01*
X43454819Y-74587618D02*
X42454819Y-74254285D01*
X42454819Y-74254285D02*
X43454819Y-73920952D01*
X42454819Y-73587618D02*
X43264342Y-73587618D01*
X43264342Y-73587618D02*
X43359580Y-73539999D01*
X43359580Y-73539999D02*
X43407200Y-73492380D01*
X43407200Y-73492380D02*
X43454819Y-73397142D01*
X43454819Y-73397142D02*
X43454819Y-73206666D01*
X43454819Y-73206666D02*
X43407200Y-73111428D01*
X43407200Y-73111428D02*
X43359580Y-73063809D01*
X43359580Y-73063809D02*
X43264342Y-73016190D01*
X43264342Y-73016190D02*
X42454819Y-73016190D01*
X42454819Y-72635237D02*
X43454819Y-71968571D01*
X42454819Y-71968571D02*
X43454819Y-72635237D01*
X43454819Y-71063809D02*
X43454819Y-71635237D01*
X43454819Y-71349523D02*
X42454819Y-71349523D01*
X42454819Y-71349523D02*
X42597676Y-71444761D01*
X42597676Y-71444761D02*
X42692914Y-71539999D01*
X42692914Y-71539999D02*
X42740533Y-71635237D01*
X48454819Y-75682857D02*
X49169104Y-75682857D01*
X49169104Y-75682857D02*
X49311961Y-75730476D01*
X49311961Y-75730476D02*
X49407200Y-75825714D01*
X49407200Y-75825714D02*
X49454819Y-75968571D01*
X49454819Y-75968571D02*
X49454819Y-76063809D01*
X49550057Y-75444762D02*
X49550057Y-74682857D01*
X49169104Y-74492380D02*
X49169104Y-74016190D01*
X49454819Y-74587618D02*
X48454819Y-74254285D01*
X48454819Y-74254285D02*
X49454819Y-73920952D01*
X48454819Y-73587618D02*
X49264342Y-73587618D01*
X49264342Y-73587618D02*
X49359580Y-73539999D01*
X49359580Y-73539999D02*
X49407200Y-73492380D01*
X49407200Y-73492380D02*
X49454819Y-73397142D01*
X49454819Y-73397142D02*
X49454819Y-73206666D01*
X49454819Y-73206666D02*
X49407200Y-73111428D01*
X49407200Y-73111428D02*
X49359580Y-73063809D01*
X49359580Y-73063809D02*
X49264342Y-73016190D01*
X49264342Y-73016190D02*
X48454819Y-73016190D01*
X48454819Y-72635237D02*
X49454819Y-71968571D01*
X48454819Y-71968571D02*
X49454819Y-72635237D01*
X48550057Y-71635237D02*
X48502438Y-71587618D01*
X48502438Y-71587618D02*
X48454819Y-71492380D01*
X48454819Y-71492380D02*
X48454819Y-71254285D01*
X48454819Y-71254285D02*
X48502438Y-71159047D01*
X48502438Y-71159047D02*
X48550057Y-71111428D01*
X48550057Y-71111428D02*
X48645295Y-71063809D01*
X48645295Y-71063809D02*
X48740533Y-71063809D01*
X48740533Y-71063809D02*
X48883390Y-71111428D01*
X48883390Y-71111428D02*
X49454819Y-71682856D01*
X49454819Y-71682856D02*
X49454819Y-71063809D01*
D13*
X26511905Y-30679530D02*
X26488096Y-30703340D01*
X26488096Y-30703340D02*
X26416667Y-30727149D01*
X26416667Y-30727149D02*
X26369048Y-30727149D01*
X26369048Y-30727149D02*
X26297620Y-30703340D01*
X26297620Y-30703340D02*
X26250001Y-30655720D01*
X26250001Y-30655720D02*
X26226191Y-30608101D01*
X26226191Y-30608101D02*
X26202382Y-30512863D01*
X26202382Y-30512863D02*
X26202382Y-30441435D01*
X26202382Y-30441435D02*
X26226191Y-30346197D01*
X26226191Y-30346197D02*
X26250001Y-30298578D01*
X26250001Y-30298578D02*
X26297620Y-30250959D01*
X26297620Y-30250959D02*
X26369048Y-30227149D01*
X26369048Y-30227149D02*
X26416667Y-30227149D01*
X26416667Y-30227149D02*
X26488096Y-30250959D01*
X26488096Y-30250959D02*
X26511905Y-30274768D01*
X26607144Y-30774768D02*
X26988096Y-30774768D01*
X27107143Y-30727149D02*
X27107143Y-30227149D01*
X27107143Y-30227149D02*
X27297619Y-30227149D01*
X27297619Y-30227149D02*
X27345238Y-30250959D01*
X27345238Y-30250959D02*
X27369048Y-30274768D01*
X27369048Y-30274768D02*
X27392857Y-30322387D01*
X27392857Y-30322387D02*
X27392857Y-30393816D01*
X27392857Y-30393816D02*
X27369048Y-30441435D01*
X27369048Y-30441435D02*
X27345238Y-30465244D01*
X27345238Y-30465244D02*
X27297619Y-30489054D01*
X27297619Y-30489054D02*
X27107143Y-30489054D01*
X27892857Y-30679530D02*
X27869048Y-30703340D01*
X27869048Y-30703340D02*
X27797619Y-30727149D01*
X27797619Y-30727149D02*
X27750000Y-30727149D01*
X27750000Y-30727149D02*
X27678572Y-30703340D01*
X27678572Y-30703340D02*
X27630953Y-30655720D01*
X27630953Y-30655720D02*
X27607143Y-30608101D01*
X27607143Y-30608101D02*
X27583334Y-30512863D01*
X27583334Y-30512863D02*
X27583334Y-30441435D01*
X27583334Y-30441435D02*
X27607143Y-30346197D01*
X27607143Y-30346197D02*
X27630953Y-30298578D01*
X27630953Y-30298578D02*
X27678572Y-30250959D01*
X27678572Y-30250959D02*
X27750000Y-30227149D01*
X27750000Y-30227149D02*
X27797619Y-30227149D01*
X27797619Y-30227149D02*
X27869048Y-30250959D01*
X27869048Y-30250959D02*
X27892857Y-30274768D01*
X28083334Y-30584292D02*
X28321429Y-30584292D01*
X28035715Y-30727149D02*
X28202381Y-30227149D01*
X28202381Y-30227149D02*
X28369048Y-30727149D01*
X28511905Y-30274768D02*
X28535714Y-30250959D01*
X28535714Y-30250959D02*
X28583333Y-30227149D01*
X28583333Y-30227149D02*
X28702381Y-30227149D01*
X28702381Y-30227149D02*
X28750000Y-30250959D01*
X28750000Y-30250959D02*
X28773809Y-30274768D01*
X28773809Y-30274768D02*
X28797619Y-30322387D01*
X28797619Y-30322387D02*
X28797619Y-30370006D01*
X28797619Y-30370006D02*
X28773809Y-30441435D01*
X28773809Y-30441435D02*
X28488095Y-30727149D01*
X28488095Y-30727149D02*
X28797619Y-30727149D01*
D10*
X90659047Y-59454819D02*
X90659047Y-60169104D01*
X90659047Y-60169104D02*
X90611428Y-60311961D01*
X90611428Y-60311961D02*
X90516190Y-60407200D01*
X90516190Y-60407200D02*
X90373333Y-60454819D01*
X90373333Y-60454819D02*
X90278095Y-60454819D01*
X90897143Y-60550057D02*
X91659047Y-60550057D01*
X92373333Y-60454819D02*
X91897143Y-60454819D01*
X91897143Y-60454819D02*
X91897143Y-59454819D01*
X92611429Y-59454819D02*
X93230476Y-59454819D01*
X93230476Y-59454819D02*
X92897143Y-59835771D01*
X92897143Y-59835771D02*
X93040000Y-59835771D01*
X93040000Y-59835771D02*
X93135238Y-59883390D01*
X93135238Y-59883390D02*
X93182857Y-59931009D01*
X93182857Y-59931009D02*
X93230476Y-60026247D01*
X93230476Y-60026247D02*
X93230476Y-60264342D01*
X93230476Y-60264342D02*
X93182857Y-60359580D01*
X93182857Y-60359580D02*
X93135238Y-60407200D01*
X93135238Y-60407200D02*
X93040000Y-60454819D01*
X93040000Y-60454819D02*
X92754286Y-60454819D01*
X92754286Y-60454819D02*
X92659048Y-60407200D01*
X92659048Y-60407200D02*
X92611429Y-60359580D01*
X93420953Y-60550057D02*
X94182857Y-60550057D01*
X94278096Y-59454819D02*
X94849524Y-59454819D01*
X94563810Y-60454819D02*
X94563810Y-59454819D01*
X28238095Y-19454819D02*
X28238095Y-20264342D01*
X28238095Y-20264342D02*
X28285714Y-20359580D01*
X28285714Y-20359580D02*
X28333333Y-20407200D01*
X28333333Y-20407200D02*
X28428571Y-20454819D01*
X28428571Y-20454819D02*
X28619047Y-20454819D01*
X28619047Y-20454819D02*
X28714285Y-20407200D01*
X28714285Y-20407200D02*
X28761904Y-20359580D01*
X28761904Y-20359580D02*
X28809523Y-20264342D01*
X28809523Y-20264342D02*
X28809523Y-19454819D01*
X29238095Y-19550057D02*
X29285714Y-19502438D01*
X29285714Y-19502438D02*
X29380952Y-19454819D01*
X29380952Y-19454819D02*
X29619047Y-19454819D01*
X29619047Y-19454819D02*
X29714285Y-19502438D01*
X29714285Y-19502438D02*
X29761904Y-19550057D01*
X29761904Y-19550057D02*
X29809523Y-19645295D01*
X29809523Y-19645295D02*
X29809523Y-19740533D01*
X29809523Y-19740533D02*
X29761904Y-19883390D01*
X29761904Y-19883390D02*
X29190476Y-20454819D01*
X29190476Y-20454819D02*
X29809523Y-20454819D01*
D13*
X75011905Y-30179530D02*
X74988096Y-30203340D01*
X74988096Y-30203340D02*
X74916667Y-30227149D01*
X74916667Y-30227149D02*
X74869048Y-30227149D01*
X74869048Y-30227149D02*
X74797620Y-30203340D01*
X74797620Y-30203340D02*
X74750001Y-30155720D01*
X74750001Y-30155720D02*
X74726191Y-30108101D01*
X74726191Y-30108101D02*
X74702382Y-30012863D01*
X74702382Y-30012863D02*
X74702382Y-29941435D01*
X74702382Y-29941435D02*
X74726191Y-29846197D01*
X74726191Y-29846197D02*
X74750001Y-29798578D01*
X74750001Y-29798578D02*
X74797620Y-29750959D01*
X74797620Y-29750959D02*
X74869048Y-29727149D01*
X74869048Y-29727149D02*
X74916667Y-29727149D01*
X74916667Y-29727149D02*
X74988096Y-29750959D01*
X74988096Y-29750959D02*
X75011905Y-29774768D01*
X75107144Y-30274768D02*
X75488096Y-30274768D01*
X75607143Y-30227149D02*
X75607143Y-29727149D01*
X75607143Y-29727149D02*
X75797619Y-29727149D01*
X75797619Y-29727149D02*
X75845238Y-29750959D01*
X75845238Y-29750959D02*
X75869048Y-29774768D01*
X75869048Y-29774768D02*
X75892857Y-29822387D01*
X75892857Y-29822387D02*
X75892857Y-29893816D01*
X75892857Y-29893816D02*
X75869048Y-29941435D01*
X75869048Y-29941435D02*
X75845238Y-29965244D01*
X75845238Y-29965244D02*
X75797619Y-29989054D01*
X75797619Y-29989054D02*
X75607143Y-29989054D01*
X76392857Y-30179530D02*
X76369048Y-30203340D01*
X76369048Y-30203340D02*
X76297619Y-30227149D01*
X76297619Y-30227149D02*
X76250000Y-30227149D01*
X76250000Y-30227149D02*
X76178572Y-30203340D01*
X76178572Y-30203340D02*
X76130953Y-30155720D01*
X76130953Y-30155720D02*
X76107143Y-30108101D01*
X76107143Y-30108101D02*
X76083334Y-30012863D01*
X76083334Y-30012863D02*
X76083334Y-29941435D01*
X76083334Y-29941435D02*
X76107143Y-29846197D01*
X76107143Y-29846197D02*
X76130953Y-29798578D01*
X76130953Y-29798578D02*
X76178572Y-29750959D01*
X76178572Y-29750959D02*
X76250000Y-29727149D01*
X76250000Y-29727149D02*
X76297619Y-29727149D01*
X76297619Y-29727149D02*
X76369048Y-29750959D01*
X76369048Y-29750959D02*
X76392857Y-29774768D01*
X76583334Y-30084292D02*
X76821429Y-30084292D01*
X76535715Y-30227149D02*
X76702381Y-29727149D01*
X76702381Y-29727149D02*
X76869048Y-30227149D01*
X77250000Y-29893816D02*
X77250000Y-30227149D01*
X77130952Y-29703340D02*
X77011905Y-30060482D01*
X77011905Y-30060482D02*
X77321428Y-30060482D01*
D11*
X83038095Y-28181927D02*
X82847619Y-28181927D01*
X82847619Y-28181927D02*
X82847619Y-27781927D01*
X83171429Y-27972403D02*
X83304762Y-27972403D01*
X83361905Y-28181927D02*
X83171429Y-28181927D01*
X83171429Y-28181927D02*
X83171429Y-27781927D01*
X83171429Y-27781927D02*
X83361905Y-27781927D01*
X83533334Y-28181927D02*
X83533334Y-27781927D01*
X83533334Y-27781927D02*
X83628572Y-27781927D01*
X83628572Y-27781927D02*
X83685715Y-27800975D01*
X83685715Y-27800975D02*
X83723810Y-27839070D01*
X83723810Y-27839070D02*
X83742857Y-27877165D01*
X83742857Y-27877165D02*
X83761905Y-27953356D01*
X83761905Y-27953356D02*
X83761905Y-28010499D01*
X83761905Y-28010499D02*
X83742857Y-28086689D01*
X83742857Y-28086689D02*
X83723810Y-28124784D01*
X83723810Y-28124784D02*
X83685715Y-28162880D01*
X83685715Y-28162880D02*
X83628572Y-28181927D01*
X83628572Y-28181927D02*
X83533334Y-28181927D01*
X83838096Y-28220022D02*
X84142857Y-28220022D01*
X84200000Y-27781927D02*
X84447619Y-27781927D01*
X84447619Y-27781927D02*
X84314286Y-27934308D01*
X84314286Y-27934308D02*
X84371429Y-27934308D01*
X84371429Y-27934308D02*
X84409524Y-27953356D01*
X84409524Y-27953356D02*
X84428572Y-27972403D01*
X84428572Y-27972403D02*
X84447619Y-28010499D01*
X84447619Y-28010499D02*
X84447619Y-28105737D01*
X84447619Y-28105737D02*
X84428572Y-28143832D01*
X84428572Y-28143832D02*
X84409524Y-28162880D01*
X84409524Y-28162880D02*
X84371429Y-28181927D01*
X84371429Y-28181927D02*
X84257143Y-28181927D01*
X84257143Y-28181927D02*
X84219048Y-28162880D01*
X84219048Y-28162880D02*
X84200000Y-28143832D01*
X84561905Y-27781927D02*
X84695238Y-28181927D01*
X84695238Y-28181927D02*
X84828571Y-27781927D01*
X84923809Y-27781927D02*
X85171428Y-27781927D01*
X85171428Y-27781927D02*
X85038095Y-27934308D01*
X85038095Y-27934308D02*
X85095238Y-27934308D01*
X85095238Y-27934308D02*
X85133333Y-27953356D01*
X85133333Y-27953356D02*
X85152381Y-27972403D01*
X85152381Y-27972403D02*
X85171428Y-28010499D01*
X85171428Y-28010499D02*
X85171428Y-28105737D01*
X85171428Y-28105737D02*
X85152381Y-28143832D01*
X85152381Y-28143832D02*
X85133333Y-28162880D01*
X85133333Y-28162880D02*
X85095238Y-28181927D01*
X85095238Y-28181927D02*
X84980952Y-28181927D01*
X84980952Y-28181927D02*
X84942857Y-28162880D01*
X84942857Y-28162880D02*
X84923809Y-28143832D01*
X48409524Y-61181927D02*
X48276191Y-60991451D01*
X48180953Y-61181927D02*
X48180953Y-60781927D01*
X48180953Y-60781927D02*
X48333334Y-60781927D01*
X48333334Y-60781927D02*
X48371429Y-60800975D01*
X48371429Y-60800975D02*
X48390476Y-60820022D01*
X48390476Y-60820022D02*
X48409524Y-60858118D01*
X48409524Y-60858118D02*
X48409524Y-60915260D01*
X48409524Y-60915260D02*
X48390476Y-60953356D01*
X48390476Y-60953356D02*
X48371429Y-60972403D01*
X48371429Y-60972403D02*
X48333334Y-60991451D01*
X48333334Y-60991451D02*
X48180953Y-60991451D01*
X48485715Y-61220022D02*
X48790476Y-61220022D01*
X49019048Y-60972403D02*
X48885715Y-60972403D01*
X48885715Y-61181927D02*
X48885715Y-60781927D01*
X48885715Y-60781927D02*
X49076191Y-60781927D01*
X49361905Y-60972403D02*
X49419048Y-60991451D01*
X49419048Y-60991451D02*
X49438095Y-61010499D01*
X49438095Y-61010499D02*
X49457143Y-61048594D01*
X49457143Y-61048594D02*
X49457143Y-61105737D01*
X49457143Y-61105737D02*
X49438095Y-61143832D01*
X49438095Y-61143832D02*
X49419048Y-61162880D01*
X49419048Y-61162880D02*
X49380953Y-61181927D01*
X49380953Y-61181927D02*
X49228572Y-61181927D01*
X49228572Y-61181927D02*
X49228572Y-60781927D01*
X49228572Y-60781927D02*
X49361905Y-60781927D01*
X49361905Y-60781927D02*
X49400000Y-60800975D01*
X49400000Y-60800975D02*
X49419048Y-60820022D01*
X49419048Y-60820022D02*
X49438095Y-60858118D01*
X49438095Y-60858118D02*
X49438095Y-60896213D01*
X49438095Y-60896213D02*
X49419048Y-60934308D01*
X49419048Y-60934308D02*
X49400000Y-60953356D01*
X49400000Y-60953356D02*
X49361905Y-60972403D01*
X49361905Y-60972403D02*
X49228572Y-60972403D01*
X49838095Y-61181927D02*
X49609524Y-61181927D01*
X49723810Y-61181927D02*
X49723810Y-60781927D01*
X49723810Y-60781927D02*
X49685714Y-60839070D01*
X49685714Y-60839070D02*
X49647619Y-60877165D01*
X49647619Y-60877165D02*
X49609524Y-60896213D01*
D10*
X10539999Y-32454819D02*
X10539999Y-33169104D01*
X10539999Y-33169104D02*
X10492380Y-33311961D01*
X10492380Y-33311961D02*
X10397142Y-33407200D01*
X10397142Y-33407200D02*
X10254285Y-33454819D01*
X10254285Y-33454819D02*
X10159047Y-33454819D01*
X10778095Y-33550057D02*
X11539999Y-33550057D01*
X12254285Y-33454819D02*
X11778095Y-33454819D01*
X11778095Y-33454819D02*
X11778095Y-32454819D01*
X13063809Y-32454819D02*
X12587619Y-32454819D01*
X12587619Y-32454819D02*
X12540000Y-32931009D01*
X12540000Y-32931009D02*
X12587619Y-32883390D01*
X12587619Y-32883390D02*
X12682857Y-32835771D01*
X12682857Y-32835771D02*
X12920952Y-32835771D01*
X12920952Y-32835771D02*
X13016190Y-32883390D01*
X13016190Y-32883390D02*
X13063809Y-32931009D01*
X13063809Y-32931009D02*
X13111428Y-33026247D01*
X13111428Y-33026247D02*
X13111428Y-33264342D01*
X13111428Y-33264342D02*
X13063809Y-33359580D01*
X13063809Y-33359580D02*
X13016190Y-33407200D01*
X13016190Y-33407200D02*
X12920952Y-33454819D01*
X12920952Y-33454819D02*
X12682857Y-33454819D01*
X12682857Y-33454819D02*
X12587619Y-33407200D01*
X12587619Y-33407200D02*
X12540000Y-33359580D01*
X13301905Y-33550057D02*
X14063809Y-33550057D01*
X14873333Y-33359580D02*
X14825714Y-33407200D01*
X14825714Y-33407200D02*
X14682857Y-33454819D01*
X14682857Y-33454819D02*
X14587619Y-33454819D01*
X14587619Y-33454819D02*
X14444762Y-33407200D01*
X14444762Y-33407200D02*
X14349524Y-33311961D01*
X14349524Y-33311961D02*
X14301905Y-33216723D01*
X14301905Y-33216723D02*
X14254286Y-33026247D01*
X14254286Y-33026247D02*
X14254286Y-32883390D01*
X14254286Y-32883390D02*
X14301905Y-32692914D01*
X14301905Y-32692914D02*
X14349524Y-32597676D01*
X14349524Y-32597676D02*
X14444762Y-32502438D01*
X14444762Y-32502438D02*
X14587619Y-32454819D01*
X14587619Y-32454819D02*
X14682857Y-32454819D01*
X14682857Y-32454819D02*
X14825714Y-32502438D01*
X14825714Y-32502438D02*
X14873333Y-32550057D01*
D12*
X26014286Y-11787664D02*
X25976190Y-11825760D01*
X25976190Y-11825760D02*
X25861905Y-11863855D01*
X25861905Y-11863855D02*
X25785714Y-11863855D01*
X25785714Y-11863855D02*
X25671428Y-11825760D01*
X25671428Y-11825760D02*
X25595238Y-11749569D01*
X25595238Y-11749569D02*
X25557143Y-11673379D01*
X25557143Y-11673379D02*
X25519047Y-11520998D01*
X25519047Y-11520998D02*
X25519047Y-11406712D01*
X25519047Y-11406712D02*
X25557143Y-11254331D01*
X25557143Y-11254331D02*
X25595238Y-11178140D01*
X25595238Y-11178140D02*
X25671428Y-11101950D01*
X25671428Y-11101950D02*
X25785714Y-11063855D01*
X25785714Y-11063855D02*
X25861905Y-11063855D01*
X25861905Y-11063855D02*
X25976190Y-11101950D01*
X25976190Y-11101950D02*
X26014286Y-11140045D01*
X26166667Y-11940045D02*
X26776190Y-11940045D01*
X27233333Y-11444807D02*
X27347619Y-11482902D01*
X27347619Y-11482902D02*
X27385714Y-11520998D01*
X27385714Y-11520998D02*
X27423810Y-11597188D01*
X27423810Y-11597188D02*
X27423810Y-11711474D01*
X27423810Y-11711474D02*
X27385714Y-11787664D01*
X27385714Y-11787664D02*
X27347619Y-11825760D01*
X27347619Y-11825760D02*
X27271429Y-11863855D01*
X27271429Y-11863855D02*
X26966667Y-11863855D01*
X26966667Y-11863855D02*
X26966667Y-11063855D01*
X26966667Y-11063855D02*
X27233333Y-11063855D01*
X27233333Y-11063855D02*
X27309524Y-11101950D01*
X27309524Y-11101950D02*
X27347619Y-11140045D01*
X27347619Y-11140045D02*
X27385714Y-11216236D01*
X27385714Y-11216236D02*
X27385714Y-11292426D01*
X27385714Y-11292426D02*
X27347619Y-11368617D01*
X27347619Y-11368617D02*
X27309524Y-11406712D01*
X27309524Y-11406712D02*
X27233333Y-11444807D01*
X27233333Y-11444807D02*
X26966667Y-11444807D01*
X27728571Y-11635283D02*
X28109524Y-11635283D01*
X27652381Y-11863855D02*
X27919048Y-11063855D01*
X27919048Y-11063855D02*
X28185714Y-11863855D01*
X28338095Y-11063855D02*
X28795238Y-11063855D01*
X28566666Y-11863855D02*
X28566666Y-11063855D01*
X29480952Y-11863855D02*
X29023809Y-11863855D01*
X29252381Y-11863855D02*
X29252381Y-11063855D01*
X29252381Y-11063855D02*
X29176190Y-11178140D01*
X29176190Y-11178140D02*
X29100000Y-11254331D01*
X29100000Y-11254331D02*
X29023809Y-11292426D01*
D10*
X10659047Y-41454819D02*
X10659047Y-42169104D01*
X10659047Y-42169104D02*
X10611428Y-42311961D01*
X10611428Y-42311961D02*
X10516190Y-42407200D01*
X10516190Y-42407200D02*
X10373333Y-42454819D01*
X10373333Y-42454819D02*
X10278095Y-42454819D01*
X10897143Y-42550057D02*
X11659047Y-42550057D01*
X12373333Y-42454819D02*
X11897143Y-42454819D01*
X11897143Y-42454819D02*
X11897143Y-41454819D01*
X13182857Y-41454819D02*
X12706667Y-41454819D01*
X12706667Y-41454819D02*
X12659048Y-41931009D01*
X12659048Y-41931009D02*
X12706667Y-41883390D01*
X12706667Y-41883390D02*
X12801905Y-41835771D01*
X12801905Y-41835771D02*
X13040000Y-41835771D01*
X13040000Y-41835771D02*
X13135238Y-41883390D01*
X13135238Y-41883390D02*
X13182857Y-41931009D01*
X13182857Y-41931009D02*
X13230476Y-42026247D01*
X13230476Y-42026247D02*
X13230476Y-42264342D01*
X13230476Y-42264342D02*
X13182857Y-42359580D01*
X13182857Y-42359580D02*
X13135238Y-42407200D01*
X13135238Y-42407200D02*
X13040000Y-42454819D01*
X13040000Y-42454819D02*
X12801905Y-42454819D01*
X12801905Y-42454819D02*
X12706667Y-42407200D01*
X12706667Y-42407200D02*
X12659048Y-42359580D01*
X13420953Y-42550057D02*
X14182857Y-42550057D01*
X14278096Y-41454819D02*
X14849524Y-41454819D01*
X14563810Y-42454819D02*
X14563810Y-41454819D01*
D12*
X30952381Y-44287664D02*
X30914285Y-44325760D01*
X30914285Y-44325760D02*
X30800000Y-44363855D01*
X30800000Y-44363855D02*
X30723809Y-44363855D01*
X30723809Y-44363855D02*
X30609523Y-44325760D01*
X30609523Y-44325760D02*
X30533333Y-44249569D01*
X30533333Y-44249569D02*
X30495238Y-44173379D01*
X30495238Y-44173379D02*
X30457142Y-44020998D01*
X30457142Y-44020998D02*
X30457142Y-43906712D01*
X30457142Y-43906712D02*
X30495238Y-43754331D01*
X30495238Y-43754331D02*
X30533333Y-43678140D01*
X30533333Y-43678140D02*
X30609523Y-43601950D01*
X30609523Y-43601950D02*
X30723809Y-43563855D01*
X30723809Y-43563855D02*
X30800000Y-43563855D01*
X30800000Y-43563855D02*
X30914285Y-43601950D01*
X30914285Y-43601950D02*
X30952381Y-43640045D01*
X31104762Y-44440045D02*
X31714285Y-44440045D01*
X31904762Y-44363855D02*
X31904762Y-43563855D01*
X32285714Y-44363855D02*
X32285714Y-43563855D01*
X32285714Y-43563855D02*
X32742857Y-44363855D01*
X32742857Y-44363855D02*
X32742857Y-43563855D01*
X33085713Y-43640045D02*
X33123809Y-43601950D01*
X33123809Y-43601950D02*
X33199999Y-43563855D01*
X33199999Y-43563855D02*
X33390475Y-43563855D01*
X33390475Y-43563855D02*
X33466666Y-43601950D01*
X33466666Y-43601950D02*
X33504761Y-43640045D01*
X33504761Y-43640045D02*
X33542856Y-43716236D01*
X33542856Y-43716236D02*
X33542856Y-43792426D01*
X33542856Y-43792426D02*
X33504761Y-43906712D01*
X33504761Y-43906712D02*
X33047618Y-44363855D01*
X33047618Y-44363855D02*
X33542856Y-44363855D01*
D10*
X77964285Y-8359580D02*
X77916666Y-8407200D01*
X77916666Y-8407200D02*
X77773809Y-8454819D01*
X77773809Y-8454819D02*
X77678571Y-8454819D01*
X77678571Y-8454819D02*
X77535714Y-8407200D01*
X77535714Y-8407200D02*
X77440476Y-8311961D01*
X77440476Y-8311961D02*
X77392857Y-8216723D01*
X77392857Y-8216723D02*
X77345238Y-8026247D01*
X77345238Y-8026247D02*
X77345238Y-7883390D01*
X77345238Y-7883390D02*
X77392857Y-7692914D01*
X77392857Y-7692914D02*
X77440476Y-7597676D01*
X77440476Y-7597676D02*
X77535714Y-7502438D01*
X77535714Y-7502438D02*
X77678571Y-7454819D01*
X77678571Y-7454819D02*
X77773809Y-7454819D01*
X77773809Y-7454819D02*
X77916666Y-7502438D01*
X77916666Y-7502438D02*
X77964285Y-7550057D01*
X78154762Y-8550057D02*
X78916666Y-8550057D01*
X79154762Y-8454819D02*
X79154762Y-7454819D01*
X79583333Y-8407200D02*
X79726190Y-8454819D01*
X79726190Y-8454819D02*
X79964285Y-8454819D01*
X79964285Y-8454819D02*
X80059523Y-8407200D01*
X80059523Y-8407200D02*
X80107142Y-8359580D01*
X80107142Y-8359580D02*
X80154761Y-8264342D01*
X80154761Y-8264342D02*
X80154761Y-8169104D01*
X80154761Y-8169104D02*
X80107142Y-8073866D01*
X80107142Y-8073866D02*
X80059523Y-8026247D01*
X80059523Y-8026247D02*
X79964285Y-7978628D01*
X79964285Y-7978628D02*
X79773809Y-7931009D01*
X79773809Y-7931009D02*
X79678571Y-7883390D01*
X79678571Y-7883390D02*
X79630952Y-7835771D01*
X79630952Y-7835771D02*
X79583333Y-7740533D01*
X79583333Y-7740533D02*
X79583333Y-7645295D01*
X79583333Y-7645295D02*
X79630952Y-7550057D01*
X79630952Y-7550057D02*
X79678571Y-7502438D01*
X79678571Y-7502438D02*
X79773809Y-7454819D01*
X79773809Y-7454819D02*
X80011904Y-7454819D01*
X80011904Y-7454819D02*
X80154761Y-7502438D01*
X80773809Y-7454819D02*
X80964285Y-7454819D01*
X80964285Y-7454819D02*
X81059523Y-7502438D01*
X81059523Y-7502438D02*
X81154761Y-7597676D01*
X81154761Y-7597676D02*
X81202380Y-7788152D01*
X81202380Y-7788152D02*
X81202380Y-8121485D01*
X81202380Y-8121485D02*
X81154761Y-8311961D01*
X81154761Y-8311961D02*
X81059523Y-8407200D01*
X81059523Y-8407200D02*
X80964285Y-8454819D01*
X80964285Y-8454819D02*
X80773809Y-8454819D01*
X80773809Y-8454819D02*
X80678571Y-8407200D01*
X80678571Y-8407200D02*
X80583333Y-8311961D01*
X80583333Y-8311961D02*
X80535714Y-8121485D01*
X80535714Y-8121485D02*
X80535714Y-7788152D01*
X80535714Y-7788152D02*
X80583333Y-7597676D01*
X80583333Y-7597676D02*
X80678571Y-7502438D01*
X80678571Y-7502438D02*
X80773809Y-7454819D01*
X82154761Y-8454819D02*
X81583333Y-8454819D01*
X81869047Y-8454819D02*
X81869047Y-7454819D01*
X81869047Y-7454819D02*
X81773809Y-7597676D01*
X81773809Y-7597676D02*
X81678571Y-7692914D01*
X81678571Y-7692914D02*
X81583333Y-7740533D01*
X78454819Y-74262380D02*
X79169104Y-74262380D01*
X79169104Y-74262380D02*
X79311961Y-74309999D01*
X79311961Y-74309999D02*
X79407200Y-74405237D01*
X79407200Y-74405237D02*
X79454819Y-74548094D01*
X79454819Y-74548094D02*
X79454819Y-74643332D01*
X79550057Y-74024285D02*
X79550057Y-73262380D01*
X79454819Y-73024284D02*
X78454819Y-73024284D01*
X78550057Y-72595713D02*
X78502438Y-72548094D01*
X78502438Y-72548094D02*
X78454819Y-72452856D01*
X78454819Y-72452856D02*
X78454819Y-72214761D01*
X78454819Y-72214761D02*
X78502438Y-72119523D01*
X78502438Y-72119523D02*
X78550057Y-72071904D01*
X78550057Y-72071904D02*
X78645295Y-72024285D01*
X78645295Y-72024285D02*
X78740533Y-72024285D01*
X78740533Y-72024285D02*
X78883390Y-72071904D01*
X78883390Y-72071904D02*
X79454819Y-72643332D01*
X79454819Y-72643332D02*
X79454819Y-72024285D01*
X79359580Y-71024285D02*
X79407200Y-71071904D01*
X79407200Y-71071904D02*
X79454819Y-71214761D01*
X79454819Y-71214761D02*
X79454819Y-71309999D01*
X79454819Y-71309999D02*
X79407200Y-71452856D01*
X79407200Y-71452856D02*
X79311961Y-71548094D01*
X79311961Y-71548094D02*
X79216723Y-71595713D01*
X79216723Y-71595713D02*
X79026247Y-71643332D01*
X79026247Y-71643332D02*
X78883390Y-71643332D01*
X78883390Y-71643332D02*
X78692914Y-71595713D01*
X78692914Y-71595713D02*
X78597676Y-71548094D01*
X78597676Y-71548094D02*
X78502438Y-71452856D01*
X78502438Y-71452856D02*
X78454819Y-71309999D01*
X78454819Y-71309999D02*
X78454819Y-71214761D01*
X78454819Y-71214761D02*
X78502438Y-71071904D01*
X78502438Y-71071904D02*
X78550057Y-71024285D01*
X41238095Y-51454819D02*
X41238095Y-52264342D01*
X41238095Y-52264342D02*
X41285714Y-52359580D01*
X41285714Y-52359580D02*
X41333333Y-52407200D01*
X41333333Y-52407200D02*
X41428571Y-52454819D01*
X41428571Y-52454819D02*
X41619047Y-52454819D01*
X41619047Y-52454819D02*
X41714285Y-52407200D01*
X41714285Y-52407200D02*
X41761904Y-52359580D01*
X41761904Y-52359580D02*
X41809523Y-52264342D01*
X41809523Y-52264342D02*
X41809523Y-51454819D01*
X42190476Y-51454819D02*
X42809523Y-51454819D01*
X42809523Y-51454819D02*
X42476190Y-51835771D01*
X42476190Y-51835771D02*
X42619047Y-51835771D01*
X42619047Y-51835771D02*
X42714285Y-51883390D01*
X42714285Y-51883390D02*
X42761904Y-51931009D01*
X42761904Y-51931009D02*
X42809523Y-52026247D01*
X42809523Y-52026247D02*
X42809523Y-52264342D01*
X42809523Y-52264342D02*
X42761904Y-52359580D01*
X42761904Y-52359580D02*
X42714285Y-52407200D01*
X42714285Y-52407200D02*
X42619047Y-52454819D01*
X42619047Y-52454819D02*
X42333333Y-52454819D01*
X42333333Y-52454819D02*
X42238095Y-52407200D01*
X42238095Y-52407200D02*
X42190476Y-52359580D01*
D11*
X49419047Y-42181927D02*
X49285714Y-41991451D01*
X49190476Y-42181927D02*
X49190476Y-41781927D01*
X49190476Y-41781927D02*
X49342857Y-41781927D01*
X49342857Y-41781927D02*
X49380952Y-41800975D01*
X49380952Y-41800975D02*
X49399999Y-41820022D01*
X49399999Y-41820022D02*
X49419047Y-41858118D01*
X49419047Y-41858118D02*
X49419047Y-41915260D01*
X49419047Y-41915260D02*
X49399999Y-41953356D01*
X49399999Y-41953356D02*
X49380952Y-41972403D01*
X49380952Y-41972403D02*
X49342857Y-41991451D01*
X49342857Y-41991451D02*
X49190476Y-41991451D01*
X49495238Y-42220022D02*
X49799999Y-42220022D01*
X49876190Y-42162880D02*
X49933333Y-42181927D01*
X49933333Y-42181927D02*
X50028571Y-42181927D01*
X50028571Y-42181927D02*
X50066666Y-42162880D01*
X50066666Y-42162880D02*
X50085714Y-42143832D01*
X50085714Y-42143832D02*
X50104761Y-42105737D01*
X50104761Y-42105737D02*
X50104761Y-42067641D01*
X50104761Y-42067641D02*
X50085714Y-42029546D01*
X50085714Y-42029546D02*
X50066666Y-42010499D01*
X50066666Y-42010499D02*
X50028571Y-41991451D01*
X50028571Y-41991451D02*
X49952380Y-41972403D01*
X49952380Y-41972403D02*
X49914285Y-41953356D01*
X49914285Y-41953356D02*
X49895238Y-41934308D01*
X49895238Y-41934308D02*
X49876190Y-41896213D01*
X49876190Y-41896213D02*
X49876190Y-41858118D01*
X49876190Y-41858118D02*
X49895238Y-41820022D01*
X49895238Y-41820022D02*
X49914285Y-41800975D01*
X49914285Y-41800975D02*
X49952380Y-41781927D01*
X49952380Y-41781927D02*
X50047619Y-41781927D01*
X50047619Y-41781927D02*
X50104761Y-41800975D01*
X50504761Y-42143832D02*
X50485713Y-42162880D01*
X50485713Y-42162880D02*
X50428571Y-42181927D01*
X50428571Y-42181927D02*
X50390475Y-42181927D01*
X50390475Y-42181927D02*
X50333332Y-42162880D01*
X50333332Y-42162880D02*
X50295237Y-42124784D01*
X50295237Y-42124784D02*
X50276190Y-42086689D01*
X50276190Y-42086689D02*
X50257142Y-42010499D01*
X50257142Y-42010499D02*
X50257142Y-41953356D01*
X50257142Y-41953356D02*
X50276190Y-41877165D01*
X50276190Y-41877165D02*
X50295237Y-41839070D01*
X50295237Y-41839070D02*
X50333332Y-41800975D01*
X50333332Y-41800975D02*
X50390475Y-41781927D01*
X50390475Y-41781927D02*
X50428571Y-41781927D01*
X50428571Y-41781927D02*
X50485713Y-41800975D01*
X50485713Y-41800975D02*
X50504761Y-41820022D01*
X50866666Y-42181927D02*
X50676190Y-42181927D01*
X50676190Y-42181927D02*
X50676190Y-41781927D01*
X77181927Y-57361904D02*
X77181927Y-57552380D01*
X77181927Y-57552380D02*
X76781927Y-57552380D01*
X76972403Y-57228570D02*
X76972403Y-57095237D01*
X77181927Y-57038094D02*
X77181927Y-57228570D01*
X77181927Y-57228570D02*
X76781927Y-57228570D01*
X76781927Y-57228570D02*
X76781927Y-57038094D01*
X77181927Y-56866665D02*
X76781927Y-56866665D01*
X76781927Y-56866665D02*
X76781927Y-56771427D01*
X76781927Y-56771427D02*
X76800975Y-56714284D01*
X76800975Y-56714284D02*
X76839070Y-56676189D01*
X76839070Y-56676189D02*
X76877165Y-56657142D01*
X76877165Y-56657142D02*
X76953356Y-56638094D01*
X76953356Y-56638094D02*
X77010499Y-56638094D01*
X77010499Y-56638094D02*
X77086689Y-56657142D01*
X77086689Y-56657142D02*
X77124784Y-56676189D01*
X77124784Y-56676189D02*
X77162880Y-56714284D01*
X77162880Y-56714284D02*
X77181927Y-56771427D01*
X77181927Y-56771427D02*
X77181927Y-56866665D01*
X77220022Y-56561904D02*
X77220022Y-56257142D01*
X77162880Y-56180951D02*
X77181927Y-56123808D01*
X77181927Y-56123808D02*
X77181927Y-56028570D01*
X77181927Y-56028570D02*
X77162880Y-55990475D01*
X77162880Y-55990475D02*
X77143832Y-55971427D01*
X77143832Y-55971427D02*
X77105737Y-55952380D01*
X77105737Y-55952380D02*
X77067641Y-55952380D01*
X77067641Y-55952380D02*
X77029546Y-55971427D01*
X77029546Y-55971427D02*
X77010499Y-55990475D01*
X77010499Y-55990475D02*
X76991451Y-56028570D01*
X76991451Y-56028570D02*
X76972403Y-56104761D01*
X76972403Y-56104761D02*
X76953356Y-56142856D01*
X76953356Y-56142856D02*
X76934308Y-56161903D01*
X76934308Y-56161903D02*
X76896213Y-56180951D01*
X76896213Y-56180951D02*
X76858118Y-56180951D01*
X76858118Y-56180951D02*
X76820022Y-56161903D01*
X76820022Y-56161903D02*
X76800975Y-56142856D01*
X76800975Y-56142856D02*
X76781927Y-56104761D01*
X76781927Y-56104761D02*
X76781927Y-56009522D01*
X76781927Y-56009522D02*
X76800975Y-55952380D01*
X76972403Y-55780951D02*
X76972403Y-55647618D01*
X77181927Y-55590475D02*
X77181927Y-55780951D01*
X77181927Y-55780951D02*
X76781927Y-55780951D01*
X76781927Y-55780951D02*
X76781927Y-55590475D01*
X77181927Y-55190475D02*
X76991451Y-55323808D01*
X77181927Y-55419046D02*
X76781927Y-55419046D01*
X76781927Y-55419046D02*
X76781927Y-55266665D01*
X76781927Y-55266665D02*
X76800975Y-55228570D01*
X76800975Y-55228570D02*
X76820022Y-55209523D01*
X76820022Y-55209523D02*
X76858118Y-55190475D01*
X76858118Y-55190475D02*
X76915260Y-55190475D01*
X76915260Y-55190475D02*
X76953356Y-55209523D01*
X76953356Y-55209523D02*
X76972403Y-55228570D01*
X76972403Y-55228570D02*
X76991451Y-55266665D01*
X76991451Y-55266665D02*
X76991451Y-55419046D01*
X76781927Y-55076189D02*
X77181927Y-54942856D01*
X77181927Y-54942856D02*
X76781927Y-54809523D01*
X76781927Y-54599999D02*
X76781927Y-54523808D01*
X76781927Y-54523808D02*
X76800975Y-54485713D01*
X76800975Y-54485713D02*
X76839070Y-54447618D01*
X76839070Y-54447618D02*
X76915260Y-54428570D01*
X76915260Y-54428570D02*
X77048594Y-54428570D01*
X77048594Y-54428570D02*
X77124784Y-54447618D01*
X77124784Y-54447618D02*
X77162880Y-54485713D01*
X77162880Y-54485713D02*
X77181927Y-54523808D01*
X77181927Y-54523808D02*
X77181927Y-54599999D01*
X77181927Y-54599999D02*
X77162880Y-54638094D01*
X77162880Y-54638094D02*
X77124784Y-54676189D01*
X77124784Y-54676189D02*
X77048594Y-54695237D01*
X77048594Y-54695237D02*
X76915260Y-54695237D01*
X76915260Y-54695237D02*
X76839070Y-54676189D01*
X76839070Y-54676189D02*
X76800975Y-54638094D01*
X76800975Y-54638094D02*
X76781927Y-54599999D01*
D10*
X10611428Y-36954819D02*
X10611428Y-37669104D01*
X10611428Y-37669104D02*
X10563809Y-37811961D01*
X10563809Y-37811961D02*
X10468571Y-37907200D01*
X10468571Y-37907200D02*
X10325714Y-37954819D01*
X10325714Y-37954819D02*
X10230476Y-37954819D01*
X10849524Y-38050057D02*
X11611428Y-38050057D01*
X12325714Y-37954819D02*
X11849524Y-37954819D01*
X11849524Y-37954819D02*
X11849524Y-36954819D01*
X13135238Y-36954819D02*
X12659048Y-36954819D01*
X12659048Y-36954819D02*
X12611429Y-37431009D01*
X12611429Y-37431009D02*
X12659048Y-37383390D01*
X12659048Y-37383390D02*
X12754286Y-37335771D01*
X12754286Y-37335771D02*
X12992381Y-37335771D01*
X12992381Y-37335771D02*
X13087619Y-37383390D01*
X13087619Y-37383390D02*
X13135238Y-37431009D01*
X13135238Y-37431009D02*
X13182857Y-37526247D01*
X13182857Y-37526247D02*
X13182857Y-37764342D01*
X13182857Y-37764342D02*
X13135238Y-37859580D01*
X13135238Y-37859580D02*
X13087619Y-37907200D01*
X13087619Y-37907200D02*
X12992381Y-37954819D01*
X12992381Y-37954819D02*
X12754286Y-37954819D01*
X12754286Y-37954819D02*
X12659048Y-37907200D01*
X12659048Y-37907200D02*
X12611429Y-37859580D01*
X13373334Y-38050057D02*
X14135238Y-38050057D01*
X14706667Y-37431009D02*
X14373334Y-37431009D01*
X14373334Y-37954819D02*
X14373334Y-36954819D01*
X14373334Y-36954819D02*
X14849524Y-36954819D01*
D11*
X48409524Y-64181927D02*
X48276191Y-63991451D01*
X48180953Y-64181927D02*
X48180953Y-63781927D01*
X48180953Y-63781927D02*
X48333334Y-63781927D01*
X48333334Y-63781927D02*
X48371429Y-63800975D01*
X48371429Y-63800975D02*
X48390476Y-63820022D01*
X48390476Y-63820022D02*
X48409524Y-63858118D01*
X48409524Y-63858118D02*
X48409524Y-63915260D01*
X48409524Y-63915260D02*
X48390476Y-63953356D01*
X48390476Y-63953356D02*
X48371429Y-63972403D01*
X48371429Y-63972403D02*
X48333334Y-63991451D01*
X48333334Y-63991451D02*
X48180953Y-63991451D01*
X48485715Y-64220022D02*
X48790476Y-64220022D01*
X49019048Y-63972403D02*
X48885715Y-63972403D01*
X48885715Y-64181927D02*
X48885715Y-63781927D01*
X48885715Y-63781927D02*
X49076191Y-63781927D01*
X49361905Y-63972403D02*
X49419048Y-63991451D01*
X49419048Y-63991451D02*
X49438095Y-64010499D01*
X49438095Y-64010499D02*
X49457143Y-64048594D01*
X49457143Y-64048594D02*
X49457143Y-64105737D01*
X49457143Y-64105737D02*
X49438095Y-64143832D01*
X49438095Y-64143832D02*
X49419048Y-64162880D01*
X49419048Y-64162880D02*
X49380953Y-64181927D01*
X49380953Y-64181927D02*
X49228572Y-64181927D01*
X49228572Y-64181927D02*
X49228572Y-63781927D01*
X49228572Y-63781927D02*
X49361905Y-63781927D01*
X49361905Y-63781927D02*
X49400000Y-63800975D01*
X49400000Y-63800975D02*
X49419048Y-63820022D01*
X49419048Y-63820022D02*
X49438095Y-63858118D01*
X49438095Y-63858118D02*
X49438095Y-63896213D01*
X49438095Y-63896213D02*
X49419048Y-63934308D01*
X49419048Y-63934308D02*
X49400000Y-63953356D01*
X49400000Y-63953356D02*
X49361905Y-63972403D01*
X49361905Y-63972403D02*
X49228572Y-63972403D01*
X49609524Y-63820022D02*
X49628572Y-63800975D01*
X49628572Y-63800975D02*
X49666667Y-63781927D01*
X49666667Y-63781927D02*
X49761905Y-63781927D01*
X49761905Y-63781927D02*
X49800000Y-63800975D01*
X49800000Y-63800975D02*
X49819048Y-63820022D01*
X49819048Y-63820022D02*
X49838095Y-63858118D01*
X49838095Y-63858118D02*
X49838095Y-63896213D01*
X49838095Y-63896213D02*
X49819048Y-63953356D01*
X49819048Y-63953356D02*
X49590476Y-64181927D01*
X49590476Y-64181927D02*
X49838095Y-64181927D01*
X29681927Y-6733333D02*
X29491451Y-6866666D01*
X29681927Y-6961904D02*
X29281927Y-6961904D01*
X29281927Y-6961904D02*
X29281927Y-6809523D01*
X29281927Y-6809523D02*
X29300975Y-6771428D01*
X29300975Y-6771428D02*
X29320022Y-6752381D01*
X29320022Y-6752381D02*
X29358118Y-6733333D01*
X29358118Y-6733333D02*
X29415260Y-6733333D01*
X29415260Y-6733333D02*
X29453356Y-6752381D01*
X29453356Y-6752381D02*
X29472403Y-6771428D01*
X29472403Y-6771428D02*
X29491451Y-6809523D01*
X29491451Y-6809523D02*
X29491451Y-6961904D01*
X29720022Y-6657143D02*
X29720022Y-6352381D01*
X29472403Y-6123809D02*
X29472403Y-6257142D01*
X29681927Y-6257142D02*
X29281927Y-6257142D01*
X29281927Y-6257142D02*
X29281927Y-6066666D01*
X29281927Y-5914285D02*
X29605737Y-5914285D01*
X29605737Y-5914285D02*
X29643832Y-5895238D01*
X29643832Y-5895238D02*
X29662880Y-5876190D01*
X29662880Y-5876190D02*
X29681927Y-5838095D01*
X29681927Y-5838095D02*
X29681927Y-5761904D01*
X29681927Y-5761904D02*
X29662880Y-5723809D01*
X29662880Y-5723809D02*
X29643832Y-5704762D01*
X29643832Y-5704762D02*
X29605737Y-5685714D01*
X29605737Y-5685714D02*
X29281927Y-5685714D01*
X29681927Y-5304761D02*
X29681927Y-5495237D01*
X29681927Y-5495237D02*
X29281927Y-5495237D01*
X29681927Y-4980951D02*
X29681927Y-5171427D01*
X29681927Y-5171427D02*
X29281927Y-5171427D01*
D10*
X90611428Y-54954819D02*
X90611428Y-55669104D01*
X90611428Y-55669104D02*
X90563809Y-55811961D01*
X90563809Y-55811961D02*
X90468571Y-55907200D01*
X90468571Y-55907200D02*
X90325714Y-55954819D01*
X90325714Y-55954819D02*
X90230476Y-55954819D01*
X90849524Y-56050057D02*
X91611428Y-56050057D01*
X92325714Y-55954819D02*
X91849524Y-55954819D01*
X91849524Y-55954819D02*
X91849524Y-54954819D01*
X92563810Y-54954819D02*
X93182857Y-54954819D01*
X93182857Y-54954819D02*
X92849524Y-55335771D01*
X92849524Y-55335771D02*
X92992381Y-55335771D01*
X92992381Y-55335771D02*
X93087619Y-55383390D01*
X93087619Y-55383390D02*
X93135238Y-55431009D01*
X93135238Y-55431009D02*
X93182857Y-55526247D01*
X93182857Y-55526247D02*
X93182857Y-55764342D01*
X93182857Y-55764342D02*
X93135238Y-55859580D01*
X93135238Y-55859580D02*
X93087619Y-55907200D01*
X93087619Y-55907200D02*
X92992381Y-55954819D01*
X92992381Y-55954819D02*
X92706667Y-55954819D01*
X92706667Y-55954819D02*
X92611429Y-55907200D01*
X92611429Y-55907200D02*
X92563810Y-55859580D01*
X93373334Y-56050057D02*
X94135238Y-56050057D01*
X94706667Y-55431009D02*
X94373334Y-55431009D01*
X94373334Y-55954819D02*
X94373334Y-54954819D01*
X94373334Y-54954819D02*
X94849524Y-54954819D01*
D13*
X18261905Y-11679530D02*
X18238096Y-11703340D01*
X18238096Y-11703340D02*
X18166667Y-11727149D01*
X18166667Y-11727149D02*
X18119048Y-11727149D01*
X18119048Y-11727149D02*
X18047620Y-11703340D01*
X18047620Y-11703340D02*
X18000001Y-11655720D01*
X18000001Y-11655720D02*
X17976191Y-11608101D01*
X17976191Y-11608101D02*
X17952382Y-11512863D01*
X17952382Y-11512863D02*
X17952382Y-11441435D01*
X17952382Y-11441435D02*
X17976191Y-11346197D01*
X17976191Y-11346197D02*
X18000001Y-11298578D01*
X18000001Y-11298578D02*
X18047620Y-11250959D01*
X18047620Y-11250959D02*
X18119048Y-11227149D01*
X18119048Y-11227149D02*
X18166667Y-11227149D01*
X18166667Y-11227149D02*
X18238096Y-11250959D01*
X18238096Y-11250959D02*
X18261905Y-11274768D01*
X18357144Y-11774768D02*
X18738096Y-11774768D01*
X18785715Y-11227149D02*
X18952381Y-11727149D01*
X18952381Y-11727149D02*
X19119048Y-11227149D01*
X19452381Y-11465244D02*
X19523809Y-11489054D01*
X19523809Y-11489054D02*
X19547619Y-11512863D01*
X19547619Y-11512863D02*
X19571428Y-11560482D01*
X19571428Y-11560482D02*
X19571428Y-11631911D01*
X19571428Y-11631911D02*
X19547619Y-11679530D01*
X19547619Y-11679530D02*
X19523809Y-11703340D01*
X19523809Y-11703340D02*
X19476190Y-11727149D01*
X19476190Y-11727149D02*
X19285714Y-11727149D01*
X19285714Y-11727149D02*
X19285714Y-11227149D01*
X19285714Y-11227149D02*
X19452381Y-11227149D01*
X19452381Y-11227149D02*
X19500000Y-11250959D01*
X19500000Y-11250959D02*
X19523809Y-11274768D01*
X19523809Y-11274768D02*
X19547619Y-11322387D01*
X19547619Y-11322387D02*
X19547619Y-11370006D01*
X19547619Y-11370006D02*
X19523809Y-11417625D01*
X19523809Y-11417625D02*
X19500000Y-11441435D01*
X19500000Y-11441435D02*
X19452381Y-11465244D01*
X19452381Y-11465244D02*
X19285714Y-11465244D01*
X19785714Y-11227149D02*
X19785714Y-11631911D01*
X19785714Y-11631911D02*
X19809524Y-11679530D01*
X19809524Y-11679530D02*
X19833333Y-11703340D01*
X19833333Y-11703340D02*
X19880952Y-11727149D01*
X19880952Y-11727149D02*
X19976190Y-11727149D01*
X19976190Y-11727149D02*
X20023809Y-11703340D01*
X20023809Y-11703340D02*
X20047619Y-11679530D01*
X20047619Y-11679530D02*
X20071428Y-11631911D01*
X20071428Y-11631911D02*
X20071428Y-11227149D01*
X20285715Y-11703340D02*
X20357143Y-11727149D01*
X20357143Y-11727149D02*
X20476191Y-11727149D01*
X20476191Y-11727149D02*
X20523810Y-11703340D01*
X20523810Y-11703340D02*
X20547619Y-11679530D01*
X20547619Y-11679530D02*
X20571429Y-11631911D01*
X20571429Y-11631911D02*
X20571429Y-11584292D01*
X20571429Y-11584292D02*
X20547619Y-11536673D01*
X20547619Y-11536673D02*
X20523810Y-11512863D01*
X20523810Y-11512863D02*
X20476191Y-11489054D01*
X20476191Y-11489054D02*
X20380953Y-11465244D01*
X20380953Y-11465244D02*
X20333334Y-11441435D01*
X20333334Y-11441435D02*
X20309524Y-11417625D01*
X20309524Y-11417625D02*
X20285715Y-11370006D01*
X20285715Y-11370006D02*
X20285715Y-11322387D01*
X20285715Y-11322387D02*
X20309524Y-11274768D01*
X20309524Y-11274768D02*
X20333334Y-11250959D01*
X20333334Y-11250959D02*
X20380953Y-11227149D01*
X20380953Y-11227149D02*
X20500000Y-11227149D01*
X20500000Y-11227149D02*
X20571429Y-11250959D01*
X21047619Y-11727149D02*
X20761905Y-11727149D01*
X20904762Y-11727149D02*
X20904762Y-11227149D01*
X20904762Y-11227149D02*
X20857143Y-11298578D01*
X20857143Y-11298578D02*
X20809524Y-11346197D01*
X20809524Y-11346197D02*
X20761905Y-11370006D01*
D10*
X10659047Y-23454819D02*
X10659047Y-24169104D01*
X10659047Y-24169104D02*
X10611428Y-24311961D01*
X10611428Y-24311961D02*
X10516190Y-24407200D01*
X10516190Y-24407200D02*
X10373333Y-24454819D01*
X10373333Y-24454819D02*
X10278095Y-24454819D01*
X10897143Y-24550057D02*
X11659047Y-24550057D01*
X12373333Y-24454819D02*
X11897143Y-24454819D01*
X11897143Y-24454819D02*
X11897143Y-23454819D01*
X13135238Y-23788152D02*
X13135238Y-24454819D01*
X12897143Y-23407200D02*
X12659048Y-24121485D01*
X12659048Y-24121485D02*
X13278095Y-24121485D01*
X13420953Y-24550057D02*
X14182857Y-24550057D01*
X14278096Y-23454819D02*
X14849524Y-23454819D01*
X14563810Y-24454819D02*
X14563810Y-23454819D01*
X49666666Y-4019819D02*
X49666666Y-4734104D01*
X49666666Y-4734104D02*
X49619047Y-4876961D01*
X49619047Y-4876961D02*
X49523809Y-4972200D01*
X49523809Y-4972200D02*
X49380952Y-5019819D01*
X49380952Y-5019819D02*
X49285714Y-5019819D01*
X50666666Y-5019819D02*
X50095238Y-5019819D01*
X50380952Y-5019819D02*
X50380952Y-4019819D01*
X50380952Y-4019819D02*
X50285714Y-4162676D01*
X50285714Y-4162676D02*
X50190476Y-4257914D01*
X50190476Y-4257914D02*
X50095238Y-4305533D01*
D11*
X63076191Y-23181927D02*
X63076191Y-22781927D01*
X63076191Y-22781927D02*
X63171429Y-22781927D01*
X63171429Y-22781927D02*
X63228572Y-22800975D01*
X63228572Y-22800975D02*
X63266667Y-22839070D01*
X63266667Y-22839070D02*
X63285714Y-22877165D01*
X63285714Y-22877165D02*
X63304762Y-22953356D01*
X63304762Y-22953356D02*
X63304762Y-23010499D01*
X63304762Y-23010499D02*
X63285714Y-23086689D01*
X63285714Y-23086689D02*
X63266667Y-23124784D01*
X63266667Y-23124784D02*
X63228572Y-23162880D01*
X63228572Y-23162880D02*
X63171429Y-23181927D01*
X63171429Y-23181927D02*
X63076191Y-23181927D01*
X63380953Y-23220022D02*
X63685714Y-23220022D01*
X63761905Y-23162880D02*
X63819048Y-23181927D01*
X63819048Y-23181927D02*
X63914286Y-23181927D01*
X63914286Y-23181927D02*
X63952381Y-23162880D01*
X63952381Y-23162880D02*
X63971429Y-23143832D01*
X63971429Y-23143832D02*
X63990476Y-23105737D01*
X63990476Y-23105737D02*
X63990476Y-23067641D01*
X63990476Y-23067641D02*
X63971429Y-23029546D01*
X63971429Y-23029546D02*
X63952381Y-23010499D01*
X63952381Y-23010499D02*
X63914286Y-22991451D01*
X63914286Y-22991451D02*
X63838095Y-22972403D01*
X63838095Y-22972403D02*
X63800000Y-22953356D01*
X63800000Y-22953356D02*
X63780953Y-22934308D01*
X63780953Y-22934308D02*
X63761905Y-22896213D01*
X63761905Y-22896213D02*
X63761905Y-22858118D01*
X63761905Y-22858118D02*
X63780953Y-22820022D01*
X63780953Y-22820022D02*
X63800000Y-22800975D01*
X63800000Y-22800975D02*
X63838095Y-22781927D01*
X63838095Y-22781927D02*
X63933334Y-22781927D01*
X63933334Y-22781927D02*
X63990476Y-22800975D01*
X64104762Y-22781927D02*
X64333333Y-22781927D01*
X64219047Y-23181927D02*
X64219047Y-22781927D01*
X64447619Y-23067641D02*
X64638095Y-23067641D01*
X64409524Y-23181927D02*
X64542857Y-22781927D01*
X64542857Y-22781927D02*
X64676190Y-23181927D01*
X64752381Y-22781927D02*
X64980952Y-22781927D01*
X64866666Y-23181927D02*
X64866666Y-22781927D01*
D10*
X70773809Y-50359580D02*
X70726190Y-50407200D01*
X70726190Y-50407200D02*
X70583333Y-50454819D01*
X70583333Y-50454819D02*
X70488095Y-50454819D01*
X70488095Y-50454819D02*
X70345238Y-50407200D01*
X70345238Y-50407200D02*
X70250000Y-50311961D01*
X70250000Y-50311961D02*
X70202381Y-50216723D01*
X70202381Y-50216723D02*
X70154762Y-50026247D01*
X70154762Y-50026247D02*
X70154762Y-49883390D01*
X70154762Y-49883390D02*
X70202381Y-49692914D01*
X70202381Y-49692914D02*
X70250000Y-49597676D01*
X70250000Y-49597676D02*
X70345238Y-49502438D01*
X70345238Y-49502438D02*
X70488095Y-49454819D01*
X70488095Y-49454819D02*
X70583333Y-49454819D01*
X70583333Y-49454819D02*
X70726190Y-49502438D01*
X70726190Y-49502438D02*
X70773809Y-49550057D01*
X70964286Y-50550057D02*
X71726190Y-50550057D01*
X72154762Y-49454819D02*
X72345238Y-49454819D01*
X72345238Y-49454819D02*
X72440476Y-49502438D01*
X72440476Y-49502438D02*
X72535714Y-49597676D01*
X72535714Y-49597676D02*
X72583333Y-49788152D01*
X72583333Y-49788152D02*
X72583333Y-50121485D01*
X72583333Y-50121485D02*
X72535714Y-50311961D01*
X72535714Y-50311961D02*
X72440476Y-50407200D01*
X72440476Y-50407200D02*
X72345238Y-50454819D01*
X72345238Y-50454819D02*
X72154762Y-50454819D01*
X72154762Y-50454819D02*
X72059524Y-50407200D01*
X72059524Y-50407200D02*
X71964286Y-50311961D01*
X71964286Y-50311961D02*
X71916667Y-50121485D01*
X71916667Y-50121485D02*
X71916667Y-49788152D01*
X71916667Y-49788152D02*
X71964286Y-49597676D01*
X71964286Y-49597676D02*
X72059524Y-49502438D01*
X72059524Y-49502438D02*
X72154762Y-49454819D01*
X73011905Y-49454819D02*
X73011905Y-50264342D01*
X73011905Y-50264342D02*
X73059524Y-50359580D01*
X73059524Y-50359580D02*
X73107143Y-50407200D01*
X73107143Y-50407200D02*
X73202381Y-50454819D01*
X73202381Y-50454819D02*
X73392857Y-50454819D01*
X73392857Y-50454819D02*
X73488095Y-50407200D01*
X73488095Y-50407200D02*
X73535714Y-50359580D01*
X73535714Y-50359580D02*
X73583333Y-50264342D01*
X73583333Y-50264342D02*
X73583333Y-49454819D01*
X73916667Y-49454819D02*
X74488095Y-49454819D01*
X74202381Y-50454819D02*
X74202381Y-49454819D01*
X75345238Y-50454819D02*
X74773810Y-50454819D01*
X75059524Y-50454819D02*
X75059524Y-49454819D01*
X75059524Y-49454819D02*
X74964286Y-49597676D01*
X74964286Y-49597676D02*
X74869048Y-49692914D01*
X74869048Y-49692914D02*
X74773810Y-49740533D01*
X39023809Y-61554819D02*
X39023809Y-60554819D01*
X39023809Y-60554819D02*
X39261904Y-60554819D01*
X39261904Y-60554819D02*
X39404761Y-60602438D01*
X39404761Y-60602438D02*
X39499999Y-60697676D01*
X39499999Y-60697676D02*
X39547618Y-60792914D01*
X39547618Y-60792914D02*
X39595237Y-60983390D01*
X39595237Y-60983390D02*
X39595237Y-61126247D01*
X39595237Y-61126247D02*
X39547618Y-61316723D01*
X39547618Y-61316723D02*
X39499999Y-61411961D01*
X39499999Y-61411961D02*
X39404761Y-61507200D01*
X39404761Y-61507200D02*
X39261904Y-61554819D01*
X39261904Y-61554819D02*
X39023809Y-61554819D01*
X39785714Y-61650057D02*
X40547618Y-61650057D01*
X41357142Y-61459580D02*
X41309523Y-61507200D01*
X41309523Y-61507200D02*
X41166666Y-61554819D01*
X41166666Y-61554819D02*
X41071428Y-61554819D01*
X41071428Y-61554819D02*
X40928571Y-61507200D01*
X40928571Y-61507200D02*
X40833333Y-61411961D01*
X40833333Y-61411961D02*
X40785714Y-61316723D01*
X40785714Y-61316723D02*
X40738095Y-61126247D01*
X40738095Y-61126247D02*
X40738095Y-60983390D01*
X40738095Y-60983390D02*
X40785714Y-60792914D01*
X40785714Y-60792914D02*
X40833333Y-60697676D01*
X40833333Y-60697676D02*
X40928571Y-60602438D01*
X40928571Y-60602438D02*
X41071428Y-60554819D01*
X41071428Y-60554819D02*
X41166666Y-60554819D01*
X41166666Y-60554819D02*
X41309523Y-60602438D01*
X41309523Y-60602438D02*
X41357142Y-60650057D01*
X41738095Y-61269104D02*
X42214285Y-61269104D01*
X41642857Y-61554819D02*
X41976190Y-60554819D01*
X41976190Y-60554819D02*
X42309523Y-61554819D01*
X42500000Y-60554819D02*
X43071428Y-60554819D01*
X42785714Y-61554819D02*
X42785714Y-60554819D01*
X43976190Y-61459580D02*
X43928571Y-61507200D01*
X43928571Y-61507200D02*
X43785714Y-61554819D01*
X43785714Y-61554819D02*
X43690476Y-61554819D01*
X43690476Y-61554819D02*
X43547619Y-61507200D01*
X43547619Y-61507200D02*
X43452381Y-61411961D01*
X43452381Y-61411961D02*
X43404762Y-61316723D01*
X43404762Y-61316723D02*
X43357143Y-61126247D01*
X43357143Y-61126247D02*
X43357143Y-60983390D01*
X43357143Y-60983390D02*
X43404762Y-60792914D01*
X43404762Y-60792914D02*
X43452381Y-60697676D01*
X43452381Y-60697676D02*
X43547619Y-60602438D01*
X43547619Y-60602438D02*
X43690476Y-60554819D01*
X43690476Y-60554819D02*
X43785714Y-60554819D01*
X43785714Y-60554819D02*
X43928571Y-60602438D01*
X43928571Y-60602438D02*
X43976190Y-60650057D01*
X44404762Y-61554819D02*
X44404762Y-60554819D01*
X44404762Y-61031009D02*
X44976190Y-61031009D01*
X44976190Y-61554819D02*
X44976190Y-60554819D01*
X90659047Y-23454819D02*
X90659047Y-24169104D01*
X90659047Y-24169104D02*
X90611428Y-24311961D01*
X90611428Y-24311961D02*
X90516190Y-24407200D01*
X90516190Y-24407200D02*
X90373333Y-24454819D01*
X90373333Y-24454819D02*
X90278095Y-24454819D01*
X90897143Y-24550057D02*
X91659047Y-24550057D01*
X92373333Y-24454819D02*
X91897143Y-24454819D01*
X91897143Y-24454819D02*
X91897143Y-23454819D01*
X93230476Y-24454819D02*
X92659048Y-24454819D01*
X92944762Y-24454819D02*
X92944762Y-23454819D01*
X92944762Y-23454819D02*
X92849524Y-23597676D01*
X92849524Y-23597676D02*
X92754286Y-23692914D01*
X92754286Y-23692914D02*
X92659048Y-23740533D01*
X93420953Y-24550057D02*
X94182857Y-24550057D01*
X94278096Y-23454819D02*
X94849524Y-23454819D01*
X94563810Y-24454819D02*
X94563810Y-23454819D01*
D11*
X42181927Y-5619047D02*
X41991451Y-5752380D01*
X42181927Y-5847618D02*
X41781927Y-5847618D01*
X41781927Y-5847618D02*
X41781927Y-5695237D01*
X41781927Y-5695237D02*
X41800975Y-5657142D01*
X41800975Y-5657142D02*
X41820022Y-5638095D01*
X41820022Y-5638095D02*
X41858118Y-5619047D01*
X41858118Y-5619047D02*
X41915260Y-5619047D01*
X41915260Y-5619047D02*
X41953356Y-5638095D01*
X41953356Y-5638095D02*
X41972403Y-5657142D01*
X41972403Y-5657142D02*
X41991451Y-5695237D01*
X41991451Y-5695237D02*
X41991451Y-5847618D01*
X42220022Y-5542857D02*
X42220022Y-5238095D01*
X42143832Y-4914285D02*
X42162880Y-4933333D01*
X42162880Y-4933333D02*
X42181927Y-4990475D01*
X42181927Y-4990475D02*
X42181927Y-5028571D01*
X42181927Y-5028571D02*
X42162880Y-5085714D01*
X42162880Y-5085714D02*
X42124784Y-5123809D01*
X42124784Y-5123809D02*
X42086689Y-5142856D01*
X42086689Y-5142856D02*
X42010499Y-5161904D01*
X42010499Y-5161904D02*
X41953356Y-5161904D01*
X41953356Y-5161904D02*
X41877165Y-5142856D01*
X41877165Y-5142856D02*
X41839070Y-5123809D01*
X41839070Y-5123809D02*
X41800975Y-5085714D01*
X41800975Y-5085714D02*
X41781927Y-5028571D01*
X41781927Y-5028571D02*
X41781927Y-4990475D01*
X41781927Y-4990475D02*
X41800975Y-4933333D01*
X41800975Y-4933333D02*
X41820022Y-4914285D01*
X42143832Y-4514285D02*
X42162880Y-4533333D01*
X42162880Y-4533333D02*
X42181927Y-4590475D01*
X42181927Y-4590475D02*
X42181927Y-4628571D01*
X42181927Y-4628571D02*
X42162880Y-4685714D01*
X42162880Y-4685714D02*
X42124784Y-4723809D01*
X42124784Y-4723809D02*
X42086689Y-4742856D01*
X42086689Y-4742856D02*
X42010499Y-4761904D01*
X42010499Y-4761904D02*
X41953356Y-4761904D01*
X41953356Y-4761904D02*
X41877165Y-4742856D01*
X41877165Y-4742856D02*
X41839070Y-4723809D01*
X41839070Y-4723809D02*
X41800975Y-4685714D01*
X41800975Y-4685714D02*
X41781927Y-4628571D01*
X41781927Y-4628571D02*
X41781927Y-4590475D01*
X41781927Y-4590475D02*
X41800975Y-4533333D01*
X41800975Y-4533333D02*
X41820022Y-4514285D01*
X42181927Y-4133333D02*
X42181927Y-4361904D01*
X42181927Y-4247618D02*
X41781927Y-4247618D01*
X41781927Y-4247618D02*
X41839070Y-4285714D01*
X41839070Y-4285714D02*
X41877165Y-4323809D01*
X41877165Y-4323809D02*
X41896213Y-4361904D01*
%TO.C,J_L4_C*%
D14*
X8730000Y-13730000D02*
X16350000Y-13730000D01*
X8730000Y-15635000D02*
X8730000Y-13730000D01*
X9365000Y-16270000D02*
X8730000Y-15635000D01*
X16350000Y-13730000D02*
X16350000Y-16270000D01*
X16350000Y-16270000D02*
X9365000Y-16270000D01*
%TO.C,C_PCA3*%
X71200000Y-29600000D02*
X72800000Y-29600000D01*
X72800000Y-30400000D01*
X71200000Y-30400000D01*
X71200000Y-29600000D01*
%TO.C,J_L3_C*%
X88730000Y-49730000D02*
X96350000Y-49730000D01*
X88730000Y-51635000D02*
X88730000Y-49730000D01*
X89365000Y-52270000D02*
X88730000Y-51635000D01*
X96350000Y-49730000D02*
X96350000Y-52270000D01*
X96350000Y-52270000D02*
X89365000Y-52270000D01*
%TO.C,J_L6_F*%
X8730000Y-54230000D02*
X16350000Y-54230000D01*
X8730000Y-56135000D02*
X8730000Y-54230000D01*
X9365000Y-56770000D02*
X8730000Y-56135000D01*
X16350000Y-54230000D02*
X16350000Y-56770000D01*
X16350000Y-56770000D02*
X9365000Y-56770000D01*
%TO.C,R_CHG*%
X22587500Y-5200000D02*
X23412500Y-5200000D01*
X23412500Y-6800000D01*
X22587500Y-6800000D01*
X22587500Y-5200000D01*
%TO.C,R_STAT*%
X63200000Y-18587500D02*
X64800000Y-18587500D01*
X64800000Y-19412500D01*
X63200000Y-19412500D01*
X63200000Y-18587500D01*
%TO.C,J_L6_C*%
X8730000Y-49730000D02*
X16350000Y-49730000D01*
X8730000Y-51635000D02*
X8730000Y-49730000D01*
X9365000Y-52270000D02*
X8730000Y-51635000D01*
X16350000Y-49730000D02*
X16350000Y-52270000D01*
X16350000Y-52270000D02*
X9365000Y-52270000D01*
%TO.C,C_VBUS2*%
X22200000Y-11100000D02*
X23800000Y-11100000D01*
X23800000Y-11900000D01*
X22200000Y-11900000D01*
X22200000Y-11100000D01*
%TO.C,J_BAT*%
X19850000Y-61000000D02*
X20550000Y-61000000D01*
X19850000Y-63000000D02*
X20550000Y-63000000D01*
X20550000Y-58900000D02*
X20550000Y-61000000D01*
X20550000Y-58900000D02*
X30450000Y-58900000D01*
X20550000Y-63000000D02*
X20550000Y-67900000D01*
X20550000Y-67900000D02*
X30450000Y-67900000D01*
X30450000Y-58900000D02*
X30450000Y-61000000D01*
X30450000Y-61000000D02*
X31150000Y-61000000D01*
X30450000Y-63000000D02*
X30450000Y-67900000D01*
X30450000Y-63000000D02*
X31150000Y-63000000D01*
X19850000Y-63000000D02*
G75*
G02*
X19850000Y-61000000I0J1000000D01*
G01*
X31150000Y-61000000D02*
G75*
G02*
X31150000Y-63000000I0J-1000000D01*
G01*
%TO.C,U1*%
X41000000Y-11250000D02*
X59000000Y-11250000D01*
X41000000Y-17250000D02*
X59000000Y-17250000D01*
X41000000Y-36750000D02*
X41000000Y-11250000D01*
X41000000Y-36750000D02*
X59000000Y-36750000D01*
X59000000Y-36750000D02*
X59000000Y-11250000D01*
%TO.C,C2*%
X33200000Y-21600000D02*
X34800000Y-21600000D01*
X34800000Y-22400000D01*
X33200000Y-22400000D01*
X33200000Y-21600000D01*
%TO.C,C_OUT2*%
X70200000Y-56400000D02*
X71800000Y-56400000D01*
X71800000Y-59600000D01*
X70200000Y-59600000D01*
X70200000Y-56400000D01*
%TO.C,R_SDA*%
X45200000Y-41587500D02*
X46800000Y-41587500D01*
X46800000Y-42412500D01*
X45200000Y-42412500D01*
X45200000Y-41587500D01*
%TO.C,J_L1_F*%
X88730000Y-18230000D02*
X96350000Y-18230000D01*
X88730000Y-20135000D02*
X88730000Y-18230000D01*
X89365000Y-20770000D02*
X88730000Y-20135000D01*
X96350000Y-18230000D02*
X96350000Y-20770000D01*
X96350000Y-20770000D02*
X89365000Y-20770000D01*
%TO.C,C_DIV*%
X73200000Y-26600000D02*
X74800000Y-26600000D01*
X74800000Y-27400000D01*
X73200000Y-27400000D01*
X73200000Y-26600000D01*
%TO.C,C_IN1*%
X22323241Y-48252500D02*
X23123241Y-48252500D01*
X22723241Y-47852500D02*
X22723241Y-48652500D01*
X29750000Y-50000000D02*
G75*
G02*
X21750000Y-50000000I-4000000J0D01*
G01*
X21750000Y-50000000D02*
G75*
G02*
X29750000Y-50000000I4000000J0D01*
G01*
%TO.C,L_SERVO*%
X51800000Y-45800000D02*
X51800000Y-48700000D01*
X51800000Y-55300000D02*
X51800000Y-58200000D01*
X51800000Y-58200000D02*
X64200000Y-58200000D01*
X52900000Y-48000000D02*
X53000000Y-48500000D01*
X52900000Y-56100000D02*
X53000000Y-55600000D01*
X53000000Y-48500000D02*
X53200000Y-48800000D01*
X53000000Y-55600000D02*
X53200000Y-55200000D01*
X53100000Y-47500000D02*
X52900000Y-48000000D01*
X53100000Y-56600000D02*
X52900000Y-56100000D01*
X53400000Y-47200000D02*
X53100000Y-47500000D01*
X53400000Y-56800000D02*
X53100000Y-56600000D01*
X53700000Y-57000000D02*
X53400000Y-56800000D01*
X53800000Y-47000000D02*
X53400000Y-47200000D01*
X54100000Y-57100000D02*
X53700000Y-57000000D01*
X54300000Y-46900000D02*
X53800000Y-47000000D01*
X54700000Y-47100000D02*
X54300000Y-46900000D01*
X54700000Y-56900000D02*
X54100000Y-57100000D01*
X55000000Y-47300000D02*
X54700000Y-47100000D01*
X55000000Y-56700000D02*
X54700000Y-56900000D01*
X55400000Y-47100000D02*
X55000000Y-47300000D01*
X55400000Y-56900000D02*
X55000000Y-56700000D01*
X55900000Y-57100000D02*
X55400000Y-56900000D01*
X56300000Y-46700000D02*
X55400000Y-47100000D01*
X56500000Y-57300000D02*
X55900000Y-57100000D01*
X57200000Y-46500000D02*
X56300000Y-46700000D01*
X57400000Y-57500000D02*
X56500000Y-57300000D01*
X58000000Y-46400000D02*
X57200000Y-46500000D01*
X58600000Y-57500000D02*
X57400000Y-57500000D01*
X58900000Y-46500000D02*
X58000000Y-46400000D01*
X59600000Y-57300000D02*
X58600000Y-57500000D01*
X59700000Y-46700000D02*
X58900000Y-46500000D01*
X60200000Y-46900000D02*
X59700000Y-46700000D01*
X60400000Y-57000000D02*
X59600000Y-57300000D01*
X60600000Y-47100000D02*
X60200000Y-46900000D01*
X61000000Y-47400000D02*
X60600000Y-47100000D01*
X61000000Y-56600000D02*
X60400000Y-57000000D01*
X61100000Y-56700000D02*
X61000000Y-56600000D01*
X61300000Y-47100000D02*
X61000000Y-47400000D01*
X61500000Y-57000000D02*
X61100000Y-56700000D01*
X61600000Y-47000000D02*
X61300000Y-47100000D01*
X61900000Y-46900000D02*
X61600000Y-47000000D01*
X62000000Y-57100000D02*
X61500000Y-57000000D01*
X62200000Y-46900000D02*
X61900000Y-46900000D01*
X62500000Y-47100000D02*
X62200000Y-46900000D01*
X62500000Y-57000000D02*
X62000000Y-57100000D01*
X62800000Y-47300000D02*
X62500000Y-47100000D01*
X62800000Y-56600000D02*
X62500000Y-57000000D01*
X62900000Y-48700000D02*
X63000000Y-48400000D01*
X62900000Y-55300000D02*
X63000000Y-55400000D01*
X63000000Y-47700000D02*
X62800000Y-47300000D01*
X63000000Y-48400000D02*
X63100000Y-48000000D01*
X63000000Y-55400000D02*
X63100000Y-55800000D01*
X63000000Y-56300000D02*
X62800000Y-56600000D01*
X63100000Y-48000000D02*
X63000000Y-47700000D01*
X63100000Y-55800000D02*
X63000000Y-56300000D01*
X64200000Y-45800000D02*
X51800000Y-45800000D01*
X64200000Y-45800000D02*
X64200000Y-48700000D01*
X64200000Y-58200000D02*
X64200000Y-55300000D01*
X56290512Y-55000000D02*
G75*
G02*
X55509488Y-55000000I-390512J0D01*
G01*
X55509488Y-55000000D02*
G75*
G02*
X56290512Y-55000000I390512J0D01*
G01*
%TO.C,J_UART*%
X35730000Y-68365000D02*
X36365000Y-67730000D01*
X35730000Y-77890000D02*
X35730000Y-68365000D01*
X36365000Y-67730000D02*
X38270000Y-67730000D01*
X38270000Y-67730000D02*
X38270000Y-77890000D01*
X38270000Y-77890000D02*
X35730000Y-77890000D01*
%TO.C,U4*%
X78150000Y-13650000D02*
X78150000Y-19350000D01*
X78150000Y-13650000D02*
X79150000Y-12650000D01*
X78150000Y-19350000D02*
X81850000Y-19350000D01*
X79150000Y-12650000D02*
X81850000Y-12650000D01*
X81850000Y-12650000D02*
X81850000Y-19350000D01*
%TO.C,J_AUX6*%
X71730000Y-70365000D02*
X72365000Y-69730000D01*
X71730000Y-77350000D02*
X71730000Y-70365000D01*
X72365000Y-69730000D02*
X74270000Y-69730000D01*
X74270000Y-69730000D02*
X74270000Y-77350000D01*
X74270000Y-77350000D02*
X71730000Y-77350000D01*
%TO.C,R_CC2*%
X57587500Y-4200000D02*
X58412500Y-4200000D01*
X58412500Y-5800000D01*
X57587500Y-5800000D01*
X57587500Y-4200000D01*
%TO.C,J_AUX3*%
X53730000Y-70365000D02*
X54365000Y-69730000D01*
X53730000Y-77350000D02*
X53730000Y-70365000D01*
X54365000Y-69730000D02*
X56270000Y-69730000D01*
X56270000Y-69730000D02*
X56270000Y-77350000D01*
X56270000Y-77350000D02*
X53730000Y-77350000D01*
%TO.C,C_3V3_1*%
X83000000Y-21375000D02*
X85000000Y-21375000D01*
X85000000Y-22625000D01*
X83000000Y-22625000D01*
X83000000Y-21375000D01*
%TO.C,U6*%
X72800000Y-33150000D02*
X76200000Y-33150000D01*
X76200000Y-42850000D01*
X71800000Y-42850000D01*
X71800000Y-34150000D01*
X72800000Y-33150000D01*
%TO.C,U5*%
X24800000Y-33150000D02*
X28200000Y-33150000D01*
X28200000Y-42850000D01*
X23800000Y-42850000D01*
X23800000Y-34150000D01*
X24800000Y-33150000D01*
%TO.C,R_DIV2*%
X73200000Y-23087500D02*
X74800000Y-23087500D01*
X74800000Y-23912500D01*
X73200000Y-23912500D01*
X73200000Y-23087500D01*
%TO.C,C1*%
X33000000Y-17375000D02*
X35000000Y-17375000D01*
X35000000Y-18625000D01*
X33000000Y-18625000D01*
X33000000Y-17375000D01*
%TO.C,J_AUX5*%
X65730000Y-70365000D02*
X66365000Y-69730000D01*
X65730000Y-77350000D02*
X65730000Y-70365000D01*
X66365000Y-69730000D02*
X68270000Y-69730000D01*
X68270000Y-69730000D02*
X68270000Y-77350000D01*
X68270000Y-77350000D02*
X65730000Y-77350000D01*
%TO.C,C_3V3_2*%
X83200000Y-24600000D02*
X84800000Y-24600000D01*
X84800000Y-25400000D01*
X83200000Y-25400000D01*
X83200000Y-24600000D01*
%TO.C,LED_CHG*%
X19600000Y-5200000D02*
X19600000Y-6500000D01*
X19600000Y-6500000D02*
X19900000Y-6800000D01*
X19900000Y-6800000D02*
X20400000Y-6800000D01*
X20400000Y-5200000D02*
X19600000Y-5200000D01*
X20400000Y-6800000D02*
X20400000Y-5200000D01*
%TO.C,R_DIV1*%
X73200000Y-19587500D02*
X74800000Y-19587500D01*
X74800000Y-20412500D01*
X73200000Y-20412500D01*
X73200000Y-19587500D01*
%TO.C,R_OE*%
X53200000Y-41587500D02*
X54800000Y-41587500D01*
X54800000Y-42412500D01*
X53200000Y-42412500D01*
X53200000Y-41587500D01*
%TO.C,R1*%
X33200000Y-25587500D02*
X34800000Y-25587500D01*
X34800000Y-26412500D01*
X33200000Y-26412500D01*
X33200000Y-25587500D01*
%TO.C,SW1*%
X31050000Y-4550000D02*
X34950000Y-4550000D01*
X31050000Y-7450000D02*
X31050000Y-4550000D01*
X34950000Y-4550000D02*
X34950000Y-7450000D01*
X34950000Y-7450000D02*
X31050000Y-7450000D01*
X34000000Y-6000000D02*
G75*
G02*
X32000000Y-6000000I-1000000J0D01*
G01*
X32000000Y-6000000D02*
G75*
G02*
X34000000Y-6000000I1000000J0D01*
G01*
%TO.C,LED_FULL*%
X26100000Y-5200000D02*
X26100000Y-6500000D01*
X26100000Y-6500000D02*
X26400000Y-6800000D01*
X26400000Y-6800000D02*
X26900000Y-6800000D01*
X26900000Y-5200000D02*
X26100000Y-5200000D01*
X26900000Y-6800000D02*
X26900000Y-5200000D01*
%TO.C,R_SERVO_LED*%
X76587500Y-59200000D02*
X77412500Y-59200000D01*
X77412500Y-60800000D01*
X76587500Y-60800000D01*
X76587500Y-59200000D01*
%TO.C,J_L2_C*%
X88730000Y-31730000D02*
X96350000Y-31730000D01*
X88730000Y-33635000D02*
X88730000Y-31730000D01*
X89365000Y-34270000D02*
X88730000Y-33635000D01*
X96350000Y-31730000D02*
X96350000Y-34270000D01*
X96350000Y-34270000D02*
X89365000Y-34270000D01*
%TO.C,J_AUX4*%
X59730000Y-70365000D02*
X60365000Y-69730000D01*
X59730000Y-77350000D02*
X59730000Y-70365000D01*
X60365000Y-69730000D02*
X62270000Y-69730000D01*
X62270000Y-69730000D02*
X62270000Y-77350000D01*
X62270000Y-77350000D02*
X59730000Y-77350000D01*
%TO.C,R2*%
X62200000Y-11587500D02*
X63800000Y-11587500D01*
X63800000Y-12412500D01*
X62200000Y-12412500D01*
X62200000Y-11587500D01*
%TO.C,J_L2_F*%
X88730000Y-36230000D02*
X96350000Y-36230000D01*
X88730000Y-38135000D02*
X88730000Y-36230000D01*
X89365000Y-38770000D02*
X88730000Y-38135000D01*
X96350000Y-36230000D02*
X96350000Y-38770000D01*
X96350000Y-38770000D02*
X89365000Y-38770000D01*
%TO.C,R_BZ*%
X63200000Y-26587500D02*
X64800000Y-26587500D01*
X64800000Y-27412500D01*
X63200000Y-27412500D01*
X63200000Y-26587500D01*
%TO.C,C3*%
X33200000Y-29600000D02*
X34800000Y-29600000D01*
X34800000Y-30400000D01*
X33200000Y-30400000D01*
X33200000Y-29600000D01*
%TO.C,R_3V3_LED*%
X83200000Y-30587500D02*
X84800000Y-30587500D01*
X84800000Y-31412500D01*
X83200000Y-31412500D01*
X83200000Y-30587500D01*
%TO.C,C_PCA1*%
X22700000Y-30100000D02*
X24300000Y-30100000D01*
X24300000Y-30900000D01*
X22700000Y-30900000D01*
X22700000Y-30100000D01*
%TO.C,C_OUT3*%
X70200000Y-61600000D02*
X71800000Y-61600000D01*
X71800000Y-62400000D01*
X70200000Y-62400000D01*
X70200000Y-61600000D01*
%TO.C,C_ISO2*%
X71000000Y-9375000D02*
X73000000Y-9375000D01*
X73000000Y-10625000D01*
X71000000Y-10625000D01*
X71000000Y-9375000D01*
%TO.C,J_L4_F*%
X8730000Y-18230000D02*
X16350000Y-18230000D01*
X8730000Y-20135000D02*
X8730000Y-18230000D01*
X9365000Y-20770000D02*
X8730000Y-20135000D01*
X16350000Y-18230000D02*
X16350000Y-20770000D01*
X16350000Y-20770000D02*
X9365000Y-20770000D01*
%TO.C,C_BAT2*%
X30700000Y-11100000D02*
X32300000Y-11100000D01*
X32300000Y-11900000D01*
X30700000Y-11900000D01*
X30700000Y-11100000D01*
%TO.C,D_ISO*%
X70600000Y-5100000D02*
X73400000Y-5100000D01*
X70600000Y-6900000D02*
X70600000Y-5100000D01*
X71250000Y-6000000D02*
X71650000Y-6000000D01*
X71650000Y-6000000D02*
X71650000Y-5450000D01*
X71650000Y-6000000D02*
X71650000Y-6550000D01*
X71650000Y-6000000D02*
X72250000Y-5600000D01*
X72250000Y-5600000D02*
X72250000Y-6400000D01*
X72250000Y-6000000D02*
X72750000Y-6000000D01*
X72250000Y-6400000D02*
X71650000Y-6000000D01*
X73400000Y-5100000D02*
X73400000Y-6900000D01*
X73400000Y-6900000D02*
X70600000Y-6900000D01*
%TO.C,SW_PWR*%
X11850000Y-64700000D02*
X16150000Y-64700000D01*
X11850000Y-70500000D02*
X11850000Y-64700000D01*
X11850000Y-71500000D02*
X12350000Y-71000000D01*
X11850000Y-73300000D02*
X11850000Y-71500000D01*
X12350000Y-71000000D02*
X11850000Y-70500000D01*
X13000000Y-67000000D02*
X15000000Y-67000000D01*
X13000000Y-69000000D02*
X15000000Y-69000000D01*
X13000000Y-69660000D02*
X15000000Y-69660000D01*
X13000000Y-70340000D02*
X15000000Y-70340000D01*
X13000000Y-71000000D02*
X13000000Y-67000000D01*
X13000000Y-71000000D02*
X15000000Y-71000000D01*
X15000000Y-71000000D02*
X15000000Y-67000000D01*
X16150000Y-64700000D02*
X16150000Y-73300000D01*
X16150000Y-73300000D02*
X11850000Y-73300000D01*
%TO.C,SW2*%
X60050000Y-4550000D02*
X63950000Y-4550000D01*
X60050000Y-7450000D02*
X60050000Y-4550000D01*
X63950000Y-4550000D02*
X63950000Y-7450000D01*
X63950000Y-7450000D02*
X60050000Y-7450000D01*
X63000000Y-6000000D02*
G75*
G02*
X61000000Y-6000000I-1000000J0D01*
G01*
X61000000Y-6000000D02*
G75*
G02*
X63000000Y-6000000I1000000J0D01*
G01*
%TO.C,J_L2_T*%
X88730000Y-40730000D02*
X96350000Y-40730000D01*
X88730000Y-42635000D02*
X88730000Y-40730000D01*
X89365000Y-43270000D02*
X88730000Y-42635000D01*
X96350000Y-40730000D02*
X96350000Y-43270000D01*
X96350000Y-43270000D02*
X89365000Y-43270000D01*
%TO.C,J_L1_C*%
X88730000Y-13730000D02*
X96350000Y-13730000D01*
X88730000Y-15635000D02*
X88730000Y-13730000D01*
X89365000Y-16270000D02*
X88730000Y-15635000D01*
X96350000Y-13730000D02*
X96350000Y-16270000D01*
X96350000Y-16270000D02*
X89365000Y-16270000D01*
%TO.C,J_L6_T*%
X8730000Y-58730000D02*
X16350000Y-58730000D01*
X8730000Y-60635000D02*
X8730000Y-58730000D01*
X9365000Y-61270000D02*
X8730000Y-60635000D01*
X16350000Y-58730000D02*
X16350000Y-61270000D01*
X16350000Y-61270000D02*
X9365000Y-61270000D01*
%TO.C,L_CHG*%
X18350000Y-16350000D02*
X18350000Y-18600000D01*
X18350000Y-16350000D02*
X25650000Y-16350000D01*
X18350000Y-23650000D02*
X18350000Y-21400000D01*
X25650000Y-16350000D02*
X25650000Y-18600000D01*
X25650000Y-23650000D02*
X18350000Y-23650000D01*
X25650000Y-23650000D02*
X25650000Y-21400000D01*
X19710000Y-17710000D02*
G75*
G02*
X24290000Y-17710000I2290000J-2290000D01*
G01*
X24290000Y-22290000D02*
G75*
G02*
X19710000Y-22290000I-2290000J2290000D01*
G01*
%TO.C,J_AUX1*%
X41730000Y-70365000D02*
X42365000Y-69730000D01*
X41730000Y-77350000D02*
X41730000Y-70365000D01*
X42365000Y-69730000D02*
X44270000Y-69730000D01*
X44270000Y-69730000D02*
X44270000Y-77350000D01*
X44270000Y-77350000D02*
X41730000Y-77350000D01*
%TO.C,J_AUX2*%
X47730000Y-70365000D02*
X48365000Y-69730000D01*
X47730000Y-77350000D02*
X47730000Y-70365000D01*
X48365000Y-69730000D02*
X50270000Y-69730000D01*
X50270000Y-69730000D02*
X50270000Y-77350000D01*
X50270000Y-77350000D02*
X47730000Y-77350000D01*
%TO.C,C_PCA2*%
X26500000Y-29875000D02*
X28500000Y-29875000D01*
X28500000Y-31125000D01*
X26500000Y-31125000D01*
X26500000Y-29875000D01*
%TO.C,J_L3_T*%
X88730000Y-58730000D02*
X96350000Y-58730000D01*
X88730000Y-60635000D02*
X88730000Y-58730000D01*
X89365000Y-61270000D02*
X88730000Y-60635000D01*
X96350000Y-58730000D02*
X96350000Y-61270000D01*
X96350000Y-61270000D02*
X89365000Y-61270000D01*
%TO.C,U2*%
X28000000Y-18000000D02*
X31000000Y-18000000D01*
X31000000Y-22000000D01*
X27000000Y-22000000D01*
X27000000Y-19000000D01*
X28000000Y-18000000D01*
%TO.C,C_PCA4*%
X75000000Y-29375000D02*
X77000000Y-29375000D01*
X77000000Y-30625000D01*
X75000000Y-30625000D01*
X75000000Y-29375000D01*
%TO.C,LED_3V3*%
X83200000Y-27900000D02*
X83200000Y-28400000D01*
X83200000Y-28400000D02*
X84800000Y-28400000D01*
X83500000Y-27600000D02*
X83200000Y-27900000D01*
X84800000Y-27600000D02*
X83500000Y-27600000D01*
X84800000Y-28400000D02*
X84800000Y-27600000D01*
%TO.C,R_FB1*%
X48200000Y-60587500D02*
X49800000Y-60587500D01*
X49800000Y-61412500D01*
X48200000Y-61412500D01*
X48200000Y-60587500D01*
%TO.C,J_L5_C*%
X8730000Y-31730000D02*
X16350000Y-31730000D01*
X8730000Y-33635000D02*
X8730000Y-31730000D01*
X9365000Y-34270000D02*
X8730000Y-33635000D01*
X16350000Y-31730000D02*
X16350000Y-34270000D01*
X16350000Y-34270000D02*
X9365000Y-34270000D01*
%TO.C,C_BAT1*%
X25900000Y-10700000D02*
X29100000Y-10700000D01*
X29100000Y-12300000D01*
X25900000Y-12300000D01*
X25900000Y-10700000D01*
%TO.C,J_L5_T*%
X8730000Y-40730000D02*
X16350000Y-40730000D01*
X8730000Y-42635000D02*
X8730000Y-40730000D01*
X9365000Y-43270000D02*
X8730000Y-42635000D01*
X16350000Y-40730000D02*
X16350000Y-43270000D01*
X16350000Y-43270000D02*
X9365000Y-43270000D01*
%TO.C,C_IN2*%
X30400000Y-43200000D02*
X33600000Y-43200000D01*
X33600000Y-44800000D01*
X30400000Y-44800000D01*
X30400000Y-43200000D01*
%TO.C,C_ISO1*%
X76323241Y-6252500D02*
X77123241Y-6252500D01*
X76723241Y-5852500D02*
X76723241Y-6652500D01*
X83750000Y-8000000D02*
G75*
G02*
X75750000Y-8000000I-4000000J0D01*
G01*
X75750000Y-8000000D02*
G75*
G02*
X83750000Y-8000000I4000000J0D01*
G01*
%TO.C,J_I2C*%
X77730000Y-68365000D02*
X78365000Y-67730000D01*
X77730000Y-77890000D02*
X77730000Y-68365000D01*
X78365000Y-67730000D02*
X80270000Y-67730000D01*
X80270000Y-67730000D02*
X80270000Y-77890000D01*
X80270000Y-77890000D02*
X77730000Y-77890000D01*
%TO.C,U3*%
X32675000Y-48200000D02*
X32675000Y-49000000D01*
X32675000Y-49000000D02*
X37375000Y-49000000D01*
X32675000Y-49900000D02*
X32675000Y-50700000D01*
X32675000Y-50700000D02*
X37375000Y-50700000D01*
X32675000Y-51600000D02*
X32675000Y-52400000D01*
X32675000Y-52400000D02*
X37375000Y-52400000D01*
X32675000Y-53300000D02*
X32675000Y-54100000D01*
X32675000Y-54100000D02*
X37375000Y-54100000D01*
X32675000Y-55000000D02*
X32675000Y-55800000D01*
X32675000Y-55800000D02*
X37375000Y-55800000D01*
X37375000Y-48200000D02*
X32675000Y-48200000D01*
X37375000Y-49900000D02*
X32675000Y-49900000D01*
X37375000Y-51600000D02*
X32675000Y-51600000D01*
X37375000Y-53300000D02*
X32675000Y-53300000D01*
X37375000Y-55000000D02*
X32675000Y-55000000D01*
X46625000Y-47000000D02*
X47625000Y-47000000D01*
X47625000Y-47000000D02*
X47625000Y-57000000D01*
X47625000Y-57000000D02*
X46625000Y-57000000D01*
X46625000Y-47000000D02*
X46625000Y-57000000D01*
X37375000Y-57000000D01*
X37375000Y-48000000D01*
X38375000Y-47000000D01*
X46625000Y-47000000D01*
%TO.C,R_SCL*%
X49200000Y-41587500D02*
X50800000Y-41587500D01*
X50800000Y-42412500D01*
X49200000Y-42412500D01*
X49200000Y-41587500D01*
%TO.C,LED_SERVO*%
X76600000Y-55200000D02*
X76600000Y-56500000D01*
X76600000Y-56500000D02*
X76900000Y-56800000D01*
X76900000Y-56800000D02*
X77400000Y-56800000D01*
X77400000Y-55200000D02*
X76600000Y-55200000D01*
X77400000Y-56800000D02*
X77400000Y-55200000D01*
%TO.C,J_L5_F*%
X8730000Y-36230000D02*
X16350000Y-36230000D01*
X8730000Y-38135000D02*
X8730000Y-36230000D01*
X9365000Y-38770000D02*
X8730000Y-38135000D01*
X16350000Y-36230000D02*
X16350000Y-38770000D01*
X16350000Y-38770000D02*
X9365000Y-38770000D01*
%TO.C,R_FB2*%
X48200000Y-63587500D02*
X49800000Y-63587500D01*
X49800000Y-64412500D01*
X48200000Y-64412500D01*
X48200000Y-63587500D01*
%TO.C,R_FULL*%
X29087500Y-5200000D02*
X29912500Y-5200000D01*
X29912500Y-6800000D01*
X29087500Y-6800000D01*
X29087500Y-5200000D01*
%TO.C,J_L3_F*%
X88730000Y-54230000D02*
X96350000Y-54230000D01*
X88730000Y-56135000D02*
X88730000Y-54230000D01*
X89365000Y-56770000D02*
X88730000Y-56135000D01*
X96350000Y-54230000D02*
X96350000Y-56770000D01*
X96350000Y-56770000D02*
X89365000Y-56770000D01*
%TO.C,C_VBUS1*%
X18500000Y-10875000D02*
X20500000Y-10875000D01*
X20500000Y-12125000D01*
X18500000Y-12125000D01*
X18500000Y-10875000D01*
%TO.C,J_L4_T*%
X8730000Y-22730000D02*
X16350000Y-22730000D01*
X8730000Y-24635000D02*
X8730000Y-22730000D01*
X9365000Y-25270000D02*
X8730000Y-24635000D01*
X16350000Y-22730000D02*
X16350000Y-25270000D01*
X16350000Y-25270000D02*
X9365000Y-25270000D01*
%TO.C,J1*%
X45530000Y-1325000D02*
X45530000Y-8675000D01*
X45530000Y-1325000D02*
X54470000Y-1325000D01*
X45530000Y-8675000D02*
X54470000Y-8675000D01*
X46800000Y-2325000D02*
X45800000Y-1325000D01*
X46800000Y-2325000D02*
X47800000Y-1325000D01*
X54470000Y-1325000D02*
X54470000Y-8675000D01*
%TO.C,D_STAT*%
X63200000Y-22900000D02*
X63200000Y-23400000D01*
X63200000Y-23400000D02*
X64800000Y-23400000D01*
X63500000Y-22600000D02*
X63200000Y-22900000D01*
X64800000Y-22600000D02*
X63500000Y-22600000D01*
X64800000Y-23400000D02*
X64800000Y-22600000D01*
%TO.C,C_OUT1*%
X69323241Y-48252500D02*
X70123241Y-48252500D01*
X69723241Y-47852500D02*
X69723241Y-48652500D01*
X76750000Y-50000000D02*
G75*
G02*
X68750000Y-50000000I-4000000J0D01*
G01*
X68750000Y-50000000D02*
G75*
G02*
X76750000Y-50000000I4000000J0D01*
G01*
%TO.C,D_CATCH*%
X38450000Y-66100000D02*
X38450000Y-59900000D01*
X41350560Y-62200920D02*
X41350560Y-63801120D01*
X41350560Y-63001020D02*
X40448860Y-63001020D01*
X41350560Y-63001020D02*
X42501180Y-62200920D01*
X41350560Y-63001020D02*
X42501180Y-63750320D01*
X42501180Y-63001020D02*
X43499400Y-63001020D01*
X42501180Y-63750320D02*
X42501180Y-62200920D01*
X45550000Y-59900000D02*
X38450000Y-59900000D01*
X45550000Y-59900000D02*
X45550000Y-66100000D01*
X45550000Y-66100000D02*
X38450000Y-66100000D01*
%TO.C,J_L1_T*%
X88730000Y-22730000D02*
X96350000Y-22730000D01*
X88730000Y-24635000D02*
X88730000Y-22730000D01*
X89365000Y-25270000D02*
X88730000Y-24635000D01*
X96350000Y-22730000D02*
X96350000Y-25270000D01*
X96350000Y-25270000D02*
X89365000Y-25270000D01*
%TO.C,R_CC1*%
X41587500Y-4200000D02*
X42412500Y-4200000D01*
X42412500Y-5800000D01*
X41587500Y-5800000D01*
X41587500Y-4200000D01*
%TD*%
M02*
